<?xml version="1.0" encoding="utf-8"?>
<!-- Generator: Adobe Illustrator 19.0.0, SVG Export Plug-In . SVG Version: 6.00 Build 0)  -->
<svg version="1.1" id="Layer_1" xmlns="http://www.w3.org/2000/svg" xmlns:xlink="http://www.w3.org/1999/xlink" x="0px" y="0px"
	 viewBox="-481 165.5 512 512" style="enable-background:new -481 165.5 512 512;" xml:space="preserve">
<style type="text/css">
	.st0{fill:#5D5D5D;}
</style>
<g>
	<g>
		<path class="st0" d="M-67.9,283.3c12.7,7.3,20.6,18,24,32.6c0.7,4,0.7,8,1.3,12c0,18,0,36.6,0,54.6c0,20,0,41.3,0,61.3
			c0,18-7.3,32-22.6,41.9c-8,5.3-16,7.3-25.3,8c-16.6,1.3-34,2.7-50.6,4c-1.3,0-2,0.7-2.7,2c-1.3,9.3-3.3,18.6-5.3,28
			c-1.3,7.3-2.7,14-3.3,20.6c-0.7,3.3-1.3,8-2,11.3c-0.7,2-0.7,5.3-4,4c0,10,0,20,0,30c-5.3,0-10,0-15.3,0c-0.7,0-1.3-1.3-1.3-2
			c0-8,0-16.6,0-24.6c0-0.7,0-2,0-2.7c0,0,0-0.7-0.7-0.7c-4-0.7-4-0.7-5.3-5.3c-1.3-19.3-3.3-38-5.3-57.9v-0.7c-1.3,0-3.3,0-5.3,0
			c-14,0-26-12-26.6-26c0-24,0-97.2,0-106.5c-1.3,0-2,0-2.7,0c-10.7,0-21.3,0-32.6,0c-8,0-12-4-12-12c0-2,0-4,0-7.3
			c-1.3,0-2,0-2.7,0c-20.6,0-41.3,0-61.9,0c-7.3,0-10.7-5.3-10-11.3c0.7-2.7,3.3-6,6.7-6.7c1.3,0,2.7,0,5.3,0c20,0,40.6,0,60.6,0
			c2,0,2.7-0.7,2.7-2.7c0-2.7,0-6.7,0.7-9.3c0.7-4,4-7.3,8.7-7.3c5.3,0,10.7,0,16,0c6.7,0,12.7,0,19.3,0c2,0,2.7-0.7,2.7-2.7
			c0-3.3,0-8,0-11.3c0-12.7,7.3-23.3,19.3-26.6c2.7-0.7,6.7-1.3,10-1.3c10.7,0.7,22.6,1.3,33.3,2.7c16,1.3,32,2.7,46.6,4
			C-105.2,275.3-75.2,276.7-67.9,283.3z M-89.8,336.6c-0.7,0-1.3-0.7-1.3-0.7c-14.6,0-28,0-42.6,0c-0.7,0-2,0.7-2,1.3
			c-1.3,2-2,4-3.3,6.7c-6.7,14-14,26.6-20,40.6c-1.3,3.3-3.3,7.3-6,10.7c8.7,0,16,0,24.6,0c-5.3,15.3-10,29.3-14.6,43.9
			c0,0,0,0,0.7,0c20-21.3,40.6-43.3,61.3-64.6c-10,0-20,0-30,0C-112.5,361.9-101.2,348.6-89.8,336.6z"/>
		<path class="st0" d="M-390.1,166.2c0,4,0,8.7,0,12c0,1.3,0,2.7,2,2.7c8,0.7,16,8,16.6,16.6c0,2.7,0,6,0,8.7c0,18,0,36.6,0,54.6
			c0,2,0.7,2.7,2.7,2.7c6,0,10,4,10.7,10c0,1.3,0,2,0,3.3c0,41.9,0,82.6,0,124.5c0,6-2,10-7.3,12c-0.7,0.7-2,0.7-3.3,0.7
			c-2.7,0-2.7,0.7-2.7,3.3c0,10,0,20,0,30c0,10.7,0,22.6,0,33.3c0,8.7-8,16-16.6,16.6c-1.3,0-2,0-2,2c0,10.7,0,22.6,0,33.3
			c0,0,0,22.6,0,24.6c0,14.6,0,28,0,42.6c0,0.7,0,2,0,2.7c-6,0-11.3,0-17.3,0c0-0.7,0-2,0-2.7c0-10.7,0-20.6,0-32
			c0-1.3,0-20.6,0-21.3c0-45.9,0-91.9,0-138.5c0-79.9,0-159.8,0-239.7c0-2,0.7-2.7,2.7-2.7C-400.1,166.2-394.8,166.2-390.1,166.2z"
			/>
	</g>
	<g>
		<path class="st0" d="M-362.2,664.2l-3.3,12h-10.7l15.3-47.9h14.6l15.3,47.9h-11.3l-3.3-12H-362.2z M-349.5,654.9l-2.7-10
			c-0.7-2.7-1.3-6.7-2-9.3l0,0c-0.7,2.7-1.3,6.7-2,9.3l-2.7,10H-349.5z"/>
		<path class="st0" d="M-325.5,628.9c4-0.7,9.3-0.7,15.3-0.7c9.3,0,15.3,1.3,20,5.3c5.3,3.3,8,9.3,8,18c0,9.3-3.3,16-8,19.3
			c-5.3,4-12.7,6.7-22.6,6.7c-6,0-9.3,0-12-0.7v-47.3L-325.5,628.9L-325.5,628.9z M-314.9,668.8c0.7,0,2,0,3.3,0
			c10,0,16.6-5.3,16.6-17.3c0-10-6-15.3-15.3-15.3c-2,0-4,0-5.3,0.7C-314.9,636.9-314.9,668.8-314.9,668.8z"/>
		<path class="st0" d="M-265.6,664.2l-3.3,12h-11.3l15.3-47.9h14.6l15.3,47.9h-11.3l-3.3-12H-265.6z M-253,654.9l-2.7-10
			c-0.7-2.7-1.3-6.7-2-9.3l0,0c-0.7,2.7-1.3,6.7-2,9.3l-2.7,10H-253z"/>
		<path class="st0" d="M-230.3,628.9c3.3-0.7,8-0.7,15.3-0.7c6.7,0,11.3,1.3,15.3,3.3c2.7,2,5.3,6.7,5.3,11.3c0,5.3-1.3,8.7-4,11.3
			c-3.3,3.3-9.3,5.3-16,5.3c-1.3,0-2.7,0-3.3,0v17.3h-10.7L-230.3,628.9L-230.3,628.9z M-219,650.9c0.7,0,2,0,3.3,0
			c6,0,9.3-2.7,9.3-8c0-4-2.7-7.3-8.7-7.3c-2,0-3.3,0-4,0.7C-219,636.2-219,650.9-219,650.9z"/>
		<path class="st0" d="M-179.1,636.9h-12.7v-9.3h37.3v9.3h-12.7v38.6h-10.7L-179.1,636.9L-179.1,636.9z"/>
		<path class="st0" d="M-119.8,655.5h-18v11.3h20v8.7h-31.3v-47.9h29.3v8.7h-18.6v10h18v9.3H-119.8z"/>
		<path class="st0" d="M-110.5,628.9c3.3-0.7,8.7-0.7,14.6-0.7c7.3,0,12,0.7,16,3.3c2.7,2,4,6,4,10c0,6.7-4,10-8.7,12l0,0
			c3.3,1.3,5.3,4,6.7,9.3c1.3,6,2.7,11.3,3.3,14h-11.3c-0.7-1.3-2-5.3-3.3-11.3c-1.3-6-3.3-8-8-8h-3.3v18.6h-10.7v-47.3
			L-110.5,628.9L-110.5,628.9z M-99.8,650.2h4c6,0,8.7-2.7,8.7-7.3s-2.7-6.7-8-6.7c-2.7,0-4,0-5.3,0v14H-99.8z"/>
	</g>
</g>
</svg>
