<?xml version="1.0" encoding="utf-8"?>
<!-- Generator: Adobe Illustrator 19.0.0, SVG Export Plug-In . SVG Version: 6.00 Build 0)  -->
<svg version="1.1" id="Layer_1" xmlns="http://www.w3.org/2000/svg" xmlns:xlink="http://www.w3.org/1999/xlink" x="0px" y="0px"
	 viewBox="-49 141 512 512" style="enable-background:new -49 141 512 512;" xml:space="preserve">
<style type="text/css">
	.st0{fill:#BD2F32;}
	.st1{fill:#FFFFFF;}
</style>
<g>
	<g id="XMLID_29_">
		<rect id="XMLID_28_" x="-49" y="141" class="st0" width="512" height="512"/>
		<g id="XMLID_30_">
			<rect id="XMLID_31_" x="23.3" y="580.2" class="st1" width="367.3" height="2.1"/>
		</g>
	</g>
	<g>
		<path class="st1" d="M353,259.3c11.9,6.8,19.1,16.8,22.3,30.4c0.6,3.8,0.6,7.4,1.3,11.2c0,16.8,0,34,0,50.8c0,18.5,0,38.4,0,56.9
			c0,16.8-6.8,29.7-21,38.9c-7.4,4.9-14.9,6.8-23.4,7.4c-15.5,1.3-31.6,2.5-47,3.8c-1.3,0-1.9,0.6-2.5,1.9
			c-1.3,8.7-3.2,17.2-4.9,26.1c-1.3,6.8-2.5,13-3.2,19.1c-0.6,3.2-1.3,7.4-1.9,10.4c-0.6,1.9-0.6,4.9-3.8,3.8c0,9.3,0,18.5,0,28
			c-4.9,0-9.3,0-14.2,0c-0.6,0-1.3-1.3-1.3-1.9c0-7.4,0-15.5,0-22.8c0-0.6,0-1.9,0-2.5c0,0,0-0.6-0.6-0.6c-3.8-0.6-3.8-0.6-4.9-4.9
			c-1.3-17.9-3.2-35.3-4.9-53.9v-0.6c-1.3,0-3.2,0-4.9,0c-13,0-24.2-11.2-24.7-24.2c0-22.3,0-90.3,0-99c-1.3,0-1.9,0-2.5,0
			c-10,0-19.8,0-30.4,0c-7.4,0-11.2-3.8-11.2-11.2c0-1.9,0-3.8,0-6.8c-1.3,0-1.9,0-2.5,0c-19.1,0-38.4,0-57.6,0
			c-6.8,0-10-4.9-9.3-10.4c0.6-2.5,3.2-5.5,6.3-6.3c1.3,0,2.5,0,4.9,0c18.5,0,37.8,0,56.3,0c1.9,0,2.5-0.6,2.5-2.5
			c0-2.5,0-6.3,0.6-8.7c0.6-3.8,3.8-6.8,8.1-6.8c4.9,0,10,0,14.9,0c6.3,0,11.9,0,17.9,0c1.9,0,2.5-0.6,2.5-2.5c0-3.2,0-7.4,0-10.4
			c0-11.9,6.8-21.7,17.9-24.7c2.5-0.6,6.3-1.3,9.3-1.3c10,0.6,21,1.3,31,2.5c14.9,1.3,29.7,2.5,43.3,3.8
			C318.4,251.8,346.4,253.1,353,259.3z M332.8,308.8c-0.6,0-1.3-0.6-1.3-0.6c-13.6,0-26.1,0-39.5,0c-0.6,0-1.9,0.6-1.9,1.3
			c-1.3,1.9-1.9,3.8-3.2,6.3c-6.3,13-13,24.7-18.5,37.8c-1.3,3.2-3.2,6.8-5.5,10c8.1,0,14.9,0,22.8,0c-4.9,14.2-9.3,27.2-13.6,40.8
			c0,0,0,0,0.6,0c18.5-19.8,37.8-40.2,56.9-60.1c-9.3,0-18.5,0-28,0C311.7,332.3,322.2,320,332.8,308.8z"/>
		<path class="st1" d="M53.6,150.4c0,3.8,0,8.1,0,11.2c0,1.3,0,2.5,1.9,2.5c7.4,0.6,14.9,7.4,15.5,15.5c0,2.5,0,5.5,0,8.1
			c0,16.8,0,34,0,50.8c0,1.9,0.6,2.5,2.5,2.5c5.5,0,9.3,3.8,10,9.3c0,1.3,0,1.9,0,3.2c0,38.9,0,76.9,0,115.8c0,5.5-1.9,9.3-6.8,11.2
			c-0.6,0.6-1.9,0.6-3.2,0.6c-2.5,0-2.5,0.6-2.5,3.2c0,9.3,0,18.5,0,28c0,10,0,21,0,31c0,8.1-7.4,14.9-15.5,15.5
			c-1.3,0-1.9,0-1.9,1.9c0,10,0,21,0,31c0,0,0,21,0,22.8c0,13.6,0,26.1,0,39.5c0,0.6,0,1.9,0,2.5c-5.5,0-10.4,0-16.1,0
			c0-0.6,0-1.9,0-2.5c0-10,0-19.1,0-29.7c0-1.3,0-19.1,0-19.8c0-42.7,0-85.4,0-128.8c0-74.2,0-148.5,0-222.9c0-1.9,0.6-2.5,2.5-2.5
			C44.2,150.4,49.1,150.4,53.6,150.4z"/>
	</g>
	<g>
		<path d="M70,626.8l-3.5,12.5H55.4l16-49.9h15.2l16,49.9H90.8l-3.5-12.5H70L70,626.8z M83.2,617.1l-2.8-10.4
			c-0.7-2.8-1.3-7-2.1-9.7l0,0c-0.7,2.8-1.3,7-2.1,9.7l-2.8,10.4H83.2z"/>
		<path d="M108.3,590.1c4.2-0.7,9.7-0.7,16-0.7c9.7,0,16,1.3,20.8,5.5c5.5,3.5,8.3,9.7,8.3,18.8c0,9.7-3.5,16.7-8.3,20.1
			c-5.5,4.2-13.2,7-23.5,7c-6.3,0-9.7,0-12.5-0.7v-49.3L108.3,590.1L108.3,590.1z M119.3,631.6c0.7,0,2.1,0,3.5,0
			c10.4,0,17.3-5.5,17.3-18c0-10.4-6.3-16-16-16c-2.1,0-4.2,0-5.5,0.7C119.3,598.4,119.3,631.6,119.3,631.6z"/>
		<path d="M170.7,626.8l-3.5,12.5h-11.8l16-49.9h15.2l16,49.9h-11.8l-3.5-12.5H170.7z M183.8,617.1l-2.8-10.4
			c-0.7-2.8-1.3-7-2.1-9.7l0,0c-0.7,2.8-1.3,7-2.1,9.7l-2.8,10.4H183.8z"/>
		<path d="M207.5,590.1c3.5-0.7,8.3-0.7,16-0.7c7,0,11.8,1.3,16,3.5c2.8,2.1,5.5,7,5.5,11.8c0,5.5-1.3,9-4.2,11.8
			c-3.5,3.5-9.7,5.5-16.7,5.5c-1.3,0-2.8,0-3.5,0v18h-11.2L207.5,590.1L207.5,590.1z M219.3,613c0.7,0,2.1,0,3.5,0
			c6.3,0,9.7-2.8,9.7-8.3c0-4.2-2.8-7.6-9-7.6c-2.1,0-3.5,0-4.2,0.7C219.3,597.6,219.3,613,219.3,613z"/>
		<path d="M260.8,598.4h-13.2v-9.7h38.9v9.7h-13.2v40.2h-11.2L260.8,598.4L260.8,598.4z"/>
		<path d="M322.6,617.8h-18.8v11.8h20.8v9h-32.7v-49.9h30.5v9.1H303v10.4h18.8v9.7L322.6,617.8L322.6,617.8z"/>
		<path d="M332.3,590.1c3.5-0.7,9-0.7,15.2-0.7c7.6,0,12.5,0.7,16.7,3.5c2.8,2.1,4.2,6.3,4.2,10.4c0,7-4.2,10.4-9,12.5l0,0
			c3.5,1.3,5.5,4.2,7,9.7c1.3,6.3,2.8,11.8,3.5,14.6h-11.8c-0.7-1.3-2.1-5.5-3.5-11.8c-1.3-6.3-3.5-8.3-8.3-8.3h-3.5v19.4h-11.2
			v-49.3L332.3,590.1L332.3,590.1z M343.5,612.3h4.2c6.3,0,9-2.8,9-7.6s-2.8-7-8.3-7c-2.8,0-4.2,0-5.5,0v14.6H343.5z"/>
	</g>
	<g>
		<path class="st1" d="M64.3,626.8l-3.5,12.5H49.7l16-49.9h15.2l16,49.9H85.1l-3.5-12.5H64.3L64.3,626.8z M77.5,617.1l-2.8-10.4
			c-0.7-2.8-1.3-7-2.1-9.7l0,0c-0.7,2.8-1.3,7-2.1,9.7l-2.8,10.4H77.5z"/>
		<path class="st1" d="M102.6,590.1c4.2-0.7,9.7-0.7,16-0.7c9.7,0,16,1.3,20.8,5.5c5.5,3.5,8.3,9.7,8.3,18.8
			c0,9.7-3.5,16.7-8.3,20.1c-5.5,4.2-13.2,7-23.5,7c-6.3,0-9.7,0-12.5-0.7v-49.3L102.6,590.1L102.6,590.1z M113.6,631.6
			c0.7,0,2.1,0,3.5,0c10.4,0,17.3-5.5,17.3-18c0-10.4-6.3-16-16-16c-2.1,0-4.2,0-5.5,0.7C113.6,598.4,113.6,631.6,113.6,631.6z"/>
		<path class="st1" d="M165,626.8l-3.5,12.5h-11.8l16-49.9H181l16,49.9h-11.8l-3.5-12.5H165z M178.1,617.1l-2.8-10.4
			c-0.7-2.8-1.3-7-2.1-9.7l0,0c-0.7,2.8-1.3,7-2.1,9.7l-2.8,10.4H178.1z"/>
		<path class="st1" d="M201.9,590.1c3.5-0.7,8.3-0.7,16-0.7c7,0,11.8,1.3,16,3.5c2.8,2.1,5.5,7,5.5,11.8c0,5.5-1.3,9-4.2,11.8
			c-3.5,3.5-9.7,5.5-16.7,5.5c-1.3,0-2.8,0-3.5,0v18h-11.2L201.9,590.1L201.9,590.1z M213.6,613c0.7,0,2.1,0,3.5,0
			c6.3,0,9.7-2.8,9.7-8.3c0-4.2-2.8-7.6-9-7.6c-2.1,0-3.5,0-4.2,0.7C213.6,597.6,213.6,613,213.6,613z"/>
		<path class="st1" d="M255.1,598.4h-13.2v-9.7h38.9v9.7h-13.2v40.2h-11.2L255.1,598.4L255.1,598.4z"/>
		<path class="st1" d="M316.9,617.8h-18.8v11.8h20.8v9h-32.7v-49.9h30.5v9.1h-19.4v10.4h18.8v9.7L316.9,617.8L316.9,617.8z"/>
		<path class="st1" d="M326.6,590.1c3.5-0.7,9-0.7,15.2-0.7c7.6,0,12.5,0.7,16.7,3.5c2.8,2.1,4.2,6.3,4.2,10.4c0,7-4.2,10.4-9,12.5
			l0,0c3.5,1.3,5.5,4.2,7,9.7c1.3,6.3,2.8,11.8,3.5,14.6h-11.8c-0.7-1.3-2.1-5.5-3.5-11.8c-1.3-6.3-3.5-8.3-8.3-8.3h-3.5v19.4H326
			v-49.3L326.6,590.1L326.6,590.1z M337.9,612.3h4.2c6.3,0,9-2.8,9-7.6s-2.8-7-8.3-7c-2.8,0-4.2,0-5.5,0v14.6H337.9z"/>
	</g>
</g>
</svg>
