<?xml version="1.0" encoding="utf-8"?>
<!-- Generator: Adobe Illustrator 19.0.0, SVG Export Plug-In . SVG Version: 6.00 Build 0)  -->
<svg version="1.1" id="Capa_1" xmlns="http://www.w3.org/2000/svg" xmlns:xlink="http://www.w3.org/1999/xlink" x="0px" y="0px"
	 viewBox="-71 162.6 468.4 468.4" style="enable-background:new -71 162.6 468.4 468.4;" xml:space="preserve">
<style type="text/css">
	.st0{fill:#5D5D5D;}
</style>
<g>
	<path class="st0" d="M290.1,295.1c0,0-2.4-86.2-2.5-87.2c-0.2-1.6-0.6-3.2-1.2-4.7c-1.7-3.8-4.8-6.8-8.7-8.3l-25.6-9.9
		c-3.9-1.5-8.2-1.4-12.1,0.3s-6.8,4.8-8.3,8.7l-17.5,45.2c-2.7-0.7-5.4-1.2-8.1-1.7v-17c0-23.7-19.2-42.9-42.9-42.9
		s-42.9,19.2-42.9,42.9v17c-2.7,0.5-5.4,1-8.1,1.7l-17.5-45.2c-1.5-3.9-4.5-7-8.3-8.7c-3.8-1.7-8.1-1.8-12.1-0.3l-25.6,9.9
		c-3.9,1.5-7,4.5-8.7,8.3c-0.7,1.5-1,3-1.2,4.5c-0.1,1.1-2.5,87.5-2.5,87.5c-10.9,18.2-17.1,39.4-17.1,62.1v232.1
		c0,14.7,11.9,26.6,26.6,26.6h234.9c14.7,0,26.6-11.9,26.6-26.6V357.3C307.2,334.6,301,313.4,290.1,295.1z M275.5,275.5
		c-2.8-3.1-5.7-6-8.8-8.7l8-20.5L275.5,275.5z M244.7,199c0.4-0.9,1.4-1.3,2.2-1l25.6,9.9c0.6,0.2,0.8,0.7,0.9,0.9s0.3,0.7,0,1.3
		L255,257.6c-8.4-5.9-17.7-10.8-27.5-14.4L244.7,199z M163.1,191.6c14.3,0,26.3,10.5,28.5,24.2c-7.7-6.8-17.7-10.9-28.5-10.9
		c-10.6,0-20.6,3.8-28.5,10.8C136.9,202.1,148.8,191.6,163.1,191.6z M189.3,235.8c-1.2,0-51.2,0-52.4,0c1.4-3.1,3.4-5.9,5.8-8.4
		c5.4-5.4,12.7-8.4,20.4-8.4C174.6,218.9,184.7,225.8,189.3,235.8z M52.8,208.8c0.1-0.3,0.4-0.7,0.9-0.9l25.6-9.9
		c0.9-0.4,1.9,0.1,2.2,1l17.1,44.2c-9.8,3.7-19.1,8.5-27.5,14.4l-18.4-47.5C52.5,209.6,52.6,209.1,52.8,208.8z M51.6,246.2l8,20.5
		c-3.1,2.8-6.1,5.7-8.8,8.7L51.6,246.2z M293.2,589.4c0,6.9-5.6,12.5-12.5,12.5H45.5c-6.9,0-12.5-5.6-12.5-12.5V357.3
		c0-59.2,48.2-107.5,107.5-107.5h45.2c59.2,0,107.5,48.2,107.5,107.5L293.2,589.4L293.2,589.4z"/>
	<path class="st0" d="M67.9,415c-11.3,0-20.6,9.2-20.6,20.6v132.3c0,11.3,9.3,20.6,20.6,20.6h190.5c11.3,0,20.6-9.3,20.6-20.6V435.5
		c0-11.3-9.3-20.6-20.6-20.6L67.9,415L67.9,415z M258.4,574.3H67.9c-3.6,0-6.6-2.9-6.6-6.6v-88.3h176.7v16h14v-16h12.7v88.3
		C264.8,571.4,261.9,574.3,258.4,574.3z M264.8,435.5v30H61.4v-30c0-3.6,2.9-6.6,6.6-6.6h190.5C261.9,429,264.8,431.9,264.8,435.5z"
		/>
	<path class="st0" d="M207.7,278.6h-89.1v40.1h89.1C207.7,318.7,207.7,278.6,207.7,278.6z M193.6,304.7h-61v-12h61
		C193.6,292.7,193.6,304.7,193.6,304.7z"/>
</g>
</svg>
