<?xml version="1.0" encoding="utf-8"?>
<!-- Generator: Adobe Illustrator 19.0.0, SVG Export Plug-In . SVG Version: 6.00 Build 0)  -->
<svg version="1.1" id="Capa_1" xmlns="http://www.w3.org/2000/svg" xmlns:xlink="http://www.w3.org/1999/xlink" x="0px" y="0px"
	 viewBox="90 -18.4 468.4 468.4" style="enable-background:new 90 -18.4 468.4 468.4;" xml:space="preserve">
<style type="text/css">
	.st0{fill:#5D5D5D;}
</style>
<g>
	<g>
		<path class="st0" d="M451.2,114.1c0,0-2.4-86.2-2.5-87.2c-0.2-1.6-0.6-3.2-1.2-4.7c-1.7-3.8-4.8-6.8-8.7-8.3L413.2,4
			c-3.9-1.5-8.2-1.4-12.1,0.3s-6.8,4.8-8.3,8.7l-17.5,45.2c-2.7-0.7-5.4-1.2-8.1-1.7v-17c0-23.7-19.2-42.9-42.9-42.9
			s-42.9,19.2-42.9,42.9v17c-2.7,0.5-5.4,1-8.1,1.7L255.7,13c-1.5-3.9-4.5-7-8.3-8.7c-3.8-1.7-8.1-1.8-12.1-0.3l-25.6,9.9
			c-3.9,1.5-7,4.5-8.7,8.3c-0.7,1.5-1,3-1.2,4.5c-0.1,1.1-2.5,87.5-2.5,87.5c-10.9,18.2-17.1,39.4-17.1,62.1v232.1
			c0,14.7,11.9,26.6,26.6,26.6h234.9c14.7,0,26.6-11.9,26.6-26.6V176.3C468.3,153.6,462.1,132.4,451.2,114.1z M436.6,94.5
			c-2.8-3.1-5.7-6-8.8-8.7l8-20.5L436.6,94.5z M405.8,18c0.4-0.9,1.4-1.3,2.2-1l25.6,9.9c0.6,0.2,0.8,0.7,0.9,0.9s0.3,0.7,0,1.3
			l-18.4,47.5c-8.4-5.9-17.7-10.8-27.5-14.4L405.8,18z M324.2,10.6c14.3,0,26.3,10.5,28.5,24.2C345,28,335,23.9,324.2,23.9
			c-10.6,0-20.6,3.8-28.5,10.8C298,21.1,309.9,10.6,324.2,10.6z M350.4,54.8c-1.2,0-51.2,0-52.4,0c1.4-3.1,3.4-5.9,5.8-8.4
			c5.4-5.4,12.7-8.4,20.4-8.4C335.7,37.9,345.8,44.8,350.4,54.8z M213.9,27.8c0.1-0.3,0.4-0.7,0.9-0.9l25.6-9.9
			c0.9-0.4,1.9,0.1,2.2,1l17.1,44.2c-9.8,3.7-19.1,8.5-27.5,14.4l-18.4-47.5C213.6,28.6,213.7,28.1,213.9,27.8z M212.7,65.2l8,20.5
			c-3.1,2.8-6.1,5.7-8.8,8.7L212.7,65.2z M454.3,408.4c0,6.9-5.6,12.5-12.5,12.5H206.6c-6.9,0-12.5-5.6-12.5-12.5V176.3
			c0-59.2,48.2-107.5,107.5-107.5h45.2c59.2,0,107.5,48.2,107.5,107.5V408.4L454.3,408.4z"/>
		<path class="st0" d="M229,234c-11.3,0-20.6,9.2-20.6,20.6v132.3c0,11.3,9.3,20.6,20.6,20.6h190.5c11.3,0,20.6-9.3,20.6-20.6V254.5
			c0-11.3-9.3-20.6-20.6-20.6L229,234L229,234z M419.5,393.3H229c-3.6,0-6.6-2.9-6.6-6.6v-88.3h176.7v16h14v-16h12.7v88.3
			C425.9,390.4,423,393.3,419.5,393.3z M425.9,254.5v30H222.5v-30c0-3.6,2.9-6.6,6.6-6.6h190.5C423,248,425.9,250.9,425.9,254.5z"/>
		<path class="st0" d="M368.8,97.6h-89.1v40.1h89.1V97.6z M354.7,123.7h-61v-12h61V123.7z"/>
	</g>
	<g>
		<path class="st0" d="M240.1,337.6c1.4-0.3,4.4-0.5,7.1-0.5c3.4,0,5.4,0.3,7.2,1.4c1.7,0.9,2.9,2.6,2.9,4.8c0,2.2-1.3,4.2-4,5.2
			v0.1c2.8,0.8,4.8,2.8,4.8,6c0,2.2-1,3.9-2.5,5.2c-1.8,1.4-4.7,2.2-9.5,2.2c-2.7,0-4.7-0.2-5.9-0.4v-24H240.1z M245.6,346.9h1.8
			c2.9,0,4.4-1.2,4.4-3s-1.4-2.8-3.9-2.8c-1.2,0-1.9,0.1-2.3,0.1V346.9z M245.6,357.6c0.5,0.1,1.2,0.1,2.1,0.1c2.5,0,4.7-1,4.7-3.5
			c0-2.4-2.2-3.4-4.9-3.4h-1.9V357.6L245.6,357.6z"/>
		<path class="st0" d="M267.4,355.3l-1.7,6.2h-5.7l7.4-24.3h7.2l7.5,24.3h-5.9l-1.9-6.2H267.4z M273.6,351.2l-1.5-5.2
			c-0.4-1.4-0.9-3.2-1.2-4.7h-0.1c-0.4,1.4-0.7,3.3-1.1,4.7l-1.4,5.2H273.6z"/>
		<path class="st0" d="M302.3,360.8c-1,0.5-3.3,1.1-6.2,1.1c-8.4,0-12.7-5.3-12.7-12.2c0-8.3,5.9-12.9,13.3-12.9c2.8,0,5,0.6,6,1.1
			l-1.1,4.4c-1.1-0.5-2.7-0.9-4.6-0.9c-4.4,0-7.7,2.6-7.7,8c0,4.9,2.9,7.9,7.8,7.9c1.7,0,3.5-0.4,4.6-0.8L302.3,360.8z"/>
		<path class="st0" d="M305.9,337.2h5.4V348h0.1c0.5-0.9,1.1-1.8,1.7-2.7l5.5-8.1h6.7l-8,10.3l8.5,13.9h-6.4l-5.9-10.5l-2.1,2.6v7.9
			H306v-24.2H305.9z"/>
		<path class="st0" d="M328,337.6c1.7-0.3,4.1-0.5,7.4-0.5c3.4,0,5.8,0.6,7.4,1.9c1.5,1.2,2.6,3.2,2.6,5.6s-0.8,4.4-2.2,5.8
			c-1.9,1.8-4.6,2.6-7.9,2.6c-0.7,0-1.4,0-1.9-0.1v8.7H328V337.6z M333.5,348.6c0.5,0.1,1,0.1,1.8,0.1c2.9,0,4.7-1.5,4.7-4
			c0-2.2-1.5-3.6-4.3-3.6c-1.1,0-1.9,0.1-2.3,0.2L333.5,348.6L333.5,348.6z"/>
		<path class="st0" d="M352.5,355.3l-1.7,6.2H345l7.4-24.3h7.2l7.5,24.3h-5.9l-1.9-6.2H352.5z M358.6,351.2l-1.5-5.2
			c-0.4-1.4-0.9-3.2-1.2-4.7h-0.1c-0.4,1.4-0.7,3.3-1.1,4.7l-1.4,5.2H358.6z"/>
		<path class="st0" d="M387.4,360.8c-1,0.5-3.3,1.1-6.2,1.1c-8.4,0-12.7-5.3-12.7-12.2c0-8.3,5.9-12.9,13.3-12.9c2.8,0,5,0.6,6,1.1
			l-1.1,4.4c-1.1-0.5-2.7-0.9-4.6-0.9c-4.4,0-7.7,2.6-7.7,8c0,4.9,2.9,7.9,7.8,7.9c1.7,0,3.5-0.4,4.6-0.8L387.4,360.8z"/>
		<path class="st0" d="M391,337.2h5.4V348h0.1c0.5-0.9,1.1-1.8,1.7-2.7l5.5-8.1h6.7l-8,10.3l8.5,13.9h-6.4l-5.9-10.5l-2.1,2.6v7.9
			h-5.4v-24.2H391z"/>
	</g>
</g>
</svg>
