<?xml version="1.0" encoding="utf-8"?>
<!-- Generator: Adobe Illustrator 19.0.0, SVG Export Plug-In . SVG Version: 6.00 Build 0)  -->
<svg version="1.1" id="Capa_1" xmlns="http://www.w3.org/2000/svg" xmlns:xlink="http://www.w3.org/1999/xlink" x="0px" y="0px"
	 viewBox="-92.8 140.8 512 512" style="enable-background:new -92.8 140.8 512 512;" xml:space="preserve">
<style type="text/css">
	.st0{fill-rule:evenodd;clip-rule:evenodd;fill:#BE2E32;}
	.st1{fill:#FFFFFF;}
</style>
<g>
	<rect id="XMLID_27_" x="-92.8" y="140.8" class="st0" width="512" height="512"/>
	<g>
		<rect x="-20.5" y="580" class="st1" width="367.3" height="2.1"/>
	</g>
</g>
<g>
	<path d="M13.6,598.1c2.5-0.5,8-0.9,12.9-0.9c6.2,0,9.8,0.5,13.1,2.5c3.1,1.6,5.3,4.7,5.3,8.7c0,4-2.4,7.6-7.3,9.5v0.2
		c5.1,1.5,8.7,5.1,8.7,10.9c0,4-1.8,7.1-4.5,9.5c-3.3,2.5-8.5,4-17.3,4c-4.9,0-8.5-0.4-10.7-0.7v-43.6L13.6,598.1L13.6,598.1z
		 M23.6,615h3.3c5.3,0,8-2.2,8-5.5c0-3.3-2.5-5.1-7.1-5.1c-2.2,0-3.5,0.2-4.2,0.2V615z M23.6,634.4c0.9,0.2,2.2,0.2,3.8,0.2
		c4.5,0,8.5-1.8,8.5-6.4c0-4.4-4-6.2-8.9-6.2h-3.5L23.6,634.4L23.6,634.4z"/>
	<path d="M63.2,630.2l-3.1,11.3H49.8l13.5-44.2h13.1l13.6,44.2H79.2l-3.5-11.3H63.2z M74.5,622.8l-2.7-9.5c-0.7-2.5-1.6-5.8-2.2-8.5
		h-0.2c-0.7,2.5-1.3,6-2,8.5l-2.5,9.5H74.5z"/>
	<path d="M126.7,640.3c-1.8,0.9-6,2-11.3,2c-15.3,0-23.1-9.6-23.1-22.2c0-15.1,10.7-23.5,24.2-23.5c5.1,0,9.1,1.1,10.9,2l-2,8
		c-2-0.9-4.9-1.6-8.4-1.6c-8,0-14,4.7-14,14.5c0,8.9,5.3,14.4,14.2,14.4c3.1,0,6.4-0.7,8.4-1.5L126.7,640.3z"/>
	<path d="M133.2,597.3h9.8V617h0.2c0.9-1.6,2-3.3,3.1-4.9l10-14.7h12.2L154,616.1l15.5,25.3h-11.6L147,622.2l-3.8,4.7v14.4h-9.8v-44
		L133.2,597.3L133.2,597.3z"/>
	<path d="M173.4,598.1c3.1-0.5,7.5-0.9,13.5-0.9c6.2,0,10.5,1.1,13.5,3.5c2.7,2.2,4.7,5.8,4.7,10.2s-1.5,8-4,10.5
		c-3.5,3.3-8.4,4.7-14.4,4.7c-1.3,0-2.5,0-3.5-0.2v15.8h-9.8V598.1z M183.4,618.1c0.9,0.2,1.8,0.2,3.3,0.2c5.3,0,8.5-2.7,8.5-7.3
		c0-4-2.7-6.5-7.8-6.5c-2,0-3.5,0.2-4.2,0.4L183.4,618.1L183.4,618.1z"/>
	<path d="M218,630.2l-3.1,11.3h-10.5l13.5-44.2h13.1l13.6,44.2h-10.7l-3.5-11.3H218z M229.1,622.8l-2.7-9.5
		c-0.7-2.5-1.6-5.8-2.2-8.5H224c-0.7,2.5-1.3,6-2,8.5l-2.5,9.5H229.1z"/>
	<path d="M281.4,640.3c-1.8,0.9-6,2-11.3,2c-15.3,0-23.1-9.6-23.1-22.2c0-15.1,10.7-23.5,24.2-23.5c5.1,0,9.1,1.1,10.9,2l-2,8
		c-2-0.9-4.9-1.6-8.4-1.6c-8,0-14,4.7-14,14.5c0,8.9,5.3,14.4,14.2,14.4c3.1,0,6.4-0.7,8.4-1.5L281.4,640.3z"/>
	<path d="M288,597.3h9.8V617h0.2c0.9-1.6,2-3.3,3.1-4.9l10-14.7h12.2l-14.5,18.7l15.5,25.3h-11.6l-10.7-19.1L298,627v14.4h-9.8v-44
		L288,597.3L288,597.3z"/>
</g>
<g>
	<path class="st1" d="M282,265.8c0,0-2.2-80.7-2.3-81.6c-0.2-1.5-0.6-3-1.1-4.4c-1.6-3.6-4.5-6.4-8.1-7.8l-24-9.3
		c-3.7-1.4-7.7-1.3-11.3,0.3c-3.7,1.6-6.4,4.5-7.8,8.1L211,213.5c-2.5-0.7-5.1-1.1-7.6-1.6V196c0-22.2-18-40.2-40.2-40.2
		s-40.2,18-40.2,40.2v15.9c-2.5,0.5-5.1,0.9-7.6,1.6L99,171.2c-1.4-3.7-4.2-6.6-7.8-8.1c-3.6-1.6-7.6-1.7-11.3-0.3L56,172
		c-3.7,1.4-6.6,4.2-8.1,7.8c-0.7,1.4-0.9,2.8-1.1,4.2c-0.1,1-2.3,81.9-2.3,81.9c-10.2,17-16,36.9-16,58.1v217.3
		c0,13.8,11.1,24.9,24.9,24.9h219.9c13.8,0,24.9-11.1,24.9-24.9V324C298,302.8,292.2,282.9,282,265.8z M268.4,247.4
		c-2.6-2.9-5.3-5.6-8.2-8.1l7.5-19.2L268.4,247.4z M239.5,175.8c0.4-0.8,1.3-1.2,2.1-0.9l24,9.3c0.6,0.2,0.7,0.7,0.8,0.8
		c0.1,0.2,0.3,0.7,0,1.2l-17.2,44.5c-7.9-5.5-16.6-10.1-25.7-13.5L239.5,175.8z M163.2,168.9c13.4,0,24.6,9.8,26.7,22.7
		c-7.2-6.4-16.6-10.2-26.7-10.2c-9.9,0-19.3,3.6-26.7,10.1C138.6,178.7,149.8,168.9,163.2,168.9z M187.7,210.3c-1.1,0-47.9,0-49.1,0
		c1.3-2.9,3.2-5.5,5.4-7.9c5.1-5.1,11.9-7.9,19.1-7.9C173.9,194.5,183.4,200.9,187.7,210.3z M59.9,185c0.1-0.3,0.4-0.7,0.8-0.8
		l24-9.3c0.8-0.4,1.8,0.1,2.1,0.9l16,41.4c-9.2,3.5-17.9,8-25.7,13.5l-17.2-44.5C59.6,185.8,59.7,185.3,59.9,185z M58.8,220
		l7.5,19.2c-2.9,2.6-5.7,5.3-8.2,8.1L58.8,220z M284.9,541.3c0,6.5-5.2,11.7-11.7,11.7H53.1c-6.5,0-11.7-5.2-11.7-11.7V324
		c0-55.4,45.1-100.6,100.6-100.6h42.3c55.4,0,100.6,45.1,100.6,100.6L284.9,541.3L284.9,541.3z"/>
	<path class="st1" d="M74,378c-10.6,0-19.3,8.6-19.3,19.3v123.9c0,10.6,8.7,19.3,19.3,19.3h178.3c10.6,0,19.3-8.7,19.3-19.3V397.2
		c0-10.6-8.7-19.3-19.3-19.3L74,378L74,378z M252.4,527.2H74c-3.4,0-6.2-2.7-6.2-6.2v-82.7h165.4v15h13.1v-15h11.9V521
		C258.4,524.4,255.6,527.2,252.4,527.2z M258.4,397.2v28.1H67.9v-28.1c0-3.4,2.7-6.2,6.2-6.2h178.3
		C255.6,391.1,258.4,393.9,258.4,397.2z"/>
	<path class="st1" d="M204.9,250.3h-83.4v37.5h83.4V250.3z M191.7,274.8h-57.1v-11.2h57.1V274.8z"/>
</g>
<g>
	<path class="st1" d="M7.9,598.1c2.5-0.5,8-0.9,12.9-0.9c6.2,0,9.8,0.5,13.1,2.5c3.1,1.6,5.3,4.7,5.3,8.7c0,4-2.4,7.6-7.3,9.5v0.2
		c5.1,1.5,8.7,5.1,8.7,10.9c0,4-1.8,7.1-4.5,9.5c-3.3,2.5-8.5,4-17.3,4c-4.9,0-8.5-0.4-10.7-0.7v-43.6L7.9,598.1L7.9,598.1z
		 M17.9,615h3.3c5.3,0,8-2.2,8-5.5c0-3.3-2.5-5.1-7.1-5.1c-2.2,0-3.5,0.2-4.2,0.2V615z M17.9,634.4c0.9,0.2,2.2,0.2,3.8,0.2
		c4.5,0,8.5-1.8,8.5-6.4c0-4.4-4-6.2-8.9-6.2h-3.5L17.9,634.4L17.9,634.4z"/>
	<path class="st1" d="M57.5,630.2l-3.1,11.3H44.1l13.5-44.2h13.1l13.6,44.2H73.5l-3.5-11.3H57.5z M68.8,622.8l-2.7-9.5
		c-0.7-2.5-1.6-5.8-2.2-8.5h-0.2c-0.7,2.5-1.3,6-2,8.5l-2.5,9.5H68.8z"/>
	<path class="st1" d="M121,640.3c-1.8,0.9-6,2-11.3,2c-15.3,0-23.1-9.6-23.1-22.2c0-15.1,10.7-23.5,24.2-23.5c5.1,0,9.1,1.1,10.9,2
		l-2,8c-2-0.9-4.9-1.6-8.4-1.6c-8,0-14,4.7-14,14.5c0,8.9,5.3,14.4,14.2,14.4c3.1,0,6.4-0.7,8.4-1.5L121,640.3z"/>
	<path class="st1" d="M127.6,597.3h9.8V617h0.2c0.9-1.6,2-3.3,3.1-4.9l10-14.7h12.2l-14.5,18.7l15.5,25.3h-11.6l-10.7-19.1l-3.8,4.7
		v14.4h-9.8v-44L127.6,597.3L127.6,597.3z"/>
	<path class="st1" d="M167.7,598.1c3.1-0.5,7.5-0.9,13.5-0.9c6.2,0,10.5,1.1,13.5,3.5c2.7,2.2,4.7,5.8,4.7,10.2s-1.5,8-4,10.5
		c-3.5,3.3-8.4,4.7-14.4,4.7c-1.3,0-2.5,0-3.5-0.2v15.8h-9.8V598.1z M177.7,618.1c0.9,0.2,1.8,0.2,3.3,0.2c5.3,0,8.5-2.7,8.5-7.3
		c0-4-2.7-6.5-7.8-6.5c-2,0-3.5,0.2-4.2,0.4L177.7,618.1L177.7,618.1z"/>
	<path class="st1" d="M212.3,630.2l-3.1,11.3h-10.5l13.5-44.2h13.1l13.6,44.2h-10.7l-3.5-11.3H212.3z M223.4,622.8l-2.7-9.5
		c-0.7-2.5-1.6-5.8-2.2-8.5h-0.2c-0.7,2.5-1.3,6-2,8.5l-2.5,9.5H223.4z"/>
	<path class="st1" d="M275.8,640.3c-1.8,0.9-6,2-11.3,2c-15.3,0-23.1-9.6-23.1-22.2c0-15.1,10.7-23.5,24.2-23.5
		c5.1,0,9.1,1.1,10.9,2l-2,8c-2-0.9-4.9-1.6-8.4-1.6c-8,0-14,4.7-14,14.5c0,8.9,5.3,14.4,14.2,14.4c3.1,0,6.4-0.7,8.4-1.5
		L275.8,640.3z"/>
	<path class="st1" d="M282.3,597.3h9.8V617h0.2c0.9-1.6,2-3.3,3.1-4.9l10-14.7h12.2L303,616.1l15.5,25.3h-11.6l-10.7-19.1l-3.8,4.7
		v14.4h-9.8v-44L282.3,597.3L282.3,597.3z"/>
</g>
</svg>
