<?xml version="1.0" encoding="utf-8"?>
<!-- Generator: Adobe Illustrator 19.0.0, SVG Export Plug-In . SVG Version: 6.00 Build 0)  -->
<svg version="1.1" id="Layer_1" xmlns="http://www.w3.org/2000/svg" xmlns:xlink="http://www.w3.org/1999/xlink" x="0px" y="0px"
	 viewBox="-71 145 144 144" style="enable-background:new -71 145 144 144;" xml:space="preserve">
<g id="XMLID_811_">
	<path id="XMLID_814_" d="M-11.2,157.2c4.7,0,9.4,0.1,14.1,0c4.4-0.1,7.8,1.6,10.6,4.8c3.4,3.7,5.5,8.1,7.1,12.8
		c3.3,9,4.9,18.3,5.8,27.8c0.9,9.8,0.9,19.6,0,29.4c-1.1,10.8-2.8,21.5-7.4,31.4c-1.5,3.3-3.7,6.4-5.9,9.3c-2.5,3.1-6,4.4-10.1,4.4
		c-9.3-0.1-18.5-0.2-27.8,0c-5.3,0.1-9.2-2.1-12.3-6.1c-4.2-5.5-6.5-11.8-8.2-18.3c-4.1-15.6-5-31.5-3.8-47.6
		c0.8-10.4,2.4-20.6,6-30.4c1.5-4.2,3.5-8.2,6.3-11.7c3-3.7,6.7-5.8,11.7-5.6C-20.5,157.3-15.8,157.2-11.2,157.2z M21,208.8
		c-0.3-3-0.8-8.8-1.6-14.5c-1.2-7.9-3-15.6-6.6-22.7c-1.3-2.5-3-4.8-4.9-6.8c-2.4-2.5-5.1-2.3-7.7,0c-0.9,0.8-1.7,1.7-2.4,2.7
		c-2.8,3.9-4.4,8.2-5.8,12.7c-0.1,0.4-0.1,1,0,1.5c2.8,10.5,3.9,21.2,4.2,32.1c0.2,7,7.1,12.5,14,11.5
		C17.1,224.1,21.3,218.9,21,208.8z M-41.8,192.7c-2.7,16.3-2.7,32.4,0,48.6c8.3,0,16.5,0,24.9,0c-2.6-16.2-2.6-32.4,0-48.6
		C-25.3,192.7-33.4,192.7-41.8,192.7z M-3.8,226.5c-0.1,0.3-0.2,0.4-0.2,0.5c-0.5,8.7-1.7,17.2-4,25.6c-0.1,0.5-0.1,1,0.1,1.5
		c1.7,3.9,3.3,7.9,5.2,11.7c0.9,1.6,2.4,3,3.9,4.2c1.9,1.5,4,1.5,6,0c1.3-1,2.6-2.2,3.4-3.6c1.6-2.7,3.2-5.6,4.3-8.5
		c3.3-8.4,4.8-17.2,5.7-26.1c0.2-1.6,0.2-3.2,0.4-5C12.3,232.9,4.2,232.7-3.8,226.5z M-40.7,247.3c0.8,2.7,1.4,5.1,2.1,7.5
		c1.5,4.6,3.3,9,6.3,12.8c1.8,2.3,4,3.5,7.1,3.5c5.7-0.1,11.4,0,17,0c0.5,0,0.9-0.1,1.6-0.1c-0.8-1.3-1.5-2.4-2.2-3.5
		c-3.3-5.8-5.3-12.1-6.8-18.6c-0.3-1.2-0.7-1.6-2-1.6c-7.1,0.1-14.2,0-21.4,0C-39.3,247.3-39.8,247.3-40.7,247.3z M-40.5,186.5
		c0.3,0.1,0.4,0.2,0.5,0.2c7.7,0,15.4,0,23.2,0.1c1,0,1.1-0.5,1.3-1.3c1.4-4.5,2.6-9.1,4.3-13.5c1.2-3,3-5.8,4.5-8.7
		c-0.1,0-0.2-0.1-0.4-0.1c-6.5,0-13-0.1-19.5,0.1c-1.2,0-2.6,0.7-3.6,1.4c-1.2,1-2.3,2.2-3.2,3.5C-37.1,173.7-39,180-40.5,186.5z
		 M-11.3,196c-2.2,13.9-2.2,27.8-0.1,41.7C-9.1,223.9-9.2,210-11.3,196z"/>
	<path id="XMLID_795_" d="M-33.6,198.4c-0.3,3.4-0.8,6.8-1,10.2c-0.6,8.5-0.4,17,1,25.4c0.3,2.1-0.6,3.6-2.3,3.9
		c-1.9,0.3-3.2-0.8-3.5-3c-1.9-12.2-1.9-24.4,0.1-36.6c0.3-2,1.6-3.2,3.3-3.1C-34.6,195.4-33.5,196.6-33.6,198.4z"/>
</g>
<g>
	<path d="M41.3,189.2c0.7-0.1,2.1-0.2,3.5-0.2c1.6,0,2.7,0.2,3.5,0.7c0.8,0.4,1.4,1.3,1.4,2.3c0,1.1-0.6,2.1-2,2.5v0
		c1.4,0.4,2.4,1.4,2.4,2.9c0,1.1-0.5,1.9-1.2,2.5c-0.9,0.7-2.3,1.1-4.7,1.1c-1.3,0-2.3-0.1-2.9-0.2V189.2z M44,193.7h0.9
		c1.4,0,2.2-0.6,2.2-1.5c0-0.9-0.7-1.4-1.9-1.4c-0.6,0-0.9,0-1.2,0.1V193.7z M44,199c0.3,0,0.6,0,1,0c1.2,0,2.3-0.5,2.3-1.7
		c0-1.2-1.1-1.7-2.4-1.7H44V199z"/>
	<path d="M44.1,212l-0.8,3.1h-2.8l3.6-11.9h3.5l3.7,11.9h-2.9l-0.9-3.1H44.1z M47.1,210l-0.7-2.5c-0.2-0.7-0.4-1.6-0.6-2.3h0
		c-0.2,0.7-0.4,1.6-0.5,2.3l-0.7,2.5H47.1z"/>
	<path d="M41.3,229.3v-11.9h3.2l2.5,4.4c0.7,1.3,1.4,2.7,1.9,4.1H49c-0.2-1.6-0.2-3.2-0.2-5v-3.5h2.5v11.9h-2.8l-2.5-4.6
		c-0.7-1.3-1.5-2.8-2.1-4.2l-0.1,0c0.1,1.6,0.1,3.3,0.1,5.2v3.6H41.3z"/>
	<path d="M41.3,231.7c1-0.2,2.3-0.2,3.6-0.2c2.3,0,3.7,0.4,4.9,1.3c1.2,0.9,2,2.4,2,4.5c0,2.3-0.8,3.9-2,4.8c-1.3,1-3.2,1.5-5.5,1.5
		c-1.4,0-2.4-0.1-3.1-0.2V231.7z M44.1,241.4c0.2,0.1,0.6,0.1,0.9,0.1c2.4,0,4-1.3,4-4.2c0-2.5-1.4-3.8-3.8-3.8
		c-0.6,0-1,0.1-1.2,0.1V241.4z"/>
</g>
</svg>
