<?xml version="1.0" encoding="utf-8"?>
<!-- Generator: Adobe Illustrator 19.0.0, SVG Export Plug-In . SVG Version: 6.00 Build 0)  -->
<svg version="1.1" id="Layer_1" xmlns="http://www.w3.org/2000/svg" xmlns:xlink="http://www.w3.org/1999/xlink" x="0px" y="0px"
	 viewBox="-417 141 512 512" style="enable-background:new -417 141 512 512;" xml:space="preserve">
<style type="text/css">
	.st0{fill-rule:evenodd;clip-rule:evenodd;fill:#BD2F32;}
	.st1{fill:#FFFFFF;}
</style>
<g id="XMLID_29_">
	<rect id="XMLID_28_" x="-417" y="141" class="st0" width="512" height="512"/>
	<g id="XMLID_30_">
		<rect id="XMLID_31_" x="-344.7" y="580.2" class="st1" width="367.3" height="2.1"/>
	</g>
</g>
<g id="XMLID_811_">
	<path id="XMLID_814_" class="st1" d="M-160.8,178.1c14.6,0,29.1,0.3,43.7,0c13.6-0.3,24.2,5,32.9,14.9c10.5,11.5,17.1,25.1,22,39.7
		c10.2,27.9,15.2,56.7,18,86.2c2.8,30.4,2.8,60.8,0,91.2c-3.4,33.5-8.7,66.7-22.9,97.4c-4.7,10.2-11.5,19.8-18.3,28.8
		c-7.8,9.6-18.6,13.6-31.3,13.6c-28.8-0.3-57.4-0.6-86.2,0c-16.4,0.3-28.5-6.5-38.1-18.9c-13-17.1-20.2-36.6-25.4-56.7
		c-12.7-48.4-15.5-97.7-11.8-147.6c2.5-32.2,7.4-63.9,18.6-94.3c4.7-13,10.9-25.4,19.5-36.3c9.3-11.5,20.8-18,36.3-17.4
		C-189.7,178.4-175.1,178.1-160.8,178.1z M-61,338.1c-0.9-9.3-2.5-27.3-5-45c-3.7-24.5-9.3-48.4-20.5-70.4
		c-4-7.8-9.3-14.9-15.2-21.1c-7.4-7.8-15.8-7.1-23.9,0c-2.8,2.5-5.3,5.3-7.4,8.4c-8.7,12.1-13.6,25.4-18,39.4
		c-0.3,1.2-0.3,3.1,0,4.7c8.7,32.6,12.1,65.7,13,99.5c0.6,21.7,22,38.8,43.4,35.7C-73.1,385.6-60,369.4-61,338.1z M-255.7,288.2
		c-8.4,50.5-8.4,100.5,0,150.7c25.7,0,51.2,0,77.2,0c-8.1-50.2-8.1-100.5,0-150.7C-204.5,288.2-229.7,288.2-255.7,288.2z
		 M-137.9,393c-0.3,0.9-0.6,1.2-0.6,1.6c-1.6,27-5.3,53.3-12.4,79.4c-0.3,1.6-0.3,3.1,0.3,4.7c5.3,12.1,10.2,24.5,16.1,36.3
		c2.8,5,7.4,9.3,12.1,13c5.9,4.7,12.4,4.7,18.6,0c4-3.1,8.1-6.8,10.5-11.2c5-8.4,9.9-17.4,13.3-26.4c10.2-26,14.9-53.3,17.7-80.9
		c0.6-5,0.6-9.9,1.2-15.5C-88,412.8-113.1,412.2-137.9,393z M-252.3,457.5c2.5,8.4,4.3,15.8,6.5,23.3c4.7,14.3,10.2,27.9,19.5,39.7
		c5.6,7.1,12.4,10.9,22,10.9c17.7-0.3,35.3,0,52.7,0c1.6,0,2.8-0.3,5-0.3c-2.5-4-4.7-7.4-6.8-10.9c-10.2-18-16.4-37.5-21.1-57.7
		c-0.9-3.7-2.2-5-6.2-5c-22,0.3-44,0-66.4,0C-248,457.5-249.5,457.5-252.3,457.5z M-251.7,269c0.9,0.3,1.2,0.6,1.6,0.6
		c23.9,0,47.8,0,71.9,0.3c3.1,0,3.4-1.6,4-4c4.3-14,8.1-28.2,13.3-41.9c3.7-9.3,9.3-18,14-27c-0.3,0-0.6-0.3-1.2-0.3
		c-20.2,0-40.3-0.3-60.5,0.3c-3.7,0-8.1,2.2-11.2,4.3c-3.7,3.1-7.1,6.8-9.9,10.9C-241.1,229.3-247,248.8-251.7,269z M-161.1,298.4
		c-6.8,43.1-6.8,86.2-0.3,129.3C-154.3,384.9-154.6,341.8-161.1,298.4z"/>
	<path id="XMLID_795_" class="st1" d="M-230.3,305.9c-0.9,10.5-2.5,21.1-3.1,31.6c-1.9,26.4-1.2,52.7,3.1,78.8
		c0.9,6.5-1.9,11.2-7.1,12.1c-5.9,0.9-9.9-2.5-10.9-9.3c-5.9-37.8-5.9-75.7,0.3-113.5c0.9-6.2,5-9.9,10.2-9.6
		C-233.4,296.6-230,300.3-230.3,305.9z"/>
</g>
<g>
	<path d="M-240.3,593.1c2.7-0.5,8.2-0.9,13.3-0.9c6.3,0,10.2,0.6,13.5,2.6c3.2,1.7,5.5,4.8,5.5,8.9c0,4.1-2.4,7.9-7.5,9.8v0.1
		c5.2,1.4,9.1,5.3,9.1,11.2c0,4.1-1.9,7.4-4.7,9.7c-3.3,2.6-8.9,4.1-17.9,4.1c-5.1,0-8.9-0.3-11.2-0.7V593.1z M-230.1,610.6h3.4
		c5.4,0,8.3-2.2,8.3-5.6c0-3.5-2.6-5.3-7.3-5.3c-2.2,0-3.5,0.1-4.4,0.3V610.6z M-230.1,630.8c1,0.1,2.2,0.1,4,0.1
		c4.7,0,8.8-1.8,8.8-6.6c0-4.6-4.1-6.4-9.3-6.4h-3.5V630.8z"/>
	<path d="M-189.1,626.4l-3.3,11.7H-203l13.9-45.6h13.5l14.2,45.6h-11.1l-3.5-11.7H-189.1z M-177.5,618.7l-2.8-9.7
		c-0.8-2.7-1.6-6.1-2.3-8.8h-0.1c-0.7,2.7-1.4,6.2-2.1,8.8l-2.7,9.7H-177.5z"/>
	<path d="M-155.3,638.1v-45.6h12.1l9.5,16.7c2.7,4.8,5.4,10.5,7.4,15.6h0.2c-0.7-6-0.9-12.2-0.9-19.1v-13.3h9.5v45.6h-10.8
		l-9.8-17.6c-2.7-4.9-5.7-10.8-7.9-16.1l-0.2,0.1c0.3,6,0.4,12.5,0.4,19.9v13.7H-155.3z"/>
	<path d="M-108.5,593.1c3.8-0.6,8.7-0.9,13.9-0.9c8.7,0,14.3,1.6,18.7,4.9c4.7,3.5,7.7,9.1,7.7,17.2c0,8.7-3.2,14.8-7.6,18.5
		c-4.8,4-12.1,5.9-21.1,5.9c-5.3,0-9.1-0.3-11.7-0.7V593.1z M-98.2,630.3c0.9,0.2,2.3,0.2,3.6,0.2c9.3,0.1,15.4-5.1,15.4-16
		c0.1-9.5-5.5-14.5-14.4-14.5c-2.3,0-3.8,0.2-4.7,0.4V630.3z"/>
</g>
<g>
	<path class="st1" d="M-246,593.1c2.7-0.5,8.2-0.9,13.3-0.9c6.3,0,10.2,0.6,13.5,2.6c3.2,1.7,5.5,4.8,5.5,8.9c0,4.1-2.4,7.9-7.5,9.8
		v0.1c5.2,1.4,9.1,5.3,9.1,11.2c0,4.1-1.9,7.4-4.7,9.7c-3.3,2.6-8.9,4.1-17.9,4.1c-5.1,0-8.9-0.3-11.2-0.7V593.1z M-235.8,610.6h3.4
		c5.4,0,8.3-2.2,8.3-5.6c0-3.5-2.6-5.3-7.3-5.3c-2.2,0-3.5,0.1-4.4,0.3V610.6z M-235.8,630.8c1,0.1,2.2,0.1,4,0.1
		c4.7,0,8.8-1.8,8.8-6.6c0-4.6-4.1-6.4-9.3-6.4h-3.5V630.8z"/>
	<path class="st1" d="M-194.7,626.4l-3.3,11.7h-10.7l13.9-45.6h13.5l14.2,45.6h-11.1l-3.5-11.7H-194.7z M-183.1,618.7l-2.8-9.7
		c-0.8-2.7-1.6-6.1-2.3-8.8h-0.1c-0.7,2.7-1.4,6.2-2.1,8.8l-2.7,9.7H-183.1z"/>
	<path class="st1" d="M-160.9,638.1v-45.6h12.1l9.5,16.7c2.7,4.8,5.4,10.5,7.4,15.6h0.2c-0.7-6-0.9-12.2-0.9-19.1v-13.3h9.5v45.6
		H-134l-9.8-17.6c-2.7-4.9-5.7-10.8-7.9-16.1l-0.2,0.1c0.3,6,0.4,12.5,0.4,19.9v13.7H-160.9z"/>
	<path class="st1" d="M-114.2,593.1c3.8-0.6,8.7-0.9,13.9-0.9c8.7,0,14.3,1.6,18.7,4.9c4.7,3.5,7.7,9.1,7.7,17.2
		c0,8.7-3.2,14.8-7.6,18.5c-4.8,4-12.1,5.9-21.1,5.9c-5.3,0-9.1-0.3-11.7-0.7V593.1z M-103.8,630.3c0.9,0.2,2.3,0.2,3.6,0.2
		c9.3,0.1,15.4-5.1,15.4-16c0.1-9.5-5.5-14.5-14.4-14.5c-2.3,0-3.8,0.2-4.7,0.4V630.3z"/>
</g>
</svg>
