<?xml version="1.0" encoding="utf-8"?>
<!-- Generator: Adobe Illustrator 19.0.0, SVG Export Plug-In . SVG Version: 6.00 Build 0)  -->
<svg version="1.1" id="Capa_1" xmlns="http://www.w3.org/2000/svg" xmlns:xlink="http://www.w3.org/1999/xlink" x="0px" y="0px"
	 viewBox="112 -40 512 512" style="enable-background:new 112 -40 512 512;" xml:space="preserve">
<g>
	<g>
		<g>
			<path d="M480-8H320c-8.8,0-16,7.2-16,16v64c0,8.8,7.2,16,16,16s16-7.2,16-16V24h128v256H336v-48c0-8.8-7.2-16-16-16
				s-16,7.2-16,16v64c0,8.8,7.2,16,16,16h160c8.8,0,16-7.2,16-16V8C496-0.8,488.8-8,480-8z"/>
		</g>
	</g>
	<g>
		<g>
			<path d="M620.5,142l-64-80c-3-3.8-7.6-6-12.5-6H128c-8.8,0-16,7.2-16,16v160c0,8.8,7.2,16,16,16h416c4.9,0,9.5-2.2,12.5-6l64-80
				C625.2,156.2,625.2,147.9,620.5,142z M536.3,216H144V88h392.3l51.2,64L536.3,216z"/>
		</g>
	</g>
	<g>
		<g>
			<path d="M208.6,136h-0.3c-8.8,0-15.8,7.2-15.8,16s7.3,16,16.2,16s16-7.2,16-16S217.5,136,208.6,136z"/>
		</g>
	</g>
	<g>
		<g>
			<path d="M304.6,136h-0.3c-8.8,0-15.8,7.2-15.8,16s7.3,16,16.2,16c8.8,0,16-7.2,16-16S313.5,136,304.6,136z"/>
		</g>
	</g>
	<g>
		<g>
			<path d="M400.6,136h-0.3c-8.9,0-15.8,7.2-15.8,16s7.3,16,16.2,16s16-7.2,16-16S409.5,136,400.6,136z"/>
		</g>
	</g>
</g>
<g>
	<path d="M253.9,352.3c4.5-0.9,13.7-1.6,22.3-1.6c10.5,0,17,1,22.6,4.3c5.3,2.8,9.2,8.1,9.2,15c0,6.8-4,13.2-12.6,16.3v0.2
		c8.7,2.4,15.2,9,15.2,18.8c0,6.9-3.2,12.4-7.9,16.2c-5.6,4.4-14.9,6.9-30.1,6.9c-8.5,0-14.9-0.6-18.7-1.1V352.3z M271,381.6h5.7
		c9.1,0,13.9-3.7,13.9-9.4c0-5.8-4.4-8.8-12.2-8.8c-3.7,0-5.9,0.2-7.4,0.5V381.6z M271,415.5c1.7,0.2,3.7,0.2,6.7,0.2
		c7.8,0,14.7-3.1,14.7-11c0-7.7-6.9-10.8-15.5-10.8H271V415.5z"/>
	<path d="M367.9,395.4h-28.1v18.1h31.4v14.2h-48.8v-76.4h47.2v14.2h-29.8v15.9h28.1V395.4z"/>
	<path d="M383,351.3h17.4v61.9h30.4v14.5H383V351.3z"/>
	<path d="M443.9,365.8h-20.5v-14.5h58.7v14.5h-20.9v61.9h-17.4V365.8z"/>
</g>
</svg>
