<?xml version="1.0" encoding="iso-8859-1"?>
<!-- Generator: Adobe Illustrator 19.0.0, SVG Export Plug-In . SVG Version: 6.00 Build 0)  -->
<svg version="1.1" id="Capa_1" xmlns="http://www.w3.org/2000/svg" xmlns:xlink="http://www.w3.org/1999/xlink" x="0px" y="0px"
	 viewBox="0 0 512.016 512.016" style="enable-background:new 0 0 512.016 512.016;" xml:space="preserve">
<g>
	<g>
		<path d="M368,96.008H208c-8.832,0-16,7.168-16,16v64c0,8.832,7.168,16,16,16c8.832,0,16-7.168,16-16v-48h128v256H224v-48
			c0-8.832-7.168-16-16-16c-8.832,0-16,7.168-16,16v64c0,8.832,7.168,16,16,16h160c8.832,0,16-7.168,16-16v-288
			C384,103.176,376.832,96.008,368,96.008z"/>
	</g>
</g>
<g>
	<g>
		<path d="M508.512,246.024l-64-80c-3.04-3.808-7.648-6.016-12.512-6.016H16c-8.832,0-16,7.168-16,16v160c0,8.832,7.168,16,16,16
			h416c4.864,0,9.472-2.208,12.512-5.984l64-80C513.184,260.168,513.184,251.88,508.512,246.024z M424.32,320.008H32v-128h392.32
			l51.2,64L424.32,320.008z"/>
	</g>
</g>
<g>
	<g>
		<path d="M96.64,240.008h-0.32c-8.832,0-15.84,7.168-15.84,16c0,8.832,7.328,16,16.16,16c8.832,0,16-7.168,16-16
			C112.64,247.176,105.472,240.008,96.64,240.008z"/>
	</g>
</g>
<g>
	<g>
		<path d="M192.64,240.008h-0.32c-8.832,0-15.84,7.168-15.84,16c0,8.832,7.328,16,16.16,16c8.832,0,16-7.168,16-16
			C208.64,247.176,201.472,240.008,192.64,240.008z"/>
	</g>
</g>
<g>
	<g>
		<path d="M288.64,240.008h-0.32c-8.864,0-15.84,7.168-15.84,16c0,8.832,7.328,16,16.16,16s16-7.168,16-16
			C304.64,247.176,297.472,240.008,288.64,240.008z"/>
	</g>
</g>
<g>
</g>
<g>
</g>
<g>
</g>
<g>
</g>
<g>
</g>
<g>
</g>
<g>
</g>
<g>
</g>
<g>
</g>
<g>
</g>
<g>
</g>
<g>
</g>
<g>
</g>
<g>
</g>
<g>
</g>
</svg>
