<?xml version="1.0" encoding="utf-8"?>
<!-- Generator: Adobe Illustrator 19.0.0, SVG Export Plug-In . SVG Version: 6.00 Build 0)  -->
<svg version="1.1" id="Capa_1" xmlns="http://www.w3.org/2000/svg" xmlns:xlink="http://www.w3.org/1999/xlink" x="0px" y="0px"
	 viewBox="-49 141 512 512" style="enable-background:new -49 141 512 512;" xml:space="preserve">
<style type="text/css">
	.st0{fill-rule:evenodd;clip-rule:evenodd;fill:#BD2F32;}
	.st1{fill:#FFFFFF;}
</style>
<g id="XMLID_29_">
	<rect id="XMLID_28_" x="-49" y="141" class="st0" width="512" height="512"/>
	<g id="XMLID_30_">
		<rect id="XMLID_31_" x="23.3" y="580.2" class="st1" width="367.3" height="2.1"/>
	</g>
</g>
<g>
	<path d="M136.6,590.9c3-0.6,9.1-1.1,14.9-1.1c7,0,11.3,0.7,15.1,2.9c3.5,1.9,6.1,5.4,6.1,10c0,4.5-2.7,8.8-8.4,10.9v0.1
		c5.8,1.6,10.1,6,10.1,12.5c0,4.6-2.1,8.3-5.3,10.8c-3.7,2.9-9.9,4.6-20.1,4.6c-5.7,0-9.9-0.4-12.5-0.7V590.9L136.6,590.9z
		 M148,610.4h3.8c6.1,0,9.3-2.5,9.3-6.3c0-3.9-2.9-5.9-8.1-5.9c-2.5,0-3.9,0.1-4.9,0.3V610.4z M148,633c1.1,0.1,2.5,0.1,4.5,0.1
		c5.2,0,9.8-2.1,9.8-7.3c0-5.1-4.6-7.2-10.3-7.2H148V633z"/>
	<path d="M212.6,619.6h-18.7v12.1h20.9v9.5h-32.5v-50.9h31.5v9.5h-19.9v10.6h18.7L212.6,619.6L212.6,619.6z"/>
	<path d="M222.7,590.2h11.6v41.3h20.3v9.7h-31.9V590.2z"/>
	<path d="M263.3,599.9h-13.7v-9.7h39.1v9.7h-13.9v41.3h-11.6L263.3,599.9L263.3,599.9z"/>
</g>
<g>
	<g>
		<g>
			<path class="st1" d="M312,231H162c-8.3,0-15,6.8-15,15v60c0,8.3,6.8,15,15,15s15-6.8,15-15v-45h120V501H177v-45
				c0-8.3-6.8-15-15-15s-15,6.8-15,15v60c0,8.3,6.8,15,15,15h150c8.3,0,15-6.8,15-15V246C327,237.7,320.3,231,312,231z"/>
		</g>
	</g>
	<g>
		<g>
			<path class="st1" d="M443.8,371.6l-60-75c-2.8-3.6-7.1-5.6-11.7-5.6H-18.1c-8.3,0-15,6.8-15,15v150c0,8.3,6.8,15,15,15H372
				c4.6,0,8.9-2.1,11.7-5.6l60-75C448.2,384.9,448.2,377.2,443.8,371.6z M364.8,441H-3.1V321h367.9l48,60L364.8,441z"/>
		</g>
	</g>
	<g>
		<g>
			<path class="st1" d="M57.5,366h-0.3c-8.3,0-14.8,6.8-14.8,15s6.8,15,15.2,15s15-6.8,15-15S65.8,366,57.5,366z"/>
		</g>
	</g>
	<g>
		<g>
			<path class="st1" d="M147.5,366h-0.3c-8.3,0-14.8,6.8-14.8,15s6.8,15,15.2,15c8.3,0,15-6.8,15-15S155.9,366,147.5,366z"/>
		</g>
	</g>
	<g>
		<g>
			<path class="st1" d="M237.6,366h-0.3c-8.3,0-14.8,6.8-14.8,15s6.8,15,15.2,15s15-6.8,15-15S245.9,366,237.6,366z"/>
		</g>
	</g>
</g>
<g>
	<path class="st1" d="M130.9,590.9c3-0.6,9.1-1.1,14.9-1.1c7,0,11.3,0.7,15.1,2.9c3.5,1.9,6.1,5.4,6.1,10c0,4.5-2.7,8.8-8.4,10.9
		v0.1c5.8,1.6,10.1,6,10.1,12.5c0,4.6-2.1,8.3-5.3,10.8c-3.7,2.9-9.9,4.6-20.1,4.6c-5.7,0-9.9-0.4-12.5-0.7L130.9,590.9L130.9,590.9
		z M142.3,610.4h3.8c6.1,0,9.3-2.5,9.3-6.3c0-3.9-2.9-5.9-8.1-5.9c-2.5,0-3.9,0.1-4.9,0.3V610.4z M142.3,633
		c1.1,0.1,2.5,0.1,4.5,0.1c5.2,0,9.8-2.1,9.8-7.3c0-5.1-4.6-7.2-10.3-7.2h-3.9V633z"/>
	<path class="st1" d="M206.9,619.6h-18.7v12.1h20.9v9.5h-32.5v-50.9h31.5v9.5h-19.9v10.6h18.7L206.9,619.6L206.9,619.6z"/>
	<path class="st1" d="M217,590.2h11.6v41.3h20.3v9.7H217V590.2z"/>
	<path class="st1" d="M257.6,599.9h-13.7v-9.7h39.1v9.7h-13.9v41.3h-11.6L257.6,599.9L257.6,599.9z"/>
</g>
</svg>
