<?xml version="1.0" encoding="utf-8"?>
<!-- Generator: Adobe Illustrator 19.0.0, SVG Export Plug-In . SVG Version: 6.00 Build 0)  -->
<svg version="1.1" id="Layer_1" xmlns="http://www.w3.org/2000/svg" xmlns:xlink="http://www.w3.org/1999/xlink" x="0px" y="0px"
	 viewBox="-417 141 512 512" style="enable-background:new -417 141 512 512;" xml:space="preserve">
<style type="text/css">
	.st0{fill-rule:evenodd;clip-rule:evenodd;fill:#BD2F32;}
	.st1{fill:#FFFFFF;}
</style>
<g id="XMLID_29_">
	<rect id="XMLID_28_" x="-417" y="141" class="st0" width="512" height="512"/>
	<g id="XMLID_30_">
		<rect id="XMLID_31_" x="-344.7" y="580.2" class="st1" width="367.3" height="2.1"/>
	</g>
</g>
<g>
	<path d="M-389.2,601c1.7-0.3,5.2-0.7,8.2-0.7c3.8,0,6.2,0.3,8.2,1.7c2.1,1,3.4,3.1,3.4,5.5c0,2.4-1.4,4.8-4.5,5.8l0,0
		c3.1,1,5.5,3.1,5.5,6.9c0,2.4-1,4.5-2.7,5.8c-2.1,1.7-5.5,2.4-11,2.4c-3.1,0-5.5-0.3-6.9-0.3V601H-389.2z M-383,611.7h2.1
		c3.4,0,5.2-1.4,5.2-3.4c0-2.1-1.7-3.1-4.5-3.1c-1.4,0-2.1,0-2.7,0C-383,605.1-383,611.7-383,611.7z M-383,624c0.7,0,1.4,0,2.4,0
		c2.7,0,5.5-1,5.5-4.1c0-2.7-2.4-3.8-5.5-3.8h-2.1v7.9H-383z"/>
	<path d="M-364.5,600.7h6.2V623h11v5.2h-17.2V600.7z"/>
	<path d="M-338.4,600.7v16.2c0,4.8,1.7,7.2,5.2,7.2c3.4,0,5.2-2.4,5.2-7.2v-16.2h6.2v15.5c0,8.6-4.5,12.7-11.7,12.7
		c-6.9,0-11-3.8-11-12.7v-15.5H-338.4z"/>
	<path d="M-299.9,616.8h-10.3v6.5h11.3v5.2h-17.9v-27.8h17.2v5.2h-11v5.8h10.3v5.2H-299.9z"/>
	<path d="M-288.9,606.2h-7.6V601h21.3v5.2h-7.6v22.3h-6.2V606.2z"/>
	<path d="M-247.6,614.4c0,9.3-5.5,14.8-13.7,14.8c-8.2,0-13.1-6.2-13.1-14.1c0-8.2,5.2-14.4,13.4-14.4
		C-252.1,600.3-247.6,606.5-247.6,614.4z M-267.6,614.8c0,5.5,2.4,9.3,6.9,9.3c4.1,0,6.5-4.1,6.5-9.3s-2.4-9.3-6.9-9.3
		C-265.1,605.1-267.6,609.3-267.6,614.8z"/>
	<path d="M-217.7,614.4c0,9.3-5.5,14.8-13.7,14.8s-13.1-6.2-13.1-14.1c0-8.2,5.2-14.4,13.4-14.4
		C-222.5,600.3-217.7,606.5-217.7,614.4z M-238,614.8c0,5.5,2.4,9.3,6.9,9.3c4.1,0,6.5-4.1,6.5-9.3s-2.4-9.3-6.9-9.3
		C-235.6,605.1-238,609.3-238,614.8z"/>
	<path d="M-209.5,606.2h-7.6V601h21.3v5.2h-7.6v22.3h-6.2C-209.5,628.5-209.5,606.2-209.5,606.2z"/>
	<path d="M-186.1,600.7v10.7h10.3v-10.7h6.2v27.8h-6.2v-11.7h-10.3v11.7h-6.2v-27.8H-186.1z"/>
	<path d="M-149.3,600.7v10.7h10.3v-10.7h6.2v27.8h-6.2v-11.7h-10.3v11.7h-6.2v-27.8H-149.3z"/>
	<path d="M-110.5,616.8h-10.3v6.5h11.3v5.2H-127v-27.8h17.2v5.2h-11v5.8h10.3V616.8z"/>
	<path d="M-98.8,621.3l-2.1,7.2h-6.5l8.6-27.8h8.2l8.6,27.8h-6.9l-2.1-7.2H-98.8z M-91.6,616.8l-1.7-5.8c-0.3-1.7-1-3.8-1.4-5.5l0,0
		c-0.3,1.7-0.7,3.8-1.4,5.5l-1.7,5.8H-91.6z"/>
	<path d="M-78.2,601c2.4-0.3,5.2-0.7,8.6-0.7c5.2,0,8.6,1,11.3,3.1c2.7,2.1,4.8,5.5,4.8,10.3c0,5.2-2.1,8.9-4.5,11.3
		c-3.1,2.4-7.2,3.4-12.7,3.4c-3.1,0-5.5-0.3-7.2-0.3V601H-78.2z M-71.6,623.7c0.7,0,1.4,0,2.1,0c5.8,0,9.3-3.1,9.3-9.6
		c0-5.8-3.4-8.9-8.6-8.9c-1.4,0-2.4,0-2.7,0.3C-71.6,605.5-71.6,623.7-71.6,623.7z"/>
	<path d="M-49.3,601c2.1-0.3,4.8-0.7,8.6-0.7s6.5,0.7,8.6,2.1c1.7,1.4,3.1,3.8,3.1,6.5c0,2.7-1,5.2-2.4,6.5
		c-2.1,2.1-5.2,3.1-8.9,3.1c-0.7,0-1.7,0-2.1,0v10h-6.9V601z M-43.1,613.7c0.7,0,1,0,2.1,0c3.4,0,5.5-1.7,5.5-4.5
		c0-2.4-1.7-4.1-4.8-4.1c-1.4,0-2.1,0-2.7,0.3C-43.1,605.5-43.1,613.7-43.1,613.7z"/>
	<path d="M-19,600.7v10.7h10.3v-10.7h6.2v27.8h-6.2v-11.7H-19v11.7h-6.2v-27.8H-19z"/>
	<path d="M28.4,614.4c0,9.3-5.5,14.8-13.7,14.8S1.6,623,1.6,615.1c0-8.2,5.2-14.4,13.4-14.4C23.9,600.3,28.4,606.5,28.4,614.4z
		 M8.5,614.8c0,5.5,2.4,9.3,6.9,9.3c4.1,0,6.5-4.1,6.5-9.3s-2.4-9.3-6.9-9.3C10.9,605.1,8.5,609.3,8.5,614.8z"/>
	<path d="M32.5,628.5v-27.8h7.6l5.8,10.3c1.7,3.1,3.4,6.5,4.5,9.6l0,0c-0.3-3.8-0.7-7.6-0.7-11.7v-8.2h5.8v27.8H49l-5.8-10.7
		c-1.7-3.1-3.4-6.5-4.8-10l0,0c0,3.8,0.3,7.6,0.3,12v8.2h-6.2V628.5z"/>
	<path d="M77.5,616.8H67.2v6.5h11.3v5.2H60.7v-27.8h17.2v5.2h-11v5.8h10.3v5.2H77.5z"/>
</g>
<g id="XMLID_281_">
	<path id="XMLID_316_" class="st1" d="M-114.7,395.3c0-2.6-1.3-4.8-3.2-6.4l-54.3-38.6c-2.3-1.6-5.5-1.9-8-0.6
		c-2.6,1.3-4.2,3.9-4.2,6.8v47.9l-10.9-7.7c-3.5-2.6-8.4-1.6-10.9,1.9c-2.6,3.5-1.6,8.4,1.9,10.9l19.9,14.1v5.8l-19.9,14.1
		c-3.5,2.6-4.5,7.4-1.9,10.9s7.4,4.5,10.9,1.9l10.9-7.7v47.9c0,2.9,1.6,5.5,4.2,6.8c1,0.6,2.3,1,3.5,1c1.6,0,3.2-0.6,4.5-1.6
		l54.3-38.9c1.9-1.6,3.2-3.9,3.2-6.4s-1.3-4.8-3.2-6.4l-35.4-24.8l35.4-24.7C-116,400.1-114.7,397.8-114.7,395.3z M-135.9,457.6
		l-33.1,23.8v-44l2.3-1.6L-135.9,457.6z M-166.8,416.8l-2.3-1.6v-43.7l33.1,23.8L-166.8,416.8z"/>
	<path id="XMLID_853_" class="st1" d="M-161.3,177.6c-102.9,0-186.4,83.6-186.4,186.4v62c0,25.7,6.4,51.1,18.6,73.6
		c1.3,2.6,3.9,4.2,6.8,4.2h38.2c3.2,9,11.9,15.4,21.9,15.4c12.9,0,23.5-10.6,23.5-23.5V356.4c0-12.9-10.6-23.1-23.5-23.1
		c-10,0-18.6,6.4-21.9,15.4h-38.3c-2.9,0-5.5,1.6-6.8,4.2c-1,1.9-1.6,3.9-2.6,5.8c1.3-42.1,18-80.4,44.7-109.6l16.1,16.1
		c1.6,1.6,3.5,2.3,5.5,2.3c1.9,0,4.2-1,5.5-2.3c26.4-26.4,61.4-40.8,99-40.8s72.3,14.5,99,40.8c1.6,1.6,3.5,2.3,5.5,2.3
		c1.9,0,4.2-1,5.5-2.3L-35,249c26.7,29.3,43.1,67.2,44.7,109.6c-1-1.9-1.6-3.9-2.6-5.8c-1.3-2.6-3.9-4.2-6.7-4.2h-38.2
		c-3.2-9-11.9-15.4-21.9-15.4c-12.9,0-23.5,10.6-23.5,23.5v139.8c0,12.9,10.6,23.1,23.5,23.1c10,0,18.6-6.4,21.9-15.4H0.4
		c2.9,0,5.5-1.6,6.7-4.2c12.2-22.5,18.6-47.9,18.6-73.6v-62.4C25.1,261.5-58.5,177.6-161.3,177.6z M-270,356.4
		c0-4.2,3.5-7.7,7.7-7.7l0,0l0,0l0,0c1,0,1.9,0.3,2.9,0.6c0.6,0.3,1,0.6,1.6,1c0.3,0.3,0.6,0.3,0.6,0.3c1.3,1.3,2.3,2.9,2.6,4.5l0,0
		l0,0c0,0.3,0.3,0.6,0.3,1.3v139.8c0,4.2-3.5,7.7-7.7,7.7c-0.3,0-1-0.3-1.3-0.3l0,0l0,0c-1.9-0.3-3.5-1.3-4.5-2.6
		c-0.3-0.3-0.3-0.3-0.3-0.6c-0.3-0.6-0.6-1-1-1.6c-0.3-1-0.6-1.9-0.6-2.9L-270,356.4L-270,356.4z M-317.5,364.1h32.1l0,0v6.4v118
		h-32.1c-9.6-19.3-14.5-40.5-14.5-62l0,0l0,0C-332.3,404.9-327.2,383.4-317.5,364.1z M-46.2,238.1L-57.2,249
		c-28.6-26-65.2-40.2-104.1-40.2S-236.9,223-265.5,249l-7.1-7.1l0,0l-3.9-3.9l0,0l0,0c15.1-13.8,32.8-25.1,52.4-32.8
		c19.3-7.7,40.5-11.9,62.7-11.9s43.4,4.2,62.7,11.9C-79,213-61.4,224.3-46.2,238.1L-46.2,238.1L-46.2,238.1z M-52.7,496.2
		L-52.7,496.2c0,4.2-3.5,7.7-7.7,7.7c-0.3,0-1-0.3-1.3-0.3l0,0l0,0c-1.9-0.3-3.5-1.3-4.5-2.6c-0.3-0.3-0.3-0.3-0.3-0.6
		c-0.3-0.6-0.6-1-1-1.6c-0.3-1-0.6-1.9-0.6-2.9V356.4c0-4.2,3.5-7.7,7.7-7.7c1,0,1.9,0.3,2.9,0.6c0.6,0.3,1,0.6,1.6,1
		c0.3,0.3,0.3,0.3,0.6,0.3c1.3,1.3,2.3,2.9,2.6,4.5l0,0l0,0c0,0.3,0.3,0.6,0.3,1.3L-52.7,496.2L-52.7,496.2z M-5.1,488.5h-32.1
		V364.1h32.1c9.6,19.3,14.5,40.5,14.5,62C9.4,447.6,4.5,469.2-5.1,488.5z"/>
	<path id="XMLID_882_" class="st1" d="M-263.5,503.9c-1.9-0.3-3.5-1.3-4.5-2.6C-267.1,502.6-265.5,503.6-263.5,503.9z"/>
	<path id="XMLID_883_" class="st1" d="M-257.1,350.6c1.3,1.3,2.3,2.9,2.6,4.5C-255.2,353.5-255.8,351.9-257.1,350.6z"/>
	<path id="XMLID_884_" class="st1" d="M-259.4,349.3c0.6,0.3,1,0.6,1.6,1C-258.4,349.9-259,349.3-259.4,349.3z"/>
	<path id="XMLID_893_" class="st1" d="M-268.7,500.7c-0.3-0.6-0.6-1-1-1.6C-269.3,499.7-269,500-268.7,500.7z"/>
	<path id="XMLID_895_" class="st1" d="M-262.3,348.6L-262.3,348.6L-262.3,348.6z"/>
	<path id="XMLID_897_" class="st1" d="M-57.5,349.3c0.6,0.3,1,0.6,1.6,1C-56.5,349.9-56.9,349.3-57.5,349.3z"/>
	<path id="XMLID_907_" class="st1" d="M-55.2,350.6c1.3,1.3,2.3,2.9,2.6,4.5C-53,353.5-54,351.9-55.2,350.6z"/>
	<path id="XMLID_919_" class="st1" d="M-61.7,503.9c-1.9-0.3-3.5-1.3-4.5-2.6C-64.9,502.6-63.3,503.6-61.7,503.9z"/>
	<path id="XMLID_924_" class="st1" d="M-66.5,500.7c-0.3-0.6-0.6-1-1-1.6C-67.5,499.7-66.8,500-66.5,500.7z"/>
	<path id="XMLID_926_" class="st1" d="M-258.1,350.3c0.3,0,0.3,0.3,0.6,0.3C-257.4,350.6-257.8,350.3-258.1,350.3z"/>
	<path id="XMLID_925_" class="st1" d="M-258.1,350.3c0.3,0,0.3,0.3,0.6,0.3C-257.4,350.6-257.8,350.3-258.1,350.3z"/>
	<path id="XMLID_928_" class="st1" d="M-254.9,355.1L-254.9,355.1L-254.9,355.1z"/>
	<path id="XMLID_927_" class="st1" d="M-254.9,355.1L-254.9,355.1L-254.9,355.1z"/>
	<path id="XMLID_934_" class="st1" d="M-262.3,348.6L-262.3,348.6c-4.2,0-7.7,3.5-7.7,7.7l0,0C-270,352.2-266.4,348.6-262.3,348.6z"
		/>
	<path id="XMLID_933_" class="st1" d="M-262.3,348.6L-262.3,348.6c-4.2,0-7.7,3.5-7.7,7.7l0,0C-270,352.2-266.4,348.6-262.3,348.6z"
		/>
	<path id="XMLID_937_" class="st1" d="M-270,496.2c0,1,0.3,1.9,0.6,2.9C-270,498.1-270,497.1-270,496.2z"/>
	<path id="XMLID_936_" class="st1" d="M-270,496.2c0,1,0.3,1.9,0.6,2.9C-270,498.1-270,497.1-270,496.2z"/>
	<path id="XMLID_939_" class="st1" d="M-268,501.3c-0.3-0.3-0.3-0.3-0.3-0.6C-268.4,500.7-268.4,501-268,501.3z"/>
	<path id="XMLID_938_" class="st1" d="M-268,501.3c-0.3-0.3-0.3-0.3-0.3-0.6C-268.4,500.7-268.4,501-268,501.3z"/>
	<path id="XMLID_941_" class="st1" d="M-262.3,348.6c1,0,1.9,0.3,2.9,0.6C-260.3,349-261.3,348.6-262.3,348.6z"/>
	<path id="XMLID_940_" class="st1" d="M-262.3,348.6c1,0,1.9,0.3,2.9,0.6C-260.3,349-261.3,348.6-262.3,348.6z"/>
	<path id="XMLID_948_" class="st1" d="M-263.5,503.9L-263.5,503.9L-263.5,503.9z"/>
	<path id="XMLID_942_" class="st1" d="M-263.5,503.9L-263.5,503.9L-263.5,503.9z"/>
	<path id="XMLID_961_" class="st1" d="M-332.3,426.4c0-21.5,5.1-43.1,14.5-62h32.1l0,0h-32.1C-327.2,383.4-332.3,404.9-332.3,426.4
		L-332.3,426.4z"/>
	<path id="XMLID_960_" class="st1" d="M-332.3,426.4c0-21.5,5.1-43.1,14.5-62h32.1l0,0h-32.1C-327.2,383.4-332.3,404.9-332.3,426.4
		L-332.3,426.4z"/>
	<path id="XMLID_965_" class="st1" d="M-66.2,501.3c-0.3-0.3-0.3-0.3-0.3-0.6C-66.5,500.7-66.2,501-66.2,501.3z"/>
	<path id="XMLID_964_" class="st1" d="M-66.2,501.3c-0.3-0.3-0.3-0.3-0.3-0.6C-66.5,500.7-66.2,501-66.2,501.3z"/>
	<path id="XMLID_967_" class="st1" d="M-55.9,350.3c0.3,0,0.3,0.3,0.6,0.3C-55.6,350.6-55.9,350.3-55.9,350.3z"/>
	<path id="XMLID_966_" class="st1" d="M-55.9,350.3c0.3,0,0.3,0.3,0.6,0.3C-55.6,350.6-55.9,350.3-55.9,350.3z"/>
	<path id="XMLID_969_" class="st1" d="M-60.4,348.6c1,0,1.9,0.3,2.9,0.6C-58.5,349-59.4,348.6-60.4,348.6z"/>
	<path id="XMLID_968_" class="st1" d="M-60.4,348.6c1,0,1.9,0.3,2.9,0.6C-58.5,349-59.4,348.6-60.4,348.6z"/>
	<path id="XMLID_975_" class="st1" d="M-52.7,355.1L-52.7,355.1L-52.7,355.1z"/>
	<path id="XMLID_970_" class="st1" d="M-52.7,355.1L-52.7,355.1L-52.7,355.1z"/>
	<path id="XMLID_977_" class="st1" d="M-60.4,348.6c-4.2,0-7.7,3.5-7.7,7.7C-68.1,352.2-64.6,348.6-60.4,348.6z"/>
	<path id="XMLID_976_" class="st1" d="M-60.4,348.6c-4.2,0-7.7,3.5-7.7,7.7C-68.1,352.2-64.6,348.6-60.4,348.6z"/>
	<path id="XMLID_979_" class="st1" d="M-67.5,499.1c-0.3-1-0.6-1.9-0.6-2.9C-68.1,497.1-67.8,498.1-67.5,499.1z"/>
	<path id="XMLID_978_" class="st1" d="M-67.5,499.1c-0.3-1-0.6-1.9-0.6-2.9C-68.1,497.1-67.8,498.1-67.5,499.1z"/>
	<path id="XMLID_981_" class="st1" d="M-61.7,503.9L-61.7,503.9L-61.7,503.9z"/>
	<path id="XMLID_980_" class="st1" d="M-61.7,503.9L-61.7,503.9L-61.7,503.9z"/>
	<path id="XMLID_986_" class="st1" d="M-276.4,238.1L-276.4,238.1c15.1-13.8,32.8-25.1,52.4-32.8
		C-243.6,213-261.3,224.3-276.4,238.1z"/>
	<polygon id="XMLID_988_" class="st1" points="-272.5,241.9 -276.4,238.1 -276.4,238.1 	"/>
	<polygon id="XMLID_987_" class="st1" points="-272.5,241.9 -276.4,238.1 -276.4,238.1 	"/>
	<path id="XMLID_990_" class="st1" d="M-98.6,205.3c19.3,7.7,37,19,52.4,32.8l0,0C-61.4,224.3-79,213-98.6,205.3z"/>
	<path id="XMLID_989_" class="st1" d="M-98.6,205.3c19.3,7.7,37,19,52.4,32.8l0,0C-61.4,224.3-79,213-98.6,205.3z"/>
</g>
<g>
	<path class="st1" d="M-394.9,601c1.7-0.3,5.2-0.7,8.2-0.7c3.8,0,6.2,0.3,8.2,1.7c2.1,1,3.4,3.1,3.4,5.5c0,2.4-1.4,4.8-4.5,5.8l0,0
		c3.1,1,5.5,3.1,5.5,6.9c0,2.4-1,4.5-2.7,5.8c-2.1,1.7-5.5,2.4-11,2.4c-3.1,0-5.5-0.3-6.9-0.3V601H-394.9z M-388.7,611.7h2.1
		c3.4,0,5.2-1.4,5.2-3.4c0-2.1-1.7-3.1-4.5-3.1c-1.4,0-2.1,0-2.7,0C-388.7,605.1-388.7,611.7-388.7,611.7z M-388.7,624
		c0.7,0,1.4,0,2.4,0c2.7,0,5.5-1,5.5-4.1c0-2.7-2.4-3.8-5.5-3.8h-2.1v7.9H-388.7z"/>
	<path class="st1" d="M-370.2,600.7h6.2V623h11v5.2h-17.2V600.7z"/>
	<path class="st1" d="M-344,600.7v16.2c0,4.8,1.7,7.2,5.2,7.2s5.2-2.4,5.2-7.2v-16.2h6.2v15.5c0,8.6-4.5,12.7-11.7,12.7
		c-6.9,0-11-3.8-11-12.7v-15.5H-344z"/>
	<path class="st1" d="M-305.5,616.8h-10.3v6.5h11.3v5.2h-17.9v-27.8h17.2v5.2h-11v5.8h10.3v5.2H-305.5z"/>
	<path class="st1" d="M-294.5,606.2h-7.6V601h21.3v5.2h-7.6v22.3h-6.2V606.2z"/>
	<path class="st1" d="M-253.3,614.4c0,9.3-5.5,14.8-13.7,14.8c-8.2,0-13.1-6.2-13.1-14.1c0-8.2,5.2-14.4,13.4-14.4
		C-257.8,600.3-253.3,606.5-253.3,614.4z M-273.2,614.8c0,5.5,2.4,9.3,6.9,9.3c4.1,0,6.5-4.1,6.5-9.3s-2.4-9.3-6.9-9.3
		C-270.8,605.1-273.2,609.3-273.2,614.8z"/>
	<path class="st1" d="M-223.4,614.4c0,9.3-5.5,14.8-13.7,14.8c-8.2,0-13.1-6.2-13.1-14.1c0-8.2,5.2-14.4,13.4-14.4
		C-228.2,600.3-223.4,606.5-223.4,614.4z M-243.7,614.8c0,5.5,2.4,9.3,6.9,9.3c4.1,0,6.5-4.1,6.5-9.3s-2.4-9.3-6.9-9.3
		C-241.3,605.1-243.7,609.3-243.7,614.8z"/>
	<path class="st1" d="M-215.1,606.2h-7.6V601h21.3v5.2h-7.6v22.3h-6.2C-215.1,628.5-215.1,606.2-215.1,606.2z"/>
	<path class="st1" d="M-191.8,600.7v10.7h10.3v-10.7h6.2v27.8h-6.2v-11.7h-10.3v11.7h-6.2v-27.8H-191.8z"/>
	<path class="st1" d="M-155,600.7v10.7h10.3v-10.7h6.2v27.8h-6.2v-11.7H-155v11.7h-6.2v-27.8H-155z"/>
	<path class="st1" d="M-116.1,616.8h-10.3v6.5h11.3v5.2h-17.5v-27.8h17.2v5.2h-11v5.8h10.3V616.8z"/>
	<path class="st1" d="M-104.5,621.3l-2.1,7.2h-6.5l8.6-27.8h8.2l8.6,27.8h-6.9l-2.1-7.2H-104.5z M-97.2,616.8L-99,611
		c-0.3-1.7-1-3.8-1.4-5.5l0,0c-0.3,1.7-0.7,3.8-1.4,5.5l-1.7,5.8H-97.2z"/>
	<path class="st1" d="M-83.8,601c2.4-0.3,5.2-0.7,8.6-0.7c5.2,0,8.6,1,11.3,3.1c2.7,2.1,4.8,5.5,4.8,10.3c0,5.2-2.1,8.9-4.5,11.3
		c-3.1,2.4-7.2,3.4-12.7,3.4c-3.1,0-5.5-0.3-7.2-0.3V601H-83.8z M-77.3,623.7c0.7,0,1.4,0,2.1,0c5.8,0,9.3-3.1,9.3-9.6
		c0-5.8-3.4-8.9-8.6-8.9c-1.4,0-2.4,0-2.7,0.3C-77.3,605.5-77.3,623.7-77.3,623.7z"/>
	<path class="st1" d="M-55,601c2.1-0.3,4.8-0.7,8.6-0.7s6.5,0.7,8.6,2.1c1.7,1.4,3.1,3.8,3.1,6.5c0,2.7-1,5.2-2.4,6.5
		c-2.1,2.1-5.2,3.1-8.9,3.1c-0.7,0-1.7,0-2.1,0v10H-55V601z M-48.8,613.7c0.7,0,1,0,2.1,0c3.4,0,5.5-1.7,5.5-4.5
		c0-2.4-1.7-4.1-4.8-4.1c-1.4,0-2.1,0-2.7,0.3C-48.8,605.5-48.8,613.7-48.8,613.7z"/>
	<path class="st1" d="M-24.7,600.7v10.7h10.3v-10.7h6.2v27.8h-6.2v-11.7h-10.3v11.7h-6.2v-27.8H-24.7z"/>
	<path class="st1" d="M22.7,614.4c0,9.3-5.5,14.8-13.7,14.8S-4.1,623-4.1,615.1c0-8.2,5.2-14.4,13.4-14.4
		C18.3,600.3,22.7,606.5,22.7,614.4z M2.8,614.8c0,5.5,2.4,9.3,6.9,9.3c4.1,0,6.5-4.1,6.5-9.3s-2.4-9.3-6.9-9.3
		C5.2,605.1,2.8,609.3,2.8,614.8z"/>
	<path class="st1" d="M26.8,628.5v-27.8h7.6l5.8,10.3c1.7,3.1,3.4,6.5,4.5,9.6l0,0c-0.3-3.8-0.7-7.6-0.7-11.7v-8.2h5.8v27.8h-6.5
		l-5.8-10.7c-1.7-3.1-3.4-6.5-4.8-10l0,0c0,3.8,0.3,7.6,0.3,12v8.2h-6.2V628.5z"/>
	<path class="st1" d="M71.9,616.8H61.6v6.5h11.3v5.2H55v-27.8h17.2v5.2h-11v5.8h10.3v5.2H71.9z"/>
</g>
</svg>
