<?xml version="1.0" encoding="utf-8"?>
<!-- Generator: Adobe Illustrator 19.0.0, SVG Export Plug-In . SVG Version: 6.00 Build 0)  -->
<svg version="1.1" id="Layer_1" xmlns="http://www.w3.org/2000/svg" xmlns:xlink="http://www.w3.org/1999/xlink" x="0px" y="0px"
	 viewBox="-417 141 512 512" style="enable-background:new -417 141 512 512;" xml:space="preserve">
<style type="text/css">
	.st0{fill-rule:evenodd;clip-rule:evenodd;fill:#BD2F32;}
	.st1{fill:#FFFFFF;}
</style>
<g id="XMLID_29_">
	<rect id="XMLID_28_" x="-417" y="141" class="st0" width="512" height="512"/>
	<g id="XMLID_30_">
		<rect id="XMLID_31_" x="-344.7" y="580.2" class="st1" width="367.3" height="2.1"/>
	</g>
</g>
<g id="XMLID_442_">
	<g id="XMLID_458_">
		<g id="XMLID_459_">
			<path id="XMLID_460_" class="st1" d="M-31.5,229.2c0-32.6-67.3-47.4-129.5-47.4s-129.5,14.8-129.5,47.4c0,0.4,0,0.4,0,0.7l0,0
				v277.5c0,32.6,67.3,47.4,129.5,47.4S-31.5,540-31.5,507.4V229.9l0,0C-31.5,229.6-31.5,229.2-31.5,229.2z M-80,300.1l-18.8,18.8
				l-13.7-13.7l18.8-18.8L-80,300.1z M-111.4,273.3l-16.6,16.6l-13.7-13.7C-131.7,275.5-121.2,274.4-111.4,273.3z M-114.3,334.5
				l-17,17l-13.7-13.7l17-17L-114.3,334.5z M-160.6,288.2l17,17l-17,17l-17-17L-160.6,288.2z M-175.8,337.7l-14.1,13.7l-17-17
				l13.7-13.7L-175.8,337.7z M-179.1,275.5l-13.7,13.7l-16.3-16.3C-199.3,274.8-189.2,275.5-179.1,275.5z M-227.2,286.4l18.8,18.8
				l-13.7,13.7l-18.8-18.8L-227.2,286.4z M-268.8,257.1c5.8,3.3,12.7,5.8,20.3,8.3l5.8,5.8l-13.7,13.7l-12.3-12.3
				C-268.8,272.6-268.8,257.1-268.8,257.1z M-154.1,512.5c-3.3-3.3-9-3.3-12.3,0l-15.6-15.6c5.8-5.8,13.4-9,21.7-9s15.9,3.3,21.7,9
				L-154.1,512.5z M-128.1,486.1c-17.7-17.7-47-17.7-64.8,0l-15.6-15.6c26.4-26.4,69.1-26.4,95.5,0L-128.1,486.1z M-100.9,459.7
				c-32.6-32.6-85.7-32.6-118.7,0l-15.6-15.6c41.2-41.2,108.2-41.2,149.4,0L-100.9,459.7z M-53.2,369.6
				c-25,13.4-67.3,19.5-107.8,19.5s-82.8-6.2-107.8-19.5v-42l12.3-12.3l18.8,18.8l-17.7,17.7c3.6,1.8,8,3.3,13.7,5.1l9.8,2.5
				l9.8-9.8l14.5,14.5c10.5,1.4,21.7,2.5,33.3,2.9l14.1-14.1l14.1,14.1c11.6-0.4,22.8-1.4,33.3-2.9l14.1-14.1l9.8,9.8
				c2.9-0.7,6.2-1.4,8.7-2.5c14.5-4.3,14.1-5.4,14.1-5.4l-17.4-17.4l18.8-18.8l11.2,11.2v42.7H-53.2z M-53.2,273.3L-53.2,273.3
				l-11.2,11.2l-13.7-13.7l6.2-6.2c6.9-2.2,13.4-4.7,18.8-7.6V273.3L-53.2,273.3z"/>
		</g>
	</g>
	<g id="XMLID_457_">
	</g>
	<g id="XMLID_456_">
	</g>
	<g id="XMLID_455_">
	</g>
	<g id="XMLID_454_">
	</g>
	<g id="XMLID_453_">
	</g>
	<g id="XMLID_452_">
	</g>
	<g id="XMLID_451_">
	</g>
	<g id="XMLID_450_">
	</g>
	<g id="XMLID_449_">
	</g>
	<g id="XMLID_448_">
	</g>
	<g id="XMLID_447_">
	</g>
	<g id="XMLID_446_">
	</g>
	<g id="XMLID_445_">
	</g>
	<g id="XMLID_444_">
	</g>
	<g id="XMLID_443_">
	</g>
</g>
<g>
	<path d="M-363.9,601.3c1.8-0.4,5.4-0.7,8.7-0.7c4,0,6.5,0.4,8.7,1.8c2.2,1.1,3.6,3.2,3.6,5.8c0,2.5-1.4,5.1-4.7,6.1l0,0
		c3.2,1.1,5.8,3.2,5.8,7.2c0,2.5-1.1,4.7-2.9,6.1c-2.2,1.8-5.8,2.5-11.5,2.5c-3.2,0-5.8-0.4-7.2-0.4v-28.5H-363.9z M-357.4,612.5
		h2.2c3.6,0,5.4-1.4,5.4-3.6s-1.8-3.2-4.7-3.2c-1.4,0-2.2,0-2.9,0V612.5z M-357.4,625.5c0.7,0,1.4,0,2.5,0c2.9,0,5.8-1.1,5.8-4.3
		c0-2.9-2.5-4-5.8-4h-2.2v8.3H-357.4z"/>
	<path d="M-337.9,601h6.5v23.5h11.5v5.4h-18V601z"/>
	<path d="M-310.5,601v17c0,5.1,1.8,7.6,5.4,7.6s5.4-2.5,5.4-7.6v-17h6.5v16.2c0,9-4.7,13.4-12.3,13.4c-7.2,0-11.5-4-11.5-13.4V601
		H-310.5z"/>
	<path d="M-270.1,617.9h-10.8v6.9h11.9v5.4h-18.8V601h18v5.4h-11.5v6.1h10.8v5.4H-270.1z"/>
	<path d="M-258.5,606.8h-7.9v-5.4h22.4v5.4h-7.9v23.5h-6.5V606.8z"/>
	<path d="M-214.9,615.4c0,9.7-5.8,15.5-14.4,15.5s-13.7-6.5-13.7-14.8c0-8.7,5.4-15.2,14.1-15.2
		C-219.9,600.6-214.9,607.1-214.9,615.4z M-236.2,615.8c0,5.8,2.5,9.7,7.2,9.7c4.3,0,6.9-4.3,6.9-9.7c0-5.4-2.5-9.7-7.2-9.7
		C-233.6,605.7-236.2,610-236.2,615.8z"/>
	<path d="M-183.8,615.4c0,9.7-5.8,15.5-14.4,15.5s-13.7-6.5-13.7-14.8c0-8.7,5.4-15.2,14.1-15.2
		C-188.9,600.6-183.8,607.1-183.8,615.4z M-205.1,615.8c0,5.8,2.5,9.7,7.2,9.7c4.3,0,6.9-4.3,6.9-9.7c0-5.4-2.5-9.7-7.2-9.7
		C-202.6,605.7-205.1,610-205.1,615.8z"/>
	<path d="M-175.2,606.8h-7.9v-5.4h22.4v5.4h-7.9v23.5h-6.5V606.8z"/>
	<path d="M-150.6,601v11.2h10.8V601h6.5v29.2h-6.5v-12.3h-10.8v12.3h-6.5V601H-150.6z"/>
	<path d="M-118.2,623.4c1.8,1.1,4.3,1.8,7.2,1.8c2.9,0,4.7-1.1,4.7-3.2c0-1.8-1.4-2.9-5.1-4c-4.7-1.8-7.9-4.3-7.9-8.7
		c0-5.1,4.3-8.7,11.2-8.7c3.2,0,5.8,0.7,7.6,1.4l-1.4,5.4c-1.1-0.7-3.2-1.4-6.1-1.4c-2.9,0-4.3,1.4-4.3,2.9c0,1.8,1.8,2.5,5.4,4
		c5.1,1.8,7.6,4.7,7.6,8.7c0,5.1-3.6,9-11.9,9c-3.2,0-6.5-1.1-8.3-1.8L-118.2,623.4z"/>
	<path d="M-95.1,601.3c2.2-0.4,5.1-0.7,9-0.7s6.9,0.7,9,2.2c1.8,1.4,3.2,4,3.2,6.9s-1.1,5.4-2.5,6.9c-2.2,2.2-5.4,3.2-9.4,3.2
		c-0.7,0-1.8,0-2.2,0v10.5h-7.2V601.3z M-88.6,614.7c0.7,0,1.1,0,2.2,0c3.6,0,5.8-1.8,5.8-4.7c0-2.5-1.8-4.3-5.1-4.3
		c-1.4,0-2.2,0-2.9,0.4C-88.6,606-88.6,614.7-88.6,614.7z"/>
	<path d="M-52.5,617.9h-10.8v6.9h11.9v5.4h-18.8V601h18v5.4h-11.5v6.1h10.8v5.4H-52.5z"/>
	<path d="M-40.2,622.6l-2.2,7.6h-6.9l9-29.2h8.7l9,29.2h-7.2l-2.2-7.6H-40.2z M-32.7,617.9l-1.8-6.1c-0.4-1.8-1.1-4-1.4-5.8l0,0
		c-0.4,1.8-0.7,4-1.4,5.8l-1.8,6.1H-32.7z"/>
	<path d="M-18.6,601h6.5v13l0,0c0.7-1.1,1.4-2.2,2.2-3.2l6.5-9.7h7.9l-9.7,12.3l10.1,16.6h-7.6l-7.2-12.6l-2.5,3.2v9.4h-6.5V601
		H-18.6z"/>
	<path d="M25.4,617.9H14.6v6.9h11.9v5.4H7.8V601h18v5.4H14.3v6.1h10.8v5.4H25.4z"/>
	<path d="M31.2,601.3c2.2-0.4,5.4-0.7,8.7-0.7c4.3,0,7.2,0.7,9.4,2.2c1.8,1.4,2.5,3.2,2.5,6.1c0,3.6-2.5,6.1-5.1,7.2l0,0
		c2.2,0.7,3.2,2.9,4,5.4c1.1,3.2,1.8,7.2,2.5,8.3h-6.9c-0.4-0.7-1.1-3.2-2.2-6.9c-0.7-3.6-2.2-4.7-4.7-4.7h-2.2v11.5h-6.1V601.3z
		 M37.7,614h2.5c3.2,0,5.4-1.8,5.4-4.3s-1.8-4-4.7-4c-1.4,0-2.5,0-2.9,0.4v7.9H37.7z"/>
</g>
<g>
	<path class="st1" d="M-369.6,601.3c1.8-0.4,5.4-0.7,8.7-0.7c4,0,6.5,0.4,8.7,1.8c2.2,1.1,3.6,3.2,3.6,5.8c0,2.5-1.4,5.1-4.7,6.1
		l0,0c3.2,1.1,5.8,3.2,5.8,7.2c0,2.5-1.1,4.7-2.9,6.1c-2.2,1.8-5.8,2.5-11.5,2.5c-3.2,0-5.8-0.4-7.2-0.4v-28.5H-369.6z
		 M-363.1,612.5h2.2c3.6,0,5.4-1.4,5.4-3.6s-1.8-3.2-4.7-3.2c-1.4,0-2.2,0-2.9,0V612.5z M-363.1,625.5c0.7,0,1.4,0,2.5,0
		c2.9,0,5.8-1.1,5.8-4.3c0-2.9-2.5-4-5.8-4h-2.2v8.3H-363.1z"/>
	<path class="st1" d="M-343.6,601h6.5v23.5h11.5v5.4h-18V601z"/>
	<path class="st1" d="M-316.2,601v17c0,5.1,1.8,7.6,5.4,7.6s5.4-2.5,5.4-7.6v-17h6.5v16.2c0,9-4.7,13.4-12.3,13.4
		c-7.2,0-11.5-4-11.5-13.4V601H-316.2z"/>
	<path class="st1" d="M-275.7,617.9h-10.8v6.9h11.9v5.4h-18.8V601h18v5.4h-11.5v6.1h10.8v5.4H-275.7z"/>
	<path class="st1" d="M-264.2,606.8h-7.9v-5.4h22.4v5.4h-7.9v23.5h-6.5V606.8z"/>
	<path class="st1" d="M-220.5,615.4c0,9.7-5.8,15.5-14.4,15.5c-8.7,0-13.7-6.5-13.7-14.8c0-8.7,5.4-15.2,14.1-15.2
		C-225.6,600.6-220.5,607.1-220.5,615.4z M-241.8,615.8c0,5.8,2.5,9.7,7.2,9.7c4.3,0,6.9-4.3,6.9-9.7c0-5.4-2.5-9.7-7.2-9.7
		C-239.3,605.7-241.8,610-241.8,615.8z"/>
	<path class="st1" d="M-189.5,615.4c0,9.7-5.8,15.5-14.4,15.5s-13.7-6.5-13.7-14.8c0-8.7,5.4-15.2,14.1-15.2
		C-194.6,600.6-189.5,607.1-189.5,615.4z M-210.8,615.8c0,5.8,2.5,9.7,7.2,9.7c4.3,0,6.9-4.3,6.9-9.7c0-5.4-2.5-9.7-7.2-9.7
		C-208.3,605.7-210.8,610-210.8,615.8z"/>
	<path class="st1" d="M-180.8,606.8h-7.9v-5.4h22.4v5.4h-7.9v23.5h-6.5V606.8z"/>
	<path class="st1" d="M-156.3,601v11.2h10.8V601h6.5v29.2h-6.5v-12.3h-10.8v12.3h-6.5V601H-156.3z"/>
	<path class="st1" d="M-123.8,623.4c1.8,1.1,4.3,1.8,7.2,1.8c2.9,0,4.7-1.1,4.7-3.2c0-1.8-1.4-2.9-5.1-4c-4.7-1.8-7.9-4.3-7.9-8.7
		c0-5.1,4.3-8.7,11.2-8.7c3.2,0,5.8,0.7,7.6,1.4l-1.4,5.4c-1.1-0.7-3.2-1.4-6.1-1.4c-2.9,0-4.3,1.4-4.3,2.9c0,1.8,1.8,2.5,5.4,4
		c5.1,1.8,7.6,4.7,7.6,8.7c0,5.1-3.6,9-11.9,9c-3.2,0-6.5-1.1-8.3-1.8L-123.8,623.4z"/>
	<path class="st1" d="M-100.7,601.3c2.2-0.4,5.1-0.7,9-0.7s6.9,0.7,9,2.2c1.8,1.4,3.2,4,3.2,6.9s-1.1,5.4-2.5,6.9
		c-2.2,2.2-5.4,3.2-9.4,3.2c-0.7,0-1.8,0-2.2,0v10.5h-7.2V601.3z M-94.2,614.7c0.7,0,1.1,0,2.2,0c3.6,0,5.8-1.8,5.8-4.7
		c0-2.5-1.8-4.3-5.1-4.3c-1.4,0-2.2,0-2.9,0.4C-94.2,606-94.2,614.7-94.2,614.7z"/>
	<path class="st1" d="M-58.2,617.9H-69v6.9h11.9v5.4h-18.8V601h18v5.4h-11.5v6.1h10.8v5.4H-58.2z"/>
	<path class="st1" d="M-45.9,622.6l-2.2,7.6h-6.9l9-29.2h8.7l9,29.2h-7.2l-2.2-7.6H-45.9z M-38.3,617.9l-1.8-6.1
		c-0.4-1.8-1.1-4-1.4-5.8l0,0c-0.4,1.8-0.7,4-1.4,5.8l-1.8,6.1H-38.3z"/>
	<path class="st1" d="M-24.2,601h6.5v13l0,0c0.7-1.1,1.4-2.2,2.2-3.2l6.5-9.7h7.9l-9.7,12.3l10.1,16.6h-7.6l-7.2-12.6l-2.5,3.2v9.4
		h-6.5V601H-24.2z"/>
	<path class="st1" d="M19.8,617.9H8.9v6.9h11.9v5.4H2.1V601h18v5.4H8.6v6.1h10.8v5.4H19.8z"/>
	<path class="st1" d="M25.5,601.3c2.2-0.4,5.4-0.7,8.7-0.7c4.3,0,7.2,0.7,9.4,2.2c1.8,1.4,2.5,3.2,2.5,6.1c0,3.6-2.5,6.1-5.1,7.2
		l0,0c2.2,0.7,3.2,2.9,4,5.4c1.1,3.2,1.8,7.2,2.5,8.3h-6.9c-0.4-0.7-1.1-3.2-2.2-6.9c-0.7-3.6-2.2-4.7-4.7-4.7h-2.2v11.5h-6.1V601.3
		z M32,614h2.5c3.2,0,5.4-1.8,5.4-4.3s-1.8-4-4.7-4c-1.4,0-2.5,0-2.9,0.4v7.9H32z"/>
</g>
</svg>
