<?xml version="1.0" encoding="utf-8"?>
<!-- Generator: Adobe Illustrator 19.0.0, SVG Export Plug-In . SVG Version: 6.00 Build 0)  -->
<svg version="1.1" id="Layer_1" xmlns="http://www.w3.org/2000/svg" xmlns:xlink="http://www.w3.org/1999/xlink" x="0px" y="0px"
	 viewBox="-71 145 144 144" style="enable-background:new -71 145 144 144;" xml:space="preserve">
<g id="XMLID_281_">
	<path id="XMLID_316_" d="M15.5,219.6c0-0.8-0.4-1.5-1-2l-16.9-12c-0.7-0.5-1.7-0.6-2.5-0.2c-0.8,0.4-1.3,1.2-1.3,2.1v14.9l-3.4-2.4
		c-1.1-0.8-2.6-0.5-3.4,0.6c-0.8,1.1-0.5,2.6,0.6,3.4l6.2,4.4v1.8l-6.2,4.4c-1.1,0.8-1.4,2.3-0.6,3.4c0.8,1.1,2.3,1.4,3.4,0.6
		l3.4-2.4v14.9c0,0.9,0.5,1.7,1.3,2.1c0.3,0.2,0.7,0.3,1.1,0.3c0.5,0,1-0.2,1.4-0.5l16.9-12.1c0.6-0.5,1-1.2,1-2s-0.4-1.5-1-2
		l-11-7.7l11-7.7C15.1,221.1,15.5,220.4,15.5,219.6z M8.9,239l-10.3,7.4v-13.7l0.7-0.5L8.9,239z M-0.7,226.3l-0.7-0.5v-13.6
		l10.3,7.4L-0.7,226.3z"/>
	<path id="XMLID_853_" d="M1,151.9c-32,0-58,26-58,58v19.3c0,8,2,15.9,5.8,22.9c0.4,0.8,1.2,1.3,2.1,1.3h11.9c1,2.8,3.7,4.8,6.8,4.8
		c4,0,7.3-3.3,7.3-7.3v-43.4c0-4-3.3-7.2-7.3-7.2c-3.1,0-5.8,2-6.8,4.8h-11.9c-0.9,0-1.7,0.5-2.1,1.3c-0.3,0.6-0.5,1.2-0.8,1.8
		c0.4-13.1,5.6-25,13.9-34.1l5,5c0.5,0.5,1.1,0.7,1.7,0.7c0.6,0,1.3-0.3,1.7-0.7c8.2-8.2,19.1-12.7,30.8-12.7s22.5,4.5,30.8,12.7
		c0.5,0.5,1.1,0.7,1.7,0.7s1.3-0.3,1.7-0.7l5-5c8.3,9.1,13.4,20.9,13.9,34.1c-0.3-0.6-0.5-1.2-0.8-1.8c-0.4-0.8-1.2-1.3-2.1-1.3
		H39.4c-1-2.8-3.7-4.8-6.8-4.8c-4,0-7.3,3.3-7.3,7.3v43.5c0,4,3.3,7.2,7.3,7.2c3.1,0,5.8-2,6.8-4.8h11.9c0.9,0,1.7-0.5,2.1-1.3
		c3.8-7,5.8-14.9,5.8-22.9v-19.4C59,178,33,151.9,1,151.9z M-32.8,207.5c0-1.3,1.1-2.4,2.4-2.4l0,0l0,0l0,0c0.3,0,0.6,0.1,0.9,0.2
		c0.2,0.1,0.3,0.2,0.5,0.3c0.1,0.1,0.2,0.1,0.2,0.1c0.4,0.4,0.7,0.9,0.8,1.4l0,0l0,0c0,0.1,0.1,0.2,0.1,0.4V251
		c0,1.3-1.1,2.4-2.4,2.4c-0.1,0-0.3-0.1-0.4-0.1l0,0l0,0c-0.6-0.1-1.1-0.4-1.4-0.8c-0.1-0.1-0.1-0.1-0.1-0.2
		c-0.1-0.2-0.2-0.3-0.3-0.5c-0.1-0.3-0.2-0.6-0.2-0.9L-32.8,207.5L-32.8,207.5z M-47.6,209.9h10l0,0v2v36.7h-10
		c-3-6-4.5-12.6-4.5-19.3l0,0l0,0C-52.2,222.6-50.6,215.9-47.6,209.9z M36.8,170.7l-3.4,3.4C24.5,166,13.1,161.6,1,161.6
		s-23.5,4.4-32.4,12.5l-2.2-2.2l0,0l-1.2-1.2l0,0l0,0c4.7-4.3,10.2-7.8,16.3-10.2c6-2.4,12.6-3.7,19.5-3.7s13.5,1.3,19.5,3.7
		C26.6,162.9,32.1,166.4,36.8,170.7L36.8,170.7L36.8,170.7z M34.8,251L34.8,251c0,1.3-1.1,2.4-2.4,2.4c-0.1,0-0.3-0.1-0.4-0.1l0,0
		l0,0c-0.6-0.1-1.1-0.4-1.4-0.8c-0.1-0.1-0.1-0.1-0.1-0.2c-0.1-0.2-0.2-0.3-0.3-0.5c-0.1-0.3-0.2-0.6-0.2-0.9v-43.4
		c0-1.3,1.1-2.4,2.4-2.4c0.3,0,0.6,0.1,0.9,0.2c0.2,0.1,0.3,0.2,0.5,0.3c0.1,0.1,0.1,0.1,0.2,0.1c0.4,0.4,0.7,0.9,0.8,1.4l0,0l0,0
		c0,0.1,0.1,0.2,0.1,0.4L34.8,251L34.8,251z M49.6,248.6h-10v-38.7h10c3,6,4.5,12.6,4.5,19.3C54.1,235.9,52.6,242.6,49.6,248.6z"/>
	<path id="XMLID_882_" d="M-30.8,253.4c-0.6-0.1-1.1-0.4-1.4-0.8C-31.9,253-31.4,253.3-30.8,253.4z"/>
	<path id="XMLID_883_" d="M-28.8,205.7c0.4,0.4,0.7,0.9,0.8,1.4C-28.2,206.6-28.4,206.1-28.8,205.7z"/>
	<path id="XMLID_884_" d="M-29.5,205.3c0.2,0.1,0.3,0.2,0.5,0.3C-29.2,205.5-29.4,205.3-29.5,205.3z"/>
	<path id="XMLID_893_" d="M-32.4,252.4c-0.1-0.2-0.2-0.3-0.3-0.5C-32.6,252.1-32.5,252.2-32.4,252.4z"/>
	<path id="XMLID_895_" d="M-30.4,205.1L-30.4,205.1L-30.4,205.1z"/>
	<path id="XMLID_897_" d="M33.3,205.3c0.2,0.1,0.3,0.2,0.5,0.3C33.6,205.5,33.5,205.3,33.3,205.3z"/>
	<path id="XMLID_907_" d="M34,205.7c0.4,0.4,0.7,0.9,0.8,1.4C34.7,206.6,34.4,206.1,34,205.7z"/>
	<path id="XMLID_919_" d="M32,253.4c-0.6-0.1-1.1-0.4-1.4-0.8C31,253,31.5,253.3,32,253.4z"/>
	<path id="XMLID_924_" d="M30.5,252.4c-0.1-0.2-0.2-0.3-0.3-0.5C30.2,252.1,30.4,252.2,30.5,252.4z"/>
	<path id="XMLID_926_" d="M-29.1,205.6c0.1,0,0.1,0.1,0.2,0.1C-28.9,205.7-29,205.6-29.1,205.6z"/>
	<path id="XMLID_925_" d="M-29.1,205.6c0.1,0,0.1,0.1,0.2,0.1C-28.9,205.7-29,205.6-29.1,205.6z"/>
	<path id="XMLID_928_" d="M-28.1,207.1L-28.1,207.1L-28.1,207.1z"/>
	<path id="XMLID_927_" d="M-28.1,207.1L-28.1,207.1L-28.1,207.1z"/>
	<path id="XMLID_934_" d="M-30.4,205.1L-30.4,205.1c-1.3,0-2.4,1.1-2.4,2.4l0,0C-32.8,206.2-31.7,205.1-30.4,205.1z"/>
	<path id="XMLID_933_" d="M-30.4,205.1L-30.4,205.1c-1.3,0-2.4,1.1-2.4,2.4l0,0C-32.8,206.2-31.7,205.1-30.4,205.1z"/>
	<path id="XMLID_937_" d="M-32.8,251c0,0.3,0.1,0.6,0.2,0.9C-32.8,251.6-32.8,251.3-32.8,251z"/>
	<path id="XMLID_936_" d="M-32.8,251c0,0.3,0.1,0.6,0.2,0.9C-32.8,251.6-32.8,251.3-32.8,251z"/>
	<path id="XMLID_939_" d="M-32.2,252.6c-0.1-0.1-0.1-0.1-0.1-0.2C-32.3,252.4-32.3,252.5-32.2,252.6z"/>
	<path id="XMLID_938_" d="M-32.2,252.6c-0.1-0.1-0.1-0.1-0.1-0.2C-32.3,252.4-32.3,252.5-32.2,252.6z"/>
	<path id="XMLID_941_" d="M-30.4,205.1c0.3,0,0.6,0.1,0.9,0.2C-29.8,205.2-30.1,205.1-30.4,205.1z"/>
	<path id="XMLID_940_" d="M-30.4,205.1c0.3,0,0.6,0.1,0.9,0.2C-29.8,205.2-30.1,205.1-30.4,205.1z"/>
	<path id="XMLID_948_" d="M-30.8,253.4L-30.8,253.4L-30.8,253.4z"/>
	<path id="XMLID_942_" d="M-30.8,253.4L-30.8,253.4L-30.8,253.4z"/>
	<path id="XMLID_961_" d="M-52.2,229.3c0-6.7,1.6-13.4,4.5-19.3h10l0,0h-10C-50.6,215.9-52.2,222.6-52.2,229.3L-52.2,229.3z"/>
	<path id="XMLID_960_" d="M-52.2,229.3c0-6.7,1.6-13.4,4.5-19.3h10l0,0h-10C-50.6,215.9-52.2,222.6-52.2,229.3L-52.2,229.3z"/>
	<path id="XMLID_965_" d="M30.6,252.6c-0.1-0.1-0.1-0.1-0.1-0.2C30.5,252.4,30.6,252.5,30.6,252.6z"/>
	<path id="XMLID_964_" d="M30.6,252.6c-0.1-0.1-0.1-0.1-0.1-0.2C30.5,252.4,30.6,252.5,30.6,252.6z"/>
	<path id="XMLID_967_" d="M33.8,205.6c0.1,0,0.1,0.1,0.2,0.1C33.9,205.7,33.8,205.6,33.8,205.6z"/>
	<path id="XMLID_966_" d="M33.8,205.6c0.1,0,0.1,0.1,0.2,0.1C33.9,205.7,33.8,205.6,33.8,205.6z"/>
	<path id="XMLID_969_" d="M32.4,205.1c0.3,0,0.6,0.1,0.9,0.2C33,205.2,32.7,205.1,32.4,205.1z"/>
	<path id="XMLID_968_" d="M32.4,205.1c0.3,0,0.6,0.1,0.9,0.2C33,205.2,32.7,205.1,32.4,205.1z"/>
	<path id="XMLID_975_" d="M34.8,207.1L34.8,207.1L34.8,207.1z"/>
	<path id="XMLID_970_" d="M34.8,207.1L34.8,207.1L34.8,207.1z"/>
	<path id="XMLID_977_" d="M32.4,205.1c-1.3,0-2.4,1.1-2.4,2.4C30,206.2,31.1,205.1,32.4,205.1z"/>
	<path id="XMLID_976_" d="M32.4,205.1c-1.3,0-2.4,1.1-2.4,2.4C30,206.2,31.1,205.1,32.4,205.1z"/>
	<path id="XMLID_979_" d="M30.2,251.9c-0.1-0.3-0.2-0.6-0.2-0.9C30,251.3,30.1,251.6,30.2,251.9z"/>
	<path id="XMLID_978_" d="M30.2,251.9c-0.1-0.3-0.2-0.6-0.2-0.9C30,251.3,30.1,251.6,30.2,251.9z"/>
	<path id="XMLID_981_" d="M32,253.4L32,253.4L32,253.4z"/>
	<path id="XMLID_980_" d="M32,253.4L32,253.4L32,253.4z"/>
	<path id="XMLID_986_" d="M-34.8,170.7L-34.8,170.7c4.7-4.3,10.2-7.8,16.3-10.2C-24.6,162.9-30.1,166.4-34.8,170.7z"/>
	<polygon id="XMLID_988_" points="-33.6,171.9 -34.8,170.7 -34.8,170.7 	"/>
	<polygon id="XMLID_987_" points="-33.6,171.9 -34.8,170.7 -34.8,170.7 	"/>
	<path id="XMLID_990_" d="M20.5,160.5c6,2.4,11.5,5.9,16.3,10.2l0,0C32.1,166.4,26.6,162.9,20.5,160.5z"/>
	<path id="XMLID_989_" d="M20.5,160.5c6,2.4,11.5,5.9,16.3,10.2l0,0C32.1,166.4,26.6,162.9,20.5,160.5z"/>
</g>
<g>
	<path d="M-66.9,268.5c0.5-0.1,1.5-0.2,2.4-0.2c1.1,0,1.8,0.1,2.4,0.5c0.6,0.3,1,0.9,1,1.6c0,0.7-0.4,1.4-1.3,1.7v0
		c0.9,0.3,1.6,0.9,1.6,2c0,0.7-0.3,1.3-0.8,1.7c-0.6,0.5-1.6,0.7-3.2,0.7c-0.9,0-1.6-0.1-2-0.1V268.5z M-65.1,271.6h0.6
		c1,0,1.5-0.4,1.5-1c0-0.6-0.5-0.9-1.3-0.9c-0.4,0-0.6,0-0.8,0V271.6z M-65.1,275.2c0.2,0,0.4,0,0.7,0c0.8,0,1.6-0.3,1.6-1.2
		c0-0.8-0.7-1.1-1.6-1.1h-0.6V275.2z"/>
	<path d="M-59.7,268.4h1.8v6.5h3.2v1.5h-5V268.4z"/>
	<path d="M-52.1,268.4v4.7c0,1.4,0.5,2.1,1.5,2.1c1,0,1.5-0.7,1.5-2.1v-4.7h1.8v4.5c0,2.5-1.3,3.7-3.4,3.7c-2,0-3.2-1.1-3.2-3.7
		v-4.5H-52.1z"/>
	<path d="M-40.9,273.1h-3v1.9h3.3v1.5h-5.2v-8.1h5v1.5h-3.2v1.7h3V273.1z"/>
	<path d="M-37.7,270h-2.2v-1.5h6.2v1.5h-2.2v6.5h-1.8V270z"/>
	<path d="M-25.7,272.4c0,2.7-1.6,4.3-4,4.3c-2.4,0-3.8-1.8-3.8-4.1c0-2.4,1.5-4.2,3.9-4.2C-27,268.3-25.7,270.1-25.7,272.4z
		 M-31.5,272.5c0,1.6,0.7,2.7,2,2.7c1.2,0,1.9-1.2,1.9-2.7c0-1.5-0.7-2.7-2-2.7C-30.8,269.7-31.5,270.9-31.5,272.5z"/>
	<path d="M-17,272.4c0,2.7-1.6,4.3-4,4.3c-2.4,0-3.8-1.8-3.8-4.1c0-2.4,1.5-4.2,3.9-4.2C-18.4,268.3-17,270.1-17,272.4z
		 M-22.9,272.5c0,1.6,0.7,2.7,2,2.7c1.2,0,1.9-1.2,1.9-2.7c0-1.5-0.7-2.7-2-2.7C-22.2,269.7-22.9,270.9-22.9,272.5z"/>
	<path d="M-14.6,270h-2.2v-1.5h6.2v1.5h-2.2v6.5h-1.8V270z"/>
	<path d="M-7.8,268.4v3.1h3v-3.1h1.8v8.1h-1.8v-3.4h-3v3.4h-1.8v-8.1H-7.8z"/>
	<path d="M2.9,268.4v3.1h3v-3.1h1.8v8.1H5.9v-3.4h-3v3.4H1.1v-8.1H2.9z"/>
	<path d="M14.2,273.1h-3v1.9h3.3v1.5H9.4v-8.1h5v1.5h-3.2v1.7h3V273.1z"/>
	<path d="M17.6,274.4l-0.6,2.1h-1.9l2.5-8.1H20l2.5,8.1h-2l-0.6-2.1H17.6z M19.7,273.1l-0.5-1.7c-0.1-0.5-0.3-1.1-0.4-1.6h0
		c-0.1,0.5-0.2,1.1-0.4,1.6l-0.5,1.7H19.7z"/>
	<path d="M23.6,268.5c0.7-0.1,1.5-0.2,2.5-0.2c1.5,0,2.5,0.3,3.3,0.9c0.8,0.6,1.4,1.6,1.4,3c0,1.5-0.6,2.6-1.3,3.3
		c-0.9,0.7-2.1,1-3.7,1c-0.9,0-1.6-0.1-2.1-0.1V268.5z M25.5,275.1c0.2,0,0.4,0,0.6,0c1.7,0,2.7-0.9,2.7-2.8c0-1.7-1-2.6-2.5-2.6
		c-0.4,0-0.7,0-0.8,0.1V275.1z"/>
	<path d="M32,268.5c0.6-0.1,1.4-0.2,2.5-0.2c1.1,0,1.9,0.2,2.5,0.6c0.5,0.4,0.9,1.1,0.9,1.9c0,0.8-0.3,1.5-0.7,1.9
		c-0.6,0.6-1.5,0.9-2.6,0.9c-0.2,0-0.5,0-0.6,0v2.9H32V268.5z M33.8,272.2c0.2,0,0.3,0,0.6,0c1,0,1.6-0.5,1.6-1.3
		c0-0.7-0.5-1.2-1.4-1.2c-0.4,0-0.6,0-0.8,0.1V272.2z"/>
	<path d="M40.8,268.4v3.1h3v-3.1h1.8v8.1h-1.8v-3.4h-3v3.4H39v-8.1H40.8z"/>
	<path d="M54.6,272.4c0,2.7-1.6,4.3-4,4.3c-2.4,0-3.8-1.8-3.8-4.1c0-2.4,1.5-4.2,3.9-4.2C53.3,268.3,54.6,270.1,54.6,272.4z
		 M48.8,272.5c0,1.6,0.7,2.7,2,2.7c1.2,0,1.9-1.2,1.9-2.7c0-1.5-0.7-2.7-2-2.7C49.5,269.7,48.8,270.9,48.8,272.5z"/>
	<path d="M55.8,276.5v-8.1H58l1.7,3c0.5,0.9,1,1.9,1.3,2.8h0c-0.1-1.1-0.2-2.2-0.2-3.4v-2.4h1.7v8.1h-1.9l-1.7-3.1
		c-0.5-0.9-1-1.9-1.4-2.9l0,0c0,1.1,0.1,2.2,0.1,3.5v2.4H55.8z"/>
	<path d="M68.9,273.1h-3v1.9h3.3v1.5h-5.2v-8.1h5v1.5h-3.2v1.7h3V273.1z"/>
</g>
</svg>
