<?xml version="1.0" encoding="utf-8"?>
<!-- Generator: Adobe Illustrator 19.0.0, SVG Export Plug-In . SVG Version: 6.00 Build 0)  -->
<svg version="1.1" id="Layer_1" xmlns="http://www.w3.org/2000/svg" xmlns:xlink="http://www.w3.org/1999/xlink" x="0px" y="0px"
	 viewBox="0 0 144 144" style="enable-background:new 0 0 144 144;" xml:space="preserve">
<g id="XMLID_281_">
	<path id="XMLID_316_" d="M86.5,86.5c0-0.8-0.4-1.5-1-2L68.6,72.5c-0.7-0.5-1.7-0.6-2.5-0.2c-0.8,0.4-1.3,1.2-1.3,2.1v14.9l-3.4-2.4
		c-1.1-0.8-2.6-0.5-3.4,0.6c-0.8,1.1-0.5,2.6,0.6,3.4l6.2,4.4v1.8l-6.2,4.4c-1.1,0.8-1.4,2.3-0.6,3.4c0.8,1.1,2.3,1.4,3.4,0.6
		l3.4-2.4v14.9c0,0.9,0.5,1.7,1.3,2.1c0.3,0.2,0.7,0.3,1.1,0.3c0.5,0,1-0.2,1.4-0.5l16.9-12.1c0.6-0.5,1-1.2,1-2c0-0.8-0.4-1.5-1-2
		l-11-7.7l11-7.7C86.1,88,86.5,87.3,86.5,86.5z M79.9,105.9l-10.3,7.4V99.6l0.7-0.5L79.9,105.9z M70.3,93.2l-0.7-0.5V79.1l10.3,7.4
		L70.3,93.2z"/>
	<path id="XMLID_853_" d="M72,18.8c-32,0-58,26-58,58v19.3c0,8,2,15.9,5.8,22.9c0.4,0.8,1.2,1.3,2.1,1.3h11.9c1,2.8,3.7,4.8,6.8,4.8
		c4,0,7.3-3.3,7.3-7.3V74.4c0-4-3.3-7.2-7.3-7.2c-3.1,0-5.8,2-6.8,4.8H21.9c-0.9,0-1.7,0.5-2.1,1.3c-0.3,0.6-0.5,1.2-0.8,1.8
		c0.4-13.1,5.6-25,13.9-34.1l5,5c0.5,0.5,1.1,0.7,1.7,0.7c0.6,0,1.3-0.3,1.7-0.7c8.2-8.2,19.1-12.7,30.8-12.7s22.5,4.5,30.8,12.7
		c0.5,0.5,1.1,0.7,1.7,0.7c0.6,0,1.3-0.3,1.7-0.7l5-5c8.3,9.1,13.4,20.9,13.9,34.1c-0.3-0.6-0.5-1.2-0.8-1.8
		c-0.4-0.8-1.2-1.3-2.1-1.3h-11.9c-1-2.8-3.7-4.8-6.8-4.8c-4,0-7.3,3.3-7.3,7.3v43.5c0,4,3.3,7.2,7.3,7.2c3.1,0,5.8-2,6.8-4.8h11.9
		c0.9,0,1.7-0.5,2.1-1.3c3.8-7,5.8-14.9,5.8-22.9V76.8C130,44.9,104,18.8,72,18.8z M38.2,74.4c0-1.3,1.1-2.4,2.4-2.4h0l0,0l0,0
		c0.3,0,0.6,0.1,0.9,0.2c0.2,0.1,0.3,0.2,0.5,0.3c0.1,0.1,0.2,0.1,0.2,0.1c0.4,0.4,0.7,0.9,0.8,1.4c0,0,0,0,0,0l0,0
		c0,0.1,0.1,0.2,0.1,0.4v43.5c0,1.3-1.1,2.4-2.4,2.4c-0.1,0-0.3-0.1-0.4-0.1v0l0,0c-0.6-0.1-1.1-0.4-1.4-0.8
		c-0.1-0.1-0.1-0.1-0.1-0.2c-0.1-0.2-0.2-0.3-0.3-0.5c-0.1-0.3-0.2-0.6-0.2-0.9V74.4z M23.4,76.8h10v0v2v36.7h-10
		c-3-6-4.5-12.6-4.5-19.3v0l0,0C18.8,89.5,20.4,82.8,23.4,76.8z M107.8,37.6l-3.4,3.4C95.5,32.9,84.1,28.5,72,28.5
		S48.5,32.9,39.6,41l-2.2-2.2l0,0l-1.2-1.2l0,0l0,0c4.7-4.3,10.2-7.8,16.3-10.2c6-2.4,12.6-3.7,19.5-3.7s13.5,1.3,19.5,3.7
		C97.6,29.8,103.1,33.3,107.8,37.6L107.8,37.6L107.8,37.6z M105.8,117.9L105.8,117.9c0,1.3-1.1,2.4-2.4,2.4c-0.1,0-0.3-0.1-0.4-0.1
		v0c0,0,0,0,0,0c-0.6-0.1-1.1-0.4-1.4-0.8c-0.1-0.1-0.1-0.1-0.1-0.2c-0.1-0.2-0.2-0.3-0.3-0.5c-0.1-0.3-0.2-0.6-0.2-0.9V74.4
		c0-1.3,1.1-2.4,2.4-2.4c0.3,0,0.6,0.1,0.9,0.2c0.2,0.1,0.3,0.2,0.5,0.3c0.1,0.1,0.1,0.1,0.2,0.1c0.4,0.4,0.7,0.9,0.8,1.4l0,0h0
		c0,0.1,0.1,0.2,0.1,0.4V117.9z M120.6,115.5h-10V76.8h10c3,6,4.5,12.6,4.5,19.3S123.6,109.5,120.6,115.5z"/>
	<path id="XMLID_882_" d="M40.2,120.3c-0.6-0.1-1.1-0.4-1.4-0.8C39.1,119.9,39.6,120.2,40.2,120.3z"/>
	<path id="XMLID_883_" d="M42.2,72.6c0.4,0.4,0.7,0.9,0.8,1.4C42.8,73.5,42.6,73,42.2,72.6z"/>
	<path id="XMLID_884_" d="M41.5,72.2c0.2,0.1,0.3,0.2,0.5,0.3C41.8,72.4,41.6,72.2,41.5,72.2z"/>
	<path id="XMLID_893_" d="M38.6,119.3c-0.1-0.2-0.2-0.3-0.3-0.5C38.4,119,38.5,119.1,38.6,119.3z"/>
	<polygon id="XMLID_895_" points="40.6,72 40.6,72 40.6,72 	"/>
	<path id="XMLID_897_" d="M104.3,72.2c0.2,0.1,0.3,0.2,0.5,0.3C104.6,72.4,104.5,72.2,104.3,72.2z"/>
	<path id="XMLID_907_" d="M105,72.6c0.4,0.4,0.7,0.9,0.8,1.4C105.7,73.5,105.4,73,105,72.6z"/>
	<path id="XMLID_919_" d="M103,120.3c-0.6-0.1-1.1-0.4-1.4-0.8C102,119.9,102.5,120.2,103,120.3z"/>
	<path id="XMLID_924_" d="M101.5,119.3c-0.1-0.2-0.2-0.3-0.3-0.5C101.2,119,101.4,119.1,101.5,119.3z"/>
	<path id="XMLID_926_" d="M41.9,72.5c0.1,0,0.1,0.1,0.2,0.1C42.1,72.6,42,72.5,41.9,72.5z"/>
	<path id="XMLID_925_" d="M41.9,72.5c0.1,0,0.1,0.1,0.2,0.1C42.1,72.6,42,72.5,41.9,72.5z"/>
	<polygon id="XMLID_928_" points="42.9,74 42.9,74 42.9,74 	"/>
	<polygon id="XMLID_927_" points="42.9,74 42.9,74 42.9,74 	"/>
	<path id="XMLID_934_" d="M40.6,72L40.6,72c-1.3,0-2.4,1.1-2.4,2.4h0C38.2,73.1,39.3,72,40.6,72z"/>
	<path id="XMLID_933_" d="M40.6,72L40.6,72c-1.3,0-2.4,1.1-2.4,2.4h0C38.2,73.1,39.3,72,40.6,72z"/>
	<path id="XMLID_937_" d="M38.2,117.9c0,0.3,0.1,0.6,0.2,0.9C38.2,118.5,38.2,118.2,38.2,117.9z"/>
	<path id="XMLID_936_" d="M38.2,117.9c0,0.3,0.1,0.6,0.2,0.9C38.2,118.5,38.2,118.2,38.2,117.9z"/>
	<path id="XMLID_939_" d="M38.8,119.5c-0.1-0.1-0.1-0.1-0.1-0.2C38.7,119.3,38.7,119.4,38.8,119.5z"/>
	<path id="XMLID_938_" d="M38.8,119.5c-0.1-0.1-0.1-0.1-0.1-0.2C38.7,119.3,38.7,119.4,38.8,119.5z"/>
	<path id="XMLID_941_" d="M40.6,72c0.3,0,0.6,0.1,0.9,0.2C41.2,72.1,40.9,72,40.6,72z"/>
	<path id="XMLID_940_" d="M40.6,72c0.3,0,0.6,0.1,0.9,0.2C41.2,72.1,40.9,72,40.6,72z"/>
	<polygon id="XMLID_948_" points="40.2,120.3 40.2,120.3 40.2,120.3 	"/>
	<polygon id="XMLID_942_" points="40.2,120.3 40.2,120.3 40.2,120.3 	"/>
	<path id="XMLID_961_" d="M18.8,96.2c0-6.7,1.6-13.4,4.5-19.3h10v0h-10C20.4,82.8,18.8,89.5,18.8,96.2L18.8,96.2z"/>
	<path id="XMLID_960_" d="M18.8,96.2c0-6.7,1.6-13.4,4.5-19.3h10v0h-10C20.4,82.8,18.8,89.5,18.8,96.2L18.8,96.2z"/>
	<path id="XMLID_965_" d="M101.6,119.5c-0.1-0.1-0.1-0.1-0.1-0.2C101.5,119.3,101.6,119.4,101.6,119.5z"/>
	<path id="XMLID_964_" d="M101.6,119.5c-0.1-0.1-0.1-0.1-0.1-0.2C101.5,119.3,101.6,119.4,101.6,119.5z"/>
	<path id="XMLID_967_" d="M104.8,72.5c0.1,0,0.1,0.1,0.2,0.1C104.9,72.6,104.8,72.5,104.8,72.5z"/>
	<path id="XMLID_966_" d="M104.8,72.5c0.1,0,0.1,0.1,0.2,0.1C104.9,72.6,104.8,72.5,104.8,72.5z"/>
	<path id="XMLID_969_" d="M103.4,72c0.3,0,0.6,0.1,0.9,0.2C104,72.1,103.7,72,103.4,72z"/>
	<path id="XMLID_968_" d="M103.4,72c0.3,0,0.6,0.1,0.9,0.2C104,72.1,103.7,72,103.4,72z"/>
	<polygon id="XMLID_975_" points="105.8,74 105.8,74 105.8,74 	"/>
	<polygon id="XMLID_970_" points="105.8,74 105.8,74 105.8,74 	"/>
	<path id="XMLID_977_" d="M103.4,72c-1.3,0-2.4,1.1-2.4,2.4C101,73.1,102.1,72,103.4,72z"/>
	<path id="XMLID_976_" d="M103.4,72c-1.3,0-2.4,1.1-2.4,2.4C101,73.1,102.1,72,103.4,72z"/>
	<path id="XMLID_979_" d="M101.2,118.8c-0.1-0.3-0.2-0.6-0.2-0.9C101,118.2,101.1,118.5,101.2,118.8z"/>
	<path id="XMLID_978_" d="M101.2,118.8c-0.1-0.3-0.2-0.6-0.2-0.9C101,118.2,101.1,118.5,101.2,118.8z"/>
	<polygon id="XMLID_981_" points="103,120.3 103,120.3 103,120.3 	"/>
	<polygon id="XMLID_980_" points="103,120.3 103,120.3 103,120.3 	"/>
	<path id="XMLID_986_" d="M36.2,37.6L36.2,37.6c4.7-4.3,10.2-7.8,16.3-10.2C46.4,29.8,40.9,33.3,36.2,37.6z"/>
	
		<rect id="XMLID_988_" x="36" y="38.2" transform="matrix(-0.7071 -0.7071 0.7071 -0.7071 35.8154 91.3003)" width="1.7" height="0"/>
	
		<rect id="XMLID_987_" x="36" y="38.2" transform="matrix(-0.7071 -0.7071 0.7071 -0.7071 35.8154 91.3003)" width="1.7" height="0"/>
	<path id="XMLID_990_" d="M91.5,27.4c6,2.4,11.5,5.9,16.3,10.2l0,0C103.1,33.3,97.6,29.8,91.5,27.4z"/>
	<path id="XMLID_989_" d="M91.5,27.4c6,2.4,11.5,5.9,16.3,10.2l0,0C103.1,33.3,97.6,29.8,91.5,27.4z"/>
</g>
</svg>
