<?xml version="1.0" encoding="utf-8"?>
<!-- Generator: Adobe Illustrator 19.0.0, SVG Export Plug-In . SVG Version: 6.00 Build 0)  -->
<svg version="1.1" id="Layer_1" xmlns="http://www.w3.org/2000/svg" xmlns:xlink="http://www.w3.org/1999/xlink" x="0px" y="0px"
	 viewBox="0 0 144 144" style="enable-background:new 0 0 144 144;" xml:space="preserve">
<style type="text/css">
	.st0{fill:#010101;}
</style>
<g id="XMLID_442_">
	<g id="XMLID_458_">
		<g id="XMLID_459_">
			<path id="XMLID_460_" class="st0" d="M107.8,33.6c0-9-18.6-13.1-35.8-13.1s-35.8,4.1-35.8,13.1c0,0.1,0,0.1,0,0.2h0v76.7
				c0,9,18.6,13.1,35.8,13.1s35.8-4.1,35.8-13.1V33.8h0C107.8,33.7,107.8,33.6,107.8,33.6z M94.4,53.2l-5.2,5.2l-3.8-3.8l5.2-5.2
				L94.4,53.2z M85.7,45.8l-4.6,4.6l-3.8-3.8C80.1,46.4,83,46.1,85.7,45.8z M84.9,62.7l-4.7,4.7l-3.8-3.8l4.7-4.7L84.9,62.7z
				 M72.1,49.9l4.7,4.7l-4.7,4.7l-4.7-4.7L72.1,49.9z M67.9,63.6L64,67.4l-4.7-4.7l3.8-3.8L67.9,63.6z M67,46.5l-3.8,3.8l-4.5-4.5
				C61.4,46.2,64.2,46.4,67,46.5z M53.7,49.4l5.2,5.2l-3.8,3.8l-5.2-5.2L53.7,49.4z M42.2,41.3c1.6,0.9,3.5,1.6,5.6,2.3l1.6,1.6
				l-3.8,3.8l-3.4-3.4V41.3z M73.9,112c-0.9-0.9-2.5-0.9-3.4,0l-4.3-4.3c1.6-1.6,3.7-2.5,6-2.5c2.3,0,4.4,0.9,6,2.5L73.9,112z
				 M81.1,104.7c-4.9-4.9-13-4.9-17.9,0l-4.3-4.3c7.3-7.3,19.1-7.3,26.4,0L81.1,104.7z M88.6,97.3c-9-9-23.7-9-32.8,0L51.5,93
				c11.4-11.4,29.9-11.4,41.3,0L88.6,97.3z M101.8,72.5c-6.9,3.7-18.6,5.4-29.8,5.4s-22.9-1.7-29.8-5.4V60.9l3.4-3.4l5.2,5.2
				l-4.9,4.9c1,0.5,2.2,0.9,3.8,1.4l2.7,0.7l2.7-2.7l4,4c2.9,0.4,6,0.7,9.2,0.8l3.9-3.9l3.9,3.9c3.2-0.1,6.3-0.4,9.2-0.8l3.9-3.9
				l2.7,2.7c0.8-0.2,1.7-0.4,2.4-0.7c4-1.2,3.9-1.5,3.9-1.5l-4.8-4.8l5.2-5.2l3.1,3.1V72.5z M101.8,45.8L101.8,45.8l-3.1,3.1
				l-3.8-3.8l1.7-1.7c1.9-0.6,3.7-1.3,5.2-2.1L101.8,45.8L101.8,45.8z"/>
		</g>
	</g>
	<g id="XMLID_457_">
	</g>
	<g id="XMLID_456_">
	</g>
	<g id="XMLID_455_">
	</g>
	<g id="XMLID_454_">
	</g>
	<g id="XMLID_453_">
	</g>
	<g id="XMLID_452_">
	</g>
	<g id="XMLID_451_">
	</g>
	<g id="XMLID_450_">
	</g>
	<g id="XMLID_449_">
	</g>
	<g id="XMLID_448_">
	</g>
	<g id="XMLID_447_">
	</g>
	<g id="XMLID_446_">
	</g>
	<g id="XMLID_445_">
	</g>
	<g id="XMLID_444_">
	</g>
	<g id="XMLID_443_">
	</g>
</g>
</svg>
