<?xml version="1.0" encoding="utf-8"?>
<!-- Generator: Adobe Illustrator 19.0.0, SVG Export Plug-In . SVG Version: 6.00 Build 0)  -->
<svg version="1.1" id="Layer_1" xmlns="http://www.w3.org/2000/svg" xmlns:xlink="http://www.w3.org/1999/xlink" x="0px" y="0px"
	 viewBox="-71 145 144 144" style="enable-background:new -71 145 144 144;" xml:space="preserve">
<style type="text/css">
	.st0{fill:#010101;}
</style>
<g id="XMLID_442_">
	<g id="XMLID_458_">
		<g id="XMLID_459_">
			<path id="XMLID_460_" class="st0" d="M36.8,164.1c0-9-18.6-13.1-35.8-13.1s-35.8,4.1-35.8,13.1c0,0.1,0,0.1,0,0.2l0,0v76.7
				c0,9,18.6,13.1,35.8,13.1s35.8-4.1,35.8-13.1v-76.7l0,0C36.8,164.2,36.8,164.1,36.8,164.1z M23.4,183.7l-5.2,5.2l-3.8-3.8
				l5.2-5.2L23.4,183.7z M14.7,176.3l-4.6,4.6l-3.8-3.8C9.1,176.9,12,176.6,14.7,176.3z M13.9,193.2l-4.7,4.7l-3.8-3.8l4.7-4.7
				L13.9,193.2z M1.1,180.4l4.7,4.7l-4.7,4.7l-4.7-4.7L1.1,180.4z M-3.1,194.1l-3.9,3.8l-4.7-4.7l3.8-3.8L-3.1,194.1z M-4,176.9
				l-3.8,3.8l-4.5-4.5C-9.6,176.7-6.8,176.9-4,176.9z M-17.3,179.9l5.2,5.2l-3.8,3.8l-5.2-5.2L-17.3,179.9z M-28.8,171.8
				c1.6,0.9,3.5,1.6,5.6,2.3l1.6,1.6l-3.8,3.8l-3.4-3.4C-28.8,176.1-28.8,171.8-28.8,171.8z M2.9,242.4c-0.9-0.9-2.5-0.9-3.4,0
				l-4.3-4.3c1.6-1.6,3.7-2.5,6-2.5s4.4,0.9,6,2.5L2.9,242.4z M10.1,235.1c-4.9-4.9-13-4.9-17.9,0l-4.3-4.3c7.3-7.3,19.1-7.3,26.4,0
				L10.1,235.1z M17.6,227.8c-9-9-23.7-9-32.8,0l-4.3-4.3c11.4-11.4,29.9-11.4,41.3,0L17.6,227.8z M30.8,202.9
				c-6.9,3.7-18.6,5.4-29.8,5.4s-22.9-1.7-29.8-5.4v-11.6l3.4-3.4l5.2,5.2l-4.9,4.9c1,0.5,2.2,0.9,3.8,1.4l2.7,0.7l2.7-2.7l4,4
				c2.9,0.4,6,0.7,9.2,0.8l3.9-3.9l3.9,3.9c3.2-0.1,6.3-0.4,9.2-0.8l3.9-3.9l2.7,2.7c0.8-0.2,1.7-0.4,2.4-0.7c4-1.2,3.9-1.5,3.9-1.5
				l-4.8-4.8l5.2-5.2l3.1,3.1v11.8H30.8z M30.8,176.3L30.8,176.3l-3.1,3.1l-3.8-3.8l1.7-1.7c1.9-0.6,3.7-1.3,5.2-2.1L30.8,176.3
				L30.8,176.3z"/>
		</g>
	</g>
	<g id="XMLID_457_">
	</g>
	<g id="XMLID_456_">
	</g>
	<g id="XMLID_455_">
	</g>
	<g id="XMLID_454_">
	</g>
	<g id="XMLID_453_">
	</g>
	<g id="XMLID_452_">
	</g>
	<g id="XMLID_451_">
	</g>
	<g id="XMLID_450_">
	</g>
	<g id="XMLID_449_">
	</g>
	<g id="XMLID_448_">
	</g>
	<g id="XMLID_447_">
	</g>
	<g id="XMLID_446_">
	</g>
	<g id="XMLID_445_">
	</g>
	<g id="XMLID_444_">
	</g>
	<g id="XMLID_443_">
	</g>
</g>
<g>
	<path d="M-56.5,268c0.5-0.1,1.5-0.2,2.4-0.2c1.1,0,1.8,0.1,2.4,0.5c0.6,0.3,1,0.9,1,1.6c0,0.7-0.4,1.4-1.3,1.7v0
		c0.9,0.3,1.6,0.9,1.6,2c0,0.7-0.3,1.3-0.8,1.7c-0.6,0.5-1.6,0.7-3.2,0.7c-0.9,0-1.6-0.1-2-0.1V268z M-54.7,271.1h0.6
		c1,0,1.5-0.4,1.5-1c0-0.6-0.5-0.9-1.3-0.9c-0.4,0-0.6,0-0.8,0V271.1z M-54.7,274.7c0.2,0,0.4,0,0.7,0c0.8,0,1.6-0.3,1.6-1.2
		c0-0.8-0.7-1.1-1.6-1.1h-0.6V274.7z"/>
	<path d="M-49.3,267.9h1.8v6.5h3.2v1.5h-5V267.9z"/>
	<path d="M-41.7,267.9v4.7c0,1.4,0.5,2.1,1.5,2.1c1,0,1.5-0.7,1.5-2.1v-4.7h1.8v4.5c0,2.5-1.3,3.7-3.4,3.7c-2,0-3.2-1.1-3.2-3.7
		v-4.5H-41.7z"/>
	<path d="M-30.5,272.6h-3v1.9h3.3v1.5h-5.2v-8.1h5v1.5h-3.2v1.7h3V272.6z"/>
	<path d="M-27.3,269.5h-2.2v-1.5h6.2v1.5h-2.2v6.5h-1.8V269.5z"/>
	<path d="M-15.2,271.9c0,2.7-1.6,4.3-4,4.3c-2.4,0-3.8-1.8-3.8-4.1c0-2.4,1.5-4.2,3.9-4.2C-16.6,267.8-15.2,269.6-15.2,271.9z
		 M-21.1,272c0,1.6,0.7,2.7,2,2.7c1.2,0,1.9-1.2,1.9-2.7c0-1.5-0.7-2.7-2-2.7C-20.4,269.2-21.1,270.4-21.1,272z"/>
	<path d="M-6.6,271.9c0,2.7-1.6,4.3-4,4.3c-2.4,0-3.8-1.8-3.8-4.1c0-2.4,1.5-4.2,3.9-4.2C-8,267.8-6.6,269.6-6.6,271.9z M-12.5,272
		c0,1.6,0.7,2.7,2,2.7c1.2,0,1.9-1.2,1.9-2.7c0-1.5-0.7-2.7-2-2.7C-11.8,269.2-12.5,270.4-12.5,272z"/>
	<path d="M-4.2,269.5h-2.2v-1.5h6.2v1.5h-2.2v6.5h-1.8V269.5z"/>
	<path d="M2.6,267.9v3.1h3v-3.1h1.8v8.1H5.6v-3.4h-3v3.4H0.8v-8.1H2.6z"/>
	<path d="M11.6,274.1c0.5,0.3,1.2,0.5,2,0.5c0.8,0,1.3-0.3,1.3-0.9c0-0.5-0.4-0.8-1.4-1.1c-1.3-0.5-2.2-1.2-2.2-2.4
		c0-1.4,1.2-2.4,3.1-2.4c0.9,0,1.6,0.2,2.1,0.4l-0.4,1.5c-0.3-0.2-0.9-0.4-1.7-0.4c-0.8,0-1.2,0.4-1.2,0.8c0,0.5,0.5,0.7,1.5,1.1
		c1.4,0.5,2.1,1.3,2.1,2.4c0,1.4-1,2.5-3.3,2.5c-0.9,0-1.8-0.3-2.3-0.5L11.6,274.1z"/>
	<path d="M18,268c0.6-0.1,1.4-0.2,2.5-0.2c1.1,0,1.9,0.2,2.5,0.6c0.5,0.4,0.9,1.1,0.9,1.9s-0.3,1.5-0.7,1.9
		c-0.6,0.6-1.5,0.9-2.6,0.9c-0.2,0-0.5,0-0.6,0v2.9H18V268z M19.8,271.7c0.2,0,0.3,0,0.6,0c1,0,1.6-0.5,1.6-1.3
		c0-0.7-0.5-1.2-1.4-1.2c-0.4,0-0.6,0-0.8,0.1V271.7z"/>
	<path d="M29.8,272.6h-3v1.9h3.3v1.5h-5.2v-8.1h5v1.5h-3.2v1.7h3V272.6z"/>
	<path d="M33.2,273.9l-0.6,2.1h-1.9l2.5-8.1h2.4l2.5,8.1h-2l-0.6-2.1H33.2z M35.3,272.6l-0.5-1.7c-0.1-0.5-0.3-1.1-0.4-1.6h0
		c-0.1,0.5-0.2,1.1-0.4,1.6l-0.5,1.7H35.3z"/>
	<path d="M39.2,267.9H41v3.6h0c0.2-0.3,0.4-0.6,0.6-0.9l1.8-2.7h2.2l-2.7,3.4l2.8,4.6h-2.1l-2-3.5l-0.7,0.9v2.6h-1.8V267.9z"/>
	<path d="M51.4,272.6h-3v1.9h3.3v1.5h-5.2v-8.1h5v1.5h-3.2v1.7h3V272.6z"/>
	<path d="M53,268c0.6-0.1,1.5-0.2,2.4-0.2c1.2,0,2,0.2,2.6,0.6c0.5,0.4,0.7,0.9,0.7,1.7c0,1-0.7,1.7-1.4,2v0
		c0.6,0.2,0.9,0.8,1.1,1.5c0.3,0.9,0.5,2,0.7,2.3h-1.9c-0.1-0.2-0.3-0.9-0.6-1.9c-0.2-1-0.6-1.3-1.3-1.3h-0.6v3.2H53V268z
		 M54.8,271.5h0.7c0.9,0,1.5-0.5,1.5-1.2c0-0.7-0.5-1.1-1.3-1.1c-0.4,0-0.7,0-0.8,0.1V271.5z"/>
</g>
</svg>
