<?xml version="1.0" encoding="utf-8"?>
<!-- Generator: Adobe Illustrator 19.0.0, SVG Export Plug-In . SVG Version: 6.00 Build 0)  -->
<svg version="1.1" id="Layer_1" xmlns="http://www.w3.org/2000/svg" xmlns:xlink="http://www.w3.org/1999/xlink" x="0px" y="0px"
	 viewBox="-417 141 512 512" style="enable-background:new -417 141 512 512;" xml:space="preserve">
<style type="text/css">
	.st0{fill-rule:evenodd;clip-rule:evenodd;fill:#BD2F32;}
	.st1{fill:#FFFFFF;}
</style>
<g id="XMLID_29_">
	<rect id="XMLID_28_" x="-417" y="141" class="st0" width="512" height="512"/>
	<g id="XMLID_30_">
		<rect id="XMLID_31_" x="-344.7" y="580.2" class="st1" width="367.3" height="2.1"/>
	</g>
</g>
<g id="XMLID_223_">
	<polygon id="XMLID_703_" class="st1" points="-230.1,262.6 -230.1,209.9 -236.5,209.9 -249.9,209.9 -263,209.9 -315.4,209.9 
		-328.8,209.9 -341.9,209.9 -348.3,209.9 -348.3,262.6 -302.3,262.6 -276.1,262.6 	"/>
	<polygon id="XMLID_704_" class="st1" points="-328.8,190.4 -315.4,190.4 -315.4,209.9 -263,209.9 -263,190.4 -249.9,190.4 
		-249.9,209.9 -236.5,209.9 -236.5,177 -341.9,177 -341.9,209.9 -328.8,209.9 	"/>
	<polygon id="XMLID_707_" class="st1" points="-282.8,302.2 -282.8,302.5 -276.1,302.5 -276.1,262.6 -302.3,262.6 -302.3,302.5 
		-295.9,302.5 -295.9,302.2 	"/>
	<path id="XMLID_708_" class="st1" d="M-159.3,532.1L-159.3,532.1c-39.3-0.7-70.8-32.9-70.8-72.2c0-39.9,32.6-72.5,72.5-72.5
		s72.5,32.6,72.5,72.5c0,38.3-29.9,69.8-67.8,72.2c0.3,0,0.7,0,1,0c34.2-2,63.8-22.8,77.5-52.4c1.3-6.4,2.3-13.1,2.3-19.8
		c0-47-38.3-85.6-85.6-85.6c-47,0-85.6,38.3-85.6,85.6c0,6.7,0.7,13.4,2.3,19.8C-226.4,510.3-195.2,531.8-159.3,532.1z"/>
	<path id="XMLID_709_" class="st1" d="M-159.3,545.5c0.7,0,1,0,1.7,0C-158.3,545.5-158.7,545.5-159.3,545.5L-159.3,545.5z"/>
	<path id="XMLID_710_" class="st1" d="M-153.3,545.2c-1.3,0-3,0-4.4,0C-156.3,545.5-154.6,545.5-153.3,545.2z"/>
	<path id="XMLID_711_" class="st1" d="M-245.2,498.2c-22.8-22.2-37.3-53-37.3-87.3V302.5h-13.1v114.8l0,0
		c3.4,71.2,62.4,128.2,134.3,128.2c0.7,0,1.3,0,2,0c-1,0-2,0-3,0C-196.9,543.8-227.5,525.4-245.2,498.2z"/>
	<path id="XMLID_712_" class="st1" d="M-159.3,532.1c0.7,0,1,0,1.7,0c1.7,0,3,0,4.7,0C-155.3,532.1-157.3,532.1-159.3,532.1z"/>
	<path id="XMLID_713_" class="st1" d="M-13,379.4v25.5c0,45.3-23.5,90.6-73.8,113.1c-17.1,15.4-38.9,25.5-63.1,27.2
		c88.9-4.4,150.4-60.7,150.4-140v-25.8c-2,1-4,1.7-6.7,1.7S-11,380.4-13,379.4z"/>
	<rect id="XMLID_714_" x="-295.9" y="302.2" class="st1" width="13.1" height="0.3"/>
	<path id="XMLID_715_" class="st1" d="M-159.3,532.1c0.7,0,1,0,1.7,0C-158.3,532.1-158.7,532.1-159.3,532.1L-159.3,532.1z"/>
	<path id="XMLID_716_" class="st1" d="M-157.6,532.1c1.7,0,3.7,0,5.4-0.3c-0.3,0-0.7,0-1,0C-154.6,532.1-156.3,532.1-157.6,532.1z"
		/>
	<path id="XMLID_717_" class="st1" d="M-162,545.2c1,0,2,0,3,0l0,0C-160.3,545.2-161,545.2-162,545.2z"/>
	<path id="XMLID_718_" class="st1" d="M-19.7,348.2v13.1v6.7c0,5,2.7,9.1,6.7,11.4v-4.7H0.1v4.7c4-2.3,6.7-6.4,6.7-11.4v-6.7v-13.1
		H-19.7z"/>
	<path id="XMLID_719_" class="st1" d="M-13,374.4v4.7c2,1,4,1.7,6.7,1.7s4.7-0.7,6.7-1.7v-4.7H-13z"/>
	<path id="XMLID_720_" class="st1" d="M-153.3,545.2c1,0,2,0,3-0.3c-0.7,0-1.7,0-2.3,0C-152.9,545.2-152.9,545.2-153.3,545.2z"/>
	<path id="XMLID_721_" class="st1" d="M-240.9,479.7c-5.7-12.1-9.1-25.5-9.1-39.6c0-50.7,41.3-92,92-92s92,41.3,92,92
		c0,14.1-3.4,27.5-9.1,39.6c-4,17.1-13.1,32.2-25.5,43.3c4.7-1.7,9.1-3.4,13.1-5c21.1-19.1,34.6-47,34.6-77.9
		c0-58.1-47.3-105.4-105.4-105.4s-105.4,47.3-105.4,105.4c0,21.5,6.4,41.3,17.5,58.1c7,6.7,14.8,12.4,22.8,17.5
		C-231.1,505.6-237.5,493.2-240.9,479.7z"/>
	<path id="XMLID_722_" class="st1" d="M-159.3,545.5c0.7,0,1,0,1.7,0c1.3,0,3,0,4.4,0c0.3,0,0.3,0,0.7,0
		C-155,545.2-157,545.2-159.3,545.5z"/>
	<path id="XMLID_723_" class="st1" d="M-159.3,532.1c-35.9-0.7-67.1-21.8-81.6-52.7c3.4,13.4,9.7,25.8,18.5,35.9
		c18.1,10.4,38.9,16.8,61.1,16.8C-160.7,532.1-160,532.1-159.3,532.1z"/>
	<path id="XMLID_724_" class="st1" d="M-74.4,479.7c-14.1,29.5-43.3,50.3-77.5,52.4c19.5-0.7,36.9-4,52-9.1
		C-87.8,511.6-78.4,496.5-74.4,479.7z"/>
	<path id="XMLID_725_" class="st1" d="M-162,545.2c-24.2-1.3-45.6-12.4-60.4-29.5c-8.4-5-16.1-10.7-22.8-17.5
		C-227.5,525.4-196.9,543.8-162,545.2z"/>
	<path id="XMLID_726_" class="st1" d="M-100.3,523c-14.1,12.8-32.2,20.8-52.4,22.2c0.7,0,1.7,0,2.3,0c24.2-1.7,46.3-11.7,63.1-27.2
		C-91.2,520-95.6,521.7-100.3,523z"/>
	<path id="XMLID_727_" class="st1" d="M-157.6,532.1c-0.7,0-1,0-1.7,0s-1.3,0-2,0c-22.2,0-43.3-6-61.1-16.8
		c14.8,17.1,36.2,28.5,60.4,29.5c1,0,2,0,3,0c2.3,0,4.4,0,6.7,0c20.1-1.3,38.3-9.4,52.4-22.2c-15.1,5-32.6,8.4-52,9.1
		C-154,532.1-156,532.1-157.6,532.1z"/>
	<path id="XMLID_730_" class="st1" d="M19.9,275.7h-52.7v46h52.7V275.7z M-13,302.2h-13.1v-13.1H-13V302.2z M13.2,302.2H0.1v-13.1
		h13.1V302.2z"/>
	<path id="XMLID_732_" class="st1" d="M19.9,321.7h-52.7h-6.7v34.2c0,3,2.3,5.4,5.4,5.4h14.4v-13.1H6.5v13.1h14.4
		c3,0,5.4-2.3,5.4-5.4v-34.2H19.9z"/>
</g>
<g>
	<path d="M-239,640.4c-1.7,1-6.2,2.1-11.4,2.1c-15.6,0-23.6-9.7-23.6-22.5c0-15.3,11.1-23.9,24.6-23.9c5.2,0,9.4,1,11.1,2.1l-2.1,8
		c-2.1-1-4.9-1.7-8.7-1.7c-8,0-14.2,4.9-14.2,14.9c0,9,5.2,14.6,14.6,14.6c3.1,0,6.6-0.7,8.7-1.4L-239,640.4z"/>
	<path d="M-221,630l-3.1,11.4h-10.4l13.9-45.1h13.5l13.9,45.1h-11.1l-3.5-11.4H-221z M-209.6,622.3l-2.8-9.7
		c-0.7-2.8-1.7-5.9-2.4-8.7l0,0c-0.7,2.8-1.4,6.2-2.1,8.7l-2.8,9.7H-209.6z"/>
	<path d="M-187.7,597c2.8-0.7,8-1,13.2-1c6.2,0,10.1,0.7,13.2,2.4c3.1,1.7,5.5,4.9,5.5,8.7c0,4.2-2.4,7.6-7.3,9.7l0,0
		c5.2,1.4,9,5.2,9,11.1c0,4.2-1.7,7.3-4.9,9.7c-3.1,2.8-8.7,4.2-17.7,4.2c-4.9,0-8.7-0.3-11.1-0.7V597z M-177.6,614.3h3.5
		c5.2,0,8.3-2.1,8.3-5.5s-2.8-5.2-7.3-5.2c-2.1,0-3.5,0-4.5,0.3C-177.6,603.9-177.6,614.3-177.6,614.3z M-177.6,634.1
		c1,0,2.1,0,3.8,0c4.5,0,8.7-1.7,8.7-6.6c0-4.5-4.2-6.2-9-6.2h-3.5C-177.6,621.3-177.6,634.1-177.6,634.1z"/>
	<path d="M-147.1,596.3h10.4v36.4h18v8.7h-28.4V596.3z"/>
	<path d="M-86.1,622.3h-16.7v10.8h18.4v8.3h-28.8v-45.1h27.8v8.3h-17.7v9.4h17V622.3z"/>
	<path d="M-76.7,631c2.8,1.4,6.9,2.8,11.4,2.8c4.5,0,7.3-2.1,7.3-4.9c0-2.8-2.1-4.5-7.6-6.2c-7.6-2.8-12.5-6.6-12.5-13.2
		c0-7.6,6.6-13.5,17-13.5c5.2,0,8.7,1,11.4,2.4l-2.4,8.3c-1.7-1-4.9-2.1-9.4-2.1s-6.6,2.1-6.6,4.5c0,2.8,2.4,4.2,8.3,6.2
		c8,2.8,11.8,6.9,11.8,13.5c0,7.6-5.9,14.2-18,14.2c-5.2,0-10.4-1.4-12.8-2.8L-76.7,631z"/>
</g>
<g>
	<path class="st1" d="M-244.7,640.4c-1.7,1-6.2,2.1-11.4,2.1c-15.6,0-23.6-9.7-23.6-22.5c0-15.3,11.1-23.9,24.6-23.9
		c5.2,0,9.4,1,11.1,2.1l-2.1,8c-2.1-1-4.9-1.7-8.7-1.7c-8,0-14.2,4.9-14.2,14.9c0,9,5.2,14.6,14.6,14.6c3.1,0,6.6-0.7,8.7-1.4
		L-244.7,640.4z"/>
	<path class="st1" d="M-226.7,630l-3.1,11.4h-10.4l13.9-45.1h13.5l13.9,45.1H-210l-3.5-11.4H-226.7z M-215.2,622.3l-2.8-9.7
		c-0.7-2.8-1.7-5.9-2.4-8.7l0,0c-0.7,2.8-1.4,6.2-2.1,8.7l-2.8,9.7H-215.2z"/>
	<path class="st1" d="M-193.4,597c2.8-0.7,8-1,13.2-1c6.2,0,10.1,0.7,13.2,2.4s5.6,4.9,5.6,8.7c0,4.2-2.4,7.6-7.3,9.7l0,0
		c5.2,1.4,9,5.2,9,11.1c0,4.2-1.7,7.3-4.9,9.7c-3.1,2.8-8.7,4.2-17.7,4.2c-4.9,0-8.7-0.3-11.1-0.7V597z M-183.3,614.3h3.5
		c5.2,0,8.3-2.1,8.3-5.5s-2.8-5.2-7.3-5.2c-2.1,0-3.5,0-4.5,0.3C-183.3,603.9-183.3,614.3-183.3,614.3z M-183.3,634.1
		c1,0,2.1,0,3.8,0c4.5,0,8.7-1.7,8.7-6.6c0-4.5-4.2-6.2-9-6.2h-3.5C-183.3,621.3-183.3,634.1-183.3,634.1z"/>
	<path class="st1" d="M-152.8,596.3h10.4v36.4h18v8.7h-28.4V596.3z"/>
	<path class="st1" d="M-91.7,622.3h-16.6v10.8H-90v8.3h-28.8v-45.1h27.8v8.3h-17.7v9.4h17V622.3z"/>
	<path class="st1" d="M-82.4,631c2.8,1.4,6.9,2.8,11.4,2.8c4.5,0,7.3-2.1,7.3-4.9c0-2.8-2.1-4.5-7.6-6.2
		c-7.6-2.8-12.5-6.6-12.5-13.2c0-7.6,6.6-13.5,17-13.5c5.2,0,8.7,1,11.4,2.4l-2.4,8.3c-1.7-1-4.9-2.1-9.4-2.1
		c-4.5,0-6.6,2.1-6.6,4.5c0,2.8,2.4,4.2,8.3,6.2c8,2.8,11.8,6.9,11.8,13.5c0,7.6-5.9,14.2-18,14.2c-5.2,0-10.4-1.4-12.8-2.8
		L-82.4,631z"/>
</g>
</svg>
