<?xml version="1.0" encoding="utf-8"?>
<!-- Generator: Adobe Illustrator 19.0.0, SVG Export Plug-In . SVG Version: 6.00 Build 0)  -->
<svg version="1.1" id="Layer_1" xmlns="http://www.w3.org/2000/svg" xmlns:xlink="http://www.w3.org/1999/xlink" x="0px" y="0px"
	 viewBox="0 0 144 144" style="enable-background:new 0 0 144 144;" xml:space="preserve">
<style type="text/css">
	.st0{fill:#010101;}
</style>
<g id="XMLID_223_">
	<polygon id="XMLID_703_" class="st0" points="51.4,42.6 51.4,26.9 49.5,26.9 45.5,26.9 41.6,26.9 26,26.9 22,26.9 18.1,26.9 
		16.2,26.9 16.2,42.6 29.9,42.6 37.7,42.6 	"/>
	<polygon id="XMLID_704_" class="st0" points="22,21.1 26,21.1 26,26.9 41.6,26.9 41.6,21.1 45.5,21.1 45.5,26.9 49.5,26.9 
		49.5,17.1 18.1,17.1 18.1,26.9 22,26.9 	"/>
	<polygon id="XMLID_707_" class="st0" points="35.7,54.4 35.7,54.5 37.7,54.5 37.7,42.6 29.9,42.6 29.9,54.5 31.8,54.5 31.8,54.4 	
		"/>
	<path id="XMLID_708_" class="st0" d="M72.5,122.9L72.5,122.9c-11.7-0.2-21.1-9.8-21.1-21.5c0-11.9,9.7-21.6,21.6-21.6
		c11.9,0,21.6,9.7,21.6,21.6c0,11.4-8.9,20.8-20.2,21.5c0.1,0,0.2,0,0.3,0c10.2-0.6,19-6.8,23.1-15.6c0.4-1.9,0.7-3.9,0.7-5.9
		c0-14-11.4-25.5-25.5-25.5c-14,0-25.5,11.4-25.5,25.5c0,2,0.2,4,0.7,5.9C52.5,116.4,61.8,122.8,72.5,122.9z"/>
	<path id="XMLID_709_" class="st0" d="M72.5,126.9c0.2,0,0.3,0,0.5,0C72.8,126.9,72.7,126.9,72.5,126.9L72.5,126.9z"/>
	<path id="XMLID_710_" class="st0" d="M74.3,126.8c-0.4,0-0.9,0-1.3,0C73.4,126.9,73.9,126.9,74.3,126.8z"/>
	<path id="XMLID_711_" class="st0" d="M46.9,112.8c-6.8-6.6-11.1-15.8-11.1-26V54.5h-3.9v34.2h0c1,21.2,18.6,38.2,40,38.2
		c0.2,0,0.4,0,0.6,0c-0.3,0-0.6,0-0.9,0C61.3,126.4,52.2,120.9,46.9,112.8z"/>
	<path id="XMLID_712_" class="st0" d="M72.5,122.9c0.2,0,0.3,0,0.5,0c0.5,0,0.9,0,1.4,0C73.7,122.9,73.1,122.9,72.5,122.9z"/>
	<path id="XMLID_713_" class="st0" d="M116.1,77.4V85c0,13.5-7,27-22,33.7c-5.1,4.6-11.6,7.6-18.8,8.1c26.5-1.3,44.8-18.1,44.8-41.7
		v-7.7c-0.6,0.3-1.2,0.5-2,0.5S116.7,77.7,116.1,77.4z"/>
	<rect id="XMLID_714_" x="31.8" y="54.4" class="st0" width="3.9" height="0.1"/>
	<path id="XMLID_715_" class="st0" d="M72.5,122.9c0.2,0,0.3,0,0.5,0C72.8,122.9,72.7,122.9,72.5,122.9L72.5,122.9z"/>
	<path id="XMLID_716_" class="st0" d="M73,122.9c0.5,0,1.1,0,1.6-0.1c-0.1,0-0.2,0-0.3,0C73.9,122.9,73.4,122.9,73,122.9z"/>
	<path id="XMLID_717_" class="st0" d="M71.7,126.8c0.3,0,0.6,0,0.9,0l0,0C72.2,126.8,72,126.8,71.7,126.8z"/>
	<path id="XMLID_718_" class="st0" d="M114.1,68.1V72v2c0,1.5,0.8,2.7,2,3.4v-1.4h3.9v1.4c1.2-0.7,2-1.9,2-3.4v-2v-3.9H114.1z"/>
	<path id="XMLID_719_" class="st0" d="M116.1,75.9v1.4c0.6,0.3,1.2,0.5,2,0.5s1.4-0.2,2-0.5v-1.4H116.1z"/>
	<path id="XMLID_720_" class="st0" d="M74.3,126.8c0.3,0,0.6,0,0.9-0.1c-0.2,0-0.5,0-0.7,0C74.4,126.8,74.4,126.8,74.3,126.8z"/>
	<path id="XMLID_721_" class="st0" d="M48.2,107.3c-1.7-3.6-2.7-7.6-2.7-11.8c0-15.1,12.3-27.4,27.4-27.4
		c15.1,0,27.4,12.3,27.4,27.4c0,4.2-1,8.2-2.7,11.8c-1.2,5.1-3.9,9.6-7.6,12.9c1.4-0.5,2.7-1,3.9-1.5c6.3-5.7,10.3-14,10.3-23.2
		c0-17.3-14.1-31.4-31.4-31.4c-17.3,0-31.4,14.1-31.4,31.4c0,6.4,1.9,12.3,5.2,17.3c2.1,2,4.4,3.7,6.8,5.2
		C51.1,115,49.2,111.3,48.2,107.3z"/>
	<path id="XMLID_722_" class="st0" d="M72.5,126.9c0.2,0,0.3,0,0.5,0c0.4,0,0.9,0,1.3,0c0.1,0,0.1,0,0.2,0
		C73.8,126.8,73.2,126.8,72.5,126.9z"/>
	<path id="XMLID_723_" class="st0" d="M72.5,122.9c-10.7-0.2-20-6.5-24.3-15.7c1,4,2.9,7.7,5.5,10.7c5.4,3.1,11.6,5,18.2,5
		C72.1,122.9,72.3,122.9,72.5,122.9z"/>
	<path id="XMLID_724_" class="st0" d="M97.8,107.3c-4.2,8.8-12.9,15-23.1,15.6c5.8-0.2,11-1.2,15.5-2.7
		C93.8,116.8,96.6,112.3,97.8,107.3z"/>
	<path id="XMLID_725_" class="st0" d="M71.7,126.8c-7.2-0.4-13.6-3.7-18-8.8c-2.5-1.5-4.8-3.2-6.8-5.2
		C52.2,120.9,61.3,126.4,71.7,126.8z"/>
	<path id="XMLID_726_" class="st0" d="M90.1,120.2c-4.2,3.8-9.6,6.2-15.6,6.6c0.2,0,0.5,0,0.7,0c7.2-0.5,13.8-3.5,18.8-8.1
		C92.8,119.3,91.5,119.8,90.1,120.2z"/>
	<path id="XMLID_727_" class="st0" d="M73,122.9c-0.2,0-0.3,0-0.5,0c-0.2,0-0.4,0-0.6,0c-6.6,0-12.9-1.8-18.2-5
		c4.4,5.1,10.8,8.5,18,8.8c0.3,0,0.6,0,0.9,0c0.7,0,1.3,0,2,0c6-0.4,11.4-2.8,15.6-6.6c-4.5,1.5-9.7,2.5-15.5,2.7
		C74.1,122.9,73.5,122.9,73,122.9z"/>
	<path id="XMLID_730_" class="st0" d="M125.9,46.5h-15.7v13.7h15.7V46.5z M116.1,54.4h-3.9v-3.9h3.9V54.4z M123.9,54.4H120v-3.9h3.9
		V54.4z"/>
	<path id="XMLID_732_" class="st0" d="M125.9,60.2h-15.7h-2v10.2c0,0.9,0.7,1.6,1.6,1.6h4.3v-3.9h7.8V72h4.3c0.9,0,1.6-0.7,1.6-1.6
		V60.2H125.9z"/>
</g>
</svg>
