<?xml version="1.0" encoding="utf-8"?>
<!-- Generator: Adobe Illustrator 19.0.0, SVG Export Plug-In . SVG Version: 6.00 Build 0)  -->
<svg version="1.1" id="Layer_1" xmlns="http://www.w3.org/2000/svg" xmlns:xlink="http://www.w3.org/1999/xlink" x="0px" y="0px"
	 viewBox="-71 145 144 144" style="enable-background:new -71 145 144 144;" xml:space="preserve">
<style type="text/css">
	.st0{fill:#010101;}
</style>
<g id="XMLID_223_">
	<polygon id="XMLID_703_" class="st0" points="-19.6,175.8 -19.6,160.1 -21.5,160.1 -25.5,160.1 -29.4,160.1 -45,160.1 -49,160.1 
		-52.9,160.1 -54.8,160.1 -54.8,175.8 -41.1,175.8 -33.3,175.8 	"/>
	<polygon id="XMLID_704_" class="st0" points="-49,154.3 -45,154.3 -45,160.1 -29.4,160.1 -29.4,154.3 -25.5,154.3 -25.5,160.1 
		-21.5,160.1 -21.5,150.3 -52.9,150.3 -52.9,160.1 -49,160.1 	"/>
	<polygon id="XMLID_707_" class="st0" points="-35.3,187.6 -35.3,187.7 -33.3,187.7 -33.3,175.8 -41.1,175.8 -41.1,187.7 
		-39.2,187.7 -39.2,187.6 	"/>
	<path id="XMLID_708_" class="st0" d="M1.5,256.1L1.5,256.1c-11.7-0.2-21.1-9.8-21.1-21.5c0-11.9,9.7-21.6,21.6-21.6
		s21.6,9.7,21.6,21.6c0,11.4-8.9,20.8-20.2,21.5c0.1,0,0.2,0,0.3,0c10.2-0.6,19-6.8,23.1-15.6c0.4-1.9,0.7-3.9,0.7-5.9
		c0-14-11.4-25.5-25.5-25.5c-14,0-25.5,11.4-25.5,25.5c0,2,0.2,4,0.7,5.9C-18.5,249.6-9.2,256,1.5,256.1z"/>
	<path id="XMLID_709_" class="st0" d="M1.5,260.1c0.2,0,0.3,0,0.5,0C1.8,260.1,1.7,260.1,1.5,260.1L1.5,260.1z"/>
	<path id="XMLID_710_" class="st0" d="M3.3,260c-0.4,0-0.9,0-1.3,0C2.4,260.1,2.9,260.1,3.3,260z"/>
	<path id="XMLID_711_" class="st0" d="M-24.1,246c-6.8-6.6-11.1-15.8-11.1-26v-32.3h-3.9v34.2l0,0c1,21.2,18.6,38.2,40,38.2
		c0.2,0,0.4,0,0.6,0c-0.3,0-0.6,0-0.9,0C-9.7,259.6-18.8,254.1-24.1,246z"/>
	<path id="XMLID_712_" class="st0" d="M1.5,256.1c0.2,0,0.3,0,0.5,0c0.5,0,0.9,0,1.4,0C2.7,256.1,2.1,256.1,1.5,256.1z"/>
	<path id="XMLID_713_" class="st0" d="M45.1,210.6v7.6c0,13.5-7,27-22,33.7c-5.1,4.6-11.6,7.6-18.8,8.1
		c26.5-1.3,44.8-18.1,44.8-41.7v-7.7c-0.6,0.3-1.2,0.5-2,0.5S45.7,210.9,45.1,210.6z"/>
	<rect id="XMLID_714_" x="-39.2" y="187.6" class="st0" width="3.9" height="0.1"/>
	<path id="XMLID_715_" class="st0" d="M1.5,256.1c0.2,0,0.3,0,0.5,0C1.8,256.1,1.7,256.1,1.5,256.1L1.5,256.1z"/>
	<path id="XMLID_716_" class="st0" d="M2,256.1c0.5,0,1.1,0,1.6-0.1c-0.1,0-0.2,0-0.3,0C2.9,256.1,2.4,256.1,2,256.1z"/>
	<path id="XMLID_717_" class="st0" d="M0.7,260c0.3,0,0.6,0,0.9,0l0,0C1.2,260,1,260,0.7,260z"/>
	<path id="XMLID_718_" class="st0" d="M43.1,201.3v3.9v2c0,1.5,0.8,2.7,2,3.4v-1.4H49v1.4c1.2-0.7,2-1.9,2-3.4v-2v-3.9H43.1z"/>
	<path id="XMLID_719_" class="st0" d="M45.1,209.1v1.4c0.6,0.3,1.2,0.5,2,0.5s1.4-0.2,2-0.5v-1.4H45.1z"/>
	<path id="XMLID_720_" class="st0" d="M3.3,260c0.3,0,0.6,0,0.9-0.1c-0.2,0-0.5,0-0.7,0C3.4,260,3.4,260,3.3,260z"/>
	<path id="XMLID_721_" class="st0" d="M-22.8,240.5c-1.7-3.6-2.7-7.6-2.7-11.8c0-15.1,12.3-27.4,27.4-27.4s27.4,12.3,27.4,27.4
		c0,4.2-1,8.2-2.7,11.8c-1.2,5.1-3.9,9.6-7.6,12.9c1.4-0.5,2.7-1,3.9-1.5c6.3-5.7,10.3-14,10.3-23.2c0-17.3-14.1-31.4-31.4-31.4
		s-31.4,14.1-31.4,31.4c0,6.4,1.9,12.3,5.2,17.3c2.1,2,4.4,3.7,6.8,5.2C-19.9,248.2-21.8,244.5-22.8,240.5z"/>
	<path id="XMLID_722_" class="st0" d="M1.5,260.1c0.2,0,0.3,0,0.5,0c0.4,0,0.9,0,1.3,0c0.1,0,0.1,0,0.2,0C2.8,260,2.2,260,1.5,260.1
		z"/>
	<path id="XMLID_723_" class="st0" d="M1.5,256.1c-10.7-0.2-20-6.5-24.3-15.7c1,4,2.9,7.7,5.5,10.7c5.4,3.1,11.6,5,18.2,5
		C1.1,256.1,1.3,256.1,1.5,256.1z"/>
	<path id="XMLID_724_" class="st0" d="M26.8,240.5c-4.2,8.8-12.9,15-23.1,15.6c5.8-0.2,11-1.2,15.5-2.7
		C22.8,250,25.6,245.5,26.8,240.5z"/>
	<path id="XMLID_725_" class="st0" d="M0.7,260c-7.2-0.4-13.6-3.7-18-8.8c-2.5-1.5-4.8-3.2-6.8-5.2C-18.8,254.1-9.7,259.6,0.7,260z"
		/>
	<path id="XMLID_726_" class="st0" d="M19.1,253.4c-4.2,3.8-9.6,6.2-15.6,6.6c0.2,0,0.5,0,0.7,0c7.2-0.5,13.8-3.5,18.8-8.1
		C21.8,252.5,20.5,253,19.1,253.4z"/>
	<path id="XMLID_727_" class="st0" d="M2,256.1c-0.2,0-0.3,0-0.5,0s-0.4,0-0.6,0c-6.6,0-12.9-1.8-18.2-5c4.4,5.1,10.8,8.5,18,8.8
		c0.3,0,0.6,0,0.9,0c0.7,0,1.3,0,2,0c6-0.4,11.4-2.8,15.6-6.6c-4.5,1.5-9.7,2.5-15.5,2.7C3.1,256.1,2.5,256.1,2,256.1z"/>
	<path id="XMLID_730_" class="st0" d="M54.9,179.7H39.2v13.7h15.7V179.7z M45.1,187.6h-3.9v-3.9h3.9V187.6z M52.9,187.6H49v-3.9h3.9
		V187.6z"/>
	<path id="XMLID_732_" class="st0" d="M54.9,193.4H39.2h-2v10.2c0,0.9,0.7,1.6,1.6,1.6h4.3v-3.9h7.8v3.9h4.3c0.9,0,1.6-0.7,1.6-1.6
		v-10.2H54.9z"/>
</g>
<g>
	<path d="M-19.1,280.8c-0.5,0.3-1.8,0.6-3.3,0.6c-4.5,0-6.8-2.8-6.8-6.5c0-4.4,3.2-6.9,7.1-6.9c1.5,0,2.7,0.3,3.2,0.6l-0.6,2.3
		c-0.6-0.3-1.4-0.5-2.5-0.5c-2.3,0-4.1,1.4-4.1,4.3c0,2.6,1.5,4.2,4.2,4.2c0.9,0,1.9-0.2,2.5-0.4L-19.1,280.8z"/>
	<path d="M-13.9,277.8l-0.9,3.3h-3l4-13h3.9l4,13h-3.2l-1-3.3H-13.9z M-10.6,275.6l-0.8-2.8c-0.2-0.8-0.5-1.7-0.7-2.5h0
		c-0.2,0.8-0.4,1.8-0.6,2.5l-0.8,2.8H-10.6z"/>
	<path d="M-4.3,268.3c0.8-0.2,2.3-0.3,3.8-0.3c1.8,0,2.9,0.2,3.8,0.7c0.9,0.5,1.6,1.4,1.6,2.5c0,1.2-0.7,2.2-2.1,2.8v0
		c1.5,0.4,2.6,1.5,2.6,3.2c0,1.2-0.5,2.1-1.4,2.8c-0.9,0.8-2.5,1.2-5.1,1.2c-1.4,0-2.5-0.1-3.2-0.2V268.3z M-1.4,273.3h1
		c1.5,0,2.4-0.6,2.4-1.6c0-1-0.8-1.5-2.1-1.5c-0.6,0-1,0-1.3,0.1V273.3z M-1.4,279c0.3,0,0.6,0,1.1,0c1.3,0,2.5-0.5,2.5-1.9
		c0-1.3-1.2-1.8-2.6-1.8h-1V279z"/>
	<path d="M7.4,268.1h3v10.5h5.2v2.5H7.4V268.1z"/>
	<path d="M25,275.6h-4.8v3.1h5.3v2.4h-8.3v-13h8v2.4h-5.1v2.7H25V275.6z"/>
	<path d="M27.7,278.1c0.8,0.4,2,0.8,3.3,0.8c1.3,0,2.1-0.6,2.1-1.4c0-0.8-0.6-1.3-2.2-1.8c-2.2-0.8-3.6-1.9-3.6-3.8
		c0-2.2,1.9-3.9,4.9-3.9c1.5,0,2.5,0.3,3.3,0.7l-0.7,2.4c-0.5-0.3-1.4-0.6-2.7-0.6c-1.3,0-1.9,0.6-1.9,1.3c0,0.8,0.7,1.2,2.4,1.8
		c2.3,0.8,3.4,2,3.4,3.9c0,2.2-1.7,4.1-5.2,4.1c-1.5,0-3-0.4-3.7-0.8L27.7,278.1z"/>
</g>
</svg>
