<?xml version="1.0" encoding="utf-8"?>
<!-- Generator: Adobe Illustrator 19.0.0, SVG Export Plug-In . SVG Version: 6.00 Build 0)  -->
<svg version="1.1" id="Capa_1" xmlns="http://www.w3.org/2000/svg" xmlns:xlink="http://www.w3.org/1999/xlink" x="0px" y="0px"
	 viewBox="-461 141 512 512" style="enable-background:new -461 141 512 512;" xml:space="preserve">
<style type="text/css">
	.st0{fill-rule:evenodd;clip-rule:evenodd;fill:#BD2F32;}
	.st1{fill:#FFFFFF;}
</style>
<g id="XMLID_29_">
	<rect id="XMLID_28_" x="-461" y="141" class="st0" width="512" height="512"/>
	<g id="XMLID_30_">
		<rect id="XMLID_31_" x="-388.7" y="580.2" class="st1" width="367.3" height="2.1"/>
	</g>
</g>
<g>
	<g>
		<path class="st1" d="M-205.2,330.3c-34.2,0-62.4,27.7-62.4,62.4c0,34.2,27.7,62.4,62.4,62.4c34.2,0,62.4-27.7,62.4-62.4
			C-143.3,357.9-171,330.3-205.2,330.3z M-39.7,268.4h-49.7c-7,0-14.1-5.2-16.4-11.7l-12.7-38.4c-2.3-6.6-9.4-11.7-16.4-11.7h-140.7
			c-7,0-14.1,5.2-16.4,11.7l-12.7,38.4c-2.3,6.6-9.4,11.7-16.4,11.7h-49.7c-23,0-41.3,18.8-41.3,41.3v186.6
			c0,23,18.8,41.3,41.3,41.3h331.5c23,0,41.3-18.8,41.3-41.3V309.6C2,286.7-16.8,268.4-39.7,268.4z M-205.2,495.8
			c-57.2,0-103.6-46.4-103.6-103.6c0-57.2,46.4-103.6,103.6-103.6s103.6,46.4,103.6,103.6C-101.6,449.4-148,495.8-205.2,495.8z
			 M-54.3,338.7c-8,0-14.5-6.6-14.5-14.5c0-8,6.6-14.5,14.5-14.5s14.5,6.6,14.5,14.5C-39.7,332.1-46.3,338.7-54.3,338.7z"/>
	</g>
</g>
<g>
	<path d="M-293.1,637.5c-1.6,1.1-5.8,2.1-11,2.1c-14.7,0-22.1-9.5-22.1-21.6c0-14.7,10.5-22.6,23.2-22.6c4.7,0,8.9,1.1,10.5,2.1
		l-2.1,7.9c-2.1-1.1-4.7-1.6-7.9-1.6c-7.9,0-13.7,4.7-13.7,14.2c0,8.4,5.3,13.7,13.7,13.7c3.2,0,6.3-0.5,7.9-1.6L-293.1,637.5z"/>
	<path d="M-276.3,628l-3.2,11.1h-10l13.2-42.6h12.6l13.2,42.6H-261l-3.2-11.1H-276.3z M-265.2,620.7l-2.6-8.9
		c-0.5-2.6-1.6-5.8-2.1-8.4l0,0c-0.5,2.6-1.1,5.8-2.1,8.4l-2.6,8.9H-265.2z"/>
	<path d="M-208.4,622.8c0-5.3-0.5-11.1-0.5-17.4l0,0c-1.6,5.3-3.2,11.6-4.7,16.3l-5.3,16.8h-7.4l-4.7-16.3
		c-1.6-5.3-2.6-11.1-3.7-16.8l0,0c0,5.8-0.5,12.1-0.5,17.4l-0.5,16.3h-8.9l2.6-42.6h12.6l4.2,14.2c1.6,4.7,2.6,10,3.7,15.3l0,0
		c1.1-4.7,2.6-10.5,4.2-15.3l4.7-14.2h12.6l2.1,42.6h-9.5L-208.4,622.8z"/>
	<path d="M-165.8,620.7h-15.8v10h17.4v7.9h-27.4v-42.6h26.3v7.9h-16.8v8.9h15.8v7.9H-165.8z"/>
	<path d="M-157.4,597c3.2-0.5,7.9-1.1,12.6-1.1c6.3,0,10.5,1.1,13.7,3.2c2.6,2.1,3.7,4.7,3.7,8.9c0,5.3-3.7,8.9-7.4,10.5l0,0
		c3.2,1.1,4.7,4.2,5.8,7.9c1.6,4.7,2.6,10.5,3.7,12.1h-10c-0.5-1.1-1.6-4.7-3.2-10c-1.1-5.3-3.2-6.8-6.8-6.8h-3.2v16.8h-9.5V597
		H-157.4z M-147.9,615.4h3.7c4.7,0,7.9-2.6,7.9-6.3c0-3.7-2.6-5.8-6.8-5.8c-2.1,0-3.7,0-4.2,0.5v11.6H-147.9z"/>
	<path d="M-109.5,628l-3.2,11.1h-10l13.2-42.6h12.6l13.2,42.6h-10.5l-3.2-11.1H-109.5z M-99,620.7l-2.6-8.9
		c-0.5-2.6-1.6-5.8-2.1-8.4l0,0c-0.5,2.6-1.1,5.8-2.1,8.4l-2.6,8.9H-99z"/>
</g>
<g>
	<path class="st1" d="M-298.8,637.5c-1.6,1.1-5.8,2.1-11,2.1c-14.7,0-22.1-9.5-22.1-21.6c0-14.7,10.5-22.6,23.2-22.6
		c4.7,0,8.9,1.1,10.5,2.1l-2.1,7.9c-2.1-1.1-4.7-1.6-7.9-1.6c-7.9,0-13.7,4.7-13.7,14.2c0,8.4,5.3,13.7,13.7,13.7
		c3.2,0,6.3-0.5,7.9-1.6L-298.8,637.5z"/>
	<path class="st1" d="M-282,628l-3.2,11.1h-10l13.2-42.6h12.6l13.2,42.6h-10.5l-3.2-11.1H-282z M-270.9,620.7l-2.6-8.9
		c-0.5-2.6-1.6-5.8-2.1-8.4l0,0c-0.5,2.6-1.1,5.8-2.1,8.4l-2.6,8.9H-270.9z"/>
	<path class="st1" d="M-214.1,622.8c0-5.3-0.5-11.1-0.5-17.4l0,0c-1.6,5.3-3.2,11.6-4.7,16.3l-5.3,16.8h-7.4l-4.7-16.3
		c-1.6-5.3-2.6-11.1-3.7-16.8l0,0c0,5.8-0.5,12.1-0.5,17.4l-0.5,16.3h-8.9l2.6-42.6h12.6l4.2,14.2c1.6,4.7,2.6,10,3.7,15.3l0,0
		c1.1-4.7,2.6-10.5,4.2-15.3l4.7-14.2h12.6l2.1,42.6h-9.5L-214.1,622.8z"/>
	<path class="st1" d="M-171.5,620.7h-15.8v10h17.4v7.9h-27.4v-42.6h26.3v7.9h-16.8v8.9h15.8v7.9H-171.5z"/>
	<path class="st1" d="M-163,597c3.2-0.5,7.9-1.1,12.6-1.1c6.3,0,10.5,1.1,13.7,3.2c2.6,2.1,3.7,4.7,3.7,8.9c0,5.3-3.7,8.9-7.4,10.5
		l0,0c3.2,1.1,4.7,4.2,5.8,7.9c1.6,4.7,2.6,10.5,3.7,12.1h-10c-0.5-1.1-1.6-4.7-3.2-10c-1.1-5.3-3.2-6.8-6.8-6.8h-3.2v16.8h-9.5V597
		H-163z M-153.6,615.4h3.7c4.7,0,7.9-2.6,7.9-6.3c0-3.7-2.6-5.8-6.8-5.8c-2.1,0-3.7,0-4.2,0.5v11.6H-153.6z"/>
	<path class="st1" d="M-115.2,628l-3.2,11.1h-10l13.2-42.6h12.6l13.2,42.6h-10.5l-3.2-11.1H-115.2z M-104.6,620.7l-2.6-8.9
		c-0.5-2.6-1.6-5.8-2.1-8.4l0,0c-0.5,2.6-1.1,5.8-2.1,8.4l-2.6,8.9H-104.6z"/>
</g>
</svg>
