<?xml version="1.0" encoding="utf-8"?>
<!-- Generator: Adobe Illustrator 19.0.0, SVG Export Plug-In . SVG Version: 6.00 Build 0)  -->
<svg version="1.1" id="Capa_1" xmlns="http://www.w3.org/2000/svg" xmlns:xlink="http://www.w3.org/1999/xlink" x="0px" y="0px"
	 viewBox="-93 167 100 100" style="enable-background:new -93 167 100 100;" xml:space="preserve">
<style type="text/css">
	.st0{fill:#030104;}
</style>
<g>
	<g>
		<path class="st0" d="M-43,198c-7.3,0-13.3,5.9-13.3,13.3c0,7.3,5.9,13.3,13.3,13.3c7.3,0,13.3-5.9,13.3-13.3
			C-29.8,203.9-35.7,198-43,198z M-7.7,184.8h-10.6c-1.5,0-3-1.1-3.5-2.5l-2.7-8.2c-0.5-1.4-2-2.5-3.5-2.5h-30c-1.5,0-3,1.1-3.5,2.5
			l-2.7,8.2c-0.5,1.4-2,2.5-3.5,2.5h-10.6c-4.9,0-8.8,4-8.8,8.8v39.8c0,4.9,4,8.8,8.8,8.8h70.7c4.9,0,8.8-4,8.8-8.8v-39.8
			C1.2,188.7-2.8,184.8-7.7,184.8z M-43,233.3c-12.2,0-22.1-9.9-22.1-22.1c0-12.2,9.9-22.1,22.1-22.1c12.2,0,22.1,9.9,22.1,22.1
			C-20.9,223.4-30.8,233.3-43,233.3z M-10.8,199.8c-1.7,0-3.1-1.4-3.1-3.1c0-1.7,1.4-3.1,3.1-3.1c1.7,0,3.1,1.4,3.1,3.1
			C-7.7,198.4-9.1,199.8-10.8,199.8z"/>
	</g>
</g>
<g>
	<path d="M-59.7,256.4c-0.3,0.2-1.1,0.4-2.1,0.4c-2.8,0-4.2-1.8-4.2-4.1c0-2.8,2-4.3,4.4-4.3c0.9,0,1.7,0.2,2,0.4l-0.4,1.5
		c-0.4-0.2-0.9-0.3-1.5-0.3c-1.5,0-2.6,0.9-2.6,2.7c0,1.6,1,2.6,2.6,2.6c0.6,0,1.2-0.1,1.5-0.3L-59.7,256.4z"/>
	<path d="M-56.5,254.6l-0.6,2.1h-1.9l2.5-8.1h2.4l2.5,8.1h-2l-0.6-2.1H-56.5z M-54.4,253.2l-0.5-1.7c-0.1-0.5-0.3-1.1-0.4-1.6h0
		c-0.1,0.5-0.2,1.1-0.4,1.6l-0.5,1.7H-54.4z"/>
	<path d="M-43.6,253.6c0-1-0.1-2.1-0.1-3.3h0c-0.3,1-0.6,2.2-0.9,3.1l-1,3.2h-1.4l-0.9-3.1c-0.3-1-0.5-2.1-0.7-3.2h0
		c0,1.1-0.1,2.3-0.1,3.3l-0.1,3.1h-1.7l0.5-8.1h2.4l0.8,2.7c0.3,0.9,0.5,1.9,0.7,2.9h0c0.2-0.9,0.5-2,0.8-2.9l0.9-2.7h2.4l0.4,8.1
		h-1.8L-43.6,253.6z"/>
	<path d="M-35.5,253.2h-3v1.9h3.3v1.5h-5.2v-8.1h5v1.5h-3.2v1.7h3V253.2z"/>
	<path d="M-33.9,248.7c0.6-0.1,1.5-0.2,2.4-0.2c1.2,0,2,0.2,2.6,0.6c0.5,0.4,0.7,0.9,0.7,1.7c0,1-0.7,1.7-1.4,2v0
		c0.6,0.2,0.9,0.8,1.1,1.5c0.3,0.9,0.5,2,0.7,2.3h-1.9c-0.1-0.2-0.3-0.9-0.6-1.9c-0.2-1-0.6-1.3-1.3-1.3h-0.6v3.2h-1.8V248.7z
		 M-32.1,252.2h0.7c0.9,0,1.5-0.5,1.5-1.2c0-0.7-0.5-1.1-1.3-1.1c-0.4,0-0.7,0-0.8,0.1V252.2z"/>
	<path d="M-24.8,254.6l-0.6,2.1h-1.9l2.5-8.1h2.4l2.5,8.1h-2l-0.6-2.1H-24.8z M-22.8,253.2l-0.5-1.7c-0.1-0.5-0.3-1.1-0.4-1.6h0
		c-0.1,0.5-0.2,1.1-0.4,1.6l-0.5,1.7H-22.8z"/>
</g>
</svg>
