<?xml version="1.0" encoding="utf-8"?>
<!-- Generator: Adobe Illustrator 19.0.0, SVG Export Plug-In . SVG Version: 6.00 Build 0)  -->
<svg version="1.1" id="Capa_1" xmlns="http://www.w3.org/2000/svg" xmlns:xlink="http://www.w3.org/1999/xlink" x="0px" y="0px"
	 viewBox="-49 141 512 512" style="enable-background:new -49 141 512 512;" xml:space="preserve">
<style type="text/css">
	.st0{fill-rule:evenodd;clip-rule:evenodd;fill:#BD2F32;}
	.st1{fill:#FFFFFF;}
</style>
<g id="XMLID_29_">
	<rect id="XMLID_28_" x="-49" y="141" class="st0" width="512" height="512"/>
	<g id="XMLID_30_">
		<rect id="XMLID_31_" x="23.3" y="580.2" class="st1" width="367.3" height="2.1"/>
	</g>
</g>
<g>
	<g>
		<g>
			<path class="st1" d="M420.4,422.6H319.6c-6.1-72.9-56.3-140.4-126.8-150.9c-21.1-3.1-64.2-2.7-85.4,0
				c-75.3,9.6-128.1,85.7-128.1,165.1c0,7.8,6.4,14.2,14.2,14.2h99.6H207h99.6h113.8c7.8,0,14.2-6.4,14.2-14.2
				C434.7,429.1,428.3,422.6,420.4,422.6z"/>
		</g>
	</g>
	<circle class="st1" cx="146.2" cy="269.5" r="10.6"/>
</g>
<g>
	<path d="M180.4,640.8c-2.1,1-6.7,2.2-12.7,2.2c-17.1,0-25.9-10.7-25.9-24.8c0-16.9,12.1-26.3,27-26.3c5.8,0,10.2,1.2,12.2,2.2
		l-2.3,8.9c-2.3-1-5.4-1.8-9.4-1.8c-8.9,0-15.8,5.4-15.8,16.4c0,9.9,5.9,16.2,15.9,16.2c3.4,0,7.1-0.7,9.3-1.6L180.4,640.8z"/>
	<path d="M200,629.5l-3.5,12.7h-11.6l15.1-49.5h14.7l15.4,49.5H218l-3.8-12.7H200z M212.6,621.1l-3.1-10.5c-0.9-2.9-1.8-6.6-2.5-9.6
		h-0.1c-0.7,2.9-1.5,6.7-2.3,9.6l-2.9,10.5H212.6z"/>
	<path d="M236.7,593.3c3.5-0.6,8.3-1,15.1-1c6.9,0,11.8,1.3,15.1,4c3.2,2.5,5.3,6.6,5.3,11.5s-1.6,9-4.6,11.8
		c-3.8,3.6-9.5,5.2-16.1,5.2c-1.5,0-2.8-0.1-3.8-0.2v17.7h-11.1v-49H236.7z M247.8,615.8c1,0.2,2.1,0.3,3.7,0.3c6,0,9.6-3,9.6-8.1
		c0-4.6-3.2-7.3-8.7-7.3c-2.3,0-3.8,0.2-4.6,0.4V615.8z"/>
</g>
<g>
	<path class="st1" d="M174.7,640.8c-2.1,1-6.7,2.2-12.7,2.2c-17.1,0-25.9-10.7-25.9-24.8c0-16.9,12.1-26.3,27-26.3
		c5.8,0,10.2,1.2,12.2,2.2L173,603c-2.3-1-5.4-1.8-9.4-1.8c-8.9,0-15.8,5.4-15.8,16.4c0,9.9,5.9,16.2,15.9,16.2
		c3.4,0,7.1-0.7,9.3-1.6L174.7,640.8z"/>
	<path class="st1" d="M194.3,629.5l-3.5,12.7h-11.6l15.1-49.5H209l15.4,49.5h-12.1l-3.8-12.7H194.3z M206.9,621.1l-3.1-10.5
		c-0.9-2.9-1.8-6.6-2.5-9.6h-0.1c-0.7,2.9-1.5,6.7-2.3,9.6l-2.9,10.5H206.9z"/>
	<path class="st1" d="M231,593.3c3.5-0.6,8.3-1,15.1-1c6.9,0,11.8,1.3,15.1,4c3.2,2.5,5.3,6.6,5.3,11.5s-1.6,9-4.6,11.8
		c-3.8,3.6-9.5,5.2-16.1,5.2c-1.5,0-2.8-0.1-3.8-0.2v17.7h-11.1v-49H231z M242.1,615.8c1,0.2,2.1,0.3,3.7,0.3c6,0,9.6-3,9.6-8.1
		c0-4.6-3.2-7.3-8.7-7.3c-2.3,0-3.8,0.2-4.6,0.4V615.8z"/>
</g>
</svg>
