<?xml version="1.0" encoding="utf-8"?>
<!-- Generator: Adobe Illustrator 19.0.0, SVG Export Plug-In . SVG Version: 6.00 Build 0)  -->
<svg version="1.1" id="Capa_1" xmlns="http://www.w3.org/2000/svg" xmlns:xlink="http://www.w3.org/1999/xlink" x="0px" y="0px"
	 viewBox="112 -40 512 512" style="enable-background:new 112 -40 512 512;" xml:space="preserve">
<g>
	<g>
		<g>
			<g>
				<path d="M581.4,243.7H480.6c-6.1-72.9-56.3-140.4-126.8-150.9c-21.1-3.1-64.2-2.7-85.4,0c-75.3,9.6-128.1,85.7-128.1,165.1
					c0,7.8,6.4,14.2,14.2,14.2h99.6H368h99.6h113.8c7.8,0,14.2-6.4,14.2-14.2C595.7,250.2,589.3,243.7,581.4,243.7z"/>
			</g>
		</g>
		<circle cx="307.2" cy="90.6" r="10.6"/>
	</g>
	<g>
		<path d="M341.4,349.8c-2.1,1-6.7,2.2-12.7,2.2c-17.1,0-25.9-10.7-25.9-24.8c0-16.9,12.1-26.3,27-26.3c5.8,0,10.2,1.2,12.2,2.2
			l-2.3,8.9c-2.3-1-5.4-1.8-9.4-1.8c-8.9,0-15.8,5.4-15.8,16.4c0,9.9,5.9,16.2,15.9,16.2c3.4,0,7.1-0.7,9.3-1.6L341.4,349.8z"/>
		<path d="M361,338.5l-3.5,12.7h-11.6l15.1-49.5h14.7l15.4,49.5H379l-3.8-12.7H361z M373.6,330.1l-3.1-10.5
			c-0.9-2.9-1.8-6.6-2.5-9.6h-0.1c-0.7,2.9-1.5,6.7-2.3,9.6l-2.9,10.5H373.6z"/>
		<path d="M397.7,302.3c3.5-0.6,8.3-1,15.1-1c6.9,0,11.8,1.3,15.1,4c3.2,2.5,5.3,6.6,5.3,11.5c0,4.9-1.6,9-4.6,11.8
			c-3.8,3.6-9.5,5.2-16.1,5.2c-1.5,0-2.8-0.1-3.8-0.2v17.7h-11.1V302.3z M408.8,324.8c1,0.2,2.1,0.3,3.7,0.3c6,0,9.6-3,9.6-8.1
			c0-4.6-3.2-7.3-8.7-7.3c-2.3,0-3.8,0.2-4.6,0.4V324.8z"/>
	</g>
</g>
</svg>
