<?xml version="1.0" encoding="utf-8"?>
<!-- Generator: Adobe Illustrator 19.0.0, SVG Export Plug-In . SVG Version: 6.00 Build 0)  -->
<svg version="1.1" id="Layer_1" xmlns="http://www.w3.org/2000/svg" xmlns:xlink="http://www.w3.org/1999/xlink" x="0px" y="0px"
	 viewBox="34.6 141 512 512" style="enable-background:new 34.6 141 512 512;" xml:space="preserve">
<style type="text/css">
	.st0{fill-rule:evenodd;clip-rule:evenodd;fill:#BD2F32;}
	.st1{fill:#FFFFFF;}
</style>
<g id="XMLID_29_">
	<rect id="XMLID_28_" x="34.6" y="141" class="st0" width="512" height="512"/>
	<g id="XMLID_30_">
		<rect id="XMLID_31_" x="107" y="580.3" class="st1" width="367.3" height="2.1"/>
	</g>
</g>
<g>
	<path class="st1" d="M339.8,224.4c-18.6,0-18.6-6.4-18.6-6.4v-45.8c0,0-216.9,0-226.9,0s-9,11.2-9,11.2s0,0,0,18.3s9,16.3,9,16.3
		l156.4,1c22.4,0,42,29.5,42,29.5s21.5,0,26.3,0c4.5-4.5,3.5-8,3.5-8h17.3L339.8,224.4L339.8,224.4z M154.8,202.3H131
		c-4.8,0-8.3-3.8-8.3-8.3c0-4.8,3.8-8.3,8.3-8.3h23.7c4.8,0,8.3,3.8,8.3,8.3C163.3,198.4,159.4,202.3,154.8,202.3z"/>
	<g id="_477495416">
		<path id="_477496280" class="st1" d="M174.6,397.1l14.1,11.9c1,1,1.3,2.6,0.3,3.5l-9.3,11.2c-1,1-2.6,1.3-3.5,0.3l-14.1-11.8
			c-1-1-1.3-2.6-0.3-3.5l9.3-11.2C171.9,396.5,173.6,396.5,174.6,397.1z"/>
		
			<rect id="_477496424" x="180.1" y="406.5" transform="matrix(0.648 -0.7617 0.7617 0.648 -256.9715 298.7292)" class="st1" width="29.2" height="41.7"/>
		<path id="_477496688" class="st1" d="M177.1,402.9l-9.3,10.9c-0.3,0.3-0.6,0.3-1,0l-2.9-2.2c-0.3-0.3-0.3-0.6,0-1l9.3-10.9
			c0.3-0.3,0.6-0.3,1,0l2.9,2.2C177.1,401.9,177.1,402.6,177.1,402.9L177.1,402.9z"/>
	</g>
	<path class="st1" d="M85.4,202.3H74.2c-4.5,0-8-3.5-8-8s3.5-8.3,8-8.3h11.2 M85.4,202.3L85.4,202.3L85.4,202.3z"/>
	<path class="st1" d="M391.8,532.3c-49,0-119.8-25.6-189.4-92c-2.2-1.9-2.2-5.4-0.3-7.4c1.9-2.2,5.4-2.2,7.4-0.3
		c96.1,91.7,195.8,103.2,227.5,76.3c4.8-4.2,9.3-8.7,13.1-13.8c-2.6,1.3-4.8,2.6-7.4,3.8c-44.2,20.3-95.2,9.4-139.7-29.7
		c-1-1-68.3-72.1-24.4-160.5c16.3-30.1,40.7-50,71.5-57.4c36.5-8.7,77.9,1.9,99.3,17.3c42.9,30.1,59.9,76.3,50.6,137.2
		c-2.2,15.1-7.4,27.9-13.8,38.5c-0.3,1.3-0.6,2.2-1,3.5c12.2-19.5,19.2-43.3,19.2-68.6c0-105.4-41.7-141-165-141
		c-2.9,0-5.4-2.2-5.4-5.4c0-3.2,2.2-5.4,5.4-5.4c127.9,0,175.6,41,175.6,151.6c0,39.1-15.7,75.3-42,99.3
		c-8.3,16.7-18.9,29.5-29.5,38.5C432.8,526.9,414.5,532.3,391.8,532.3L391.8,532.3z M378.3,259c-8.3,0-17,1-25.6,2.9
		c-27.9,6.7-49.4,24-64.4,51.9c-40.7,81.4,19.5,145.2,22.1,147.7c41,35.9,87.5,46.1,127.9,27.9c9.6-4.5,18.6-10.3,26.3-17
		c1-2.2,2.2-4.5,3.2-6.7c-26.9,22.8-64.4,28.2-90.4,24.4c-38.5-5.4-68.9-29.8-85.9-68.6c-22.1-51-11.5-99,30.1-134.9
		c24-20.8,63.1-26,99.3-12.8c36.9,13.5,62.2,42.3,67.9,77.2c1.3,9,2.2,17.3,2.9,25.6c0.3-42.9-16-75.9-48.4-98.7
		C431.5,268.9,406.5,259,378.3,259L378.3,259z M380.8,276.9c-19.9,0-38.5,6.1-51.9,17.6c-48.4,41.7-41.7,89.7-27.2,122.4
		c15.4,35.9,42.3,57.4,77.5,62.5c19.9,2.9,71.1-0.3,97.1-38.8c6.7-26.6,7.7-57,2.6-88.4c-5.1-31-27.9-56.7-60.9-68.8
		C405.5,279.2,392.8,276.9,380.8,276.9L380.8,276.9z"/>
	<path class="st1" d="M492,376.3c0,0,2.9,55.8-18.6,102.5"/>
	<path class="st1" d="M476,440.7c0,0-6.7,36.9-25.6,54.5"/>
</g>
<g>
	<path d="M138.1,632.2c-1.6,0.8-5.3,1.7-10,1.7c-13.4,0-20.4-8.4-20.4-19.5c0-13.3,9.5-20.7,21.2-20.7c4.6,0,8,0.9,9.6,1.7l-1.8,7
		c-1.8-0.8-4.3-1.4-7.4-1.4c-7,0-12.4,4.2-12.4,12.9c0,7.8,4.6,12.7,12.5,12.7c2.7,0,5.6-0.6,7.3-1.3L138.1,632.2z"/>
	<path d="M153.5,623.4l-2.8,10h-9.1l11.9-38.9H165l12.1,38.9h-9.5l-3-10H153.5z M163.3,616.8l-2.4-8.3c-0.7-2.3-1.4-5.2-2-7.5h-0.1
		c-0.6,2.3-1.2,5.3-1.8,7.5l-2.3,8.3H163.3z"/>
	<path d="M182.2,595c2.8-0.5,7-0.8,11.7-0.8c5.8,0,9.8,0.9,12.6,3.1c2.3,1.8,3.6,4.6,3.6,8.1c0,5-3.5,8.4-6.9,9.6v0.2
		c2.7,1.1,4.2,3.7,5.2,7.3c1.2,4.4,2.4,9.5,3.2,11h-9c-0.6-1.2-1.6-4.3-2.7-9.1c-1-4.8-2.7-6.2-6.3-6.2h-2.7v15.1h-8.7L182.2,595
		L182.2,595z M191,611.7h3.5c4.4,0,7-2.2,7-5.6c0-3.6-2.4-5.4-6.5-5.4c-2.1,0-3.3,0.2-4,0.3V611.7z"/>
	<path d="M256.7,632.2c-1.6,0.8-5.3,1.7-10,1.7c-13.4,0-20.4-8.4-20.4-19.5c0-13.3,9.5-20.7,21.2-20.7c4.6,0,8,0.9,9.6,1.7l-1.8,7
		c-1.8-0.8-4.3-1.4-7.4-1.4c-7,0-12.4,4.2-12.4,12.9c0,7.8,4.6,12.7,12.5,12.7c2.7,0,5.6-0.6,7.3-1.3L256.7,632.2z"/>
	<path d="M271.3,594.4v14.9h14.5v-14.9h8.8v38.9h-8.8V617h-14.5v16.3h-8.8v-38.9H271.3z"/>
	<path d="M311.3,623.4l-2.8,10h-9.1l11.9-38.9h11.5l12.1,38.9h-9.5l-3-10H311.3z M321.1,616.8l-2.4-8.3c-0.7-2.3-1.4-5.2-2-7.5h-0.1
		c-0.6,2.3-1.2,5.3-1.8,7.5l-2.3,8.3H321.1z"/>
	<path d="M340.1,595c2.8-0.5,7-0.8,11.7-0.8c5.8,0,9.8,0.9,12.6,3.1c2.3,1.8,3.6,4.6,3.6,8.1c0,5-3.5,8.4-6.9,9.6v0.2
		c2.7,1.1,4.2,3.7,5.2,7.3c1.2,4.4,2.4,9.5,3.2,11h-9c-0.6-1.2-1.6-4.3-2.7-9.1c-1-4.8-2.7-6.2-6.3-6.2h-2.7v15.1h-8.7L340.1,595
		L340.1,595z M348.8,611.7h3.5c4.4,0,7-2.2,7-5.6c0-3.6-2.4-5.4-6.5-5.4c-2.1,0-3.3,0.2-4,0.3V611.7z"/>
	<path d="M406.5,631.6c-2.7,0.9-7.8,2.2-13,2.2c-7.1,0-12.2-1.8-15.8-5.3c-3.6-3.3-5.5-8.4-5.5-14.1c0.1-12.9,9.5-20.3,22.2-20.3
		c5,0,8.9,1,10.8,1.9l-1.8,7c-2.1-0.9-4.8-1.7-9.1-1.7c-7.3,0-12.9,4.2-12.9,12.6c0,8,5,12.8,12.2,12.8c2,0,3.6-0.2,4.3-0.6V618h-6
		v-6.9h14.6V631.6z"/>
	<path d="M436.5,616.9h-14.3v9.2h16v7.2h-24.8v-38.9h24v7.2h-15.2v8.1h14.3V616.9z"/>
	<path d="M444.2,595c2.8-0.5,7-0.8,11.7-0.8c5.8,0,9.8,0.9,12.6,3.1c2.3,1.8,3.6,4.6,3.6,8.1c0,5-3.5,8.4-6.9,9.6v0.2
		c2.7,1.1,4.2,3.7,5.2,7.3c1.2,4.4,2.4,9.5,3.2,11h-9c-0.6-1.2-1.6-4.3-2.7-9.1c-1-4.8-2.7-6.2-6.3-6.2h-2.7v15.1h-8.7L444.2,595
		L444.2,595z M452.9,611.7h3.5c4.4,0,7-2.2,7-5.6c0-3.6-2.4-5.4-6.5-5.4c-2.1,0-3.3,0.2-4,0.3V611.7z"/>
</g>
<g>
	<path class="st1" d="M132.4,632.2c-1.6,0.8-5.3,1.7-10,1.7c-13.4,0-20.4-8.4-20.4-19.5c0-13.3,9.5-20.7,21.2-20.7
		c4.6,0,8,0.9,9.6,1.7l-1.8,7c-1.8-0.8-4.3-1.4-7.4-1.4c-7,0-12.4,4.2-12.4,12.9c0,7.8,4.6,12.7,12.5,12.7c2.7,0,5.6-0.6,7.3-1.3
		L132.4,632.2z"/>
	<path class="st1" d="M147.8,623.4l-2.8,10h-9.1l11.9-38.9h11.5l12.1,38.9h-9.5l-3-10H147.8z M157.6,616.8l-2.4-8.3
		c-0.7-2.3-1.4-5.2-2-7.5h-0.1c-0.6,2.3-1.2,5.3-1.8,7.5l-2.3,8.3H157.6z"/>
	<path class="st1" d="M176.5,595c2.8-0.5,7-0.8,11.7-0.8c5.8,0,9.8,0.9,12.6,3.1c2.3,1.8,3.6,4.6,3.6,8.1c0,5-3.5,8.4-6.9,9.6v0.2
		c2.7,1.1,4.2,3.7,5.2,7.3c1.2,4.4,2.4,9.5,3.2,11h-9c-0.6-1.2-1.6-4.3-2.7-9.1c-1-4.8-2.7-6.2-6.3-6.2h-2.7v15.1h-8.7L176.5,595
		L176.5,595z M185.3,611.7h3.5c4.4,0,7-2.2,7-5.6c0-3.6-2.4-5.4-6.5-5.4c-2.1,0-3.3,0.2-4,0.3V611.7z"/>
	<path class="st1" d="M251,632.2c-1.6,0.8-5.3,1.7-10,1.7c-13.4,0-20.4-8.4-20.4-19.5c0-13.3,9.5-20.7,21.2-20.7
		c4.6,0,8,0.9,9.6,1.7l-1.8,7c-1.8-0.8-4.3-1.4-7.4-1.4c-7,0-12.4,4.2-12.4,12.9c0,7.8,4.6,12.7,12.5,12.7c2.7,0,5.6-0.6,7.3-1.3
		L251,632.2z"/>
	<path class="st1" d="M265.6,594.4v14.9h14.5v-14.9h8.8v38.9h-8.8V617h-14.5v16.3h-8.8v-38.9H265.6z"/>
	<path class="st1" d="M305.6,623.4l-2.8,10h-9.1l11.9-38.9h11.5l12.1,38.9h-9.5l-3-10H305.6z M315.4,616.8l-2.4-8.3
		c-0.7-2.3-1.4-5.2-2-7.5h-0.1c-0.6,2.3-1.2,5.3-1.8,7.5l-2.3,8.3H315.4z"/>
	<path class="st1" d="M334.4,595c2.8-0.5,7-0.8,11.7-0.8c5.8,0,9.8,0.9,12.6,3.1c2.3,1.8,3.6,4.6,3.6,8.1c0,5-3.5,8.4-6.9,9.6v0.2
		c2.7,1.1,4.2,3.7,5.2,7.3c1.2,4.4,2.4,9.5,3.2,11h-9c-0.6-1.2-1.6-4.3-2.7-9.1c-1-4.8-2.7-6.2-6.3-6.2h-2.7v15.1h-8.7L334.4,595
		L334.4,595z M343.1,611.7h3.5c4.4,0,7-2.2,7-5.6c0-3.6-2.4-5.4-6.5-5.4c-2.1,0-3.3,0.2-4,0.3V611.7z"/>
	<path class="st1" d="M400.8,631.6c-2.7,0.9-7.8,2.2-13,2.2c-7.1,0-12.2-1.8-15.8-5.3c-3.6-3.3-5.5-8.4-5.5-14.1
		c0.1-12.9,9.5-20.3,22.2-20.3c5,0,8.9,1,10.8,1.9l-1.8,7c-2.1-0.9-4.8-1.7-9.1-1.7c-7.3,0-12.9,4.2-12.9,12.6c0,8,5,12.8,12.2,12.8
		c2,0,3.6-0.2,4.3-0.6V618h-6v-6.9h14.6V631.6z"/>
	<path class="st1" d="M430.8,616.9h-14.3v9.2h16v7.2h-24.8v-38.9h24v7.2h-15.2v8.1h14.3V616.9z"/>
	<path class="st1" d="M438.5,595c2.8-0.5,7-0.8,11.7-0.8c5.8,0,9.8,0.9,12.6,3.1c2.3,1.8,3.6,4.6,3.6,8.1c0,5-3.5,8.4-6.9,9.6v0.2
		c2.7,1.1,4.2,3.7,5.2,7.3c1.2,4.4,2.4,9.5,3.2,11h-9c-0.6-1.2-1.6-4.3-2.7-9.1c-1-4.8-2.7-6.2-6.3-6.2h-2.7v15.1h-8.7L438.5,595
		L438.5,595z M447.2,611.7h3.5c4.4,0,7-2.2,7-5.6c0-3.6-2.4-5.4-6.5-5.4c-2.1,0-3.3,0.2-4,0.3V611.7z"/>
</g>
</svg>
