<?xml version="1.0" encoding="utf-8"?>
<!-- Generator: Adobe Illustrator 19.0.0, SVG Export Plug-In . SVG Version: 6.00 Build 0)  -->
<svg version="1.1" id="Layer_1" xmlns="http://www.w3.org/2000/svg" xmlns:xlink="http://www.w3.org/1999/xlink" x="0px" y="0px"
	 viewBox="-7 119.1 595.3 555.9" style="enable-background:new -7 119.1 595.3 555.9;" xml:space="preserve">
<style type="text/css">
	.st0{fill:#2B2A29;}
	.st1{fill:none;}
</style>
<g>
	<path class="st0" d="M339.8,269.2c-18.6,0-18.6-6.4-18.6-6.4V217c0,0-216.9,0-226.9,0s-9,11.2-9,11.2s0,0,0,18.3s9,16.3,9,16.3
		l156.4,1c22.4,0,42,29.5,42,29.5s21.5,0,26.3,0c4.5-4.5,3.5-8,3.5-8h17.3V269.2z M154.7,247.1h-23.7c-4.8,0-8.3-3.8-8.3-8.3
		c0-4.8,3.8-8.3,8.3-8.3h23.7c4.8,0,8.3,3.8,8.3,8.3C163.3,243.2,159.4,247.1,154.7,247.1z"/>
	<g id="_477495416">
		<path id="_477496280" class="st0" d="M174.6,441.9l14.1,11.9c1,1,1.3,2.6,0.3,3.5l-9.3,11.2c-1,1-2.6,1.3-3.5,0.3L162.1,457
			c-1-1-1.3-2.6-0.3-3.5l9.3-11.2C171.9,441.3,173.6,441.3,174.6,441.9z"/>
		
			<rect id="_477496424" x="180" y="451.3" transform="matrix(0.648 -0.7617 0.7617 0.648 -291.096 314.4449)" class="st0" width="29.2" height="41.7"/>
		<path id="_477496688" class="st0" d="M177.1,447.7l-9.3,10.9c-0.3,0.3-0.6,0.3-1,0l-2.9-2.2c-0.3-0.3-0.3-0.6,0-1l9.3-10.9
			c0.3-0.3,0.6-0.3,1,0l2.9,2.2C177.1,446.7,177.1,447.4,177.1,447.7L177.1,447.7z"/>
	</g>
	<path class="st0" d="M85.4,247.1H74.2c-4.5,0-8-3.5-8-8s3.5-8.3,8-8.3h11.2 M85.4,247.1L85.4,247.1L85.4,247.1z"/>
	<path class="st0" d="M391.8,577.1c-49,0-119.8-25.6-189.4-92c-2.2-1.9-2.2-5.4-0.3-7.4c1.9-2.2,5.4-2.2,7.4-0.3
		c96.1,91.7,195.8,103.2,227.5,76.3c4.8-4.2,9.3-8.7,13.1-13.8c-2.6,1.3-4.8,2.6-7.4,3.8C398.5,564,347.5,553.1,303,514
		c-1-1-68.3-72.1-24.4-160.5c16.3-30.1,40.7-50,71.5-57.4c36.5-8.7,77.9,1.9,99.3,17.3c42.9,30.1,59.9,76.3,50.6,137.2
		c-2.2,15.1-7.4,27.9-13.8,38.5c-0.3,1.3-0.6,2.2-1,3.5c12.2-19.5,19.2-43.3,19.2-68.6c0-105.4-41.7-141-165-141
		c-2.9,0-5.4-2.2-5.4-5.4s2.2-5.4,5.4-5.4c127.9,0,175.6,41,175.6,151.6c0,39.1-15.7,75.3-42,99.3c-8.3,16.7-18.9,29.5-29.5,38.5
		C432.8,571.7,414.5,577.1,391.8,577.1L391.8,577.1z M378.3,303.8c-8.3,0-17,1-25.6,2.9c-27.9,6.7-49.4,24-64.4,51.9
		c-40.7,81.4,19.5,145.2,22.1,147.7c41,35.9,87.5,46.1,127.9,27.9c9.6-4.5,18.6-10.3,26.3-17c1-2.2,2.2-4.5,3.2-6.7
		c-26.9,22.8-64.4,28.2-90.4,24.4c-38.5-5.4-68.9-29.8-85.9-68.6c-22.1-51-11.5-99,30.1-134.9c24-20.8,63.1-26,99.3-12.8
		c36.9,13.5,62.2,42.3,67.9,77.2c1.3,9,2.2,17.3,2.9,25.6c0.3-42.9-16-75.9-48.4-98.7C431.5,313.7,406.5,303.8,378.3,303.8
		L378.3,303.8z M380.8,321.7c-19.9,0-38.5,6.1-51.9,17.6c-48.4,41.7-41.7,89.7-27.2,122.4c15.4,35.9,42.3,57.4,77.5,62.5
		c19.9,2.9,71.1-0.3,97.1-38.8c6.7-26.6,7.7-57,2.6-88.4c-5.1-31-27.9-56.7-60.9-68.8C405.5,324,392.8,321.7,380.8,321.7
		L380.8,321.7z"/>
	<path class="st1" d="M492,421.1c0,0,2.9,55.8-18.6,102.5"/>
	<path class="st1" d="M476,485.5c0,0-6.7,36.9-25.6,54.5"/>
</g>
</svg>
