<?xml version="1.0" encoding="utf-8"?>
<!-- Generator: Adobe Illustrator 19.0.0, SVG Export Plug-In . SVG Version: 6.00 Build 0)  -->
<svg version="1.1" id="Layer_1" xmlns="http://www.w3.org/2000/svg" xmlns:xlink="http://www.w3.org/1999/xlink" x="0px" y="0px"
	 viewBox="154 -61.9 595.3 555.9" style="enable-background:new 154 -61.9 595.3 555.9;" xml:space="preserve">
<style type="text/css">
	.st0{fill:#2B2A29;}
	.st1{fill:none;}
</style>
<g>
	<path class="st0" d="M500.8,54.1c-18.6,0-18.6-6.4-18.6-6.4V1.9c0,0-216.9,0-226.9,0c-10,0-9,11.2-9,11.2s0,0,0,18.3s9,16.3,9,16.3
		l156.4,1c22.4,0,42,29.5,42,29.5s21.5,0,26.3,0c4.5-4.5,3.5-8,3.5-8h17.3L500.8,54.1L500.8,54.1z M315.7,32H292
		c-4.8,0-8.3-3.8-8.3-8.3c0-4.8,3.8-8.3,8.3-8.3h23.7c4.8,0,8.3,3.8,8.3,8.3C324.3,28.1,320.4,32,315.7,32z"/>
	<g id="_477495416">
		<path id="_477496280" class="st0" d="M335.6,226.8l14.1,11.9c1,1,1.3,2.6,0.3,3.5l-9.3,11.2c-1,1-2.6,1.3-3.5,0.3l-14.1-11.8
			c-1-1-1.3-2.6-0.3-3.5l9.3-11.2C332.9,226.2,334.6,226.2,335.6,226.8z"/>
		
			<rect id="_477496424" x="341.1" y="236.3" transform="matrix(-0.648 0.7617 -0.7617 -0.648 782.0005 152.7915)" class="st0" width="29.2" height="41.7"/>
		<path id="_477496688" class="st0" d="M338.1,232.6l-9.3,10.9c-0.3,0.3-0.6,0.3-1,0l-2.9-2.2c-0.3-0.3-0.3-0.6,0-1l9.3-10.9
			c0.3-0.3,0.6-0.3,1,0l2.9,2.2C338.1,231.6,338.1,232.3,338.1,232.6L338.1,232.6z"/>
	</g>
	<path class="st0" d="M246.4,32h-11.2c-4.5,0-8-3.5-8-8s3.5-8.3,8-8.3h11.2 M246.4,32L246.4,32L246.4,32z"/>
	<path class="st0" d="M552.8,362c-49,0-119.8-25.6-189.4-92c-2.2-1.9-2.2-5.4-0.3-7.4c1.9-2.2,5.4-2.2,7.4-0.3
		C466.6,354,566.3,365.5,598,338.6c4.8-4.2,9.3-8.7,13.1-13.8c-2.6,1.3-4.8,2.6-7.4,3.8c-44.2,20.3-95.2,9.4-139.7-29.7
		c-1-1-68.3-72.1-24.4-160.5c16.3-30.1,40.7-50,71.5-57.4c36.5-8.7,77.9,1.9,99.3,17.3c42.9,30.1,59.9,76.3,50.6,137.2
		c-2.2,15.1-7.4,27.9-13.8,38.5c-0.3,1.3-0.6,2.2-1,3.5c12.2-19.5,19.2-43.3,19.2-68.6c0-105.4-41.7-141-165-141
		c-2.9,0-5.4-2.2-5.4-5.4s2.2-5.4,5.4-5.4c127.9,0,175.6,41,175.6,151.6c0,39.1-15.7,75.3-42,99.3c-8.3,16.7-18.9,29.5-29.5,38.5
		C593.8,356.6,575.5,362,552.8,362L552.8,362z M539.3,88.7c-8.3,0-17,1-25.6,2.9c-27.9,6.7-49.4,24-64.4,51.9
		c-40.7,81.4,19.5,145.2,22.1,147.7c41,35.9,87.5,46.1,127.9,27.9c9.6-4.5,18.6-10.3,26.3-17c1-2.2,2.2-4.5,3.2-6.7
		c-26.9,22.8-64.4,28.2-90.4,24.4c-38.5-5.4-68.9-29.8-85.9-68.6c-22.1-51-11.5-99,30.1-134.9c24-20.8,63.1-26,99.3-12.8
		c36.9,13.5,62.2,42.3,67.9,77.2c1.3,9,2.2,17.3,2.9,25.6c0.3-42.9-16-75.9-48.4-98.7C592.5,98.6,567.5,88.7,539.3,88.7L539.3,88.7z
		 M541.8,106.6c-19.9,0-38.5,6.1-51.9,17.6c-48.4,41.7-41.7,89.7-27.2,122.4c15.4,35.9,42.3,57.4,77.5,62.5
		c19.9,2.9,71.1-0.3,97.1-38.8c6.7-26.6,7.7-57,2.6-88.4c-5.1-31-27.9-56.7-60.9-68.8C566.5,108.9,553.8,106.6,541.8,106.6
		L541.8,106.6z"/>
	<path class="st1" d="M653,206c0,0,2.9,55.8-18.6,102.5"/>
	<path class="st1" d="M637,270.4c0,0-6.7,36.9-25.6,54.5"/>
</g>
<g>
	<path d="M299.6,447.9c-1.6,0.8-5.3,1.7-10,1.7c-13.4,0-20.4-8.4-20.4-19.5c0-13.3,9.5-20.7,21.2-20.7c4.6,0,8,0.9,9.6,1.7l-1.8,7
		c-1.8-0.8-4.3-1.4-7.4-1.4c-7,0-12.4,4.2-12.4,12.9c0,7.8,4.6,12.7,12.5,12.7c2.7,0,5.6-0.6,7.3-1.3L299.6,447.9z"/>
	<path d="M315,439.1l-2.8,10h-9.1l11.9-38.9h11.5l12.1,38.9h-9.5l-3-10H315z M324.8,432.5l-2.4-8.3c-0.7-2.3-1.4-5.2-2-7.5h-0.1
		c-0.6,2.3-1.2,5.3-1.8,7.5l-2.3,8.3H324.8z"/>
	<path d="M343.7,410.7c2.8-0.5,7-0.8,11.7-0.8c5.8,0,9.8,0.9,12.6,3.1c2.3,1.8,3.6,4.6,3.6,8.1c0,5-3.5,8.4-6.9,9.6v0.2
		c2.7,1.1,4.2,3.7,5.2,7.3c1.2,4.4,2.4,9.5,3.2,11h-9c-0.6-1.2-1.6-4.3-2.7-9.1c-1-4.8-2.7-6.2-6.3-6.2h-2.7V449h-8.7V410.7z
		 M352.5,427.4h3.5c4.4,0,7-2.2,7-5.6c0-3.6-2.4-5.4-6.5-5.4c-2.1,0-3.3,0.2-4,0.3V427.4z"/>
	<path d="M418.2,447.9c-1.6,0.8-5.3,1.7-10,1.7c-13.4,0-20.4-8.4-20.4-19.5c0-13.3,9.5-20.7,21.2-20.7c4.6,0,8,0.9,9.6,1.7l-1.8,7
		c-1.8-0.8-4.3-1.4-7.4-1.4c-7,0-12.4,4.2-12.4,12.9c0,7.8,4.6,12.7,12.5,12.7c2.7,0,5.6-0.6,7.3-1.3L418.2,447.9z"/>
	<path d="M432.8,410.1v14.9h14.5v-14.9h8.8V449h-8.8v-16.3h-14.5V449H424v-38.9H432.8z"/>
	<path d="M472.8,439.1l-2.8,10h-9.1l11.9-38.9h11.5l12.1,38.9h-9.5l-3-10H472.8z M482.6,432.5l-2.4-8.3c-0.7-2.3-1.4-5.2-2-7.5h-0.1
		c-0.6,2.3-1.2,5.3-1.8,7.5l-2.3,8.3H482.6z"/>
	<path d="M501.6,410.7c2.8-0.5,7-0.8,11.7-0.8c5.8,0,9.8,0.9,12.6,3.1c2.3,1.8,3.6,4.6,3.6,8.1c0,5-3.5,8.4-6.9,9.6v0.2
		c2.7,1.1,4.2,3.7,5.2,7.3c1.2,4.4,2.4,9.5,3.2,11h-9c-0.6-1.2-1.6-4.3-2.7-9.1c-1-4.8-2.7-6.2-6.3-6.2h-2.7V449h-8.7V410.7z
		 M510.3,427.4h3.5c4.4,0,7-2.2,7-5.6c0-3.6-2.4-5.4-6.5-5.4c-2.1,0-3.3,0.2-4,0.3V427.4z"/>
	<path d="M568,447.3c-2.7,0.9-7.8,2.2-13,2.2c-7.1,0-12.2-1.8-15.8-5.3c-3.6-3.3-5.5-8.4-5.5-14.1c0.1-12.9,9.5-20.3,22.2-20.3
		c5,0,8.9,1,10.8,1.9l-1.8,7c-2.1-0.9-4.8-1.7-9.1-1.7c-7.3,0-12.9,4.2-12.9,12.6c0,8,5,12.8,12.2,12.8c2,0,3.6-0.2,4.3-0.6v-8.1h-6
		v-6.9H568V447.3z"/>
	<path d="M598,432.6h-14.3v9.2h16v7.2h-24.8v-38.9h24v7.2h-15.2v8.1H598V432.6z"/>
	<path d="M605.7,410.7c2.8-0.5,7-0.8,11.7-0.8c5.8,0,9.8,0.9,12.6,3.1c2.3,1.8,3.6,4.6,3.6,8.1c0,5-3.5,8.4-6.9,9.6v0.2
		c2.7,1.1,4.2,3.7,5.2,7.3c1.2,4.4,2.4,9.5,3.2,11h-9c-0.6-1.2-1.6-4.3-2.7-9.1c-1-4.8-2.7-6.2-6.3-6.2h-2.7V449h-8.7V410.7z
		 M614.4,427.4h3.5c4.4,0,7-2.2,7-5.6c0-3.6-2.4-5.4-6.5-5.4c-2.1,0-3.3,0.2-4,0.3V427.4z"/>
</g>
</svg>
