<?xml version="1.0" encoding="utf-8"?>
<!-- Generator: Adobe Illustrator 19.0.0, SVG Export Plug-In . SVG Version: 6.00 Build 0)  -->
<svg version="1.1" id="Layer_1" xmlns="http://www.w3.org/2000/svg" xmlns:xlink="http://www.w3.org/1999/xlink" x="0px" y="0px"
	 viewBox="-49 141 512 512" style="enable-background:new -49 141 512 512;" xml:space="preserve">
<style type="text/css">
	.st0{fill:#BD3334;}
	.st1{fill:#FFFFFF;}
</style>
<rect id="XMLID_28_" x="-49" y="141" class="st0" width="512" height="512"/>
<g id="XMLID_30_">
	<rect id="XMLID_31_" x="23.3" y="580.2" class="st1" width="367.3" height="2.1"/>
</g>
<g>
	<path d="M-3.4,624.5l6.8,2.2c-1,3.8-2.8,6.6-5.2,8.5c-2.4,1.9-5.5,2.8-9.3,2.8c-4.6,0-8.5-1.6-11.4-4.8c-3-3.2-4.5-7.5-4.5-13
		c0-5.8,1.5-10.3,4.5-13.5c3-3.2,6.9-4.8,11.8-4.8c4.3,0,7.7,1.3,10.4,3.8c1.6,1.5,2.8,3.6,3.6,6.4l-7,1.7c-0.4-1.8-1.3-3.2-2.6-4.3
		c-1.3-1-2.9-1.6-4.8-1.6c-2.6,0-4.7,0.9-6.3,2.8c-1.6,1.9-2.4,4.9-2.4,9c0,4.4,0.8,7.6,2.4,9.4c1.6,1.9,3.7,2.8,6.2,2.8
		c1.9,0,3.5-0.6,4.8-1.8S-4,627-3.4,624.5z"/>
	<path d="M41,637.3h-7.7l-3.1-7.9h-14l-2.9,7.9H5.9l13.6-34.9H27L41,637.3z M28,623.5l-4.8-13l-4.7,13H28z"/>
	<path d="M44.8,637.3v-34.9h14.8c3.7,0,6.4,0.3,8.1,0.9c1.7,0.6,3,1.7,4.1,3.3c1,1.6,1.5,3.4,1.5,5.5c0,2.6-0.8,4.8-2.3,6.5
		c-1.5,1.7-3.8,2.8-6.9,3.2c1.5,0.9,2.8,1.9,3.8,2.9s2.3,3,4,5.7l4.3,6.8h-8.4l-5.1-7.6c-1.8-2.7-3.1-4.4-3.7-5.1
		c-0.7-0.7-1.4-1.2-2.1-1.5c-0.7-0.3-1.9-0.4-3.6-0.4h-1.4v14.6H44.8z M51.8,617.2H57c3.4,0,5.5-0.1,6.3-0.4c0.8-0.3,1.5-0.8,2-1.5
		c0.5-0.7,0.7-1.6,0.7-2.6c0-1.2-0.3-2.1-0.9-2.8c-0.6-0.7-1.5-1.2-2.7-1.4c-0.6-0.1-2.3-0.1-5.1-0.1h-5.5V617.2z"/>
	<path d="M123.2,637.3h-7.7l-3.1-7.9h-14l-2.9,7.9h-7.5l13.6-34.9h7.5L123.2,637.3z M110.2,623.5l-4.8-13l-4.7,13H110.2z"/>
	<path d="M149.3,624.5l6.8,2.2c-1,3.8-2.8,6.6-5.2,8.5c-2.4,1.9-5.5,2.8-9.3,2.8c-4.6,0-8.5-1.6-11.4-4.8c-3-3.2-4.5-7.5-4.5-13
		c0-5.8,1.5-10.3,4.5-13.5c3-3.2,6.9-4.8,11.8-4.8c4.3,0,7.7,1.3,10.4,3.8c1.6,1.5,2.8,3.6,3.6,6.4l-7,1.7c-0.4-1.8-1.3-3.2-2.6-4.3
		c-1.3-1-2.9-1.6-4.8-1.6c-2.6,0-4.7,0.9-6.3,2.8c-1.6,1.9-2.4,4.9-2.4,9c0,4.4,0.8,7.6,2.4,9.4c1.6,1.9,3.7,2.8,6.2,2.8
		c1.9,0,3.5-0.6,4.8-1.8C147.8,628.9,148.7,627,149.3,624.5z"/>
	<path d="M184.6,624.5l6.8,2.2c-1,3.8-2.8,6.6-5.2,8.5c-2.4,1.9-5.5,2.8-9.3,2.8c-4.6,0-8.5-1.6-11.4-4.8c-3-3.2-4.5-7.5-4.5-13
		c0-5.8,1.5-10.3,4.5-13.5c3-3.2,6.9-4.8,11.8-4.8c4.3,0,7.7,1.3,10.4,3.8c1.6,1.5,2.8,3.6,3.6,6.4l-7,1.7c-0.4-1.8-1.3-3.2-2.6-4.3
		c-1.3-1-2.9-1.6-4.8-1.6c-2.6,0-4.7,0.9-6.3,2.8c-1.6,1.9-2.4,4.9-2.4,9c0,4.4,0.8,7.6,2.4,9.4c1.6,1.9,3.7,2.8,6.2,2.8
		c1.9,0,3.5-0.6,4.8-1.8C183,628.9,184,627,184.6,624.5z"/>
	<path d="M197.4,637.3v-34.9h25.9v5.9h-18.8v7.7H222v5.9h-17.5v9.5H224v5.9H197.4z"/>
	<path d="M228.2,626l6.9-0.7c0.4,2.3,1.3,4,2.5,5.1c1.3,1.1,3,1.6,5.1,1.6c2.3,0,4-0.5,5.1-1.4c1.2-1,1.7-2.1,1.7-3.4
		c0-0.8-0.2-1.5-0.7-2.1c-0.5-0.6-1.3-1.1-2.5-1.5c-0.8-0.3-2.7-0.8-5.6-1.5c-3.8-0.9-6.4-2.1-8-3.5c-2.1-1.9-3.2-4.3-3.2-7
		c0-1.8,0.5-3.4,1.5-5c1-1.5,2.5-2.7,4.4-3.5c1.9-0.8,4.2-1.2,6.9-1.2c4.4,0,7.7,1,9.9,2.9c2.2,1.9,3.4,4.5,3.5,7.7l-7.1,0.3
		c-0.3-1.8-1-3.1-1.9-3.9c-1-0.8-2.5-1.2-4.5-1.2c-2,0-3.7,0.4-4.8,1.3c-0.7,0.5-1.1,1.3-1.1,2.2c0,0.8,0.3,1.5,1,2.1
		c0.9,0.7,3,1.5,6.5,2.3c3.4,0.8,6,1.6,7.6,2.5c1.6,0.9,2.9,2,3.9,3.6s1.4,3.4,1.4,5.6c0,2-0.6,3.9-1.7,5.6c-1.1,1.7-2.7,3-4.7,3.9
		c-2,0.8-4.6,1.3-7.6,1.3c-4.4,0-7.8-1-10.2-3.1S228.7,629.9,228.2,626z"/>
	<path d="M260.7,626l6.9-0.7c0.4,2.3,1.3,4,2.5,5.1c1.3,1.1,3,1.6,5.1,1.6c2.3,0,4-0.5,5.1-1.4c1.2-1,1.7-2.1,1.7-3.4
		c0-0.8-0.2-1.5-0.7-2.1s-1.3-1.1-2.5-1.5c-0.8-0.3-2.7-0.8-5.6-1.5c-3.8-0.9-6.4-2.1-8-3.5c-2.1-1.9-3.2-4.3-3.2-7
		c0-1.8,0.5-3.4,1.5-5c1-1.5,2.5-2.7,4.4-3.5c1.9-0.8,4.2-1.2,6.9-1.2c4.4,0,7.7,1,9.9,2.9c2.2,1.9,3.4,4.5,3.5,7.7l-7.1,0.3
		c-0.3-1.8-1-3.1-1.9-3.9c-1-0.8-2.5-1.2-4.5-1.2c-2,0-3.7,0.4-4.8,1.3c-0.7,0.5-1.1,1.3-1.1,2.2c0,0.8,0.3,1.5,1,2.1
		c0.9,0.7,3,1.5,6.5,2.3c3.4,0.8,6,1.6,7.6,2.5c1.6,0.9,2.9,2,3.9,3.6c0.9,1.5,1.4,3.4,1.4,5.6c0,2-0.6,3.9-1.7,5.6
		c-1.1,1.7-2.7,3-4.7,3.9c-2,0.8-4.6,1.3-7.6,1.3c-4.4,0-7.8-1-10.2-3.1S261.2,629.9,260.7,626z"/>
	<path d="M293.7,620.1c0-3.6,0.5-6.5,1.6-9c0.8-1.8,1.9-3.4,3.3-4.8c1.4-1.4,2.9-2.5,4.5-3.1c2.2-0.9,4.7-1.4,7.5-1.4
		c5.1,0,9.3,1.6,12.4,4.8c3.1,3.2,4.6,7.6,4.6,13.3c0,5.6-1.5,10.1-4.6,13.2c-3.1,3.2-7.2,4.8-12.3,4.8c-5.2,0-9.3-1.6-12.4-4.8
		C295.2,630,293.7,625.6,293.7,620.1z M300.9,619.8c0,4,0.9,7,2.7,9c1.8,2,4.1,3.1,7,3.1c2.8,0,5.1-1,6.9-3s2.7-5.1,2.7-9.1
		c0-4-0.9-7-2.6-9c-1.8-2-4.1-3-7-3s-5.3,1-7,3S300.9,615.8,300.9,619.8z"/>
	<path d="M333.1,637.3v-34.9h14.8c3.7,0,6.4,0.3,8.1,0.9c1.7,0.6,3,1.7,4.1,3.3c1,1.6,1.5,3.4,1.5,5.5c0,2.6-0.8,4.8-2.3,6.5
		c-1.5,1.7-3.8,2.8-6.9,3.2c1.5,0.9,2.8,1.9,3.8,2.9s2.3,3,4,5.7l4.3,6.8H356l-5.1-7.6c-1.8-2.7-3-4.4-3.7-5.1
		c-0.7-0.7-1.4-1.2-2.1-1.5c-0.7-0.3-1.9-0.4-3.6-0.4h-1.4v14.6H333.1z M340.1,617.2h5.2c3.4,0,5.5-0.1,6.3-0.4
		c0.8-0.3,1.5-0.8,2-1.5c0.5-0.7,0.7-1.6,0.7-2.6c0-1.2-0.3-2.1-0.9-2.8c-0.6-0.7-1.5-1.2-2.7-1.4c-0.6-0.1-2.3-0.1-5.1-0.1h-5.5
		V617.2z"/>
	<path d="M368.1,637.3v-34.9h7.1v34.9H368.1z"/>
	<path d="M381.8,637.3v-34.9h25.9v5.9h-18.8v7.7h17.5v5.9h-17.5v9.5h19.5v5.9H381.8z"/>
	<path d="M412.6,626l6.9-0.7c0.4,2.3,1.3,4,2.5,5.1c1.3,1.1,3,1.6,5.1,1.6c2.3,0,4-0.5,5.1-1.4c1.2-1,1.7-2.1,1.7-3.4
		c0-0.8-0.2-1.5-0.7-2.1s-1.3-1.1-2.5-1.5c-0.8-0.3-2.7-0.8-5.6-1.5c-3.8-0.9-6.4-2.1-8-3.5c-2.1-1.9-3.2-4.3-3.2-7
		c0-1.8,0.5-3.4,1.5-5c1-1.5,2.5-2.7,4.4-3.5c1.9-0.8,4.2-1.2,6.9-1.2c4.4,0,7.7,1,9.9,2.9c2.2,1.9,3.4,4.5,3.5,7.7l-7.1,0.3
		c-0.3-1.8-1-3.1-1.9-3.9c-1-0.8-2.5-1.2-4.5-1.2c-2,0-3.7,0.4-4.8,1.3c-0.7,0.5-1.1,1.3-1.1,2.2c0,0.8,0.3,1.5,1,2.1
		c0.9,0.7,3,1.5,6.5,2.3c3.4,0.8,6,1.6,7.6,2.5c1.6,0.9,2.9,2,3.9,3.6c0.9,1.5,1.4,3.4,1.4,5.6c0,2-0.6,3.9-1.7,5.6
		c-1.1,1.7-2.7,3-4.7,3.9c-2,0.8-4.6,1.3-7.6,1.3c-4.4,0-7.8-1-10.2-3.1S413.1,629.9,412.6,626z"/>
</g>
<g>
	<path class="st1" d="M-4.5,624.5l6.8,2.2c-1,3.8-2.8,6.6-5.2,8.5c-2.4,1.9-5.5,2.8-9.3,2.8c-4.6,0-8.5-1.6-11.4-4.8
		c-3-3.2-4.5-7.5-4.5-13c0-5.8,1.5-10.3,4.5-13.5c3-3.2,6.9-4.8,11.8-4.8c4.3,0,7.7,1.3,10.4,3.8c1.6,1.5,2.8,3.6,3.6,6.4l-7,1.7
		c-0.4-1.8-1.3-3.2-2.6-4.3c-1.3-1-2.9-1.6-4.8-1.6c-2.6,0-4.7,0.9-6.3,2.8c-1.6,1.9-2.4,4.9-2.4,9c0,4.4,0.8,7.6,2.4,9.4
		c1.6,1.9,3.7,2.8,6.2,2.8c1.9,0,3.5-0.6,4.8-1.8S-5.1,627-4.5,624.5z"/>
	<path class="st1" d="M39.9,637.3h-7.7l-3.1-7.9h-14l-2.9,7.9H4.9l13.6-34.9h7.5L39.9,637.3z M26.9,623.5l-4.8-13l-4.7,13H26.9z"/>
	<path class="st1" d="M43.7,637.3v-34.9h14.8c3.7,0,6.4,0.3,8.1,0.9c1.7,0.6,3,1.7,4.1,3.3c1,1.6,1.5,3.4,1.5,5.5
		c0,2.6-0.8,4.8-2.3,6.5c-1.5,1.7-3.8,2.8-6.9,3.2c1.5,0.9,2.8,1.9,3.8,2.9c1,1.1,2.3,3,4,5.7l4.3,6.8h-8.4l-5.1-7.6
		c-1.8-2.7-3.1-4.4-3.7-5.1c-0.7-0.7-1.4-1.2-2.1-1.5c-0.7-0.3-1.9-0.4-3.6-0.4h-1.4v14.6H43.7z M50.7,617.2h5.2
		c3.4,0,5.5-0.1,6.3-0.4c0.8-0.3,1.5-0.8,2-1.5c0.5-0.7,0.7-1.6,0.7-2.6c0-1.2-0.3-2.1-0.9-2.8c-0.6-0.7-1.5-1.2-2.7-1.4
		c-0.6-0.1-2.3-0.1-5.1-0.1h-5.5V617.2z"/>
	<path class="st1" d="M122.1,637.3h-7.7l-3.1-7.9h-14l-2.9,7.9h-7.5l13.6-34.9h7.5L122.1,637.3z M109.2,623.5l-4.8-13l-4.7,13H109.2
		z"/>
	<path class="st1" d="M148.2,624.5l6.8,2.2c-1,3.8-2.8,6.6-5.2,8.5c-2.4,1.9-5.5,2.8-9.3,2.8c-4.6,0-8.5-1.6-11.4-4.8
		c-3-3.2-4.5-7.5-4.5-13c0-5.8,1.5-10.3,4.5-13.5c3-3.2,6.9-4.8,11.8-4.8c4.3,0,7.7,1.3,10.4,3.8c1.6,1.5,2.8,3.6,3.6,6.4l-7,1.7
		c-0.4-1.8-1.3-3.2-2.6-4.3c-1.3-1-2.9-1.6-4.8-1.6c-2.6,0-4.7,0.9-6.3,2.8c-1.6,1.9-2.4,4.9-2.4,9c0,4.4,0.8,7.6,2.4,9.4
		c1.6,1.9,3.7,2.8,6.2,2.8c1.9,0,3.5-0.6,4.8-1.8S147.6,627,148.2,624.5z"/>
	<path class="st1" d="M183.5,624.5l6.8,2.2c-1,3.8-2.8,6.6-5.2,8.5c-2.4,1.9-5.5,2.8-9.3,2.8c-4.6,0-8.5-1.6-11.4-4.8
		c-3-3.2-4.5-7.5-4.5-13c0-5.8,1.5-10.3,4.5-13.5c3-3.2,6.9-4.8,11.8-4.8c4.3,0,7.7,1.3,10.4,3.8c1.6,1.5,2.8,3.6,3.6,6.4l-7,1.7
		c-0.4-1.8-1.3-3.2-2.6-4.3c-1.3-1-2.9-1.6-4.8-1.6c-2.6,0-4.7,0.9-6.3,2.8c-1.6,1.9-2.4,4.9-2.4,9c0,4.4,0.8,7.6,2.4,9.4
		c1.6,1.9,3.7,2.8,6.2,2.8c1.9,0,3.5-0.6,4.8-1.8S182.9,627,183.5,624.5z"/>
	<path class="st1" d="M196.4,637.3v-34.9h25.9v5.9h-18.8v7.7h17.5v5.9h-17.5v9.5h19.5v5.9H196.4z"/>
	<path class="st1" d="M227.1,626l6.9-0.7c0.4,2.3,1.3,4,2.5,5.1c1.3,1.1,3,1.6,5.1,1.6c2.3,0,4-0.5,5.1-1.4c1.2-1,1.7-2.1,1.7-3.4
		c0-0.8-0.2-1.5-0.7-2.1c-0.5-0.6-1.3-1.1-2.5-1.5c-0.8-0.3-2.7-0.8-5.6-1.5c-3.8-0.9-6.4-2.1-8-3.5c-2.1-1.9-3.2-4.3-3.2-7
		c0-1.8,0.5-3.4,1.5-5c1-1.5,2.5-2.7,4.4-3.5c1.9-0.8,4.2-1.2,6.9-1.2c4.4,0,7.7,1,9.9,2.9c2.2,1.9,3.4,4.5,3.5,7.7l-7.1,0.3
		c-0.3-1.8-1-3.1-1.9-3.9c-1-0.8-2.5-1.2-4.5-1.2c-2,0-3.7,0.4-4.8,1.3c-0.7,0.5-1.1,1.3-1.1,2.2c0,0.8,0.3,1.5,1,2.1
		c0.9,0.7,3,1.5,6.5,2.3c3.4,0.8,6,1.6,7.6,2.5c1.6,0.9,2.9,2,3.9,3.6s1.4,3.4,1.4,5.6c0,2-0.6,3.9-1.7,5.6c-1.1,1.7-2.7,3-4.7,3.9
		c-2,0.8-4.6,1.3-7.6,1.3c-4.4,0-7.8-1-10.2-3.1S227.6,629.9,227.1,626z"/>
	<path class="st1" d="M259.7,626l6.9-0.7c0.4,2.3,1.3,4,2.5,5.1c1.3,1.1,3,1.6,5.1,1.6c2.3,0,4-0.5,5.1-1.4c1.2-1,1.7-2.1,1.7-3.4
		c0-0.8-0.2-1.5-0.7-2.1s-1.3-1.1-2.5-1.5c-0.8-0.3-2.7-0.8-5.6-1.5c-3.8-0.9-6.4-2.1-8-3.5c-2.1-1.9-3.2-4.3-3.2-7
		c0-1.8,0.5-3.4,1.5-5c1-1.5,2.5-2.7,4.4-3.5c1.9-0.8,4.2-1.2,6.9-1.2c4.4,0,7.7,1,9.9,2.9c2.2,1.9,3.4,4.5,3.5,7.7l-7.1,0.3
		c-0.3-1.8-1-3.1-1.9-3.9c-1-0.8-2.5-1.2-4.5-1.2c-2,0-3.7,0.4-4.8,1.3c-0.7,0.5-1.1,1.3-1.1,2.2c0,0.8,0.3,1.5,1,2.1
		c0.9,0.7,3,1.5,6.5,2.3c3.4,0.8,6,1.6,7.6,2.5c1.6,0.9,2.9,2,3.9,3.6c0.9,1.5,1.4,3.4,1.4,5.6c0,2-0.6,3.9-1.7,5.6
		c-1.1,1.7-2.7,3-4.7,3.9c-2,0.8-4.6,1.3-7.6,1.3c-4.4,0-7.8-1-10.2-3.1S260.1,629.9,259.7,626z"/>
	<path class="st1" d="M292.6,620.1c0-3.6,0.5-6.5,1.6-9c0.8-1.8,1.9-3.4,3.3-4.8c1.4-1.4,2.9-2.5,4.5-3.1c2.2-0.9,4.7-1.4,7.5-1.4
		c5.1,0,9.3,1.6,12.4,4.8c3.1,3.2,4.6,7.6,4.6,13.3c0,5.6-1.5,10.1-4.6,13.2c-3.1,3.2-7.2,4.8-12.3,4.8c-5.2,0-9.3-1.6-12.4-4.8
		C294.1,630,292.6,625.6,292.6,620.1z M299.8,619.8c0,4,0.9,7,2.7,9c1.8,2,4.1,3.1,7,3.1c2.8,0,5.1-1,6.9-3s2.7-5.1,2.7-9.1
		c0-4-0.9-7-2.6-9c-1.8-2-4.1-3-7-3c-2.9,0-5.3,1-7,3S299.8,615.8,299.8,619.8z"/>
	<path class="st1" d="M332,637.3v-34.9h14.8c3.7,0,6.4,0.3,8.1,0.9c1.7,0.6,3,1.7,4.1,3.3c1,1.6,1.5,3.4,1.5,5.5
		c0,2.6-0.8,4.8-2.3,6.5c-1.5,1.7-3.8,2.8-6.9,3.2c1.5,0.9,2.8,1.9,3.8,2.9s2.3,3,4,5.7l4.3,6.8h-8.4l-5.1-7.6
		c-1.8-2.7-3-4.4-3.7-5.1c-0.7-0.7-1.4-1.2-2.1-1.5c-0.7-0.3-1.9-0.4-3.6-0.4H339v14.6H332z M339,617.2h5.2c3.4,0,5.5-0.1,6.3-0.4
		c0.8-0.3,1.5-0.8,2-1.5c0.5-0.7,0.7-1.6,0.7-2.6c0-1.2-0.3-2.1-0.9-2.8c-0.6-0.7-1.5-1.2-2.7-1.4c-0.6-0.1-2.3-0.1-5.1-0.1H339
		V617.2z"/>
	<path class="st1" d="M367,637.3v-34.9h7.1v34.9H367z"/>
	<path class="st1" d="M380.8,637.3v-34.9h25.9v5.9h-18.8v7.7h17.5v5.9h-17.5v9.5h19.5v5.9H380.8z"/>
	<path class="st1" d="M411.5,626l6.9-0.7c0.4,2.3,1.3,4,2.5,5.1c1.3,1.1,3,1.6,5.1,1.6c2.3,0,4-0.5,5.1-1.4c1.2-1,1.7-2.1,1.7-3.4
		c0-0.8-0.2-1.5-0.7-2.1s-1.3-1.1-2.5-1.5c-0.8-0.3-2.7-0.8-5.6-1.5c-3.8-0.9-6.4-2.1-8-3.5c-2.1-1.9-3.2-4.3-3.2-7
		c0-1.8,0.5-3.4,1.5-5c1-1.5,2.5-2.7,4.4-3.5c1.9-0.8,4.2-1.2,6.9-1.2c4.4,0,7.7,1,9.9,2.9c2.2,1.9,3.4,4.5,3.5,7.7l-7.1,0.3
		c-0.3-1.8-1-3.1-1.9-3.9c-1-0.8-2.5-1.2-4.5-1.2c-2,0-3.7,0.4-4.8,1.3c-0.7,0.5-1.1,1.3-1.1,2.2c0,0.8,0.3,1.5,1,2.1
		c0.9,0.7,3,1.5,6.5,2.3c3.4,0.8,6,1.6,7.6,2.5c1.6,0.9,2.9,2,3.9,3.6c0.9,1.5,1.4,3.4,1.4,5.6c0,2-0.6,3.9-1.7,5.6
		c-1.1,1.7-2.7,3-4.7,3.9c-2,0.8-4.6,1.3-7.6,1.3c-4.4,0-7.8-1-10.2-3.1S412,629.9,411.5,626z"/>
</g>
<g>
	<path class="st1" d="M206.8,547.5c-22.5,0-45,0-67.6,0c-25.7,0.1-46-20.5-46.3-46.1c-0.3-20-1.5-40-2.3-60
		c-0.5-11.6-0.8-23.3-1.3-34.9c-0.9-24.5-1.9-49-2.8-73.4c-0.4-11-0.8-21.9-1.2-32.9c-0.7-19.6-1.7-39.2-2-58.9
		c-0.5-32,26.3-58.7,58.2-58.7c43.7,0,87.4,0,131.1,0c31.8,0,58.5,26.5,58.2,58.3c-0.2,20.7-1.5,41.4-2.3,62.1
		c-0.6,16.1-1.1,32.2-1.7,48.3c-0.9,23.7-1.9,47.3-2.8,71c-0.5,11.6-0.8,23.3-1.3,34.9c-0.7,17.3-0.7,34.7-2.6,51.9
		c-2.3,21.7-22.4,38.4-44.1,38.5c-11.5,0-23.1,0-34.6,0C229.9,547.5,218.3,547.5,206.8,547.5C206.8,547.5,206.8,547.5,206.8,547.5z
		 M206.8,534.5c22.5,0,45,0,67.6,0c19.4,0,33.4-14.2,33.7-33.6c0.1-11.9,0.7-23.8,1.2-35.7c0.9-23.5,1.9-47.1,2.8-70.6
		c0.5-12.6,0.8-25.2,1.2-37.8c0.9-24.8,1.9-49.5,2.9-74.2c0.5-11.9,0.6-23.8,1.6-35.7c2.3-28.6-18.3-51.2-47.1-51.2
		c-42.9,0-85.8,0-128.6,0c-25.6,0-46,20.2-45.8,45.9c0.2,15.6,1,31.1,1.6,46.7c0.5,14.7,1.1,29.5,1.6,44.2
		c0.8,20.1,1.6,40.3,2.4,60.4c0.5,12.2,0.8,24.4,1.3,36.5c0.9,23.8,2.2,47.6,2.7,71.4c0.5,19.4,14.3,33.6,33.7,33.6
		C162.1,534.5,184.4,534.5,206.8,534.5z"/>
	<path class="st1" d="M206.9,521.5c-21.4,0-42.9,0-64.3,0c-13.8,0-21.5-7.9-22-21.6c-0.7-20.3-1.8-40.5-2.7-60.8
		c-0.6-13-1.1-26-1.7-38.9c-0.9-20.7-1.9-41.4-2.8-62c-0.6-13.9-1.1-27.9-1.7-41.8c-0.8-17-1.3-34.1-2.5-51.1
		c-1.5-20.1,13.4-36.6,33.6-36.6c42.7,0.1,85.5,0.1,128.2,0c20.4,0,35.5,16.6,33.7,36.8c-0.9,10.8-1.2,21.6-1.7,32.4
		c-1,20.7-1.9,41.4-2.8,62c-0.6,13.1-1.1,26.2-1.7,39.3c-0.9,20.7-1.9,41.4-2.8,62.1c-0.6,14.1-1.1,28.1-1.7,42.2
		c-0.3,6.5-0.4,13-0.9,19.5c-0.8,10.8-9.1,18.4-20,18.4C251.1,521.5,229,521.5,206.9,521.5z M286.7,342.5c-0.8-0.1-1.6-0.2-2.4-0.2
		c-13,0-26.1,0-39.1,0c-5.7,0-8.4-3.3-7.3-8.9c0.7-3.7,1.6-7.4,2.5-11.1c3.4-13.8,14.4-22.3,28.7-22.3c6.6,0,13.2,0,19.9,0
		c0.3-5.8,0.5-11.2,0.8-16.6c0.6-14.3,1.5-28.7,1.7-43c0.1-9.6-8.7-18.1-18.2-18.6c-2.3-0.1-3.8,0.3-4.6,2.8
		c-1.1,3.5-2.5,6.9-4.1,10.2c-5.8,12.3-15.5,19.2-29,19.5c-19.1,0.4-38.3,0.2-57.4,0.1c-8.5-0.1-15.7-3.4-22-9.2
		c-6-5.5-8.4-12.9-11-20.1c-1.1-2.9-2.8-3.5-5.5-3.3c-9.7,0.9-17.7,9.4-17.5,19.2c0.3,13.9,1.1,27.9,1.7,41.8
		c0.2,5.6,0.6,11.3,0.9,17.1c5.8,0,11.4,0,16.9,0c6.4,0.1,12.2,2.1,17.3,6c10.1,7.7,11.5,19.1,13,30.4c0.4,3.3-2.8,5.8-6.5,5.9
		c-3.8,0.1-7.6,0-11.4,0c-9.1,0-18.1,0-27.1,0c0,5-0.1,9.6,0.1,14.1c0,0.8,1.7,2,2.6,2c4.3,0.2,8.7-0.1,13,0.2
		c13.7,0.7,23.6,7.1,29.3,19.7c2.2,4.9,4.1,10,6.1,15.1c2.7,6.9,0.1,10.8-7.3,10.8c-12.3,0-24.7,0-37,0c-1.4,0-2.9,0-4.6,0
		c0.2,4.6,0.4,8.7,0.6,12.7c51.4,0,102.5,0,153.9,0c0-4.3,0-8.3,0-12.7c-1.6,0-3.2,0-4.8,0c-13.6,0-27.1,0-40.7,0
		c-6.7,0-9.4-3.8-7.1-10.1c1.9-5.2,3.8-10.4,6.1-15.4c6.1-13.3,16.6-19.9,31.1-20c5-0.1,10,0.1,15.1-0.1c1,0,2.8-1.1,2.8-1.8
		C286.9,352,286.7,347.3,286.7,342.5z M130.6,430.4c0.4,7.9,0.7,15.3,1,22.7c0.7,16.2,1.3,32.5,2.1,48.7c0.2,4.3,2.8,6.7,7.1,6.7
		c44.1,0,88.2,0,132.3,0c4.3,0,6.9-2.5,7.1-6.7c0.2-3.6,0.3-7.3,0.5-11c0.5-11,1.2-21.9,1.5-32.9c0.3-9.1,0.1-18.3,0.1-27.4
		c-10,0-20.6,0-31.2,0c4.3,20.3-0.7,37.4-17.4,49.6c-15.4,11.2-32.5,12.3-49,2.7c-20.2-11.7-26.3-30-21.8-52.5
		C152.1,430.4,141.6,430.4,130.6,430.4z M177.2,430.3c-5.9,14.9-1.6,30.7,10.6,39.3c13.2,9.2,29.4,8.3,41.5-2.5
		c10-8.9,13.2-25.2,7.1-36.8C216.8,430.3,197.2,430.3,177.2,430.3z M158.5,221.9c3.1,13.6,10.2,19.4,23.9,19.4c16.4,0,32.8,0,49.2,0
		c13.7,0,20.8-5.7,23.9-19.4C223.2,221.9,190.9,221.9,158.5,221.9z M286,371.6c-6.1,0-11.6,0-17.2,0c-11.6,0-20,7.5-21.5,19.3
		c12.6,0,25.1,0,37.8,0C285.4,384.5,285.7,378.3,286,371.6z M128.9,390.9c11.6,0,22.7,0,33.9,0c-4.8-19.8-15.8-20.6-34.8-18.8
		C128.3,378.3,128.6,384.5,128.9,390.9z M252.6,329.1c11.9,0,23.4,0,35.5,0c0-5.3,0-10.5,0-16.1c-5.9,0-11.8,0-17.7,0
		C259.5,313,254.1,317.8,252.6,329.1z M126,329.1c10.7,0,21,0,31.2,0c0.3-7.9-5.2-15.2-13.6-16c-5.9-0.6-11.8-0.1-17.7-0.1
		C126,318.6,126,323.8,126,329.1z"/>
	<path class="st1" d="M148.6,280.2c0-4.2,0-8.2,0-12.5c4.1,0,8.2,0,12.6,0c0,4.1,0,8.2,0,12.5C157,280.2,153,280.2,148.6,280.2z"/>
	<path class="st1" d="M187.3,280.2c-4.2,0-8.2,0-12.5,0c0-4.1,0-8.2,0-12.6c4.1,0,8.2,0,12.5,0C187.3,271.7,187.3,275.7,187.3,280.2
		z"/>
	<path class="st1" d="M200.7,267.5c4.2,0,8.2,0,12.5,0c0,4.1,0,8.2,0,12.6c-4.1,0-8.2,0-12.5,0C200.7,276,200.7,272,200.7,267.5z"/>
	<path class="st1" d="M226.9,267.5c4.2,0,8.2,0,12.5,0c0,4.2,0,8.3,0,12.7c-4.1,0-8.1,0-12.5,0C226.9,276.2,226.9,272.1,226.9,267.5
		z"/>
	<path class="st1" d="M265.5,267.6c0,4.4,0,8.4,0,12.6c-4.2,0-8.2,0-12.5,0c0-4.1,0-8.2,0-12.6C257,267.6,261.1,267.6,265.5,267.6z"
		/>
</g>
</svg>
