<?xml version="1.0" encoding="utf-8"?>
<!-- Generator: Adobe Illustrator 19.0.0, SVG Export Plug-In . SVG Version: 6.00 Build 0)  -->
<svg version="1.1" id="Capa_1" xmlns="http://www.w3.org/2000/svg" xmlns:xlink="http://www.w3.org/1999/xlink" x="0px" y="0px"
	 viewBox="-78.8 140.8 512 512" style="enable-background:new -78.8 140.8 512 512;" xml:space="preserve">
<style type="text/css">
	.st0{fill-rule:evenodd;clip-rule:evenodd;fill:#BD2F32;}
	.st1{fill:#FFFFFF;}
</style>
<g id="XMLID_29_">
	<rect id="XMLID_28_" x="-79" y="140.6" class="st0" width="512" height="512"/>
	<g id="XMLID_30_">
		<rect id="XMLID_31_" x="-6.7" y="579.8" class="st1" width="367.3" height="2.1"/>
	</g>
</g>
<g>
	<g>
		<path class="st1" d="M239.4,396.7c0,28.2,23,51.5,51.5,51.5h86.8v-103h-87.1C262.4,345.3,239.4,368.6,239.4,396.7z M320.7,395.5
			c0,14.9-12,26.9-26.9,26.9s-26.9-12-26.9-26.9s12-26.9,26.9-26.9S320.7,380.6,320.7,395.5z"/>
		<path class="st1" d="M290.6,464.4c-37.2,0-67.6-30.4-67.6-67.6s30.3-67.7,67.6-67.7h87.1v-40.2c0-21.1-17.2-38.2-38.2-38.2h-325
			c-21.1,0-38.2,17.2-38.2,38.2v215.9c0,21.1,17.2,38.2,38.2,38.2h325.4c21.1,0,38.2-17.2,38.2-38.2v-40.5h-87.5V464.4z"/>
	</g>
</g>
<g>
	<path d="M57.2,631.7c-1.3,0.6-4.1,1.4-7.8,1.4c-10.4,0-15.7-6.5-15.7-15.1c0-10.3,7.3-16,16.4-16c3.5,0,6.2,0.7,7.4,1.4l-1.4,5.4
		c-1.4-0.6-3.3-1.1-5.7-1.1c-5.4,0-9.6,3.3-9.6,9.9c0,6,3.5,9.8,9.6,9.8c2.1,0,4.3-0.5,5.7-1L57.2,631.7z"/>
	<path d="M69,624.9l-2.2,7.8h-7.1l9.2-30.1h8.9l9.4,30.1H80l-2.3-7.8H69z M76.7,619.8l-1.8-6.4c-0.6-1.8-1-4-1.5-5.8h-0.1
		c-0.5,1.8-0.9,4.1-1.4,5.8l-1.8,6.4H76.7z"/>
	<path d="M91.3,602.9c2.2-0.3,5.5-0.6,9-0.6c4.4,0,7.5,0.7,9.7,2.4c1.8,1.5,2.7,3.5,2.7,6.3c0,3.9-2.7,6.5-5.4,7.4v0.1
		c2.1,0.8,3.3,2.9,4,5.6c0.9,3.4,1.8,7.3,2.5,8.4h-6.7c-0.5-0.9-1.3-3.3-2.1-7c-0.8-3.8-2.1-4.8-4.9-4.8h-2.1v11.9h-6.7v-29.8H91.3z
		 M98.1,615.9h2.6c3.4,0,5.4-1.7,5.4-4.3c0-2.7-1.8-4.1-5-4.2c-1.6,0-2.6,0.1-3.1,0.2v8.3H98.1z"/>
	<path d="M117.7,602.9c2.5-0.5,5.7-0.6,9.2-0.6c5.7,0,9.5,1,12.3,3.2c3.1,2.3,5.1,6,5.1,11.3c0,5.7-2.1,9.7-5,12.2
		c-3.2,2.6-8,3.9-13.9,3.9c-3.5,0-6-0.2-7.8-0.5V602.9z M124.6,627.5c0.6,0.1,1.5,0.1,2.4,0.1c6.2,0,10.1-3.3,10.1-10.5
		c0-6.3-3.6-9.6-9.5-9.6c-1.5,0-2.5,0.1-3.1,0.2V627.5z"/>
	<path d="M164.6,602.5v11.5h11.2v-11.5h6.7v30.1h-6.7v-12.5h-11.2v12.5h-6.8v-30.1H164.6z"/>
	<path d="M216,617.3c0,9.8-5.9,15.8-14.7,15.8c-8.9,0-14.1-6.7-14.1-15.3c0-9,5.7-15.7,14.6-15.7C211,602.1,216,608.9,216,617.3z
		 M194.4,617.7c0,5.9,2.7,10,7.3,10c4.6,0,7.2-4.3,7.2-10.3c0-5.4-2.6-10-7.3-10C197,607.5,194.4,611.8,194.4,617.7z"/>
	<path d="M220.5,602.5h6.8V627h12v5.7h-18.8V602.5z"/>
	<path d="M243.3,602.9c2.5-0.5,5.7-0.6,9.2-0.6c5.7,0,9.5,1,12.3,3.2c3.1,2.3,5.1,6,5.1,11.3c0,5.7-2.1,9.7-5,12.2
		c-3.2,2.6-8,3.9-13.9,3.9c-3.5,0-6-0.2-7.8-0.5V602.9z M250.1,627.5c0.6,0.1,1.5,0.1,2.4,0.1c6.2,0,10.1-3.3,10.1-10.5
		c0-6.3-3.6-9.6-9.5-9.6c-1.5,0-2.5,0.1-3.1,0.2V627.5z"/>
	<path d="M292.2,619.9h-11.1v7.2h12.3v5.6h-19.2v-30.1h18.6v5.6h-11.7v6.3h11.1V619.9z"/>
	<path d="M298.1,602.9c2.2-0.3,5.5-0.6,9-0.6c4.4,0,7.5,0.7,9.7,2.4c1.8,1.5,2.7,3.5,2.7,6.3c0,3.9-2.7,6.5-5.4,7.4v0.1
		c2.1,0.8,3.3,2.9,4,5.6c0.9,3.4,1.8,7.3,2.5,8.4h-7c-0.5-0.9-1.3-3.3-2.1-7c-0.8-3.8-2.1-4.8-4.9-4.8h-2.1v11.9H298v-29.8H298.1z
		 M304.9,615.9h2.6c3.4,0,5.4-1.7,5.4-4.3c0-2.7-1.8-4.1-5-4.2c-1.6,0-2.6,0.1-3.1,0.2v8.3H304.9z"/>
</g>
<g>
	<path class="st1" d="M51.5,631.7c-1.3,0.6-4.1,1.4-7.8,1.4c-10.4,0-15.7-6.5-15.7-15.1c0-10.3,7.3-16,16.4-16
		c3.5,0,6.2,0.7,7.4,1.4l-1.4,5.4c-1.4-0.6-3.3-1.1-5.7-1.1c-5.4,0-9.6,3.3-9.6,9.9c0,6,3.5,9.8,9.6,9.8c2.1,0,4.3-0.5,5.7-1
		L51.5,631.7z"/>
	<path class="st1" d="M63.4,624.9l-2.2,7.8h-7.1l9.2-30.1h8.9l9.4,30.1h-7.3l-2.3-7.8H63.4z M71,619.8l-1.8-6.4
		c-0.6-1.8-1-4-1.5-5.8h-0.1c-0.5,1.8-0.9,4.1-1.4,5.8l-1.8,6.4H71z"/>
	<path class="st1" d="M85.6,602.9c2.2-0.3,5.5-0.6,9-0.6c4.4,0,7.5,0.7,9.7,2.4c1.8,1.5,2.7,3.5,2.7,6.3c0,3.9-2.7,6.5-5.4,7.4v0.1
		c2.1,0.8,3.3,2.9,4,5.6c0.9,3.4,1.8,7.3,2.5,8.4h-6.7c-0.5-0.9-1.3-3.3-2.1-7c-0.8-3.8-2.1-4.8-4.9-4.8h-2.1v11.9h-6.7v-29.8H85.6z
		 M92.5,615.9h2.6c3.4,0,5.4-1.7,5.4-4.3c0-2.7-1.8-4.1-5-4.2c-1.6,0-2.6,0.1-3.1,0.2v8.3H92.5z"/>
	<path class="st1" d="M112.1,602.9c2.5-0.5,5.7-0.6,9.2-0.6c5.7,0,9.5,1,12.3,3.2c3.1,2.3,5.1,6,5.1,11.3c0,5.7-2.1,9.7-5,12.2
		c-3.2,2.6-8,3.9-13.9,3.9c-3.5,0-6-0.2-7.8-0.5V602.9z M118.9,627.5c0.6,0.1,1.5,0.1,2.4,0.1c6.2,0,10.1-3.3,10.1-10.5
		c0-6.3-3.6-9.6-9.5-9.6c-1.5,0-2.5,0.1-3.1,0.2V627.5z"/>
	<path class="st1" d="M158.9,602.5v11.5h11.2v-11.5h6.7v30.1h-6.7v-12.5h-11.2v12.5h-6.8v-30.1H158.9z"/>
	<path class="st1" d="M210.4,617.3c0,9.8-5.9,15.8-14.7,15.8c-8.9,0-14.1-6.7-14.1-15.3c0-9,5.7-15.7,14.6-15.7
		C205.3,602.1,210.4,608.9,210.4,617.3z M188.7,617.7c0,5.9,2.7,10,7.3,10s7.2-4.3,7.2-10.3c0-5.4-2.6-10-7.3-10
		C191.3,607.5,188.7,611.8,188.7,617.7z"/>
	<path class="st1" d="M214.8,602.5h6.8V627h12v5.7h-18.8V602.5z"/>
	<path class="st1" d="M237.6,602.9c2.5-0.5,5.7-0.6,9.2-0.6c5.7,0,9.5,1,12.3,3.2c3.1,2.3,5.1,6,5.1,11.3c0,5.7-2.1,9.7-5,12.2
		c-3.2,2.6-8,3.9-13.9,3.9c-3.5,0-6-0.2-7.8-0.5V602.9z M244.4,627.5c0.6,0.1,1.5,0.1,2.4,0.1c6.2,0,10.1-3.3,10.1-10.5
		c0-6.3-3.6-9.6-9.5-9.6c-1.5,0-2.5,0.1-3.1,0.2V627.5z"/>
	<path class="st1" d="M286.5,619.9h-11.1v7.2h12.3v5.6h-19.2v-30.1h18.6v5.6h-11.7v6.3h11.1V619.9z"/>
	<path class="st1" d="M292.5,602.9c2.2-0.3,5.5-0.6,9-0.6c4.4,0,7.5,0.7,9.7,2.4c1.8,1.5,2.7,3.5,2.7,6.3c0,3.9-2.7,6.5-5.4,7.4v0.1
		c2.1,0.8,3.3,2.9,4,5.6c0.9,3.4,1.8,7.3,2.5,8.4h-7c-0.5-0.9-1.3-3.3-2.1-7c-0.8-3.8-2.1-4.8-4.9-4.8h-2.1v11.9h-6.7v-29.8H292.5z
		 M299.2,615.9h2.6c3.4,0,5.4-1.7,5.4-4.3c0-2.7-1.8-4.1-5-4.2c-1.6,0-2.6,0.1-3.1,0.2v8.3H299.2z"/>
</g>
</svg>
