<?xml version="1.0" encoding="utf-8"?>
<!-- Generator: Adobe Illustrator 19.0.0, SVG Export Plug-In . SVG Version: 6.00 Build 0)  -->
<svg version="1.1" id="Capa_1" xmlns="http://www.w3.org/2000/svg" xmlns:xlink="http://www.w3.org/1999/xlink" x="0px" y="0px"
	 viewBox="97 -25.4 482.4 482.4" style="enable-background:new 97 -25.4 482.4 482.4;" xml:space="preserve">
<g>
	<g>
		<path d="M400.5,144.6c0,28.2,23,51.5,51.5,51.5h86.8v-103h-87.1C423.5,93.2,400.5,116.5,400.5,144.6z M481.8,143.4
			c0,14.9-12,26.9-26.9,26.9s-26.9-12-26.9-26.9c0-14.9,12-26.9,26.9-26.9S481.8,128.5,481.8,143.4z"/>
		<path d="M451.7,212.3c-37.2,0-67.6-30.4-67.6-67.6S414.4,77,451.7,77h87.1V36.8c0-21.1-17.2-38.2-38.2-38.2h-325
			c-21.1,0-38.2,17.2-38.2,38.2v215.9c0,21.1,17.2,38.2,38.2,38.2h325.4c21.1,0,38.2-17.2,38.2-38.2v-40.5H451.7z"/>
	</g>
</g>
<g>
	<path d="M233.2,381.8c-1.1,0.5-3.6,1.2-6.8,1.2c-9.1,0-13.8-5.7-13.8-13.2c0-9,6.4-14,14.4-14c3.1,0,5.4,0.6,6.5,1.2l-1.2,4.7
		c-1.2-0.5-2.9-1-5-1c-4.7,0-8.4,2.9-8.4,8.7c0,5.3,3.1,8.6,8.4,8.6c1.8,0,3.8-0.4,5-0.9L233.2,381.8z"/>
	<path d="M243.6,375.8l-1.9,6.8h-6.2l8.1-26.4h7.8l8.2,26.4h-6.4l-2-6.8H243.6z M250.3,371.3l-1.6-5.6c-0.5-1.6-0.9-3.5-1.3-5.1
		h-0.1c-0.4,1.6-0.8,3.6-1.2,5.1l-1.6,5.6H250.3z"/>
	<path d="M263.1,356.5c1.9-0.3,4.8-0.5,7.9-0.5c3.9,0,6.6,0.6,8.5,2.1c1.6,1.3,2.4,3.1,2.4,5.5c0,3.4-2.4,5.7-4.7,6.5v0.1
		c1.8,0.7,2.9,2.5,3.5,4.9c0.8,3,1.6,6.4,2.2,7.4H277c-0.4-0.8-1.1-2.9-1.8-6.1c-0.7-3.3-1.8-4.2-4.3-4.2h-1.8v10.4h-5.9V356.5z
		 M269.1,367.9h2.3c3,0,4.7-1.5,4.7-3.8c0-2.4-1.6-3.6-4.4-3.7c-1.4,0-2.3,0.1-2.7,0.2V367.9z"/>
	<path d="M286.3,356.5c2.2-0.4,5-0.5,8.1-0.5c5,0,8.3,0.9,10.8,2.8c2.7,2,4.5,5.3,4.5,9.9c0,5-1.8,8.5-4.4,10.7
		c-2.8,2.3-7,3.4-12.2,3.4c-3.1,0-5.3-0.2-6.8-0.4V356.5z M292.3,378.1c0.5,0.1,1.3,0.1,2.1,0.1c5.4,0,8.9-2.9,8.9-9.2
		c0-5.5-3.2-8.4-8.3-8.4c-1.3,0-2.2,0.1-2.7,0.2V378.1z"/>
	<path d="M327.4,356.2v10.1h9.8v-10.1h5.9v26.4h-5.9v-11h-9.8v11h-6v-26.4H327.4z"/>
	<path d="M372.5,369.1c0,8.6-5.2,13.9-12.9,13.9c-7.8,0-12.4-5.9-12.4-13.4c0-7.9,5-13.8,12.8-13.8
		C368.1,355.8,372.5,361.8,372.5,369.1z M353.5,369.5c0,5.2,2.4,8.8,6.4,8.8c4,0,6.3-3.8,6.3-9c0-4.7-2.3-8.8-6.4-8.8
		C355.8,360.5,353.5,364.3,353.5,369.5z"/>
	<path d="M376.4,356.2h6v21.4h10.5v5h-16.5V356.2z"/>
	<path d="M396.4,356.5c2.2-0.4,5-0.5,8.1-0.5c5,0,8.3,0.9,10.8,2.8c2.7,2,4.5,5.3,4.5,9.9c0,5-1.8,8.5-4.4,10.7
		c-2.8,2.3-7,3.4-12.2,3.4c-3.1,0-5.3-0.2-6.8-0.4V356.5z M402.4,378.1c0.5,0.1,1.3,0.1,2.1,0.1c5.4,0,8.9-2.9,8.9-9.2
		c0-5.5-3.2-8.4-8.3-8.4c-1.3,0-2.2,0.1-2.7,0.2V378.1z"/>
	<path d="M439.3,371.4h-9.7v6.3h10.8v4.9h-16.8v-26.4h16.3v4.9h-10.3v5.5h9.7V371.4z"/>
	<path d="M444.5,356.5c1.9-0.3,4.8-0.5,7.9-0.5c3.9,0,6.6,0.6,8.5,2.1c1.6,1.3,2.4,3.1,2.4,5.5c0,3.4-2.4,5.7-4.7,6.5v0.1
		c1.8,0.7,2.9,2.5,3.5,4.9c0.8,3,1.6,6.4,2.2,7.4h-6.1c-0.4-0.8-1.1-2.9-1.8-6.1c-0.7-3.3-1.8-4.2-4.3-4.2h-1.8v10.4h-5.9V356.5z
		 M450.4,367.9h2.3c3,0,4.7-1.5,4.7-3.8c0-2.4-1.6-3.6-4.4-3.7c-1.4,0-2.3,0.1-2.7,0.2V367.9z"/>
</g>
</svg>
