<?xml version="1.0" encoding="utf-8"?>
<!-- Generator: Adobe Illustrator 19.0.0, SVG Export Plug-In . SVG Version: 6.00 Build 0)  -->
<svg version="1.1" id="Layer_1" xmlns="http://www.w3.org/2000/svg" xmlns:xlink="http://www.w3.org/1999/xlink" x="0px" y="0px"
	 viewBox="0 0 144 144" style="enable-background:new 0 0 144 144;" xml:space="preserve">
<style type="text/css">
	.st0{fill:#010101;}
</style>
<g id="XMLID_27_">
	<g id="XMLID_28_">
		<g id="XMLID_29_" transform="translate(0.000000,511.000000) scale(0.100000,-0.100000)">
			<path id="XMLID_30_" class="st0" d="M432.6,4977c-12-6.4-14.1-12.2-14.1-43.6v-27.8h-39.1c-44.5,0-52.3-2.1-58.4-15.3
				c-3.5-7.1-3.8-36.3-3.3-290.8l0.7-283.1l7.8-6.8l7.5-6.8h67.1h66.9l0.7-190l0.7-190.3l6.6-19.3c15.5-46.2,50.6-81,96.8-96.8
				l19.1-6.4h150.7c167.2,0,162.5-0.5,196.4,15.8c38.6,18.4,70.2,58.9,79.1,102c2.8,13.9,3.5,54.2,3.5,250.3v233.6h39.1
				c44.3,0,52.3,2.1,58.4,15.3c3.3,6.6,3.8,21.9,3.8,110.4c0,113-0.2,115.6-13.9,122.4c-4.2,2.4-13.2,3.8-22.6,3.8h-15.3v42.4v42.4
				l-6.8,7.5l-6.8,7.8l-56.7,0.7c-81.5,0.9-80.3,1.9-80.3-61.7v-39.1h-16.7c-15.8,0-17.2-0.5-24.7-8l-8-8v-107.4
				c0-93,0.5-108.6,3.8-114.7c5.9-11.8,14.8-13.9,58.6-13.9h38.9v-228c0-154.9-0.9-232.4-2.6-242.1c-5.9-32-24.5-56.8-53.5-70.9
				l-17.9-8.9H744.6H591.5l-16,7.8c-20.3,10.1-36.7,26.6-46.9,46.9l-7.8,16l-0.7,190l-0.5,190.3h66.6c72.8,0,73.2,0,80.5,14.1
				c3.1,5.9,3.5,42.9,3.5,286.1c0,309.9,0.9,291.3-15.3,298.8c-6.1,3.1-16.2,3.8-46.9,3.8h-39.1v27.1c0,31.8-2.8,39.6-15.8,45
				c-10.8,4.7-20.3,2.4-27.8-6.6c-5.6-6.6-5.9-8.2-5.9-36.3v-29.2h-25.9h-25.9v29.4c0,28.7-0.2,29.4-6.4,36.5
				C453,4980.5,443.4,4982.4,432.6,4977z M618.6,4603v-250.8H493.8H369V4603v250.8h124.8h124.8L618.6,4603L618.6,4603z
				 M1021.3,4678.4v-24.7h-24.7h-24.7v24.7v24.7h24.7h24.7V4678.4z M1070.7,4528.4v-74.9h-75.4H920v73.7c0,40.7,0.5,74.4,0.9,74.9
				c0.5,0.5,34.4,0.9,75.4,0.9h74.4V4528.4z"/>
		</g>
	</g>
</g>
</svg>
