<?xml version="1.0" encoding="utf-8"?>
<!-- Generator: Adobe Illustrator 19.0.0, SVG Export Plug-In . SVG Version: 6.00 Build 0)  -->
<svg version="1.1" id="Layer_1" xmlns="http://www.w3.org/2000/svg" xmlns:xlink="http://www.w3.org/1999/xlink" x="0px" y="0px"
	 viewBox="-417 141 512 512" style="enable-background:new -417 141 512 512;" xml:space="preserve">
<style type="text/css">
	.st0{fill-rule:evenodd;clip-rule:evenodd;fill:#BD2F32;}
	.st1{fill:#FFFFFF;}
</style>
<g id="XMLID_1_">
	<rect id="XMLID_3_" x="-417" y="141" class="st0" width="512" height="512"/>
	<g id="XMLID_2_">
		<rect id="XMLID_31_" x="-344.7" y="580.2" class="st1" width="367.3" height="2.1"/>
	</g>
</g>
<g id="XMLID_27_">
	<g id="XMLID_28_">
		<g id="XMLID_29_" transform="translate(0.000000,511.000000) scale(0.100000,-0.100000)">
			<path id="XMLID_30_" class="st1" d="M-2515.9,3470.1c-37.8-20.1-44.5-38.5-44.5-137.4v-87.6h-123.2c-140.2,0-164.9-6.7-184-48.4
				c-10.9-22.2-12-114.4-10.2-916.7l2.1-892.3l24.7-21.5l23.7-21.5h211.5h210.8l2.1-598.9l2.1-599.9l20.8-60.7
				c48.7-145.5,159.6-255.3,305.1-305.1l60-20.1h474.9c527.2,0,512.4-1.4,619,49.8c121.8,57.9,221.4,185.7,249.3,321.7
				c8.8,43.8,10.9,170.9,10.9,788.8v736.2h123.2c139.5,0,164.9,6.7,184,48.4c10.2,20.8,12,68.9,12,347.8
				c0,356.3-0.7,364.4-43.8,385.9c-13.1,7.4-41.7,12-71.3,12H-505v133.5v133.5l-21.5,23.7l-21.5,24.7l-178.7,2.1
				c-257.1,2.8-253.2,6-253.2-194.6v-123.2h-52.6c-49.8,0-54.4-1.4-77.7-25.1l-25.1-25.1v-338.6c0-293.1,1.4-342.2,12-361.6
				c18.7-37.1,46.6-43.8,184.7-43.8h122.9V937.6c0-488.3-2.8-732.7-8.1-763.1c-18.7-101-77.3-179-168.8-223.5l-56.5-27.9h-483.4
				h-482.7l-50.5,24.7c-63.9,31.8-115.8,83.7-148,147.9l-24.7,50.5l-2.1,598.9l-1.4,599.9h210.1c229.5,0,230.6,0,253.9,44.5
				c9.9,18.7,10.9,135.2,10.9,901.8c0,976.7,2.8,918.1-48.4,941.7c-19.1,9.9-51.2,12-148,12h-123.2v85.5
				c0,100.3-8.8,124.6-49.8,141.9c-33.9,14.8-63.9,7.4-87.6-20.8c-17.7-20.8-18.7-25.8-18.7-114.4v-92.2h-81.6h-81.6v92.5
				c0,90.4-0.7,92.5-20.1,115.1C-2451.6,3481-2482,3487-2515.9,3470.1z M-1929.7,2291v-790.6h-393.4h-393.4V2291v790.6h393.4h393.4
				V2291L-1929.7,2291z M-660.3,2529v-77.7H-738h-77.7v77.7v77.7h77.7h77.7V2529z M-504.6,2056.2V1820h-237.6h-237.3v232.3
				c0,128.2,1.4,234.5,2.8,236.2c1.4,1.4,108.4,2.8,237.6,2.8h234.5V2056.2L-504.6,2056.2z"/>
		</g>
	</g>
</g>
<g>
	<path d="M-256.5,637.5c-1.5,1-5.4,2-10.3,2c-13.8,0-20.7-8.9-20.7-20.2c0-13.8,9.8-21.2,21.7-21.2c4.4,0,8.4,1,9.8,2l-2,7.4
		c-2-1-4.4-1.5-7.4-1.5c-7.4,0-12.8,4.4-12.8,13.3c0,7.9,4.9,12.8,12.8,12.8c3,0,5.9-0.5,7.4-1.5L-256.5,637.5z"/>
	<path d="M-241.7,598.6v15.3h14.8v-15.3h8.9v39.9h-8.9v-16.7h-14.8v16.7h-8.9v-39.9H-241.7z"/>
	<path d="M-200.4,628.1l-3,10.3h-9.3l12.3-39.9h11.8l12.3,39.9h-9.8l-3-10.3H-200.4z M-190.5,621.7l-2.5-8.4c-0.5-2.5-1.5-5.4-2-7.9
		l0,0c-0.5,2.5-1,5.4-2,7.9l-2.5,8.4H-190.5z"/>
	<path d="M-171.3,599.1c3-0.5,7.4-1,11.8-1c5.9,0,9.8,1,12.8,3c2.5,2,3.4,4.4,3.4,8.4c0,4.9-3.4,8.4-6.9,9.8l0,0
		c3,1,4.4,3.9,5.4,7.4c1.5,4.4,2.5,9.8,3.4,11.3h-8.9c-0.5-1-1.5-4.4-3-9.3c-1-4.9-3-6.4-6.4-6.4h-2.5V638h-9.3V599.1z M-162,616.3
		h3.4c4.4,0,7.4-2.5,7.4-5.9s-2.5-5.4-6.4-5.4c-2,0-3.4,0-3.9,0.5v10.8H-162z"/>
	<path d="M-102.9,636.5c-3,1-7.9,2.5-13.3,2.5c-7.4,0-12.3-2-16.2-5.4c-3.4-3.4-5.9-8.9-5.4-14.3c0-13.3,9.8-20.7,22.6-20.7
		c4.9,0,8.9,1,10.8,2l-2,7.4c-2-1-4.9-1.5-9.3-1.5c-7.4,0-13.3,4.4-13.3,12.8c0,8.4,4.9,13.3,12.3,13.3c2,0,3.9,0,4.4-0.5v-8.4h-5.4
		v-6.9h14.8V636.5z"/>
	<path d="M-72.4,621.7h-14.8v9.3h16.2v7.4h-25.6v-39.9h24.6v7.4h-15.7v8.4h14.8v7.4H-72.4z"/>
	<path d="M-64.6,599.1c3-0.5,7.4-1,11.8-1c5.9,0,9.8,1,12.8,3c2.5,2,3.4,4.4,3.4,8.4c0,4.9-3.4,8.4-6.9,9.8l0,0c3,1,4.4,3.9,5.4,7.4
		c1.5,4.4,2.5,9.8,3.4,11.3h-9.3c-0.5-1-1.5-4.4-3-9.3c-1-4.9-3-6.4-6.4-6.4h-3V638H-65v-38.9H-64.6z M-55.7,616.3h3.4
		c4.4,0,7.4-2.5,7.4-5.9s-2.5-5.4-6.4-5.4c-2,0-3.4,0-3.9,0.5v10.8H-55.7z"/>
</g>
<g>
	<path class="st1" d="M-262.1,637.5c-1.5,1-5.4,2-10.3,2c-13.8,0-20.7-8.9-20.7-20.2c0-13.8,9.8-21.2,21.7-21.2c4.4,0,8.4,1,9.8,2
		l-2,7.4c-2-1-4.4-1.5-7.4-1.5c-7.4,0-12.8,4.4-12.8,13.3c0,7.9,4.9,12.8,12.8,12.8c3,0,5.9-0.5,7.4-1.5L-262.1,637.5z"/>
	<path class="st1" d="M-247.4,598.6v15.3h14.8v-15.3h8.9v39.9h-8.9v-16.7h-14.8v16.7h-8.9v-39.9H-247.4z"/>
	<path class="st1" d="M-206,628.1l-3,10.3h-9.3l12.3-39.9h11.8l12.3,39.9h-9.8l-3-10.3H-206z M-196.2,621.7l-2.5-8.4
		c-0.5-2.5-1.5-5.4-2-7.9l0,0c-0.5,2.5-1,5.4-2,7.9l-2.5,8.4H-196.2z"/>
	<path class="st1" d="M-177,599.1c3-0.5,7.4-1,11.8-1c5.9,0,9.8,1,12.8,3c2.5,2,3.4,4.4,3.4,8.4c0,4.9-3.4,8.4-6.9,9.8l0,0
		c3,1,4.4,3.9,5.4,7.4c1.5,4.4,2.5,9.8,3.4,11.3h-8.9c-0.5-1-1.5-4.4-3-9.3c-1-4.9-3-6.4-6.4-6.4h-2.5V638h-9.3V599.1z
		 M-167.7,616.3h3.4c4.4,0,7.4-2.5,7.4-5.9s-2.5-5.4-6.4-5.4c-2,0-3.4,0-3.9,0.5v10.8H-167.7z"/>
	<path class="st1" d="M-108.6,636.5c-3,1-7.9,2.5-13.3,2.5c-7.4,0-12.3-2-16.2-5.4c-3.4-3.4-5.9-8.9-5.4-14.3
		c0-13.3,9.8-20.7,22.6-20.7c4.9,0,8.9,1,10.8,2l-2,7.4c-2-1-4.9-1.5-9.3-1.5c-7.4,0-13.3,4.4-13.3,12.8c0,8.4,4.9,13.3,12.3,13.3
		c2,0,3.9,0,4.4-0.5v-8.4h-5.4v-6.9h14.8V636.5z"/>
	<path class="st1" d="M-78.1,621.7h-14.8v9.3h16.2v7.4h-25.6v-39.9h24.6v7.4h-15.7v8.4h14.8v7.4H-78.1z"/>
	<path class="st1" d="M-70.2,599.1c3-0.5,7.4-1,11.8-1c5.9,0,9.8,1,12.8,3c2.5,2,3.4,4.4,3.4,8.4c0,4.9-3.4,8.4-6.9,9.8l0,0
		c3,1,4.4,3.9,5.4,7.4c1.5,4.4,2.5,9.8,3.4,11.3h-9.3c-0.5-1-1.5-4.4-3-9.3c-1-4.9-3-6.4-6.4-6.4h-3V638h-8.9v-38.9H-70.2z
		 M-61.4,616.3h3.4c4.4,0,7.4-2.5,7.4-5.9s-2.5-5.4-6.4-5.4c-2,0-3.4,0-3.9,0.5v10.8H-61.4z"/>
</g>
</svg>
