<?xml version="1.0" encoding="utf-8"?>
<!-- Generator: Adobe Illustrator 19.0.0, SVG Export Plug-In . SVG Version: 6.00 Build 0)  -->
<svg version="1.1" id="Layer_1" xmlns="http://www.w3.org/2000/svg" xmlns:xlink="http://www.w3.org/1999/xlink" x="0px" y="0px"
	 viewBox="-71 145 144 144" style="enable-background:new -71 145 144 144;" xml:space="preserve">
<style type="text/css">
	.st0{fill:#010101;}
</style>
<g id="XMLID_27_">
	<g id="XMLID_28_">
		<g id="XMLID_29_" transform="translate(0.000000,511.000000) scale(0.100000,-0.100000)">
			<path id="XMLID_30_" class="st0" d="M-246.5,3587.4c-10.7-5.7-12.6-10.9-12.6-38.9v-24.8H-294c-39.7,0-46.7-1.9-52.1-13.7
				c-3.1-6.3-3.4-32.4-2.9-259.6l0.6-252.7l7-6.1l6.7-6.1h59.9h59.7l0.6-169.6l0.6-169.9l5.9-17.2c13.8-41.2,45.2-72.3,86.4-86.4
				l17-5.7H29.9c149.3,0,145.1-0.4,175.3,14.1c34.5,16.4,62.7,52.6,70.6,91.1c2.5,12.4,3.1,48.4,3.1,223.4v208.5h34.9
				c39.5,0,46.7,1.9,52.1,13.7c2.9,5.9,3.4,19.5,3.4,98.5c0,100.9-0.2,103.2-12.4,109.3c-3.7,2.1-11.8,3.4-20.2,3.4h-13.7v37.8v37.8
				l-6.1,6.7l-6.1,7l-50.6,0.6c-72.8,0.8-71.7,1.7-71.7-55.1v-34.9h-14.9c-14.1,0-15.4-0.4-22-7.1l-7.1-7.1v-95.9
				c0-83,0.4-96.9,3.4-102.4c5.3-10.5,13.2-12.4,52.3-12.4H235v-203.5c0-138.3-0.8-207.5-2.3-216.1c-5.3-28.6-21.9-50.7-47.8-63.3
				l-16-7.9H32h-136.7l-14.3,7c-18.1,9-32.8,23.7-41.9,41.9l-7,14.3l-0.6,169.6l-0.4,169.9h59.5c65,0,65.3,0,71.9,12.6
				c2.8,5.3,3.1,38.3,3.1,255.4c0,276.6,0.8,260-13.7,266.7c-5.4,2.8-14.5,3.4-41.9,3.4h-34.9v24.2c0,28.4-2.5,35.3-14.1,40.2
				c-9.6,4.2-18.1,2.1-24.8-5.9c-5-5.9-5.3-7.3-5.3-32.4v-26.1h-23.1h-23.1v26.2c0,25.6-0.2,26.2-5.7,32.6
				C-228.3,3590.5-236.9,3592.2-246.5,3587.4z M-80.5,3253.5v-223.9h-111.4h-111.4v223.9v223.9h111.4h111.4V3253.5L-80.5,3253.5z
				 M279,3320.9v-22h-22h-22v22v22h22h22V3320.9z M323.1,3187v-66.9h-67.3h-67.2v65.8c0,36.3,0.4,66.4,0.8,66.9
				c0.4,0.4,30.7,0.8,67.3,0.8h66.4L323.1,3187L323.1,3187z"/>
		</g>
	</g>
</g>
<g>
	<path d="M-18.3,276.8c-0.3,0.2-1.1,0.4-2.1,0.4c-2.8,0-4.2-1.8-4.2-4.1c0-2.8,2-4.3,4.4-4.3c0.9,0,1.7,0.2,2,0.4l-0.4,1.5
		c-0.4-0.2-0.9-0.3-1.5-0.3c-1.5,0-2.6,0.9-2.6,2.7c0,1.6,1,2.6,2.6,2.6c0.6,0,1.2-0.1,1.5-0.3L-18.3,276.8z"/>
	<path d="M-15.3,268.9v3.1h3v-3.1h1.8v8.1h-1.8v-3.4h-3v3.4h-1.8v-8.1H-15.3z"/>
	<path d="M-6.9,274.9l-0.6,2.1h-1.9l2.5-8.1h2.4L-2,277h-2l-0.6-2.1H-6.9z M-4.9,273.6l-0.5-1.7c-0.1-0.5-0.3-1.1-0.4-1.6h0
		c-0.1,0.5-0.2,1.1-0.4,1.6l-0.5,1.7H-4.9z"/>
	<path d="M-1,269c0.6-0.1,1.5-0.2,2.4-0.2c1.2,0,2,0.2,2.6,0.6c0.5,0.4,0.7,0.9,0.7,1.7c0,1-0.7,1.7-1.4,2v0
		c0.6,0.2,0.9,0.8,1.1,1.5c0.3,0.9,0.5,2,0.7,2.3H3.3c-0.1-0.2-0.3-0.9-0.6-1.9c-0.2-1-0.6-1.3-1.3-1.3H0.9v3.2H-1V269z M0.9,272.5
		h0.7c0.9,0,1.5-0.5,1.5-1.2c0-0.7-0.5-1.1-1.3-1.1c-0.4,0-0.7,0-0.8,0.1V272.5z"/>
	<path d="M12.9,276.6c-0.6,0.2-1.6,0.5-2.7,0.5c-1.5,0-2.5-0.4-3.3-1.1c-0.7-0.7-1.2-1.8-1.1-2.9c0-2.7,2-4.2,4.6-4.2
		c1,0,1.8,0.2,2.2,0.4l-0.4,1.5c-0.4-0.2-1-0.3-1.9-0.3c-1.5,0-2.7,0.9-2.7,2.6c0,1.7,1,2.7,2.5,2.7c0.4,0,0.8,0,0.9-0.1v-1.7H9.9
		v-1.4h3V276.6z"/>
	<path d="M19.1,273.6h-3v1.9h3.3v1.5h-5.2v-8.1h5v1.5h-3.2v1.7h3V273.6z"/>
	<path d="M20.7,269c0.6-0.1,1.5-0.2,2.4-0.2c1.2,0,2,0.2,2.6,0.6c0.5,0.4,0.7,0.9,0.7,1.7c0,1-0.7,1.7-1.4,2v0
		c0.6,0.2,0.9,0.8,1.1,1.5c0.3,0.9,0.5,2,0.7,2.3h-1.9c-0.1-0.2-0.3-0.9-0.6-1.9c-0.2-1-0.6-1.3-1.3-1.3h-0.6v3.2h-1.8V269z
		 M22.5,272.5h0.7c0.9,0,1.5-0.5,1.5-1.2c0-0.7-0.5-1.1-1.3-1.1c-0.4,0-0.7,0-0.8,0.1V272.5z"/>
</g>
</svg>
