<?xml version="1.0" encoding="utf-8"?>
<!-- Generator: Adobe Illustrator 19.0.0, SVG Export Plug-In . SVG Version: 6.00 Build 0)  -->
<svg version="1.1" id="Layer_1" xmlns="http://www.w3.org/2000/svg" xmlns:xlink="http://www.w3.org/1999/xlink" x="0px" y="0px"
	 viewBox="0 0 144 144" style="enable-background:new 0 0 144 144;" xml:space="preserve">
<style type="text/css">
	.st0{fill:#010101;}
</style>
<g id="XMLID_1_">
	<path id="XMLID_2_" class="st0" d="M101.6,69.1c-0.1-0.1-0.3-0.2-0.6-0.3c-0.2-0.1-0.5-0.1-0.9-0.1h-1.5v2.8h1.6
		c0.3,0,0.6,0,0.8-0.1c0.2-0.1,0.4-0.2,0.5-0.3c0.1-0.1,0.2-0.3,0.3-0.5c0-0.2,0.1-0.4,0.1-0.6c0-0.2,0-0.4-0.1-0.5
		C101.8,69.4,101.7,69.2,101.6,69.1z"/>
	<path id="XMLID_6_" class="st0" d="M54.4,68.5c-0.9,0-1.6,0.3-2,0.9c-0.4,0.6-0.7,1.5-0.7,2.6c0,1.1,0.2,2,0.7,2.6
		c0.4,0.6,1.1,0.9,2,0.9c0.9,0,1.6-0.3,2-0.9C56.8,74,57,73.1,57,72c0-1.1-0.2-2-0.7-2.6C55.9,68.8,55.2,68.5,54.4,68.5z"/>
	<polygon id="XMLID_7_" class="st0" points="63,73 65.5,73 64.2,69.3 	"/>
	<path id="XMLID_10_" class="st0" d="M72,22c-27.6,0-50,22.4-50,50c0,27.6,22.4,50,50,50s50-22.4,50-50C122,44.4,99.6,22,72,22z
		 M48,75.1c-0.2,0.5-0.5,0.9-0.8,1.2c-0.4,0.3-0.8,0.6-1.3,0.8c-0.5,0.2-1.1,0.3-1.8,0.3c-0.8,0-1.4-0.1-2-0.4
		c-0.6-0.3-1.1-0.6-1.5-1.1c-0.4-0.5-0.7-1-0.9-1.7c-0.2-0.7-0.3-1.4-0.3-2.2c0-0.8,0.1-1.6,0.3-2.2c0.2-0.7,0.5-1.2,0.9-1.7
		c0.4-0.5,0.9-0.8,1.5-1.1c0.6-0.2,1.2-0.4,2-0.4c0.6,0,1.2,0.1,1.7,0.2c0.5,0.2,0.9,0.4,1.2,0.7c0.3,0.3,0.6,0.7,0.8,1.1
		c0.2,0.4,0.3,0.9,0.4,1.4l-2.1,0.3c-0.1-0.6-0.3-1.1-0.6-1.4c-0.3-0.3-0.8-0.5-1.4-0.5c-0.8,0-1.4,0.3-1.9,0.9
		c-0.4,0.6-0.6,1.5-0.6,2.6c0,1.1,0.2,2,0.7,2.6c0.4,0.6,1.1,0.9,1.8,0.9c0.7,0,1.1-0.2,1.4-0.5c0.3-0.3,0.5-0.8,0.6-1.4h2.3
		C48.3,74.1,48.2,74.6,48,75.1z M58.9,74.2c-0.2,0.7-0.5,1.2-0.9,1.7c-0.4,0.5-0.9,0.8-1.5,1.1c-0.6,0.2-1.3,0.4-2,0.4
		c-0.8,0-1.4-0.1-2-0.4c-0.6-0.2-1.1-0.6-1.5-1.1c-0.4-0.5-0.7-1-1-1.7c-0.2-0.7-0.3-1.4-0.3-2.2c0-0.8,0.1-1.6,0.3-2.2
		c0.2-0.7,0.5-1.2,1-1.7c0.4-0.5,0.9-0.8,1.5-1.1c0.6-0.2,1.3-0.4,2-0.4c0.8,0,1.4,0.1,2,0.4c0.6,0.2,1.1,0.6,1.5,1.1
		c0.4,0.5,0.7,1,0.9,1.7c0.2,0.7,0.3,1.4,0.3,2.2C59.2,72.8,59.1,73.6,58.9,74.2z M66.8,77.1L66,74.7h-3.5l-0.8,2.3h-2.2l3.8-10.1h2
		l3.8,10.1H66.8z M77.4,75.5c-0.2,0.4-0.4,0.7-0.7,1c-0.3,0.3-0.7,0.5-1.2,0.7c-0.5,0.2-1.1,0.2-1.7,0.2c-1.4,0-2.4-0.3-3.2-0.9
		c-0.7-0.6-1.1-1.5-1.2-2.7h2.1c0,0.6,0.2,1.1,0.6,1.4c0.4,0.3,0.9,0.4,1.6,0.4c0.3,0,0.6,0,0.8-0.1s0.4-0.2,0.6-0.3
		c0.1-0.1,0.2-0.3,0.3-0.4c0.1-0.2,0.1-0.3,0.1-0.5c0-0.3-0.1-0.5-0.3-0.7c-0.2-0.2-0.6-0.4-1.1-0.5l-1.3-0.2
		c-0.5-0.1-1-0.2-1.4-0.4c-0.4-0.2-0.7-0.3-1-0.6c-0.3-0.2-0.5-0.5-0.6-0.9c-0.1-0.3-0.2-0.8-0.2-1.2c0-0.5,0.1-0.9,0.3-1.3
		s0.5-0.7,0.8-0.9c0.3-0.2,0.8-0.4,1.2-0.6c0.5-0.1,1-0.2,1.6-0.2c0.7,0,1.4,0.1,1.8,0.3c0.5,0.2,0.9,0.4,1.2,0.7
		c0.3,0.3,0.5,0.6,0.7,1c0.1,0.4,0.2,0.8,0.3,1.1l-2,0.3c-0.1-0.6-0.3-1-0.6-1.2c-0.3-0.2-0.8-0.4-1.4-0.4c-0.4,0-0.7,0-0.9,0.1
		c-0.2,0.1-0.4,0.1-0.6,0.2c-0.1,0.1-0.2,0.2-0.3,0.3c-0.1,0.1-0.1,0.3-0.1,0.4c0,0.4,0.1,0.7,0.3,0.9c0.2,0.2,0.6,0.3,1.1,0.4
		l1.4,0.3c1.1,0.2,1.9,0.6,2.4,1.1c0.5,0.5,0.8,1.2,0.8,2.1C77.7,74.7,77.6,75.1,77.4,75.5z M86.5,68.8h-3.1v8.3h-2.1v-8.3h-3.1
		v-1.8h8.2V68.8z M94.8,77.1h-7V66.9h6.9v1.8h-4.8v2.2h4.5v1.8h-4.5v2.5H95L94.8,77.1z M102.3,77.1l-1.7-3.8h-2v3.8h-2.1V66.9h3.6
		c0.8,0,1.5,0.1,2,0.3c0.5,0.2,0.9,0.4,1.2,0.7c0.3,0.3,0.5,0.6,0.6,1c0.1,0.4,0.2,0.7,0.2,1.1c0,0.7-0.1,1.2-0.4,1.6
		c-0.2,0.4-0.6,0.8-1.2,1.1l2.1,4.3H102.3z"/>
</g>
</svg>
