<?xml version="1.0" encoding="utf-8"?>
<!-- Generator: Adobe Illustrator 19.0.0, SVG Export Plug-In . SVG Version: 6.00 Build 0)  -->
<svg version="1.1" id="Layer_1" xmlns="http://www.w3.org/2000/svg" xmlns:xlink="http://www.w3.org/1999/xlink" x="0px" y="0px"
	 viewBox="-417 141 512 512" style="enable-background:new -417 141 512 512;" xml:space="preserve">
<style type="text/css">
	.st0{fill-rule:evenodd;clip-rule:evenodd;fill:#BD2F32;}
	.st1{fill:#FFFFFF;}
</style>
<g id="XMLID_29_">
	<rect id="XMLID_28_" x="-417" y="141" class="st0" width="512" height="512"/>
	<g id="XMLID_30_">
		<rect id="XMLID_31_" x="-344.7" y="580.2" class="st1" width="367.3" height="2.1"/>
	</g>
</g>
<g id="XMLID_1008_">
	<path id="XMLID_1029_" class="st1" d="M-331.9,263.3c3.6-10,9.2-14.2,19.9-14c24.8,0.4,48.7-4.8,70.7-15.4
		c26.7-12.8,53.4-25.7,79.9-39c15.8-7.9,31.9-15.5,47.8-23.1c8.4-4,14.5-2.4,23,6.2c3.7,7.4,7.3,14.8,11,22.1c0.9,1.8,2,3.6,4.4,3.5
		c1.9,1.2,3.8,2.4,5.6,3.7c4.7,5.2,7.2,11.3,8.7,18.1c1.9,8.8,3.2,17.9,7.1,26.1c7.3,15.3,14.7,30.6,22.2,45.8
		c12.6,25.6,25.7,51,37.7,76.8c6.2,13.3,5.9,27.1-11.7,34.6c-13.9,6-13.5,3.1-10.5,20.4c1.1,6.7,3.2,14.2-3.6,19.9
		c-3.5,2.9-7,5.8-6.3,11.4c0.2,1.6-1.8,3.5-3,5.1c-2.2,3-4.3,6.1-6.9,8.6c-6.4,6.3-8.7,16.3-18,20c-0.9,0.3-1.8,1.4-1.5,2.7l0.3,0.3
		c0,0-0.2-0.3-0.2-0.3c-5.7,0.7-9.4,5.3-14.5,7.5c-17.5,7.7-35.9,10.5-54.7,10.6c-49.6,0.4-99.3,0.1-148.9,0.1
		c-3.1,0-6.3-0.5-9.4-0.4c-11.1,0.5-21.8-2.8-32.8-3.8c-4.9-0.5-8.4-3.5-11.2-7.3c-1.1-1.4-1.3-3.5-3.3-4.3c-1.1-2.6-1.3-5.2-1.3-8
		c-0.2-55.3-0.5-110.6-0.8-166C-330.8,304.7-331.5,284-331.9,263.3z M-37.1,454.2c11.7-1,18.7-9.3,15.3-22
		c-3.7-13.7-6.5-27.7-9.7-41.5c-6.7-29.2-13.3-58.3-19.9-87.5c-0.9-8.1-3.3-15.8-6-23.4c-0.3,7,0.1,13.9,0.6,20.8
		c3.9,49.7,7.4,99.3,10.9,149C-45.5,455.6-43.9,456.5-37.1,454.2z M-16.6,409.7c5.2-1.5,9.7-4.4,14.5-6.7
		c7.8-3.8,10.3-11.6,6.4-19.5c-2.8-5.6-5.4-11.3-8.2-16.8c-12.9-25.9-24.6-52.5-38.8-77.8c-1.4-4.7-4-8.9-6.8-12.9
		c1,7.2,2.9,14,4.2,20.9c2.2,11.4,4.5,22.8,6.7,34.2c1.9,9.7,4.6,19.2,6.8,28.9c3.6,16,7.3,32,10.9,48.1
		C-20.3,411-19.2,412-16.6,409.7z M-72.4,488.6c3.1-0.2,6.3-0.3,9.4-0.6c10.2-1,14.9-6.4,14.2-16.6c-0.7-9.4-1.5-18.8-2.3-28.2
		c-3.9-46.9-7.7-93.9-11.8-140.8c-1.3-14.7-1.9-29.4-4.2-44c-0.9-5.4-2.3-11.5-0.7-16.3c1.6-4.7,0.7-8.4,0-12.6
		c-0.6-3.6-1.7-7.2-2.4-10.8c-2.1-10.8-9.4-15.5-20.2-13c-41.8,9.5-83.6,18.9-125.3,28.5c-15.2,3.5-55.8,12.5-60.8,14.1
		c5.1,0.1,30-1.7,37.3-2.4c28.9-2.7,57.8-4.8,86.6-7.6c16.4-1.6,33-1.5,49.4-3.5c8.1-1,16.4-2.2,24.7-1.4c1,0.1,2.4-0.4,2.5,1.3
		c0.1,1.5-1.1,1.1-2,1.1c-9.6-0.4-19.1,1.5-28.6,2.1c-36.1,2.2-115.1,7.4-118.7,11.4c5-0.1,8.9,0.6,12.8-0.4
		c8.5,0.1,82.3-0.1,107.4-0.9c11.5-0.4,19.5,3.4,23.9,14.1c0.1,3.8,0.2,7.7,0.2,11.5c0.5,38.5,1.1,77.1,1.6,115.6
		c0.4,31.7,0.8,63.5,1,95.2C-78.2,488.9-76.3,489.8-72.4,488.6z M-329.2,379.9c0.4,0,0.8,0,1.2,0c0,36.8,0,73.5,0,110.3
		c0,10.8,5,15.9,15.8,15.9c12,0,24,0,36-0.1c59.1-0.5,118.2-1.1,177.3-1.6c9.3-0.1,14.6-5.3,14.7-14.9c0-7.2,0-14.4-0.1-21.6
		C-84.6,402-85,336-85.2,270.1c0-13.3-5.7-19.2-19.1-19.1c-69.4,0.5-138.9,1-208.3,1.6c-11.5,0.1-16.6,5.1-16.6,16.5
		C-329.3,306-329.2,343-329.2,379.9z M-106.7,173.5c-3.5-0.1-6.5,1.5-9.5,2.9c-37.6,18.2-75.1,36.3-112.7,54.5
		c-1.3,0.6-4.1,0.7-3.3,2.8c0.8,2.3,3.1,0.7,4.8,0.4c25.9-5.9,51.8-11.8,77.7-17.7c20.2-4.6,40.3-9.2,60.5-13.8c2-0.5,5-0.4,3-4
		c-3.5-6.3-5.9-13.1-9.9-19.2C-98.6,175.5-102.5,174.1-106.7,173.5z"/>
	<path id="XMLID_1011_" class="st1" d="M-197.4,439.9c-2.1,9.7-2.1,9.7,3.7,13.3c-32.7,0-64.1,0.1-95.6-0.1
		c-10.9-0.1-9.6-11-13.8-17c-3.4-4.9,0.7-8.2,3.8-10.8c3.5-3,4.2-6.3,4-10.5c-0.2-4.7-1.1-9.6,5.5-11.9c3.7-1.3,0.9-6.1,1.8-9.1
		c0.7-2.4-1.8-6.7,1.9-6.9c4.7-0.2,2.3,4.5,2.9,7.1c0.2,0.9,0.4,1.7,0.6,2.9c9-1.8,17.8-6.4,26.7,0.6c2.7,2.1,6.8,0.2,8.1-3.6
		c1.4-4,0.1-7.4-4.3-8.6c-1.7-0.5-3.6-0.4-7-0.6c19.2-13.3,37.4-25.8,55.5-38.5c10-7,20.3-13.6,29.8-21.5c3.7-3.1,5.9-5.5,5.3-10.4
		c-0.5-4.1,0.3-8.2,4.7-10.1c3.9-1.7,7.5,0.1,10.1,2.7c17.2,17.6,27,38.7,26.5,63.4c-0.2,12.2-7.4,14.7-17.4,7.9
		c-7.2-4.8-15.3-2-22.8-0.4c-4.5,1-2,5.7-2.5,8.7c0.1,1.8,1.5,4.1-2.5,3.8c-7.3-0.5-14.7-0.4-22-0.4c-13.5,0-27,0-40.4,0
		c19.3,2,38.5,2.3,57.8,1.8c6.9-0.2,8.8,2.2,7.3,8.4c-13.1-2-30.2,8.4-32.4,19.8c-0.4,2.1,1.1,3.1,3.2,2.3
		c12.3-4.5,26.9-1.5,37.5-11.6c1.9-1.8,5.2-1.3,8-1c9.7,1.2,18.3,4.9,25.9,10.8c2.9,2.3,6.8,4.7,5.3,8.8c-1.7,4.5-6.7,4.4-10.4,3.6
		c-8.5-1.7-17-2.1-25.6-1.5c-1.8,0.1-3.6,0.4-5.3,0.6c-0.9,3.5,5.3,2.4,3.5,5.1c-2.4,3.6-6.2-0.4-9.4,0.5c-0.4-2-0.8-3.9-1.2-5.9
		c-8.2,5.3-17.3,2.2-26,2.5c-2.3,0.1-5.9-2.7-6.8,0.3C-204.9,438.9-200.7,439.5-197.4,439.9z M-209.8,354.3c-1.4,1-3.8,1.5-3.4,3.7
		c0.6,2.7,2.9,0.7,4.4,1c-5.4,9.6-18.9,6.9-24.7,16.3c-1.4,2.4-7.4,1.4-5.5,6.6c1.9,5.1,6.2,2.9,9.5,2.4c22-3.5,44-7.2,66-10.9
		c2.3-0.4,5.1-0.1,6.2-3c1,0.1,2.1,0.1,3.1,0.2c0.2,0.2,0.4,0.5,0.7,0.6c0.2,0.1,0.6,0.1,0.7,0c2.3-2.2-1.1-6.7,3-8.5
		c2.1,1.4,1.5,3.4,2,5c1.9,5.8,5.5,11.6,11.5,11.1c6.2-0.5,4.8-7.4,4.9-12.1c0.3-14.2-5.9-26.7-11.6-39.1c-3.2-7-7.7-2-11.5-0.7
		c-4.6,1.7-8.8,4.1-4.1,9.9c-5.8,0.2-5.1-6.2-8.5-8.7c-3.9-2.9-5.5-2.5-6.2,2.1c-11.7,4.3-20.7,12.8-30.5,20.1
		C-205.7,351.6-207.8,352.9-209.8,354.3z M-285.5,407.5c-8.1,3.7-9,10-2.6,17.7c-0.5,1.2-1.1,2.4-1.6,3.6c-3,0.9-6.7-4.7-9.2,0.9
		c-2.4,5.3,1.7,8.1,4,11.4c4.8-2.3,5.3-6.8,6.9-10.5c3.2,3.3,7.1,3.9,11.5,3.9c19.2-0.2,38.3-0.2,57.5-0.4c1.4,0,3.8,1.4,4.2-1.9
		c-2.5-2.2-5.8-1-8.7-1.6c0-0.6,0-1.2-0.2-1.8c1.9-6.6,2.4-13.8,0.1-19.7c-1.9-4.8-8.8-1.2-13.3-2.1c-0.3-0.1-0.7,0.1-0.9-0.1
		c-5.5-5-6.7-0.5-6.5,3.5c0.2,3.4-1.6,5-3.7,5c-2.7,0-5.2-1.4-3.5-5.4c1.3-3.1-1.3-3.2-3.6-3.5c-16.1-1.5-17.3-0.4-17,15.9
		c0,2.1,0.5,4.2,0.8,6.3c0,0.9,0,1.7,0,2.6c-5.4-2.1-10.9-4.2-16.3-6.4c7.2-4.1,2.5-10.8,3.4-16.2c5,0.4,2.9,4.3,3.5,7
		c0.6,3.1-1.5,7,3.6,11c0-6.7,0.4-11.8-0.1-16.8C-277.9,403.3-281.3,403.3-285.5,407.5z M-205.3,443.4c-0.7-4.8-3.6-5.5-7.4-5.7
		c-44.9-2.3-71.8-0.6-76.9,5.7C-261.2,443.4-233.3,443.4-205.3,443.4z M-165.7,321.5c-1,3-0.8,5,1.8,5.7c2.4,0.6,12.8-8.4,12.4-11
		c-0.7-4.7-4.8-8.1-8.7-7.8C-169.4,309.2-162.4,318.1-165.7,321.5z M-278.5,398c6.6,6.7,13.6,7.9,22,4.7
		C-264.4,401-271.4,399.5-278.5,398z M-214.3,360c-0.4-0.6-0.8-1.4-1-1.4c-0.8,0.1-1.5,0.5-2.2,0.9c0.4,0.5,0.7,1.4,1.1,1.4
		C-215.7,360.9-215,360.3-214.3,360z"/>
	<path id="XMLID_525_" class="st1" d="M-208.9,359.1c0.6-0.7,1.1-1.5,1.7-2.2c2.1-1.5,4.3-3,6.4-4.5c10.2-6.2,20.5-12.3,29.4-20.3
		c2.4,0.6,3.8,1.9,3.2,4.6c-12,3.9-21.2,12.7-32,18.6C-203,356.8-205,360.3-208.9,359.1z"/>
	<path id="XMLID_524_" class="st1" d="M-315.4,439.7c-1.6,0.7-1.7,0.1-1.2-1.2C-315.9,438.5-315.5,438.9-315.4,439.7z"/>
</g>
<g>
	<path d="M-245.6,629.9c-1.6,0.8-5.1,1.7-9.7,1.7c-13.1,0-19.8-8.2-19.8-19c0-12.9,9.2-20.1,20.7-20.1c4.4,0,7.8,0.9,9.3,1.7
		l-1.7,6.8c-1.7-0.7-4.2-1.4-7.2-1.4c-6.8,0-12.1,4.1-12.1,12.5c0,7.6,4.5,12.4,12.1,12.4c2.6,0,5.4-0.6,7.1-1.2L-245.6,629.9z"/>
	<path d="M-207.1,611.6c0,12.4-7.5,19.9-18.6,19.9c-11.2,0-17.8-8.5-17.8-19.3c0-11.3,7.2-19.8,18.4-19.8
		C-213.4,592.5-207.1,601.2-207.1,611.6z M-234.4,612.1c0,7.4,3.5,12.6,9.2,12.6c5.8,0,9.1-5.5,9.1-12.9c0-6.8-3.3-12.6-9.2-12.6
		C-231,599.3-234.4,604.8-234.4,612.1z"/>
	<path d="M-193.5,621.2l-2.7,9.7h-8.9l11.6-37.8h11.2l11.7,37.8h-9.2l-2.9-9.7H-193.5z M-183.9,614.8l-2.4-8
		c-0.7-2.2-1.3-5.1-1.9-7.3h-0.1c-0.6,2.2-1.1,5.1-1.7,7.3l-2.2,8H-183.9z"/>
	<path d="M-165.2,622.1c2.3,1.2,5.8,2.4,9.5,2.4c3.9,0,6-1.6,6-4.1c0-2.4-1.8-3.7-6.3-5.3c-6.3-2.2-10.4-5.7-10.4-11.2
		c0-6.5,5.4-11.4,14.3-11.4c4.3,0,7.4,0.9,9.7,1.9l-1.9,6.9c-1.5-0.7-4.2-1.8-7.9-1.8s-5.5,1.7-5.5,3.6c0,2.4,2.1,3.5,7,5.3
		c6.7,2.5,9.8,6,9.8,11.3c0,6.3-4.9,11.8-15.3,11.8c-4.3,0-8.6-1.2-10.7-2.4L-165.2,622.1z"/>
	<path d="M-127.9,600.3h-10.2v-7.2h29.1v7.2h-10.3V631h-8.6V600.3z"/>
	<path d="M-81.9,615h-13.9v9h15.5v7h-24.1v-37.8h23.4v7h-14.8v7.9h13.9V615z"/>
	<path d="M-74.5,593.6c2.8-0.4,6.8-0.8,11.4-0.8c5.6,0,9.5,0.8,12.2,3c2.2,1.8,3.5,4.4,3.5,7.9c0,4.8-3.4,8.1-6.7,9.3v0.2
		c2.6,1.1,4.1,3.6,5.1,7.1c1.2,4.3,2.4,9.2,3.1,10.7h-8.8c-0.6-1.1-1.5-4.2-2.6-8.8c-1-4.7-2.6-6-6.1-6.1H-66V631h-8.5V593.6z
		 M-66,609.9h3.4c4.3,0,6.8-2.1,6.8-5.4c0-3.5-2.4-5.2-6.3-5.3c-2.1,0-3.3,0.2-3.9,0.3V609.9z"/>
</g>
<g>
	<path class="st1" d="M-251.3,629.9c-1.6,0.8-5.1,1.7-9.7,1.7c-13.1,0-19.8-8.2-19.8-19c0-12.9,9.2-20.1,20.7-20.1
		c4.4,0,7.8,0.9,9.3,1.7l-1.7,6.8c-1.7-0.7-4.2-1.4-7.2-1.4c-6.8,0-12.1,4.1-12.1,12.5c0,7.6,4.5,12.4,12.1,12.4
		c2.6,0,5.4-0.6,7.1-1.2L-251.3,629.9z"/>
	<path class="st1" d="M-212.7,611.6c0,12.4-7.5,19.9-18.6,19.9c-11.2,0-17.8-8.5-17.8-19.3c0-11.3,7.2-19.8,18.4-19.8
		C-219.1,592.5-212.7,601.2-212.7,611.6z M-240.1,612.1c0,7.4,3.5,12.6,9.2,12.6c5.8,0,9.1-5.5,9.1-12.9c0-6.8-3.3-12.6-9.2-12.6
		C-236.7,599.3-240.1,604.8-240.1,612.1z"/>
	<path class="st1" d="M-199.2,621.2l-2.7,9.7h-8.9l11.6-37.8h11.2l11.7,37.8h-9.2l-2.9-9.7H-199.2z M-189.6,614.8l-2.4-8
		c-0.7-2.2-1.3-5.1-1.9-7.3h-0.1c-0.6,2.2-1.1,5.1-1.7,7.3l-2.2,8H-189.6z"/>
	<path class="st1" d="M-170.9,622.1c2.3,1.2,5.8,2.4,9.5,2.4c3.9,0,6-1.6,6-4.1c0-2.4-1.8-3.7-6.3-5.3c-6.3-2.2-10.4-5.7-10.4-11.2
		c0-6.5,5.4-11.4,14.3-11.4c4.3,0,7.4,0.9,9.7,1.9l-1.9,6.9c-1.5-0.7-4.2-1.8-7.9-1.8s-5.5,1.7-5.5,3.6c0,2.4,2.1,3.5,7,5.3
		c6.7,2.5,9.8,6,9.8,11.3c0,6.3-4.9,11.8-15.3,11.8c-4.3,0-8.6-1.2-10.7-2.4L-170.9,622.1z"/>
	<path class="st1" d="M-133.6,600.3h-10.2v-7.2h29.1v7.2H-125V631h-8.6V600.3z"/>
	<path class="st1" d="M-87.6,615h-13.9v9H-86v7h-24.1v-37.8h23.4v7h-14.8v7.9h13.9V615z"/>
	<path class="st1" d="M-80.1,593.6c2.8-0.4,6.8-0.8,11.4-0.8c5.6,0,9.5,0.8,12.2,3c2.2,1.8,3.5,4.4,3.5,7.9c0,4.8-3.4,8.1-6.7,9.3
		v0.2c2.6,1.1,4.1,3.6,5.1,7.1c1.2,4.3,2.4,9.2,3.1,10.7h-8.8c-0.6-1.1-1.5-4.2-2.6-8.8c-1-4.7-2.6-6-6.1-6.1h-2.6V631h-8.5V593.6z
		 M-71.7,609.9h3.4c4.3,0,6.8-2.1,6.8-5.4c0-3.5-2.4-5.2-6.3-5.3c-2.1,0-3.3,0.2-3.9,0.3V609.9z"/>
</g>
</svg>
