<?xml version="1.0" encoding="utf-8"?>
<!-- Generator: Adobe Illustrator 19.0.0, SVG Export Plug-In . SVG Version: 6.00 Build 0)  -->
<svg version="1.1" id="Layer_1" xmlns="http://www.w3.org/2000/svg" xmlns:xlink="http://www.w3.org/1999/xlink" x="0px" y="0px"
	 viewBox="-71 145 144 144" style="enable-background:new -71 145 144 144;" xml:space="preserve">
<style type="text/css">
	.st0{fill:#010101;}
</style>
<g>
	<path id="XMLID_547_" class="st0" d="M31.7,231.5c2.1,2.1,2.3,5.5,0.3,7.4c-1.9,1.9-5.3,1.8-7.4-0.3L2.7,214.5
		c-1.5,0-3.1-0.3-5.1-1.1l8-8l5.2,5.2L31.7,231.5z M-14.3,205.1l9.8-9.8l-10-10c-7.9-7.9-15.8-15.7-20.5-20.5
		c-0.6-0.6-1.5-1-2.4-0.9c-0.6,0.1-1.6,0.7-1.8,2.3c-0.7,6.7,4.2,18.3,21.6,35.7C-16.5,203.1-15.4,204.1-14.3,205.1z M3.9,177.7
		l1.3-1.3l0,0L3.9,177.7z M40.7,175.5c-1.1-1.1-2.7-1.4-3.4-0.6l-15.6,15.6c-0.8,0.8-2.3,0.6-3.2-0.4c-1-1-1.2-2.4-0.4-3.2
		l15.6-15.6c0.8-0.8,0.5-2.3-0.6-3.4c-1.1-1.1-2.7-1.4-3.4-0.6l-15.7,15.6c-0.8,0.8-2.3,0.6-3.2-0.4s-1.2-2.4-0.4-3.2l15.6-15.6
		c0.8-0.8,0.5-2.3-0.6-3.4c-1.1-1.1-2.7-1.4-3.4-0.6L5.2,176.4c-5.5,5.6-3.7,9.3-0.6,12.8l-43.4,43.4c-2.1,2.1-2.3,5.5-0.3,7.4
		s5.3,1.8,7.4-0.3l43.4-43.4c3.5,3.1,7.3,4.9,12.8-0.6l16.8-16.8C42.1,178.1,41.9,176.6,40.7,175.5z"/>
	<g>
		<path d="M-31.3,274.1c-0.6,0.3-2,0.7-3.8,0.7c-5.1,0-7.7-3.2-7.7-7.4c0-5,3.6-7.8,8.1-7.8c1.7,0,3,0.3,3.6,0.7l-0.7,2.6
			c-0.7-0.3-1.6-0.5-2.8-0.5c-2.6,0-4.7,1.6-4.7,4.9c0,3,1.8,4.8,4.7,4.8c1,0,2.1-0.2,2.8-0.5L-31.3,274.1z"/>
		<path d="M-25.8,259.8v8.5c0,2.5,1,3.8,2.7,3.8c1.8,0,2.7-1.2,2.7-3.8v-8.5h3.3v8.3c0,4.6-2.3,6.7-6.1,6.7c-3.7,0-5.9-2.1-5.9-6.8
			v-8.2H-25.8z"/>
		<path d="M-11.4,262.6h-4v-2.8H-4v2.8h-4v11.9h-3.3V262.6z"/>
		<path d="M-2.2,259.8h3.3v11.9H7v2.8h-9.2V259.8z"/>
		<path d="M17.8,268.3h-5.4v3.5h6.1v2.7H9v-14.7h9.1v2.7h-5.8v3.1h5.4V268.3z"/>
		<path d="M20.7,260c1.1-0.2,2.7-0.3,4.4-0.3c2.2,0,3.7,0.3,4.8,1.2c0.9,0.7,1.4,1.7,1.4,3.1c0,1.9-1.3,3.2-2.6,3.6v0.1
			c1,0.4,1.6,1.4,2,2.8c0.5,1.7,0.9,3.6,1.2,4.2h-3.4c-0.2-0.4-0.6-1.6-1-3.4c-0.4-1.8-1-2.3-2.4-2.4h-1v5.8h-3.3V260z M24,266.3
			h1.3c1.7,0,2.6-0.8,2.6-2.1c0-1.4-0.9-2-2.5-2.1c-0.8,0-1.3,0.1-1.5,0.1V266.3z"/>
		<path d="M36.6,274.5v-6l-4.7-8.7h3.8l1.5,3.5c0.5,1.1,0.8,1.9,1.1,2.8h0c0.3-0.9,0.7-1.8,1.1-2.8l1.5-3.5h3.7l-4.9,8.6v6.1H36.6z"
			/>
	</g>
</g>
</svg>
