<?xml version="1.0" encoding="utf-8"?>
<!-- Generator: Adobe Illustrator 19.0.0, SVG Export Plug-In . SVG Version: 6.00 Build 0)  -->
<svg version="1.1" id="Layer_1" xmlns="http://www.w3.org/2000/svg" xmlns:xlink="http://www.w3.org/1999/xlink" x="0px" y="0px"
	 viewBox="-417 141 512 512" style="enable-background:new -417 141 512 512;" xml:space="preserve">
<style type="text/css">
	.st0{fill-rule:evenodd;clip-rule:evenodd;fill:#BD2F32;}
	.st1{fill:#FFFFFF;}
</style>
<g id="XMLID_29_">
	<rect id="XMLID_28_" x="-417" y="141" class="st0" width="512" height="512"/>
	<g id="XMLID_30_">
		<rect id="XMLID_31_" x="-344.7" y="580.2" class="st1" width="367.3" height="2.1"/>
	</g>
</g>
<path id="XMLID_547_" class="st1" d="M-37.1,472.7c8.4,8.4,9.2,21.9,1.2,29.5c-7.6,7.6-21.1,7.2-29.5-1.2l-87.4-96.1
	c-6,0-12.4-1.2-20.3-4.4l31.9-31.9l20.7,20.7L-37.1,472.7z M-220.6,367.4l39.1-39.1l-39.9-39.9c-31.5-31.5-63-62.6-81.8-81.8
	c-2.4-2.4-6-4-9.6-3.6c-2.4,0.4-6.4,2.8-7.2,9.2c-2.8,26.7,16.8,73,86.2,142.4C-229.4,359.4-225,363.4-220.6,367.4z M-148,258
	l5.2-5.2l0,0L-148,258z M-1.2,249.3c-4.4-4.4-10.8-5.6-13.6-2.4L-77,309.1c-3.2,3.2-9.2,2.4-12.8-1.6c-4-4-4.8-9.6-1.6-12.8
	l62.2-62.2c3.2-3.2,2-9.2-2.4-13.6c-4.4-4.4-10.8-5.6-13.6-2.4l-62.6,62.2c-3.2,3.2-9.2,2.4-12.8-1.6c-3.6-4-4.8-9.6-1.6-12.8
	l62.2-62.2c3.2-3.2,2-9.2-2.4-13.6c-4.4-4.4-10.8-5.6-13.6-2.4l-67,66.6c-21.9,22.3-14.8,37.1-2.4,51.1l-173.1,173.1
	c-8.4,8.4-9.2,21.9-1.2,29.5c8,7.6,21.1,7.2,29.5-1.2l173.1-173.1c14,12.4,29.1,19.5,51.1-2.4l67-67C4.4,259.6,3.6,253.7-1.2,249.3z
	"/>
<g>
	<path d="M-268.3,639.9c-2,1-6.7,2.3-12.7,2.3c-17,0-25.7-10.7-25.7-24.7c0-16.7,12-26,27-26c5.7,0,10,1,12,2.3l-2.3,8.7
		c-2.3-1-5.3-1.7-9.3-1.7c-8.7,0-15.7,5.3-15.7,16.3c0,10,6,16,15.7,16c3.3,0,7-0.7,9.3-1.7L-268.3,639.9z"/>
	<path d="M-250,592.3v28.3c0,8.3,3.3,12.7,9,12.7c6,0,9-4,9-12.7v-28.3h11v27.7c0,15.3-7.7,22.3-20.3,22.3c-12.3,0-19.7-7-19.7-22.7
		v-27.3H-250z"/>
	<path d="M-202,601.6h-13.3v-9.3h38v9.3h-13.3v39.7h-11v-39.7H-202z"/>
	<path d="M-171.3,592.3h11v39.7h19.7v9.3h-30.7C-171.3,641.3-171.3,592.3-171.3,592.3z"/>
	<path d="M-104.7,620.6h-18v11.7h20.3v9H-134v-49h30.3v9H-123v10.3h18v9H-104.7z"/>
	<path d="M-95,592.9c3.7-0.7,9-1,14.7-1c7.3,0,12.3,1,16,4c3,2.3,4.7,5.7,4.7,10.3c0,6.3-4.3,10.7-8.7,12v0.3
		c3.3,1.3,5.3,4.7,6.7,9.3c1.7,5.7,3,12,4,14H-69c-0.7-1.3-2-5.3-3.3-11.3c-1.3-6-3.3-7.7-8-8h-3.3v19.3h-11v-49H-95z M-84,613.9
		h4.3c5.7,0,8.7-2.7,8.7-7c0-4.7-3-6.7-8.3-7c-2.7,0-4.3,0.3-5,0.3v13.7H-84z"/>
	<path d="M-42,641.3v-20l-15.7-29H-45l5,11.7c1.7,3.7,2.7,6.3,3.7,9.3l0,0c1-3,2.3-6,3.7-9.3l5-11.7h12.3l-16.3,28.7v20.3H-42z"/>
</g>
<g>
	<path class="st1" d="M-274,639.9c-2,1-6.7,2.3-12.7,2.3c-17,0-25.7-10.7-25.7-24.7c0-16.7,12-26,27-26c5.7,0,10,1,12,2.3l-2.3,8.7
		c-2.3-1-5.3-1.7-9.3-1.7c-8.7,0-15.7,5.3-15.7,16.3c0,10,6,16,15.7,16c3.3,0,7-0.7,9.3-1.7L-274,639.9z"/>
	<path class="st1" d="M-255.7,592.3v28.3c0,8.3,3.3,12.7,9,12.7c6,0,9-4,9-12.7v-28.3h11v27.7c0,15.3-7.7,22.3-20.3,22.3
		c-12.3,0-19.7-7-19.7-22.7v-27.3H-255.7z"/>
	<path class="st1" d="M-207.7,601.6H-221v-9.3h38v9.3h-13.3v39.7h-11v-39.7H-207.7z"/>
	<path class="st1" d="M-177,592.3h11v39.7h19.7v9.3H-177C-177,641.3-177,592.3-177,592.3z"/>
	<path class="st1" d="M-110.3,620.6h-18v11.7h20.3v9h-31.7v-49h30.3v9h-19.3v10.3h18v9H-110.3z"/>
	<path class="st1" d="M-100.7,592.9c3.7-0.7,9-1,14.7-1c7.3,0,12.3,1,16,4c3,2.3,4.7,5.7,4.7,10.3c0,6.3-4.3,10.7-8.7,12v0.3
		c3.3,1.3,5.3,4.7,6.7,9.3c1.7,5.7,3,12,4,14h-11.3c-0.7-1.3-2-5.3-3.3-11.3c-1.3-6-3.3-7.7-8-8h-3.3v19.3h-11v-49H-100.7z
		 M-89.7,613.9h4.3c5.7,0,8.7-2.7,8.7-7c0-4.7-3-6.7-8.3-7c-2.7,0-4.3,0.3-5,0.3v13.7H-89.7z"/>
	<path class="st1" d="M-47.7,641.3v-20l-15.7-29h12.7l5,11.7c1.7,3.7,2.7,6.3,3.7,9.3l0,0c1-3,2.3-6,3.7-9.3l5-11.7H-21l-16.3,28.7
		v20.3H-47.7z"/>
</g>
</svg>
