<?xml version="1.0" encoding="utf-8"?>
<!-- Generator: Adobe Illustrator 19.0.0, SVG Export Plug-In . SVG Version: 6.00 Build 0)  -->
<svg version="1.1" id="Layer_1" xmlns="http://www.w3.org/2000/svg" xmlns:xlink="http://www.w3.org/1999/xlink" x="0px" y="0px"
	 viewBox="0 0 144 144" style="enable-background:new 0 0 144 144;" xml:space="preserve">
<style type="text/css">
	.st0{fill:#010101;}
</style>
<path id="XMLID_547_" class="st0" d="M110.5,110.8c2.6,2.6,2.8,6.8,0.4,9.2c-2.4,2.4-6.6,2.2-9.2-0.4L74.5,89.7
	c-1.9,0-3.9-0.4-6.3-1.4l9.9-9.9l6.5,6.5L110.5,110.8z M53.4,78l12.2-12.2L53.2,53.4C43.4,43.6,33.6,33.9,27.7,28
	c-0.8-0.8-1.9-1.2-3-1.1c-0.8,0.1-2,0.9-2.2,2.9c-0.9,8.3,5.2,22.7,26.8,44.3C50.7,75.5,52,76.8,53.4,78z M76,44l1.6-1.6
	c0,0,0,0,0,0L76,44z M121.7,41.3c-1.4-1.4-3.3-1.7-4.2-0.7L98.1,59.9c-1,1-2.8,0.7-4-0.5c-1.2-1.2-1.5-3-0.5-4L113,36
	c1-1,0.6-2.9-0.7-4.2c-1.4-1.4-3.3-1.7-4.2-0.7L88.6,50.4c-1,1-2.8,0.7-4-0.5c-1.2-1.2-1.5-3-0.5-4l19.4-19.3c1-1,0.6-2.9-0.7-4.2
	c-1.4-1.4-3.3-1.7-4.2-0.7L77.6,42.4C70.8,49.3,73,54,76.9,58.3l-53.8,53.8c-2.6,2.6-2.8,6.8-0.4,9.2c2.4,2.4,6.6,2.2,9.2-0.4
	l53.8-53.8c4.3,3.9,9.1,6.1,15.9-0.8l20.9-20.9C123.4,44.5,123.1,42.6,121.7,41.3z"/>
</svg>
