<?xml version="1.0" encoding="utf-8"?>
<!-- Generator: Adobe Illustrator 19.0.0, SVG Export Plug-In . SVG Version: 6.00 Build 0)  -->
<svg version="1.1" id="Layer_1" xmlns="http://www.w3.org/2000/svg" xmlns:xlink="http://www.w3.org/1999/xlink" x="0px" y="0px"
	 viewBox="306 -234 900 900" style="enable-background:new 306 -234 900 900;" xml:space="preserve">
<style type="text/css">
	.st0{fill:#544D4D;}
	.st1{fill:#C32E1F;}
	.st2{fill:#5D5D5D;}
	.st3{fill:#474343;}
	.st4{fill:#5D5D5D;stroke:#2D2C2C;stroke-width:2.1247;stroke-miterlimit:10;}
	.st5{fill:#3D3939;}
	.st6{fill:#FFFFFF;}
</style>
<g>
	<g>
		<path class="st0" d="M1146.3,221.5c-5.6-8-14.2-11.2-32.3-12.9c-27.8-2.7-102,2.7-134.5-5.2c-2.7-12.9-3-53.5-10.5-60.7l-16,11.9
			c2.7,2.6,4.2,20.1,5.5,35.3c-16-21.4-19.3-62.6-20-70.7c-1-12.5,3.2-20.9-4.9-23.7c0,0-16.2,12.7-16.4,11.9
			c0.5,1.4,1.2,9.3,1.5,13.4c1.7,20.6,5.3,75.5,42.9,92.3c25.6,74.8,151.1,68.7,186.8,38.9C1156.9,245,1152,229.7,1146.3,221.5z
			 M1106.9,245.1c-61.7,9.8-101.3-7.4-118.4-26.1c35.6,5.3,100.1,1,125.5,3.5c12.1,1.2,20,3,25.5,6.5
			C1137.9,235.1,1130.2,241.4,1106.9,245.1z"/>
		<path class="st1" d="M660.8,283.8c0.6,4.1-2.3,4.2,0.1,6.5c2.4,2.2,13,9.3,25.6,9.3s5.7-18.6,5.5-19s-3.7-2.6-3.7-2.6l-14.6-1.5
			l-8.8,2.5L660.8,283.8z"/>
		<path class="st2" d="M675.7,288.4c0,8.6-7.8,11.4-14.7,6.3l-109.9-81.8c-6.9-5.1-12.5-16.4-12.5-24.9V-24.3
			c0-8.6,5.9-11.8,13.1-7.1L660.4,39c7.2,4.7,15.3,15.5,15.3,24.1V288.4L675.7,288.4z"/>
		<path class="st2" d="M1024.7,285.2c-0.2,8.6-1.1,13.3-9.7,13.3H686.8c-8.6,0-13.4-3.7-13.4-12.3v-223c0-8.6,4.8-15.6,13.4-15.6
			h332.6c8.6,0,9.3,6.1,9.2,14.7L1024.7,285.2z"/>
		<path class="st3" d="M545.6-26.9c0.4,0,1.2,0.2,2.4,1.1l108.7,70.4c6.4,4.2,22.2,9.6,30.1,9.6h332.6c2.4,0,4.6,0.9,6.2,2.6
			c1.6,1.7,2.5,3.9,2.5,6.3l-3.8,225.2c-0.1,4.9-4.3,9.1-9.3,9.1H687c-0.1,0-0.2,0-0.3,0h-0.1h-0.1h-0.2
			c-10.3-0.1-19.2-6.1-20.9-7.6l-0.2-0.2l-0.3-0.2L555,207.6c-5.2-3.9-9.9-13.1-9.9-19.6V-24.3C545.2-25.7,545.5-26.5,545.6-26.9
			L545.6-26.9z M545.5-33.5c-4.1,0-6.9,3.4-6.9,9.3V188c0,8.6,5.6,19.8,12.5,24.9L661,294.7c2.4,2.2,13,9.3,25.6,9.3h0.1
			c0.1,0,0.1,0,0.2,0H1015c8.6,0,15.7-7,15.9-15.6l3.9-225.2c0.1-8.6-6.8-15.6-15.3-15.6H686.8c-6.4,0-20.9-4.9-26.5-8.5L551.6-31.3
			C549.4-32.8,547.3-33.5,545.5-33.5L545.5-33.5z"/>
		<g>
			<path class="st2" d="M674.8,47.6l-19.6,53.3c-3,8.1-11.1,10.6-18.2,5.7L531,36.2c-7-4.9-10.5-15.6-7.7-23.7l19.5-51.8L674.8,47.6
				z"/>
		</g>
		<g>
			<path class="st3" d="M644.5,113c-3.3,0-6.7-1.1-9.7-3.2l-106-70.4c-8.5-6-12.5-18.4-9.1-28.2l20.9-52.4l9.1,0.9l-19.3,50.6
				c-2.2,6.2,0.6,14.6,5.9,18.3l101.1,67.2c2.3,1.6,4.7,2.1,6.9,1.4s3.9-2.5,4.8-5.1l19.5-52.7l10.7,7.5l-20.5,55.2
				c-1.8,5-5.5,8.7-10.1,10.1C647.4,112.8,645.9,113,644.5,113z"/>
		</g>
		<g>
			<path class="st4" d="M1033.7,46.4l-0.1-0.7l-0.8-0.4L860.1-43.4c0,0-309.5,0-314.5,0s-2.8,4.1-2.8,4.1l140.7,89.7L1033.7,46.4z"
				/>
			<path class="st4" d="M685.4,46.2l-10.6,1.5L541.4-37.6c-0.8-0.7-1.6-2.1-1.1-3.5c0.8-2.3,4-2.3,5.3-2.3L685.4,46.2z"/>
			<path class="st4" d="M850.6-43.4l180,92.6h2.6l2.1-0.5l2.4-0.6l-0.4-1.6L870-40.9c0,0-4.8-2.5-11.1-2.5H850.6z"/>
		</g>
		<g>
			<g>
				<path class="st2" d="M677.1,47l9.8,52.4c1.6,8.4,9.9,15.4,18.5,15.4l328.7,1.2c8.6,0,14.1-6.8,12.3-15.2l-11.7-54.3L677.1,47z"
					/>
			</g>
		</g>
		<g>
			<path class="st3" d="M1034.3,120C1034.2,120,1034.2,120,1034.3,120l-328.8-1.2c-10.4,0-20.4-8.4-22.3-18.6L673,46l9.4-1.8l3.1,2
				l8.7,47.7c1.2,6.6,8,12.2,14.7,12.2l322.1,1.2c2.9,0,5.4-1.1,7-3s0.9-4.6,0.3-7.5l-13-51.8l12.2,1.6l13,53.5c1.1,5.2,0,10.3-3,14
				C1044.2,117.9,1039.6,120,1034.3,120z"/>
		</g>
		<polygon class="st5" points="645.7,164.3 627.5,151 627.5,269.7 645.7,283.3 		"/>
		<polygon class="st5" points="574.9,111.8 556.7,98.6 556.7,217.2 574.9,230.8 		"/>
		<polygon class="st6" points="750.6,27.1 725.6,12.6 672.9,12.6 695.2,27.1 		"/>
		<g>
			<path class="st0" d="M468.6,284.9c-52.5,0-82.3-4.1-97.3-13.2c-3.7-2.2-6.4-4.8-8.4-7.6c-4.3-6.1-5.1-13.5-2.1-20.9
				c8.7-22,41.5-23.9,135.1-21.6c0.7,0,1.4,0,2.1,0c43.8,0,50.3-61.2,53.3-96.7c1.1-13.9,5.5-15.8,5.5-26.4c0,0,18,14.1,18.2,13.3
				c-0.5,1.6-1.3,10.4-1.7,14.9c-2.2,27.2-7.4,108.1-75.2,108.1c-0.9,0-1.8,0-2.8,0c-43.3-1.1-99.4-2.9-117.5,2.9
				c-2.6,0.8-4.8,2-6.3,3.4c-5.7,5-4.2,12.7,6.7,18c5.6,2.7,13.8,4.8,24.8,5.5c29.5,1.9,92.4-2,121.3-3c80.3-2.9,83-16,91.5-40.6
				c3.6-10.6,3.4-61.5,12.3-70l17.7,13.3c-5,4.8-6.1,55.1-9.1,63.9c-9.4,27.2-16.1,52-111.6,55.5
				C503.8,284.5,485.1,284.9,468.6,284.9z"/>
		</g>
		<g>
			<path class="st5" d="M615.7,221c-5.5,15.9-8.6,27-31.7,33.6c-5.6,1.6,19.7,15.8,25.3,12.6c17.9-10.3,22.2-24.3,27.3-39
				c3-8.9,4.1-59.1,9.1-63.9L628,151C619.1,159.6,619.3,210.4,615.7,221z"/>
			<path class="st5" d="M508.9,220.2c4.6,3.3,9.4,6.7,14.3,10.2c43.9-17.4,48.1-80.2,50-103.6c0.4-4.5,1.2-13.4,1.7-14.9
				c-0.3,0.8-18.2-13.3-18.2-13.3c-3.2,3.9-4.3,12.5-5.5,26.4C548.5,157.3,542.9,210.7,508.9,220.2z"/>
		</g>
	</g>
	<path class="st6" d="M902.4,243.8c3.5,3.5,3.7,8.8,0.5,12c-3.1,3.1-8.5,2.9-12-0.5l-35.4-38.9c-2.4,0-5.1-0.6-8.2-1.8l12.9-12.9
		l8.4,8.4L902.4,243.8z M827.9,201.2l15.9-15.9l-16.1-16.1c-12.8-12.8-25.5-25.5-33.3-33.3c-1.1-1.1-2.4-1.6-4-1.4
		c-1.1,0.2-2.6,1.2-2.9,3.8c-1.1,10.8,6.8,29.6,35,57.8C824.3,197.9,826.1,199.6,827.9,201.2z M857.5,156.8l2-2c0,0,0,0,0.1-0.1
		L857.5,156.8z M917,153.2c-1.8-1.8-4.3-2.2-5.5-1l-25.2,25.2c-1.3,1.3-3.6,1-5.2-0.7c-1.6-1.6-1.9-4-0.7-5.2l25.2-25.2
		c1.3-1.3,0.8-3.8-1-5.5c-1.8-1.8-4.3-2.2-5.5-1L873.9,165c-1.3,1.3-3.6,1-5.2-0.7c-1.6-1.7-1.9-4-0.7-5.2l25.2-25.2
		c1.3-1.3,0.8-3.8-1-5.5c-1.8-1.8-4.3-2.2-5.5-1l-27.3,27.3c-8.9,8.9-6,15.1-1,20.7l-70.1,70.1c-3.5,3.5-3.7,8.8-0.5,12
		c3.1,3.1,8.6,2.9,12-0.5l70.1-70.1c5.6,5.1,11.8,7.9,20.8-1l27.2-27.2C919.2,157.4,918.8,155,917,153.2z"/>
</g>
<g>
	<path d="M496.8,434.1c4.6-0.7,10.5-1.1,16.8-1.1c10.4,0,17.2,1.9,22.5,5.9c5.7,4.2,9.3,11,9.3,20.7c0,10.5-3.8,17.8-9.1,22.3
		c-5.8,4.8-14.6,7.1-25.4,7.1c-6.4,0-11-0.4-14.1-0.8V434.1z M509.3,479c1.1,0.2,2.8,0.2,4.3,0.2c11.3,0.1,18.6-6.1,18.6-19.2
		c0.1-11.4-6.6-17.5-17.3-17.5c-2.8,0-4.6,0.2-5.6,0.5V479z"/>
	<path d="M586.3,465.1H566v13h22.6v10.2h-35.1v-55h33.9v10.2H566V455h20.2V465.1z"/>
	<path d="M597.1,433.4h12.5v44.5h21.9v10.4h-34.3V433.4z"/>
	<path d="M651.3,433.4v55h-12.5v-55H651.3z"/>
	<path d="M675,488.3l-17.6-55H671l6.7,23.2c1.9,6.5,3.6,12.8,4.9,19.7h0.2c1.4-6.6,3.1-13.1,5-19.4l7-23.5H708l-18.5,55H675z"/>
	<path d="M746.6,465.1h-20.2v13H749v10.2h-35.1v-55h33.9v10.2h-21.4V455h20.2V465.1z"/>
	<path d="M757.5,434.1c4-0.7,9.9-1.1,16.6-1.1c8.2,0,13.9,1.2,17.8,4.3c3.3,2.6,5.1,6.4,5.1,11.5c0,7-5,11.8-9.7,13.5v0.2
		c3.8,1.5,6,5.2,7.3,10.3c1.7,6.2,3.4,13.4,4.5,15.5h-12.7c-0.9-1.6-2.2-6-3.8-12.8c-1.5-6.9-3.8-8.7-8.9-8.8h-3.8v21.6h-12.3V434.1
		z M769.8,457.8h4.9c6.2,0,9.9-3.1,9.9-7.9c0-5.1-3.4-7.6-9.1-7.7c-3,0-4.7,0.2-5.6,0.4V457.8z"/>
	<path d="M817,488.3v-22.5l-17.4-32.5h14.2l5.6,13.2c1.7,4,2.9,6.9,4.2,10.5h0.2c1.2-3.4,2.5-6.6,4.2-10.5l5.5-13.2h13.9l-18.1,32.1
		v22.9H817z"/>
	<path d="M869.9,434.1c3.3-0.7,9.9-1.1,16.1-1.1c7.6,0,12.2,0.7,16.2,3.1c3.8,2,6.6,5.8,6.6,10.8c0,4.9-2.9,9.5-9.1,11.7v0.2
		c6.3,1.7,10.9,6.4,10.9,13.5c0,5-2.3,8.9-5.7,11.7c-4,3.2-10.7,5-21.6,5c-6.1,0-10.7-0.4-13.5-0.8V434.1z M882.3,455.2h4.1
		c6.5,0,10-2.7,10-6.8c0-4.2-3.2-6.4-8.8-6.4c-2.7,0-4.2,0.2-5.3,0.3V455.2z M882.3,479.5c1.2,0.2,2.7,0.2,4.8,0.2
		c5.6,0,10.6-2.2,10.6-7.9c0-5.5-5-7.7-11.2-7.7h-4.2V479.5z"/>
	<path d="M931.7,474.2l-3.9,14.1h-12.9l16.8-55H948l17,55h-13.4l-4.2-14.1H931.7z M945.6,464.9l-3.4-11.7c-1-3.3-2-7.3-2.8-10.6
		h-0.2c-0.8,3.3-1.6,7.4-2.5,10.6l-3.3,11.7H945.6z"/>
	<path d="M1016.3,485.8c-3.8,1.3-11.1,3.1-18.4,3.1c-10,0-17.3-2.5-22.3-7.4c-5.1-4.7-7.8-11.9-7.7-20c0.1-18.3,13.4-28.7,31.4-28.7
		c7.1,0,12.6,1.4,15.3,2.7l-2.6,10c-3-1.3-6.8-2.4-12.8-2.4c-10.4,0-18.2,5.9-18.2,17.8c0,11.3,7.1,18,17.3,18
		c2.9,0,5.1-0.3,6.1-0.8v-11.5h-8.5v-9.7h20.5V485.8z"/>
</g>
</svg>
