<?xml version="1.0" encoding="utf-8"?>
<!-- Generator: Adobe Illustrator 19.0.0, SVG Export Plug-In . SVG Version: 6.00 Build 0)  -->
<svg version="1.1" id="Layer_1" xmlns="http://www.w3.org/2000/svg" xmlns:xlink="http://www.w3.org/1999/xlink" x="0px" y="0px"
	 viewBox="144 -54 900 900" style="enable-background:new 144 -54 900 900;" xml:space="preserve">
<style type="text/css">
	.st0{fill:#544D4D;}
	.st1{fill:#C32E1F;}
	.st2{fill:#5D5D5D;}
	.st3{fill:#474343;}
	.st4{fill:#5D5D5D;stroke:#2D2C2C;stroke-width:2.1247;stroke-miterlimit:10;}
	.st5{fill:#3D3939;}
	.st6{fill:#FFFFFF;}
</style>
<g>
	<g>
		<path class="st0" d="M984.3,487.2c-5.6-8-14.2-11.2-32.3-12.9c-27.8-2.7-102,2.7-134.5-5.2c-2.7-12.9-3-53.5-10.5-60.7l-16,11.9
			c2.7,2.6,4.2,20.1,5.5,35.3c-16-21.4-19.3-62.6-20-70.7c-1-12.5,3.2-20.9-4.9-23.7c0,0-16.2,12.7-16.4,11.9
			c0.5,1.4,1.2,9.3,1.5,13.4c1.7,20.6,5.3,75.5,42.9,92.3c25.6,74.8,151.1,68.7,186.8,38.9C994.9,510.7,990,495.4,984.3,487.2z
			 M944.9,510.8c-61.7,9.8-101.3-7.4-118.4-26.1c35.6,5.3,100.1,1,125.5,3.5c12.1,1.2,20,3,25.5,6.5
			C975.9,500.8,968.2,507.1,944.9,510.8z"/>
		<path class="st1" d="M498.8,549.5c0.6,4.1-2.3,4.2,0.1,6.5c2.4,2.2,13,9.3,25.6,9.3s5.7-18.6,5.5-19c-0.2-0.4-3.7-2.6-3.7-2.6
			l-14.6-1.5l-8.8,2.5L498.8,549.5z"/>
		<path class="st2" d="M513.7,554.1c0,8.6-7.8,11.4-14.7,6.3l-109.9-81.8c-6.9-5.1-12.5-16.4-12.5-24.9V241.4
			c0-8.6,5.9-11.8,13.1-7.1l108.7,70.4c7.2,4.7,15.3,15.5,15.3,24.1L513.7,554.1L513.7,554.1z"/>
		<path class="st2" d="M862.7,550.9c-0.2,8.6-1.1,13.3-9.7,13.3H524.8c-8.6,0-13.4-3.7-13.4-12.3v-223c0-8.6,4.8-15.6,13.4-15.6
			h332.6c8.6,0,9.3,6.1,9.2,14.7L862.7,550.9z"/>
		<path class="st3" d="M383.6,238.8c0.4,0,1.2,0.2,2.4,1.1l108.7,70.4c6.4,4.2,22.2,9.6,30.1,9.6h332.6c2.4,0,4.6,0.9,6.2,2.6
			c1.6,1.7,2.5,3.9,2.5,6.3L862.3,554c-0.1,4.9-4.3,9.1-9.3,9.1H525c-0.1,0-0.2,0-0.3,0h-0.1h-0.1h-0.2c-10.3-0.1-19.2-6.1-20.9-7.6
			l-0.2-0.2l-0.3-0.2L393,473.3c-5.2-3.9-9.9-13.1-9.9-19.6V241.4C383.2,240,383.5,239.2,383.6,238.8L383.6,238.8z M383.5,232.2
			c-4.1,0-6.9,3.4-6.9,9.3v212.2c0,8.6,5.6,19.8,12.5,24.9L499,560.4c2.4,2.2,13,9.3,25.6,9.3h0.1c0.1,0,0.1,0,0.2,0H853
			c8.6,0,15.7-7,15.9-15.6l3.9-225.2c0.1-8.6-6.8-15.6-15.3-15.6H524.8c-6.4,0-20.9-4.9-26.5-8.5l-108.7-70.4
			C387.4,232.9,385.3,232.2,383.5,232.2L383.5,232.2z"/>
		<g>
			<path class="st2" d="M512.8,313.3l-19.6,53.3c-3,8.1-11.1,10.6-18.2,5.7l-106-70.4c-7-4.9-10.5-15.6-7.7-23.7l19.5-51.8
				L512.8,313.3z"/>
		</g>
		<g>
			<path class="st3" d="M482.5,378.7c-3.3,0-6.7-1.1-9.7-3.2l-106-70.4c-8.5-6-12.5-18.4-9.1-28.2l20.9-52.4l9.1,0.9L368.4,276
				c-2.2,6.2,0.6,14.6,5.9,18.3l101.1,67.2c2.3,1.6,4.7,2.1,6.9,1.4c2.2-0.7,3.9-2.5,4.8-5.1l19.5-52.7l10.7,7.5l-20.5,55.2
				c-1.8,5-5.5,8.7-10.1,10.1C485.4,378.5,483.9,378.7,482.5,378.7z"/>
		</g>
		<g>
			<path class="st4" d="M871.7,312.1l-0.1-0.7l-0.8-0.4l-172.7-88.7c0,0-309.5,0-314.5,0s-2.8,4.1-2.8,4.1l140.7,89.7L871.7,312.1z"
				/>
			<path class="st4" d="M523.4,311.9l-10.6,1.5l-133.4-85.3c-0.8-0.7-1.6-2.1-1.1-3.5c0.8-2.3,4-2.3,5.3-2.3L523.4,311.9z"/>
			<path class="st4" d="M688.6,222.3l180,92.6h2.6l2.1-0.5l2.4-0.6l-0.4-1.6L708,224.8c0,0-4.8-2.5-11.1-2.5H688.6z"/>
		</g>
		<g>
			<g>
				<path class="st2" d="M515.1,312.7l9.8,52.4c1.6,8.4,9.9,15.4,18.5,15.4l328.7,1.2c8.6,0,14.1-6.8,12.3-15.2l-11.7-54.3
					L515.1,312.7z"/>
			</g>
		</g>
		<g>
			<path class="st3" d="M872.3,385.7C872.2,385.7,872.2,385.7,872.3,385.7l-328.8-1.2c-10.4,0-20.4-8.4-22.3-18.6L511,311.7l9.4-1.8
				l3.1,2l8.7,47.7c1.2,6.6,8,12.2,14.7,12.2L869,373c2.9,0,5.4-1.1,7-3s0.9-4.6,0.3-7.5l-13-51.8l12.2,1.6l13,53.5
				c1.1,5.2,0,10.3-3,14C882.2,383.6,877.6,385.7,872.3,385.7z"/>
		</g>
		<polygon class="st5" points="483.7,430 465.5,416.7 465.5,535.4 483.7,549 		"/>
		<polygon class="st5" points="412.9,377.5 394.7,364.3 394.7,482.9 412.9,496.5 		"/>
		<polygon class="st6" points="588.6,292.8 563.6,278.3 510.9,278.3 533.2,292.8 		"/>
		<g>
			<path class="st0" d="M306.6,550.6c-52.5,0-82.3-4.1-97.3-13.2c-3.7-2.2-6.4-4.8-8.4-7.6c-4.3-6.1-5.1-13.5-2.1-20.9
				c8.7-22,41.5-23.9,135.1-21.6c0.7,0,1.4,0,2.1,0c43.8,0,50.3-61.2,53.3-96.7c1.1-13.9,5.5-15.8,5.5-26.4c0,0,18,14.1,18.2,13.3
				c-0.5,1.6-1.3,10.4-1.7,14.9c-2.2,27.2-7.4,108.1-75.2,108.1c-0.9,0-1.8,0-2.8,0c-43.3-1.1-99.4-2.9-117.5,2.9
				c-2.6,0.8-4.8,2-6.3,3.4c-5.7,5-4.2,12.7,6.7,18c5.6,2.7,13.8,4.8,24.8,5.5c29.5,1.9,92.4-2,121.3-3c80.3-2.9,83-16,91.5-40.6
				c3.6-10.6,3.4-61.5,12.3-70l17.7,13.3c-5,4.8-6.1,55.1-9.1,63.9c-9.4,27.2-16.1,52-111.6,55.5
				C341.8,550.2,323.1,550.6,306.6,550.6z"/>
		</g>
		<g>
			<path class="st5" d="M453.7,486.7c-5.5,15.9-8.6,27-31.7,33.6c-5.6,1.6,19.7,15.8,25.3,12.6c17.9-10.3,22.2-24.3,27.3-39
				c3-8.9,4.1-59.1,9.1-63.9L466,416.7C457.1,425.3,457.3,476.1,453.7,486.7z"/>
			<path class="st5" d="M346.9,485.9c4.6,3.3,9.4,6.7,14.3,10.2c43.9-17.4,48.1-80.2,50-103.6c0.4-4.5,1.2-13.4,1.7-14.9
				c-0.3,0.8-18.2-13.3-18.2-13.3c-3.2,3.9-4.3,12.5-5.5,26.4C386.5,423,380.9,476.4,346.9,485.9z"/>
		</g>
	</g>
	<path class="st6" d="M740.4,509.5c3.5,3.5,3.7,8.8,0.5,12c-3.1,3.1-8.5,2.9-12-0.5l-35.4-38.9c-2.4,0-5.1-0.6-8.2-1.8l12.9-12.9
		l8.4,8.4L740.4,509.5z M665.9,466.9l15.9-15.9l-16.1-16.1c-12.8-12.8-25.5-25.5-33.3-33.3c-1.1-1.1-2.4-1.6-4-1.4
		c-1.1,0.2-2.6,1.2-2.9,3.8c-1.1,10.8,6.8,29.6,35,57.8C662.3,463.6,664.1,465.3,665.9,466.9z M695.5,422.5l2-2c0,0,0,0,0.1-0.1
		L695.5,422.5z M755,418.9c-1.8-1.8-4.3-2.2-5.5-1l-25.2,25.2c-1.3,1.3-3.6,1-5.2-0.7c-1.6-1.6-1.9-4-0.7-5.2l25.2-25.2
		c1.3-1.3,0.8-3.8-1-5.5c-1.8-1.8-4.3-2.2-5.5-1l-25.2,25.2c-1.3,1.3-3.6,1-5.2-0.7c-1.6-1.7-1.9-4-0.7-5.2l25.2-25.2
		c1.3-1.3,0.8-3.8-1-5.5c-1.8-1.8-4.3-2.2-5.5-1l-27.3,27.3c-8.9,8.9-6,15.1-1,20.7l-70.1,70.1c-3.5,3.5-3.7,8.8-0.5,12
		c3.1,3.1,8.6,2.9,12-0.5l70.1-70.1c5.6,5.1,11.8,7.9,20.8-1l27.2-27.2C757.2,423.1,756.8,420.7,755,418.9z"/>
</g>
</svg>
