<?xml version="1.0" encoding="utf-8"?>
<!-- Generator: Adobe Illustrator 19.0.0, SVG Export Plug-In . SVG Version: 6.00 Build 0)  -->
<svg version="1.1" id="Layer_1" xmlns="http://www.w3.org/2000/svg" xmlns:xlink="http://www.w3.org/1999/xlink" x="0px" y="0px"
	 viewBox="338 140 512 512" style="enable-background:new 338 140 512 512;" xml:space="preserve">
<style type="text/css">
	.st0{fill-rule:evenodd;clip-rule:evenodd;fill:#BD2F32;}
	.st1{fill:#FFFFFF;}
	.st2{fill:#C32E1F;}
</style>
<g id="XMLID_29_">
	<rect id="XMLID_28_" x="338" y="140" class="st0" width="512" height="512"/>
	<g id="XMLID_30_">
		<rect id="XMLID_31_" x="410.3" y="579.2" class="st1" width="367.3" height="2.1"/>
	</g>
</g>
<g>
	<path d="M402,595.8c3.4-0.5,7.8-0.8,12.4-0.8c7.7,0,12.7,1.4,16.6,4.4c4.2,3.1,6.9,8.1,6.9,15.3c0,7.8-2.8,13.2-6.7,16.5
		c-4.3,3.5-10.8,5.2-18.8,5.2c-4.7,0-8.1-0.3-10.4-0.6V595.8z M411.2,628.9c0.8,0.1,2.1,0.1,3.2,0.1c8.4,0.1,13.7-4.5,13.7-14.2
		c0.1-8.4-4.9-12.9-12.8-12.9c-2.1,0-3.4,0.1-4.1,0.4L411.2,628.9L411.2,628.9z"/>
	<path d="M468.1,618.7h-15v9.6h16.7v7.5h-25.9v-40.6H469v7.5h-15.8v8.5h14.9L468.1,618.7L468.1,618.7z"/>
	<path d="M476.1,595.2h9.2v32.9h16.2v7.7h-25.3L476.1,595.2L476.1,595.2z"/>
	<path d="M516.2,595.2v40.6h-9.2v-40.6H516.2z"/>
	<path d="M533.7,635.8l-13-40.6h10.1l5,17.1c1.4,4.8,2.7,9.5,3.6,14.6h0.1c1-4.9,2.3-9.7,3.7-14.3l5.2-17.4h9.8l-13.7,40.6H533.7
		L533.7,635.8z"/>
	<path d="M586.6,618.7h-14.9v9.6h16.7v7.5h-25.9v-40.6h25.1v7.5h-15.8v8.5h14.9V618.7L586.6,618.7z"/>
	<path d="M594.7,595.8c3-0.5,7.3-0.8,12.3-0.8c6.1,0,10.3,0.9,13.2,3.2c2.4,1.9,3.8,4.7,3.8,8.5c0,5.2-3.7,8.7-7.2,10v0.1
		c2.8,1.1,4.4,3.8,5.4,7.6c1.3,4.6,2.5,9.9,3.3,11.5H616c-0.7-1.2-1.6-4.4-2.8-9.5c-1.1-5.1-2.8-6.4-6.6-6.5h-2.8v16h-9.1
		L594.7,595.8L594.7,595.8z M603.8,613.3h3.6c4.6,0,7.3-2.3,7.3-5.8c0-3.8-2.5-5.6-6.7-5.7c-2.2,0-3.5,0.1-4.1,0.3L603.8,613.3
		L603.8,613.3z"/>
	<path d="M638.6,635.8v-16.6l-12.9-24h10.5l4.1,9.8c1.3,3,2.1,5.1,3.1,7.8h0.1c0.9-2.5,1.8-4.9,3.1-7.8l4.1-9.8h10.3l-13.4,23.7
		v16.9H638.6z"/>
	<path d="M677.7,595.8c2.4-0.5,7.3-0.8,11.9-0.8c5.6,0,9,0.5,12,2.3c2.8,1.5,4.9,4.3,4.9,8c0,3.6-2.1,7-6.7,8.6v0.1
		c4.7,1.3,8.1,4.7,8.1,10c0,3.7-1.7,6.6-4.2,8.6c-3,2.4-7.9,3.7-16,3.7c-4.5,0-7.9-0.3-10-0.6L677.7,595.8L677.7,595.8z
		 M686.9,611.4h3c4.8,0,7.4-2,7.4-5c0-3.1-2.4-4.7-6.5-4.7c-2,0-3.1,0.1-3.9,0.2V611.4z M686.9,629.3c0.9,0.1,2,0.1,3.5,0.1
		c4.1,0,7.8-1.6,7.8-5.8c0-4.1-3.7-5.7-8.3-5.7h-3.1L686.9,629.3L686.9,629.3z"/>
	<path d="M723.4,625.4l-2.9,10.4H711l12.4-40.6h12l12.6,40.6h-9.9l-3.1-10.4H723.4z M733.7,618.5l-2.5-8.6c-0.7-2.4-1.5-5.4-2.1-7.8
		h-0.1c-0.6,2.4-1.2,5.5-1.8,7.8l-2.4,8.6H733.7z"/>
	<path d="M785.9,634c-2.8,1-8.2,2.3-13.6,2.3c-7.4,0-12.8-1.8-16.5-5.5c-3.8-3.5-5.8-8.8-5.7-14.8c0.1-13.5,9.9-21.2,23.2-21.2
		c5.2,0,9.3,1,11.3,2l-1.9,7.4c-2.2-1-5-1.8-9.5-1.8c-7.7,0-13.5,4.4-13.5,13.2c0,8.4,5.2,13.3,12.8,13.3c2.1,0,3.8-0.2,4.5-0.6
		v-8.5h-6.3v-7.2H786L785.9,634L785.9,634z"/>
</g>
<g>
	<path class="st1" d="M396.3,595.8c3.4-0.5,7.8-0.8,12.4-0.8c7.7,0,12.7,1.4,16.6,4.4c4.2,3.1,6.9,8.1,6.9,15.3
		c0,7.8-2.8,13.2-6.7,16.5c-4.3,3.5-10.8,5.2-18.8,5.2c-4.7,0-8.1-0.3-10.4-0.6V595.8z M405.6,628.9c0.8,0.1,2.1,0.1,3.2,0.1
		c8.4,0.1,13.7-4.5,13.7-14.2c0.1-8.4-4.9-12.9-12.8-12.9c-2.1,0-3.4,0.1-4.1,0.4V628.9L405.6,628.9z"/>
	<path class="st1" d="M462.5,618.7h-15v9.6h16.7v7.5h-25.9v-40.6h25.1v7.5h-15.8v8.5h14.9L462.5,618.7L462.5,618.7z"/>
	<path class="st1" d="M470.5,595.2h9.2v32.9h16.2v7.7h-25.3L470.5,595.2L470.5,595.2z"/>
	<path class="st1" d="M510.5,595.2v40.6h-9.2v-40.6H510.5z"/>
	<path class="st1" d="M528,635.8l-13-40.6h10.1l5,17.1c1.4,4.8,2.7,9.5,3.6,14.6h0.1c1-4.9,2.3-9.7,3.7-14.3l5.2-17.4h9.8
		l-13.7,40.6H528L528,635.8z"/>
	<path class="st1" d="M580.9,618.7H566v9.6h16.7v7.5h-25.9v-40.6h25.1v7.5H566v8.5h14.9L580.9,618.7L580.9,618.7z"/>
	<path class="st1" d="M589,595.8c3-0.5,7.3-0.8,12.3-0.8c6.1,0,10.3,0.9,13.2,3.2c2.4,1.9,3.8,4.7,3.8,8.5c0,5.2-3.7,8.7-7.2,10v0.1
		c2.8,1.1,4.4,3.8,5.4,7.6c1.3,4.6,2.5,9.9,3.3,11.5h-9.4c-0.7-1.2-1.6-4.4-2.8-9.5c-1.1-5.1-2.8-6.4-6.6-6.5h-2.8v16h-9.1
		L589,595.8L589,595.8z M598.1,613.3h3.6c4.6,0,7.3-2.3,7.3-5.8c0-3.8-2.5-5.6-6.7-5.7c-2.2,0-3.5,0.1-4.1,0.3L598.1,613.3
		L598.1,613.3z"/>
	<path class="st1" d="M633,635.8v-16.6l-12.9-24h10.5l4.1,9.8c1.3,3,2.1,5.1,3.1,7.8h0.1c0.9-2.5,1.8-4.9,3.1-7.8l4.1-9.8h10.3
		l-13.4,23.7v16.9H633z"/>
	<path class="st1" d="M672.1,595.8c2.4-0.5,7.3-0.8,11.9-0.8c5.6,0,9,0.5,12,2.3c2.8,1.5,4.9,4.3,4.9,8c0,3.6-2.1,7-6.7,8.6v0.1
		c4.7,1.3,8.1,4.7,8.1,10c0,3.7-1.7,6.6-4.2,8.6c-3,2.4-7.9,3.7-16,3.7c-4.5,0-7.9-0.3-10-0.6L672.1,595.8L672.1,595.8z
		 M681.2,611.4h3c4.8,0,7.4-2,7.4-5c0-3.1-2.4-4.7-6.5-4.7c-2,0-3.1,0.1-3.9,0.2V611.4z M681.2,629.3c0.9,0.1,2,0.1,3.5,0.1
		c4.1,0,7.8-1.6,7.8-5.8c0-4.1-3.7-5.7-8.3-5.7h-3.1L681.2,629.3L681.2,629.3z"/>
	<path class="st1" d="M717.7,625.4l-2.9,10.4h-9.5l12.4-40.6h12l12.6,40.6h-9.9l-3.1-10.4H717.7z M728,618.5l-2.5-8.6
		c-0.7-2.4-1.5-5.4-2.1-7.8h-0.1c-0.6,2.4-1.2,5.5-1.8,7.8l-2.4,8.6H728z"/>
	<path class="st1" d="M780.3,634c-2.8,1-8.2,2.3-13.6,2.3c-7.4,0-12.8-1.8-16.5-5.5c-3.8-3.5-5.8-8.8-5.7-14.8
		c0.1-13.5,9.9-21.2,23.2-21.2c5.2,0,9.3,1,11.3,2l-1.9,7.4c-2.2-1-5-1.8-9.5-1.8c-7.7,0-13.5,4.4-13.5,13.2
		c0,8.4,5.2,13.3,12.8,13.3c2.1,0,3.8-0.2,4.5-0.6v-8.5h-6.3v-7.2h15.2L780.3,634L780.3,634z"/>
</g>
<g>
	<path class="st1" d="M823.1,439.1c-2-4.7-5-6.6-11.3-7.6c-9.8-1.6-35.8,1.6-47.2-3.1c-0.9-7.6-1.1-31.7-3.7-36
		c0,0-1.1,27.6-2.6,41.7c9,44.3,53,40.7,65.5,23.1C826.8,453.1,825.1,444,823.1,439.1z M809.3,453.1c-21.7,5.8-35.5-4.4-41.5-15.5
		c12.5,3.1,35.1,0.6,44,2.1c4.2,0.7,7,1.8,8.9,3.9C820.2,447.2,817.5,450.9,809.3,453.1z"/>
	<path class="st2" d="M541.4,476.1c0.4,2.4-1.4,2.5,0.1,3.9c1.4,1.3,7.7,5.5,15.2,5.5s3.4-11,3.3-11.3c-0.1-0.2-2.2-1.5-2.2-1.5
		l-8.7-0.9l-5.2,1.5L541.4,476.1z"/>
	<path class="st1" d="M473.1,291.9c0.2,0,0.7,0.1,1.4,0.7l64.4,41.7c3.8,2.5,13.2,5.7,17.8,5.7h197.1c1.4,0,2.7,0.5,3.7,1.5
		c0.9,1,1.5,2.3,1.5,3.7l-2.3,133.5c-0.1,2.9-2.5,5.4-5.5,5.4H556.9c-0.1,0-0.1,0-0.2,0h-0.1h-0.1h-0.1c-6.1-0.1-11.4-3.6-12.4-4.5
		l-0.1-0.1l-0.2-0.1l-65.1-48.5c-3.1-2.3-5.9-7.8-5.9-11.6V293.5C472.9,292.6,473.1,292.2,473.1,291.9L473.1,291.9z M473.1,288
		c-2.4,0-4.1,2-4.1,5.5v125.8c0,5.1,3.3,11.7,7.4,14.8l65.1,48.5c1.4,1.3,7.7,5.5,15.2,5.5h0.1c0.1,0,0.1,0,0.1,0h194.4
		c5.1,0,9.3-4.1,9.4-9.2l2.3-133.5c0.1-5.1-4-9.2-9.1-9.2H556.8c-3.8,0-12.4-2.9-15.7-5l-64.4-41.7C475.4,288.4,474.1,288,473.1,288
		L473.1,288z"/>
	<g>
		<path class="st1" d="M531.7,374.8c-2,0-4-0.7-5.7-1.9l-62.8-41.7c-5-3.6-7.4-10.9-5.4-16.7l12.4-31.1l5.4,0.5l-11.4,30
			c-1.3,3.7,0.4,8.7,3.5,10.8l59.9,39.8c1.4,0.9,2.8,1.2,4.1,0.8s2.3-1.5,2.8-3l11.6-31.2l6.3,4.4l-12.1,32.7c-1.1,3-3.3,5.2-6,6
			C533.5,374.7,532.6,374.8,531.7,374.8z"/>
	</g>
	<path class="st1" d="M554.2,339.9l-84.4-53.8l-0.3-0.5c-0.2-0.3-1.1-2.2-0.1-3.8c0.5-0.8,1.5-1.7,3.6-1.7H660l0.5,0.2L763.3,333
		l1,0.5l0.6,3.9L554.2,339.9z M474.9,284.3l80.5,51.3l199.1-2.3L659,284.3H474.9z"/>
	<g>
		<path class="st1" d="M762.7,379C762.7,379,762.7,379,762.7,379l-194.9-0.7c-6.2,0-12.1-5-13.2-11l-6-32.1l5.6-1.1l1.8,1.2
			l5.2,28.3c0.7,3.9,4.7,7.2,8.7,7.2l190.9,0.7c1.7,0,3.2-0.7,4.1-1.8s0.5-2.7,0.2-4.4l-7.7-30.7l7.2,0.9l7.7,31.7
			c0.7,3.1,0,6.1-1.8,8.3C768.6,377.7,765.9,379,762.7,379z"/>
	</g>
	<polygon class="st1" points="532.4,405.2 521.7,397.4 521.7,467.7 532.4,475.8 	"/>
	<polygon class="st1" points="490.5,374.1 479.7,366.3 479.7,436.6 490.5,444.6 	"/>
	<polygon class="st1" points="594.6,323.9 579.8,315.3 548.6,315.3 561.8,323.9 	"/>
	<g>
		<path class="st1" d="M427.5,476.7c-31.1,0-48.8-2.4-57.7-7.8c-2.2-1.3-3.8-2.8-5-4.5c-2.5-3.6-3-8-1.2-12.4
			c5.2-13,24.6-14.2,80.1-12.8c0.4,0,0.8,0,1.2,0c26,0,29.8-36.3,31.6-57.3c0.7-8.2,3.3-9.4,3.3-15.6c0,0,10.7,8.4,10.8,7.9
			c-0.3,0.9-0.8,6.2-1,8.8c-1.3,16.1-4.4,64.1-44.6,64.1c-0.5,0-1.1,0-1.7,0c-25.7-0.7-58.9-1.7-69.6,1.7c-1.5,0.5-2.8,1.2-3.7,2
			c-3.4,3-2.5,7.5,4,10.7c3.3,1.6,8.2,2.8,14.7,3.3c17.5,1.1,54.8-1.2,71.9-1.8c47.6-1.7,49.2-9.5,54.2-24.1
			c2.1-6.3,2-36.4,7.3-41.5l10.5,7.9c-3,2.8-3.6,32.7-5.4,37.9c-5.6,16.1-9.5,30.8-66.1,32.9C448.4,476.5,437.3,476.7,427.5,476.7z"
			/>
	</g>
	<g>
		<path class="st1" d="M514.7,438.8c-3.3,9.4-5.1,16-18.8,19.9c-3.3,0.9,11.7,9.4,15,7.5c10.6-6.1,13.2-14.4,16.2-23.1
			c1.8-5.3,2.4-35,5.4-37.9l-10.5-7.9C516.7,402.4,516.8,432.6,514.7,438.8z"/>
		<path class="st1" d="M451.4,438.4c2.7,2,5.6,4,8.5,6c26-10.3,28.5-47.5,29.6-61.4c0.2-2.7,0.7-7.9,1-8.8
			c-0.2,0.5-10.8-7.9-10.8-7.9c-1.9,2.3-2.5,7.4-3.3,15.6C474.8,401.1,471.5,432.7,451.4,438.4z"/>
	</g>
	<path class="st1" d="M684.6,452.3c2.1,2.1,2.2,5.2,0.3,7.1c-1.8,1.8-5,1.7-7.1-0.3l-21-23.1c-1.4,0-3-0.4-4.9-1.1l7.6-7.6l5,5
		L684.6,452.3z M640.4,427.1l9.4-9.4l-9.5-9.5c-7.6-7.6-15.1-15.1-19.7-19.7c-0.7-0.7-1.4-0.9-2.4-0.8c-0.7,0.1-1.5,0.7-1.7,2.3
		c-0.7,6.4,4,17.5,20.7,34.3C638.3,425.1,639.4,426.2,640.4,427.1z M658,400.8l1.2-1.2c0,0,0,0,0.1-0.1L658,400.8z M693.2,398.7
		c-1.1-1.1-2.5-1.3-3.3-0.6L675,413c-0.8,0.8-2.1,0.6-3.1-0.4c-0.9-0.9-1.1-2.4-0.4-3.1l14.9-14.9c0.8-0.8,0.5-2.3-0.6-3.3
		c-1.1-1.1-2.5-1.3-3.3-0.6l-14.9,14.9c-0.8,0.8-2.1,0.6-3.1-0.4c-0.9-1-1.1-2.4-0.4-3.1l14.9-14.9c0.8-0.8,0.5-2.3-0.6-3.3
		c-1.1-1.1-2.5-1.3-3.3-0.6l-16.2,16.2c-5.3,5.3-3.6,8.9-0.6,12.3L617,453.4c-2.1,2.1-2.2,5.2-0.3,7.1c1.8,1.8,5.1,1.7,7.1-0.3
		l41.5-41.5c3.3,3,7,4.7,12.3-0.6l16.1-16.1C694.5,401.1,694.3,399.7,693.2,398.7z"/>
	
		<image style="overflow:visible;" width="40" height="620" xlink:href="5E9142DB.jpg"  transform="matrix(0.24 0 0 0.24 545.7331 335.585)">
	</image>
</g>
</svg>
