<?xml version="1.0" encoding="utf-8"?>
<!-- Generator: Adobe Illustrator 19.0.0, SVG Export Plug-In . SVG Version: 6.00 Build 0)  -->
<svg version="1.1" id="Layer_1" xmlns="http://www.w3.org/2000/svg" xmlns:xlink="http://www.w3.org/1999/xlink" x="0px" y="0px"
	 viewBox="-71 145 144 144" style="enable-background:new -71 145 144 144;" xml:space="preserve">
<style type="text/css">
	.st0{fill:#010101;}
</style>
<path id="XMLID_540_" class="st0" d="M45.6,170.7c0-3-2.4-5.4-5.4-5.4H37v-7c0-1.3-1.1-2.4-2.4-2.4h-67.5c-1.3,0-2.4,1.1-2.4,2.4
	v8.1h-5.9c-1.3,0-2.4,1.1-2.4,2.4s1.1,2.4,2.4,2.4h5.9v7.8h-5.9c-1.3,0-2.4,1.1-2.4,2.4c0,1.3,1.1,2.4,2.4,2.4h5.9v7.8h-5.9
	c-1.3,0-2.4,1.1-2.4,2.4c0,1.3,1.1,2.4,2.4,2.4h5.9v7.8h-5.9c-1.3,0-2.4,1.1-2.4,2.4c0,1.3,1.1,2.4,2.4,2.4h5.9v7.8h-5.9
	c-1.3,0-2.4,1.1-2.4,2.4c0,1.3,1.1,2.4,2.4,2.4h5.9v7.8h-5.9c-1.3,0-2.4,1.1-2.4,2.4c0,1.3,1.1,2.4,2.4,2.4h5.9v7.8h-5.9
	c-1.3,0-2.4,1.1-2.4,2.4c0,1.3,1.1,2.4,2.4,2.4h5.9v8.1c0,1.3,1.1,2.4,2.4,2.4h67.5c1.3,0,2.4-1.1,2.4-2.4v-12.3h3.3
	c3,0,5.4-2.4,5.4-5.4v-18.4c0-1.1-0.3-2.1-0.9-3c0.6-0.9,0.9-1.9,0.9-3v-18c0-1.1-0.3-2.1-0.9-3c0.6-0.9,0.9-1.9,0.9-3L45.6,170.7
	L45.6,170.7z M21.8,180.2v18.6c0,1.5-1.2,2.7-2.7,2.7h-34c-1.5,0-2.7-1.2-2.7-2.7v-18.6c0-1.5,1.2-2.7,2.7-2.7h34
	C20.6,177.5,21.8,178.7,21.8,180.2z M40.9,236.9c0,0.3-0.3,0.6-0.6,0.6H37v-19.3h3.3c0.3,0,0.6,0.3,0.6,0.6V236.9z M40.9,188.8
	c0,0.3-0.3,0.6-0.6,0.6H37v-19.3h3.3c0.3,0,0.6,0.3,0.6,0.6V188.8z M18.5,185.2c0,1.3-1.1,2.4-2.4,2.4h-28c-1.3,0-2.4-1.1-2.4-2.4
	s1.1-2.4,2.4-2.4h28.1C17.5,182.8,18.5,183.9,18.5,185.2z M18.5,193.7c0,1.3-1.1,2.4-2.4,2.4h-28c-1.3,0-2.4-1.1-2.4-2.4
	c0-1.3,1.1-2.4,2.4-2.4h28.1C17.5,191.4,18.5,192.4,18.5,193.7z"/>
<g>
	<path d="M-26.7,266.1c1.2-0.2,2.7-0.3,4.3-0.3c2.6,0,4.4,0.5,5.7,1.5c1.4,1.1,2.4,2.8,2.4,5.2c0,2.7-1,4.5-2.3,5.6
		c-1.5,1.2-3.7,1.8-6.4,1.8c-1.6,0-2.8-0.1-3.6-0.2V266.1z M-23.5,277.5c0.3,0.1,0.7,0.1,1.1,0.1c2.8,0,4.7-1.5,4.7-4.9
		c0-2.9-1.7-4.4-4.4-4.4c-0.7,0-1.2,0.1-1.4,0.1V277.5z"/>
	<path d="M-9.2,266v13.9h-3.2V266H-9.2z"/>
	<path d="M-3.2,276.3l-1,3.6h-3.3l4.3-13.9h4.1l4.3,13.9H1.9l-1.1-3.6H-3.2z M0.3,273.9l-0.9-3c-0.2-0.8-0.5-1.9-0.7-2.7h0
		c-0.2,0.8-0.4,1.9-0.6,2.7l-0.8,3H0.3z"/>
	<path d="M7.1,266.1c1-0.2,2.5-0.3,4.2-0.3c2.1,0,3.5,0.3,4.5,1.1c0.8,0.7,1.3,1.6,1.3,2.9c0,1.8-1.3,3-2.5,3.4v0.1
		c1,0.4,1.5,1.3,1.9,2.6c0.4,1.6,0.9,3.4,1.1,3.9h-3.2c-0.2-0.4-0.6-1.5-1-3.2c-0.4-1.7-1-2.2-2.3-2.2h-0.9v5.5H7.1V266.1z
		 M10.2,272.1h1.2c1.6,0,2.5-0.8,2.5-2c0-1.3-0.9-1.9-2.3-1.9c-0.8,0-1.2,0.1-1.4,0.1V272.1z"/>
	<path d="M22.2,279.9v-5.7l-4.4-8.2h3.6l1.4,3.3c0.4,1,0.7,1.8,1.1,2.7h0c0.3-0.9,0.6-1.7,1.1-2.7l1.4-3.3h3.5l-4.6,8.1v5.8H22.2z"
		/>
</g>
</svg>
