<?xml version="1.0" encoding="utf-8"?>
<!-- Generator: Adobe Illustrator 19.0.0, SVG Export Plug-In . SVG Version: 6.00 Build 0)  -->
<svg version="1.1" id="Layer_1" xmlns="http://www.w3.org/2000/svg" xmlns:xlink="http://www.w3.org/1999/xlink" x="0px" y="0px"
	 viewBox="-417 141 512 512" style="enable-background:new -417 141 512 512;" xml:space="preserve">
<style type="text/css">
	.st0{fill-rule:evenodd;clip-rule:evenodd;fill:#BD2F32;}
	.st1{fill:#FFFFFF;}
</style>
<g id="XMLID_29_">
	<rect id="XMLID_28_" x="-417" y="141" class="st0" width="512" height="512"/>
	<g id="XMLID_30_">
		<rect id="XMLID_31_" x="-344.7" y="580.2" class="st1" width="367.3" height="2.1"/>
	</g>
</g>
<path id="XMLID_540_" class="st1" d="M-2.4,229.2c0-10.7-8.5-19.2-19.2-19.2H-33v-24.9c0-4.6-3.9-8.5-8.5-8.5h-240.4
	c-4.6,0-8.5,3.9-8.5,8.5v28.8h-21c-4.6,0-8.5,3.9-8.5,8.5c0,4.6,3.9,8.5,8.5,8.5h21v27.8h-21c-4.6,0-8.5,3.9-8.5,8.5
	c0,4.6,3.9,8.5,8.5,8.5h21v27.8h-21c-4.6,0-8.5,3.9-8.5,8.5c0,4.6,3.9,8.5,8.5,8.5h21v27.8h-21c-4.6,0-8.5,3.9-8.5,8.5
	c0,4.6,3.9,8.5,8.5,8.5h21v27.8h-21c-4.6,0-8.5,3.9-8.5,8.5c0,4.6,3.9,8.5,8.5,8.5h21v27.8h-21c-4.6,0-8.5,3.9-8.5,8.5
	c0,4.6,3.9,8.5,8.5,8.5h21v27.8h-21c-4.6,0-8.5,3.9-8.5,8.5c0,4.6,3.9,8.5,8.5,8.5h21v28.8c0,4.6,3.9,8.5,8.5,8.5h240.4
	c4.6,0,8.5-3.9,8.5-8.5v-43.8h11.8c10.7,0,19.2-8.5,19.2-19.2v-65.5c0-3.9-1.1-7.5-3.2-10.7c2.1-3.2,3.2-6.8,3.2-10.7V315
	c0-3.9-1.1-7.5-3.2-10.7c2.1-3.2,3.2-6.8,3.2-10.7L-2.4,229.2L-2.4,229.2z M-87.1,263.1v66.2c0,5.3-4.3,9.6-9.6,9.6h-121.1
	c-5.3,0-9.6-4.3-9.6-9.6v-66.2c0-5.3,4.3-9.6,9.6-9.6h121.1C-91.4,253.4-87.1,257.7-87.1,263.1z M-19.1,465c0,1.1-1.1,2.1-2.1,2.1
	H-33v-68.7h11.8c1.1,0,2.1,1.1,2.1,2.1C-19.1,400.5-19.1,465-19.1,465z M-19.1,293.7c0,1.1-1.1,2.1-2.1,2.1H-33v-68.7h11.8
	c1.1,0,2.1,1.1,2.1,2.1C-19.1,229.2-19.1,293.7-19.1,293.7z M-98.9,280.9c0,4.6-3.9,8.5-8.5,8.5h-99.7c-4.6,0-8.5-3.9-8.5-8.5
	c0-4.6,3.9-8.5,8.5-8.5h100.1C-102.4,272.3-98.9,276.2-98.9,280.9z M-98.9,311.1c0,4.6-3.9,8.5-8.5,8.5h-99.7
	c-4.6,0-8.5-3.9-8.5-8.5c0-4.6,3.9-8.5,8.5-8.5h100.1C-102.4,302.9-98.9,306.5-98.9,311.1z"/>
<g>
	<path d="M-255.7,591.8c4-0.7,9-1,14.4-1c8.7,0,14.7,1.7,19.1,5c4.7,3.7,8,9.4,8,17.4c0,9-3.3,15.1-7.7,18.7c-5,4-12.4,6-21.4,6
		c-5.4,0-9.4-0.3-12.1-0.7v-45.5H-255.7z M-245,630c1,0.3,2.3,0.3,3.7,0.3c9.4,0,15.7-5,15.7-16.4c0-9.7-5.7-14.7-14.7-14.7
		c-2.3,0-4,0.3-4.7,0.3V630z"/>
	<path d="M-197.2,591.5V638h-10.7v-46.5H-197.2z"/>
	<path d="M-177.1,625.9l-3.3,12.1h-11l14.4-46.5h13.7l14.4,46.5h-11l-3.7-12.1H-177.1z M-165.4,617.9l-3-10c-0.7-2.7-1.7-6.4-2.3-9
		l0,0c-0.7,2.7-1.3,6.4-2,9l-2.7,10H-165.4z"/>
	<path d="M-142.6,591.8c3.3-0.7,8.4-1,14.1-1c7,0,11.7,1,15.1,3.7c2.7,2.3,4.4,5.4,4.4,9.7c0,6-4.4,10-8.4,11.4v0.3
		c3.3,1.3,5,4.4,6.4,8.7c1.3,5.4,3,11.4,3.7,13.1h-10.7c-0.7-1.3-2-5-3.3-10.7c-1.3-5.7-3.3-7.4-7.7-7.4h-3V638h-10.4V591.8z
		 M-132.2,611.9h4c5.4,0,8.4-2.7,8.4-6.7c0-4.4-3-6.4-7.7-6.4c-2.7,0-4,0.3-4.7,0.3V611.9z"/>
	<path d="M-92,638v-19.1l-14.7-27.4h12.1l4.7,11c1.3,3.3,2.3,6,3.7,9l0,0c1-3,2-5.7,3.7-9l4.7-11h11.7l-15.4,27.1V638L-92,638
		L-92,638z"/>
</g>
<g>
	<path class="st1" d="M-261.4,591.8c4-0.7,9-1,14.4-1c8.7,0,14.7,1.7,19.1,5c4.7,3.7,8,9.4,8,17.4c0,9-3.3,15.1-7.7,18.7
		c-5,4-12.4,6-21.4,6c-5.4,0-9.4-0.3-12.1-0.7v-45.5H-261.4z M-250.7,630c1,0.3,2.3,0.3,3.7,0.3c9.4,0,15.7-5,15.7-16.4
		c0-9.7-5.7-14.7-14.7-14.7c-2.3,0-4,0.3-4.7,0.3V630z"/>
	<path class="st1" d="M-202.8,591.5V638h-10.7v-46.5H-202.8z"/>
	<path class="st1" d="M-182.7,625.9l-3.3,12.1h-11l14.4-46.5h13.7l14.4,46.5h-11l-3.7-12.1H-182.7z M-171,617.9l-3-10
		c-0.7-2.7-1.7-6.4-2.3-9l0,0c-0.7,2.7-1.3,6.4-2,9l-2.7,10H-171z"/>
	<path class="st1" d="M-148.3,591.8c3.3-0.7,8.4-1,14.1-1c7,0,11.7,1,15.1,3.7c2.7,2.3,4.4,5.4,4.4,9.7c0,6-4.4,10-8.4,11.4v0.3
		c3.3,1.3,5,4.4,6.4,8.7c1.3,5.4,3,11.4,3.7,13.1h-10.7c-0.7-1.3-2-5-3.3-10.7c-1.3-5.7-3.3-7.4-7.7-7.4h-3V638h-10.4V591.8z
		 M-137.9,611.9h4c5.4,0,8.4-2.7,8.4-6.7c0-4.4-3-6.4-7.7-6.4c-2.7,0-4,0.3-4.7,0.3V611.9z"/>
	<path class="st1" d="M-97.7,638v-19.1l-14.7-27.4h12.1l4.7,11c1.3,3.3,2.3,6,3.7,9l0,0c1-3,2-5.7,3.7-9l4.7-11h11.7l-15.4,27.1V638
		L-97.7,638L-97.7,638z"/>
</g>
</svg>
