<?xml version="1.0" encoding="utf-8"?>
<!-- Generator: Adobe Illustrator 19.0.0, SVG Export Plug-In . SVG Version: 6.00 Build 0)  -->
<svg version="1.1" id="Layer_1" xmlns="http://www.w3.org/2000/svg" xmlns:xlink="http://www.w3.org/1999/xlink" x="0px" y="0px"
	 viewBox="0 0 144 144" style="enable-background:new 0 0 144 144;" xml:space="preserve">
<style type="text/css">
	.st0{fill:#010101;}
</style>
<path id="XMLID_540_" class="st0" d="M116.6,36.2c0-3-2.4-5.4-5.4-5.4H108v-7c0-1.3-1.1-2.4-2.4-2.4H38.1c-1.3,0-2.4,1.1-2.4,2.4
	v8.1h-5.9c-1.3,0-2.4,1.1-2.4,2.4c0,1.3,1.1,2.4,2.4,2.4h5.9v7.8h-5.9c-1.3,0-2.4,1.1-2.4,2.4c0,1.3,1.1,2.4,2.4,2.4h5.9v7.8h-5.9
	c-1.3,0-2.4,1.1-2.4,2.4s1.1,2.4,2.4,2.4h5.9v7.8h-5.9c-1.3,0-2.4,1.1-2.4,2.4s1.1,2.4,2.4,2.4h5.9v7.8h-5.9c-1.3,0-2.4,1.1-2.4,2.4
	c0,1.3,1.1,2.4,2.4,2.4h5.9v7.8h-5.9c-1.3,0-2.4,1.1-2.4,2.4s1.1,2.4,2.4,2.4h5.9v7.8h-5.9c-1.3,0-2.4,1.1-2.4,2.4s1.1,2.4,2.4,2.4
	h5.9v8.1c0,1.3,1.1,2.4,2.4,2.4h67.5c1.3,0,2.4-1.1,2.4-2.4v-12.3h3.3c3,0,5.4-2.4,5.4-5.4V84.3c0-1.1-0.3-2.1-0.9-3
	c0.6-0.9,0.9-1.9,0.9-3V60.3c0-1.1-0.3-2.1-0.9-3c0.6-0.9,0.9-1.9,0.9-3L116.6,36.2L116.6,36.2z M92.8,45.7v18.6
	c0,1.5-1.2,2.7-2.7,2.7h-34c-1.5,0-2.7-1.2-2.7-2.7V45.7c0-1.5,1.2-2.7,2.7-2.7h34C91.6,43,92.8,44.2,92.8,45.7z M111.9,102.4
	c0,0.3-0.3,0.6-0.6,0.6H108V83.7h3.3c0.3,0,0.6,0.3,0.6,0.6V102.4z M111.9,54.3c0,0.3-0.3,0.6-0.6,0.6H108V35.6h3.3
	c0.3,0,0.6,0.3,0.6,0.6V54.3z M89.5,50.7c0,1.3-1.1,2.4-2.4,2.4H59.1c-1.3,0-2.4-1.1-2.4-2.4s1.1-2.4,2.4-2.4h28.1
	C88.5,48.3,89.5,49.4,89.5,50.7z M89.5,59.2c0,1.3-1.1,2.4-2.4,2.4H59.1c-1.3,0-2.4-1.1-2.4-2.4c0-1.3,1.1-2.4,2.4-2.4h28.1
	C88.5,56.9,89.5,57.9,89.5,59.2z"/>
</svg>
