<?xml version="1.0" encoding="utf-8"?>
<!-- Generator: Adobe Illustrator 19.0.0, SVG Export Plug-In . SVG Version: 6.00 Build 0)  -->
<svg version="1.1" id="Layer_1" xmlns="http://www.w3.org/2000/svg" xmlns:xlink="http://www.w3.org/1999/xlink" x="0px" y="0px"
	 viewBox="-417 141 512 512" style="enable-background:new -417 141 512 512;" xml:space="preserve">
<style type="text/css">
	.st0{fill-rule:evenodd;clip-rule:evenodd;fill:#BD2F32;}
	.st1{fill:#FFFFFF;}
</style>
<g id="XMLID_29_">
	<rect id="XMLID_28_" x="-417" y="141" class="st0" width="512" height="512"/>
	<g id="XMLID_30_">
		<rect id="XMLID_31_" x="-344.7" y="580.2" class="st1" width="367.3" height="2.1"/>
	</g>
</g>
<g id="XMLID_1005_">
	<path id="XMLID_1070_" class="st1" d="M-294,288.9c2.7,0,4.8,0,6.8,0c86.5,0,173,0,259.2,0c5.8,0,8.2-1,7.5-7.2
		c-0.3-7.5,4.1-11.9,11.9-11.9c4.8,0,9.2,0,14,0c9.9,0,13.6,4.1,13.6,14c0,1.4,0,3.1,0.3,5.4c6.1,0,12.3,0,18.1,0
		c17.4,0,28.6,11.2,28.6,28.6c0,51.4,0,103.2,0,154.6c0,11.9-5.8,20.1-16,25.9c-1.7,1-3.4,3.4-3.7,5.4c-0.7,4.1-0.3,8.5,0,12.9
		c0.3,5.4-2,7.5-7.5,7.5c-27.9,0-56.2,0-84.1,0c-104.9,0-209.8,0-314.7,0c-9.9,0-9.9,0-9.9-9.5c0-1.7,0-3.1,0-4.8
		c0.7-6.5-0.7-11.2-7.2-15c-7.8-4.8-10.9-13.3-10.9-22.8c0-32.7,0-65.4,0-98.1c0-18.4,0-37.1,0-55.5c0-18.1,11.2-28.9,29.3-29.3
		c6.5,0,13.3,0,19.8,0c3.4,0,4.4-1.4,4.4-4.4c0.3-11.9,3.7-15,15.7-15c3.7,0,7.5,0,11.2,0c8.5,0,12.9,4.4,13.3,12.9
		C-294,284.4-294,286.5-294,288.9z M-160.8,491.9c66.4,0,132.8,0,199.2,0c13.3,0,19.8-6.5,19.8-20.1c0-50.1,0-100.5,0-150.5
		c0-17.7-5.4-23.5-23.2-23.5c-131.5,0-262.9,0-394.4,0c-12.9,0-19.8,6.8-19.8,19.8c0,50.7,0,101.5,0,152.6
		c0,16.3,5.4,22.1,22.1,22.1C-291.6,491.9-226.2,491.9-160.8,491.9z M-361.4,501c0,3.1,0.3,5.4,0,7.8c-0.7,5.1,1.4,6.5,6.5,6.5
		c128.7,0,257.8,0,386.6,0c2,0,4.1-0.3,6.5-0.3c0-5.1,0-9.2,0-14C-94.8,501-227.6,501-361.4,501z M10.5,288.2
		c1.4-9.9,1.4-9.9-7.5-9.9c-2.4,0-4.8,0-7.2,0c-8.9,0-9.5,1-7.2,9.9C-4.2,288.2,3,288.2,10.5,288.2z M-303.2,288.2
		c1-8.5,0.7-9.9-2.4-9.9c-6.5-0.3-12.9,0-19.8,0c0,3.7,0,6.8,0,9.9C-317.5,288.2-310.7,288.2-303.2,288.2z"/>
	<path id="XMLID_1067_" class="st1" d="M-278.3,307.9c22.5,0,44.6,0,67.1,0c13.6,0,21.5,7.8,21.5,21.8c0,42.9,0,85.5,0,128.4
		c0,13.6-8.2,21.8-21.8,21.8c-45,0-89.9,0-134.9,0c-13.3,0-21.1-8.2-21.1-21.1c0-42.9,0-86.2,0-129.1c0-14.6,7.5-22.1,22.5-22.1
		C-322.9,307.9-300.8,307.9-278.3,307.9z M-278.7,471.8c22.5,0,45.3,0,67.8,0c9.2,0,12.9-3.7,12.9-12.6c0-43.3,0-86.8,0-130.1
		c0-9.2-3.7-12.9-12.6-12.9c-45.3,0-90.3,0-135.6,0c-9.5,0-12.9,3.7-12.9,13.3c0,42.9,0,86.2,0,129.1c0,9.9,3.4,13.3,13.3,13.3
		C-323.6,471.8-301.2,471.8-278.7,471.8z"/>
	<path id="XMLID_1064_" class="st1" d="M-42,307.9c22.5,0,45.3,0,67.8,0c12.6,0,21.1,7.8,21.1,20.4c0,43.6,0,87.2,0,130.8
		c0,12.6-8.2,20.8-20.8,20.8c-45.6,0-90.9,0-136.6,0c-12.3,0-20.4-8.5-20.4-20.8c0-43.3,0-86.8,0-130.1c0-12.9,8.5-21.1,21.1-21.1
		C-87.3,307.9-64.8,307.9-42,307.9L-42,307.9z M-42.6,471.8L-42.6,471.8c22.8,0,46,0,68.8,0c8.5,0,12.3-3.7,12.3-12.3
		c0-43.9,0-87.5,0-131.5c0-8.5-3.7-11.9-12.3-12.3c-45.3,0-90.6,0-136.2,0c-8.9,0-12.9,3.7-12.9,12.3c0,43.6,0,87.2,0,130.8
		c0,9.2,3.4,12.6,12.9,12.6C-87.3,471.8-65.1,471.8-42.6,471.8z"/>
	<path id="XMLID_985_" class="st1" d="M-156.4,441.8c-2.7,0-5.1,0-8.2,0c0-6.8,0-14,0-21.1c2.7,0,5.4,0,8.2,0
		C-156.4,427.8-156.4,434.6-156.4,441.8z"/>
	<path id="XMLID_984_" class="st1" d="M-156.4,365.2c-3.1,0-5.4,0-8.2,0c0-6.8,0-13.6,0-20.8c2.7,0,5.4,0,8.2,0
		C-156.4,351.2-156.4,358-156.4,365.2z"/>
	<g id="XMLID_1015_">
		<path id="XMLID_1060_" class="st1" d="M-94.1,384.6h6.1v-11.9c0-1,0-2,0-2l0,0c0,0-0.3,0.7-1,1.4l-1.7,1.7l-4.1-4.4l7.8-7.2h6.1
			v22.5h5.4v6.1h-19.1L-94.1,384.6L-94.1,384.6z"/>
		<path id="XMLID_1057_" class="st1" d="M-72.6,376.1c0-8.2,2.7-14.6,10.6-14.6s10.6,6.5,10.6,14.6c0,8.2-2.7,14.6-10.6,14.6
			S-72.6,384.2-72.6,376.1z M-58.3,376.1c0-4.8-0.7-8.2-3.4-8.2s-3.4,3.7-3.4,8.2c0,4.8,0.7,8.5,3.4,8.5S-58.3,380.8-58.3,376.1z"/>
		<path id="XMLID_1054_" class="st1" d="M-46.7,369.9h6.5v6.5h-6.5V369.9z M-46.7,383.9h6.5v6.5h-6.5V383.9z"/>
		<path id="XMLID_1051_" class="st1" d="M-36.2,376.1c0-8.2,2.7-14.6,10.6-14.6s10.6,6.5,10.6,14.6c0,8.2-2.7,14.6-10.6,14.6
			S-36.2,384.2-36.2,376.1z M-21.9,376.1c0-4.8-0.7-8.2-3.4-8.2s-3.4,3.7-3.4,8.2c0,4.8,0.7,8.5,3.4,8.5S-21.9,380.8-21.9,376.1z"/>
		<path id="XMLID_1048_" class="st1" d="M-10.6,376.1c0-8.2,2.7-14.6,10.6-14.6s10.6,6.5,10.6,14.6c0,8.2-2.7,14.6-10.6,14.6
			S-10.6,384.2-10.6,376.1z M3.3,376.1c0-4.8-0.7-8.2-3.4-8.2s-3.4,3.7-3.4,8.2c0,4.8,0.7,8.5,3.4,8.5S3.3,380.8,3.3,376.1z"/>
		<path id="XMLID_1046_" class="st1" d="M-104.6,421h4.4v-8.5c0-0.7,0-1.7,0-1.7l0,0c0,0-0.3,0.7-0.7,1l-1.4,1l-3.1-3.1l5.4-5.1h4.4
			V421h4.4v4.4h-14L-104.6,421L-104.6,421z"/>
		<path id="XMLID_1044_" class="st1" d="M-81.8,403.6h4.1l-7.5,23.2h-4.1L-81.8,403.6z"/>
		<path id="XMLID_1042_" class="st1" d="M-75.3,421h4.4v-8.5c0-0.7,0-1.7,0-1.7l0,0c0,0-0.3,0.7-0.7,1l-1.4,1l-3.1-3.1l5.4-5.1h4.4
			V421h4.4v4.4h-13.6C-75.3,425.4-75.3,421-75.3,421z"/>
		<path id="XMLID_1040_" class="st1" d="M-52.5,403.6h4.1l-7.5,23.2H-60L-52.5,403.6z"/>
		<path id="XMLID_1030_" class="st1" d="M-46.4,423.1c0-7.8,8.9-9.2,8.9-11.9c0-1.4-1-2-2.4-2c-1.4,0-2.4,1-3.1,2l-3.7-2.4
			c1.4-2.4,3.7-4.4,7.5-4.4c3.4,0,7.2,2,7.2,6.5c0,6.5-8.5,7.8-8.5,10.6h8.9v4.4h-14.3C-46.4,424.8-46.4,423.7-46.4,423.1z"/>
		<path id="XMLID_1027_" class="st1" d="M-29,414.9c0-6.1,2-10.6,7.8-10.6s7.8,4.8,7.8,10.6c0,5.8-2,10.9-7.8,10.9S-29,421-29,414.9
			z M-18.5,414.9c0-3.4-0.7-6.1-2.7-6.1s-2.7,2.7-2.7,6.1s0.7,6.1,2.7,6.1S-18.5,418.3-18.5,414.9z"/>
		<path id="XMLID_1020_" class="st1" d="M-10.3,421h4.4v-8.5c0-0.7,0-1.7,0-1.7l0,0c0,0-0.3,0.7-0.7,1l-1.4,1l-3.1-3.1l5.4-5.1h4.4
			V421h4.4v4.4h-14L-10.3,421L-10.3,421z"/>
		<path id="XMLID_1016_" class="st1" d="M8.4,414.2c-1-1-2-2.4-2-4.1c0-3.1,2-6.1,7.2-6.1c3.7,0,7.2,2,7.2,6.1c0,2-1.4,4.1-2,4.8
			c1.4,1,2.4,2.4,2.4,4.4c0,3.1-2.7,6.5-7.8,6.5s-7.8-3.1-7.8-6.5C5.4,416.6,7.4,414.9,8.4,414.2z M13.2,421.4c1.7,0,2.4-0.7,2.4-2
			c0-1.4-1.7-2-3.7-2.7c-0.3,0.7-1,1.4-1,2.7C10.8,420.3,11.8,421.4,13.2,421.4z M15.6,410.8c0-1-0.7-2-2-2s-2,0.7-2,1.7
			c0,1.4,1.4,2,3.4,2.7C15.3,412.8,15.6,411.8,15.6,410.8z"/>
	</g>
	<g id="XMLID_1006_">
		<g id="XMLID_1007_" transform="translate(0.000000,511.000000) scale(0.100000,-0.100000)">
			<path id="XMLID_302_" class="st1" d="M-3010.1,1746.2c-18.7-3.1-49-17.7-63.3-30.3c-33.4-28.9-49.7-77.7-40.2-121.6
				c18.1-84.8,108-127.4,186.3-87.5c18.1,8.9,42.2,32.7,51.8,51.1c32,59.6,12.9,133.9-43.6,170.3
				C-2943.7,1743.9-2980.9,1751-3010.1,1746.2z"/>
			<path id="XMLID_299_" class="st1" d="M-2577.3,1632.8c-39.2-9.5-70.5-39.5-82.1-77.3c-8.2-26.9-6.5-59.3,5.1-83.4
				c10.9-23.5,32.4-44.6,55.9-55.9c17-8.2,19.8-8.5,49-8.5c29.6,0,31.7,0.3,49,8.9c73.6,36.1,88.6,132.8,29.3,188.7
				C-2499.6,1632.1-2539.1,1642.4-2577.3,1632.8z"/>
			<path id="XMLID_300_" class="st1" d="M-3016.6,1424.7c-43.3-4.4-82.4-15.7-114.8-32.4c-35.1-18.1-51.8-39.5-59.6-77.7
				c-3.7-17.4-4.4-44.6-4.4-173c0-184.9-4.4-166.5,43.3-166.5h32V782.4V589.6h123.3h123.3v107.3v107.3h-16h-16v132.1v131.8l6.5,13.3
				c3.1,7.5,11.9,18.4,18.7,24.9c13.3,11.9,44.6,28.9,59.6,31.7l8.9,1.7l-17,15.7c-41.6,38.1-51.1,95.4-24.2,142
				c8.9,15,32,38.1,43.3,42.6c4.4,2,8.2,4.4,8.2,5.8c0,1.4-4.1,7.8-8.5,15c-16,23.2-52.8,43.3-103.5,55.9
				c-22.1,5.4-72.9,12.9-80,11.9C-2994.1,1427.1-3005,1426.1-3016.6,1424.7z"/>
			<path id="XMLID_522_" class="st1" d="M-2591.9,1343.7c-27.6-5.1-52.5-11.9-67.4-18.1l-12.9-5.4l8.2-9.5
				c18.1-20.4,27.2-54.5,23.5-85.8c-3.1-29.3-23.2-62.3-46-77.7l-10.6-6.8l12.9-4.4c35.4-11.9,62-32,72.2-54.5l6.5-13.3V936.3V804.2
				h-16h-16V696.9V589.6h101.8h101.8v176.8v176.8h26.9h26.9v162.8c0,183.9,0.7,174.4-21.5,194.5
				C-2438.3,1333.1-2531.6,1354.2-2591.9,1343.7z"/>
			<path id="XMLID_523_" class="st1" d="M-2775.5,1322.6c-25.2-8.5-42.2-23.5-52.8-46c-9.2-20.4-8.5-48.4,1.4-68.8
				c29.6-60.3,116.1-61,147.1-1.4c4.1,8.2,6.1,17.7,6.8,33.4c1,20.8,0.7,23.2-7.2,39.5c-9.5,18.7-23.5,32.4-41.9,40.2
				C-2736.7,1324.9-2762.5,1326.6-2775.5,1322.6z"/>
			<path id="XMLID_914_" class="st1" d="M-2784.3,1116.5c-33.4-5.8-69.8-22.5-81.4-38.5l-6.1-8.2l-0.7-117.2l-0.7-117.5h16.3h16
				v-123V588.9h85.8h85.8v123.3v123.3h16h16v114.8c0,130.1,0.7,125.7-22.5,141.7C-2691.4,1113.4-2742.8,1123.7-2784.3,1116.5z"/>
		</g>
	</g>
</g>
<g>
	<g>
		<path d="M-397.7,602.3c2.7-0.4,5.8-0.8,9.7-0.8c5.8,0,9.7,1.2,12.9,3.5c3.1,2.3,5.5,6.2,5.5,11.7c0,5.8-2.3,10.1-5.1,12.9
			c-3.5,2.7-8.2,3.9-14.4,3.9c-3.5,0-6.2-0.4-8.2-0.4v-30.8H-397.7z M-390.7,628c0.8,0,1.6,0,2.3,0c6.6,0,10.5-3.5,10.5-10.9
			c0-6.6-3.9-10.1-9.7-10.1c-1.6,0-2.7,0-3.1,0.4V628z"/>
		<path d="M-358,601.9v31.5h-7v-31.5H-358z"/>
		<path d="M-325.6,631.9c-2.3,0.8-6.2,1.9-10.5,1.9c-5.8,0-9.7-1.6-12.9-4.3c-2.7-2.7-4.7-7-4.3-11.3c0-10.5,7.8-16.4,17.9-16.4
			c3.9,0,7,0.8,8.6,1.6l-1.6,5.8c-1.6-0.8-3.9-1.2-7.4-1.2c-5.8,0-10.5,3.5-10.5,10.1c0,6.6,3.9,10.5,9.7,10.5c1.6,0,3.1,0,3.5-0.4
			v-6.6h-4.7v-5.5h11.7v15.6H-325.6z"/>
		<path d="M-312.8,601.9v31.5h-7v-31.5H-312.8z"/>
		<path d="M-300.7,607.7h-8.6v-5.8h24.1v5.8h-8.6V633h-7V607.7z"/>
		<path d="M-277,625.2l-2.3,8.2h-7.4l9.7-31.5h9.3l9.7,31.5h-7.8l-2.3-8.2H-277z M-269.2,619.8l-1.9-6.6c-0.4-1.9-1.2-4.3-1.6-6.2
			l0,0c-0.4,1.9-0.8,4.3-1.6,6.2l-1.9,6.6H-269.2z"/>
		<path d="M-253.6,601.9h7v25.3h12.5v5.8h-19.5V601.9z"/>
		<path d="M-220.5,602.3c2.3-0.4,5.5-0.8,9.7-0.8c4.3,0,7.4,0.8,9.7,2.3c1.9,1.6,3.5,4.3,3.5,7.4c0,3.1-1.2,5.8-2.7,7.4
			c-2.3,2.3-5.8,3.5-10.1,3.5c-0.8,0-1.9,0-2.3,0v11.3h-7v-31.2H-220.5z M-213.5,616.7c0.8,0,1.2,0,2.3,0c3.9,0,6.2-1.9,6.2-5.1
			c0-2.7-1.9-4.7-5.5-4.7c-1.6,0-2.3,0-3.1,0.4C-213.5,607.3-213.5,616.7-213.5,616.7z"/>
		<path d="M-186.2,601.9v12.1h11.7v-12.1h7.4v31.5h-7v-13.2h-11.7v13.2h-7v-31.5H-186.2z"/>
		<path d="M-132.1,617.1c0,10.5-6.2,16.7-15.6,16.7s-14.8-7-14.8-16c0-9.3,5.8-16.4,15.2-16.4C-137.5,601.1-132.1,608.5-132.1,617.1
			z M-155,617.4c0,6.2,2.7,10.5,7.8,10.5c4.7,0,7.4-4.7,7.4-10.5s-2.7-10.5-7.8-10.5C-152.3,606.9-155,611.6-155,617.4z"/>
		<path d="M-122.7,607.7h-8.6v-5.8h24.1v5.8h-8.6V633h-7V607.7z"/>
		<path d="M-75.6,617.1c0,10.5-6.2,16.7-15.6,16.7s-14.8-7-14.8-16c0-9.3,5.8-16.4,15.2-16.4C-81,601.1-75.6,608.5-75.6,617.1z
			 M-98.6,617.4c0,6.2,2.7,10.5,7.8,10.5c4.7,0,7.4-4.7,7.4-10.5s-2.7-10.5-7.8-10.5C-95.8,606.9-98.6,611.6-98.6,617.4z"/>
		<path d="M-61.6,601.9h19.1v5.8h-12.1v7h11.3v5.8h-11.3v12.9h-7V601.9z"/>
		<path d="M-37,602.3c2.3-0.4,5.8-0.8,9.3-0.8c4.7,0,7.8,0.8,10.1,2.3c1.9,1.6,2.7,3.5,2.7,6.6c0,3.9-2.7,6.6-5.5,7.8l0,0
			c2.3,0.8,3.5,3.1,4.3,5.8c1.2,3.5,1.9,7.8,2.7,9h-7.4c-0.4-0.8-1.2-3.5-2.3-7.4c-0.8-3.9-2.3-5.1-5.1-5.1h-2.3V633h-7v-30.8H-37z
			 M-30,615.9h2.7c3.5,0,5.8-1.9,5.8-4.7s-1.9-4.3-5.1-4.3c-1.6,0-2.7,0-3.1,0.4v8.6H-30z"/>
		<path d="M-1.6,625.2l-2.3,8.2h-7.4l9.7-31.5h9.3l9.7,31.5H9.7l-2.3-8.2H-1.6z M6.6,619.8l-1.9-6.6c-0.4-1.9-1.2-4.3-1.6-6.2l0,0
			c-0.4,1.9-0.8,4.3-1.6,6.2l-1.9,6.6H6.6z"/>
		<path d="M48.3,621.3c0-3.9-0.4-8.2-0.4-12.9l0,0c-1.2,3.9-2.3,8.6-3.5,12.1L40.5,633H35l-3.5-12.1c-1.2-3.9-1.9-8.2-2.7-12.5l0,0
			c0,4.3-0.4,9-0.4,12.9L28,633.4h-6.6l1.9-31.5h9.3l3.1,10.5c1.2,3.5,1.9,7.4,2.7,11.3l0,0c0.8-3.5,1.9-7.8,3.1-11.3l3.5-10.5h9.3
			l1.6,31.5h-7L48.3,621.3z"/>
		<path d="M80.2,619.8H68.5v7.4h12.9v5.8H61.1v-31.2h19.5v5.8H68.1v6.6h11.7v5.5H80.2z"/>
	</g>
	<g>
		<path class="st1" d="M-403.4,602.3c2.7-0.4,5.8-0.8,9.7-0.8c5.8,0,9.7,1.2,12.9,3.5s5.5,6.2,5.5,11.7c0,5.8-2.3,10.1-5.1,12.9
			c-3.5,2.7-8.2,3.9-14.4,3.9c-3.5,0-6.2-0.4-8.2-0.4v-30.8H-403.4z M-396.4,628c0.8,0,1.6,0,2.3,0c6.6,0,10.5-3.5,10.5-10.9
			c0-6.6-3.9-10.1-9.7-10.1c-1.6,0-2.7,0-3.1,0.4V628z"/>
		<path class="st1" d="M-363.6,601.9v31.5h-7v-31.5H-363.6z"/>
		<path class="st1" d="M-331.3,631.9c-2.3,0.8-6.2,1.9-10.5,1.9c-5.8,0-9.7-1.6-12.9-4.3c-2.7-2.7-4.7-7-4.3-11.3
			c0-10.5,7.8-16.4,17.9-16.4c3.9,0,7,0.8,8.6,1.6l-1.6,5.8c-1.6-0.8-3.9-1.2-7.4-1.2c-5.8,0-10.5,3.5-10.5,10.1
			c0,6.6,3.9,10.5,9.7,10.5c1.6,0,3.1,0,3.5-0.4v-6.6h-4.7v-5.5h11.7v15.6H-331.3z"/>
		<path class="st1" d="M-318.5,601.9v31.5h-7v-31.5H-318.5z"/>
		<path class="st1" d="M-306.4,607.7h-8.6v-5.8h24.1v5.8h-8.6V633h-7V607.7z"/>
		<path class="st1" d="M-282.6,625.2l-2.3,8.2h-7.4l9.7-31.5h9.3l9.7,31.5h-7.8l-2.3-8.2H-282.6z M-274.8,619.8l-1.9-6.6
			c-0.4-1.9-1.2-4.3-1.6-6.2l0,0c-0.4,1.9-0.8,4.3-1.6,6.2l-1.9,6.6H-274.8z"/>
		<path class="st1" d="M-259.3,601.9h7v25.3h12.5v5.8h-19.5V601.9z"/>
		<path class="st1" d="M-226.2,602.3c2.3-0.4,5.5-0.8,9.7-0.8c4.3,0,7.4,0.8,9.7,2.3c1.9,1.6,3.5,4.3,3.5,7.4c0,3.1-1.2,5.8-2.7,7.4
			c-2.3,2.3-5.8,3.5-10.1,3.5c-0.8,0-1.9,0-2.3,0v11.3h-7v-31.2H-226.2z M-219.1,616.7c0.8,0,1.2,0,2.3,0c3.9,0,6.2-1.9,6.2-5.1
			c0-2.7-1.9-4.7-5.5-4.7c-1.6,0-2.3,0-3.1,0.4C-219.1,607.3-219.1,616.7-219.1,616.7z"/>
		<path class="st1" d="M-191.9,601.9v12.1h11.7v-12.1h7.4v31.5h-7v-13.2h-11.7v13.2h-7v-31.5H-191.9z"/>
		<path class="st1" d="M-137.7,617.1c0,10.5-6.2,16.7-15.6,16.7s-14.8-7-14.8-16c0-9.3,5.8-16.4,15.2-16.4
			C-143.2,601.1-137.7,608.5-137.7,617.1z M-160.7,617.4c0,6.2,2.7,10.5,7.8,10.5c4.7,0,7.4-4.7,7.4-10.5s-2.7-10.5-7.8-10.5
			C-158,606.9-160.7,611.6-160.7,617.4z"/>
		<path class="st1" d="M-128.4,607.7h-8.6v-5.8h24.1v5.8h-8.6V633h-7V607.7z"/>
		<path class="st1" d="M-81.3,617.1c0,10.5-6.2,16.7-15.6,16.7s-14.8-7-14.8-16c0-9.3,5.8-16.4,15.2-16.4
			C-86.7,601.1-81.3,608.5-81.3,617.1z M-104.2,617.4c0,6.2,2.7,10.5,7.8,10.5c4.7,0,7.4-4.7,7.4-10.5s-2.7-10.5-7.8-10.5
			C-101.5,606.9-104.2,611.6-104.2,617.4z"/>
		<path class="st1" d="M-67.2,601.9h19.1v5.8h-12.1v7h11.3v5.8h-11.3v12.9h-7V601.9z"/>
		<path class="st1" d="M-42.7,602.3c2.3-0.4,5.8-0.8,9.3-0.8c4.7,0,7.8,0.8,10.1,2.3c1.9,1.6,2.7,3.5,2.7,6.6c0,3.9-2.7,6.6-5.5,7.8
			l0,0c2.3,0.8,3.5,3.1,4.3,5.8c1.2,3.5,1.9,7.8,2.7,9h-7.4c-0.4-0.8-1.2-3.5-2.3-7.4c-0.8-3.9-2.3-5.1-5.1-5.1h-2.3V633h-7v-30.8
			H-42.7z M-35.7,615.9h2.7c3.5,0,5.8-1.9,5.8-4.7s-1.9-4.3-5.1-4.3c-1.6,0-2.7,0-3.1,0.4v8.6H-35.7z"/>
		<path class="st1" d="M-7.3,625.2l-2.3,8.2H-17l9.7-31.5h9.3l9.7,31.5H4l-2.3-8.2H-7.3z M0.9,619.8l-1.9-6.6
			c-0.4-1.9-1.2-4.3-1.6-6.2l0,0c-0.4,1.9-0.8,4.3-1.6,6.2l-1.9,6.6H0.9z"/>
		<path class="st1" d="M42.6,621.3c0-3.9-0.4-8.2-0.4-12.9l0,0c-1.2,3.9-2.3,8.6-3.5,12.1L34.8,633h-5.5l-3.5-12.1
			c-1.2-3.9-1.9-8.2-2.7-12.5l0,0c0,4.3-0.4,9-0.4,12.9l-0.4,12.1h-6.6l1.9-31.5H27l3.1,10.5c1.2,3.5,1.9,7.4,2.7,11.3l0,0
			c0.8-3.5,1.9-7.8,3.1-11.3l3.5-10.5h9.3l1.6,31.5h-7L42.6,621.3z"/>
		<path class="st1" d="M74.5,619.8H62.8v7.4h12.9v5.8H55.4v-31.2h19.5v5.8H62.5v6.6h11.7v5.5H74.5z"/>
	</g>
</g>
</svg>
