<?xml version="1.0" encoding="utf-8"?>
<!-- Generator: Adobe Illustrator 19.0.0, SVG Export Plug-In . SVG Version: 6.00 Build 0)  -->
<svg version="1.1" id="Layer_1" xmlns="http://www.w3.org/2000/svg" xmlns:xlink="http://www.w3.org/1999/xlink" x="0px" y="0px"
	 viewBox="-417 141 512 512" style="enable-background:new -417 141 512 512;" xml:space="preserve">
<style type="text/css">
	.st0{fill-rule:evenodd;clip-rule:evenodd;fill:#BD2F32;}
	.st1{fill:#FFFFFF;}
</style>
<g id="XMLID_29_">
	<rect id="XMLID_28_" x="-417" y="141" class="st0" width="512" height="512"/>
	<g id="XMLID_30_">
		<rect id="XMLID_31_" x="-344.7" y="580.2" class="st1" width="367.3" height="2.1"/>
	</g>
</g>
<g>
	<rect id="XMLID_561_" x="-29.3" y="275.3" class="st1" width="10.4" height="70.6"/>
	<path id="XMLID_248_" class="st1" d="M-54.3,268.8c23,0,41.8-18.8,42.2-41.8l0,0c0-18.4-11.9-34.6-29.6-40.3
		c-0.8-0.4-1.9-0.4-3.5-0.8c0,0-0.4,0-0.8,0c-0.8,0-1.5,0-1.9-0.4h-0.8c-0.4,0-0.8,0-1.2,0c-1.5,0-2.7,0-4.2,0h-5.4v0.4
		c-21.1,2.7-36.9,20.7-36.9,41.8C-96.5,250-77.7,268.8-54.3,268.8z"/>
	<rect id="XMLID_559_" x="-88.4" y="275.3" class="st1" width="10.4" height="70.6"/>
	<path id="XMLID_256_" class="st1" d="M31.3,340.9h-1.9c-1.5-29.2-18-54.9-43.8-68.3v-1.9h-15.4h-0.4H-90l-0.8,0.4
		c-27.3,13.4-44.9,39.9-46.5,69.9h-216.1c-11.9,0-20.7,5-20.7,12.7c0,4.6,3.5,8.4,9.2,10.4v187.7H42.5V364.4
		c6.1-2.3,9.6-5.8,9.6-10.7C52.5,346.3,43.6,340.9,31.3,340.9z M37.5,360.9L37.5,360.9l0.4,186.6H-267v0.4h-93.3v-0.4V360.9h0.8
		c-6.1-1.2-10.4-3.8-10.4-7.3c0-4.2,7.3-7.7,16.1-7.7H-133c0.4-30.7,18-57.6,44.2-70.6l6.9,35.7l-6.9,34.9h34.2l-13.4-12.7l8.1-45.7
		l0,0l-8.8-12.3h14.6l0,0h14.6l-8.8,12.7l8.1,45.3l-13.4,12.7h34.2l-6.9-34.9l6.9-35.7C6.4,288,24,314.8,24.4,345.9H31
		c8.8,0,16.1,3.5,16.1,7.7C47.5,356.7,43.2,359.8,37.5,360.9z"/>
	<polygon id="XMLID_257_" class="st1" points="-53.9,346.3 -53.9,346.3 -53.5,346.3 -53.5,346.3 -53.1,345.9 -54.3,345.9 	"/>
	<path id="XMLID_258_" class="st1" d="M-88.4,346.3L-88.4,346.3l-44.2-0.4v0.4H-88.4z"/>
	<path id="XMLID_475_" class="st1" d="M25.2,346.3L25.2,346.3l-44.2-0.4v0.4H25.2z"/>
	<path id="XMLID_476_" class="st1" d="M31.7,345.9h-6.5v0.4H-19v-0.4h-34.2l-0.4,0.4l0,0l0,0l0,0l0,0l-0.4-0.4h-34.2v0.4h-44.5v-0.4
		h-220.8c-8.8,0-16.1,3.5-16.1,7.7c0,3.1,4.2,6.1,10.4,7.3h92.1H37.5c6.1-1.2,10.4-3.8,10.4-7.3C47.8,349.4,40.6,345.9,31.7,345.9z"
		/>
	<rect id="XMLID_482_" x="-360.3" y="547.1" class="st1" width="92.9" height="0.4"/>
	<path id="XMLID_483_" class="st1" d="M-353.3,361.3c-1.9,0-3.8-0.4-5.8-0.4h-0.8v186.6h92.9V361.3H-353.3z"/>
	<g id="XMLID_516_">
		<path id="XMLID_517_" class="st1" d="M-215.5,265.3l-2.7-4.6c-0.4-0.4-0.8-0.8-1.2-0.8h-39.2c-0.4,0-1.2,0-1.2,0.8l-3.1,4.6
			c0,0,0,0.4,0,0.8V336c0,0,0,0.4,0,0.8l3.1,5.8c0,0.4,0.8,0.8,1.5,0.8h38.8c0.4,0,1.2-0.4,1.5-0.8l3.1-5.8c0,0,0-0.4,0-0.8v-69.9
			C-215.1,265.7-215.1,265.3-215.5,265.3z M-256.2,260.7h33.8l3.1,4.2h-39.2L-256.2,260.7z M-220.5,339.8h-36.9l-1.5-3.1h28.4
			c0.8,0,1.5-0.8,1.5-1.5s-0.8-1.5-1.5-1.5h-29.2V268h41.5v67.6L-220.5,339.8z"/>
	</g>
	<g id="XMLID_514_">
		<path id="XMLID_515_" class="st1" d="M-222.8,333.7h-1.5c-0.8,0-1.5,0.8-1.5,1.5s0.8,1.5,1.5,1.5h1.5c0.8,0,1.5-0.8,1.5-1.5
			S-222,333.7-222.8,333.7z"/>
	</g>
	<path id="XMLID_513_" class="st1" d="M-229.3,296.8l-9.6-15.7l-9.6,15.7c-1.2,1.9-1.5,3.8-1.5,5.8c0,3.1,1.2,5.8,3.5,8.1
		s5,3.5,8.1,3.5c3.1,0,5.8-1.2,8.1-3.5c0,0,0.4-0.4,0.8-0.8C-227.4,306.4-227,301-229.3,296.8z"/>
	<path id="XMLID_508_" class="st1" d="M-217.4,260.7h-43.4c-0.4,0-0.8-0.4-0.8-0.8v-1.2c0-0.4,0.4-0.8,0.8-0.8h43.4
		c0.4,0,0.8,0.4,0.8,0.8v1.2C-216.3,260.3-217.1,260.7-217.4,260.7z"/>
	<path id="XMLID_506_" class="st1" d="M-346.1,248.4"/>
	<g id="XMLID_499_">
		<g id="XMLID_500_">
			<path id="XMLID_501_" class="st1" d="M-318,338.3c0.8,0,1.5-28.8,1.5-29.6v-15.4c0-0.8-0.8-1.5-1.5-1.5c-0.8,0-1.5,0.4-1.5,1.5
				v15.4C-319.6,309.5-318.8,338.3-318,338.3z"/>
		</g>
	</g>
	<g id="XMLID_497_">
		<ellipse id="XMLID_498_" class="st1" cx="-318" cy="288.7" rx="1.5" ry="1.5"/>
	</g>
	<g id="XMLID_492_">
		<g id="XMLID_493_">
			<path id="XMLID_494_" class="st1" d="M-322.3,269.5c3.8,0,6.9-3.1,6.9-6.5c0-0.8,0.8-1.5,1.5-1.5s1.5,0.8,1.5,1.5
				c0,5-4.6,9.6-10,9.6c-6.9,0-12.3-5-12.3-11.5c0-7.7,6.9-13.8,15-13.8c10,0,18.4,7.7,18.4,17.3c0,7.7-4.2,14.2-10.7,18h47.2
				c0.8,0,1.5,0.8,1.5,1.5s-0.8,1.5-1.5,1.5h-0.8v54.9h0.8c0.8,0,1.5,0.8,1.5,1.5s-0.8,1.5-1.5,1.5h-61.4c-0.8,0-1.5-0.8-1.5-1.5
				s0.8-1.5,1.5-1.5h0.8v-55.3h-0.8c-0.8,0-1.5-0.8-1.5-1.5s0.8-1.5,1.5-1.5h2.3c10.7,0,19.2-8.1,19.2-18c0-7.7-6.9-13.8-15-13.8
				c-6.5,0-11.9,5-11.9,10.7C-331.5,265.7-327.2,269.5-322.3,269.5z M-268.9,340.2v-54.9h-53.4v54.9H-268.9z"/>
		</g>
	</g>
</g>
<g>
	<path d="M-323.6,600.2c2.3-0.3,4.8-0.6,8-0.6c4.8,0,8,1,10.6,2.9c2.6,1.9,4.5,5.1,4.5,9.7c0,4.8-1.9,8.4-4.2,10.6
		c-2.9,2.3-6.8,3.2-11.9,3.2c-2.9,0-5.1-0.3-6.8-0.3v-25.4H-323.6z M-317.9,621.4c0.6,0,1.3,0,1.9,0c5.5,0,8.7-2.9,8.7-9
		c0-5.5-3.2-8.4-8-8.4c-1.3,0-2.3,0-2.6,0.3V621.4z"/>
	<path d="M-290.8,599.8v26.1h-5.8v-26.1H-290.8z"/>
	<path d="M-264.1,624.6c-1.9,0.6-5.1,1.6-8.7,1.6c-4.8,0-8-1.3-10.6-3.5c-2.3-2.3-3.9-5.8-3.5-9.3c0-8.7,6.4-13.5,14.8-13.5
		c3.2,0,5.8,0.6,7.1,1.3l-1.3,4.8c-1.3-0.6-3.2-1-6.1-1c-4.8,0-8.7,2.9-8.7,8.4s3.2,8.7,8,8.7c1.3,0,2.6,0,2.9-0.3v-5.5h-3.9v-4.5
		h9.7v12.9H-264.1z"/>
	<path d="M-253.5,599.8v26.1h-5.8v-26.1H-253.5z"/>
	<path d="M-243.5,604.7h-7.1v-4.8h19.9v4.8h-7.1v20.9h-5.8C-243.5,625.6-243.5,604.7-243.5,604.7z"/>
	<path d="M-223.9,619.2l-1.9,6.8h-6.1l8-26.1h7.7l8,26.1h-6.4l-1.9-6.8H-223.9z M-217.5,615l-1.6-5.5c-0.3-1.6-1-3.5-1.3-5.1l0,0
		c-0.3,1.6-0.6,3.5-1.3,5.1l-1.6,5.5H-217.5z"/>
	<path d="M-204.6,599.8h5.8v20.9h10.3v4.8h-16.1V599.8z"/>
	<path d="M-173.7,604.7h-7.1v-4.8h19.9v4.8h-7.1v20.9h-5.8C-173.7,625.6-173.7,604.7-173.7,604.7z"/>
	<path d="M-154.4,619.2l-1.9,6.8h-5.8l8-26.1h7.7l8,26.1h-6.4l-1.9-6.8H-154.4z M-147.6,615l-1.6-5.5c-0.3-1.6-1-3.5-1.3-5.1l0,0
		c-0.3,1.6-0.6,3.5-1.3,5.1l-1.6,5.5H-147.6z"/>
	<path d="M-135.1,600.2c1.6-0.3,4.8-0.6,7.7-0.6c3.5,0,5.8,0.3,7.7,1.6c1.9,1,3.2,2.9,3.2,5.1c0,2.3-1.3,4.5-4.2,5.5l0,0
		c2.9,1,5.1,2.9,5.1,6.4c0,2.3-1,4.2-2.6,5.5c-1.9,1.6-5.1,2.3-10.3,2.3c-2.9,0-5.1-0.3-6.4-0.3v-25.4H-135.1z M-129.3,610.1h1.9
		c3.2,0,4.8-1.3,4.8-3.2c0-1.9-1.6-2.9-4.2-2.9c-1.3,0-1.9,0-2.6,0V610.1z M-129.3,621.7c0.6,0,1.3,0,2.3,0c2.6,0,5.1-1,5.1-3.9
		c0-2.6-2.3-3.5-5.1-3.5h-1.9v7.4H-129.3z"/>
	<path d="M-111.6,599.8h5.8v20.9h10.3v4.8h-16.1V599.8z"/>
	<path d="M-76.5,615h-9.7v6.1h10.6v4.8h-16.7v-26.1h16.1v4.8h-10.3v5.5h9.7v4.8H-76.5z"/>
	<path d="M-60.1,604.7h-7.1v-4.8h19.9v4.8h-7.1v20.9h-5.8V604.7z"/>
	<path d="M-21.2,612.7c0,8.7-5.1,13.8-12.9,13.8s-12.2-5.8-12.2-13.2c0-7.7,4.8-13.5,12.5-13.5C-25.7,599.5-21.2,605.3-21.2,612.7z
		 M-39.9,613c0,5.1,2.3,8.7,6.4,8.7c3.9,0,6.1-3.9,6.1-8.7s-2.3-8.7-6.4-8.7C-37.6,604-39.9,607.9-39.9,613z"/>
	<path d="M-17.3,600.2c1.9-0.3,4.5-0.6,8-0.6s6.1,0.6,8,1.9c1.6,1.3,2.9,3.5,2.9,6.1s-1,4.8-2.3,6.1c-1.9,1.9-4.8,2.9-8.4,2.9
		c-0.6,0-1.6,0-1.9,0v9.3h-5.8v-25.7H-17.3z M-11.5,612.1c0.6,0,1,0,1.9,0c3.2,0,5.1-1.6,5.1-4.2c0-2.3-1.6-3.9-4.5-3.9
		c-1.3,0-1.9,0-2.6,0.3C-11.5,604.4-11.5,612.1-11.5,612.1z"/>
</g>
<g>
	<path class="st1" d="M-329.3,600.2c2.3-0.3,4.8-0.6,8-0.6c4.8,0,8,1,10.6,2.9c2.6,1.9,4.5,5.1,4.5,9.7c0,4.8-1.9,8.4-4.2,10.6
		c-2.9,2.3-6.8,3.2-11.9,3.2c-2.9,0-5.1-0.3-6.8-0.3v-25.4H-329.3z M-323.5,621.4c0.6,0,1.3,0,1.9,0c5.5,0,8.7-2.9,8.7-9
		c0-5.5-3.2-8.4-8-8.4c-1.3,0-2.3,0-2.6,0.3V621.4z"/>
	<path class="st1" d="M-296.5,599.8v26.1h-5.8v-26.1H-296.5z"/>
	<path class="st1" d="M-269.8,624.6c-1.9,0.6-5.1,1.6-8.7,1.6c-4.8,0-8-1.3-10.6-3.5c-2.3-2.3-3.9-5.8-3.5-9.3
		c0-8.7,6.4-13.5,14.8-13.5c3.2,0,5.8,0.6,7.1,1.3l-1.3,4.8c-1.3-0.6-3.2-1-6.1-1c-4.8,0-8.7,2.9-8.7,8.4s3.2,8.7,8,8.7
		c1.3,0,2.6,0,2.9-0.3v-5.5h-3.9v-4.5h9.7v12.9H-269.8z"/>
	<path class="st1" d="M-259.2,599.8v26.1h-5.8v-26.1H-259.2z"/>
	<path class="st1" d="M-249.2,604.7h-7.1v-4.8h19.9v4.8h-7.1v20.9h-5.8C-249.2,625.6-249.2,604.7-249.2,604.7z"/>
	<path class="st1" d="M-229.6,619.2l-1.9,6.8h-6.1l8-26.1h7.7l8,26.1h-6.4l-1.9-6.8H-229.6z M-223.1,615l-1.6-5.5
		c-0.3-1.6-1-3.5-1.3-5.1l0,0c-0.3,1.6-0.6,3.5-1.3,5.1l-1.6,5.5H-223.1z"/>
	<path class="st1" d="M-210.3,599.8h5.8v20.9h10.3v4.8h-16.1V599.8z"/>
	<path class="st1" d="M-179.4,604.7h-7.1v-4.8h19.9v4.8h-7.1v20.9h-5.8C-179.4,625.6-179.4,604.7-179.4,604.7z"/>
	<path class="st1" d="M-160.1,619.2l-1.9,6.8h-5.8l8-26.1h7.7l8,26.1h-6.4l-1.9-6.8H-160.1z M-153.3,615l-1.6-5.5
		c-0.3-1.6-1-3.5-1.3-5.1l0,0c-0.3,1.6-0.6,3.5-1.3,5.1l-1.6,5.5H-153.3z"/>
	<path class="st1" d="M-140.8,600.2c1.6-0.3,4.8-0.6,7.7-0.6c3.5,0,5.8,0.3,7.7,1.6c1.9,1,3.2,2.9,3.2,5.1c0,2.3-1.3,4.5-4.2,5.5
		l0,0c2.9,1,5.1,2.9,5.1,6.4c0,2.3-1,4.2-2.6,5.5c-1.9,1.6-5.1,2.3-10.3,2.3c-2.9,0-5.1-0.3-6.4-0.3v-25.4H-140.8z M-135,610.1h1.9
		c3.2,0,4.8-1.3,4.8-3.2c0-1.9-1.6-2.9-4.2-2.9c-1.3,0-1.9,0-2.6,0V610.1z M-135,621.7c0.6,0,1.3,0,2.3,0c2.6,0,5.1-1,5.1-3.9
		c0-2.6-2.3-3.5-5.1-3.5h-1.9v7.4H-135z"/>
	<path class="st1" d="M-117.3,599.8h5.8v20.9h10.3v4.8h-16.1V599.8z"/>
	<path class="st1" d="M-82.2,615h-9.7v6.1h10.6v4.8H-98v-26.1h16.1v4.8h-10.3v5.5h9.7v4.8H-82.2z"/>
	<path class="st1" d="M-65.8,604.7h-7.1v-4.8h19.9v4.8H-60v20.9h-5.8V604.7z"/>
	<path class="st1" d="M-26.9,612.7c0,8.7-5.1,13.8-12.9,13.8S-52,620.8-52,613.4c0-7.7,4.8-13.5,12.5-13.5
		C-31.4,599.5-26.9,605.3-26.9,612.7z M-45.5,613c0,5.1,2.3,8.7,6.4,8.7c3.9,0,6.1-3.9,6.1-8.7s-2.3-8.7-6.4-8.7
		C-43.3,604-45.5,607.9-45.5,613z"/>
	<path class="st1" d="M-23,600.2c1.9-0.3,4.5-0.6,8-0.6s6.1,0.6,8,1.9c1.6,1.3,2.9,3.5,2.9,6.1s-1,4.8-2.3,6.1
		c-1.9,1.9-4.8,2.9-8.4,2.9c-0.6,0-1.6,0-1.9,0v9.3h-5.8v-25.7H-23z M-17.2,612.1c0.6,0,1,0,1.9,0c3.2,0,5.1-1.6,5.1-4.2
		c0-2.3-1.6-3.9-4.5-3.9c-1.3,0-1.9,0-2.6,0.3C-17.2,604.4-17.2,612.1-17.2,612.1z"/>
</g>
</svg>
