<?xml version="1.0" encoding="utf-8"?>
<!-- Generator: Adobe Illustrator 19.0.0, SVG Export Plug-In . SVG Version: 6.00 Build 0)  -->
<svg version="1.1" id="Layer_1" xmlns="http://www.w3.org/2000/svg" xmlns:xlink="http://www.w3.org/1999/xlink" x="0px" y="0px"
	 viewBox="0 0 144 144" style="enable-background:new 0 0 144 144;" xml:space="preserve">
<g id="XMLID_239_">
	<path id="XMLID_240_" d="M109,47.8l-1.8,9.3l1.8,9.3h11.5C120.5,58.2,115.8,51.2,109,47.8z"/>
	<path id="XMLID_243_" d="M79.4,66.3h11.5l1.8-9.3l-1.8-9.3C84,51.2,79.4,58.2,79.4,66.3z"/>
	<rect id="XMLID_561_" x="106.3" y="47.8" width="2.7" height="18.4"/>
	<path id="XMLID_248_" d="M99.8,46.1c6,0,10.9-4.9,11-10.9v0c0-4.8-3.1-9-7.7-10.5c-0.2-0.1-0.5-0.1-0.9-0.2c0,0-0.1,0-0.2,0
		c-0.2,0-0.4,0-0.5-0.1l-0.2,0c-0.1,0-0.2,0-0.3,0c-0.4,0-0.7,0-1.1,0h-1.4v0.1c-5.5,0.7-9.6,5.4-9.6,10.9
		C88.8,41.2,93.7,46.1,99.8,46.1z"/>
	<rect id="XMLID_559_" x="90.9" y="47.8" width="2.7" height="18.4"/>
	<polygon id="XMLID_241_" points="103.6,62.9 101.5,51.1 103.8,47.8 100,47.8 99.9,47.8 96.1,47.8 98.4,51.1 98.4,51.1 96.3,62.9 
		99.8,66.2 100.1,66.2 	"/>
	<path id="XMLID_247_" d="M109,47.8l-1.8,9.3l1.8,9.1h11.5C120.4,58.1,115.8,51.1,109,47.8z"/>
	<path id="XMLID_253_" d="M92.7,57.1l-1.8-9.3c-6.8,3.3-11.4,10.3-11.5,18.4h11.5L92.7,57.1z"/>
	<path id="XMLID_256_" d="M122.1,64.9h-0.5c-0.4-7.6-4.7-14.3-11.4-17.8v-0.5h-4h-0.1H90.5l-0.2,0.1c-7.1,3.5-11.7,10.4-12.1,18.2
		H21.9c-3.1,0-5.4,1.3-5.4,3.3c0,1.2,0.9,2.2,2.4,2.7v48.9H125V71c1.6-0.6,2.5-1.5,2.5-2.8C127.6,66.3,125.3,64.9,122.1,64.9z
		 M123.7,70.1h0.1v48.6H44.4v0.1H20.1v-0.1V70.1h0.2c-1.6-0.3-2.7-1-2.7-1.9c0-1.1,1.9-2,4.2-2h57.5c0.1-8,4.7-15,11.5-18.4l1.8,9.3
		l-1.8,9.1h8.9l-3.5-3.3l2.1-11.9l0,0l-2.3-3.2h3.8h0h3.8l-2.3,3.3l2.1,11.8l-3.5,3.3h8.9l-1.8-9.1l1.8-9.3
		c6.8,3.3,11.4,10.3,11.5,18.4h1.7c2.3,0,4.2,0.9,4.2,2C126.3,69,125.2,69.8,123.7,70.1z"/>
	<polygon id="XMLID_257_" points="99.9,66.3 99.9,66.3 100,66.3 100,66.3 100.1,66.2 99.8,66.2 99.9,66.3 	"/>
	<path id="XMLID_258_" d="M90.9,66.3l0-0.1H79.4c0,0,0,0.1,0,0.1H90.9z"/>
	<path id="XMLID_475_" d="M120.5,66.3c0,0,0-0.1,0-0.1H109l0,0.1H120.5z"/>
	<path id="XMLID_476_" d="M122.2,66.2h-1.7c0,0,0,0.1,0,0.1H109l0-0.1h-8.9l-0.1,0.1v0l0,0l0,0l0,0l-0.1-0.1h-8.9l0,0.1H79.4
		c0,0,0-0.1,0-0.1H21.9c-2.3,0-4.2,0.9-4.2,2c0,0.8,1.1,1.6,2.7,1.9h24h79.3c1.6-0.3,2.7-1,2.7-1.9
		C126.4,67.1,124.5,66.2,122.2,66.2z"/>
	<rect id="XMLID_482_" x="20.1" y="118.6" width="24.2" height="0.1"/>
	<path id="XMLID_483_" d="M21.9,70.2c-0.5,0-1-0.1-1.5-0.1h-0.2v48.6h24.2V70.2H21.9z"/>
	<g id="XMLID_516_">
		<path id="XMLID_517_" d="M57.8,45.2L57.1,44c-0.1-0.1-0.2-0.2-0.3-0.2H46.6c-0.1,0-0.3,0-0.3,0.2l-0.8,1.2c0,0,0,0.1,0,0.2v18.2
			c0,0,0,0.1,0,0.2l0.8,1.5c0,0.1,0.2,0.2,0.4,0.2h10.1c0.1,0,0.3-0.1,0.4-0.2l0.8-1.5c0,0,0-0.1,0-0.2V45.4
			C57.9,45.3,57.9,45.2,57.8,45.2z M47.2,44H56l0.8,1.1H46.6L47.2,44z M56.5,64.6h-9.6l-0.4-0.8h7.4c0.2,0,0.4-0.2,0.4-0.4
			c0-0.2-0.2-0.4-0.4-0.4h-7.6V45.9h10.8v17.6L56.5,64.6z"/>
	</g>
	<g id="XMLID_514_">
		<path id="XMLID_515_" d="M55.9,63h-0.4c-0.2,0-0.4,0.2-0.4,0.4c0,0.2,0.2,0.4,0.4,0.4h0.4c0.2,0,0.4-0.2,0.4-0.4
			C56.3,63.2,56.1,63,55.9,63z"/>
	</g>
	<path id="XMLID_513_" d="M54.2,53.4l-2.5-4.1l-2.5,4.1c-0.3,0.5-0.4,1-0.4,1.5c0,0.8,0.3,1.5,0.9,2.1c0.6,0.6,1.3,0.9,2.1,0.9
		c0.8,0,1.5-0.3,2.1-0.9c0,0,0.1-0.1,0.2-0.2C54.7,55.9,54.8,54.5,54.2,53.4z"/>
	<path id="XMLID_508_" d="M57.3,44H46c-0.1,0-0.2-0.1-0.2-0.2v-0.3c0-0.1,0.1-0.2,0.2-0.2h11.3c0.1,0,0.2,0.1,0.2,0.2v0.3
		C57.6,43.9,57.4,44,57.3,44z"/>
	<path id="XMLID_506_" d="M23.8,40.8"/>
	<g id="XMLID_499_">
		<g id="XMLID_500_">
			<path id="XMLID_501_" d="M31.1,64.2c0.2,0,0.4-7.5,0.4-7.7v-4c0-0.2-0.2-0.4-0.4-0.4c-0.2,0-0.4,0.1-0.4,0.4v4
				C30.7,56.7,30.9,64.2,31.1,64.2z"/>
		</g>
	</g>
	<g id="XMLID_497_">
		<ellipse id="XMLID_498_" cx="31.1" cy="51.3" rx="0.4" ry="0.4"/>
	</g>
	<g id="XMLID_492_">
		<g id="XMLID_493_">
			<path id="XMLID_494_" d="M30,46.3c1,0,1.8-0.8,1.8-1.7c0-0.2,0.2-0.4,0.4-0.4c0.2,0,0.4,0.2,0.4,0.4c0,1.3-1.2,2.5-2.6,2.5
				c-1.8,0-3.2-1.3-3.2-3c0-2,1.8-3.6,3.9-3.6c2.6,0,4.8,2,4.8,4.5c0,2-1.1,3.7-2.8,4.7H45c0.2,0,0.4,0.2,0.4,0.4
				c0,0.2-0.2,0.4-0.4,0.4h-0.2v14.3H45c0.2,0,0.4,0.2,0.4,0.4c0,0.2-0.2,0.4-0.4,0.4H29c-0.2,0-0.4-0.2-0.4-0.4
				c0-0.2,0.2-0.4,0.4-0.4h0.2V50.4H29c-0.2,0-0.4-0.2-0.4-0.4c0-0.2,0.2-0.4,0.4-0.4h0.6c2.8,0,5-2.1,5-4.7c0-2-1.8-3.6-3.9-3.6
				c-1.7,0-3.1,1.3-3.1,2.8C27.6,45.3,28.7,46.3,30,46.3z M43.9,64.7V50.4H30v14.3H43.9z"/>
		</g>
	</g>
</g>
</svg>
