<?xml version="1.0" encoding="utf-8"?>
<!-- Generator: Adobe Illustrator 19.0.0, SVG Export Plug-In . SVG Version: 6.00 Build 0)  -->
<svg version="1.1" id="Layer_1" xmlns="http://www.w3.org/2000/svg" xmlns:xlink="http://www.w3.org/1999/xlink" x="0px" y="0px"
	 viewBox="-71 145 144 144" style="enable-background:new -71 145 144 144;" xml:space="preserve">
<style type="text/css">
	.st0{fill:#010101;}
</style>
<g>
	<g id="XMLID_1005_">
		<path id="XMLID_1070_" d="M-38,174.4c0.8,0,1.4,0,2,0c25.4,0,50.8,0,76.1,0c1.7,0,2.4-0.3,2.2-2.1c-0.1-2.2,1.2-3.5,3.5-3.5
			c1.4,0,2.7,0,4.1,0c2.9,0,4,1.2,4,4.1c0,0.4,0,0.9,0.1,1.6c1.8,0,3.6,0,5.3,0c5.1,0,8.4,3.3,8.4,8.4c0,15.1,0,30.3,0,45.4
			c0,3.5-1.7,5.9-4.7,7.6c-0.5,0.3-1,1-1.1,1.6c-0.2,1.2-0.1,2.5,0,3.8c0.1,1.6-0.6,2.2-2.2,2.2c-8.2,0-16.5,0-24.7,0
			c-30.8,0-61.6,0-92.4,0c-2.9,0-2.9,0-2.9-2.8c0-0.5,0-0.9,0-1.4c0.2-1.9-0.2-3.3-2.1-4.4c-2.3-1.4-3.2-3.9-3.2-6.7
			c0-9.6,0-19.2,0-28.8c0-5.4,0-10.9,0-16.3c0-5.3,3.3-8.5,8.6-8.6c1.9,0,3.9,0,5.8,0c1,0,1.3-0.4,1.3-1.3c0.1-3.5,1.1-4.4,4.6-4.4
			c1.1,0,2.2,0,3.3,0c2.5,0,3.8,1.3,3.9,3.8C-38,173.1-38,173.7-38,174.4z M1.1,234c19.5,0,39,0,58.5,0c3.9,0,5.8-1.9,5.8-5.9
			c0-14.7,0-29.5,0-44.2c0-5.2-1.6-6.9-6.8-6.9c-38.6,0-77.2,0-115.8,0c-3.8,0-5.8,2-5.8,5.8c0,14.9,0,29.8,0,44.8
			c0,4.8,1.6,6.5,6.5,6.5C-37.3,234-18.1,234,1.1,234z M-57.8,236.7c0,0.9,0.1,1.6,0,2.3c-0.2,1.5,0.4,1.9,1.9,1.9
			c37.8,0,75.7,0,113.5,0c0.6,0,1.2-0.1,1.9-0.1c0-1.5,0-2.7,0-4.1C20.5,236.7-18.5,236.7-57.8,236.7z M51.4,174.2
			c0.4-2.9,0.4-2.9-2.2-2.9c-0.7,0-1.4,0-2.1,0c-2.6,0-2.8,0.3-2.1,2.9C47.1,174.2,49.2,174.2,51.4,174.2z M-40.7,174.2
			c0.3-2.5,0.2-2.9-0.7-2.9c-1.9-0.1-3.8,0-5.8,0c0,1.1,0,2,0,2.9C-44.9,174.2-42.9,174.2-40.7,174.2z"/>
		<path id="XMLID_1067_" d="M-33.4,180c6.6,0,13.1,0,19.7,0c4,0,6.3,2.3,6.3,6.4c0,12.6,0,25.1,0,37.7c0,4-2.4,6.4-6.4,6.4
			c-13.2,0-26.4,0-39.6,0c-3.9,0-6.2-2.4-6.2-6.2c0-12.6,0-25.3,0-37.9c0-4.3,2.2-6.5,6.6-6.5C-46.5,180-40,180-33.4,180z
			 M-33.5,228.1c6.6,0,13.3,0,19.9,0c2.7,0,3.8-1.1,3.8-3.7c0-12.7,0-25.5,0-38.2c0-2.7-1.1-3.8-3.7-3.8c-13.3,0-26.5,0-39.8,0
			c-2.8,0-3.8,1.1-3.8,3.9c0,12.6,0,25.3,0,37.9c0,2.9,1,3.9,3.9,3.9C-46.7,228.1-40.1,228.1-33.5,228.1z"/>
		<path id="XMLID_1064_" d="M36,180c6.6,0,13.3,0,19.9,0c3.7,0,6.2,2.3,6.2,6c0,12.8,0,25.6,0,38.4c0,3.7-2.4,6.1-6.1,6.1
			c-13.4,0-26.7,0-40.1,0c-3.6,0-6-2.5-6-6.1c0-12.7,0-25.5,0-38.2c0-3.8,2.5-6.2,6.2-6.2C22.7,180,29.3,180,36,180L36,180z
			 M35.8,228.1L35.8,228.1c6.7,0,13.5,0,20.2,0c2.5,0,3.6-1.1,3.6-3.6c0-12.9,0-25.7,0-38.6c0-2.5-1.1-3.5-3.6-3.6
			c-13.3,0-26.6,0-40,0c-2.6,0-3.8,1.1-3.8,3.6c0,12.8,0,25.6,0,38.4c0,2.7,1,3.7,3.8,3.7C22.7,228.1,29.2,228.1,35.8,228.1z"/>
		<path id="XMLID_985_" d="M2.4,219.3c-0.8,0-1.5,0-2.4,0c0-2,0-4.1,0-6.2c0.8,0,1.6,0,2.4,0C2.4,215.2,2.4,217.2,2.4,219.3z"/>
		<path id="XMLID_984_" d="M2.4,196.8c-0.9,0-1.6,0-2.4,0c0-2,0-4,0-6.1c0.8,0,1.6,0,2.4,0C2.4,192.7,2.4,194.7,2.4,196.8z"/>
		<g id="XMLID_1015_">
			<path id="XMLID_1060_" class="st0" d="M20.7,202.5h1.8V199c0-0.3,0-0.6,0-0.6l0,0c0,0-0.1,0.2-0.3,0.4l-0.5,0.5l-1.2-1.3l2.3-2.1
				h1.8v6.6h1.6v1.8h-5.6L20.7,202.5L20.7,202.5z"/>
			<path id="XMLID_1057_" class="st0" d="M27,200c0-2.4,0.8-4.3,3.1-4.3s3.1,1.9,3.1,4.3c0,2.4-0.8,4.3-3.1,4.3S27,202.4,27,200z
				 M31.2,200c0-1.4-0.2-2.4-1-2.4s-1,1.1-1,2.4c0,1.4,0.2,2.5,1,2.5S31.2,201.4,31.2,200z"/>
			<path id="XMLID_1054_" class="st0" d="M34.6,198.2h1.9v1.9h-1.9V198.2z M34.6,202.3h1.9v1.9h-1.9V202.3z"/>
			<path id="XMLID_1051_" class="st0" d="M37.7,200c0-2.4,0.8-4.3,3.1-4.3s3.1,1.9,3.1,4.3c0,2.4-0.8,4.3-3.1,4.3
				S37.7,202.4,37.7,200z M41.9,200c0-1.4-0.2-2.4-1-2.4s-1,1.1-1,2.4c0,1.4,0.2,2.5,1,2.5S41.9,201.4,41.9,200z"/>
			<path id="XMLID_1048_" class="st0" d="M45.2,200c0-2.4,0.8-4.3,3.1-4.3s3.1,1.9,3.1,4.3c0,2.4-0.8,4.3-3.1,4.3
				S45.2,202.4,45.2,200z M49.3,200c0-1.4-0.2-2.4-1-2.4s-1,1.1-1,2.4c0,1.4,0.2,2.5,1,2.5S49.3,201.4,49.3,200z"/>
			<path id="XMLID_1046_" class="st0" d="M17.6,213.2h1.3v-2.5c0-0.2,0-0.5,0-0.5l0,0c0,0-0.1,0.2-0.2,0.3l-0.4,0.3l-0.9-0.9
				l1.6-1.5h1.3v4.8h1.3v1.3h-4.1L17.6,213.2L17.6,213.2z"/>
			<path id="XMLID_1044_" class="st0" d="M24.3,208.1h1.2l-2.2,6.8h-1.2L24.3,208.1z"/>
			<path id="XMLID_1042_" class="st0" d="M26.2,213.2h1.3v-2.5c0-0.2,0-0.5,0-0.5l0,0c0,0-0.1,0.2-0.2,0.3l-0.4,0.3l-0.9-0.9
				l1.6-1.5h1.3v4.8h1.3v1.3h-4V213.2z"/>
			<path id="XMLID_1040_" class="st0" d="M32.9,208.1h1.2l-2.2,6.8h-1.2L32.9,208.1z"/>
			<path id="XMLID_1030_" class="st0" d="M34.7,213.8c0-2.3,2.6-2.7,2.6-3.5c0-0.4-0.3-0.6-0.7-0.6c-0.4,0-0.7,0.3-0.9,0.6l-1.1-0.7
				c0.4-0.7,1.1-1.3,2.2-1.3c1,0,2.1,0.6,2.1,1.9c0,1.9-2.5,2.3-2.5,3.1H39v1.3h-4.2C34.7,214.3,34.7,214,34.7,213.8z"/>
			<path id="XMLID_1027_" class="st0" d="M39.8,211.4c0-1.8,0.6-3.1,2.3-3.1c1.7,0,2.3,1.4,2.3,3.1s-0.6,3.2-2.3,3.2
				S39.8,213.2,39.8,211.4z M42.9,211.4c0-1-0.2-1.8-0.8-1.8c-0.6,0-0.8,0.8-0.8,1.8s0.2,1.8,0.8,1.8
				C42.7,213.2,42.9,212.4,42.9,211.4z"/>
			<path id="XMLID_1020_" class="st0" d="M45.3,213.2h1.3v-2.5c0-0.2,0-0.5,0-0.5l0,0c0,0-0.1,0.2-0.2,0.3l-0.4,0.3l-0.9-0.9
				l1.6-1.5H48v4.8h1.3v1.3h-4.1L45.3,213.2L45.3,213.2z"/>
			<path id="XMLID_1016_" class="st0" d="M50.8,211.2c-0.3-0.3-0.6-0.7-0.6-1.2c0-0.9,0.6-1.8,2.1-1.8c1.1,0,2.1,0.6,2.1,1.8
				c0,0.6-0.4,1.2-0.6,1.4c0.4,0.3,0.7,0.7,0.7,1.3c0,0.9-0.8,1.9-2.3,1.9s-2.3-0.9-2.3-1.9C49.9,211.9,50.5,211.4,50.8,211.2z
				 M52.2,213.3c0.5,0,0.7-0.2,0.7-0.6c0-0.4-0.5-0.6-1.1-0.8c-0.1,0.2-0.3,0.4-0.3,0.8C51.5,213,51.8,213.3,52.2,213.3z
				 M52.9,210.2c0-0.3-0.2-0.6-0.6-0.6s-0.6,0.2-0.6,0.5c0,0.4,0.4,0.6,1,0.8C52.8,210.8,52.9,210.5,52.9,210.2z"/>
		</g>
		<g id="XMLID_1006_">
			<g id="XMLID_1007_" transform="translate(0.000000,511.000000) scale(0.100000,-0.100000)">
				<path id="XMLID_302_" class="st0" d="M-400.6,3226.5c-5.5-0.9-14.4-5.2-18.6-8.9c-9.8-8.5-14.6-22.8-11.8-35.7
					c5.3-24.9,31.7-37.4,54.7-25.7c5.3,2.6,12.4,9.6,15.2,15c9.4,17.5,3.8,39.3-12.8,50C-381.1,3225.8-392,3227.9-400.6,3226.5z"/>
				<path id="XMLID_299_" class="st0" d="M-273.5,3193.2c-11.5-2.8-20.7-11.6-24.1-22.7c-2.4-7.9-1.9-17.4,1.5-24.5
					c3.2-6.9,9.5-13.1,16.4-16.4c5-2.4,5.8-2.5,14.4-2.5c8.7,0,9.3,0.1,14.4,2.6c21.6,10.6,26,39,8.6,55.4
					C-250.7,3193-262.3,3196-273.5,3193.2z"/>
				<path id="XMLID_300_" class="st0" d="M-402.5,3132.1c-12.7-1.3-24.2-4.6-33.7-9.5c-10.3-5.3-15.2-11.6-17.5-22.8
					c-1.1-5.1-1.3-13.1-1.3-50.8c0-54.3-1.3-48.9,12.7-48.9h9.4v-56.6v-56.6h36.2h36.2v31.5v31.5h-4.7h-4.7v38.8v38.7l1.9,3.9
					c0.9,2.2,3.5,5.4,5.5,7.3c3.9,3.5,13.1,8.5,17.5,9.3l2.6,0.5l-5,4.6c-12.2,11.2-15,28-7.1,41.7c2.6,4.4,9.4,11.2,12.7,12.5
					c1.3,0.6,2.4,1.3,2.4,1.7s-1.2,2.3-2.5,4.4c-4.7,6.8-15.5,12.7-30.4,16.4c-6.5,1.6-21.4,3.8-23.5,3.5
					C-395.9,3132.8-399.1,3132.5-402.5,3132.1z"/>
				<path id="XMLID_522_" class="st0" d="M-277.8,3108.3c-8.1-1.5-15.4-3.5-19.8-5.3l-3.8-1.6l2.4-2.8c5.3-6,8-16,6.9-25.2
					c-0.9-8.6-6.8-18.3-13.5-22.8l-3.1-2l3.8-1.3c10.4-3.5,18.2-9.4,21.2-16l1.9-3.9v-38.7v-38.8h-4.7h-4.7v-31.5v-31.5h29.9h29.9
					v51.9v51.9h7.9h7.9v47.8c0,54,0.2,51.2-6.3,57.1C-232.7,3105.2-260.1,3111.4-277.8,3108.3z"/>
				<path id="XMLID_523_" class="st0" d="M-331.7,3102.1c-7.4-2.5-12.4-6.9-15.5-13.5c-2.7-6-2.5-14.2,0.4-20.2
					c8.7-17.7,34.1-17.9,43.2-0.4c1.2,2.4,1.8,5.2,2,9.8c0.3,6.1,0.2,6.8-2.1,11.6c-2.8,5.5-6.9,9.5-12.3,11.8
					C-320.3,3102.8-327.9,3103.3-331.7,3102.1z"/>
				<path id="XMLID_914_" class="st0" d="M-334.3,3041.6c-9.8-1.7-20.5-6.6-23.9-11.3l-1.8-2.4l-0.2-34.4l-0.2-34.5h4.8h4.7v-36.1
					v-36.2h25.2h25.2v36.2v36.2h4.7h4.7v33.7c0,38.2,0.2,36.9-6.6,41.6C-307,3040.7-322.1,3043.7-334.3,3041.6z"/>
			</g>
		</g>
	</g>
	<g>
		<path d="M-60.2,257.1c0.7-0.1,1.5-0.2,2.5-0.2c1.5,0,2.5,0.3,3.3,0.9c0.8,0.6,1.4,1.6,1.4,3c0,1.5-0.6,2.6-1.3,3.3
			c-0.9,0.7-2.1,1-3.7,1c-0.9,0-1.6-0.1-2.1-0.1V257.1z M-58.4,263.7c0.2,0,0.4,0,0.6,0c1.7,0,2.7-0.9,2.7-2.8c0-1.7-1-2.6-2.5-2.6
			c-0.4,0-0.7,0-0.8,0.1V263.7z"/>
		<path d="M-50,257v8.1h-1.8V257H-50z"/>
		<path d="M-41.7,264.7c-0.6,0.2-1.6,0.5-2.7,0.5c-1.5,0-2.5-0.4-3.3-1.1c-0.7-0.7-1.2-1.8-1.1-2.9c0-2.7,2-4.2,4.6-4.2
			c1,0,1.8,0.2,2.2,0.4l-0.4,1.5c-0.4-0.2-1-0.3-1.9-0.3c-1.5,0-2.7,0.9-2.7,2.6c0,1.7,1,2.7,2.5,2.7c0.4,0,0.8,0,0.9-0.1v-1.7h-1.2
			v-1.4h3V264.7z"/>
		<path d="M-38.4,257v8.1h-1.8V257H-38.4z"/>
		<path d="M-35.3,258.5h-2.2V257h6.2v1.5h-2.2v6.5h-1.8V258.5z"/>
		<path d="M-29.2,263l-0.6,2.1h-1.9l2.5-8.1h2.4l2.5,8.1h-2l-0.6-2.1H-29.2z M-27.2,261.6l-0.5-1.7c-0.1-0.5-0.3-1.1-0.4-1.6h0
			c-0.1,0.5-0.2,1.1-0.4,1.6l-0.5,1.7H-27.2z"/>
		<path d="M-23.2,257h1.8v6.5h3.2v1.5h-5V257z"/>
		<path d="M-14.7,257.1c0.6-0.1,1.4-0.2,2.5-0.2c1.1,0,1.9,0.2,2.5,0.6c0.5,0.4,0.9,1.1,0.9,1.9c0,0.8-0.3,1.5-0.7,1.9
			c-0.6,0.6-1.5,0.9-2.6,0.9c-0.2,0-0.5,0-0.6,0v2.9h-1.8V257.1z M-12.9,260.8c0.2,0,0.3,0,0.6,0c1,0,1.6-0.5,1.6-1.3
			c0-0.7-0.5-1.2-1.4-1.2c-0.4,0-0.6,0-0.8,0.1V260.8z"/>
		<path d="M-5.9,257v3.1h3V257H-1v8.1h-1.8v-3.4h-3v3.4h-1.8V257H-5.9z"/>
		<path d="M8,260.9c0,2.7-1.6,4.3-4,4.3c-2.4,0-3.8-1.8-3.8-4.1c0-2.4,1.5-4.2,3.9-4.2C6.6,256.8,8,258.7,8,260.9z M2.1,261
			c0,1.6,0.7,2.7,2,2.7c1.2,0,1.9-1.2,1.9-2.7c0-1.5-0.7-2.7-2-2.7C2.8,258.3,2.1,259.5,2.1,261z"/>
		<path d="M10.4,258.5H8.2V257h6.2v1.5h-2.2v6.5h-1.8V258.5z"/>
		<path d="M22.5,260.9c0,2.7-1.6,4.3-4,4.3c-2.4,0-3.8-1.8-3.8-4.1c0-2.4,1.5-4.2,3.9-4.2C21.1,256.8,22.5,258.7,22.5,260.9z
			 M16.6,261c0,1.6,0.7,2.7,2,2.7c1.2,0,1.9-1.2,1.9-2.7c0-1.5-0.7-2.7-2-2.7C17.3,258.3,16.6,259.5,16.6,261z"/>
		<path d="M26.1,257H31v1.5h-3.1v1.8h2.9v1.5h-2.9v3.3h-1.8V257z"/>
		<path d="M32.4,257.1c0.6-0.1,1.5-0.2,2.4-0.2c1.2,0,2,0.2,2.6,0.6c0.5,0.4,0.7,0.9,0.7,1.7c0,1-0.7,1.7-1.4,2v0
			c0.6,0.2,0.9,0.8,1.1,1.5c0.3,0.9,0.5,2,0.7,2.3h-1.9c-0.1-0.2-0.3-0.9-0.6-1.9c-0.2-1-0.6-1.3-1.3-1.3h-0.6v3.2h-1.8V257.1z
			 M34.2,260.6h0.7c0.9,0,1.5-0.5,1.5-1.2c0-0.7-0.5-1.1-1.3-1.1c-0.4,0-0.7,0-0.8,0.1V260.6z"/>
		<path d="M41.5,263l-0.6,2.1h-1.9l2.5-8.1h2.4l2.5,8.1h-2l-0.6-2.1H41.5z M43.6,261.6l-0.5-1.7c-0.1-0.5-0.3-1.1-0.4-1.6h0
			c-0.1,0.5-0.2,1.1-0.4,1.6l-0.5,1.7H43.6z"/>
		<path d="M54.3,262c0-1-0.1-2.1-0.1-3.3h0c-0.3,1-0.6,2.2-0.9,3.1l-1,3.2h-1.4l-0.9-3.1c-0.3-1-0.5-2.1-0.7-3.2h0
			c0,1.1-0.1,2.3-0.1,3.3l-0.1,3.1h-1.7l0.5-8.1h2.4l0.8,2.7c0.3,0.9,0.5,1.9,0.7,2.9h0c0.2-0.9,0.5-2,0.8-2.9l0.9-2.7h2.4l0.4,8.1
			h-1.8L54.3,262z"/>
		<path d="M62.5,261.6h-3v1.9h3.3v1.5h-5.2V257h5v1.5h-3.2v1.7h3V261.6z"/>
	</g>
</g>
</svg>
