<?xml version="1.0" encoding="utf-8"?>
<!-- Generator: Adobe Illustrator 19.0.0, SVG Export Plug-In . SVG Version: 6.00 Build 0)  -->
<svg version="1.1" id="Layer_1" xmlns="http://www.w3.org/2000/svg" xmlns:xlink="http://www.w3.org/1999/xlink" x="0px" y="0px"
	 viewBox="0 0 144 144" style="enable-background:new 0 0 144 144;" xml:space="preserve">
<style type="text/css">
	.st0{fill:#010101;}
</style>
<g id="XMLID_1005_">
	<path id="XMLID_1070_" d="M32.8,40.3c0.8,0,1.4,0,2,0c25.4,0,50.8,0,76.1,0c1.7,0,2.4-0.3,2.2-2.1c-0.1-2.2,1.2-3.5,3.5-3.5
		c1.4,0,2.7,0,4.1,0c2.9,0,4,1.2,4,4.1c0,0.4,0,0.9,0.1,1.6c1.8,0,3.6,0,5.3,0c5.1,0,8.4,3.3,8.4,8.4c0,15.1,0,30.3,0,45.4
		c0,3.5-1.7,5.9-4.7,7.6c-0.5,0.3-1,1-1.1,1.6c-0.2,1.2-0.1,2.5,0,3.8c0.1,1.6-0.6,2.2-2.2,2.2c-8.2,0-16.5,0-24.7,0
		c-30.8,0-61.6,0-92.4,0c-2.9,0-2.9,0-2.9-2.8c0-0.5,0-0.9,0-1.4c0.2-1.9-0.2-3.3-2.1-4.4c-2.3-1.4-3.2-3.9-3.2-6.7
		c0-9.6,0-19.2,0-28.8c0-5.4,0-10.9,0-16.3c0-5.3,3.3-8.5,8.6-8.6c1.9,0,3.9,0,5.8,0c1,0,1.3-0.4,1.3-1.3c0.1-3.5,1.1-4.4,4.6-4.4
		c1.1,0,2.2,0,3.3,0c2.5,0,3.8,1.3,3.9,3.8C32.8,39,32.8,39.6,32.8,40.3z M71.9,99.9c19.5,0,39,0,58.5,0c3.9,0,5.8-1.9,5.8-5.9
		c0-14.7,0-29.5,0-44.2c0-5.2-1.6-6.9-6.8-6.9c-38.6,0-77.2,0-115.8,0c-3.8,0-5.8,2-5.8,5.8c0,14.9,0,29.8,0,44.8
		c0,4.8,1.6,6.5,6.5,6.5C33.5,99.9,52.7,99.9,71.9,99.9z M13,102.6c0,0.9,0.1,1.6,0,2.3c-0.2,1.5,0.4,1.9,1.9,1.9
		c37.8,0,75.7,0,113.5,0c0.6,0,1.2-0.1,1.9-0.1c0-1.5,0-2.7,0-4.1C91.3,102.6,52.3,102.6,13,102.6z M122.2,40.1
		c0.4-2.9,0.4-2.9-2.2-2.9c-0.7,0-1.4,0-2.1,0c-2.6,0-2.8,0.3-2.1,2.9C117.9,40.1,120,40.1,122.2,40.1z M30.1,40.1
		c0.3-2.5,0.2-2.9-0.7-2.9c-1.9-0.1-3.8,0-5.8,0c0,1.1,0,2,0,2.9C25.9,40.1,27.9,40.1,30.1,40.1z"/>
	<path id="XMLID_1067_" d="M37.4,45.9c6.6,0,13.1,0,19.7,0c4,0,6.3,2.3,6.3,6.4c0,12.6,0,25.1,0,37.7c0,4-2.4,6.4-6.4,6.4
		c-13.2,0-26.4,0-39.6,0c-3.9,0-6.2-2.4-6.2-6.2c0-12.6,0-25.3,0-37.9c0-4.3,2.2-6.5,6.6-6.5C24.3,45.9,30.8,45.9,37.4,45.9z
		 M37.3,94c6.6,0,13.3,0,19.9,0c2.7,0,3.8-1.1,3.8-3.7c0-12.7,0-25.5,0-38.2c0-2.7-1.1-3.8-3.7-3.8c-13.3,0-26.5,0-39.8,0
		c-2.8,0-3.8,1.1-3.8,3.9c0,12.6,0,25.3,0,37.9c0,2.9,1,3.9,3.9,3.9C24.1,94,30.7,94,37.3,94z"/>
	<path id="XMLID_1064_" d="M106.8,45.9c6.6,0,13.3,0,19.9,0c3.7,0,6.2,2.3,6.2,6c0,12.8,0,25.6,0,38.4c0,3.7-2.4,6.1-6.1,6.1
		c-13.4,0-26.7,0-40.1,0c-3.6,0-6-2.5-6-6.1c0-12.7,0-25.5,0-38.2c0-3.8,2.5-6.2,6.2-6.2C93.5,45.9,100.1,45.9,106.8,45.9
		C106.8,45.9,106.8,45.9,106.8,45.9z M106.6,94C106.6,94,106.6,94,106.6,94c6.7,0,13.5,0,20.2,0c2.5,0,3.6-1.1,3.6-3.6
		c0-12.9,0-25.7,0-38.6c0-2.5-1.1-3.5-3.6-3.6c-13.3,0-26.6,0-40,0c-2.6,0-3.8,1.1-3.8,3.6c0,12.8,0,25.6,0,38.4
		c0,2.7,1,3.7,3.8,3.7C93.5,94,100,94,106.6,94z"/>
	<path id="XMLID_985_" d="M73.2,85.2c-0.8,0-1.5,0-2.4,0c0-2,0-4.1,0-6.2c0.8,0,1.6,0,2.4,0C73.2,81.1,73.2,83.1,73.2,85.2z"/>
	<path id="XMLID_984_" d="M73.2,62.7c-0.9,0-1.6,0-2.4,0c0-2,0-4,0-6.1c0.8,0,1.6,0,2.4,0C73.2,58.6,73.2,60.6,73.2,62.7z"/>
	<g id="XMLID_1015_">
		<path id="XMLID_1060_" class="st0" d="M91.5,68.4h1.8v-3.5c0-0.3,0-0.6,0-0.6h0c0,0-0.1,0.2-0.3,0.4l-0.5,0.5l-1.2-1.3l2.3-2.1
			h1.8v6.6H97v1.8h-5.6V68.4z"/>
		<path id="XMLID_1057_" class="st0" d="M97.8,65.9c0-2.4,0.8-4.3,3.1-4.3s3.1,1.9,3.1,4.3c0,2.4-0.8,4.3-3.1,4.3
			S97.8,68.3,97.8,65.9z M102,65.9c0-1.4-0.2-2.4-1-2.4s-1,1.1-1,2.4c0,1.4,0.2,2.5,1,2.5S102,67.3,102,65.9z"/>
		<path id="XMLID_1054_" class="st0" d="M105.4,64.1h1.9V66h-1.9V64.1z M105.4,68.2h1.9v1.9h-1.9V68.2z"/>
		<path id="XMLID_1051_" class="st0" d="M108.5,65.9c0-2.4,0.8-4.3,3.1-4.3s3.1,1.9,3.1,4.3c0,2.4-0.8,4.3-3.1,4.3
			S108.5,68.3,108.5,65.9z M112.7,65.9c0-1.4-0.2-2.4-1-2.4s-1,1.1-1,2.4c0,1.4,0.2,2.5,1,2.5S112.7,67.3,112.7,65.9z"/>
		<path id="XMLID_1048_" class="st0" d="M116,65.9c0-2.4,0.8-4.3,3.1-4.3s3.1,1.9,3.1,4.3c0,2.4-0.8,4.3-3.1,4.3S116,68.3,116,65.9z
			 M120.1,65.9c0-1.4-0.2-2.4-1-2.4s-1,1.1-1,2.4c0,1.4,0.2,2.5,1,2.5S120.1,67.3,120.1,65.9z"/>
		<path id="XMLID_1046_" class="st0" d="M88.4,79.1h1.3v-2.5c0-0.2,0-0.5,0-0.5h0c0,0-0.1,0.2-0.2,0.3l-0.4,0.3l-0.9-0.9l1.6-1.5
			h1.3v4.8h1.3v1.3h-4.1V79.1z"/>
		<path id="XMLID_1044_" class="st0" d="M95.1,74h1.2l-2.2,6.8h-1.2L95.1,74z"/>
		<path id="XMLID_1042_" class="st0" d="M97,79.1h1.3v-2.5c0-0.2,0-0.5,0-0.5h0c0,0-0.1,0.2-0.2,0.3l-0.4,0.3l-0.9-0.9l1.6-1.5h1.3
			v4.8h1.3v1.3H97V79.1z"/>
		<path id="XMLID_1040_" class="st0" d="M103.7,74h1.2l-2.2,6.8h-1.2L103.7,74z"/>
		<path id="XMLID_1030_" class="st0" d="M105.5,79.7c0-2.3,2.6-2.7,2.6-3.5c0-0.4-0.3-0.6-0.7-0.6c-0.4,0-0.7,0.3-0.9,0.6l-1.1-0.7
			c0.4-0.7,1.1-1.3,2.2-1.3c1,0,2.1,0.6,2.1,1.9c0,1.9-2.5,2.3-2.5,3.1h2.6v1.3h-4.2C105.5,80.2,105.5,79.9,105.5,79.7z"/>
		<path id="XMLID_1027_" class="st0" d="M110.6,77.3c0-1.8,0.6-3.1,2.3-3.1c1.7,0,2.3,1.4,2.3,3.1s-0.6,3.2-2.3,3.2
			C111.2,80.5,110.6,79.1,110.6,77.3z M113.7,77.3c0-1-0.2-1.8-0.8-1.8c-0.6,0-0.8,0.8-0.8,1.8c0,1,0.2,1.8,0.8,1.8
			C113.5,79.1,113.7,78.3,113.7,77.3z"/>
		<path id="XMLID_1020_" class="st0" d="M116.1,79.1h1.3v-2.5c0-0.2,0-0.5,0-0.5h0c0,0-0.1,0.2-0.2,0.3l-0.4,0.3l-0.9-0.9l1.6-1.5
			h1.3v4.8h1.3v1.3h-4.1V79.1z"/>
		<path id="XMLID_1016_" class="st0" d="M121.6,77.1c-0.3-0.3-0.6-0.7-0.6-1.2c0-0.9,0.6-1.8,2.1-1.8c1.1,0,2.1,0.6,2.1,1.8
			c0,0.6-0.4,1.2-0.6,1.4c0.4,0.3,0.7,0.7,0.7,1.3c0,0.9-0.8,1.9-2.3,1.9c-1.5,0-2.3-0.9-2.3-1.9C120.7,77.8,121.3,77.3,121.6,77.1z
			 M123,79.2c0.5,0,0.7-0.2,0.7-0.6c0-0.4-0.5-0.6-1.1-0.8c-0.1,0.2-0.3,0.4-0.3,0.8C122.3,78.9,122.6,79.2,123,79.2z M123.7,76.1
			c0-0.3-0.2-0.6-0.6-0.6c-0.4,0-0.6,0.2-0.6,0.5c0,0.4,0.4,0.6,1,0.8C123.6,76.7,123.7,76.4,123.7,76.1z"/>
	</g>
	<g id="XMLID_1006_">
		<g id="XMLID_1007_" transform="translate(0.000000,511.000000) scale(0.100000,-0.100000)">
			<path id="XMLID_302_" class="st0" d="M307.9,4567.6c-5.5-0.9-14.4-5.2-18.6-8.9c-9.8-8.5-14.6-22.8-11.8-35.7
				c5.3-24.9,31.7-37.4,54.7-25.7c5.3,2.6,12.4,9.6,15.2,15c9.4,17.5,3.8,39.3-12.8,50C327.4,4566.9,316.5,4569,307.9,4567.6z"/>
			<path id="XMLID_299_" class="st0" d="M435,4534.3c-11.5-2.8-20.7-11.6-24.1-22.7c-2.4-7.9-1.9-17.4,1.5-24.5
				c3.2-6.9,9.5-13.1,16.4-16.4c5-2.4,5.8-2.5,14.4-2.5c8.7,0,9.3,0.1,14.4,2.6c21.6,10.6,26,39,8.6,55.4
				C457.8,4534.1,446.2,4537.1,435,4534.3z"/>
			<path id="XMLID_300_" class="st0" d="M306,4473.2c-12.7-1.3-24.2-4.6-33.7-9.5c-10.3-5.3-15.2-11.6-17.5-22.8
				c-1.1-5.1-1.3-13.1-1.3-50.8c0-54.3-1.3-48.9,12.7-48.9h9.4v-56.6v-56.6h36.2H348v31.5v31.5h-4.7h-4.7v38.8v38.7l1.9,3.9
				c0.9,2.2,3.5,5.4,5.5,7.3c3.9,3.5,13.1,8.5,17.5,9.3l2.6,0.5l-5,4.6c-12.2,11.2-15,28-7.1,41.7c2.6,4.4,9.4,11.2,12.7,12.5
				c1.3,0.6,2.4,1.3,2.4,1.7s-1.2,2.3-2.5,4.4c-4.7,6.8-15.5,12.7-30.4,16.4c-6.5,1.6-21.4,3.8-23.5,3.5
				C312.6,4473.9,309.4,4473.6,306,4473.2z"/>
			<path id="XMLID_522_" class="st0" d="M430.7,4449.4c-8.1-1.5-15.4-3.5-19.8-5.3l-3.8-1.6l2.4-2.8c5.3-6,8-16,6.9-25.2
				c-0.9-8.6-6.8-18.3-13.5-22.8l-3.1-2l3.8-1.3c10.4-3.5,18.2-9.4,21.2-16l1.9-3.9v-38.7v-38.8H422h-4.7v-31.5v-31.5h29.9h29.9
				v51.9v51.9h7.9h7.9v47.8c0,54,0.2,51.2-6.3,57.1C475.8,4446.3,448.4,4452.5,430.7,4449.4z"/>
			<path id="XMLID_523_" class="st0" d="M376.8,4443.2c-7.4-2.5-12.4-6.9-15.5-13.5c-2.7-6-2.5-14.2,0.4-20.2
				c8.7-17.7,34.1-17.9,43.2-0.4c1.2,2.4,1.8,5.2,2,9.8c0.3,6.1,0.2,6.8-2.1,11.6c-2.8,5.5-6.9,9.5-12.3,11.8
				C388.2,4443.9,380.6,4444.4,376.8,4443.2z"/>
			<path id="XMLID_914_" class="st0" d="M374.2,4382.7c-9.8-1.7-20.5-6.6-23.9-11.3l-1.8-2.4l-0.2-34.4l-0.2-34.5h4.8h4.7V4264
				v-36.2h25.2h25.2v36.2v36.2h4.7h4.7v33.7c0,38.2,0.2,36.9-6.6,41.6C401.5,4381.8,386.4,4384.8,374.2,4382.7z"/>
		</g>
	</g>
</g>
</svg>
