<?xml version="1.0" encoding="utf-8"?>
<!-- Generator: Adobe Illustrator 19.0.0, SVG Export Plug-In . SVG Version: 6.00 Build 0)  -->
<svg version="1.1" id="Layer_1" xmlns="http://www.w3.org/2000/svg" xmlns:xlink="http://www.w3.org/1999/xlink" x="0px" y="0px"
	 viewBox="-71 145 144 144" style="enable-background:new -71 145 144 144;" xml:space="preserve">
<g>
	<g>
		<rect id="XMLID_561_" x="35.3" y="183" width="2.7" height="18.4"/>
		<path id="XMLID_248_" d="M28.8,181.3c6,0,10.9-4.9,11-10.9l0,0c0-4.8-3.1-9-7.7-10.5c-0.2-0.1-0.5-0.1-0.9-0.2c0,0-0.1,0-0.2,0
			c-0.2,0-0.4,0-0.5-0.1h-0.2c-0.1,0-0.2,0-0.3,0c-0.4,0-0.7,0-1.1,0h-1.4v0.1c-5.5,0.7-9.6,5.4-9.6,10.9
			C17.8,176.4,22.7,181.3,28.8,181.3z"/>
		<rect id="XMLID_559_" x="19.9" y="183" width="2.7" height="18.4"/>
		<path id="XMLID_256_" d="M51.1,200.1h-0.5c-0.4-7.6-4.7-14.3-11.4-17.8v-0.5h-4h-0.1H19.5l-0.2,0.1c-7.1,3.5-11.7,10.4-12.1,18.2
			h-56.3c-3.1,0-5.4,1.3-5.4,3.3c0,1.2,0.9,2.2,2.4,2.7V255H54v-48.8c1.6-0.6,2.5-1.5,2.5-2.8C56.6,201.5,54.3,200.1,51.1,200.1z
			 M52.7,205.3L52.7,205.3l0.1,48.6h-79.4v0.1h-24.3v-0.1v-48.6h0.2c-1.6-0.3-2.7-1-2.7-1.9c0-1.1,1.9-2,4.2-2H8.3
			c0.1-8,4.7-15,11.5-18.4l1.8,9.3l-1.8,9.1h8.9l-3.5-3.3l2.1-11.9l0,0L25,183h3.8l0,0h3.8l-2.3,3.3l2.1,11.8l-3.5,3.3h8.9l-1.8-9.1
			l1.8-9.3c6.8,3.3,11.4,10.3,11.5,18.4H51c2.3,0,4.2,0.9,4.2,2C55.3,204.2,54.2,205,52.7,205.3z"/>
		<polygon id="XMLID_257_" points="28.9,201.5 28.9,201.5 29,201.5 29,201.5 29.1,201.4 28.8,201.4 		"/>
		<path id="XMLID_258_" d="M19.9,201.5L19.9,201.5l-11.5-0.1v0.1H19.9z"/>
		<path id="XMLID_475_" d="M49.5,201.5L49.5,201.5L38,201.4v0.1H49.5z"/>
		<path id="XMLID_476_" d="M51.2,201.4h-1.7v0.1H38v-0.1h-8.9l-0.1,0.1l0,0l0,0l0,0l0,0l-0.1-0.1H20v0.1H8.4v-0.1h-57.5
			c-2.3,0-4.2,0.9-4.2,2c0,0.8,1.1,1.6,2.7,1.9h24h79.3c1.6-0.3,2.7-1,2.7-1.9C55.4,202.3,53.5,201.4,51.2,201.4z"/>
		<rect id="XMLID_482_" x="-50.9" y="253.8" width="24.2" height="0.1"/>
		<path id="XMLID_483_" d="M-49.1,205.4c-0.5,0-1-0.1-1.5-0.1h-0.2v48.6h24.2v-48.5H-49.1z"/>
		<g id="XMLID_516_">
			<path id="XMLID_517_" d="M-13.2,180.4l-0.7-1.2c-0.1-0.1-0.2-0.2-0.3-0.2h-10.2c-0.1,0-0.3,0-0.3,0.2l-0.8,1.2c0,0,0,0.1,0,0.2
				v18.2c0,0,0,0.1,0,0.2l0.8,1.5c0,0.1,0.2,0.2,0.4,0.2h10.1c0.1,0,0.3-0.1,0.4-0.2l0.8-1.5c0,0,0-0.1,0-0.2v-18.2
				C-13.1,180.5-13.1,180.4-13.2,180.4z M-23.8,179.2h8.8l0.8,1.1h-10.2L-23.8,179.2z M-14.5,199.8h-9.6l-0.4-0.8h7.4
				c0.2,0,0.4-0.2,0.4-0.4c0-0.2-0.2-0.4-0.4-0.4h-7.6v-17.1h10.8v17.6L-14.5,199.8z"/>
		</g>
		<g id="XMLID_514_">
			<path id="XMLID_515_" d="M-15.1,198.2h-0.4c-0.2,0-0.4,0.2-0.4,0.4s0.2,0.4,0.4,0.4h0.4c0.2,0,0.4-0.2,0.4-0.4
				C-14.7,198.4-14.9,198.2-15.1,198.2z"/>
		</g>
		<path id="XMLID_513_" d="M-16.8,188.6l-2.5-4.1l-2.5,4.1c-0.3,0.5-0.4,1-0.4,1.5c0,0.8,0.3,1.5,0.9,2.1c0.6,0.6,1.3,0.9,2.1,0.9
			s1.5-0.3,2.1-0.9c0,0,0.1-0.1,0.2-0.2C-16.3,191.1-16.2,189.7-16.8,188.6z"/>
		<path id="XMLID_508_" d="M-13.7,179.2H-25c-0.1,0-0.2-0.1-0.2-0.2v-0.3c0-0.1,0.1-0.2,0.2-0.2h11.3c0.1,0,0.2,0.1,0.2,0.2v0.3
			C-13.4,179.1-13.6,179.2-13.7,179.2z"/>
		<path id="XMLID_506_" d="M-47.2,176"/>
		<g id="XMLID_499_">
			<g id="XMLID_500_">
				<path id="XMLID_501_" d="M-39.9,199.4c0.2,0,0.4-7.5,0.4-7.7v-4c0-0.2-0.2-0.4-0.4-0.4s-0.4,0.1-0.4,0.4v4
					C-40.3,191.9-40.1,199.4-39.9,199.4z"/>
			</g>
		</g>
		<g id="XMLID_497_">
			<ellipse id="XMLID_498_" cx="-39.9" cy="186.5" rx="0.4" ry="0.4"/>
		</g>
		<g id="XMLID_492_">
			<g id="XMLID_493_">
				<path id="XMLID_494_" d="M-41,181.5c1,0,1.8-0.8,1.8-1.7c0-0.2,0.2-0.4,0.4-0.4s0.4,0.2,0.4,0.4c0,1.3-1.2,2.5-2.6,2.5
					c-1.8,0-3.2-1.3-3.2-3c0-2,1.8-3.6,3.9-3.6c2.6,0,4.8,2,4.8,4.5c0,2-1.1,3.7-2.8,4.7H-26c0.2,0,0.4,0.2,0.4,0.4
					s-0.2,0.4-0.4,0.4h-0.2V200h0.2c0.2,0,0.4,0.2,0.4,0.4c0,0.2-0.2,0.4-0.4,0.4h-16c-0.2,0-0.4-0.2-0.4-0.4s0.2-0.4,0.4-0.4h0.2
					v-14.4H-42c-0.2,0-0.4-0.2-0.4-0.4c0-0.2,0.2-0.4,0.4-0.4h0.6c2.8,0,5-2.1,5-4.7c0-2-1.8-3.6-3.9-3.6c-1.7,0-3.1,1.3-3.1,2.8
					C-43.4,180.5-42.3,181.5-41,181.5z M-27.1,199.9v-14.3H-41v14.3C-41,199.9-27.1,199.9-27.1,199.9z"/>
			</g>
		</g>
	</g>
	<g>
		<path d="M-49.3,266.3c0.7-0.1,1.5-0.2,2.5-0.2c1.5,0,2.5,0.3,3.3,0.9c0.8,0.6,1.4,1.6,1.4,3c0,1.5-0.6,2.6-1.3,3.3
			c-0.9,0.7-2.1,1-3.7,1c-0.9,0-1.6-0.1-2.1-0.1V266.3z M-47.5,272.9c0.2,0,0.4,0,0.6,0c1.7,0,2.7-0.9,2.7-2.8c0-1.7-1-2.6-2.5-2.6
			c-0.4,0-0.7,0-0.8,0.1V272.9z"/>
		<path d="M-39.1,266.2v8.1h-1.8v-8.1H-39.1z"/>
		<path d="M-30.8,273.9c-0.6,0.2-1.6,0.5-2.7,0.5c-1.5,0-2.5-0.4-3.3-1.1c-0.7-0.7-1.2-1.8-1.1-2.9c0-2.7,2-4.2,4.6-4.2
			c1,0,1.8,0.2,2.2,0.4l-0.4,1.5c-0.4-0.2-1-0.3-1.9-0.3c-1.5,0-2.7,0.9-2.7,2.6c0,1.7,1,2.7,2.5,2.7c0.4,0,0.8,0,0.9-0.1v-1.7h-1.2
			v-1.4h3V273.9z"/>
		<path d="M-27.5,266.2v8.1h-1.8v-8.1H-27.5z"/>
		<path d="M-24.4,267.7h-2.2v-1.5h6.2v1.5h-2.2v6.5h-1.8V267.7z"/>
		<path d="M-18.3,272.2l-0.6,2.1h-1.9l2.5-8.1h2.4l2.5,8.1h-2l-0.6-2.1H-18.3z M-16.3,270.9l-0.5-1.7c-0.1-0.5-0.3-1.1-0.4-1.6h0
			c-0.1,0.5-0.2,1.1-0.4,1.6l-0.5,1.7H-16.3z"/>
		<path d="M-12.3,266.2h1.8v6.5h3.2v1.5h-5V266.2z"/>
		<path d="M-2.7,267.7h-2.2v-1.5h6.2v1.5h-2.2v6.5h-1.8V267.7z"/>
		<path d="M3.3,272.2l-0.6,2.1H0.9l2.5-8.1h2.4l2.5,8.1h-2l-0.6-2.1H3.3z M5.4,270.9l-0.5-1.7c-0.1-0.5-0.3-1.1-0.4-1.6h0
			c-0.1,0.5-0.2,1.1-0.4,1.6l-0.5,1.7H5.4z"/>
		<path d="M9.3,266.3c0.5-0.1,1.5-0.2,2.4-0.2c1.1,0,1.8,0.1,2.4,0.5c0.6,0.3,1,0.9,1,1.6c0,0.7-0.4,1.4-1.3,1.7v0
			c0.9,0.3,1.6,0.9,1.6,2c0,0.7-0.3,1.3-0.8,1.7c-0.6,0.5-1.6,0.7-3.2,0.7c-0.9,0-1.6-0.1-2-0.1V266.3z M11.1,269.4h0.6
			c1,0,1.5-0.4,1.5-1c0-0.6-0.5-0.9-1.3-0.9c-0.4,0-0.6,0-0.8,0V269.4z M11.1,273c0.2,0,0.4,0,0.7,0c0.8,0,1.6-0.3,1.6-1.2
			c0-0.8-0.7-1.1-1.6-1.1h-0.6V273z"/>
		<path d="M16.6,266.2h1.8v6.5h3.2v1.5h-5V266.2z"/>
		<path d="M27.5,270.9h-3v1.9h3.3v1.5h-5.2v-8.1h5v1.5h-3.2v1.7h3V270.9z"/>
		<path d="M32.6,267.7h-2.2v-1.5h6.2v1.5h-2.2v6.5h-1.8V267.7z"/>
		<path d="M44.7,270.2c0,2.7-1.6,4.3-4,4.3c-2.4,0-3.8-1.8-3.8-4.1c0-2.4,1.5-4.2,3.9-4.2C43.3,266.1,44.7,267.9,44.7,270.2z
			 M38.9,270.3c0,1.6,0.7,2.7,2,2.7c1.2,0,1.9-1.2,1.9-2.7c0-1.5-0.7-2.7-2-2.7C39.6,267.5,38.9,268.7,38.9,270.3z"/>
		<path d="M45.9,266.3c0.6-0.1,1.4-0.2,2.5-0.2c1.1,0,1.9,0.2,2.5,0.6c0.5,0.4,0.9,1.1,0.9,1.9c0,0.8-0.3,1.5-0.7,1.9
			c-0.6,0.6-1.5,0.9-2.6,0.9c-0.2,0-0.5,0-0.6,0v2.9h-1.8V266.3z M47.7,270c0.2,0,0.3,0,0.6,0c1,0,1.6-0.5,1.6-1.3
			c0-0.7-0.5-1.2-1.4-1.2c-0.4,0-0.6,0-0.8,0.1V270z"/>
	</g>
</g>
</svg>
