<?xml version="1.0" encoding="utf-8"?>
<!-- Generator: Adobe Illustrator 19.0.0, SVG Export Plug-In . SVG Version: 6.00 Build 0)  -->
<svg version="1.1" id="Layer_1" xmlns="http://www.w3.org/2000/svg" xmlns:xlink="http://www.w3.org/1999/xlink" x="0px" y="0px"
	 viewBox="0 0 144 144" style="enable-background:new 0 0 144 144;" xml:space="preserve">
<g id="XMLID_1_">
	<path id="XMLID_8_" d="M97.7,106c-17,0-34,0-51.1,0c-0.5-3.5-0.8-7-1.4-10.5c-2.1-13.4-0.7-26.7,1.5-39.8c17,0,33.9,0,50.9,0
		c0.2,0.7,0.3,1.2,0.4,1.8c0.7,9.2,1.6,18.5,2,27.7C100.3,92.2,99.8,99.2,97.7,106z"/>
	<path id="XMLID_6_" d="M101.1,38.6c4,1.4,5.6,4.5,5.1,8.7c-0.8,6.1,0.1,12.1,0.9,18.2c1.7,12.7,2.3,25.3-0.1,38
		c-0.3,1.5-0.8,1.8-2.1,1.7c-1.2-0.1-2.5,0-3.7,0c-0.2,0-0.4-0.1-0.6-0.1c2.3-13.7,1.8-27.4,1-41.1c-0.3-5.6-1.3-11.2-1.8-16.9
		c-0.2-2.1-1.3-3.4-3.3-3.7c-4.5-0.8-9.1-1.9-13.7-1.9c-10.4-0.1-20.9,0.4-31.3,0.8c-4.8,0.2-6.8,2.1-7.1,6.6
		c-0.8,9.4-1.9,18.9-2.1,28.3c-0.1,8.4,0.9,16.8,1.4,25.2c0.1,1.2,0.2,2.5,0.3,3.7c-1.9,0-3.9,0-5.8,0c-0.6-4.6-1.6-9.1-1.8-13.7
		c-0.3-7.4-0.5-14.8,0-22.1c0.6-8.1,3.1-16,1.8-24.3c-0.4-2.8,0.9-5.3,3.2-6.5C43.8,37.9,98.4,37.6,101.1,38.6z"/>
	<path id="XMLID_5_" d="M110.2,106c-1.6-0.3-1.2-1.5-1.2-2.6c0.5-7.8,1.3-15.6,1.3-23.4c0-7.9-0.8-15.7-1.2-23.6c0-0.3,0-0.7,0-1.2
		c5.3,0,10.6,0.4,15.4,2.8c1.5,0.7,2.9,2.2,3.7,3.7c2.7,4.6,4.6,9.6,5,15c0,0.3,0.2,0.6,0.3,1c0,2.2,0,4.4,0,6.6
		c-0.1,0.9-0.3,1.7-0.4,2.6c-0.5,3.6-0.9,7.2-1.6,10.8c-0.9,4.6-3.4,7.8-8.6,7.9c-0.2,0-0.4,0.2-0.5,0.3
		C118.2,106,114.2,106,110.2,106z"/>
	<path id="XMLID_4_" d="M10.6,89.8c0-2.6,0-5.3,0-7.9c0.1-0.7,0.3-1.3,0.4-2c0.8-4.7,1.6-9.4,2.6-14c0.5-2.6,1.8-5,4-6.6
		c5.3-3.9,11.4-3.9,17.7-3.9c-2.6,16.6-2.5,32.9,0,49.2c-5.5,0.9-10.6,0.7-15.7-0.8c-4.6-1.4-7.4-4.4-8.1-9.2
		C11.1,92.9,10.8,91.3,10.6,89.8z"/>
</g>
</svg>
