<?xml version="1.0" encoding="utf-8"?>
<!-- Generator: Adobe Illustrator 19.0.0, SVG Export Plug-In . SVG Version: 6.00 Build 0)  -->
<svg version="1.1" id="Layer_1" xmlns="http://www.w3.org/2000/svg" xmlns:xlink="http://www.w3.org/1999/xlink" x="0px" y="0px"
	 viewBox="-417 141 512 512" style="enable-background:new -417 141 512 512;" xml:space="preserve">
<style type="text/css">
	.st0{fill-rule:evenodd;clip-rule:evenodd;fill:#BD2F32;}
	.st1{fill:#FFFFFF;}
</style>
<g id="XMLID_29_">
	<rect id="XMLID_28_" x="-417" y="141" class="st0" width="512" height="512"/>
	<g id="XMLID_30_">
		<rect id="XMLID_31_" x="-344.7" y="580.2" class="st1" width="367.3" height="2.1"/>
	</g>
</g>
<g id="XMLID_1_">
	<path id="XMLID_8_" class="st1" d="M-69.2,486.5c-60.9,0-121.7,0-182.9,0c-1.8-12.5-2.9-25.1-5-37.6c-7.5-48-2.5-95.6,5.4-142.5
		c60.9,0,121.4,0,182.2,0c0.7,2.5,1.1,4.3,1.4,6.4c2.5,32.9,5.7,66.2,7.2,99.2C-59.9,437.1-61.7,462.2-69.2,486.5z"/>
	<path id="XMLID_6_" class="st1" d="M-57,245.2c14.3,5,20,16.1,18.3,31.1c-2.9,21.8,0.4,43.3,3.2,65.2c6.1,45.5,8.2,90.6-0.4,136
		c-1.1,5.4-2.9,6.4-7.5,6.1c-4.3-0.4-9,0-13.2,0c-0.7,0-1.4-0.4-2.1-0.4c8.2-49,6.4-98.1,3.6-147.1c-1.1-20-4.7-40.1-6.4-60.5
		c-0.7-7.5-4.7-12.2-11.8-13.2c-16.1-2.9-32.6-6.8-49-6.8c-37.2-0.4-74.8,1.4-112.1,2.9c-17.2,0.7-24.3,7.5-25.4,23.6
		c-2.9,33.7-6.8,67.7-7.5,101.3c-0.4,30.1,3.2,60.1,5,90.2c0.4,4.3,0.7,9,1.1,13.2c-6.8,0-14,0-20.8,0c-2.1-16.5-5.7-32.6-6.4-49
		c-1.1-26.5-1.8-53,0-79.1c2.1-29,11.1-57.3,6.4-87c-1.4-10,3.2-19,11.5-23.3C-262.1,242.7-66.7,241.6-57,245.2z"/>
	<path id="XMLID_5_" class="st1" d="M-24.4,486.5c-5.7-1.1-4.3-5.4-4.3-9.3c1.8-27.9,4.7-55.9,4.7-83.8c0-28.3-2.9-56.2-4.3-84.5
		c0-1.1,0-2.5,0-4.3c19,0,37.9,1.4,55.1,10c5.4,2.5,10.4,7.9,13.2,13.2c9.7,16.5,16.5,34.4,17.9,53.7c0,1.1,0.7,2.1,1.1,3.6
		c0,7.9,0,15.8,0,23.6c-0.4,3.2-1.1,6.1-1.4,9.3c-1.8,12.9-3.2,25.8-5.7,38.7c-3.2,16.5-12.2,27.9-30.8,28.3c-0.7,0-1.4,0.7-1.8,1.1
		C4.2,486.5-10.1,486.5-24.4,486.5z"/>
	<path id="XMLID_4_" class="st1" d="M-381,428.5c0-9.3,0-19,0-28.3c0.4-2.5,1.1-4.7,1.4-7.2c2.9-16.8,5.7-33.7,9.3-50.1
		c1.8-9.3,6.4-17.9,14.3-23.6c19-14,40.8-14,63.4-14c-9.3,59.4-9,117.8,0,176.1c-19.7,3.2-37.9,2.5-56.2-2.9
		c-16.5-5-26.5-15.8-29-32.9C-379.2,439.6-380.3,433.9-381,428.5z"/>
</g>
<g>
	<path d="M-306.4,597c2.9-0.6,6.8-0.9,10.9-0.9c6.8,0,11.2,1.2,14.7,3.8c3.8,2.6,6.2,7.1,6.2,13.5c0,6.8-2.4,11.5-5.9,14.4
		c-3.8,3.2-9.4,4.7-16.5,4.7c-4.1,0-7.1-0.3-9.1-0.6v-35H-306.4z M-298.4,626.4c0.6,0.3,1.8,0.3,2.9,0.3c7.3,0,12.1-4.1,12.1-12.6
		c0-7.3-4.4-11.5-11.2-11.5c-1.8,0-2.9,0.3-3.5,0.3v23.5H-298.4z"/>
	<path d="M-261.4,596.7v20.6c0,6.2,2.4,9.4,6.5,9.4c4.1,0,6.5-2.9,6.5-9.4v-20.6h7.9v20c0,11.2-5.6,16.2-15,16.2
		c-9.1,0-14.4-5-14.4-16.5v-20h8.5V596.7z"/>
	<path d="M-233.2,596.7h21.8v6.8h-13.8v8.2h12.9v6.5h-12.9v14.4h-8.2v-35.9H-233.2z"/>
	<path d="M-205.2,596.7h21.8v6.8h-13.8v8.2h12.9v6.5h-12.9v14.4h-7.9V596.7z"/>
	<path d="M-156.1,617.3h-13.2v8.5h14.7v6.8h-22.9v-35.9h22.3v6.8h-13.8v7.3h13.2v6.5H-156.1z"/>
	<path d="M-149.1,596.7h8.2v29.1h14.1v6.8h-22.3V596.7z"/>
	<path d="M-111.2,597c2.1-0.3,6.5-0.9,10.6-0.9c5,0,7.9,0.6,10.6,2.1c2.4,1.5,4.4,3.8,4.4,7.1c0,3.2-1.8,6.2-5.9,7.6l0,0
		c4.1,1.2,7.1,4.1,7.1,8.8c0,3.2-1.5,5.9-3.8,7.6c-2.6,2.1-7.1,3.2-14.1,3.2c-4.1,0-7.1-0.3-8.8-0.6V597z M-102.9,610.8h2.6
		c4.1,0,6.5-1.8,6.5-4.4s-2.1-4.1-5.9-4.1c-1.8,0-2.6,0-3.5,0.3v8.2H-102.9z M-102.9,626.7c0.9,0,1.8,0,3.2,0c3.5,0,6.8-1.5,6.8-5.3
		c0-3.5-3.2-5-7.3-5h-2.6V626.7z"/>
	<path d="M-70.9,623.1l-2.6,9.1h-8.2l10.9-35.9h10.6l11.2,35.9H-58l-2.6-9.1H-70.9z M-61.8,617.3l-2.4-7.6c-0.6-2.1-1.2-4.7-1.8-6.8
		l0,0c-0.6,2.1-1.2,4.7-1.8,6.8l-2.1,7.6H-61.8z"/>
	<path d="M-15.9,630.8c-2.4,0.9-7.3,2.1-12.1,2.1c-6.5,0-11.2-1.8-14.4-4.7c-3.2-2.9-5-7.6-5-12.9c0-11.8,8.8-18.8,20.6-18.8
		c4.7,0,8.2,0.9,10,1.8l-1.8,6.5c-2.1-0.9-4.4-1.5-8.2-1.5c-6.8,0-11.8,3.8-11.8,11.5c0,7.3,4.7,11.8,11.2,11.8
		c1.8,0,3.2-0.3,4.1-0.6v-7.3h-5.6v-6.2h13.2v18.5H-15.9z"/>
</g>
<g>
	<path class="st1" d="M-312,597c2.9-0.6,6.8-0.9,10.9-0.9c6.8,0,11.2,1.2,14.7,3.8c3.8,2.6,6.2,7.1,6.2,13.5
		c0,6.8-2.4,11.5-5.9,14.4c-3.8,3.2-9.4,4.7-16.5,4.7c-4.1,0-7.1-0.3-9.1-0.6v-35H-312z M-304.1,626.4c0.6,0.3,1.8,0.3,2.9,0.3
		c7.3,0,12.1-4.1,12.1-12.6c0-7.3-4.4-11.5-11.2-11.5c-1.8,0-2.9,0.3-3.5,0.3v23.5H-304.1z"/>
	<path class="st1" d="M-267.1,596.7v20.6c0,6.2,2.4,9.4,6.5,9.4s6.5-2.9,6.5-9.4v-20.6h7.9v20c0,11.2-5.6,16.2-15,16.2
		c-9.1,0-14.4-5-14.4-16.5v-20h8.5V596.7z"/>
	<path class="st1" d="M-238.8,596.7h21.8v6.8h-13.8v8.2h12.9v6.5h-12.9v14.4h-8.2v-35.9H-238.8z"/>
	<path class="st1" d="M-210.9,596.7h21.8v6.8H-203v8.2h12.9v6.5H-203v14.4h-7.9V596.7z"/>
	<path class="st1" d="M-161.8,617.3H-175v8.5h14.7v6.8h-22.9v-35.9h22.3v6.8h-13.8v7.3h13.2v6.5H-161.8z"/>
	<path class="st1" d="M-154.8,596.7h8.2v29.1h14.1v6.8h-22.3V596.7z"/>
	<path class="st1" d="M-116.8,597c2.1-0.3,6.5-0.9,10.6-0.9c5,0,7.9,0.6,10.6,2.1c2.4,1.5,4.4,3.8,4.4,7.1c0,3.2-1.8,6.2-5.9,7.6
		l0,0c4.1,1.2,7.1,4.1,7.1,8.8c0,3.2-1.5,5.9-3.8,7.6c-2.6,2.1-7.1,3.2-14.1,3.2c-4.1,0-7.1-0.3-8.8-0.6V597z M-108.6,610.8h2.6
		c4.1,0,6.5-1.8,6.5-4.4s-2.1-4.1-5.9-4.1c-1.8,0-2.6,0-3.5,0.3v8.2H-108.6z M-108.6,626.7c0.9,0,1.8,0,3.2,0c3.5,0,6.8-1.5,6.8-5.3
		c0-3.5-3.2-5-7.3-5h-2.6V626.7z"/>
	<path class="st1" d="M-76.6,623.1l-2.6,9.1h-8.2l10.9-35.9H-66l11.2,35.9h-8.8l-2.6-9.1H-76.6z M-67.5,617.3l-2.4-7.6
		c-0.6-2.1-1.2-4.7-1.8-6.8l0,0c-0.6,2.1-1.2,4.7-1.8,6.8l-2.1,7.6H-67.5z"/>
	<path class="st1" d="M-21.6,630.8c-2.4,0.9-7.3,2.1-12.1,2.1c-6.5,0-11.2-1.8-14.4-4.7c-3.2-2.9-5-7.6-5-12.9
		c0-11.8,8.8-18.8,20.6-18.8c4.7,0,8.2,0.9,10,1.8l-1.8,6.5c-2.1-0.9-4.4-1.5-8.2-1.5c-6.8,0-11.8,3.8-11.8,11.5
		c0,7.3,4.7,11.8,11.2,11.8c1.8,0,3.2-0.3,4.1-0.6v-7.3h-5.6v-6.2h13.2v18.5H-21.6z"/>
</g>
</svg>
