<?xml version="1.0" encoding="utf-8"?>
<!-- Generator: Adobe Illustrator 19.0.0, SVG Export Plug-In . SVG Version: 6.00 Build 0)  -->
<svg version="1.1" id="Layer_1" xmlns="http://www.w3.org/2000/svg" xmlns:xlink="http://www.w3.org/1999/xlink" x="0px" y="0px"
	 viewBox="-71 145 144 144" style="enable-background:new -71 145 144 144;" xml:space="preserve">
<g>
	<g id="XMLID_1_">
		<path id="XMLID_8_" d="M26.6,236.1c-17,0-34,0-51.1,0c-0.5-3.5-0.8-7-1.4-10.5c-2.1-13.4-0.7-26.7,1.5-39.8c17,0,33.9,0,50.9,0
			c0.2,0.7,0.3,1.2,0.4,1.8c0.7,9.2,1.6,18.5,2,27.7C29.2,222.3,28.7,229.3,26.6,236.1z"/>
		<path id="XMLID_6_" d="M30,168.7c4,1.4,5.6,4.5,5.1,8.7c-0.8,6.1,0.1,12.1,0.9,18.2c1.7,12.7,2.3,25.3-0.1,38
			c-0.3,1.5-0.8,1.8-2.1,1.7c-1.2-0.1-2.5,0-3.7,0c-0.2,0-0.4-0.1-0.6-0.1c2.3-13.7,1.8-27.4,1-41.1c-0.3-5.6-1.3-11.2-1.8-16.9
			c-0.2-2.1-1.3-3.4-3.3-3.7c-4.5-0.8-9.1-1.9-13.7-1.9c-10.4-0.1-20.9,0.4-31.3,0.8c-4.8,0.2-6.8,2.1-7.1,6.6
			c-0.8,9.4-1.9,18.9-2.1,28.3c-0.1,8.4,0.9,16.8,1.4,25.2c0.1,1.2,0.2,2.5,0.3,3.7c-1.9,0-3.9,0-5.8,0c-0.6-4.6-1.6-9.1-1.8-13.7
			c-0.3-7.4-0.5-14.8,0-22.1c0.6-8.1,3.1-16,1.8-24.3c-0.4-2.8,0.9-5.3,3.2-6.5C-27.3,168,27.3,167.7,30,168.7z"/>
		<path id="XMLID_5_" d="M39.1,236.1c-1.6-0.3-1.2-1.5-1.2-2.6c0.5-7.8,1.3-15.6,1.3-23.4c0-7.9-0.8-15.7-1.2-23.6
			c0-0.3,0-0.7,0-1.2c5.3,0,10.6,0.4,15.4,2.8c1.5,0.7,2.9,2.2,3.7,3.7c2.7,4.6,4.6,9.6,5,15c0,0.3,0.2,0.6,0.3,1c0,2.2,0,4.4,0,6.6
			c-0.1,0.9-0.3,1.7-0.4,2.6c-0.5,3.6-0.9,7.2-1.6,10.8c-0.9,4.6-3.4,7.8-8.6,7.9c-0.2,0-0.4,0.2-0.5,0.3
			C47.1,236.1,43.1,236.1,39.1,236.1z"/>
		<path id="XMLID_4_" d="M-60.5,219.9c0-2.6,0-5.3,0-7.9c0.1-0.7,0.3-1.3,0.4-2c0.8-4.7,1.6-9.4,2.6-14c0.5-2.6,1.8-5,4-6.6
			c5.3-3.9,11.4-3.9,17.7-3.9c-2.6,16.6-2.5,32.9,0,49.2c-5.5,0.9-10.6,0.7-15.7-0.8c-4.6-1.4-7.4-4.4-8.1-9.2
			C-60,223-60.3,221.4-60.5,219.9z"/>
	</g>
	<g>
		<path d="M-48.4,253.6c1-0.2,2.3-0.3,3.7-0.3c2.3,0,3.8,0.4,5,1.3c1.3,0.9,2.1,2.4,2.1,4.6c0,2.3-0.8,3.9-2,4.9
			c-1.3,1.1-3.2,1.6-5.6,1.6c-1.4,0-2.4-0.1-3.1-0.2V253.6z M-45.7,263.6c0.2,0.1,0.6,0.1,1,0.1c2.5,0,4.1-1.4,4.1-4.3
			c0-2.5-1.5-3.9-3.8-3.9c-0.6,0-1,0.1-1.2,0.1V263.6z"/>
		<path d="M-33.1,253.5v7c0,2.1,0.8,3.2,2.2,3.2c1.4,0,2.2-1,2.2-3.2v-7h2.7v6.8c0,3.8-1.9,5.5-5.1,5.5c-3.1,0-4.9-1.7-4.9-5.6v-6.8
			H-33.1z"/>
		<path d="M-23.5,253.5h7.4v2.3h-4.7v2.8h4.4v2.2h-4.4v4.9h-2.8V253.5z"/>
		<path d="M-14,253.5h7.4v2.3h-4.7v2.8h4.4v2.2h-4.4v4.9H-14V253.5z"/>
		<path d="M2.7,260.5h-4.5v2.9h5v2.3h-7.8v-12.2H3v2.3h-4.7v2.5h4.5V260.5z"/>
		<path d="M5.1,253.5h2.8v9.9h4.8v2.3H5.1V253.5z"/>
		<path d="M18,253.6c0.7-0.1,2.2-0.3,3.6-0.3c1.7,0,2.7,0.2,3.6,0.7c0.8,0.5,1.5,1.3,1.5,2.4c0,1.1-0.6,2.1-2,2.6v0
			c1.4,0.4,2.4,1.4,2.4,3c0,1.1-0.5,2-1.3,2.6c-0.9,0.7-2.4,1.1-4.8,1.1c-1.4,0-2.4-0.1-3-0.2V253.6z M20.8,258.3h0.9
			c1.4,0,2.2-0.6,2.2-1.5c0-0.9-0.7-1.4-2-1.4c-0.6,0-0.9,0-1.2,0.1V258.3z M20.8,263.7c0.3,0,0.6,0,1.1,0c1.2,0,2.3-0.5,2.3-1.8
			c0-1.2-1.1-1.7-2.5-1.7h-0.9V263.7z"/>
		<path d="M31.7,262.5l-0.9,3.1H28l3.7-12.2h3.6l3.8,12.2h-3l-0.9-3.1H31.7z M34.8,260.5l-0.8-2.6c-0.2-0.7-0.4-1.6-0.6-2.3h0
			c-0.2,0.7-0.4,1.6-0.6,2.3l-0.7,2.6H34.8z"/>
		<path d="M50.4,265.1c-0.8,0.3-2.5,0.7-4.1,0.7c-2.2,0-3.8-0.6-4.9-1.6c-1.1-1-1.7-2.6-1.7-4.4c0-4,3-6.4,7-6.4
			c1.6,0,2.8,0.3,3.4,0.6l-0.6,2.2c-0.7-0.3-1.5-0.5-2.8-0.5c-2.3,0-4,1.3-4,3.9c0,2.5,1.6,4,3.8,4c0.6,0,1.1-0.1,1.4-0.2v-2.5h-1.9
			v-2.1h4.5V265.1z"/>
	</g>
</g>
</svg>
