<?xml version="1.0" encoding="utf-8"?>
<!-- Generator: Adobe Illustrator 19.0.0, SVG Export Plug-In . SVG Version: 6.00 Build 0)  -->
<svg version="1.1" id="Layer_1" xmlns="http://www.w3.org/2000/svg" xmlns:xlink="http://www.w3.org/1999/xlink" x="0px" y="0px"
	 viewBox="-417 141 512 512" style="enable-background:new -417 141 512 512;" xml:space="preserve">
<style type="text/css">
	.st0{fill-rule:evenodd;clip-rule:evenodd;fill:#BD2F32;}
	.st1{fill:#FFFFFF;}
</style>
<g id="XMLID_29_">
	<rect id="XMLID_28_" x="-417" y="141" class="st0" width="512" height="512"/>
	<g id="XMLID_30_">
		<rect id="XMLID_31_" x="-344.7" y="580.2" class="st1" width="367.3" height="2.1"/>
	</g>
</g>
<g>
	<path id="XMLID_5_" class="st1" d="M-347.8,364.1c7,3.9,13.7,7.4,20,10.9c21,11.6,42.1,23.5,63.1,35.1
		c14.7,8.1,30.5,11.9,47.3,12.3c6.7,0,13,0,20.3,0c0,5.6,0,10.9,0,16.1c0,15.1,9.1,24.2,23.8,24.2c9.8,0,19.3,0.4,29.1-0.4
		c10.5-0.7,18.2-9.8,18.6-20.3c0-6.3,0-12.6,0-19.6c7,0,13.3,0,20,0c16.8-0.4,33-4.2,47.7-12.3c10.5-6,21.4-11.9,31.9-17.9
		c15.8-8.8,31.6-17.5,47.3-26.3c1.1-0.7,2.1-1.1,3.5-1.8c0,1.8,0.4,3.2,0.4,4.2c0,50.5-0.4,100.7,0,151.2
		c0,13.7-11.2,23.5-23.5,23.5c-108.4-0.4-216.7-0.4-325.1,0c-14,0-24.5-9.8-24.5-24.5c0.4-49.8,0-100,0-149.8
		C-347.8,367.6-347.8,366.2-347.8,364.1z"/>
	<path id="XMLID_4_" class="st1" d="M-125.4,406.6c0-5.3,0-9.8,0-14.7c0-12.6-7.4-21.7-20-22.4c-10.2-0.7-20.7-0.7-31.2,0
		c-12.3,1.1-20.3,10.5-20.3,22.8c0,4.6,0,9.1,0,14c-20.7,1.1-40.7,0.7-59.3-9.8c-29.5-16.5-58.9-33-88.4-49.1
		c-2.5-1.4-2.8-2.8-2.8-5.3c0-13.7,0.4-27.4,0-40.7c-0.4-14,8.1-26,25.6-25.6c48.4,0.4,96.4,0,144.8,0c59.6,0,119.2,0,178.9,0
		c11.9,0,20,5.6,23.1,16.1c0.4,1.8,0.7,3.5,0.7,5.3c0,15.1,0,30.2,0,44.9c0,2.5-0.7,3.9-3.2,5.3c-29.5,16.1-58.6,32.6-88,49.1
		c-11.6,6.3-24.5,9.5-37.9,9.8C-110.7,406.9-117.7,406.6-125.4,406.6z"/>
	<path id="XMLID_3_" class="st1" d="M-256.6,265.2c1.4-5.3,4.6-9.1,8.4-12.6c1.4-1.1,2.8-3.2,3.2-4.9c2.5-11.9,4.9-24.2,11.6-34.7
		c10.5-16.8,24.9-26,44.9-26c17.5,0.4,35.4,0.4,53,0c24.2-0.7,40.3,11.2,50.2,32.3c3.9,8.4,5.3,17.9,7.7,26.7c0.7,2.8,1.4,4.9,3.9,7
		c4.2,2.8,7,6.7,8.1,12.3c-16.5,0-32.3,0-48.7,0c1.4-6,4.9-10.2,9.8-13.7c-1.8-9.8-4.6-19.3-11.6-27.4c-4.6-5.3-10.2-7.4-17.2-7.4
		c-18.2,0-36.5,0-54.7-0.4c-8.8-0.4-15.1,3.5-20,10.2c-4.9,6.7-7.7,14.7-9.1,22.8c-0.4,1.1,1.1,3.2,2.1,3.9
		c3.5,3.2,6.3,6.7,7.4,11.9C-224.3,265.2-240.1,265.2-256.6,265.2z"/>
	<path class="st1" d="M-137.3,416c0,8.1,0,16.1,0,23.8c0,6.7-3.9,10.5-10.5,10.5c-9.1,0-17.9,0-27,0c-6.3,0-9.8-3.5-10.2-9.8
		c0-16.5,0-33,0-49.1c0-6.7,3.5-10.2,10.2-10.2c8.8,0,17.5,0,26.7,0c7,0,10.5,3.9,10.5,10.9C-137.3,400.3-137.3,408.3-137.3,416z
		 M-166.8,416.7c0,3.9,0,7.7,0,11.2c0,3.5,2.1,5.6,5.3,6c3.5,0.4,6-1.8,6-4.9c0.4-8.1,0.4-16.1,0-24.2c0-3.5-2.8-5.3-6-4.9
		c-3.2,0.4-5.3,2.1-5.3,6C-166.8,409.4-166.8,413.2-166.8,416.7z"/>
</g>
<g>
	<path d="M-289.5,616h-10.3v6.8h11.5v5.3h-17.9v-28.2h17.3v5.3h-10.9v5.9h10.3C-289.5,611-289.5,616-289.5,616z"/>
	<path d="M-269.2,627.7l-2.6-5c-1.2-2.1-1.8-3.5-2.6-5l0,0c-0.6,1.8-1.2,2.9-2.1,5l-2.4,5h-7.3l8.2-14.1l-7.9-13.8h7.3l2.3,5
		c0.9,1.8,1.5,3.2,2.1,4.7l0,0c0.6-1.8,1.2-2.9,2.1-4.7l2.4-5h7.3l-7.9,13.8l8.2,14.4h-7V627.7z"/>
	<path d="M-241.6,616h-10.3v6.8h11.5v5.3h-17.9v-28.2h17.3v5.3h-10.9v5.9h10.3C-241.6,611-241.6,616-241.6,616z"/>
	<path d="M-215.5,627.1c-1.2,0.6-3.8,1.2-7.3,1.2c-9.7,0-14.7-6.2-14.7-14.1c0-9.7,6.8-15,15.3-15c3.2,0,5.9,0.6,7,1.2l-1.2,5
		c-1.2-0.6-3.2-1.2-5.3-1.2c-5,0-9.1,2.9-9.1,9.4c0,5.6,3.2,9.1,9.1,9.1c2.1,0,4.1-0.3,5.3-0.9L-215.5,627.1z"/>
	<path d="M-204.9,599.8V616c0,4.7,1.8,7.3,5,7.3s5.3-2.3,5.3-7.3v-16.2h6.5v15.9c0,8.8-4.4,12.9-11.8,12.9
		c-7.1,0-11.2-3.8-11.2-12.9v-15.6h6.2V599.8z"/>
	<path d="M-177.3,605.1h-7.6v-5.3h21.7v5.3h-7.6v22.6h-6.5C-177.3,627.7-177.3,605.1-177.3,605.1z"/>
	<path d="M-153.5,599.8V628h-6.5v-28.2H-153.5z"/>
	<path d="M-141.5,627.7l-9.1-28.2h7.1l3.5,11.8c0.9,3.2,1.8,6.5,2.6,10l0,0c0.6-3.2,1.5-6.8,2.6-10l3.5-12h6.8l-9.4,28.2h-7.6V627.7
		z"/>
	<path d="M-105,616h-10.3v6.8h11.5v5.3h-17.9v-28.2h17.3v5.3h-10.9v5.9h10.3C-105,611-105,616-105,616z"/>
	<path d="M-90.9,600.1c1.8-0.3,5-0.6,8.2-0.6c3.8,0,6.2,0.3,8.2,1.5c2.1,1.2,3.2,2.9,3.2,5.6c0,2.6-1.5,4.7-4.7,5.9l0,0
		c3.2,0.9,5.6,3.2,5.6,7c0,2.6-1.2,4.4-2.9,5.9c-2.1,1.8-5.6,2.6-11.2,2.6c-3.2,0-5.6-0.3-6.8-0.3v-27.6H-90.9z M-84.8,611h2.1
		c3.2,0,5-1.5,5-3.5c0-2.1-1.8-3.2-4.4-3.2c-1.5,0-2.1,0-2.6,0.3C-84.8,604.5-84.8,611-84.8,611z M-84.8,623.3c0.6,0,1.5,0,2.3,0
		c2.9,0,5.3-1.2,5.3-4.1s-2.6-3.8-5.6-3.8h-2.1C-84.8,615.4-84.8,623.3-84.8,623.3z"/>
	<path d="M-59.5,620.7l-2.1,7.3H-68l8.5-28.2h8.2l8.8,28.2h-6.8l-2.1-7.3H-59.5z M-52.2,616l-1.8-5.9c-0.6-1.8-0.9-3.8-1.5-5.3l0,0
		c-0.3,1.8-0.9,3.8-1.2,5.3l-1.8,5.9H-52.2z"/>
	<path d="M-16,626.5c-2.1,0.6-5.6,1.5-9.4,1.5c-5,0-8.8-1.2-11.5-3.8c-2.6-2.3-4.1-6.2-3.8-10.3c0-9.4,6.8-14.7,16.2-14.7
		c3.5,0,6.5,0.6,7.9,1.5l-1.5,5c-1.5-0.6-3.5-1.2-6.5-1.2c-5.3,0-9.4,2.9-9.4,9.1c0,5.9,3.5,9.1,8.8,9.1c1.5,0,2.6-0.3,3.2-0.3v-5.9
		h-4.4v-5h10.6v15H-16z"/>
</g>
<g>
	<path class="st1" d="M-295.2,616h-10.3v6.8h11.5v5.3h-17.9v-28.2h17.3v5.3h-10.9v5.9h10.3C-295.2,611-295.2,616-295.2,616z"/>
	<path class="st1" d="M-274.9,627.7l-2.6-5c-1.2-2.1-1.8-3.5-2.6-5l0,0c-0.6,1.8-1.2,2.9-2.1,5l-2.4,5h-7.3l8.2-14.1l-7.9-13.8h7.3
		l2.4,5c0.9,1.8,1.5,3.2,2.1,4.7l0,0c0.6-1.8,1.2-2.9,2.1-4.7l2.3-5h7.3l-7.9,13.8l8.2,14.4h-7V627.7z"/>
	<path class="st1" d="M-247.3,616h-10.3v6.8h11.5v5.3H-264v-28.2h17.3v5.3h-10.9v5.9h10.3C-247.3,611-247.3,616-247.3,616z"/>
	<path class="st1" d="M-221.2,627.1c-1.2,0.6-3.8,1.2-7.3,1.2c-9.7,0-14.7-6.2-14.7-14.1c0-9.7,6.8-15,15.3-15
		c3.2,0,5.9,0.6,7.1,1.2l-1.2,5c-1.2-0.6-3.2-1.2-5.3-1.2c-5,0-9.1,2.9-9.1,9.4c0,5.6,3.2,9.1,9.1,9.1c2.1,0,4.1-0.3,5.3-0.9
		L-221.2,627.1z"/>
	<path class="st1" d="M-210.6,599.8V616c0,4.7,1.8,7.3,5,7.3c3.2,0,5.3-2.3,5.3-7.3v-16.2h6.5v15.9c0,8.8-4.4,12.9-11.8,12.9
		c-7,0-11.2-3.8-11.2-12.9v-15.6h6.2V599.8z"/>
	<path class="st1" d="M-183,605.1h-7.6v-5.3h21.7v5.3h-7.6v22.6h-6.5C-183,627.7-183,605.1-183,605.1z"/>
	<path class="st1" d="M-159.2,599.8V628h-6.5v-28.2H-159.2z"/>
	<path class="st1" d="M-147.1,627.7l-9.1-28.2h7.1l3.5,11.8c0.9,3.2,1.8,6.5,2.6,10l0,0c0.6-3.2,1.5-6.8,2.6-10l3.5-12h6.8
		l-9.4,28.2h-7.6V627.7z"/>
	<path class="st1" d="M-110.7,616H-121v6.8h11.5v5.3h-17.9v-28.2h17.3v5.3H-121v5.9h10.3C-110.7,611-110.7,616-110.7,616z"/>
	<path class="st1" d="M-96.6,600.1c1.8-0.3,5-0.6,8.2-0.6c3.8,0,6.2,0.3,8.2,1.5c2.1,1.2,3.2,2.9,3.2,5.6c0,2.6-1.5,4.7-4.7,5.9l0,0
		c3.2,0.9,5.6,3.2,5.6,7c0,2.6-1.2,4.4-2.9,5.9c-2.1,1.8-5.6,2.6-11.2,2.6c-3.2,0-5.6-0.3-6.8-0.3v-27.6H-96.6z M-90.4,611h2.1
		c3.2,0,5-1.5,5-3.5c0-2.1-1.8-3.2-4.4-3.2c-1.5,0-2.1,0-2.6,0.3C-90.4,604.5-90.4,611-90.4,611z M-90.4,623.3c0.6,0,1.5,0,2.3,0
		c2.9,0,5.3-1.2,5.3-4.1s-2.6-3.8-5.6-3.8h-2.1C-90.4,615.4-90.4,623.3-90.4,623.3z"/>
	<path class="st1" d="M-65.2,620.7l-2.1,7.3h-6.5l8.5-28.2h8.2l8.8,28.2h-6.8l-2.1-7.3H-65.2z M-57.8,616l-1.8-5.9
		c-0.6-1.8-0.9-3.8-1.5-5.3l0,0c-0.3,1.8-0.9,3.8-1.2,5.3L-64,616H-57.8z"/>
	<path class="st1" d="M-21.7,626.5c-2.1,0.6-5.6,1.5-9.4,1.5c-5,0-8.8-1.2-11.5-3.8c-2.6-2.3-4.1-6.2-3.8-10.3
		c0-9.4,6.8-14.7,16.2-14.7c3.5,0,6.5,0.6,7.9,1.5l-1.5,5c-1.5-0.6-3.5-1.2-6.5-1.2c-5.3,0-9.4,2.9-9.4,9.1c0,5.9,3.5,9.1,8.8,9.1
		c1.5,0,2.6-0.3,3.2-0.3v-5.9H-32v-5h10.6v15H-21.7z"/>
</g>
</svg>
