<?xml version="1.0" encoding="utf-8"?>
<!-- Generator: Adobe Illustrator 19.0.0, SVG Export Plug-In . SVG Version: 6.00 Build 0)  -->
<svg version="1.1" id="Layer_1" xmlns="http://www.w3.org/2000/svg" xmlns:xlink="http://www.w3.org/1999/xlink" x="0px" y="0px"
	 viewBox="-71 145 144 144" style="enable-background:new -71 145 144 144;" xml:space="preserve">
<g>
	<path id="XMLID_5_" d="M-52.2,203.2c2,1.1,3.9,2.1,5.7,3.1c6,3.3,12,6.7,18,10c4.2,2.3,8.7,3.4,13.5,3.5c1.9,0,3.7,0,5.8,0
		c0,1.6,0,3.1,0,4.6c0,4.3,2.6,6.9,6.8,6.9c2.8,0,5.5,0.1,8.3-0.1c3-0.2,5.2-2.8,5.3-5.8c0-1.8,0-3.6,0-5.6c2,0,3.8,0,5.7,0
		c4.8-0.1,9.4-1.2,13.6-3.5c3-1.7,6.1-3.4,9.1-5.1c4.5-2.5,9-5,13.5-7.5c0.3-0.2,0.6-0.3,1-0.5c0,0.5,0.1,0.9,0.1,1.2
		c0,14.4-0.1,28.7,0,43.1c0,3.9-3.2,6.7-6.7,6.7c-30.9-0.1-61.8-0.1-92.7,0c-4,0-7-2.8-7-7c0.1-14.2,0-28.5,0-42.7
		C-52.2,204.2-52.2,203.8-52.2,203.2z"/>
	<path id="XMLID_4_" d="M11.2,215.3c0-1.5,0-2.8,0-4.2c0-3.6-2.1-6.2-5.7-6.4c-2.9-0.2-5.9-0.2-8.9,0c-3.5,0.3-5.8,3-5.8,6.5
		c0,1.3,0,2.6,0,4c-5.9,0.3-11.6,0.2-16.9-2.8c-8.4-4.7-16.8-9.4-25.2-14c-0.7-0.4-0.8-0.8-0.8-1.5c0-3.9,0.1-7.8,0-11.6
		c-0.1-4,2.3-7.4,7.3-7.3c13.8,0.1,27.5,0,41.3,0c17,0,34,0,51,0c3.4,0,5.7,1.6,6.6,4.6c0.1,0.5,0.2,1,0.2,1.5c0,4.3,0,8.6,0,12.8
		c0,0.7-0.2,1.1-0.9,1.5c-8.4,4.6-16.7,9.3-25.1,14c-3.3,1.8-7,2.7-10.8,2.8C15.4,215.4,13.4,215.3,11.2,215.3z"/>
	<path id="XMLID_3_" d="M-26.2,175c0.4-1.5,1.3-2.6,2.4-3.6c0.4-0.3,0.8-0.9,0.9-1.4c0.7-3.4,1.4-6.9,3.3-9.9
		c3-4.8,7.1-7.4,12.8-7.4c5,0.1,10.1,0.1,15.1,0c6.9-0.2,11.5,3.2,14.3,9.2c1.1,2.4,1.5,5.1,2.2,7.6c0.2,0.8,0.4,1.4,1.1,2
		c1.2,0.8,2,1.9,2.3,3.5c-4.7,0-9.2,0-13.9,0c0.4-1.7,1.4-2.9,2.8-3.9c-0.5-2.8-1.3-5.5-3.3-7.8c-1.3-1.5-2.9-2.1-4.9-2.1
		c-5.2,0-10.4,0-15.6-0.1c-2.5-0.1-4.3,1-5.7,2.9s-2.2,4.2-2.6,6.5c-0.1,0.3,0.3,0.9,0.6,1.1c1,0.9,1.8,1.9,2.1,3.4
		C-17,175-21.5,175-26.2,175z"/>
	<path d="M7.8,218c0,2.3,0,4.6,0,6.8c0,1.9-1.1,3-3,3c-2.6,0-5.1,0-7.7,0c-1.8,0-2.8-1-2.9-2.8c0-4.7,0-9.4,0-14
		c0-1.9,1-2.9,2.9-2.9c2.5,0,5,0,7.6,0c2,0,3,1.1,3,3.1C7.8,213.5,7.8,215.8,7.8,218z M-0.6,218.2c0,1.1,0,2.2,0,3.2
		s0.6,1.6,1.5,1.7c1,0.1,1.7-0.5,1.7-1.4c0.1-2.3,0.1-4.6,0-6.9c0-1-0.8-1.5-1.7-1.4c-0.9,0.1-1.5,0.6-1.5,1.7
		C-0.6,216.1-0.6,217.2-0.6,218.2z"/>
</g>
<g>
	<path d="M-42.6,274.1h-3.5v2.3h3.9v1.8h-6.1v-9.6h5.9v1.8h-3.7v2h3.5V274.1z"/>
	<path d="M-35.7,278.1l-0.9-1.7c-0.4-0.7-0.6-1.2-0.9-1.7h0c-0.2,0.6-0.4,1-0.7,1.7l-0.8,1.7h-2.5l2.8-4.8l-2.7-4.7h2.5l0.8,1.7
		c0.3,0.6,0.5,1.1,0.7,1.6h0c0.2-0.6,0.4-1,0.7-1.6l0.8-1.7h2.5l-2.7,4.7l2.8,4.9H-35.7z"/>
	<path d="M-26.3,274.1h-3.5v2.3h3.9v1.8H-32v-9.6h5.9v1.8h-3.7v2h3.5V274.1z"/>
	<path d="M-17.4,277.9c-0.4,0.2-1.3,0.4-2.5,0.4c-3.3,0-5-2.1-5-4.8c0-3.3,2.3-5.1,5.2-5.1c1.1,0,2,0.2,2.4,0.4l-0.4,1.7
		c-0.4-0.2-1.1-0.4-1.8-0.4c-1.7,0-3.1,1-3.1,3.2c0,1.9,1.1,3.1,3.1,3.1c0.7,0,1.4-0.1,1.8-0.3L-17.4,277.9z"/>
	<path d="M-13.8,268.6v5.5c0,1.6,0.6,2.5,1.7,2.5c1.1,0,1.8-0.8,1.8-2.5v-5.5h2.2v5.4c0,3-1.5,4.4-4,4.4c-2.4,0-3.8-1.3-3.8-4.4
		v-5.3H-13.8z"/>
	<path d="M-4.4,270.4H-7v-1.8h7.4v1.8h-2.6v7.7h-2.2V270.4z"/>
	<path d="M3.7,268.6v9.6H1.5v-9.6H3.7z"/>
	<path d="M7.8,278.1l-3.1-9.6h2.4l1.2,4c0.3,1.1,0.6,2.2,0.9,3.4h0c0.2-1.1,0.5-2.3,0.9-3.4l1.2-4.1h2.3l-3.2,9.6H7.8z"/>
	<path d="M20.2,274.1h-3.5v2.3h3.9v1.8h-6.1v-9.6h5.9v1.8h-3.7v2h3.5V274.1z"/>
	<path d="M25,268.7c0.6-0.1,1.7-0.2,2.8-0.2c1.3,0,2.1,0.1,2.8,0.5c0.7,0.4,1.1,1,1.1,1.9c0,0.9-0.5,1.6-1.6,2v0
		c1.1,0.3,1.9,1.1,1.9,2.4c0,0.9-0.4,1.5-1,2c-0.7,0.6-1.9,0.9-3.8,0.9c-1.1,0-1.9-0.1-2.3-0.1V268.7z M27.1,272.4h0.7
		c1.1,0,1.7-0.5,1.7-1.2c0-0.7-0.6-1.1-1.5-1.1c-0.5,0-0.7,0-0.9,0.1V272.4z M27.1,276.6c0.2,0,0.5,0,0.8,0c1,0,1.8-0.4,1.8-1.4
		c0-1-0.9-1.3-1.9-1.3h-0.7V276.6z"/>
	<path d="M35.7,275.7l-0.7,2.5h-2.2l2.9-9.6h2.8l3,9.6h-2.3l-0.7-2.5H35.7z M38.2,274.1l-0.6-2c-0.2-0.6-0.3-1.3-0.5-1.8h0
		c-0.1,0.6-0.3,1.3-0.4,1.8l-0.6,2H38.2z"/>
	<path d="M50.5,277.7c-0.7,0.2-1.9,0.5-3.2,0.5c-1.7,0-3-0.4-3.9-1.3c-0.9-0.8-1.4-2.1-1.3-3.5c0-3.2,2.3-5,5.5-5
		c1.2,0,2.2,0.2,2.7,0.5l-0.5,1.7c-0.5-0.2-1.2-0.4-2.2-0.4c-1.8,0-3.2,1-3.2,3.1c0,2,1.2,3.1,3,3.1c0.5,0,0.9-0.1,1.1-0.1v-2h-1.5
		v-1.7h3.6V277.7z"/>
</g>
</svg>
