<?xml version="1.0" encoding="utf-8"?>
<!-- Generator: Adobe Illustrator 19.0.0, SVG Export Plug-In . SVG Version: 6.00 Build 0)  -->
<svg version="1.1" id="Layer_1" xmlns="http://www.w3.org/2000/svg" xmlns:xlink="http://www.w3.org/1999/xlink" x="0px" y="0px"
	 viewBox="0 0 144 144" style="enable-background:new 0 0 144 144;" xml:space="preserve">
<g>
	<path id="XMLID_5_" d="M18.8,71.7c2,1.1,3.9,2.1,5.7,3.1c6,3.3,12,6.7,18,10c4.2,2.3,8.7,3.4,13.5,3.5c1.9,0,3.7,0,5.8,0
		c0,1.6,0,3.1,0,4.6c0,4.3,2.6,6.9,6.8,6.9c2.8,0,5.5,0.1,8.3-0.1c3-0.2,5.2-2.8,5.3-5.8c0-1.8,0-3.6,0-5.6c2,0,3.8,0,5.7,0
		c4.8-0.1,9.4-1.2,13.6-3.5c3-1.7,6.1-3.4,9.1-5.1c4.5-2.5,9-5,13.5-7.5c0.3-0.2,0.6-0.3,1-0.5c0,0.5,0.1,0.9,0.1,1.2
		c0,14.4-0.1,28.7,0,43.1c0,3.9-3.2,6.7-6.7,6.7c-30.9-0.1-61.8-0.1-92.7,0c-4,0-7-2.8-7-7c0.1-14.2,0-28.5,0-42.7
		C18.8,72.7,18.8,72.3,18.8,71.7z"/>
	<path id="XMLID_4_" d="M82.2,83.8c0-1.5,0-2.8,0-4.2c0-3.6-2.1-6.2-5.7-6.4c-2.9-0.2-5.9-0.2-8.9,0c-3.5,0.3-5.8,3-5.8,6.5
		c0,1.3,0,2.6,0,4c-5.9,0.3-11.6,0.2-16.9-2.8c-8.4-4.7-16.8-9.4-25.2-14c-0.7-0.4-0.8-0.8-0.8-1.5c0-3.9,0.1-7.8,0-11.6
		c-0.1-4,2.3-7.4,7.3-7.3c13.8,0.1,27.5,0,41.3,0c17,0,34,0,51,0c3.4,0,5.7,1.6,6.6,4.6c0.1,0.5,0.2,1,0.2,1.5c0,4.3,0,8.6,0,12.8
		c0,0.7-0.2,1.1-0.9,1.5c-8.4,4.6-16.7,9.3-25.1,14c-3.3,1.8-7,2.7-10.8,2.8C86.4,83.9,84.4,83.8,82.2,83.8z"/>
	<path id="XMLID_3_" d="M44.8,43.5c0.4-1.5,1.3-2.6,2.4-3.6c0.4-0.3,0.8-0.9,0.9-1.4c0.7-3.4,1.4-6.9,3.3-9.9
		c3-4.8,7.1-7.4,12.8-7.4c5,0.1,10.1,0.1,15.1,0c6.9-0.2,11.5,3.2,14.3,9.2c1.1,2.4,1.5,5.1,2.2,7.6c0.2,0.8,0.4,1.4,1.1,2
		c1.2,0.8,2,1.9,2.3,3.5c-4.7,0-9.2,0-13.9,0c0.4-1.7,1.4-2.9,2.8-3.9c-0.5-2.8-1.3-5.5-3.3-7.8c-1.3-1.5-2.9-2.1-4.9-2.1
		c-5.2,0-10.4,0-15.6-0.1c-2.5-0.1-4.3,1-5.7,2.9c-1.4,1.9-2.2,4.2-2.6,6.5c-0.1,0.3,0.3,0.9,0.6,1.1c1,0.9,1.8,1.9,2.1,3.4
		C54,43.5,49.5,43.5,44.8,43.5z"/>
	<path d="M78.8,86.5c0,2.3,0,4.6,0,6.8c0,1.9-1.1,3-3,3c-2.6,0-5.1,0-7.7,0c-1.8,0-2.8-1-2.9-2.8c0-4.7,0-9.4,0-14
		c0-1.9,1-2.9,2.9-2.9c2.5,0,5,0,7.6,0c2,0,3,1.1,3,3.1C78.8,82,78.8,84.3,78.8,86.5z M70.4,86.7c0,1.1,0,2.2,0,3.2
		c0,1,0.6,1.6,1.5,1.7c1,0.1,1.7-0.5,1.7-1.4c0.1-2.3,0.1-4.6,0-6.9c0-1-0.8-1.5-1.7-1.4c-0.9,0.1-1.5,0.6-1.5,1.7
		C70.4,84.6,70.4,85.7,70.4,86.7z"/>
</g>
</svg>
