<?xml version="1.0" encoding="utf-8"?>
<!-- Generator: Adobe Illustrator 19.0.0, SVG Export Plug-In . SVG Version: 6.00 Build 0)  -->
<svg version="1.1" id="Layer_1" xmlns="http://www.w3.org/2000/svg" xmlns:xlink="http://www.w3.org/1999/xlink" x="0px" y="0px"
	 viewBox="-71 145 144 144" style="enable-background:new -71 145 144 144;" xml:space="preserve">
<g id="XMLID_796_">
	<path id="XMLID_818_" d="M-54.5,232.4c-0.1-11.8,8.8-22.1,21.8-22.2c4.8,0,9-1.5,12.4-5c4.6-4.7,5.7-10.2,3.7-16.4
		c-0.5-1.7-1.5-3.3-2.2-4.9c-1.8-4.3-2.1-8.7-1.2-13.2c1-5.4,3.7-9.9,8.1-13.2c5.4-4,11.4-5.5,18-4.2c5.1,1,9.4,3.5,12.6,7.5
		c2.7,3.3,4.4,7.1,5,11.4c0.4,3.3,0.4,6.6-0.7,9.8c-0.9,2.4-2,4.4-3,6.5c-1.6,3.3-2,6.7-1.2,10.3c0.3,1.6,0.9,3.2,1.6,4.6
		c0.5,1,1.3,2,2.2,2.8c1.2,1.1,2.6,2,4,2.9c2.4,1.5,5.2,2.2,8.1,2.3c3.5,0.1,6.8,0.9,9.9,2.5c3.8,2,6.7,4.9,8.9,8.6
		c2.9,4.9,3.9,10.2,2.7,15.7c-1.3,5.9-4.4,10.7-9.6,14c-5.9,3.8-12.3,4.6-19,2.5c-5.3-1.7-9.4-4.9-12.2-9.7
		c-2.4-4.1-5.7-6.9-10.2-8.1c-4.7-1.3-9.2-0.6-13.4,2c-2.4,1.5-4.2,3.5-5.7,5.9c-3.2,4.9-7.7,7.9-13.4,9.3
		c-10.2,2.4-20.8-3.1-25.2-12.5C-54,238.5-54.6,235.5-54.5,232.4z M-33.1,217.5c-8.5-0.1-15.5,6.7-15.6,15.1
		c-0.1,8.9,7,16.3,15.8,16.4c8.6,0.1,15.7-6.7,15.8-15.1C-16.9,224.8-24,217.6-33.1,217.5z M1.2,160.2c-9.2,0-15.6,7.4-15.7,15.3
		c-0.1,9.3,6.9,16.2,16.3,16.2c8.3,0,15.7-6.9,15.5-16.2C17.1,166.8,10,160.3,1.2,160.2z M50.2,234.7c0.1-8.8-6.9-15.8-16.1-15.8
		c-8.7,0-15.8,7-15.7,16c0.2,8.6,7.2,15.3,16,15.4C43,250.2,50.1,243.3,50.2,234.7z M-12.8,162c-1.8,0.9-4.6,5.9-4,6.9
		c0.1,0,0.1-0.1,0.2-0.1c0.9-2.2,2.1-4.2,3.6-6.1C-12.9,162.6-12.9,162.4-12.8,162z M-12.7,206.3c1.1-1.2,2.2-2.4,3.2-3.6
		C-10.8,203.6-12,204.7-12.7,206.3z M-19.8,208.4c0.8,0.2,1,0.1,0.9-0.7C-19.2,207.9-19.4,208.1-19.8,208.4z"/>
	<path id="XMLID_813_" d="M-32.8,247.5c-8.3,0.1-14.6-6.8-14.6-14.5c0-7.8,6.4-14,14.2-14c8.2,0,14.7,6.4,14.7,14.4
		S-25,247.5-32.8,247.5z M-41.2,233.1c0.1,4.7,3.8,8.5,8.4,8.4c4.5-0.1,8.1-3.7,8.1-8c0-4.9-3.9-8.5-8.7-8.4
		C-37.6,225.2-41.2,228.8-41.2,233.1z"/>
	<path id="XMLID_810_" d="M1.4,190.5c-8,0-14.6-6.5-14.6-14.5s6.4-14.4,14.6-14.4c8,0,14.5,6.3,14.6,14.1
		C16.1,183.8,9.3,190.6,1.4,190.5z M1.5,184.2c4.7-0.1,8.4-3.8,8.2-8.7c-0.2-4.6-4.2-7.8-8.4-7.8c-4.8,0-8.4,3.7-8.2,8.6
		C-6.7,180.6-3.3,184.2,1.5,184.2z"/>
	<path id="XMLID_806_" d="M19.7,234.4c-0.1-7.7,6.4-14.1,14.2-14.2c8.3-0.1,14.8,6.4,14.9,14.3c0.2,7.9-6.6,14.6-14.6,14.6
		C26.6,249,19.5,242.4,19.7,234.4z M42.6,234.6c0-4.2-3.2-8.3-8.6-8.1c-4.7,0.2-7.8,3.6-7.9,7.6c-0.2,5.1,3.9,8.5,8.2,8.5
		C38.9,242.7,42.6,239,42.6,234.6z"/>
	<path id="XMLID_803_" d="M-39.3,232.5c0.1-3.3,2.9-5.9,6.4-5.8c3.7,0.1,6.5,3,6.4,6.6c-0.1,3.4-3.2,6.2-6.7,6.2
		C-37,239.6-39.6,235.7-39.3,232.5z M-26.8,233.2c0-3.3-2.7-6-5.9-6c-3.6,0-6.2,2.5-6.2,5.9c0,3.3,2.8,5.9,6.1,5.9
		C-29.5,239-26.8,236.4-26.8,233.2z"/>
	<path id="XMLID_800_" d="M1.2,182.3c-3.6,0-6.3-2.8-6.2-6.6c0-3.5,2.7-6.2,6.2-6.2c3.6,0,6.6,2.9,6.6,6.3
		C7.8,179.4,4.9,182.3,1.2,182.3z M7.6,176c0-3.4-2.7-6.1-6-6.1c-3.5,0-6.1,2.6-6.1,6c0,3.4,2.8,6,6.2,5.9
		C4.9,181.8,7.6,179.2,7.6,176z"/>
	<path id="XMLID_797_" d="M34.4,227.9c4,0.1,6.7,3.2,6.6,6.5c-0.1,3.6-3.4,7-6.9,6.8c-3.1-0.1-6.6-3.5-6.4-7.4
		C27.9,230.6,30.9,227.8,34.4,227.9z M28.3,234.4c0,3.2,2.6,5.9,5.9,5.9s6.1-2.6,6.2-5.8s-2.7-6.1-6.2-6
		C31.1,228.5,28.4,230.9,28.3,234.4z"/>
</g>
<g>
	<path d="M-42,268.1h6.2v1.9h-3.9v2.3h3.6v1.9h-3.6v4H-42V268.1z"/>
	<path d="M-31.8,268.1v10.1h-2.3v-10.1H-31.8z"/>
	<path d="M-29.8,268.3c0.8-0.1,1.9-0.2,3.1-0.2c1.9,0,3.2,0.3,4.1,1.1c1,0.8,1.7,2,1.7,3.8c0,1.9-0.7,3.3-1.7,4.1
		c-1.1,0.9-2.7,1.3-4.6,1.3c-1.2,0-2-0.1-2.6-0.1V268.3z M-27.5,276.5c0.2,0,0.5,0,0.8,0c2.1,0,3.4-1.1,3.4-3.5
		c0-2.1-1.2-3.2-3.2-3.2c-0.5,0-0.8,0-1,0.1V276.5z"/>
	<path d="M-11,277.7c-0.7,0.2-2,0.6-3.4,0.6c-1.8,0-3.2-0.5-4.1-1.4c-0.9-0.9-1.4-2.2-1.4-3.7c0-3.3,2.4-5.3,5.8-5.3
		c1.3,0,2.3,0.3,2.8,0.5l-0.5,1.8c-0.6-0.2-1.2-0.4-2.3-0.4c-1.9,0-3.3,1.1-3.3,3.3c0,2.1,1.3,3.3,3.2,3.3c0.5,0,0.9-0.1,1.1-0.1
		v-2.1h-1.6v-1.8h3.7V277.7z"/>
	<path d="M-3.2,273.9h-3.7v2.4h4.1v1.9h-6.4v-10.1H-3v1.9h-3.9v2.1h3.7V273.9z"/>
	<path d="M0.8,270h-2.7v-1.9h7.7v1.9H3v8.2H0.8V270z"/>
	<path d="M17.4,277.9c-0.4,0.2-1.4,0.4-2.6,0.4c-3.5,0-5.3-2.2-5.3-5c0-3.4,2.5-5.3,5.5-5.3c1.2,0,2.1,0.2,2.5,0.4l-0.5,1.8
		c-0.5-0.2-1.1-0.4-1.9-0.4c-1.8,0-3.2,1.1-3.2,3.3c0,2,1.2,3.3,3.2,3.3c0.7,0,1.4-0.1,1.9-0.3L17.4,277.9z"/>
	<path d="M21.2,268.1v5.8c0,1.7,0.7,2.6,1.8,2.6c1.2,0,1.9-0.8,1.9-2.6v-5.8h2.3v5.6c0,3.1-1.6,4.6-4.2,4.6c-2.5,0-4-1.4-4-4.6v-5.6
		H21.2z"/>
	<path d="M29.1,268.3c0.6-0.1,1.8-0.2,2.9-0.2c1.4,0,2.2,0.1,3,0.6c0.7,0.4,1.2,1.1,1.2,2c0,0.9-0.5,1.7-1.7,2.2v0
		c1.2,0.3,2,1.2,2,2.5c0,0.9-0.4,1.6-1,2.1c-0.7,0.6-2,0.9-4,0.9c-1.1,0-2-0.1-2.5-0.1V268.3z M31.4,272.1h0.7
		c1.2,0,1.8-0.5,1.8-1.2c0-0.8-0.6-1.2-1.6-1.2c-0.5,0-0.8,0-1,0.1V272.1z M31.4,276.6c0.2,0,0.5,0,0.9,0c1,0,1.9-0.4,1.9-1.4
		c0-1-0.9-1.4-2-1.4h-0.8V276.6z"/>
	<path d="M44.1,273.9h-3.7v2.4h4.1v1.9h-6.4v-10.1h6.2v1.9h-3.9v2.1h3.7V273.9z"/>
</g>
</svg>
