<?xml version="1.0" encoding="utf-8"?>
<!-- Generator: Adobe Illustrator 19.0.0, SVG Export Plug-In . SVG Version: 6.00 Build 0)  -->
<svg version="1.1" id="Layer_1" xmlns="http://www.w3.org/2000/svg" xmlns:xlink="http://www.w3.org/1999/xlink" x="0px" y="0px"
	 viewBox="0 0 144 144" style="enable-background:new 0 0 144 144;" xml:space="preserve">
<g id="XMLID_796_">
	<path id="XMLID_818_" d="M16.5,100c-0.1-11.8,8.8-22.1,21.8-22.2c4.8,0,9-1.5,12.4-5c4.6-4.7,5.7-10.2,3.7-16.4
		c-0.5-1.7-1.5-3.3-2.2-4.9c-1.8-4.3-2.1-8.7-1.2-13.2c1-5.4,3.7-9.9,8.1-13.2c5.4-4,11.4-5.5,18-4.2c5.1,1,9.4,3.5,12.6,7.5
		c2.7,3.3,4.4,7.1,5,11.4c0.4,3.3,0.4,6.6-0.7,9.8C93.1,52,92,54,91,56.1c-1.6,3.3-2,6.7-1.2,10.3c0.3,1.6,0.9,3.2,1.6,4.6
		c0.5,1,1.3,2,2.2,2.8c1.2,1.1,2.6,2,4,2.9c2.4,1.5,5.2,2.2,8.1,2.3c3.5,0.1,6.8,0.9,9.9,2.5c3.8,2,6.7,4.9,8.9,8.6
		c2.9,4.9,3.9,10.2,2.7,15.7c-1.3,5.9-4.4,10.7-9.6,14c-5.9,3.8-12.3,4.6-19,2.5c-5.3-1.7-9.4-4.9-12.2-9.7
		c-2.4-4.1-5.7-6.9-10.2-8.1c-4.7-1.3-9.2-0.6-13.4,2c-2.4,1.5-4.2,3.5-5.7,5.9c-3.2,4.9-7.7,7.9-13.4,9.3
		c-10.2,2.4-20.8-3.1-25.2-12.5C17,106.1,16.4,103.1,16.5,100z M37.9,85.1c-8.5-0.1-15.5,6.7-15.6,15.1c-0.1,8.9,7,16.3,15.8,16.4
		c8.6,0.1,15.7-6.7,15.8-15.1C54.1,92.4,47,85.2,37.9,85.1z M72.2,27.8c-9.2,0-15.6,7.4-15.7,15.3c-0.1,9.3,6.9,16.2,16.3,16.2
		c8.3,0,15.7-6.9,15.5-16.2C88.1,34.4,81,27.9,72.2,27.8z M121.2,102.3c0.1-8.8-6.9-15.8-16.1-15.8c-8.7,0-15.8,7-15.7,16
		c0.2,8.6,7.2,15.3,16,15.4C114,117.8,121.1,110.9,121.2,102.3z M58.2,29.6c-1.8,0.9-4.6,5.9-4,6.9c0.1,0,0.1-0.1,0.2-0.1
		c0.9-2.2,2.1-4.2,3.6-6.1C58.1,30.2,58.1,30,58.2,29.6z M58.3,73.9c1.1-1.2,2.2-2.4,3.2-3.6C60.2,71.2,59,72.3,58.3,73.9z M51.2,76
		c0.8,0.2,1,0.1,0.9-0.7C51.8,75.5,51.6,75.7,51.2,76z"/>
	<path id="XMLID_813_" d="M38.2,115.1c-8.3,0.1-14.6-6.8-14.6-14.5c0-7.8,6.4-14,14.2-14c8.2,0,14.7,6.4,14.7,14.4
		C52.5,109,46,115.1,38.2,115.1z M29.8,100.7c0.1,4.7,3.8,8.5,8.4,8.4c4.5-0.1,8.1-3.7,8.1-8c0-4.9-3.9-8.5-8.7-8.4
		C33.4,92.8,29.8,96.4,29.8,100.7z"/>
	<path id="XMLID_810_" d="M72.4,58.1c-8,0-14.6-6.5-14.6-14.5c0-8,6.4-14.4,14.6-14.4c8,0,14.5,6.3,14.6,14.1
		C87.1,51.4,80.3,58.2,72.4,58.1z M72.5,51.8c4.7-0.1,8.4-3.8,8.2-8.7c-0.2-4.6-4.2-7.8-8.4-7.8c-4.8,0-8.4,3.7-8.2,8.6
		C64.3,48.2,67.7,51.8,72.5,51.8z"/>
	<path id="XMLID_806_" d="M90.7,102c-0.1-7.7,6.4-14.1,14.2-14.2c8.3-0.1,14.8,6.4,14.9,14.3c0.2,7.9-6.6,14.6-14.6,14.6
		C97.6,116.6,90.5,110,90.7,102z M113.6,102.2c0-4.2-3.2-8.3-8.6-8.1c-4.7,0.2-7.8,3.6-7.9,7.6c-0.2,5.1,3.9,8.5,8.2,8.5
		C109.9,110.3,113.6,106.6,113.6,102.2z"/>
	<path id="XMLID_803_" d="M31.7,100.1c0.1-3.3,2.9-5.9,6.4-5.8c3.7,0.1,6.5,3,6.4,6.6c-0.1,3.4-3.2,6.2-6.7,6.2
		C34,107.2,31.4,103.3,31.7,100.1z M44.2,100.8c0-3.3-2.7-6-5.9-6c-3.6,0-6.2,2.5-6.2,5.9c0,3.3,2.8,5.9,6.1,5.9
		C41.5,106.6,44.2,104,44.2,100.8z"/>
	<path id="XMLID_800_" d="M72.2,49.9c-3.6,0-6.3-2.8-6.2-6.6c0-3.5,2.7-6.2,6.2-6.2c3.6,0,6.6,2.9,6.6,6.3
		C78.8,47,75.9,49.9,72.2,49.9z M78.6,43.6c0-3.4-2.7-6.1-6-6.1c-3.5,0-6.1,2.6-6.1,6c0,3.4,2.8,6,6.2,5.9
		C75.9,49.4,78.6,46.8,78.6,43.6z"/>
	<path id="XMLID_797_" d="M105.4,95.5c4,0.1,6.7,3.2,6.6,6.5c-0.1,3.6-3.4,7-6.9,6.8c-3.1-0.1-6.6-3.5-6.4-7.4
		C98.9,98.2,101.9,95.4,105.4,95.5z M99.3,102c0,3.2,2.6,5.9,5.9,5.9c3.3,0,6.1-2.6,6.2-5.8c0.1-3.2-2.7-6.1-6.2-6
		C102.1,96.1,99.4,98.5,99.3,102z"/>
</g>
</svg>
