<?xml version="1.0" encoding="utf-8"?>
<!-- Generator: Adobe Illustrator 19.0.0, SVG Export Plug-In . SVG Version: 6.00 Build 0)  -->
<svg version="1.1" id="Layer_1" xmlns="http://www.w3.org/2000/svg" xmlns:xlink="http://www.w3.org/1999/xlink" x="0px" y="0px"
	 viewBox="-417 141 512 512" style="enable-background:new -417 141 512 512;" xml:space="preserve">
<style type="text/css">
	.st0{fill-rule:evenodd;clip-rule:evenodd;fill:#BD2F32;}
	.st1{fill:#FFFFFF;}
</style>
<g id="XMLID_29_">
	<rect id="XMLID_28_" x="-417" y="141" class="st0" width="512" height="512"/>
	<g id="XMLID_30_">
		<rect id="XMLID_31_" x="-344.7" y="580.2" class="st1" width="367.3" height="2.1"/>
	</g>
</g>
<g id="XMLID_796_">
	<path id="XMLID_818_" class="st1" d="M-344.6,452.6c-0.3-39,29.1-73,72-73.3c15.9,0,29.7-5,41-16.5c15.2-15.5,18.8-33.7,12.2-54.2
		c-1.7-5.6-5-10.9-7.3-16.2c-5.9-14.2-6.9-28.7-4-43.6c3.3-17.8,12.2-32.7,26.8-43.6c17.8-13.2,37.7-18.2,59.5-13.9
		c16.8,3.3,31,11.6,41.6,24.8c8.9,10.9,14.5,23.5,16.5,37.7c1.3,10.9,1.3,21.8-2.3,32.4c-3,7.9-6.6,14.5-9.9,21.5
		c-5.3,10.9-6.6,22.1-4,34c1,5.3,3,10.6,5.3,15.2c1.7,3.3,4.3,6.6,7.3,9.2c4,3.6,8.6,6.6,13.2,9.6c7.9,5,17.2,7.3,26.8,7.6
		c11.6,0.3,22.5,3,32.7,8.3c12.6,6.6,22.1,16.2,29.4,28.4c9.6,16.2,12.9,33.7,8.9,51.9c-4.3,19.5-14.5,35.3-31.7,46.2
		c-19.5,12.6-40.6,15.2-62.8,8.3c-17.5-5.6-31-16.2-40.3-32c-7.9-13.5-18.8-22.8-33.7-26.8c-15.5-4.3-30.4-2-44.3,6.6
		c-7.9,5-13.9,11.6-18.8,19.5c-10.6,16.2-25.4,26.1-44.3,30.7c-33.7,7.9-68.7-10.2-83.2-41.3C-343,472.8-345,462.9-344.6,452.6z
		 M-273.9,403.4c-28.1-0.3-51.2,22.1-51.5,49.9c-0.3,29.4,23.1,53.8,52.2,54.2c28.4,0.3,51.9-22.1,52.2-49.9
		C-220.4,427.5-243.9,403.7-273.9,403.4z M-160.6,214.1c-30.4,0-51.5,24.4-51.9,50.5c-0.3,30.7,22.8,53.5,53.8,53.5
		c27.4,0,51.9-22.8,51.2-53.5C-108.1,235.9-131.6,214.5-160.6,214.1z M1.2,460.2C1.5,431.2-21.6,408-52,408
		c-28.7,0-52.2,23.1-51.9,52.8c0.7,28.4,23.8,50.5,52.8,50.9C-22.6,511.4,0.9,488.6,1.2,460.2z M-206.9,220.1
		c-5.9,3-15.2,19.5-13.2,22.8c0.3,0,0.3-0.3,0.7-0.3c3-7.3,6.9-13.9,11.9-20.1C-207.2,222.1-207.2,221.4-206.9,220.1z M-206.6,366.4
		c3.6-4,7.3-7.9,10.6-11.9C-200.3,357.5-204.2,361.1-206.6,366.4z M-230,373.4c2.6,0.7,3.3,0.3,3-2.3
		C-228,371.7-228.7,372.4-230,373.4z"/>
	<path id="XMLID_813_" class="st1" d="M-273,502.5c-27.4,0.3-48.2-22.5-48.2-47.9c0-25.8,21.1-46.2,46.9-46.2
		c27.1,0,48.6,21.1,48.6,47.6S-247.2,502.5-273,502.5z M-300.7,454.9c0.3,15.5,12.6,28.1,27.7,27.7c14.9-0.3,26.8-12.2,26.8-26.4
		c0-16.2-12.9-28.1-28.7-27.7C-288.8,428.9-300.7,440.7-300.7,454.9z"/>
	<path id="XMLID_810_" class="st1" d="M-160,314.2c-26.4,0-48.2-21.5-48.2-47.9c0-26.4,21.1-47.6,48.2-47.6
		c26.4,0,47.9,20.8,48.2,46.6C-111.4,292.1-133.9,314.6-160,314.2z M-159.7,293.4c15.5-0.3,27.7-12.6,27.1-28.7
		c-0.7-15.2-13.9-25.8-27.7-25.8c-15.9,0-27.7,12.2-27.1,28.4C-186.7,281.5-175.5,293.4-159.7,293.4z"/>
	<path id="XMLID_806_" class="st1" d="M-99.5,459.2c-0.3-25.4,21.1-46.6,46.9-46.9c27.4-0.3,48.9,21.1,49.2,47.2
		c0.7,26.1-21.8,48.2-48.2,48.2C-76.7,507.5-100.2,485.7-99.5,459.2z M-23.9,459.9c0-13.9-10.6-27.4-28.4-26.8
		c-15.5,0.7-25.8,11.9-26.1,25.1c-0.7,16.8,12.9,28.1,27.1,28.1C-36.1,486.7-23.9,474.4-23.9,459.9z"/>
	<path id="XMLID_803_" class="st1" d="M-294.4,453c0.3-10.9,9.6-19.5,21.1-19.2c12.2,0.3,21.5,9.9,21.1,21.8
		c-0.3,11.2-10.6,20.5-22.1,20.5C-286.8,476.4-295.4,463.5-294.4,453z M-253.1,455.3c0-10.9-8.9-19.8-19.5-19.8
		c-11.9,0-20.5,8.3-20.5,19.5c0,10.9,9.2,19.5,20.1,19.5C-262.1,474.4-253.1,465.8-253.1,455.3z"/>
	<path id="XMLID_800_" class="st1" d="M-160.6,287.1c-11.9,0-20.8-9.2-20.5-21.8c0-11.6,8.9-20.5,20.5-20.5
		c11.9,0,21.8,9.6,21.8,20.8C-138.8,277.6-148.4,287.1-160.6,287.1z M-139.5,266.3c0-11.2-8.9-20.1-19.8-20.1
		c-11.6,0-20.1,8.6-20.1,19.8c0,11.2,9.2,19.8,20.5,19.5C-148.4,285.5-139.5,276.9-139.5,266.3z"/>
	<path id="XMLID_797_" class="st1" d="M-51,437.8c13.2,0.3,22.1,10.6,21.8,21.5c-0.3,11.9-11.2,23.1-22.8,22.5
		c-10.2-0.3-21.8-11.6-21.1-24.4C-72.5,446.7-62.5,437.4-51,437.8z M-71.1,459.2c0,10.6,8.6,19.5,19.5,19.5s20.1-8.6,20.5-19.2
		c0.3-10.6-8.9-20.1-20.5-19.8C-61.9,439.8-70.8,447.7-71.1,459.2z"/>
</g>
<g>
	<path d="M-334,599.6h24.8v7.6h-15.6v9.2h14.4v7.6h-14.4v16h-9.2V599.6z"/>
	<path d="M-293.2,599.6V640h-9.2v-40.4H-293.2z"/>
	<path d="M-285.2,600.4c3.2-0.4,7.6-0.8,12.4-0.8c7.6,0,12.8,1.2,16.4,4.4c4,3.2,6.8,8,6.8,15.2c0,7.6-2.8,13.2-6.8,16.4
		c-4.4,3.6-10.8,5.2-18.4,5.2c-4.8,0-8-0.4-10.4-0.4V600.4z M-276,633.2c0.8,0,2,0,3.2,0c8.4,0,13.6-4.4,13.6-14
		c0-8.4-4.8-12.8-12.8-12.8c-2,0-3.2,0-4,0.4C-276,606.8-276,633.2-276,633.2z"/>
	<path d="M-210,638c-2.8,0.8-8,2.4-13.6,2.4c-7.2,0-12.8-2-16.4-5.6c-3.6-3.6-5.6-8.8-5.6-14.8c0-13.2,9.6-21.2,23.2-21.2
		c5.2,0,9.2,1.2,11.2,2l-2,7.2c-2.4-0.8-4.8-1.6-9.2-1.6c-7.6,0-13.2,4.4-13.2,13.2c0,8.4,5.2,13.2,12.8,13.2c2,0,3.6-0.4,4.4-0.4
		V624h-6.4v-7.2h14.8V638z"/>
	<path d="M-178.8,622.8h-14.8v9.6h16.4v7.6h-25.6v-40.4h24.8v7.6h-15.6v8.4h14.8V622.8z"/>
	<path d="M-162.8,607.2h-10.8v-7.6h30.8v7.6H-154V640h-8.8V607.2z"/>
	<path d="M-96.4,638.8c-1.6,0.8-5.6,1.6-10.4,1.6c-14,0-21.2-8.8-21.2-20c0-13.6,10-21.2,22-21.2c4.8,0,8.4,0.8,10,1.6l-2,7.2
		c-2-0.8-4.4-1.6-7.6-1.6c-7.2,0-12.8,4.4-12.8,13.2c0,8,4.8,13.2,12.8,13.2c2.8,0,5.6-0.4,7.6-1.2L-96.4,638.8z"/>
	<path d="M-81.2,599.6v23.2c0,6.8,2.8,10.4,7.2,10.4c4.8,0,7.6-3.2,7.6-10.4v-23.2h9.2V622c0,12.4-6.4,18.4-16.8,18.4
		c-10,0-16-5.6-16-18.4v-22.4H-81.2z"/>
	<path d="M-49.6,600.4c2.4-0.4,7.2-0.8,11.6-0.8c5.6,0,8.8,0.4,12,2.4c2.8,1.6,4.8,4.4,4.8,8s-2,6.8-6.8,8.8l0,0c4.8,1.2,8,4.8,8,10
		c0,3.6-1.6,6.4-4,8.4c-2.8,2.4-8,3.6-16,3.6c-4.4,0-8-0.4-10-0.4v-40H-49.6z M-40.4,615.6h2.8c4.8,0,7.2-2,7.2-4.8
		c0-3.2-2.4-4.8-6.4-4.8c-2,0-3.2,0-4,0.4v9.2H-40.4z M-40.4,633.6c0.8,0,2,0,3.6,0c4,0,7.6-1.6,7.6-5.6s-3.6-5.6-8-5.6h-3.2
		C-40.4,622.4-40.4,633.6-40.4,633.6z"/>
	<path d="M10.4,622.8H-4.4v9.6H12v7.6h-25.6v-40.4h24.8v7.6H-4.4v8.4h14.8C10.4,615.6,10.4,622.8,10.4,622.8z"/>
</g>
<g>
	<path class="st1" d="M-339.7,599.6h24.8v7.6h-15.6v9.2h14.4v7.6h-14.4v16h-9.2V599.6z"/>
	<path class="st1" d="M-298.9,599.6V640h-9.2v-40.4H-298.9z"/>
	<path class="st1" d="M-290.9,600.4c3.2-0.4,7.6-0.8,12.4-0.8c7.6,0,12.8,1.2,16.4,4.4c4,3.2,6.8,8,6.8,15.2
		c0,7.6-2.8,13.2-6.8,16.4c-4.4,3.6-10.8,5.2-18.4,5.2c-4.8,0-8-0.4-10.4-0.4V600.4z M-281.7,633.2c0.8,0,2,0,3.2,0
		c8.4,0,13.6-4.4,13.6-14c0-8.4-4.8-12.8-12.8-12.8c-2,0-3.2,0-4,0.4C-281.7,606.8-281.7,633.2-281.7,633.2z"/>
	<path class="st1" d="M-215.7,638c-2.8,0.8-8,2.4-13.6,2.4c-7.2,0-12.8-2-16.4-5.6c-3.6-3.6-5.6-8.8-5.6-14.8
		c0-13.2,9.6-21.2,23.2-21.2c5.2,0,9.2,1.2,11.2,2l-2,7.2c-2.4-0.8-4.8-1.6-9.2-1.6c-7.6,0-13.2,4.4-13.2,13.2
		c0,8.4,5.2,13.2,12.8,13.2c2,0,3.6-0.4,4.4-0.4V624h-6.4v-7.2h14.8V638z"/>
	<path class="st1" d="M-184.5,622.8h-14.8v9.6h16.4v7.6h-25.6v-40.4h24.8v7.6h-15.6v8.4h14.8V622.8z"/>
	<path class="st1" d="M-168.5,607.2h-10.8v-7.6h30.8v7.6h-11.2V640h-8.8V607.2z"/>
	<path class="st1" d="M-102.1,638.8c-1.6,0.8-5.6,1.6-10.4,1.6c-14,0-21.2-8.8-21.2-20c0-13.6,10-21.2,22-21.2c4.8,0,8.4,0.8,10,1.6
		l-2,7.2c-2-0.8-4.4-1.6-7.6-1.6c-7.2,0-12.8,4.4-12.8,13.2c0,8,4.8,13.2,12.8,13.2c2.8,0,5.6-0.4,7.6-1.2L-102.1,638.8z"/>
	<path class="st1" d="M-86.9,599.6v23.2c0,6.8,2.8,10.4,7.2,10.4c4.8,0,7.6-3.2,7.6-10.4v-23.2h9.2V622c0,12.4-6.4,18.4-16.8,18.4
		c-10,0-16-5.6-16-18.4v-22.4H-86.9z"/>
	<path class="st1" d="M-55.3,600.4c2.4-0.4,7.2-0.8,11.6-0.8c5.6,0,8.8,0.4,12,2.4c2.8,1.6,4.8,4.4,4.8,8s-2,6.8-6.8,8.8l0,0
		c4.8,1.2,8,4.8,8,10c0,3.6-1.6,6.4-4,8.4c-2.8,2.4-8,3.6-16,3.6c-4.4,0-8-0.4-10-0.4v-40H-55.3z M-46.1,615.6h2.8
		c4.8,0,7.2-2,7.2-4.8c0-3.2-2.4-4.8-6.4-4.8c-2,0-3.2,0-4,0.4v9.2H-46.1z M-46.1,633.6c0.8,0,2,0,3.6,0c4,0,7.6-1.6,7.6-5.6
		s-3.6-5.6-8-5.6h-3.2C-46.1,622.4-46.1,633.6-46.1,633.6z"/>
	<path class="st1" d="M4.7,622.8h-14.8v9.6H6.3v7.6h-25.6v-40.4H5.5v7.6h-15.6v8.4H4.7C4.7,615.6,4.7,622.8,4.7,622.8z"/>
</g>
</svg>
