<?xml version="1.0" encoding="utf-8"?>
<!-- Generator: Adobe Illustrator 19.0.0, SVG Export Plug-In . SVG Version: 6.00 Build 0)  -->
<svg version="1.1" id="Layer_1" xmlns="http://www.w3.org/2000/svg" xmlns:xlink="http://www.w3.org/1999/xlink" x="0px" y="0px"
	 viewBox="-71 145 144 144" style="enable-background:new -71 145 144 144;" xml:space="preserve">
<g id="XMLID_849_">
	<path id="XMLID_867_" d="M38.4,206.3c0,8.5-0.1,17,0,25.5c0.2,9-6.3,16.1-14.3,16.1c-0.5,0-1.4,0.8-1.6,1.4
		c-0.9,2.3-1.6,4.7-2.3,7.1c-0.4,1.3-1,1.8-2.5,1.8c-11.2-0.1-22.5-0.1-33.7,0c-1.4,0-2.1-0.5-2.4-1.8c-0.7-2.4-1.4-4.8-2.3-7.1
		c-0.2-0.6-1.1-1.3-1.6-1.3c-7.7,0-14.3-7.2-14.2-16c0.1-13.7,0-27.3,0-41c0-3.4,0.1-6.8,0-10.2c-0.2-7,4.9-15.1,14.1-15.4
		c0.6,0,1.5-0.8,1.8-1.5c0.9-2.3,1.6-4.7,2.3-7.1c0.4-1.2,1-1.7,2.3-1.7c11.3,0.1,22.7,0.1,34,0c1.3,0,2,0.4,2.3,1.7
		c0.1,0.6,0.4,1.3,0.6,1.9c1,4,2,7.1,7.4,7.6c5.6,0.5,9.9,6.6,10,12.4C38.5,187.8,38.3,197,38.4,206.3L38.4,206.3z M-27.2,206.3
		c0,8.4,0,16.8,0,25.2c0,4.1,1.9,5.9,6,5.9c14.7,0,29.5,0,44.2,0c4.2,0,6.2-2,6.2-6.1c0-16.6,0-33.2,0-49.7c0-4.4-1.8-6.2-6.2-6.2
		c-14.6,0-29.2,0-43.7,0c-4.6,0-6.4,1.9-6.4,6.6C-27.2,190.2-27.2,198.2-27.2,206.3z"/>
	<path id="XMLID_858_" d="M0.8,227.5c-7.9-6.5-14.9-13.7-16.8-24.4c-0.3-1.7-0.4-3.5-0.1-5.2c1.3-7.1,9-10,14.8-5.7
		c0.8,0.6,1.5,1.3,1.8,1.5c2.6-1.2,4.8-3,7.2-3.4c6.7-1.1,11.8,4.9,10.3,12.2c-0.9,4.1-2.7,8.2-4.7,11.9
		C10.5,219.5,5,224.8,0.8,227.5z"/>
</g>
<g>
	<path d="M-37.3,267.9h4.9v1.5h-3.1v1.8h2.9v1.5h-2.9v3.3h-1.8V267.9z"/>
	<path d="M-29.1,267.9v8.1h-1.8v-8.1H-29.1z"/>
	<path d="M-26,269.5h-2.2v-1.5h6.2v1.5h-2.2v6.5H-26V269.5z"/>
	<path d="M-20.9,276v-8.1h2.1l1.7,3c0.5,0.9,1,1.9,1.3,2.8h0c-0.1-1.1-0.2-2.2-0.2-3.4v-2.4h1.7v8.1h-1.9l-1.7-3.1
		c-0.5-0.9-1-1.9-1.4-2.9l0,0c0,1.1,0.1,2.2,0.1,3.5v2.4H-20.9z"/>
	<path d="M-7.8,272.6h-3v1.9h3.3v1.5h-5.2v-8.1h5v1.5h-3.2v1.7h3V272.6z"/>
	<path d="M-6.2,274.1c0.5,0.3,1.2,0.5,2,0.5c0.8,0,1.3-0.3,1.3-0.9c0-0.5-0.4-0.8-1.4-1.1c-1.3-0.5-2.2-1.2-2.2-2.4
		c0-1.4,1.2-2.4,3.1-2.4c0.9,0,1.6,0.2,2.1,0.4l-0.4,1.5c-0.3-0.2-0.9-0.4-1.7-0.4c-0.8,0-1.2,0.4-1.2,0.8c0,0.5,0.5,0.7,1.5,1.1
		c1.4,0.5,2.1,1.3,2.1,2.4c0,1.4-1,2.5-3.3,2.5c-0.9,0-1.8-0.3-2.3-0.5L-6.2,274.1z"/>
	<path d="M0.3,274.1c0.5,0.3,1.2,0.5,2,0.5c0.8,0,1.3-0.3,1.3-0.9c0-0.5-0.4-0.8-1.4-1.1c-1.3-0.5-2.2-1.2-2.2-2.4
		c0-1.4,1.2-2.4,3.1-2.4c0.9,0,1.6,0.2,2.1,0.4l-0.4,1.5c-0.3-0.2-0.9-0.4-1.7-0.4c-0.8,0-1.2,0.4-1.2,0.8c0,0.5,0.5,0.7,1.5,1.1
		c1.4,0.5,2.1,1.3,2.1,2.4c0,1.4-1,2.5-3.3,2.5c-0.9,0-1.8-0.3-2.3-0.5L0.3,274.1z"/>
	<path d="M9.1,268c0.5-0.1,1.5-0.2,2.4-0.2c1.1,0,1.8,0.1,2.4,0.5c0.6,0.3,1,0.9,1,1.6c0,0.7-0.4,1.4-1.3,1.7v0
		c0.9,0.3,1.6,0.9,1.6,2c0,0.7-0.3,1.3-0.8,1.7c-0.6,0.5-1.6,0.7-3.2,0.7c-0.9,0-1.6-0.1-2-0.1V268z M10.9,271.1h0.6
		c1,0,1.5-0.4,1.5-1c0-0.6-0.5-0.9-1.3-0.9c-0.4,0-0.6,0-0.8,0V271.1z M10.9,274.7c0.2,0,0.4,0,0.7,0c0.8,0,1.6-0.3,1.6-1.2
		c0-0.8-0.7-1.1-1.6-1.1h-0.6V274.7z"/>
	<path d="M18.2,273.9l-0.6,2.1h-1.9l2.5-8.1h2.4l2.5,8.1h-2l-0.6-2.1H18.2z M20.3,272.6l-0.5-1.7c-0.1-0.5-0.3-1.1-0.4-1.6h0
		c-0.1,0.5-0.2,1.1-0.4,1.6l-0.5,1.7H20.3z"/>
	<path d="M24.2,276v-8.1h2.1l1.7,3c0.5,0.9,1,1.9,1.3,2.8h0c-0.1-1.1-0.2-2.2-0.2-3.4v-2.4h1.7v8.1H29l-1.7-3.1
		c-0.5-0.9-1-1.9-1.4-2.9l0,0c0,1.1,0.1,2.2,0.1,3.5v2.4H24.2z"/>
	<path d="M32.5,268c0.7-0.1,1.5-0.2,2.5-0.2c1.5,0,2.5,0.3,3.3,0.9c0.8,0.6,1.4,1.6,1.4,3c0,1.5-0.6,2.6-1.3,3.3
		c-0.9,0.7-2.1,1-3.7,1c-0.9,0-1.6-0.1-2.1-0.1V268z M34.3,274.6c0.2,0,0.4,0,0.6,0c1.7,0,2.7-0.9,2.7-2.8c0-1.7-1-2.6-2.5-2.6
		c-0.4,0-0.7,0-0.8,0.1V274.6z"/>
</g>
</svg>
