<?xml version="1.0" encoding="utf-8"?>
<!-- Generator: Adobe Illustrator 19.0.0, SVG Export Plug-In . SVG Version: 6.00 Build 0)  -->
<svg version="1.1" id="Layer_1" xmlns="http://www.w3.org/2000/svg" xmlns:xlink="http://www.w3.org/1999/xlink" x="0px" y="0px"
	 viewBox="0 0 144 144" style="enable-background:new 0 0 144 144;" xml:space="preserve">
<g id="XMLID_849_">
	<path id="XMLID_867_" d="M109.4,71.8c0,8.5-0.1,17,0,25.5c0.2,9-6.3,16.1-14.3,16.1c-0.5,0-1.4,0.8-1.6,1.4
		c-0.9,2.3-1.6,4.7-2.3,7.1c-0.4,1.3-1,1.8-2.5,1.8c-11.2-0.1-22.5-0.1-33.7,0c-1.4,0-2.1-0.5-2.4-1.8c-0.7-2.4-1.4-4.8-2.3-7.1
		c-0.2-0.6-1.1-1.3-1.6-1.3c-7.7,0-14.3-7.2-14.2-16c0.1-13.7,0-27.3,0-41c0-3.4,0.1-6.8,0-10.2c-0.2-7,4.9-15.1,14.1-15.4
		c0.6,0,1.5-0.8,1.8-1.5c0.9-2.3,1.6-4.7,2.3-7.1c0.4-1.2,1-1.7,2.3-1.7c11.3,0.1,22.7,0.1,34,0c1.3,0,2,0.4,2.3,1.7
		c0.1,0.6,0.4,1.3,0.6,1.9c1,4,2,7.1,7.4,7.6c5.6,0.5,9.9,6.6,10,12.4C109.5,53.3,109.3,62.5,109.4,71.8
		C109.4,71.8,109.4,71.8,109.4,71.8z M43.8,71.8c0,8.4,0,16.8,0,25.2c0,4.1,1.9,5.9,6,5.9c14.7,0,29.5,0,44.2,0c4.2,0,6.2-2,6.2-6.1
		c0-16.6,0-33.2,0-49.7c0-4.4-1.8-6.2-6.2-6.2c-14.6,0-29.2,0-43.7,0c-4.6,0-6.4,1.9-6.4,6.6C43.8,55.7,43.8,63.7,43.8,71.8z"/>
	<path id="XMLID_858_" d="M71.8,93C63.9,86.5,56.9,79.3,55,68.6c-0.3-1.7-0.4-3.5-0.1-5.2c1.3-7.1,9-10,14.8-5.7
		c0.8,0.6,1.5,1.3,1.8,1.5c2.6-1.2,4.8-3,7.2-3.4c6.7-1.1,11.8,4.9,10.3,12.2c-0.9,4.1-2.7,8.2-4.7,11.9C81.5,85,76,90.3,71.8,93z"
		/>
</g>
</svg>
