<?xml version="1.0" encoding="utf-8"?>
<!-- Generator: Adobe Illustrator 19.0.0, SVG Export Plug-In . SVG Version: 6.00 Build 0)  -->
<svg version="1.1" id="Capa_1" xmlns="http://www.w3.org/2000/svg" xmlns:xlink="http://www.w3.org/1999/xlink" x="0px" y="0px"
	 viewBox="112 -40 512 512" style="enable-background:new 112 -40 512 512;" xml:space="preserve">
<g>
	<g>
		<path d="M541.3,179.3c-16.6-9.5-34.4-21.1-53-34.6c6.3-2.5,10.7-8.7,10.7-15.9V89.5c0-9.4-7.7-17.1-17.1-17.1h-14.2
			c20.3-17,23.8-47.2,7.7-68.4c-16.6-21.9-48-26.2-69.9-9.5C394.3,2.8,377.8,23,368,43.5C358.2,23,341.6,2.7,330.6-5.6
			c-21.9-16.6-53.3-12.4-69.9,9.5c-7.6,10-11.1,22.4-9.9,34.9c0.3,2.9,2.8,5,5.7,4.7c2.9-0.3,5-2.8,4.7-5.7c-0.5-5.1,0-10.2,1.5-15
			c3.7-6,8.3-9.4,14.1-10.4c3.9-0.7,8-0.3,11.9,0.8c-2.8,1.6-5.3,3.7-7.3,6.4c-8,10.5-5.9,25.6,4.6,33.6c5.5,4.2,18.5,10.7,34,15.1
			c5.3,1.5,14.9,3.8,14.8,4H288c-4.6-2.3-8.5-4.7-11.4-6.9c-3.7-2.8-6.8-6.2-9.3-10.1c-1.6-2.4-4.8-3.2-7.3-1.6
			c-2.4,1.6-3.2,4.8-1.6,7.3c2.7,4.2,6.1,8,9.9,11.3h-14.2c-9.4,0-17.1,7.7-17.1,17.1v39.4c0,7.2,4.5,13.3,10.7,15.9
			c-18.6,13.5-36.4,25.1-53,34.6c-5,2.9-7.4,8.3-6.2,14c1.2,5.6,5.7,9.6,11.5,10.2l13,1.3l-6.2,14.7c-2.2,5.2-0.9,11,3.3,14.7
			c2.5,2.2,8.5,5.1,15,1.6c10.7-5.7,21.3-12.5,31.9-19.6v86.6c0,10.6,8.6,19.2,19.2,19.2h183.7c10.6,0,19.2-8.6,19.2-19.2V151
			c20.1,14.7,39.2,27.2,57,37.4c1.3,0.8,1.3,2,1.2,2.6c-0.1,0.5-0.6,1.8-2.2,1.9l-20.1,1.9c-1.7,0.2-3.2,1.1-4,2.5
			c-0.9,1.4-1,3.2-0.3,4.8l9,21.3c0.6,1.4-0.1,2.3-0.6,2.8c-0.5,0.4-1.5,1.1-2.8,0.3c-6.6-3.7-13.4-7.7-20.1-12
			c-2.5-1.5-5.7-0.8-7.3,1.7c-1.5,2.5-0.8,5.7,1.7,7.3c6.9,4.3,13.7,8.7,20.5,12.2c6.5,3.4,12.6,0.6,15-1.6
			c4.2-3.8,5.5-9.5,3.3-14.7l-6.2-14.7l13-1.3c5.7-0.6,10.2-4.6,11.5-10.2C548.7,187.7,546.3,182.2,541.3,179.3z M368,54.5
			c11,0,20.1,7.6,22.5,17.9h-45.1C347.9,62.1,357,54.5,368,54.5z M278.2,1.6c13.6-9.3,32.2-9.4,46.1,1.1
			c9.6,7.3,23.9,24.8,33.1,42.9c-5,1.7-9.5,4.5-13.1,8.1C326.4,12.8,296.4,0.3,278.2,1.6z M322.8,58.2c-13.5-3.9-25.8-9.8-30.5-13.4
			c-5.9-4.5-7.1-12.9-2.6-18.9c2.6-3.5,6.7-5.3,10.7-5.3c2.8,0,5.7,0.9,8.1,2.7c4.7,3.6,13.7,13.9,21.1,25.8
			c2.6,4.2,4.7,8.2,6.4,11.9C332,60.6,327.6,59.6,322.8,58.2z M257,203.6c-12.4,8.4-24.8,16.2-37.1,23.1c-1.3,0.7-2.4,0.1-2.8-0.3
			c-0.5-0.4-1.2-1.4-0.6-2.8l9-21.3c0.7-1.5,0.5-3.3-0.3-4.8c-0.9-1.4-2.4-2.4-4-2.5L201,193c-1.6-0.2-2.1-1.4-2.2-1.9
			c-0.1-0.6-0.2-1.8,1.2-2.6c17.8-10.2,37-22.8,57-37.4L257,203.6L257,203.6z M254.1,135.4c-3.6,0-6.6-2.9-6.6-6.6V89.5h0
			c0-3.6,2.9-6.6,6.6-6.6h80.2v52.5L254.1,135.4L254.1,135.4z M391.1,311.5h-46.3v-26c0-2.9-2.4-5.3-5.3-5.3c-2.9,0-5.3,2.4-5.3,5.3
			v26h-58.1c-4.8,0-8.7-3.9-8.7-8.7V145.9h66.8v116.9c0,2.9,2.4,5.3,5.3,5.3c2.9,0,5.3-2.4,5.3-5.3V145.9h46.3L391.1,311.5
			L391.1,311.5z M391.1,135.4h-46.3V82.9h46.3V135.4z M378.7,45.7c9.1-18,23.7-35.8,33.1-42.9c13.8-10.5,32.5-10.4,46.1-1.1
			c-18.3-1.3-45.1,5.2-66,52.2C388.2,50.2,383.7,47.4,378.7,45.7z M406.4,49.2c7.3-11.9,16.3-22.2,21.1-25.8
			c2.4-1.8,5.3-2.7,8.1-2.7c4.1,0,8.1,1.8,10.7,5.3c4.5,5.9,3.3,14.4-2.6,18.9c-4.7,3.6-17.1,9.5-30.5,13.4c-5.3,1.5-9.7,2.4-13.2,3
			C401.6,57.4,403.8,53.4,406.4,49.2z M416.1,68.3c15.6-4.5,28.5-11,34-15.1c5.1-3.9,8.4-9.5,9.2-15.9c0.9-6.4-0.8-12.7-4.7-17.8
			c-2-2.6-4.5-4.8-7.3-6.4c3.9-1,8-1.5,11.8-0.8c5.8,1,10.4,4.4,14.1,10.4c4.6,15.3-0.5,32.4-13.9,42.6c-2.9,2.2-6.8,4.6-11.4,6.9
			h-46.7C401.2,72.1,410.7,69.9,416.1,68.3z M468.5,302.8c0,4.8-3.9,8.7-8.7,8.7h-58.1V145.9h66.8L468.5,302.8L468.5,302.8z
			 M481.9,135.4h-80.2V82.9h51.6h2.8h25.9v0c3.6,0,6.6,2.9,6.6,6.6v39.4C488.5,132.4,485.5,135.4,481.9,135.4z"/>
	</g>
</g>
<g>
	<path d="M264.1,422.9c-3.7,1.3-10.8,3-17.9,3c-9.8,0-16.9-2.5-21.8-7.2c-4.9-4.6-7.6-11.6-7.6-19.5c0.1-17.8,13-28,30.6-28
		c6.9,0,12.2,1.4,14.9,2.6l-2.5,9.7c-2.9-1.3-6.6-2.3-12.5-2.3c-10.1,0-17.7,5.7-17.7,17.3c0,11.1,6.9,17.6,16.9,17.6
		c2.8,0,5-0.3,6-0.8v-11.2h-8.3v-9.5h20V422.9z"/>
	<path d="M285.8,371.8v53.6h-12.2v-53.6H285.8z"/>
	<path d="M296.3,371.8H329v9.9h-20.6V394h19.2v9.9h-19.2v21.5h-12.2V371.8z"/>
	<path d="M348.5,382h-14.4v-10.2h41.2V382h-14.6v43.4h-12.2V382z"/>
	<path d="M398.2,412.9c3.3,1.7,8.3,3.3,13.4,3.3c5.6,0,8.5-2.3,8.5-5.8c0-3.3-2.5-5.2-9-7.6c-8.9-3.1-14.7-8-14.7-15.8
		c0-9.1,7.6-16.1,20.3-16.1c6,0,10.5,1.3,13.7,2.7l-2.7,9.8c-2.1-1-6-2.5-11.2-2.5s-7.8,2.4-7.8,5.2c0,3.4,3,4.9,9.9,7.6
		c9.5,3.5,13.9,8.4,13.9,16c0,9-6.9,16.7-21.6,16.7c-6.1,0-12.2-1.7-15.2-3.3L398.2,412.9z"/>
	<path d="M472.6,402.7h-19.7v12.7h22v9.9h-34.2v-53.6h33.1v9.9h-20.9v11.1h19.7V402.7z"/>
	<path d="M493.9,382h-14.4v-10.2h41.2V382H506v43.4h-12.2V382z"/>
</g>
</svg>
