<?xml version="1.0" encoding="utf-8"?>
<!-- Generator: Adobe Illustrator 19.0.0, SVG Export Plug-In . SVG Version: 6.00 Build 0)  -->
<svg version="1.1" id="Capa_1" xmlns="http://www.w3.org/2000/svg" xmlns:xlink="http://www.w3.org/1999/xlink" x="0px" y="0px"
	 viewBox="-49 141 512 512" style="enable-background:new -49 141 512 512;" xml:space="preserve">
<style type="text/css">
	.st0{fill-rule:evenodd;clip-rule:evenodd;fill:#BD2F32;}
	.st1{fill:#FFFFFF;}
</style>
<g id="XMLID_29_">
	<rect id="XMLID_28_" x="-49" y="141" class="st0" width="512" height="512"/>
	<g id="XMLID_30_">
		<rect id="XMLID_31_" x="23.3" y="580.2" class="st1" width="367.3" height="2.1"/>
	</g>
</g>
<g>
	<path class="st1" d="M380.2,387.9c-16.6-9.5-34.4-21.1-53-34.6c6.3-2.5,10.7-8.7,10.7-15.9v-39.3c0-9.4-7.7-17.1-17.1-17.1h-14.2
		c20.3-17,23.8-47.2,7.7-68.4c-16.6-21.9-48-26.2-69.9-9.5c-11.2,8.3-27.7,28.5-37.5,49c-9.8-20.5-26.4-40.8-37.4-49.1
		c-21.9-16.6-53.3-12.4-69.9,9.5c-7.6,10-11.1,22.4-9.9,34.9c0.3,2.9,2.8,5,5.7,4.7c2.9-0.3,5-2.8,4.7-5.7c-0.5-5.1,0-10.2,1.5-15
		c3.7-6,8.3-9.4,14.1-10.4c3.9-0.7,8-0.3,11.9,0.8c-2.8,1.6-5.3,3.7-7.3,6.4c-8,10.5-5.9,25.6,4.6,33.6c5.5,4.2,18.5,10.7,34,15.1
		c5.3,1.5,14.9,3.8,14.8,4h-46.8c-4.6-2.3-8.5-4.7-11.4-6.9c-3.7-2.8-6.8-6.2-9.3-10.1c-1.6-2.4-4.8-3.2-7.3-1.6
		c-2.4,1.6-3.2,4.8-1.6,7.3c2.7,4.2,6.1,8,9.9,11.3H93c-9.4,0-17.1,7.7-17.1,17.1v39.4c0,7.2,4.5,13.3,10.7,15.9
		c-18.6,13.5-36.4,25.1-53,34.6c-5,2.9-7.4,8.3-6.2,14c1.2,5.6,5.7,9.6,11.5,10.2l13,1.3l-6.2,14.7c-2.2,5.2-0.9,11,3.3,14.7
		c2.5,2.2,8.5,5.1,15,1.6c10.7-5.7,21.3-12.5,31.9-19.6v86.6c0,10.6,8.6,19.2,19.2,19.2h183.7c10.6,0,19.2-8.6,19.2-19.2V359.6
		c20.1,14.7,39.2,27.2,57,37.4c1.3,0.8,1.3,2,1.2,2.6c-0.1,0.5-0.6,1.8-2.2,1.9l-20.1,1.9c-1.7,0.2-3.2,1.1-4,2.5
		c-0.9,1.4-1,3.2-0.3,4.8l9,21.3c0.6,1.4-0.1,2.3-0.6,2.8c-0.5,0.4-1.5,1.1-2.8,0.3c-6.6-3.7-13.4-7.7-20.1-12
		c-2.5-1.5-5.7-0.8-7.3,1.7c-1.5,2.5-0.8,5.7,1.7,7.3c6.9,4.3,13.7,8.7,20.5,12.2c6.5,3.4,12.6,0.6,15-1.6c4.2-3.8,5.5-9.5,3.3-14.7
		l-6.2-14.7l13-1.3c5.7-0.6,10.2-4.6,11.5-10.2C387.6,396.3,385.2,390.8,380.2,387.9z M206.9,263.1c11,0,20.1,7.6,22.5,17.9h-45.1
		C186.8,270.7,195.9,263.1,206.9,263.1z M117.1,210.2c13.6-9.3,32.2-9.4,46.1,1.1c9.6,7.3,23.9,24.8,33.1,42.9
		c-5,1.7-9.5,4.5-13.1,8.1C165.3,221.4,135.3,208.9,117.1,210.2z M161.7,266.8c-13.5-3.9-25.8-9.8-30.5-13.4
		c-5.9-4.5-7.1-12.9-2.6-18.9c2.6-3.5,6.7-5.3,10.7-5.3c2.8,0,5.7,0.9,8.1,2.7c4.7,3.6,13.7,13.9,21.1,25.8
		c2.6,4.2,4.7,8.2,6.4,11.9C170.9,269.2,166.5,268.2,161.7,266.8z M95.9,412.2c-12.4,8.4-24.8,16.2-37.1,23.1
		c-1.3,0.7-2.4,0.1-2.8-0.3c-0.5-0.4-1.2-1.4-0.6-2.8l9-21.3c0.7-1.5,0.5-3.3-0.3-4.8c-0.9-1.4-2.4-2.4-4-2.5l-20.2-2
		c-1.6-0.2-2.1-1.4-2.2-1.9c-0.1-0.6-0.2-1.8,1.2-2.6c17.8-10.2,37-22.8,57-37.4V412.2L95.9,412.2z M93,344c-3.6,0-6.6-2.9-6.6-6.6
		v-39.3l0,0c0-3.6,2.9-6.6,6.6-6.6h80.2V344H93L93,344z M230,520.1h-46.3v-26c0-2.9-2.4-5.3-5.3-5.3s-5.3,2.4-5.3,5.3v26H115
		c-4.8,0-8.7-3.9-8.7-8.7V354.5h66.8v116.9c0,2.9,2.4,5.3,5.3,5.3s5.3-2.4,5.3-5.3V354.5H230L230,520.1L230,520.1z M230,344h-46.3
		v-52.5H230V344z M217.6,254.3c9.1-18,23.7-35.8,33.1-42.9c13.8-10.5,32.5-10.4,46.1-1.1c-18.3-1.3-45.1,5.2-66,52.2
		C227.1,258.8,222.6,256,217.6,254.3z M245.3,257.8c7.3-11.9,16.3-22.2,21.1-25.8c2.4-1.8,5.3-2.7,8.1-2.7c4.1,0,8.1,1.8,10.7,5.3
		c4.5,5.9,3.3,14.4-2.6,18.9c-4.7,3.6-17.1,9.5-30.5,13.4c-5.3,1.5-9.7,2.4-13.2,3C240.5,266,242.7,262,245.3,257.8z M255,276.9
		c15.6-4.5,28.5-11,34-15.1c5.1-3.9,8.4-9.5,9.2-15.9c0.9-6.4-0.8-12.7-4.7-17.8c-2-2.6-4.5-4.8-7.3-6.4c3.9-1,8-1.5,11.8-0.8
		c5.8,1,10.4,4.4,14.1,10.4c4.6,15.3-0.5,32.4-13.9,42.6c-2.9,2.2-6.8,4.6-11.4,6.9h-46.7C240.1,280.7,249.6,278.5,255,276.9z
		 M307.4,511.4c0,4.8-3.9,8.7-8.7,8.7h-58.1V354.5h66.8V511.4L307.4,511.4z M320.8,344h-80.2v-52.5h51.6h2.8h25.9l0,0
		c3.6,0,6.6,2.9,6.6,6.6v39.4C327.4,341,324.4,344,320.8,344z"/>
</g>
<g>
	<path d="M121.6,635c-3,1.1-8.8,2.4-14.6,2.4c-8,0-13.8-2-17.8-5.9c-4-3.8-6.2-9.5-6.2-15.9c0.1-14.5,10.6-22.9,25-22.9
		c5.6,0,10,1.1,12.2,2.1l-2,7.9c-2.4-1.1-5.4-1.9-10.2-1.9c-8.2,0-14.4,4.7-14.4,14.1c0,9.1,5.6,14.4,13.8,14.4
		c2.3,0,4.1-0.2,4.9-0.7v-9.1h-6.8v-7.8h16.3L121.6,635L121.6,635z"/>
	<path d="M139.3,593.3V637h-10v-43.7H139.3z"/>
	<path d="M147.9,593.3h26.7v8.1h-16.8v10h15.7v8.1h-15.7V637h-10L147.9,593.3L147.9,593.3z"/>
	<path d="M190.5,601.6h-11.8v-8.3h33.6v8.3h-11.9V637h-10V601.6z"/>
	<path d="M231,626.8c2.7,1.4,6.8,2.7,10.9,2.7c4.6,0,6.9-1.9,6.9-4.7c0-2.7-2-4.2-7.3-6.2c-7.3-2.5-12-6.5-12-12.9
		c0-7.4,6.2-13.1,16.6-13.1c4.9,0,8.6,1.1,11.2,2.2l-2.2,8c-1.7-0.8-4.9-2-9.1-2s-6.4,2-6.4,4.2c0,2.8,2.4,4,8.1,6.2
		c7.8,2.9,11.3,6.9,11.3,13.1c0,7.3-5.6,13.6-17.6,13.6c-5,0-10-1.4-12.4-2.7L231,626.8z"/>
	<path d="M291.8,618.5h-16.1v10.4h18v8.1h-27.9v-43.7h27v8.1h-17.1v9.1h16.1V618.5z"/>
	<path d="M309.1,601.6h-11.8v-8.3H331v8.3h-12V637h-10L309.1,601.6L309.1,601.6z"/>
</g>
<g>
	<path class="st1" d="M115.9,635c-3,1.1-8.8,2.4-14.6,2.4c-8,0-13.8-2-17.8-5.9c-4-3.8-6.2-9.5-6.2-15.9c0.1-14.5,10.6-22.9,25-22.9
		c5.6,0,10,1.1,12.2,2.1l-2,7.9c-2.4-1.1-5.4-1.9-10.2-1.9c-8.2,0-14.4,4.7-14.4,14.1c0,9.1,5.6,14.4,13.8,14.4
		c2.3,0,4.1-0.2,4.9-0.7v-9.1h-6.8v-7.8H116L115.9,635L115.9,635z"/>
	<path class="st1" d="M133.6,593.3V637h-10v-43.7H133.6z"/>
	<path class="st1" d="M142.2,593.3h26.7v8.1h-16.8v10h15.7v8.1h-15.7V637h-10L142.2,593.3L142.2,593.3z"/>
	<path class="st1" d="M184.8,601.6H173v-8.3h33.6v8.3h-11.9V637h-10V601.6z"/>
	<path class="st1" d="M225.4,626.8c2.7,1.4,6.8,2.7,10.9,2.7c4.6,0,6.9-1.9,6.9-4.7c0-2.7-2-4.2-7.3-6.2c-7.3-2.5-12-6.5-12-12.9
		c0-7.4,6.2-13.1,16.6-13.1c4.9,0,8.6,1.1,11.2,2.2l-2.2,8c-1.7-0.8-4.9-2-9.1-2c-4.2,0-6.4,2-6.4,4.2c0,2.8,2.4,4,8.1,6.2
		c7.8,2.9,11.3,6.9,11.3,13.1c0,7.3-5.6,13.6-17.6,13.6c-5,0-10-1.4-12.4-2.7L225.4,626.8z"/>
	<path class="st1" d="M286.1,618.5H270v10.4h18v8.1h-27.9v-43.7h27v8.1H270v9.1h16.1V618.5z"/>
	<path class="st1" d="M303.5,601.6h-11.8v-8.3h33.6v8.3h-12V637h-10L303.5,601.6L303.5,601.6z"/>
</g>
</svg>
