<?xml version="1.0" encoding="utf-8"?>
<!-- Generator: Adobe Illustrator 19.0.0, SVG Export Plug-In . SVG Version: 6.00 Build 0)  -->
<svg version="1.1" id="Capa_1" xmlns="http://www.w3.org/2000/svg" xmlns:xlink="http://www.w3.org/1999/xlink" x="0px" y="0px"
	 viewBox="112 -40 512 512" style="enable-background:new 112 -40 512 512;" xml:space="preserve">
<g>
	<g>
		<g>
			<path d="M442.4,165.8h-29.6V-10.3c0-6.2-5-11.3-11.3-11.3h-67c-6.2,0-11.3,5-11.3,11.3v176.1h-29.6c-18.7,0-33.9,15.2-33.9,33.9
				v40.2h216.5v-40.2C476.3,181,461.1,165.8,442.4,165.8z M390.2,165.8h-44.4V35.4h44.4V165.8z M390.2,12.8h-44.4V1h44.4V12.8z"/>
		</g>
	</g>
	<g>
		<g>
			<path d="M394.8,262.5L394.8,262.5c-1.4,4.7-5.7,8.1-10.8,8.1h-31.9c-5.1,0-9.4-3.4-10.8-8.1h-81.5v50c0,18.7,15.2,33.9,33.9,33.9
				h14.7v6c0,6.2,5,11.3,11.3,11.3s11.3-5,11.3-11.3v-6h73.5v6c0,6.2,5,11.3,11.3,11.3s11.3-5,11.3-11.3v-6h15.5
				c18.7,0,33.9-15.2,33.9-33.9v-49.9L394.8,262.5L394.8,262.5z"/>
		</g>
	</g>
</g>
<g>
	<path d="M219.2,403v11.4h11V403h6.7v29.6h-6.7v-12.4h-11v12.4h-6.7V403H219.2z"/>
	<path d="M249.7,425l-2.1,7.6h-6.9l9.1-29.6h8.8l9.2,29.6h-7.2l-2.3-7.6H249.7z M257.2,420l-1.8-6.3c-0.5-1.8-1.1-4-1.5-5.7h-0.1
		c-0.4,1.8-0.9,4-1.4,5.7l-1.8,6.3H257.2z"/>
	<path d="M271.6,403.4c2.2-0.4,5.4-0.6,8.9-0.6c4.4,0,7.5,0.7,9.6,2.3c1.8,1.4,2.7,3.5,2.7,6.2c0,3.8-2.7,6.4-5.2,7.3v0.1
		c2.1,0.8,3.2,2.8,4,5.5c0.9,3.3,1.8,7.2,2.4,8.3h-6.9c-0.5-0.9-1.2-3.3-2.1-6.9c-0.8-3.7-2.1-4.7-4.8-4.7h-2v11.6h-6.6V403.4z
		 M278.2,416.1h2.6c3.3,0,5.3-1.7,5.3-4.3c0-2.7-1.8-4.1-4.9-4.1c-1.6,0-2.5,0.1-3,0.2V416.1z"/>
	<path d="M297.7,403.4c2.5-0.4,5.7-0.6,9.1-0.6c5.6,0,9.3,1,12.1,3.2c3.1,2.3,5,5.9,5,11.2c0,5.7-2.1,9.6-4.9,12
		c-3.1,2.6-7.9,3.8-13.7,3.8c-3.5,0-5.9-0.2-7.6-0.4V403.4z M304.4,427.5c0.6,0.1,1.5,0.1,2.3,0.1c6.1,0,10-3.3,10-10.4
		c0-6.2-3.6-9.4-9.3-9.4c-1.5,0-2.5,0.1-3,0.3V427.5z"/>
	<path d="M337.1,403h6.7v24h11.8v5.6h-18.5V403z"/>
	<path d="M364.9,403V420c0,5.1,1.9,7.7,5.4,7.7c3.5,0,5.4-2.5,5.4-7.7V403h6.7v16.6c0,9.1-4.6,13.5-12.3,13.5
		c-7.5,0-11.9-4.1-11.9-13.6V403H364.9z"/>
	<path d="M412.9,431.2c-2.1,0.7-6,1.7-9.9,1.7c-5.4,0-9.3-1.4-12-4c-2.7-2.5-4.2-6.4-4.2-10.8c0-9.8,7.2-15.5,16.9-15.5
		c3.8,0,6.8,0.7,8.2,1.5l-1.4,5.4c-1.6-0.7-3.6-1.3-6.9-1.3c-5.6,0-9.8,3.2-9.8,9.6c0,6.1,3.8,9.7,9.3,9.7c1.5,0,2.8-0.2,3.3-0.4
		v-6.2h-4.6v-5.2h11V431.2z"/>
	<path d="M442.9,431.2c-2.1,0.7-6,1.7-9.9,1.7c-5.4,0-9.3-1.4-12-4c-2.7-2.5-4.2-6.4-4.2-10.8c0-9.8,7.2-15.5,16.9-15.5
		c3.8,0,6.8,0.7,8.2,1.5l-1.4,5.4c-1.6-0.7-3.6-1.3-6.9-1.3c-5.6,0-9.8,3.2-9.8,9.6c0,6.1,3.8,9.7,9.3,9.7c1.5,0,2.8-0.2,3.3-0.4
		v-6.2h-4.6v-5.2h11V431.2z"/>
	<path d="M455,425l-2.1,7.6H446L455,403h8.8l9.2,29.6h-7.2l-2.3-7.6H455z M462.6,420l-1.8-6.3c-0.5-1.8-1.1-4-1.5-5.7h-0.1
		c-0.4,1.8-0.9,4-1.4,5.7L456,420H462.6z"/>
	<path d="M500.6,431.2c-2.1,0.7-6,1.7-9.9,1.7c-5.4,0-9.3-1.4-12-4c-2.7-2.5-4.2-6.4-4.2-10.8c0-9.8,7.2-15.5,16.9-15.5
		c3.8,0,6.8,0.7,8.2,1.5l-1.4,5.4c-1.6-0.7-3.6-1.3-6.9-1.3c-5.6,0-9.8,3.2-9.8,9.6c0,6.1,3.8,9.7,9.3,9.7c1.5,0,2.8-0.2,3.3-0.4
		v-6.2h-4.6v-5.2h11V431.2z"/>
	<path d="M523.5,420.1h-10.9v7h12.2v5.5h-18.9V403h18.3v5.5h-11.6v6.2h10.9V420.1z"/>
</g>
</svg>
