<?xml version="1.0" encoding="utf-8"?>
<!-- Generator: Adobe Illustrator 19.0.0, SVG Export Plug-In . SVG Version: 6.00 Build 0)  -->
<svg version="1.1" id="Capa_1" xmlns="http://www.w3.org/2000/svg" xmlns:xlink="http://www.w3.org/1999/xlink" x="0px" y="0px"
	 viewBox="-49 141 512 512" style="enable-background:new -49 141 512 512;" xml:space="preserve">
<style type="text/css">
	.st0{fill-rule:evenodd;clip-rule:evenodd;fill:#BD2F32;}
	.st1{fill:#FFFFFF;}
</style>
<g id="XMLID_29_">
	<rect id="XMLID_28_" x="-49" y="141" class="st0" width="512" height="512"/>
	<g id="XMLID_30_">
		<rect id="XMLID_31_" x="23.3" y="580.2" class="st1" width="367.3" height="2.1"/>
	</g>
</g>
<g>
	<g>
		<g>
			<path class="st1" d="M281.3,352.8h-29.6V176.7c0-6.2-5-11.3-11.3-11.3h-67c-6.2,0-11.3,5-11.3,11.3v176.1h-29.6
				c-18.7,0-33.9,15.2-33.9,33.9v40.2h216.5v-40.2C315.2,368,300,352.8,281.3,352.8z M229.1,352.8h-44.4V222.4h44.4V352.8z
				 M229.1,199.8h-44.4V188h44.4V199.8z"/>
		</g>
	</g>
	<g>
		<g>
			<path class="st1" d="M233.7,449.5L233.7,449.5c-1.4,4.7-5.7,8.1-10.8,8.1H191c-5.1,0-9.4-3.4-10.8-8.1H98.7v50
				c0,18.7,15.2,33.9,33.9,33.9h14.7v6c0,6.2,5,11.3,11.3,11.3s11.3-5,11.3-11.3v-6h73.5v6c0,6.2,5,11.3,11.3,11.3
				c6.3,0,11.3-5,11.3-11.3v-6h15.5c18.7,0,33.9-15.2,33.9-33.9v-49.9L233.7,449.5L233.7,449.5z"/>
		</g>
	</g>
</g>
<g>
	<path d="M57.5,598.9v11.4h11v-11.4h6.7v29.6h-6.7v-12.4h-11v12.4h-6.7v-29.6H57.5z"/>
	<path d="M88,620.9l-2.1,7.6H79l9.1-29.6h8.8l9.2,29.6h-7.2l-2.3-7.6H88z M95.5,615.9l-1.8-6.3c-0.5-1.8-1.1-4-1.5-5.7h-0.1
		c-0.4,1.8-0.9,4-1.4,5.7l-1.8,6.3H95.5z"/>
	<path d="M109.9,599.3c2.2-0.4,5.4-0.6,8.9-0.6c4.4,0,7.5,0.7,9.6,2.3c1.8,1.4,2.7,3.5,2.7,6.2c0,3.8-2.7,6.4-5.2,7.3v0.1
		c2.1,0.8,3.2,2.8,4,5.5c0.9,3.3,1.8,7.2,2.4,8.3h-6.9c-0.5-0.9-1.2-3.3-2.1-6.9c-0.8-3.7-2.1-4.7-4.8-4.7h-2v11.6h-6.6V599.3z
		 M116.5,612h2.6c3.3,0,5.3-1.7,5.3-4.3c0-2.7-1.8-4.1-4.9-4.1c-1.6,0-2.5,0.1-3,0.2V612z"/>
	<path d="M136,599.3c2.5-0.4,5.7-0.6,9.1-0.6c5.6,0,9.3,1,12.1,3.2c3.1,2.3,5,5.9,5,11.2c0,5.7-2.1,9.6-4.9,12
		c-3.1,2.6-7.9,3.8-13.7,3.8c-3.5,0-5.9-0.2-7.6-0.4V599.3z M142.7,623.4c0.6,0.1,1.5,0.1,2.3,0.1c6.1,0,10-3.3,10-10.4
		c0-6.2-3.6-9.4-9.3-9.4c-1.5,0-2.5,0.1-3,0.3V623.4z"/>
	<path d="M175.4,598.9h6.7v24h11.8v5.6h-18.5V598.9z"/>
	<path d="M203.2,598.9v17c0,5.1,1.9,7.7,5.4,7.7s5.4-2.5,5.4-7.7v-17h6.7v16.6c0,9.1-4.6,13.5-12.3,13.5c-7.5,0-11.9-4.1-11.9-13.6
		v-16.5H203.2z"/>
	<path d="M251.2,627.1c-2.1,0.7-6,1.7-9.9,1.7c-5.4,0-9.3-1.4-12-4c-2.7-2.5-4.2-6.4-4.2-10.8c0-9.8,7.2-15.5,16.9-15.5
		c3.8,0,6.8,0.7,8.2,1.5l-1.4,5.4c-1.6-0.7-3.6-1.3-6.9-1.3c-5.6,0-9.8,3.2-9.8,9.6c0,6.1,3.8,9.7,9.3,9.7c1.5,0,2.8-0.2,3.3-0.4
		v-6.2h-4.6v-5.2h11v15.5H251.2z"/>
	<path d="M281.2,627.1c-2.1,0.7-6,1.7-9.9,1.7c-5.4,0-9.3-1.4-12-4c-2.7-2.5-4.2-6.4-4.2-10.8c0-9.8,7.2-15.5,16.9-15.5
		c3.8,0,6.8,0.7,8.2,1.5l-1.4,5.4c-1.6-0.7-3.6-1.3-6.9-1.3c-5.6,0-9.8,3.2-9.8,9.6c0,6.1,3.8,9.7,9.3,9.7c1.5,0,2.8-0.2,3.3-0.4
		v-6.2h-4.6v-5.2h11v15.5H281.2z"/>
	<path d="M293.3,620.9l-2.1,7.6h-6.9l9-29.6h8.8l9.2,29.6h-7.2l-2.3-7.6H293.3z M300.9,615.9l-1.8-6.3c-0.5-1.8-1.1-4-1.5-5.7h-0.1
		c-0.4,1.8-0.9,4-1.4,5.7l-1.8,6.3H300.9z"/>
	<path d="M338.9,627.1c-2.1,0.7-6,1.7-9.9,1.7c-5.4,0-9.3-1.4-12-4c-2.7-2.5-4.2-6.4-4.2-10.8c0-9.8,7.2-15.5,16.9-15.5
		c3.8,0,6.8,0.7,8.2,1.5l-1.4,5.4c-1.6-0.7-3.6-1.3-6.9-1.3c-5.6,0-9.8,3.2-9.8,9.6c0,6.1,3.8,9.7,9.3,9.7c1.5,0,2.8-0.2,3.3-0.4
		v-6.2h-4.6v-5.2h11v15.5H338.9z"/>
	<path d="M361.8,616h-10.9v7h12.2v5.5h-18.9v-29.6h18.3v5.5H351v6.2h10.9L361.8,616L361.8,616z"/>
</g>
<g>
	<path class="st1" d="M51.9,598.9v11.4h11v-11.4h6.7v29.6h-6.7v-12.4h-11v12.4h-6.7v-29.6H51.9z"/>
	<path class="st1" d="M82.4,620.9l-2.1,7.6h-6.9l9.1-29.6h8.8l9.2,29.6h-7.2l-2.3-7.6H82.4z M89.9,615.9l-1.8-6.3
		c-0.5-1.8-1.1-4-1.5-5.7h-0.1c-0.4,1.8-0.9,4-1.4,5.7l-1.8,6.3H89.9z"/>
	<path class="st1" d="M104.3,599.3c2.2-0.4,5.4-0.6,8.9-0.6c4.4,0,7.5,0.7,9.6,2.3c1.8,1.4,2.7,3.5,2.7,6.2c0,3.8-2.7,6.4-5.2,7.3
		v0.1c2.1,0.8,3.2,2.8,4,5.5c0.9,3.3,1.8,7.2,2.4,8.3h-6.9c-0.5-0.9-1.2-3.3-2.1-6.9c-0.8-3.7-2.1-4.7-4.8-4.7h-2v11.6h-6.6V599.3z
		 M110.9,612h2.6c3.3,0,5.3-1.7,5.3-4.3c0-2.7-1.8-4.1-4.9-4.1c-1.6,0-2.5,0.1-3,0.2V612z"/>
	<path class="st1" d="M130.4,599.3c2.5-0.4,5.7-0.6,9.1-0.6c5.6,0,9.3,1,12.1,3.2c3.1,2.3,5,5.9,5,11.2c0,5.7-2.1,9.6-4.9,12
		c-3.1,2.6-7.9,3.8-13.7,3.8c-3.5,0-5.9-0.2-7.6-0.4V599.3z M137.1,623.4c0.6,0.1,1.5,0.1,2.3,0.1c6.1,0,10-3.3,10-10.4
		c0-6.2-3.6-9.4-9.3-9.4c-1.5,0-2.5,0.1-3,0.3V623.4z"/>
	<path class="st1" d="M169.8,598.9h6.7v24h11.8v5.6h-18.5V598.9z"/>
	<path class="st1" d="M197.6,598.9v17c0,5.1,1.9,7.7,5.4,7.7s5.4-2.5,5.4-7.7v-17h6.7v16.6c0,9.1-4.6,13.5-12.3,13.5
		c-7.5,0-11.9-4.1-11.9-13.6v-16.5H197.6z"/>
	<path class="st1" d="M245.6,627.1c-2.1,0.7-6,1.7-9.9,1.7c-5.4,0-9.3-1.4-12-4c-2.7-2.5-4.2-6.4-4.2-10.8c0-9.8,7.2-15.5,16.9-15.5
		c3.8,0,6.8,0.7,8.2,1.5l-1.4,5.4c-1.6-0.7-3.6-1.3-6.9-1.3c-5.6,0-9.8,3.2-9.8,9.6c0,6.1,3.8,9.7,9.3,9.7c1.5,0,2.8-0.2,3.3-0.4
		v-6.2h-4.6v-5.2h11v15.5H245.6z"/>
	<path class="st1" d="M275.6,627.1c-2.1,0.7-6,1.7-9.9,1.7c-5.4,0-9.3-1.4-12-4c-2.7-2.5-4.2-6.4-4.2-10.8c0-9.8,7.2-15.5,16.9-15.5
		c3.8,0,6.8,0.7,8.2,1.5l-1.4,5.4c-1.6-0.7-3.6-1.3-6.9-1.3c-5.6,0-9.8,3.2-9.8,9.6c0,6.1,3.8,9.7,9.3,9.7c1.5,0,2.8-0.2,3.3-0.4
		v-6.2h-4.6v-5.2h11v15.5H275.6z"/>
	<path class="st1" d="M287.7,620.9l-2.1,7.6h-6.9l9-29.6h8.8l9.2,29.6h-7.2l-2.3-7.6H287.7z M295.3,615.9l-1.8-6.3
		c-0.5-1.8-1.1-4-1.5-5.7h-0.1c-0.4,1.8-0.9,4-1.4,5.7l-1.8,6.3H295.3z"/>
	<path class="st1" d="M333.3,627.1c-2.1,0.7-6,1.7-9.9,1.7c-5.4,0-9.3-1.4-12-4c-2.7-2.5-4.2-6.4-4.2-10.8c0-9.8,7.2-15.5,16.9-15.5
		c3.8,0,6.8,0.7,8.2,1.5l-1.4,5.4c-1.6-0.7-3.6-1.3-6.9-1.3c-5.6,0-9.8,3.2-9.8,9.6c0,6.1,3.8,9.7,9.3,9.7c1.5,0,2.8-0.2,3.3-0.4
		v-6.2h-4.6v-5.2h11v15.5H333.3z"/>
	<path class="st1" d="M356.2,616h-10.9v7h12.2v5.5h-18.9v-29.6h18.3v5.5h-11.6v6.2h10.9L356.2,616L356.2,616z"/>
</g>
</svg>
