<?xml version="1.0" encoding="utf-8"?>
<!-- Generator: Adobe Illustrator 19.0.0, SVG Export Plug-In . SVG Version: 6.00 Build 0)  -->
<svg version="1.1" id="Capa_1" xmlns="http://www.w3.org/2000/svg" xmlns:xlink="http://www.w3.org/1999/xlink" x="0px" y="0px"
	 viewBox="-49 141 512 512" style="enable-background:new -49 141 512 512;" xml:space="preserve">
<g>
	<g>
		<path d="M305.9,390.1h-39.4V156c0-8.3-6.7-15-15-15h-89c-8.3,0-15,6.7-15,15v234.1h-39.4c-24.8,0-45,20.2-45,45v53.5h287.8v-53.5
			C350.9,410.3,330.7,390.1,305.9,390.1z M236.5,390.1h-59V216.7h59V390.1z M236.5,186.7h-59V171h59V186.7z"/>
	</g>
</g>
<g>
	<g>
		<path d="M242.6,518.6L242.6,518.6c-1.8,6.2-7.6,10.8-14.4,10.8h-42.4c-6.8,0-12.5-4.5-14.4-10.8H63.1V585c0,24.8,20.2,45,45,45
			h19.5v8c0,8.3,6.7,15,15,15s15-6.7,15-15v-8h97.7v8c0,8.3,6.7,15,15,15s15-6.7,15-15v-8h20.6c24.8,0,45-20.2,45-45v-66.3
			L242.6,518.6L242.6,518.6z"/>
	</g>
</g>
</svg>
