<?xml version="1.0" encoding="utf-8"?>
<!-- Generator: Adobe Illustrator 19.0.0, SVG Export Plug-In . SVG Version: 6.00 Build 0)  -->
<svg version="1.1" id="Layer_1" xmlns="http://www.w3.org/2000/svg" xmlns:xlink="http://www.w3.org/1999/xlink" x="0px" y="0px"
	 viewBox="0 0 512 512" style="enable-background:new 0 0 512 512;" xml:space="preserve">
<style type="text/css">
	.st0{fill:#BD3334;}
	.st1{fill:#FFFFFF;}
</style>
<rect id="XMLID_28_" class="st0" width="512" height="512"/>
<g id="XMLID_30_">
	<rect id="XMLID_31_" x="72.3" y="439.2" class="st1" width="367.3" height="2.1"/>
</g>
<g id="XMLID_39_">
	<g id="XMLID_40_">
		<path id="XMLID_45_" class="st1" d="M207.9,328.9l178.9-103.4c7.7-4.5,10.4-14.3,5.9-22l-0.5-0.9l41.1-23.8l-1.8-23.1l-41-70.9
			l-20.6-11l-39.1,22.6l-0.5-0.9c-4.5-7.7-14.3-10.3-22-5.9L129.3,192.9c-7.7,4.5-10.4,14.3-5.9,22l16.7,28.9l-61.5,35.5l29.3,50.8
			l61.5-35.5l16.4,28.4C190.3,330.7,200.2,333.3,207.9,328.9z M340.9,112.9l29.4-17l6.3,3.3l36,62.3l0.5,6.6l-30.1,17.4L340.9,112.9
			C340.9,112.9,340.9,112.9,340.9,112.9z M176.5,268.1l-10-17.2l-9.7-16.8L141.8,208l173.3-100.1l59.2,102.5L201,310.5l-14.8-25.6
			L176.5,268.1z M115.1,303.7l-10-17.2l44.7-25.8l10,17.2L115.1,303.7L115.1,303.7z"/>
		<path id="XMLID_33_" class="st1" d="M276.1,190.2c3.3-1.9,6.4-3.7,9.7-5.6c3.9,6.7,7.7,13.4,11.6,20c3.4-2,6.7-3.9,10-5.8
			c-3.9-6.7-7.7-13.3-11.6-20c3.3-1.9,6.4-3.7,9.6-5.6c2,3.4,3.9,6.7,5.8,10c1.9,3.3,3.8,6.6,5.8,10c3.5-2,6.8-3.9,10.2-5.9
			c-3.7-6.4-7.4-12.8-11-19.1c-2.8-4.9-7.2-6.1-12.1-3.2c-13.5,7.8-27,15.6-40.4,23.4c-0.5,0.3-1.1,0.6-1.7,1
			c5.2,9,10.3,17.8,15.5,26.8c3.4-2,6.7-3.9,10.1-5.9C283.8,203.5,280,196.9,276.1,190.2z"/>
		<path id="XMLID_32_" class="st1" d="M265.5,223.1c4.8-2.8,6.1-7.4,3.3-12.1c-2.2-3.9-4.5-7.8-6.7-11.6c-2.7-4.6-7.4-5.9-12-3.2
			c-10.1,5.8-20.1,11.6-30.2,17.4c-0.5,0.3-1.1,0.6-1.7,1c1.3,2.3,2.6,4.4,3.9,6.7c9.8-5.7,19.5-11.3,29.2-16.9
			c2.6,4.6,5.2,9,7.8,13.4c-6.4,3.7-12.7,7.3-19.1,11c-1.8-3.1-3.5-6.1-5.3-9.1c-3.5,2-6.8,3.9-10.1,5.9c3,5.3,6,10.4,9.2,15.8
			c0.7-0.4,1.2-0.7,1.7-1C245.4,234.8,255.5,228.9,265.5,223.1z"/>
		<path id="XMLID_29_" class="st1" d="M194.7,251.3c0.2-0.1,0.3-0.2,0.5-0.3c6-3.5,11.9-6.9,17.8-10.3c1.9,3.2,3.7,6.3,5.4,9.4
			c3.6-2.1,7.1-4.1,10.6-6.1c-5.2-9-10.3-17.8-15.4-26.7c-3.5,2-7,4-10.6,6.1c2.1,3.6,4.1,7.1,6.2,10.8c-6,3.5-11.8,6.8-17.8,10.3
			c-0.2,0.1-0.3,0.2-0.5,0.3c-2.1-3.6-4.1-7.1-6.2-10.8c-3.6,2.1-7,4.1-10.5,6c5.2,9,10.3,17.8,15.4,26.7c3.5-2,6.9-4,10.5-6
			C198.4,257.6,196.5,254.4,194.7,251.3z"/>
		<path id="XMLID_27_" class="st1" d="M326.7,152.1c-3.6,2.1-6.9,4-10.4,6c5.2,9,10.3,17.8,15.4,26.7c3.5-2,6.9-4,10.4-6
			C336.9,169.9,331.8,161,326.7,152.1z"/>
	</g>
</g>
<g id="XMLID_129_">
	<g id="XMLID_41_">
		<path id="XMLID_42_" d="M52.8,457v37.8H43v-15.9H40v15.9h-9.8V457H40v13.5H43V457H52.8z"/>
		<path id="XMLID_44_" d="M56.7,457h7.3c4.7,0,8,0.2,9.6,0.7c1.7,0.4,2.9,1.2,3.8,2.1c0.9,1,1.4,2.1,1.6,3.3
			c0.2,1.2,0.3,3.6,0.3,7.2v13.2c0,3.4-0.2,5.7-0.5,6.8c-0.3,1.1-0.9,2-1.7,2.7c-0.8,0.6-1.8,1.1-2.9,1.4c-1.2,0.3-2.9,0.4-5.3,0.4
			H56.7V457z M66.6,463.4v24.8c1.4,0,2.3-0.3,2.6-0.9c0.3-0.6,0.5-2.1,0.5-4.6v-14.7c0-1.7-0.1-2.8-0.2-3.3
			c-0.1-0.5-0.4-0.8-0.7-1.1C68.4,463.5,67.6,463.4,66.6,463.4z"/>
		<path id="XMLID_48_" d="M113.4,457v37.8h-8.6l0-25.5l-3.4,25.5h-6.1l-3.6-24.9l0,24.9h-8.6V457h12.7c0.4,2.3,0.8,4.9,1.2,8
			l1.4,9.6l2.3-17.6H113.4z"/>
		<path id="XMLID_50_" d="M127.2,457v37.8h-9.8V457H127.2z"/>
		<path id="XMLID_52_" d="M176.5,457l-4.4,37.8h-12.3c-1.1-5.8-2.1-12.4-3-19.8c-0.4,3.2-1.3,9.8-2.7,19.8H142l-4.4-37.8h9.5l1,13.2
			l1,12.7c0.4-6.6,1.3-15.2,2.7-25.9h10.2c0.1,1.1,0.5,5.3,1.1,12.5l1.1,14.4c0.6-9.1,1.5-18.1,2.7-26.8H176.5z"/>
		<path id="XMLID_54_" d="M188.3,457v37.8h-9.8V457H188.3z"/>
		<path id="XMLID_56_" d="M192.2,457h7c4.6,0,7.8,0.2,9.4,0.5c1.6,0.4,3,1.3,4,2.7c1,1.5,1.6,3.8,1.6,7c0,2.9-0.4,4.9-1.1,5.9
			c-0.7,1-2.2,1.6-4.3,1.8c1.9,0.5,3.3,1.1,3.9,1.9c0.7,0.8,1.1,1.6,1.2,2.2c0.2,0.7,0.2,2.5,0.2,5.6v10h-9.1v-12.5
			c0-2-0.2-3.3-0.5-3.8c-0.3-0.5-1.2-0.7-2.5-0.7v17h-9.8V457z M202.1,463.4v8.4c1.1,0,1.9-0.2,2.3-0.5c0.4-0.3,0.7-1.3,0.7-3v-2.1
			c0-1.2-0.2-2-0.6-2.4S203.2,463.4,202.1,463.4z"/>
		<path id="XMLID_59_" d="M218,457h16.4v7.6h-6.6v7.2h6.1v7.2h-6.1v8.3h7.2v7.6h-17V457z"/>
		<path id="XMLID_61_" d="M247.6,457v30.2h6v7.6h-15.8V457H247.6z"/>
		<path id="XMLID_63_" d="M256,457h16.4v7.6h-6.6v7.2h6.1v7.2h-6.1v8.3h7.2v7.6h-17V457z"/>
		<path id="XMLID_65_" d="M296.7,468.4h-9.1v-2.8c0-1.3-0.1-2.1-0.4-2.5c-0.2-0.4-0.6-0.5-1.2-0.5c-0.6,0-1,0.2-1.3,0.7
			c-0.3,0.5-0.5,1.2-0.5,2.2c0,1.3,0.2,2.2,0.5,2.8c0.3,0.6,1.3,1.4,2.8,2.3c4.4,2.6,7.1,4.7,8.3,6.4s1.7,4.3,1.7,8
			c0,2.7-0.3,4.7-0.9,5.9c-0.6,1.3-1.8,2.3-3.7,3.2c-1.8,0.9-3.9,1.3-6.3,1.3c-2.6,0-4.9-0.5-6.7-1.5c-1.9-1-3.1-2.3-3.7-3.8
			c-0.6-1.5-0.9-3.7-0.9-6.6v-2.5h9.1v4.6c0,1.4,0.1,2.3,0.4,2.7c0.3,0.4,0.7,0.6,1.4,0.6c0.7,0,1.1-0.3,1.5-0.8
			c0.3-0.5,0.5-1.3,0.5-2.3c0-2.2-0.3-3.7-0.9-4.4c-0.6-0.7-2.2-1.8-4.6-3.4c-2.4-1.6-4.1-2.8-4.9-3.5c-0.8-0.7-1.4-1.7-2-3
			c-0.5-1.3-0.8-2.9-0.8-4.9c0-2.9,0.4-5,1.1-6.3c0.7-1.3,1.9-2.4,3.6-3.1c1.6-0.8,3.6-1.1,6-1.1c2.6,0,4.7,0.4,6.5,1.2
			c1.8,0.8,3,1.9,3.6,3.1c0.6,1.3,0.9,3.4,0.9,6.4V468.4z"/>
		<path id="XMLID_67_" d="M321.4,468.4h-9.1v-2.8c0-1.3-0.1-2.1-0.3-2.5c-0.2-0.4-0.6-0.5-1.2-0.5c-0.6,0-1,0.2-1.3,0.7
			c-0.3,0.5-0.5,1.2-0.5,2.2c0,1.3,0.2,2.2,0.5,2.8c0.3,0.6,1.3,1.4,2.8,2.3c4.4,2.6,7.1,4.7,8.3,6.4c1.1,1.7,1.7,4.3,1.7,8
			c0,2.7-0.3,4.7-0.9,5.9c-0.6,1.3-1.8,2.3-3.7,3.2c-1.8,0.9-3.9,1.3-6.3,1.3c-2.6,0-4.9-0.5-6.7-1.5c-1.9-1-3.1-2.3-3.7-3.8
			c-0.6-1.5-0.9-3.7-0.9-6.6v-2.5h9.1v4.6c0,1.4,0.1,2.3,0.4,2.7c0.3,0.4,0.7,0.6,1.4,0.6c0.7,0,1.1-0.3,1.5-0.8
			c0.3-0.5,0.5-1.3,0.5-2.3c0-2.2-0.3-3.7-0.9-4.4c-0.6-0.7-2.2-1.8-4.6-3.4c-2.4-1.6-4.1-2.8-4.9-3.5c-0.8-0.7-1.5-1.7-2-3
			c-0.5-1.3-0.8-2.9-0.8-4.9c0-2.9,0.4-5,1.1-6.3c0.7-1.3,1.9-2.4,3.6-3.1c1.6-0.8,3.6-1.1,6-1.1c2.6,0,4.7,0.4,6.5,1.2
			c1.8,0.8,3,1.9,3.6,3.1c0.6,1.3,0.9,3.4,0.9,6.4V468.4z"/>
		<path id="XMLID_69_" d="M333.7,457h7.3c4.7,0,8,0.2,9.6,0.7c1.7,0.4,2.9,1.2,3.8,2.1c0.9,1,1.4,2.1,1.6,3.3
			c0.2,1.2,0.3,3.6,0.3,7.2v13.2c0,3.4-0.2,5.7-0.5,6.8c-0.3,1.1-0.9,2-1.7,2.7c-0.8,0.6-1.8,1.1-2.9,1.4c-1.2,0.3-2.9,0.4-5.3,0.4
			h-12.4V457z M343.5,463.4v24.8c1.4,0,2.3-0.3,2.6-0.9c0.3-0.6,0.5-2.1,0.5-4.6v-14.7c0-1.7-0.1-2.8-0.2-3.3
			c-0.1-0.5-0.4-0.8-0.7-1.1C345.3,463.5,344.6,463.4,343.5,463.4z"/>
		<path id="XMLID_72_" d="M369.9,457v37.8h-9.8V457H369.9z"/>
		<path id="XMLID_74_" d="M394.7,468.4h-9.1v-2.8c0-1.3-0.1-2.1-0.4-2.5c-0.2-0.4-0.6-0.5-1.2-0.5c-0.6,0-1,0.2-1.3,0.7
			c-0.3,0.5-0.5,1.2-0.5,2.2c0,1.3,0.2,2.2,0.5,2.8c0.3,0.6,1.3,1.4,2.8,2.3c4.4,2.6,7.1,4.7,8.3,6.4c1.1,1.7,1.7,4.3,1.7,8
			c0,2.7-0.3,4.7-0.9,5.9c-0.6,1.3-1.8,2.3-3.7,3.2c-1.8,0.9-3.9,1.3-6.3,1.3c-2.6,0-4.9-0.5-6.7-1.5c-1.9-1-3.1-2.3-3.7-3.8
			s-0.9-3.7-0.9-6.6v-2.5h9.1v4.6c0,1.4,0.1,2.3,0.4,2.7c0.3,0.4,0.7,0.6,1.4,0.6c0.7,0,1.1-0.3,1.5-0.8c0.3-0.5,0.5-1.3,0.5-2.3
			c0-2.2-0.3-3.7-0.9-4.4c-0.6-0.7-2.2-1.8-4.6-3.4c-2.4-1.6-4.1-2.8-4.9-3.5c-0.8-0.7-1.4-1.7-2-3c-0.5-1.3-0.8-2.9-0.8-4.9
			c0-2.9,0.4-5,1.1-6.3c0.7-1.3,1.9-2.4,3.6-3.1c1.6-0.8,3.6-1.1,6-1.1c2.6,0,4.7,0.4,6.5,1.2c1.8,0.8,3,1.9,3.6,3.1
			c0.6,1.3,0.9,3.4,0.9,6.4V468.4z"/>
		<path id="XMLID_76_" d="M398.6,457h9.9c2.7,0,4.7,0.2,6.2,0.6c1.4,0.4,2.5,1,3.2,1.8c0.7,0.8,1.2,1.8,1.5,2.9
			c0.3,1.1,0.4,2.9,0.4,5.2v3.3c0,2.4-0.2,4.2-0.7,5.3c-0.5,1.1-1.4,2-2.7,2.5c-1.3,0.6-3.1,0.9-5.2,0.9h-2.6v15.2h-9.8V457z
			 M408.4,463.4v9.6c0.3,0,0.5,0,0.7,0c0.9,0,1.5-0.2,1.9-0.7c0.3-0.4,0.5-1.4,0.5-2.8v-3.1c0-1.3-0.2-2.1-0.6-2.5
			C410.5,463.6,409.7,463.4,408.4,463.4z"/>
		<path id="XMLID_79_" d="M432.4,457v30.2h6v7.6h-15.8V457H432.4z"/>
		<path id="XMLID_81_" d="M458.9,457l5.6,37.8h-10l-0.5-6.8h-3.5l-0.6,6.8h-10.2l5-37.8H458.9z M453.7,481.2
			c-0.5-4.3-1-9.6-1.5-15.9c-1,7.2-1.6,12.5-1.9,15.9H453.7z"/>
		<path id="XMLID_84_" d="M484.2,457l-7.2,24.1v13.7H468v-13.7L461,457h9c1.4,7.4,2.2,12.3,2.4,14.9c0.5-4,1.5-9,2.7-14.9H484.2z"/>
	</g>
	<g id="XMLID_38_">
		<path id="XMLID_127_" class="st1" d="M50.4,457v37.8h-9.8v-15.9h-2.9v15.9h-9.8V457h9.8v13.5h2.9V457H50.4z"/>
		<path id="XMLID_124_" class="st1" d="M54.3,457h7.3c4.7,0,8,0.2,9.6,0.7c1.7,0.4,2.9,1.2,3.8,2.1c0.9,1,1.4,2.1,1.6,3.3
			c0.2,1.2,0.3,3.6,0.3,7.2v13.2c0,3.4-0.2,5.7-0.5,6.8c-0.3,1.1-0.9,2-1.7,2.7c-0.8,0.6-1.8,1.1-2.9,1.4c-1.2,0.3-2.9,0.4-5.3,0.4
			H54.3V457z M64.1,463.4v24.8c1.4,0,2.3-0.3,2.6-0.9c0.3-0.6,0.5-2.1,0.5-4.6v-14.7c0-1.7-0.1-2.8-0.2-3.3
			c-0.1-0.5-0.4-0.8-0.7-1.1C65.9,463.5,65.2,463.4,64.1,463.4z"/>
		<path id="XMLID_122_" class="st1" d="M111,457v37.8h-8.6l0-25.5L99,494.7h-6.1l-3.6-24.9l0,24.9h-8.6V457h12.7
			c0.4,2.3,0.8,4.9,1.2,8l1.4,9.6l2.3-17.6H111z"/>
		<path id="XMLID_120_" class="st1" d="M124.8,457v37.8H115V457H124.8z"/>
		<path id="XMLID_118_" class="st1" d="M174.1,457l-4.4,37.8h-12.3c-1.1-5.8-2.1-12.4-3-19.8c-0.4,3.2-1.3,9.8-2.7,19.8h-12.2
			l-4.4-37.8h9.5l1,13.2l1,12.7c0.4-6.6,1.3-15.2,2.7-25.9h10.2c0.1,1.1,0.5,5.3,1.1,12.5l1.1,14.4c0.6-9.1,1.5-18.1,2.7-26.8H174.1
			z"/>
		<path id="XMLID_116_" class="st1" d="M185.9,457v37.8h-9.8V457H185.9z"/>
		<path id="XMLID_113_" class="st1" d="M189.8,457h7c4.6,0,7.8,0.2,9.4,0.5c1.6,0.4,3,1.3,4,2.7c1,1.5,1.6,3.8,1.6,7
			c0,2.9-0.4,4.9-1.1,5.9c-0.7,1-2.2,1.6-4.3,1.8c1.9,0.5,3.3,1.1,3.9,1.9c0.7,0.8,1.1,1.6,1.2,2.2c0.2,0.7,0.2,2.5,0.2,5.6v10h-9.1
			v-12.5c0-2-0.2-3.3-0.5-3.8c-0.3-0.5-1.2-0.7-2.5-0.7v17h-9.8V457z M199.6,463.4v8.4c1.1,0,1.9-0.2,2.3-0.5c0.4-0.3,0.7-1.3,0.7-3
			v-2.1c0-1.2-0.2-2-0.6-2.4C201.6,463.6,200.8,463.4,199.6,463.4z"/>
		<path id="XMLID_111_" class="st1" d="M215.5,457h16.4v7.6h-6.6v7.2h6.1v7.2h-6.1v8.3h7.2v7.6h-17V457z"/>
		<path id="XMLID_109_" class="st1" d="M245.2,457v30.2h6v7.6h-15.8V457H245.2z"/>
		<path id="XMLID_107_" class="st1" d="M253.6,457h16.4v7.6h-6.6v7.2h6.1v7.2h-6.1v8.3h7.2v7.6h-17V457z"/>
		<path id="XMLID_105_" class="st1" d="M294.2,468.4h-9.1v-2.8c0-1.3-0.1-2.1-0.4-2.5c-0.2-0.4-0.6-0.5-1.2-0.5
			c-0.6,0-1,0.2-1.3,0.7c-0.3,0.5-0.5,1.2-0.5,2.2c0,1.3,0.2,2.2,0.5,2.8c0.3,0.6,1.3,1.4,2.8,2.3c4.4,2.6,7.1,4.7,8.3,6.4
			c1.1,1.7,1.7,4.3,1.7,8c0,2.7-0.3,4.7-0.9,5.9c-0.6,1.3-1.8,2.3-3.7,3.2c-1.8,0.9-3.9,1.3-6.3,1.3c-2.6,0-4.9-0.5-6.7-1.5
			c-1.9-1-3.1-2.3-3.7-3.8s-0.9-3.7-0.9-6.6v-2.5h9.1v4.6c0,1.4,0.1,2.3,0.4,2.7c0.3,0.4,0.7,0.6,1.4,0.6c0.7,0,1.1-0.3,1.5-0.8
			c0.3-0.5,0.5-1.3,0.5-2.3c0-2.2-0.3-3.7-0.9-4.4c-0.6-0.7-2.2-1.8-4.6-3.4c-2.4-1.6-4.1-2.8-4.9-3.5c-0.8-0.7-1.5-1.7-2-3
			c-0.5-1.3-0.8-2.9-0.8-4.9c0-2.9,0.4-5,1.1-6.3c0.7-1.3,1.9-2.4,3.6-3.1c1.6-0.8,3.6-1.1,6-1.1c2.6,0,4.7,0.4,6.5,1.2
			c1.8,0.8,3,1.9,3.6,3.1c0.6,1.3,0.9,3.4,0.9,6.4V468.4z"/>
		<path id="XMLID_103_" class="st1" d="M318.9,468.4h-9.1v-2.8c0-1.3-0.1-2.1-0.3-2.5c-0.2-0.4-0.6-0.5-1.2-0.5
			c-0.6,0-1,0.2-1.3,0.7c-0.3,0.5-0.5,1.2-0.5,2.2c0,1.3,0.2,2.2,0.5,2.8c0.3,0.6,1.3,1.4,2.8,2.3c4.4,2.6,7.1,4.7,8.3,6.4
			s1.7,4.3,1.7,8c0,2.7-0.3,4.7-0.9,5.9c-0.6,1.3-1.8,2.3-3.7,3.2c-1.8,0.9-3.9,1.3-6.3,1.3c-2.6,0-4.9-0.5-6.7-1.5
			c-1.9-1-3.1-2.3-3.7-3.8c-0.6-1.5-0.9-3.7-0.9-6.6v-2.5h9.1v4.6c0,1.4,0.1,2.3,0.4,2.7c0.3,0.4,0.7,0.6,1.4,0.6
			c0.7,0,1.1-0.3,1.5-0.8c0.3-0.5,0.5-1.3,0.5-2.3c0-2.2-0.3-3.7-0.9-4.4c-0.6-0.7-2.2-1.8-4.6-3.4c-2.4-1.6-4.1-2.8-4.9-3.5
			c-0.8-0.7-1.5-1.7-2-3c-0.5-1.3-0.8-2.9-0.8-4.9c0-2.9,0.4-5,1.1-6.3c0.7-1.3,1.9-2.4,3.6-3.1c1.6-0.8,3.6-1.1,6-1.1
			c2.6,0,4.7,0.4,6.5,1.2c1.8,0.8,3,1.9,3.6,3.1c0.6,1.3,0.9,3.4,0.9,6.4V468.4z"/>
		<path id="XMLID_100_" class="st1" d="M331.3,457h7.3c4.7,0,8,0.2,9.6,0.7c1.7,0.4,2.9,1.2,3.8,2.1c0.9,1,1.4,2.1,1.6,3.3
			c0.2,1.2,0.3,3.6,0.3,7.2v13.2c0,3.4-0.2,5.7-0.5,6.8c-0.3,1.1-0.9,2-1.7,2.7c-0.8,0.6-1.8,1.1-2.9,1.4c-1.2,0.3-2.9,0.4-5.3,0.4
			h-12.4V457z M341.1,463.4v24.8c1.4,0,2.3-0.3,2.6-0.9c0.3-0.6,0.5-2.1,0.5-4.6v-14.7c0-1.7-0.1-2.8-0.2-3.3
			c-0.1-0.5-0.4-0.8-0.7-1.1C342.9,463.5,342.1,463.4,341.1,463.4z"/>
		<path id="XMLID_98_" class="st1" d="M367.5,457v37.8h-9.8V457H367.5z"/>
		<path id="XMLID_96_" class="st1" d="M392.2,468.4h-9.1v-2.8c0-1.3-0.1-2.1-0.4-2.5c-0.2-0.4-0.6-0.5-1.2-0.5c-0.6,0-1,0.2-1.3,0.7
			c-0.3,0.5-0.5,1.2-0.5,2.2c0,1.3,0.2,2.2,0.5,2.8c0.3,0.6,1.3,1.4,2.8,2.3c4.4,2.6,7.1,4.7,8.3,6.4s1.7,4.3,1.7,8
			c0,2.7-0.3,4.7-0.9,5.9s-1.8,2.3-3.7,3.2c-1.8,0.9-3.9,1.3-6.3,1.3c-2.6,0-4.9-0.5-6.7-1.5c-1.9-1-3.1-2.3-3.7-3.8
			s-0.9-3.7-0.9-6.6v-2.5h9.1v4.6c0,1.4,0.1,2.3,0.4,2.7c0.3,0.4,0.7,0.6,1.4,0.6s1.1-0.3,1.5-0.8c0.3-0.5,0.5-1.3,0.5-2.3
			c0-2.2-0.3-3.7-0.9-4.4c-0.6-0.7-2.2-1.8-4.6-3.4c-2.4-1.6-4.1-2.8-4.9-3.5c-0.8-0.7-1.4-1.7-2-3c-0.5-1.3-0.8-2.9-0.8-4.9
			c0-2.9,0.4-5,1.1-6.3c0.7-1.3,1.9-2.4,3.6-3.1c1.6-0.8,3.6-1.1,6-1.1c2.6,0,4.7,0.4,6.5,1.2c1.8,0.8,3,1.9,3.6,3.1
			c0.6,1.3,0.9,3.4,0.9,6.4V468.4z"/>
		<path id="XMLID_93_" class="st1" d="M396.1,457h9.9c2.7,0,4.7,0.2,6.2,0.6c1.4,0.4,2.5,1,3.2,1.8c0.7,0.8,1.2,1.8,1.5,2.9
			c0.3,1.1,0.4,2.9,0.4,5.2v3.3c0,2.4-0.2,4.2-0.7,5.3c-0.5,1.1-1.4,2-2.7,2.5c-1.3,0.6-3.1,0.9-5.2,0.9h-2.6v15.2h-9.8V457z
			 M405.9,463.4v9.6c0.3,0,0.5,0,0.7,0c0.9,0,1.5-0.2,1.9-0.7c0.3-0.4,0.5-1.4,0.5-2.8v-3.1c0-1.3-0.2-2.1-0.6-2.5
			C408.1,463.6,407.2,463.4,405.9,463.4z"/>
		<path id="XMLID_91_" class="st1" d="M429.9,457v30.2h6v7.6h-15.8V457H429.9z"/>
		<path id="XMLID_88_" class="st1" d="M456.4,457l5.6,37.8h-10l-0.5-6.8H448l-0.6,6.8h-10.2l5-37.8H456.4z M451.2,481.2
			c-0.5-4.3-1-9.6-1.5-15.9c-1,7.2-1.6,12.5-1.9,15.9H451.2z"/>
		<path id="XMLID_86_" class="st1" d="M481.8,457l-7.2,24.1v13.7h-9.1v-13.7l-6.9-24.1h9c1.4,7.4,2.2,12.3,2.4,14.9
			c0.5-4,1.5-9,2.7-14.9H481.8z"/>
	</g>
</g>
</svg>
