<?xml version="1.0" encoding="utf-8"?>
<!-- Generator: Adobe Illustrator 19.0.0, SVG Export Plug-In . SVG Version: 6.00 Build 0)  -->
<svg version="1.1" id="Layer_1" xmlns="http://www.w3.org/2000/svg" xmlns:xlink="http://www.w3.org/1999/xlink" x="0px" y="0px"
	 viewBox="0 0 144 144" style="enable-background:new 0 0 144 144;" xml:space="preserve">
<style type="text/css">
	.st0{fill:#010101;}
</style>
<g id="XMLID_1_">
	<g id="XMLID_2_">
		<g id="XMLID_3_" transform="translate(0.000000,511.000000) scale(0.100000,-0.100000)">
			<path id="XMLID_4_" class="st0" d="M670.1,4743.4c-142.5-17.4-248.5-113.3-273.4-247.5c-3.3-17.4-3.8-28.2-4.5-99.7l-0.9-80.2
				l-10.3-3.1c-34.6-10.6-64.2-39.5-77.1-75.5l-5.4-15v-45.3c0-42.8,0.2-45.9,4-57.4c11.3-33.6,32.7-58.3,63.7-73.3
				c18.1-8.7,33.8-11.7,59-10.8c22.8,0.7,27.1,2.1,38.1,11.7c3.7,3.1,8.7,5.4,13.6,6.1c27.8,4,47,25.4,56.9,63.5
				c7.8,30.1,7.7,90.7-0.5,122.9c-6.1,23.8-20.5,44.9-36.4,53.3l-8,4.2l0.7,81.8c0.9,87.4,1.2,91.9,10.8,125.3
				c5.6,19.5,25.2,59.5,28.7,58.5c1.4-0.4,7.3-0.9,13.1-1.4c13.7-1.2,24.5,2.8,53.8,19.3c32.4,18.3,42.5,23.1,62.8,29.9
				c43.5,14.4,87,14.4,130.5,0c20.4-6.8,30.5-11.7,62.8-29.9c29.2-16.5,40-20.5,53.8-19.3c5.7,0.5,12.2,1.4,14.3,2.1
				c3.1,1,4.7-0.5,10.6-10.8c15.7-26.3,26.5-61.4,29.9-96.2c1.2-10.6,1.7-46.8,1.4-86.7l-0.5-68.4l-8.9-3.1
				c-24.5-8.2-40.9-31-48.9-68.1c-4-19-4.5-82.8-0.7-101.8c9-45.1,29.2-69.8,61.1-74.8c5.2-0.9,9.9-3.1,14.3-7.1
				c8.4-7.5,21.2-11.1,39.2-11.1c54.8,0,101.6,32.9,118.5,83.2c4.2,12.5,4.5,16,5.2,53.1c0.7,46.5-1,58-12.2,80.9
				c-12.2,24.9-38.3,49.1-62.7,58l-9.7,3.7l-0.9,81.1c-0.7,72.6-1.2,83.4-4.5,100.8c-17.9,96.4-77.3,173.9-165.5,216
				c-30.8,14.8-55.2,22.6-91.4,29.2C776.2,4744.5,691.7,4746.1,670.1,4743.4z M767.7,4710.5c56.2-5.7,109.3-26.1,150.9-57.8l9-7
				v-15.3c0-14.1-0.4-15.7-5.2-22.3c-2.8-4-7-8.4-9-9.7c-8.9-5.7-12.2-5.2-32,5.2c-87.7,45.9-101,50.1-157.3,50.1
				s-69.6-4.2-157.3-50.1c-19.8-10.4-23.1-11-32-5.2c-2.1,1.4-6.3,5.7-9,9.7c-4.9,6.6-5.2,8.2-5.2,22.5v15.3l13.4,9.7
				c43.7,31.8,91.5,49.3,153.7,55.3C701.8,4712.5,751.2,4712.1,767.7,4710.5z M497.6,4589.2l3.5-4.2l-7.1-11.7
				c-14.3-23.3-26.3-54.8-32.9-86.7c-3.5-15.7-3.8-24.4-4.5-95.9l-0.9-78.5l-5.6,2.3c-3.1,1.4-9.7,3-14.8,3.7l-9.1,1.2l0.7,81.1
				c0.5,75.4,0.9,82.3,4.4,97.3c9.2,40,27,78.5,49.4,107l5.2,6.6l4.2-8.9C492.4,4597.6,495.8,4591.7,497.6,4589.2z M977.3,4590.5
				c21.8-32.5,36.2-69.4,41.8-106.9c2.1-14.1,2.6-34.3,2.6-91.4v-73.3h-10.3c-5.7,0-11.5-0.5-12.9-1c-2.4-0.9-2.8,8.4-3.5,76.2
				c-0.5,71.4-0.9,78.3-4.5,94.2c-7.7,34.1-20.4,66.5-35.3,89.8l-6.1,9.2l5.7,9.7c3.3,5.4,5.9,10.8,5.9,12.2
				C960.7,4613.6,965.4,4608.4,977.3,4590.5z M1037.5,4284.1c13.4-2.6,32.4-12,43-21.8l9.1-8.2l-7.7-7.3c-4.4-4-9.7-11.1-11.8-15.8
				c-3.8-8.4-4-10.6-4-52.2v-43.5l4.9-9.9c2.6-5.4,8-12.7,11.8-16.2c6.8-6.1,7-6.4,4.4-10.3c-4.2-6.4-22.8-19.7-33.8-23.8
				c-7.7-3-14.6-4-30.5-4.7c-19.7-0.7-20.9-0.5-24.9,3.3l-4.2,3.8v99.4c0.2,104.3,0,102.3,7.8,106.9
				C1006,4286.2,1025.1,4286.4,1037.5,4284.1z M441.5,4280.3l4-3.7v-99.7c0-117,1.7-107.2-20-108.3c-26.1-1.4-47.9,6.3-66.1,22.8
				l-10.4,9.6l7.3,6.8c4,3.8,9.6,11.5,12.2,17.2c4.7,10.1,4.9,11,5.4,48c0.3,23.5-0.2,41.2-1.4,47.2c-2.3,11.1-8.4,21.2-16.5,27.3
				l-5.9,4.4l6.4,6.6c17.2,17.9,35.9,25.4,62.8,25.6C435.6,4284.1,437.9,4283.8,441.5,4280.3z M490.6,4253.8
				c2.6-3.8,5.7-9.4,6.8-12.4c10.8-27.8,11.8-91.7,1.9-123.7c-3.3-10.6-12.4-24.9-16.7-26.5c-1.7-0.5-2.3,17.4-2.3,85.6
				C480.4,4271.9,480,4269.5,490.6,4253.8z M959,4177.1c0-94.9,0.4-92.2-10.3-76.8c-11.1,16-14.8,35.9-14.8,78.5
				c0.2,34.5,2.4,50.7,9.2,66c3.3,7.7,11.7,18.5,14.3,18.5C958.3,4263.2,959,4227.7,959,4177.1z M339.4,4178
				c0-28.7-0.5-38.3-2.3-40.9c-4.4-5.7-5.6,0.5-6.1,33.2c-0.9,35.5,1.6,54.7,5.9,48.6C338.9,4216.2,339.4,4207.4,339.4,4178z
				 M1107.8,4178c0-20.5-0.7-39-1.4-40.9c-1.4-3.5-1.6-3.5-4-0.2c-3.3,4.5-3.7,79.2-0.4,82.5
				C1106.6,4223.9,1107.8,4215.6,1107.8,4178z"/>
		</g>
	</g>
</g>
</svg>
