<?xml version="1.0" encoding="utf-8"?>
<!-- Generator: Adobe Illustrator 19.0.0, SVG Export Plug-In . SVG Version: 6.00 Build 0)  -->
<svg version="1.1" id="Layer_1" xmlns="http://www.w3.org/2000/svg" xmlns:xlink="http://www.w3.org/1999/xlink" x="0px" y="0px"
	 viewBox="-71 145 144 144" style="enable-background:new -71 145 144 144;" xml:space="preserve">
<style type="text/css">
	.st0{fill:#010101;}
</style>
<g>
	<g id="XMLID_1_">
		<g id="XMLID_2_">
			<g id="XMLID_3_" transform="translate(0.000000,511.000000) scale(0.100000,-0.100000)">
				<path id="XMLID_4_" class="st0" d="M-53.8,3480.1c-182.1-22.2-317.5-144.8-349.3-316.3c-4.2-22.2-4.9-36-5.8-127.4L-410,2934
					l-13.2-4c-44.2-13.5-82-50.5-98.5-96.5l-6.9-19.2v-57.9c0-54.7,0.3-58.6,5.1-73.3c14.4-42.9,41.8-74.5,81.4-93.7
					c23.1-11.1,43.2-14.9,75.4-13.8c29.1,0.9,34.6,2.7,48.7,14.9c4.7,4,11.1,6.9,17.4,7.8c35.5,5.1,60.1,32.5,72.7,81.1
					c10,38.5,9.8,115.9-0.6,157c-7.8,30.4-26.2,57.4-46.5,68.1l-10.2,5.4l0.9,104.5c1.1,111.7,1.5,117.4,13.8,160.1
					c7.2,24.9,32.2,76,36.7,74.8c1.8-0.5,9.3-1.1,16.7-1.8c17.5-1.5,31.3,3.6,68.7,24.7c41.4,23.4,54.3,29.5,80.2,38.2
					c55.6,18.4,111.2,18.4,166.8,0c26.1-8.7,39-15,80.2-38.2c37.3-21.1,51.1-26.2,68.7-24.7c7.3,0.6,15.6,1.8,18.3,2.7
					c4,1.3,6-0.6,13.5-13.8c20.1-33.6,33.9-78.5,38.2-122.9c1.5-13.5,2.2-59.8,1.8-110.8l-0.6-87.4l-11.4-4
					c-31.3-10.5-52.3-39.6-62.5-87c-5.1-24.3-5.8-105.8-0.9-130.1c11.5-57.6,37.3-89.2,78.1-95.6c6.6-1.1,12.7-4,18.3-9.1
					c10.7-9.6,27.1-14.2,50.1-14.2c70,0,129.8,42,151.4,106.3c5.4,16,5.8,20.4,6.6,67.9c0.9,59.4-1.3,74.1-15.6,103.4
					c-15.6,31.8-48.9,62.7-80.1,74.1l-12.4,4.7l-1.2,103.6c-0.9,92.8-1.5,106.6-5.8,128.8c-22.9,123.2-98.8,222.2-211.5,276
					c-39.4,18.9-70.5,28.9-116.8,37.3C81.8,3481.5-26.2,3483.6-53.8,3480.1z M70.9,3438.1c71.8-7.3,139.7-33.4,192.8-73.9l11.5-8.9
					v-19.5c0-18-0.5-20.1-6.6-28.5c-3.6-5.1-8.9-10.7-11.5-12.4c-11.4-7.3-15.6-6.6-40.9,6.6c-112.1,58.6-129.1,64-201,64
					s-88.9-5.4-201-64c-25.3-13.3-29.5-14.1-40.9-6.6c-2.7,1.8-8.1,7.3-11.5,12.4c-6.3,8.4-6.6,10.5-6.6,28.8v19.5l17.1,12.4
					c55.8,40.6,116.9,63,196.4,70.7C-13.3,3440.6,49.8,3440.1,70.9,3438.1z M-274.2,3283.1l4.5-5.4l-9.1-15
					c-18.3-29.8-33.6-70-42-110.8c-4.5-20.1-4.9-31.2-5.8-122.5l-1.1-100.3l-7.2,2.9c-4,1.8-12.4,3.8-18.9,4.7l-11.6,1.5l0.9,103.6
					c0.6,96.3,1.1,105.2,5.6,124.3c11.8,51.1,34.5,100.3,63.1,136.7l6.6,8.4l5.4-11.4C-280.8,3293.8-276.5,3286.3-274.2,3283.1z
					 M338.8,3284.7c27.9-41.5,46.3-88.7,53.4-136.6c2.7-18,3.3-43.8,3.3-116.8v-93.7h-13.2c-7.3,0-14.7-0.6-16.5-1.3
					c-3.1-1.1-3.6,10.7-4.5,97.4c-0.6,91.2-1.2,100.1-5.8,120.4c-9.8,43.6-26.1,85-45.1,114.7l-7.8,11.8l7.3,12.4
					c4.2,6.9,7.5,13.8,7.5,15.6C317.5,3314.3,323.5,3307.6,338.8,3284.7z M415.7,2893.2c17.1-3.3,41.4-15.3,54.9-27.9l11.6-10.5
					l-9.8-9.3c-5.6-5.1-12.4-14.2-15.1-20.2c-4.9-10.7-5.1-13.5-5.1-66.7v-55.6l6.3-12.6c3.3-6.9,10.2-16.2,15.1-20.7
					c8.7-7.8,8.9-8.2,5.6-13.2c-5.4-8.2-29.1-25.2-43.2-30.4c-9.8-3.8-18.7-5.1-39-6c-25.2-0.9-26.7-0.6-31.8,4.2l-5.4,4.9v127
					c0.3,133.3,0,130.7,10,136.6C375.4,2895.9,399.8,2896.2,415.7,2893.2z M-345.9,2888.4l5.1-4.7v-127.4
					c0-149.5,2.2-137-25.6-138.4c-33.4-1.8-61.2,8.1-84.5,29.1l-13.3,12.3l9.3,8.7c5.1,4.9,12.3,14.7,15.6,22
					c6,12.9,6.3,14.1,6.9,61.3c0.4,30-0.3,52.6-1.8,60.3c-2.9,14.2-10.7,27.1-21.1,34.9l-7.5,5.6l8.2,8.4
					c22,22.9,45.9,32.5,80.2,32.7C-353.4,2893.2-350.5,2892.9-345.9,2888.4z M-283.1,2854.5c3.3-4.9,7.3-12,8.7-15.8
					c13.8-35.5,15.1-117.2,2.4-158.1c-4.2-13.5-15.8-31.8-21.3-33.9c-2.2-0.6-2.9,22.2-2.9,109.4
					C-296.2,2877.6-296.7,2874.6-283.1,2854.5z M315.4,2756.5c0-121.3,0.5-117.8-13.2-98.1c-14.2,20.4-18.9,45.9-18.9,100.3
					c0.3,44.1,3.1,64.8,11.8,84.3c4.2,9.8,15,23.6,18.3,23.6C314.5,2866.5,315.4,2821.2,315.4,2756.5z M-476.3,2757.7
					c0-36.7-0.6-48.9-2.9-52.3c-5.6-7.3-7.2,0.6-7.8,42.4c-1.1,45.4,2,69.9,7.5,62.1C-477,2806.5-476.3,2795.2-476.3,2757.7z
					 M505.5,2757.7c0-26.2-0.9-49.8-1.8-52.3c-1.8-4.5-2-4.5-5.1-0.3c-4.2,5.8-4.7,101.2-0.5,105.4
					C504,2816.3,505.5,2805.7,505.5,2757.7z"/>
			</g>
		</g>
	</g>
	<g>
		<path d="M-40.3,260.6v4h3.9v-4h2.3V271h-2.3v-4.4h-3.9v4.4h-2.4v-10.4H-40.3z"/>
		<path d="M-25.8,266.6h-3.8v2.5h4.3v1.9H-32v-10.4h6.4v1.9h-4.1v2.2h3.8V266.6z"/>
		<path d="M-21.4,268.3l-0.7,2.7h-2.4l3.2-10.4h3.1L-15,271h-2.5l-0.8-2.7H-21.4z M-18.7,266.6l-0.6-2.2c-0.2-0.6-0.4-1.4-0.5-2h0
			c-0.2,0.6-0.3,1.4-0.5,2l-0.6,2.2H-18.7z"/>
		<path d="M-13.6,260.7c0.9-0.1,2-0.2,3.2-0.2c2,0,3.3,0.4,4.3,1.1c1.1,0.8,1.8,2.1,1.8,3.9c0,2-0.7,3.4-1.7,4.2
			c-1.1,0.9-2.8,1.3-4.8,1.3c-1.2,0-2.1-0.1-2.7-0.2V260.7z M-11.3,269.2c0.2,0,0.5,0,0.8,0c2.1,0,3.5-1.2,3.5-3.6
			c0-2.2-1.3-3.3-3.3-3.3c-0.5,0-0.9,0-1.1,0.1V269.2z"/>
		<path d="M-2.9,260.7c0.7-0.1,1.7-0.2,3.2-0.2c1.5,0,2.5,0.3,3.2,0.8c0.7,0.5,1.1,1.4,1.1,2.4c0,1-0.3,1.9-1,2.5
			c-0.8,0.8-2,1.1-3.4,1.1c-0.3,0-0.6,0-0.8,0v3.7h-2.3V260.7z M-0.6,265.5c0.2,0,0.4,0.1,0.8,0.1c1.3,0,2-0.6,2-1.7
			c0-1-0.7-1.5-1.8-1.5c-0.5,0-0.8,0-1,0.1V265.5z"/>
		<path d="M8.4,260.6v4h3.9v-4h2.3V271h-2.3v-4.4H8.4v4.4H6.1v-10.4H8.4z"/>
		<path d="M26.3,265.7c0,3.4-2.1,5.5-5.1,5.5c-3.1,0-4.9-2.3-4.9-5.3c0-3.1,2-5.5,5.1-5.5C24.5,260.4,26.3,262.8,26.3,265.7z
			 M18.7,265.8c0,2,1,3.5,2.5,3.5c1.6,0,2.5-1.5,2.5-3.5c0-1.9-0.9-3.5-2.5-3.5C19.7,262.3,18.7,263.8,18.7,265.8z"/>
		<path d="M27.8,271v-10.4h2.8l2.2,3.8c0.6,1.1,1.2,2.4,1.7,3.6h0c-0.2-1.4-0.2-2.8-0.2-4.4v-3h2.2V271H34l-2.2-4
			c-0.6-1.1-1.3-2.5-1.8-3.7l0,0c0.1,1.4,0.1,2.8,0.1,4.5v3.1H27.8z"/>
		<path d="M44.7,266.6h-3.8v2.5h4.3v1.9h-6.6v-10.4h6.4v1.9h-4.1v2.2h3.8V266.6z"/>
	</g>
</g>
</svg>
