<?xml version="1.0" encoding="utf-8"?>
<!-- Generator: Adobe Illustrator 19.0.0, SVG Export Plug-In . SVG Version: 6.00 Build 0)  -->
<svg version="1.1" id="Layer_1" xmlns="http://www.w3.org/2000/svg" xmlns:xlink="http://www.w3.org/1999/xlink" x="0px" y="0px"
	 viewBox="-417 141 512 512" style="enable-background:new -417 141 512 512;" xml:space="preserve">
<style type="text/css">
	.st0{fill-rule:evenodd;clip-rule:evenodd;fill:#BD2F32;}
	.st1{fill:#FFFFFF;}
</style>
<g id="XMLID_29_">
	<rect id="XMLID_28_" x="-417" y="141" class="st0" width="512" height="512"/>
	<g id="XMLID_30_">
		<rect id="XMLID_31_" x="-344.7" y="580.2" class="st1" width="367.3" height="2.1"/>
	</g>
</g>
<g id="XMLID_1_">
	<g id="XMLID_2_">
		<g id="XMLID_3_" transform="translate(0.000000,511.000000) scale(0.100000,-0.100000)">
			<path id="XMLID_4_" class="st1" d="M-1843.3,3057.3c-666.1-81.2-1161.3-529.6-1277.6-1156.9c-15.4-81.2-17.9-131.7-21.2-466
				l-4-374.6l-48.3-14.6c-161.7-49.4-299.9-184.7-360.3-353L-3580,622V410.2c0-200.1,1.1-214.3,18.7-268.1
				c52.7-156.9,152.9-272.5,297.7-342.7c84.5-40.6,158-54.5,275.8-50.5c106.4,3.3,126.6,9.9,178.1,54.5
				c17.2,14.6,40.6,25.2,63.6,28.5c129.8,18.7,219.8,118.9,265.9,296.6c36.6,140.8,35.8,423.9-2.2,574.3
				c-28.5,111.2-95.8,210-170.1,249.1l-37.3,19.8l3.3,382.2c4,408.6,5.5,429.4,50.5,585.6c26.3,91.1,117.8,278,134.2,273.6
				c6.6-1.8,34-4,61.1-6.6c64-5.5,114.5,13.2,251.3,90.3c151.4,85.6,198.6,107.9,293.3,139.7c203.4,67.3,406.7,67.3,610.1,0
				c95.5-31.8,142.7-54.9,293.3-139.7c136.4-77.2,186.9-95.8,251.3-90.3c26.7,2.2,57.1,6.6,66.9,9.9c14.6,4.8,21.9-2.2,49.4-50.5
				c73.5-122.9,124-287.1,139.7-449.5c5.5-49.4,8-218.7,6.6-405.3l-2.2-319.7l-41.7-14.6C-637,938.4-713.8,832-751.1,658.6
				c-18.7-88.9-21.2-387-3.3-475.9C-712.3-27.9-618-143.5-468.7-166.9c24.1-4,46.5-14.6,66.9-33.3c39.1-35.1,99.1-51.9,183.3-51.9
				c256,0,474.8,153.6,553.8,388.8c19.8,58.5,21.2,74.6,24.1,248.4c3.3,217.3-4.8,271-57.1,378.2c-57.1,116.3-178.9,229.3-293,271
				l-45.4,17.2l-4.4,378.9c-3.3,339.4-5.5,389.9-21.2,471.1C-145.4,2352.1-423,2714.2-835.2,2911
				c-144.1,69.1-257.9,105.7-427.2,136.4C-1347.3,3062.5-1742.4,3070.1-1843.3,3057.3z M-1387.2,2903.7
				c262.6-26.7,511-122.2,705.2-270.3l42.1-32.6v-71.3c0-65.8-1.8-73.5-24.1-104.2c-13.2-18.7-32.6-39.1-42.1-45.4
				c-41.7-26.7-57.1-24.1-149.6,24.1c-410,214.3-472.2,234.1-735.2,234.1s-325.2-19.8-735.2-234.1c-92.5-48.6-107.9-51.6-149.6-24.1
				c-9.9,6.6-29.6,26.7-42.1,45.4c-23,30.7-24.1,38.4-24.1,105.3v71.3l62.5,45.4c204.1,148.5,427.6,230.4,718.4,258.6
				C-1695.2,2912.9-1464.4,2911-1387.2,2903.7z M-2649.5,2336.8l16.5-19.8l-33.3-54.9c-66.9-109-122.9-256-153.6-405.3
				c-16.5-73.5-17.9-114.1-21.2-448.1l-4-366.9l-26.3,10.6c-14.6,6.6-45.4,13.9-69.1,17.2l-42.4,5.5l3.3,378.9
				c2.2,352.2,4,384.8,20.5,454.7c43.2,186.9,126.2,366.9,230.8,500l24.1,30.7l19.8-41.7
				C-2673.6,2375.9-2657.9,2348.5-2649.5,2336.8z M-407.3,2342.6c102.1-151.8,169.4-324.4,195.3-499.6
				c9.9-65.8,12.1-160.2,12.1-427.2V1073h-48.3c-26.7,0-53.8-2.2-60.4-4.8c-11.3-4-13.2,39.1-16.5,356.3
				c-2.2,333.6-4.4,366.1-21.2,440.4c-35.8,159.5-95.5,310.9-165,419.5l-28.5,43.2l26.7,45.4c15.4,25.2,27.4,50.5,27.4,57.1
				C-485.2,2450.9-463.3,2426.4-407.3,2342.6z M-126,910.6c62.5-12.1,151.4-56,200.8-102l42.4-38.4l-35.8-34
				c-20.5-18.7-45.4-51.9-55.2-73.9c-17.9-39.1-18.7-49.4-18.7-244V214.9l23-46.1c12.1-25.2,37.3-59.3,55.2-75.7
				c31.8-28.5,32.6-30,20.5-48.3C86.5,14.8-0.2-47.3-51.8-66.4C-87.6-80.3-120.2-85-194.4-88.3c-92.2-3.3-97.7-2.2-116.3,15.4
				L-330.5-55v464.5c1.1,487.6,0,478.1,36.6,499.6C-273.4,920.5-184.2,921.6-126,910.6z M-2911.7,893.1l18.7-17.2v-466
				c0-546.8,8-501.1-93.6-506.2c-122.2-6.6-223.9,29.6-309.1,106.4l-48.6,45l34,31.8c18.7,17.9,45,53.8,57.1,80.5
				c21.9,47.2,23,51.6,25.2,224.2c1.5,109.7-1.1,192.4-6.6,220.6c-10.6,51.9-39.1,99.1-77.2,127.7l-27.4,20.5l30,30.7
				c80.5,83.8,167.9,118.9,293.3,119.6C-2939.2,910.6-2928.6,909.5-2911.7,893.1z M-2682,769.1c12.1-17.9,26.7-43.9,31.8-57.8
				c50.5-129.8,55.2-428.7,8.8-578.3c-15.4-49.4-57.8-116.3-77.9-124c-8-2.2-10.6,81.2-10.6,400.2
				C-2729.9,853.6-2731.8,842.6-2682,769.1z M-492.9,410.6c0-443.7,1.8-430.9-48.3-358.8c-51.9,74.6-69.1,167.9-69.1,366.9
				c1.1,161.3,11.3,237,43.2,308.3c15.4,35.8,54.9,86.3,66.9,86.3C-496.2,813-492.9,647.3-492.9,410.6z M-3388.7,415
				c0-134.2-2.2-178.9-10.6-191.3c-20.5-26.7-26.3,2.2-28.5,155.1c-4,166.1,7.3,255.7,27.4,227.1
				C-3391.3,593.5-3388.7,552.2-3388.7,415z M202.4,415c0-95.8-3.3-182.2-6.6-191.3c-6.6-16.5-7.3-16.5-18.7-1.1
				c-15.4,21.2-17.2,370.2-1.8,385.5C197,629.3,202.4,590.6,202.4,415z"/>
		</g>
	</g>
</g>
<g>
	<path d="M-293.4,600.4v12.8h12.4v-12.8h7.3v33.1h-7.3v-14h-12.4v14h-7.6v-33.1H-293.4z"/>
	<path d="M-247.2,619.5h-12.1v8h13.7v6.1H-267v-33.1h20.4v6.1h-13.1v7h12.1v6.1H-247.2z"/>
	<path d="M-233.2,624.9l-2.2,8.6h-7.7l10.2-33.1h9.9l10.2,33.1h-8l-2.5-8.6H-233.2z M-224.6,619.5l-1.9-7c-0.6-1.9-1.3-4.5-1.6-6.4
		l0,0c-0.6,1.9-1,4.5-1.6,6.4l-1.9,7H-224.6z"/>
	<path d="M-208.3,600.7c2.9-0.3,6.4-0.6,10.2-0.6c6.4,0,10.5,1.3,13.7,3.5c3.5,2.5,5.7,6.7,5.7,12.4c0,6.4-2.2,10.8-5.4,13.4
		c-3.5,2.9-8.9,4.1-15.3,4.1c-3.8,0-6.7-0.3-8.6-0.6v-32.2H-208.3z M-201,627.8c0.6,0,1.6,0,2.6,0c6.7,0,11.2-3.8,11.2-11.5
		c0-7-4.1-10.5-10.5-10.5c-1.6,0-2.9,0-3.5,0.3v21.7H-201z"/>
	<path d="M-174.2,600.7c2.2-0.3,5.4-0.6,10.2-0.6s8,1,10.2,2.5s3.5,4.5,3.5,7.6s-1,6.1-3.2,8c-2.6,2.5-6.4,3.5-10.8,3.5
		c-1,0-1.9,0-2.6,0v11.8h-7.3V600.7z M-166.9,616c0.6,0,1.3,0.3,2.6,0.3c4.1,0,6.4-1.9,6.4-5.4c0-3.2-2.2-4.8-5.7-4.8
		c-1.6,0-2.5,0-3.2,0.3C-166.9,606.4-166.9,616-166.9,616z"/>
	<path d="M-138.2,600.4v12.8h12.4v-12.8h7.3v33.1h-7.3v-14h-12.4v14h-7.3v-33.1H-138.2z"/>
	<path d="M-81.2,616.6c0,10.8-6.7,17.5-16.3,17.5c-9.9,0-15.6-7.3-15.6-16.9c0-9.9,6.4-17.5,16.3-17.5
		C-86.9,599.8-81.2,607.4-81.2,616.6z M-105.4,617c0,6.4,3.2,11.2,8,11.2c5.1,0,8-4.8,8-11.2c0-6.1-2.9-11.2-8-11.2
		C-102.2,605.8-105.4,610.6-105.4,617z"/>
	<path d="M-76.4,633.5v-33.1h8.9l7,12.1c1.9,3.5,3.8,7.7,5.4,11.5l0,0c-0.6-4.5-0.6-8.9-0.6-14v-9.6h7v33.1h-8l-7-12.8
		c-1.9-3.5-4.1-8-5.7-11.8l0,0c0.3,4.5,0.3,8.9,0.3,14.3v9.9h-7.3V633.5z"/>
	<path d="M-22.5,619.5h-12.1v8h13.7v6.1h-21v-33.1h20.4v6.1h-13.1v7h12.1C-22.5,613.5-22.5,619.5-22.5,619.5z"/>
</g>
<g>
	<path class="st1" d="M-299.1,600.4v12.8h12.4v-12.8h7.3v33.1h-7.3v-14h-12.4v14h-7.7v-33.1H-299.1z"/>
	<path class="st1" d="M-252.9,619.5H-265v8h13.7v6.1h-21.4v-33.1h20.4v6.1h-13.1v7h12.1v6.1H-252.9z"/>
	<path class="st1" d="M-238.9,624.9l-2.2,8.6h-7.6l10.2-33.1h9.9l10.2,33.1h-8l-2.6-8.6H-238.9z M-230.3,619.5l-1.9-7
		c-0.6-1.9-1.3-4.5-1.6-6.4l0,0c-0.6,1.9-1,4.5-1.6,6.4l-1.9,7H-230.3z"/>
	<path class="st1" d="M-214,600.7c2.9-0.3,6.4-0.6,10.2-0.6c6.4,0,10.5,1.3,13.7,3.5c3.5,2.5,5.7,6.7,5.7,12.4
		c0,6.4-2.2,10.8-5.4,13.4c-3.5,2.9-8.9,4.1-15.3,4.1c-3.8,0-6.7-0.3-8.6-0.6v-32.2H-214z M-206.7,627.8c0.6,0,1.6,0,2.6,0
		c6.7,0,11.2-3.8,11.2-11.5c0-7-4.1-10.5-10.5-10.5c-1.6,0-2.9,0-3.5,0.3v21.7H-206.7z"/>
	<path class="st1" d="M-179.9,600.7c2.2-0.3,5.4-0.6,10.2-0.6s8,1,10.2,2.5c2.2,1.6,3.5,4.5,3.5,7.6s-1,6.1-3.2,8
		c-2.6,2.5-6.4,3.5-10.8,3.5c-1,0-1.9,0-2.5,0v11.8h-7.3V600.7z M-172.6,616c0.6,0,1.3,0.3,2.5,0.3c4.1,0,6.4-1.9,6.4-5.4
		c0-3.2-2.2-4.8-5.7-4.8c-1.6,0-2.6,0-3.2,0.3C-172.6,606.4-172.6,616-172.6,616z"/>
	<path class="st1" d="M-143.9,600.4v12.8h12.4v-12.8h7.3v33.1h-7.3v-14h-12.4v14h-7.3v-33.1H-143.9z"/>
	<path class="st1" d="M-86.8,616.6c0,10.8-6.7,17.5-16.3,17.5c-9.9,0-15.6-7.3-15.6-16.9c0-9.9,6.4-17.5,16.3-17.5
		C-92.6,599.8-86.8,607.4-86.8,616.6z M-111,617c0,6.4,3.2,11.2,8,11.2c5.1,0,8-4.8,8-11.2c0-6.1-2.9-11.2-8-11.2
		C-107.9,605.8-111,610.6-111,617z"/>
	<path class="st1" d="M-82,633.5v-33.1h8.9l7,12.1c1.9,3.5,3.8,7.7,5.4,11.5l0,0c-0.6-4.5-0.6-8.9-0.6-14v-9.6h7v33.1h-8l-7-12.8
		c-1.9-3.5-4.1-8-5.7-11.8l0,0c0.3,4.5,0.3,8.9,0.3,14.3v9.9H-82V633.5z"/>
	<path class="st1" d="M-28.2,619.5h-12.1v8h13.7v6.1h-21v-33.1h20.4v6.1h-13.1v7h12.1C-28.2,613.5-28.2,619.5-28.2,619.5z"/>
</g>
</svg>
