<?xml version="1.0" encoding="utf-8"?>
<!-- Generator: Adobe Illustrator 19.0.0, SVG Export Plug-In . SVG Version: 6.00 Build 0)  -->
<svg version="1.1" id="Layer_1" xmlns="http://www.w3.org/2000/svg" xmlns:xlink="http://www.w3.org/1999/xlink" x="0px" y="0px"
	 viewBox="-161 239 288 316" style="enable-background:new -161 239 288 316;" xml:space="preserve">
<g>
	<path d="M35.3,531.5c-34.5,0-69.1,0-103.6,0c-3.2-1.4-4.3-3.9-4.2-7.4c0.2-4.9,0-9.7,0-14.9c-1.3,0-2.3,0-3.3,0
		c-6.1-0.1-7.8-1.7-7.8-7.8c0-15,0-30,0-45c0-8.5,0-17,0-25.6c-0.5,0.7-0.8,1.4-0.9,2.1c-4.9,23-9.8,46-14.5,69
		c-0.8,4-2,7.2-6.9,7.2c0,5-0.2,9.7,0.1,14.3c0.2,3.4-0.7,6.1-3.7,7.9c-8.5,0-17.1,0-25.6,0c-3.2-1.4-4.3-3.9-4.2-7.4
		c0.1-5,0-9.9,0-14.8c-4.6-1.3-6-3.2-5.2-7.7c1.2-7.5,2.5-14.9,3.8-22.4c8-46.4,16.1-92.9,24-139.3c0.8-4.8,2.8-8.2,6.5-11.3
		c13.6-11.2,27-22.6,40.5-34c0.8-0.7,1.6-1.6,2.1-2.6c3.9-7.8,7.7-15.6,11.8-23.3c1-1.9,2.6-3.5,4-5.2c23.7,0,47.5,0,71.2,0
		c1,1.2,2.4,2.3,3.1,3.7c4.2,8.1,8.1,16.4,12.3,24.5c0.6,1.2,1.6,2.3,2.6,3.2c14.3,12.1,28.7,24.1,42.9,36.3c1.3,1.1,2.6,3,2.9,4.7
		c3.8,21.1,7.4,42.2,11,63.3c6,34.4,11.9,68.8,17.9,103.2c0.5,3.1-0.8,5.7-3.8,6.5c-1.6,0.4-1.8,1.2-1.8,2.6c0,4.2-0.1,8.4,0,12.6
		c0.1,3.3-0.9,5.9-4,7.6c-8.5,0-17.1,0-25.6,0c-3.1-1.6-4.2-4.1-4-7.5c0.2-3,0-5.9,0-8.9c0-2,0-3.9,0-5.8c-4.5-0.7-5.7-1.8-6.5-5.7
		c-3.9-18.3-7.7-36.6-11.6-54.9c-1.2-5.8-2.5-11.7-3.7-17.5c-0.2,0-0.3,0-0.5,0.1c0,0.9,0,1.9,0,2.8c0,16.8,0,33.7,0,50.5
		c0,6.1,0,12.2,0,18.3c0,4-2,6.1-6,6.4c-1.6,0.1-3.2,0-5.2,0c0,5.2-0.1,10,0,14.7C39.4,527.3,38.4,529.9,35.3,531.5z M39.3,497.9
		c0-1.3,0-2.5,0-3.7c0-39.3,0-78.7,0-118c0-3.8,1.7-6.1,4.8-6.4c3.3-0.4,5.7,1.4,6.4,5.1c8.2,38.9,16.5,77.9,24.7,116.8
		c1.3,6.4,1.3,6.4,7.6,6.4c4.7,0,9.4,0,14.1,0c0.8,0,1.7,0,2.7,0c-1.8-10.4-3.5-20.4-5.2-30.5c-7.3-42-14.5-83.9-21.9-125.9
		c-0.3-1.5-1.3-3.3-2.5-4.3c-9.2-7.9-18.5-15.7-27.8-23.5c-3.1-2.6-6.2-5.2-9.6-8c-1.6,3.2-3.2,6.1-4.5,9.1c-1.2,2.6-3.1,4-5.9,4.6
		c-12,2.9-24,6-36,8.9c-2.3,0.6-2.9,1.5-2.9,3.8c0.1,54.1,0.1,108.2,0.1,162.3c0,1.1,0,2.2,0,3.3C2.2,497.9,20.6,497.9,39.3,497.9z
		 M-27.9,328.9c-9.3-3.1-18.6-6.3-28-9.3c-2.7-0.9-4.5-2.4-5.7-5c-1.3-2.9-2.9-5.7-4.4-8.7c-0.9,0.7-1.6,1.3-2.4,1.9
		c-11.7,9.9-23.5,19.7-35.2,29.7c-1.1,0.9-2,2.4-2.3,3.8c-3.5,19.6-6.8,39.3-10.2,58.9c-4.6,26.8-9.3,53.6-13.9,80.3
		c-1,5.7-2,11.4-2.9,17.3c7.8,0,15.4,0,23,0c0.2-0.7,0.4-1.2,0.6-1.8c6.1-29.1,12.3-58.3,18.4-87.4c2.4-11.4,4.8-22.8,7.3-34.2
		c0.7-3.4,3-5,6.2-4.7c3.1,0.3,4.8,2.6,4.8,6.6c0,39.5,0,79,0,118.5c0,1,0,2,0,3.1c15,0,29.7,0,44.6,0
		C-27.9,441.6-27.9,385.5-27.9,328.9z M-61.1,520.3c29.8,0,59.3,0,89,0c0-3.7,0-7.2,0-10.8c-29.7,0-59.3,0-89,0
		C-61.1,513.1-61.1,516.6-61.1,520.3z M-41,274.7c6.6,13.2,13.1,26.1,19.7,39.4C-12.1,300.9-3,288,6.2,274.7
		C-9.8,274.7-25.2,274.7-41,274.7z M-9,315.9c9.3-2.3,17.9-4.5,26.5-6.7c0.8-0.2,1.5-1.1,1.9-1.8c1.5-2.8,3-5.7,4.3-8.6
		c0.3-0.7,0.7-1.8,0.5-2.4c-2.6-5.4-5.3-10.6-8.1-16.3C7.7,292-0.4,303.6-9,315.9z M-33.2,315.3c-5.8-11.5-11.2-22.4-16.9-33.7
		c-2.5,5-4.8,9.6-7.1,14.1c-0.2,0.4-0.6,0.9-0.5,1.2c2.1,4.2,4.4,8.4,6.6,12.6C-45.3,311.3-39.6,313.2-33.2,315.3z M-117.2,520.3
		c0-3.9,0-7.4,0-11c-3.7,0-7.2,0-10.7,0c0,3.8,0,7.4,0,11C-124.3,520.3-120.8,520.3-117.2,520.3z M94.8,520.3c0-3.8,0-7.4,0-11
		c-3.7,0-7.2,0-10.7,0c0,3.8,0,7.3,0,11C87.7,520.3,91.1,520.3,94.8,520.3z"/>
	<path d="M0.2,454.1c0.1-3.1,1.2-4.8,3.3-5.8c2.2-1,4.3-0.6,6,1c2.4,2.3,4.7,4.6,7.1,7c5.1,5.1,10.2,10.1,15.1,15.2
		c3.3,3.4,2.1,8.6-2.3,9.4c-1.7,0.3-4.2-0.4-5.4-1.5c-7.5-7.2-14.8-14.5-22-22C1,456.4,0.5,454.8,0.2,454.1z"/>
	<path d="M27.9,364.2c0,3.6,0,7,0,10.7c-11,0-22,0-33.2,0c0-3.5,0-7,0-10.7C5.7,364.2,16.7,364.2,27.9,364.2z"/>
	<path d="M-66.9,474.9c0.5-0.8,1-2.4,2.1-3.5c7.1-7.2,14.2-14.4,21.4-21.5c2.7-2.7,6-2.8,8.4-0.4c2.4,2.4,2.2,5.6-0.5,8.3
		c-7.1,7.2-14.3,14.3-21.5,21.5c-1.8,1.8-3.9,2.6-6.4,1.5C-65.6,479.8-66.7,478.1-66.9,474.9z"/>
</g>
</svg>
