<?xml version="1.0" encoding="utf-8"?>
<!-- Generator: Adobe Illustrator 19.0.0, SVG Export Plug-In . SVG Version: 6.00 Build 0)  -->
<svg version="1.1" id="Layer_1" xmlns="http://www.w3.org/2000/svg" xmlns:xlink="http://www.w3.org/1999/xlink" x="0px" y="0px"
	 viewBox="-265 164.9 512 512" style="enable-background:new -265 164.9 512 512;" xml:space="preserve">
<g>
	<g>
		<path d="M62.5,551.1c-48.1,0-96.3,0-144.3,0c-4.5-2-5.9-5.4-5.8-10.3c0.3-6.8,0-13.5,0-20.7c-1.9,0-3.3,0-4.5,0
			c-8.6-0.2-10.9-2.3-10.9-10.9c0-20.8,0-41.7,0-62.7c0-11.8,0-23.8,0-35.8c-0.8,0.9-1.1,2-1.2,3c-6.8,32-13.5,64.1-20.1,96.1
			c-1.1,5.6-2.6,10-9.6,10c0,6.8-0.3,13.5,0.2,19.9c0.3,4.7-0.9,8.6-5.1,11c-11.8,0-23.8,0-35.8,0c-4.5-2-5.9-5.4-5.8-10.3
			c0.2-6.8,0-13.8,0-20.7c-6.4-1.9-8.4-4.5-7.3-10.7c1.6-10.6,3.4-20.7,5.3-31.3c11-64.5,22.6-129.6,33.4-194.1
			c1.1-6.7,4-11.4,9-15.7c18.8-15.6,37.5-31.6,56.5-47.3c1.1-0.9,2.2-2.2,3-3.6c5.4-10.9,10.7-21.8,16.5-32.5
			c1.4-2.6,3.6-4.8,5.6-7.3c33,0,66.3,0,99.2,0c1.4,1.6,3.3,3.3,4.4,5.1c5.8,11.2,11.2,22.9,17.1,34.1c0.9,1.6,2.2,3.3,3.6,4.5
			c19.9,16.8,40,33.6,59.9,50.5c1.9,1.4,3.6,4.2,4,6.5c5.3,29.4,10.3,58.8,15.2,88.2c8.4,47.9,16.5,95.8,24.9,143.9
			c0.8,4.4-1.1,7.9-5.3,9c-2.2,0.5-2.5,1.6-2.5,3.6c0,5.8-0.2,11.8,0,17.6c0.2,4.5-1.2,8.1-5.6,10.6c-11.8,0-23.8,0-35.8,0
			c-4.4-2.2-5.8-5.6-5.6-10.6c0.3-4.2,0-8.1,0-12.3c0-2.6,0-5.4,0-8.1c-6.4-0.9-7.9-2.5-9-7.9c-5.4-25.5-10.7-51-16.2-76.5
			c-1.6-8.1-3.4-16.3-5.1-24.3c-0.3,0-0.3,0-0.8,0.2c0,1.2,0,2.6,0,4c0,23.3,0,47,0,70.3c0,8.6,0,17.1,0,25.5c0,5.6-2.6,8.6-8.4,8.9
			c-2.2,0.2-4.5,0-7.3,0c0,7.3-0.2,14,0,20.5C68.1,545.3,66.9,548.9,62.5,551.1z M68.1,504.3c0-1.9,0-3.4,0-5.1
			c0-54.7,0-109.5,0-164.2c0-5.3,2.3-8.6,6.7-8.9c4.5-0.5,7.9,2,8.9,7c11.4,54.3,23,108.4,34.5,162.7c1.9,8.9,1.9,8.9,10.6,8.9
			c6.5,0,13.1,0,19.6,0c1.1,0,2.3,0,3.7,0c-2.5-14.5-4.8-28.5-7.3-42.5c-10.1-58.6-20.1-116.8-30.5-175.4c-0.3-2.2-1.9-4.5-3.4-5.9
			c-12.9-11-25.8-21.9-38.9-32.7c-4.4-3.6-8.7-7.3-13.4-11c-2.2,4.5-4.5,8.6-6.4,12.8c-1.6,3.6-4.4,5.6-8.1,6.4
			c-16.6,4-33.4,8.4-50.2,12.3c-3.3,0.9-4,2.2-4,5.3C-10,349.2-10,424.5-10,499.9c0,1.4,0,3.1,0,4.5C16.5,504.3,42,504.3,68.1,504.3
			z M-25.5,268.9c-12.9-4.4-26-8.7-39-12.9c-3.7-1.2-6.4-3.3-7.9-6.8c-1.9-4-4-7.9-6.2-12.1c-1.2,0.9-2.2,1.9-3.3,2.6
			c-16.3,13.8-32.7,27.4-49,41.4c-1.4,1.2-2.6,3.3-3.3,5.3c-4.8,27.4-9.5,54.7-14.2,82c-6.4,37.3-12.9,74.7-19.4,111.8
			c-1.4,7.9-2.6,16-4,24.1c10.9,0,21.5,0,32,0c0.3-0.9,0.5-1.6,0.9-2.5c8.6-40.6,17.1-81.2,25.5-121.6c3.3-16,6.7-31.7,10.1-47.7
			c0.9-4.7,4.2-6.8,8.7-6.5c4.4,0.3,6.7,3.6,6.7,9.2c0,54.9,0,110.1,0,165c0,1.4,0,2.6,0,4.4c20.8,0,41.4,0,62.2,0
			C-25.5,426-25.5,347.8-25.5,268.9z M-71.7,535.5c41.5,0,82.6,0,124.1,0c0-5.1,0-10,0-15.1c-41.4,0-82.6,0-124.1,0
			C-71.7,525.6-71.7,530.4-71.7,535.5z M-43.7,193.5c9.2,18.4,18.4,36.2,27.4,54.9c12.9-18.4,25.5-36.2,38.3-54.9
			C-0.2,193.5-21.8,193.5-43.7,193.5z M0.9,250.7c12.9-3.3,24.9-6.4,37-9.2c1.1-0.3,2.2-1.4,2.6-2.5c2.2-4,4.2-7.9,5.9-12
			c0.3-0.9,0.9-2.5,0.8-3.3c-3.6-7.5-7.5-14.6-11.2-22.7C24.1,217.6,12.7,233.8,0.9,250.7z M-32.8,250c-8.1-16-15.6-31.3-23.6-47
			c-3.4,6.8-6.7,13.4-10,19.6c-0.3,0.5-0.9,1.2-0.8,1.6c3,5.8,6.2,11.8,9.2,17.6C-49.8,244.4-41.7,247.2-32.8,250z M-149.8,535.5
			c0-5.4,0-10.3,0-15.2c-5.1,0-10,0-14.9,0c0,5.3,0,10.3,0,15.2C-159.9,535.5-154.9,535.5-149.8,535.5z M145.4,535.5
			c0-5.3,0-10.3,0-15.2c-5.1,0-10,0-14.9,0c0,5.3,0,10.1,0,15.2C135.5,535.5,140.3,535.5,145.4,535.5z"/>
		<path d="M13.5,443.3c0.2-4.4,1.6-6.7,4.5-8.1c3.1-1.4,5.9-0.9,8.4,1.4c3.3,3.3,6.5,6.4,10,9.8c7,7,14.2,14.2,21,21.2
			c4.5,4.7,3,12-3.3,13.1c-2.3,0.3-5.8-0.5-7.5-2.2c-10.6-10-20.7-20.1-30.6-30.6C14.8,446.6,14.1,444.2,13.5,443.3z"/>
		<path d="M52.3,318.1c0,5.1,0,9.8,0,14.9c-15.2,0-30.6,0-46.2,0c0-4.8,0-9.8,0-14.9C21.3,318.1,36.5,318.1,52.3,318.1z"/>
		<path d="M-79.8,472.4c0.8-1.1,1.4-3.3,3-4.8c10-10,19.8-20.1,29.7-29.9c3.7-3.7,8.4-4,11.8-0.5c3.4,3.6,3.1,7.8-0.8,11.7
			c-10,10-19.9,19.9-29.9,29.9c-2.5,2.5-5.4,3.6-8.9,2.2C-78.1,479.1-79.5,476.7-79.8,472.4z"/>
	</g>
	<g>
		<path d="M-152.9,597.1h14.9v41.7c0,18.8-9,25.4-23.6,25.4c-3.4,0-7.9-0.5-10.9-1.6l1.6-12.1c2,0.8,4.7,1.1,7.6,1.1
			c6.4,0,10.1-3,10.1-13.2v-41.2H-152.9z"/>
		<path d="M-110.1,646.2l-4.7,17.1h-15.4l20.1-66.3h19.6l20.5,66.3h-16.2l-5.1-17.1H-110.1z M-93.3,635.2l-4.2-14
			c-1.1-4-2.3-8.9-3.3-12.8h-0.2c-0.9,4-2,8.9-3.1,12.8l-4,14H-93.3z"/>
		<path d="M-14.9,661.5c-2.6,1.4-8.9,3-17.1,3c-22.9,0-34.7-14.3-34.7-33.1c0-22.6,16.2-35.1,36.1-35.1c7.8,0,13.5,1.6,16.3,3
			l-3.1,11.8c-3.1-1.2-7.3-2.5-12.4-2.5c-11.8,0-21,7.3-21,21.9c0,13.2,7.8,21.6,21.2,21.6c4.5,0,9.5-0.9,12.4-2.2L-14.9,661.5z"/>
		<path d="M-5.1,597.1H9.8v29.2h0.3c1.4-2.5,3.1-4.8,4.5-7.3l15.1-21.9h18.4l-21.9,28.1l23,37.9H31.7l-16.2-28.5l-5.6,6.8v21.6H-5
			v-65.9h-0.2V597.1z"/>
		<path d="M94.4,635.4H70.1v15.9h27.2v12.3H55.1v-66.3h40.7v12.3H70.1v13.8h24.3V635.4z"/>
		<path d="M120.7,609.7H103v-12.4h50.9v12.4h-18.2v53.5h-15.1v-53.5H120.7z"/>
	</g>
</g>
</svg>
