<?xml version="1.0" encoding="utf-8"?>
<!-- Generator: Adobe Illustrator 19.0.0, SVG Export Plug-In . SVG Version: 6.00 Build 0)  -->
<svg version="1.1" id="Layer_1" xmlns="http://www.w3.org/2000/svg" xmlns:xlink="http://www.w3.org/1999/xlink" x="0px" y="0px"
	 viewBox="-49 141 512 512" style="enable-background:new -49 141 512 512;" xml:space="preserve">
<style type="text/css">
	.st0{fill-rule:evenodd;clip-rule:evenodd;fill:#BD2F32;}
	.st1{fill:#FFFFFF;}
</style>
<g id="XMLID_29_">
	<rect id="XMLID_28_" x="-49" y="141" class="st0" width="512" height="512"/>
	<g id="XMLID_30_">
		<rect id="XMLID_31_" x="23.3" y="580.2" class="st1" width="367.3" height="2.1"/>
	</g>
</g>
<g>
	<path class="st1" d="M278.5,543.5c-48.1,0-96.3,0-144.3,0c-4.5-2-5.9-5.4-5.8-10.3c0.3-6.8,0-13.5,0-20.7c-1.9,0-3.3,0-4.5,0
		c-8.6-0.2-10.9-2.3-10.9-10.9c0-20.8,0-41.7,0-62.7c0-11.8,0-23.8,0-35.8c-0.8,0.9-1.1,2-1.2,3c-6.8,32-13.5,64.1-20.1,96.1
		c-1.1,5.6-2.6,10-9.6,10c0,6.8-0.3,13.5,0.2,19.9c0.3,4.7-0.9,8.6-5.1,11c-11.8,0-23.8,0-35.8,0c-4.5-2-5.9-5.4-5.8-10.3
		c0.2-6.8,0-13.8,0-20.7c-6.4-1.9-8.4-4.5-7.3-10.7c1.6-10.6,3.4-20.7,5.3-31.3c11-64.5,22.6-129.6,33.4-194.1
		c1.1-6.7,4-11.4,9-15.7c18.8-15.6,37.5-31.6,56.5-47.3c1.1-0.9,2.2-2.2,3-3.6c5.4-10.9,10.7-21.8,16.5-32.5
		c1.4-2.6,3.6-4.8,5.6-7.3c33,0,66.3,0,99.2,0c1.4,1.6,3.3,3.3,4.4,5.1c5.8,11.2,11.2,22.9,17.1,34.1c0.9,1.6,2.2,3.3,3.6,4.5
		c19.9,16.8,40,33.6,59.9,50.5c1.9,1.4,3.6,4.2,4,6.5c5.3,29.4,10.3,58.8,15.2,88.2c8.4,47.9,16.5,95.8,24.9,143.9
		c0.8,4.4-1.1,7.9-5.3,9c-2.2,0.5-2.5,1.6-2.5,3.6c0,5.8-0.2,11.8,0,17.6c0.2,4.5-1.2,8.1-5.6,10.6c-11.8,0-23.8,0-35.8,0
		c-4.4-2.2-5.8-5.6-5.6-10.6c0.3-4.2,0-8.1,0-12.3c0-2.6,0-5.4,0-8.1c-6.4-0.9-7.9-2.5-9-7.9c-5.4-25.5-10.7-51-16.2-76.5
		c-1.6-8.1-3.4-16.3-5.1-24.3c-0.3,0-0.3,0-0.8,0.2c0,1.2,0,2.6,0,4c0,23.3,0,47,0,70.3c0,8.6,0,17.1,0,25.5c0,5.6-2.6,8.6-8.4,8.9
		c-2.2,0.2-4.5,0-7.3,0c0,7.3-0.2,14,0,20.5C284.1,537.8,282.9,541.4,278.5,543.5z M284.1,496.8c0-1.9,0-3.4,0-5.1
		c0-54.7,0-109.5,0-164.2c0-5.3,2.3-8.6,6.7-8.9c4.5-0.5,7.9,2,8.9,7c11.4,54.3,23,108.4,34.5,162.7c1.9,8.9,1.9,8.9,10.6,8.9
		c6.5,0,13.1,0,19.6,0c1.1,0,2.3,0,3.7,0c-2.5-14.5-4.8-28.5-7.3-42.5c-10.1-58.6-20.1-116.8-30.5-175.4c-0.3-2.2-1.9-4.5-3.4-5.9
		c-12.9-11-25.8-21.9-38.9-32.7c-4.4-3.6-8.7-7.3-13.4-11c-2.2,4.5-4.5,8.6-6.4,12.8c-1.6,3.6-4.4,5.6-8.1,6.4
		c-16.6,4-33.4,8.4-50.2,12.3c-3.3,0.9-4,2.2-4,5.3C206,341.7,206,417,206,492.4c0,1.4,0,3.1,0,4.5
		C232.5,496.8,258,496.8,284.1,496.8z M190.5,261.4c-12.9-4.4-26-8.7-39-12.9c-3.7-1.2-6.4-3.3-7.9-6.8c-1.9-4-4-7.9-6.2-12.1
		c-1.2,0.9-2.2,1.9-3.3,2.6c-16.3,13.8-32.7,27.4-49,41.4c-1.4,1.2-2.6,3.3-3.3,5.3c-4.8,27.4-9.5,54.7-14.2,82
		c-6.4,37.3-12.9,74.7-19.4,111.8c-1.4,7.9-2.6,16-4,24.1c10.9,0,21.5,0,32,0c0.3-0.9,0.5-1.6,0.9-2.5
		c8.6-40.6,17.1-81.2,25.5-121.6c3.3-16,6.7-31.7,10.1-47.7c0.9-4.7,4.2-6.8,8.7-6.5c4.4,0.3,6.7,3.6,6.7,9.2c0,54.9,0,110.1,0,165
		c0,1.4,0,2.6,0,4.4c20.8,0,41.4,0,62.2,0C190.5,418.5,190.5,340.3,190.5,261.4z M144.3,528c41.5,0,82.6,0,124.1,0
		c0-5.1,0-10,0-15.1c-41.4,0-82.6,0-124.1,0C144.3,518,144.3,522.9,144.3,528z M172.3,186c9.2,18.4,18.4,36.2,27.4,54.9
		c12.9-18.4,25.5-36.2,38.3-54.9C215.8,186,194.2,186,172.3,186z M216.9,243.2c12.9-3.3,24.9-6.4,37-9.2c1.1-0.3,2.2-1.4,2.6-2.5
		c2.2-4,4.2-7.9,5.9-12c0.3-0.9,0.9-2.5,0.8-3.3c-3.6-7.5-7.5-14.6-11.2-22.7C240.1,210.1,228.7,226.3,216.9,243.2z M183.2,242.5
		c-8.1-16-15.6-31.3-23.6-47c-3.4,6.8-6.7,13.4-10,19.6c-0.3,0.5-0.9,1.2-0.8,1.6c3,5.8,6.2,11.8,9.2,17.6
		C166.2,236.9,174.3,239.7,183.2,242.5z M66.2,528c0-5.4,0-10.3,0-15.2c-5.1,0-10,0-14.9,0c0,5.3,0,10.3,0,15.2
		C56.1,528,61.1,528,66.2,528z M361.4,528c0-5.3,0-10.3,0-15.2c-5.1,0-10,0-14.9,0c0,5.3,0,10.1,0,15.2
		C351.5,528,356.3,528,361.4,528z"/>
	<path class="st1" d="M229.5,435.8c0.2-4.4,1.6-6.7,4.5-8.1c3.1-1.4,5.9-0.9,8.4,1.4c3.3,3.3,6.5,6.4,10,9.8c7,7,14.2,14.2,21,21.2
		c4.5,4.7,3,12-3.3,13.1c-2.3,0.3-5.8-0.5-7.5-2.2c-10.6-10-20.7-20.1-30.6-30.6C230.8,439.1,230.1,436.7,229.5,435.8z"/>
	<path class="st1" d="M268.3,310.6c0,5.1,0,9.8,0,14.9c-15.2,0-30.6,0-46.2,0c0-4.8,0-9.8,0-14.9
		C237.3,310.6,252.5,310.6,268.3,310.6z"/>
	<path class="st1" d="M136.2,464.9c0.8-1.1,1.4-3.3,3-4.8c10-10,19.8-20.1,29.7-29.9c3.7-3.7,8.4-4,11.8-0.5
		c3.4,3.6,3.1,7.8-0.8,11.7c-10,10-19.9,19.9-29.9,29.9c-2.5,2.5-5.4,3.6-8.9,2.2C137.9,471.6,136.5,469.2,136.2,464.9z"/>
</g>
<g>
	<path d="M117.1,598.5h9.3v26.1c0,11.8-5.6,15.9-14.8,15.9c-2.1,0-4.9-0.3-6.8-1l1-7.6c1.3,0.5,2.9,0.7,4.8,0.7c4,0,6.3-1.9,6.3-8.3
		v-25.8L117.1,598.5L117.1,598.5z"/>
	<path d="M143.9,629.2l-2.9,10.7h-9.6l12.6-41.5h12.3l12.8,41.5h-10.1l-3.2-10.7H143.9z M154.4,622.3l-2.6-8.8
		c-0.7-2.5-1.4-5.6-2.1-8h-0.1c-0.6,2.5-1.3,5.6-1.9,8l-2.5,8.8H154.4z"/>
	<path d="M203.5,638.8c-1.6,0.9-5.6,1.9-10.7,1.9c-14.3,0-21.7-9-21.7-20.7c0-14.1,10.1-22,22.6-22c4.9,0,8.5,1,10.2,1.9l-1.9,7.4
		c-1.9-0.8-4.6-1.6-7.8-1.6c-7.4,0-13.1,4.6-13.1,13.7c0,8.3,4.9,13.5,13.3,13.5c2.8,0,5.9-0.6,7.8-1.4L203.5,638.8z"/>
	<path d="M209.6,598.5h9.3v18.3h0.2c0.9-1.6,1.9-3,2.8-4.6l9.5-13.7h11.5L229.2,616l14.4,23.7h-11l-10.1-17.8l-3.5,4.3v13.5h-9.3
		L209.6,598.5L209.6,598.5L209.6,598.5L209.6,598.5z"/>
	<path d="M271.9,622.4h-15.2v10h17v7.7h-26.4v-41.5h25.5v7.7h-16.1v8.6h15.2C271.9,614.9,271.9,622.4,271.9,622.4z"/>
	<path d="M288.4,606.3h-11.1v-7.8h31.9v7.8h-11.4v33.5h-9.5L288.4,606.3L288.4,606.3z"/>
</g>
<g>
	<path class="st1" d="M111.4,598.5h9.3v26.1c0,11.8-5.6,15.9-14.8,15.9c-2.1,0-4.9-0.3-6.8-1l1-7.6c1.3,0.5,2.9,0.7,4.8,0.7
		c4,0,6.3-1.9,6.3-8.3v-25.8L111.4,598.5L111.4,598.5z"/>
	<path class="st1" d="M138.2,629.2l-2.9,10.7h-9.6l12.6-41.5h12.3l12.8,41.5h-10.1l-3.2-10.7H138.2z M148.7,622.3l-2.6-8.8
		c-0.7-2.5-1.4-5.6-2.1-8h-0.1c-0.6,2.5-1.3,5.6-1.9,8l-2.5,8.8H148.7z"/>
	<path class="st1" d="M197.8,638.8c-1.6,0.9-5.6,1.9-10.7,1.9c-14.3,0-21.7-9-21.7-20.7c0-14.1,10.1-22,22.6-22
		c4.9,0,8.5,1,10.2,1.9l-1.9,7.4c-1.9-0.8-4.6-1.6-7.8-1.6c-7.4,0-13.1,4.6-13.1,13.7c0,8.3,4.9,13.5,13.3,13.5
		c2.8,0,5.9-0.6,7.8-1.4L197.8,638.8z"/>
	<path class="st1" d="M204,598.5h9.3v18.3h0.2c0.9-1.6,1.9-3,2.8-4.6l9.5-13.7h11.5L223.6,616l14.4,23.7h-11l-10.1-17.8l-3.5,4.3
		v13.5H204L204,598.5L204,598.5L204,598.5L204,598.5z"/>
	<path class="st1" d="M266.3,622.4H251v10h17v7.7h-26.4v-41.5h25.5v7.7H251v8.6h15.2C266.3,614.9,266.3,622.4,266.3,622.4z"/>
	<path class="st1" d="M282.7,606.3h-11.1v-7.8h31.9v7.8h-11.4v33.5h-9.5L282.7,606.3L282.7,606.3z"/>
</g>
</svg>
