<?xml version="1.0" encoding="utf-8"?>
<!-- Generator: Adobe Illustrator 19.0.0, SVG Export Plug-In . SVG Version: 6.00 Build 0)  -->
<svg version="1.1" id="Layer_1" xmlns="http://www.w3.org/2000/svg" xmlns:xlink="http://www.w3.org/1999/xlink" x="0px" y="0px"
	 viewBox="-91 141 512 512" style="enable-background:new -91 141 512 512;" xml:space="preserve">
<style type="text/css">
	.st0{fill-rule:evenodd;clip-rule:evenodd;fill:#BD2F32;}
	.st1{fill:#FFFFFF;}
</style>
<g id="XMLID_29_">
	<rect id="XMLID_28_" x="-91" y="141" class="st0" width="512" height="512"/>
	<g id="XMLID_30_">
		<rect id="XMLID_31_" x="-18.7" y="580.2" class="st1" width="367.3" height="2.1"/>
	</g>
</g>
<g>
	<path class="st1" d="M319.8,235.1h-88v-23.5c0-21.4-17.4-38.8-38.8-38.8h-55.9c-21.4,0-38.8,17.4-38.8,38.8v23.5h-88
		c-22.5,0-40.7,18.3-40.7,40.7v261.1c0,3.4,2.8,6.2,6.2,6.2h378.4c3.4,0,6.2-2.8,6.2-6.2V275.7C360.4,253.3,342.1,235.1,319.8,235.1
		L319.8,235.1z M348,530.6H-18V275.7c0-15.6,12.6-28.2,28.2-28.2h309.4c15.6,0,28.2,12.6,28.2,28.2L348,530.6L348,530.6z
		 M192.9,185.2c14.6,0,26.4,11.8,26.4,26.4v23.5h-12.5v-23.5c0-7.7-6.2-13.9-13.9-13.9h-55.9c-7.7,0-13.9,6.2-13.9,13.9v23.5h-12.5
		v-23.5c0-14.6,11.8-26.4,26.4-26.4C137.1,185.2,192.9,185.2,192.9,185.2z M183.1,235.1v-6.2c0-3.4-2.8-6.2-6.2-6.2
		c-3.4,0-6.2,2.8-6.2,6.2v6.2h-11.2v-6.2c0-3.4-2.8-6.2-6.2-6.2c-3.4,0-6.2,2.8-6.2,6.2v6.2h-11.2v-23.5c0-0.7,0.6-1.4,1.4-1.4H193
		c0.7,0,1.4,0.6,1.4,1.4v23.5H183.1L183.1,235.1z"/>
	<path class="st1" d="M60.1,272.5h259.5c1.8,0,3.2,1.5,3.2,3.2v236.2c0,3.4,2.8,6.2,6.2,6.2c3.4,0,6.2-2.8,6.2-6.2V275.7
		c0-8.6-7.1-15.7-15.7-15.7H60.1c-3.4,0-6.2,2.8-6.2,6.2C54,269.6,56.7,272.5,60.1,272.5L60.1,272.5z"/>
	<path class="st1" d="M7,511.9V275.7c0-1.8,1.5-3.2,3.2-3.2h24.9c3.4,0,6.2-2.8,6.2-6.2s-2.8-6.2-6.2-6.2H10.2
		c-8.6,0-15.7,7.1-15.7,15.7v236.2c0,3.4,2.8,6.2,6.2,6.2S7,515.3,7,511.9z"/>
</g>
<g>
	<path d="M17.9,598.1H26v22.6c0,10.2-4.9,13.7-12.7,13.7c-1.9,0-4.3-0.3-5.9-0.8l0.9-6.5c1.1,0.4,2.5,0.6,4.1,0.6
		c3.4,0,5.5-1.5,5.5-7.1L17.9,598.1L17.9,598.1z"/>
	<path d="M40.8,598.1v20.6c0,6.2,2.3,9.3,6.5,9.3s6.6-3,6.6-9.3v-20.6H62v20.1c0,11-5.6,16.3-14.9,16.3c-9,0-14.3-5-14.3-16.4v-20
		H40.8z"/>
	<path d="M75.8,604.9h-9.6v-6.8h27.5v6.8h-9.8v29h-8.1L75.8,604.9L75.8,604.9z"/>
	<path d="M119.3,618.8h-13.2v8.5h14.7v6.6H98v-35.8h22.1v6.6h-14v7.4h13.2L119.3,618.8L119.3,618.8z"/>
	<path d="M137.1,598.1H159v6.6h-13.7v8.2h12.8v6.6h-12.8v14.4h-8.1L137.1,598.1L137.1,598.1z"/>
	<path d="M197.8,615.6c0,11.7-7.1,18.8-17.6,18.8c-10.6,0-16.8-8-16.8-18.2c0-10.7,6.8-18.7,17.4-18.7
		C191.8,597.5,197.8,605.7,197.8,615.6z M171.9,616.1c0,7,3.3,11.9,8.7,11.9c5.5,0,8.6-5.2,8.6-12.2c0-6.4-3.1-11.9-8.7-11.9
		C175.1,603.9,171.9,609.1,171.9,616.1z"/>
	<path d="M203.1,598.1h8.1v29h14.2v6.8h-22.3V598.1z"/>
	<path d="M230.2,598.6c3-0.5,6.8-0.7,10.9-0.7c6.8,0,11.2,1.2,14.7,3.8c3.7,2.8,6.1,7.2,6.1,13.5c0,6.8-2.5,11.6-5.9,14.5
		c-3.8,3.1-9.5,4.6-16.5,4.6c-4.2,0-7.2-0.3-9.2-0.5v-35.2H230.2z M238.3,627.8c0.7,0.2,1.8,0.2,2.8,0.2c7.3,0.1,12.1-4,12.1-12.5
		c0.1-7.4-4.3-11.4-11.3-11.4c-1.8,0-3,0.2-3.7,0.3v23.4H238.3z"/>
	<path d="M288.4,618.8h-13.2v8.5h14.7v6.6h-22.8v-35.8h22.1v6.6h-14v7.4h13.2V618.8z"/>
	<path d="M295.5,598.6c2.6-0.4,6.5-0.7,10.8-0.7c5.3,0,9,0.8,11.6,2.8c2.1,1.7,3.3,4.2,3.3,7.5c0,4.6-3.2,7.7-6.3,8.8v0.2
		c2.5,1,3.9,3.4,4.8,6.7c1.1,4,2.2,8.7,2.9,10.1h-8.3c-0.6-1.1-1.4-3.9-2.5-8.3c-1-4.5-2.5-5.7-5.8-5.7h-2.4v14.1h-8v-35.5H295.5z
		 M303.5,614h3.2c4,0,6.4-2,6.4-5.1c0-3.3-2.2-4.9-5.9-5c-2,0-3.1,0.2-3.7,0.3V614z"/>
</g>
<g>
	<path class="st1" d="M12.2,598.1h8.1v22.6c0,10.2-4.9,13.7-12.7,13.7c-1.9,0-4.3-0.3-5.9-0.8l0.9-6.5c1.1,0.4,2.5,0.6,4.1,0.6
		c3.4,0,5.5-1.5,5.5-7.1L12.2,598.1L12.2,598.1z"/>
	<path class="st1" d="M35.1,598.1v20.6c0,6.2,2.3,9.3,6.5,9.3s6.6-3,6.6-9.3v-20.6h8.1v20.1c0,11-5.6,16.3-14.9,16.3
		c-9,0-14.3-5-14.3-16.4v-20H35.1z"/>
	<path class="st1" d="M70.1,604.9h-9.6v-6.8H88v6.8h-9.8v29h-8.1L70.1,604.9L70.1,604.9z"/>
	<path class="st1" d="M113.6,618.8h-13.2v8.5h14.7v6.6H92.3v-35.8h22.1v6.6h-14v7.4h13.2L113.6,618.8L113.6,618.8z"/>
	<path class="st1" d="M131.4,598.1h21.9v6.6h-13.7v8.2h12.8v6.6h-12.8v14.4h-8.1L131.4,598.1L131.4,598.1z"/>
	<path class="st1" d="M192.1,615.6c0,11.7-7.1,18.8-17.6,18.8c-10.6,0-16.8-8-16.8-18.2c0-10.7,6.8-18.7,17.4-18.7
		C186.1,597.5,192.1,605.7,192.1,615.6z M166.2,616.1c0,7,3.3,11.9,8.7,11.9c5.5,0,8.6-5.2,8.6-12.2c0-6.4-3.1-11.9-8.7-11.9
		C169.4,603.9,166.2,609.1,166.2,616.1z"/>
	<path class="st1" d="M197.4,598.1h8.1v29h14.2v6.8h-22.3V598.1z"/>
	<path class="st1" d="M224.5,598.6c3-0.5,6.8-0.7,10.9-0.7c6.8,0,11.2,1.2,14.7,3.8c3.7,2.8,6.1,7.2,6.1,13.5
		c0,6.8-2.5,11.6-5.9,14.5c-3.8,3.1-9.5,4.6-16.5,4.6c-4.2,0-7.2-0.3-9.2-0.5v-35.2H224.5z M232.6,627.8c0.7,0.2,1.8,0.2,2.8,0.2
		c7.3,0.1,12.1-4,12.1-12.5c0.1-7.4-4.3-11.4-11.3-11.4c-1.8,0-3,0.2-3.7,0.3v23.4H232.6z"/>
	<path class="st1" d="M282.7,618.8h-13.2v8.5h14.7v6.6h-22.8v-35.8h22.1v6.6h-14v7.4h13.2V618.8z"/>
	<path class="st1" d="M289.8,598.6c2.6-0.4,6.5-0.7,10.8-0.7c5.3,0,9,0.8,11.6,2.8c2.1,1.7,3.3,4.2,3.3,7.5c0,4.6-3.2,7.7-6.3,8.8
		v0.2c2.5,1,3.9,3.4,4.8,6.7c1.1,4,2.2,8.7,2.9,10.1h-8.3c-0.6-1.1-1.4-3.9-2.5-8.3c-1-4.5-2.5-5.7-5.8-5.7h-2.4v14.1h-8v-35.5
		H289.8z M297.8,614h3.2c4,0,6.4-2,6.4-5.1c0-3.3-2.2-4.9-5.9-5c-2,0-3.1,0.2-3.7,0.3V614z"/>
</g>
</svg>
