<?xml version="1.0" encoding="utf-8"?>
<!-- Generator: Adobe Illustrator 19.0.0, SVG Export Plug-In . SVG Version: 6.00 Build 0)  -->
<svg version="1.1" id="Layer_1" xmlns="http://www.w3.org/2000/svg" xmlns:xlink="http://www.w3.org/1999/xlink" x="0px" y="0px"
	 viewBox="91 -19 470 470" style="enable-background:new 91 -19 470 470;" xml:space="preserve">
<g>
	<path d="M512.1,68.3H406.3V40c0-25.7-20.9-46.7-46.7-46.7h-67.2c-25.7,0-46.7,20.9-46.7,46.7v28.3H139.9c-27,0-48.9,22-48.9,48.9
		v314c0,4.1,3.4,7.5,7.5,7.5h455c4.1,0,7.5-3.4,7.5-7.5v-314C561,90.3,539,68.3,512.1,68.3L512.1,68.3z M546,423.7H106V117.2
		c0-18.7,15.2-33.9,33.9-33.9H512c18.7,0,33.9,15.2,33.9,33.9L546,423.7L546,423.7z M359.6,8.3c17.5,0,31.7,14.2,31.7,31.7v28.3h-15
		V40c0-9.2-7.5-16.7-16.7-16.7h-67.2c-9.2,0-16.7,7.5-16.7,16.7v28.3h-15V40c0-17.5,14.2-31.7,31.7-31.7H359.6z M347.8,68.3v-7.5
		c0-4.1-3.4-7.5-7.5-7.5c-4.1,0-7.5,3.4-7.5,7.5v7.5h-13.5v-7.5c0-4.1-3.4-7.5-7.5-7.5c-4.1,0-7.5,3.4-7.5,7.5v7.5h-13.5V40
		c0-0.9,0.7-1.7,1.7-1.7h67.2c0.9,0,1.7,0.7,1.7,1.7v28.3H347.8L347.8,68.3z"/>
	<path d="M199.9,113.3H512c2.2,0,3.9,1.8,3.9,3.9v284c0,4.1,3.4,7.5,7.5,7.5c4.1,0,7.5-3.4,7.5-7.5v-284c0-10.4-8.5-18.9-18.9-18.9
		H199.9c-4.1,0-7.5,3.4-7.5,7.5C192.5,109.9,195.8,113.3,199.9,113.3L199.9,113.3z"/>
	<path d="M136,401.2v-284c0-2.2,1.8-3.9,3.9-3.9h30c4.1,0,7.5-3.4,7.5-7.5s-3.4-7.5-7.5-7.5h-30c-10.4,0-18.9,8.5-18.9,18.9v284
		c0,4.1,3.4,7.5,7.5,7.5C132.6,408.7,136,405.3,136,401.2z"/>
</g>
<g>
	<path d="M178.5,258.8h8.1v22.6c0,10.2-4.9,13.7-12.7,13.7c-1.9,0-4.3-0.3-5.9-0.8l0.9-6.5c1.1,0.4,2.5,0.6,4.1,0.6
		c3.4,0,5.5-1.5,5.5-7.1V258.8z"/>
	<path d="M201.4,258.8v20.6c0,6.2,2.3,9.3,6.5,9.3c4.2,0,6.6-3,6.6-9.3v-20.6h8.1v20.1c0,11-5.6,16.3-14.9,16.3
		c-9,0-14.3-5-14.3-16.4v-20H201.4z"/>
	<path d="M236.4,265.6h-9.6v-6.8h27.5v6.8h-9.8v29h-8.1V265.6z"/>
	<path d="M279.9,279.5h-13.2v8.5h14.7v6.6h-22.8v-35.8h22.1v6.6h-14v7.4h13.2V279.5z"/>
	<path d="M297.7,258.8h21.9v6.6h-13.7v8.2h12.8v6.6h-12.8v14.4h-8.1V258.8z"/>
	<path d="M358.4,276.3c0,11.7-7.1,18.8-17.6,18.8c-10.6,0-16.8-8-16.8-18.2c0-10.7,6.8-18.7,17.4-18.7
		C352.4,258.2,358.4,266.4,358.4,276.3z M332.5,276.8c0,7,3.3,11.9,8.7,11.9c5.5,0,8.6-5.2,8.6-12.2c0-6.4-3.1-11.9-8.7-11.9
		C335.7,264.6,332.5,269.8,332.5,276.8z"/>
	<path d="M363.7,258.8h8.1v29H386v6.8h-22.3V258.8z"/>
	<path d="M390.8,259.3c3-0.5,6.8-0.7,10.9-0.7c6.8,0,11.2,1.2,14.7,3.8c3.7,2.8,6.1,7.2,6.1,13.5c0,6.8-2.5,11.6-5.9,14.5
		c-3.8,3.1-9.5,4.6-16.5,4.6c-4.2,0-7.2-0.3-9.2-0.5V259.3z M398.9,288.5c0.7,0.2,1.8,0.2,2.8,0.2c7.3,0.1,12.1-4,12.1-12.5
		c0.1-7.4-4.3-11.4-11.3-11.4c-1.8,0-3,0.2-3.7,0.3V288.5z"/>
	<path d="M449,279.5h-13.2v8.5h14.7v6.6h-22.8v-35.8h22.1v6.6h-14v7.4H449V279.5z"/>
	<path d="M456.1,259.3c2.6-0.4,6.5-0.7,10.8-0.7c5.3,0,9,0.8,11.6,2.8c2.1,1.7,3.3,4.2,3.3,7.5c0,4.6-3.2,7.7-6.3,8.8v0.2
		c2.5,1,3.9,3.4,4.8,6.7c1.1,4,2.2,8.7,2.9,10.1h-8.3c-0.6-1.1-1.4-3.9-2.5-8.3c-1-4.5-2.5-5.7-5.8-5.7h-2.4v14.1h-8V259.3z
		 M464.1,274.7h3.2c4,0,6.4-2,6.4-5.1c0-3.3-2.2-4.9-5.9-5c-2,0-3.1,0.2-3.7,0.3V274.7z"/>
</g>
</svg>
