<?xml version="1.0" encoding="utf-8"?>
<!-- Generator: Adobe Illustrator 19.0.0, SVG Export Plug-In . SVG Version: 6.00 Build 0)  -->
<svg version="1.1" id="Layer_1" xmlns="http://www.w3.org/2000/svg" xmlns:xlink="http://www.w3.org/1999/xlink" x="0px" y="0px"
	 viewBox="-70 162 470 470" style="enable-background:new -70 162 470 470;" xml:space="preserve">
<g>
	<path d="M351.1,249.3H245.3V221c0-25.7-20.9-46.7-46.7-46.7h-67.2c-25.7,0-46.7,20.9-46.7,46.7v28.3H-21.1c-27,0-48.9,22-48.9,48.9
		v314c0,4.1,3.4,7.5,7.5,7.5h455c4.1,0,7.5-3.4,7.5-7.5v-314C400,271.3,378,249.3,351.1,249.3L351.1,249.3z M385,604.7H-55V298.2
		c0-18.7,15.2-33.9,33.9-33.9h372.1c18.7,0,33.9,15.2,33.9,33.9V604.7z M198.6,189.3c17.5,0,31.7,14.2,31.7,31.7v28.3h-15V221
		c0-9.2-7.5-16.7-16.7-16.7h-67.2c-9.2,0-16.7,7.5-16.7,16.7v28.3h-15V221c0-17.5,14.2-31.7,31.7-31.7H198.6z M186.8,249.3v-7.5
		c0-4.1-3.4-7.5-7.5-7.5s-7.5,3.4-7.5,7.5v7.5h-13.5v-7.5c0-4.1-3.4-7.5-7.5-7.5s-7.5,3.4-7.5,7.5v7.5h-13.5V221
		c0-0.9,0.7-1.7,1.7-1.7h67.2c0.9,0,1.7,0.7,1.7,1.7v28.3H186.8L186.8,249.3z"/>
	<path d="M38.9,294.3h312.1c2.2,0,3.9,1.8,3.9,3.9v284c0,4.1,3.4,7.5,7.5,7.5s7.5-3.4,7.5-7.5v-284c0-10.4-8.5-18.9-18.9-18.9H38.9
		c-4.1,0-7.5,3.4-7.5,7.5C31.5,290.9,34.8,294.3,38.9,294.3L38.9,294.3z"/>
	<path d="M-25,582.2v-284c0-2.2,1.8-3.9,3.9-3.9h30c4.1,0,7.5-3.4,7.5-7.5c0-4.1-3.4-7.5-7.5-7.5h-30c-10.4,0-18.9,8.5-18.9,18.9
		v284c0,4.1,3.4,7.5,7.5,7.5S-25,586.3-25,582.2z"/>
</g>
</svg>
