<?xml version="1.0" encoding="utf-8"?>
<!-- Generator: Adobe Illustrator 19.0.0, SVG Export Plug-In . SVG Version: 6.00 Build 0)  -->
<svg version="1.1" id="Capa_1" xmlns="http://www.w3.org/2000/svg" xmlns:xlink="http://www.w3.org/1999/xlink" x="0px" y="0px"
	 viewBox="130 -58.2 548.2 548.2" style="enable-background:new 130 -58.2 548.2 548.2;" xml:space="preserve">
<g>
	<g>
		<g>
			<path d="M667.5,12c-7.1-7.1-15.8-10.7-25.8-10.7H166.5c-10.1,0-18.7,3.6-25.8,10.7c-7.1,7.1-10.7,15.7-10.7,25.8v255.8
				c0,10.1,3.6,18.7,10.7,25.8c7.1,7.1,15.7,10.7,25.8,10.7h475.1c10.1,0,18.7-3.6,25.8-10.7c7.1-7.1,10.7-15.7,10.7-25.8V37.8
				C678.2,27.7,674.6,19.1,667.5,12z M641.6,293.6H166.5V37.8h475.1V293.6z"/>
			<path d="M207.7,257.1h27.4c3,0,4.6-1.5,4.6-4.6v-27.4c0-3-1.5-4.6-4.6-4.6h-27.4c-3,0-4.6,1.5-4.6,4.6v27.4
				C203.1,255.5,204.6,257.1,207.7,257.1z"/>
			<path d="M207.7,184h64c3,0,4.6-1.5,4.6-4.6V152c0-3-1.5-4.6-4.6-4.6h-64c-3,0-4.6,1.5-4.6,4.6v27.4
				C203.1,182.5,204.6,184,207.7,184z"/>
			<path d="M207.7,110.9h27.4c3,0,4.6-1.5,4.6-4.6V78.9c0-3-1.5-4.6-4.6-4.6h-27.4c-3,0-4.6,1.5-4.6,4.6v27.4
				C203.1,109.4,204.6,110.9,207.7,110.9z"/>
			<path d="M527.4,220.5H280.8c-3,0-4.6,1.5-4.6,4.6v27.4c0,3,1.5,4.6,4.6,4.6h246.7c3,0,4.6-1.5,4.6-4.6v-27.4
				C532,222.1,530.5,220.5,527.4,220.5z"/>
			<path d="M312.7,179.4c0,3,1.5,4.6,4.6,4.6h27.4c3,0,4.6-1.5,4.6-4.6V152c0-3-1.5-4.6-4.6-4.6h-27.4c-3,0-4.6,1.5-4.6,4.6V179.4
				L312.7,179.4z"/>
			<path d="M280.8,110.9h27.4c3,0,4.6-1.5,4.6-4.6V78.9c0-3-1.5-4.6-4.6-4.6h-27.4c-3,0-4.6,1.5-4.6,4.6v27.4
				C276.2,109.4,277.7,110.9,280.8,110.9z"/>
			<path d="M385.8,179.4c0,3,1.5,4.6,4.6,4.6h27.4c3,0,4.6-1.5,4.6-4.6V152c0-3-1.5-4.6-4.6-4.6h-27.4c-3,0-4.6,1.5-4.6,4.6
				L385.8,179.4L385.8,179.4z"/>
			<path d="M353.8,110.9h27.4c3,0,4.6-1.5,4.6-4.6V78.9c0-3-1.5-4.6-4.6-4.6h-27.4c-3,0-4.6,1.5-4.6,4.6v27.4
				C349.3,109.4,350.8,110.9,353.8,110.9z"/>
			<path d="M458.9,179.4c0,3,1.5,4.6,4.6,4.6h27.4c3,0,4.6-1.5,4.6-4.6V152c0-3-1.5-4.6-4.6-4.6h-27.4c-3,0-4.6,1.5-4.6,4.6V179.4z"
				/>
			<path d="M600.5,220.5h-27.4c-3,0-4.6,1.5-4.6,4.6v27.4c0,3,1.5,4.6,4.6,4.6h27.4c3,0,4.6-1.5,4.6-4.6v-27.4
				C605.1,222.1,603.6,220.5,600.5,220.5z"/>
			<path d="M426.9,110.9h27.4c3,0,4.6-1.5,4.6-4.6V78.9c0-3-1.5-4.6-4.6-4.6h-27.4c-3,0-4.6,1.5-4.6,4.6v27.4
				C422.4,109.4,423.9,110.9,426.9,110.9z"/>
			<path d="M500,110.9h27.4c3,0,4.6-1.5,4.6-4.6V78.9c0-3-1.5-4.6-4.6-4.6H500c-3,0-4.6,1.5-4.6,4.6v27.4
				C495.4,109.4,497,110.9,500,110.9z"/>
			<path d="M532,179.4c0,3,1.5,4.6,4.6,4.6h64c3,0,4.6-1.5,4.6-4.6V78.9c0-3-1.5-4.6-4.6-4.6h-27.4c-3,0-4.6,1.5-4.6,4.6v68.5h-32
				c-3,0-4.6,1.5-4.6,4.6V179.4L532,179.4z"/>
		</g>
	</g>
	<g>
		<path d="M187.9,369.4h13.5V396h0.3c1.3-2.3,2.8-4.5,4.1-6.6l13.6-20H236L216.1,395l20.9,34.5h-15.9l-14.7-25.9l-5.2,6.3v19.6
			h-13.5V369.4z"/>
		<path d="M278.4,404.1h-22.1v14.3H281v11.1h-38.3v-60.1h37.1v11.1h-23.4v12.5h22.1V404.1z"/>
		<path d="M304.1,429.5v-24.6l-19-35.5h15.5l6.2,14.4c1.9,4.4,3.1,7.6,4.6,11.5h0.2c1.3-3.7,2.8-7.2,4.5-11.5l6.1-14.4h15.2
			l-19.8,35v25H304.1z"/>
		<path d="M342.4,370.2c3.6-0.7,10.8-1.2,17.6-1.2c8.3,0,13.4,0.8,17.7,3.4c4.2,2.2,7.2,6.3,7.2,11.8c0,5.3-3.1,10.3-9.9,12.8v0.2
			c6.9,1.9,11.9,7,11.9,14.8c0,5.4-2.5,9.7-6.2,12.7c-4.4,3.5-11.7,5.4-23.6,5.4c-6.7,0-11.7-0.4-14.7-0.9V370.2z M355.8,393.2h4.5
			c7.1,0,11-2.9,11-7.4c0-4.5-3.5-7-9.6-7c-2.9,0-4.6,0.2-5.8,0.4V393.2z M355.8,419.9c1.3,0.2,2.9,0.2,5.3,0.2
			c6.2,0,11.6-2.4,11.6-8.6c0-6.1-5.4-8.5-12.2-8.5h-4.6V419.9z"/>
		<path d="M451.2,398.8c0,19.7-11.9,31.6-29.5,31.6c-17.8,0-28.3-13.5-28.3-30.6c0-18,11.5-31.5,29.2-31.5
			C441.1,368.5,451.2,382.3,451.2,398.8z M407.8,399.7c0,11.8,5.5,20.1,14.6,20.1c9.2,0,14.4-8.7,14.4-20.4
			c0-10.8-5.2-20.1-14.5-20.1C413.1,379.2,407.8,388,407.8,399.7z"/>
		<path d="M472.7,414.1l-4.3,15.4h-14.1l18.4-60.1h17.8l18.6,60.1h-14.6l-4.6-15.4H472.7z M487.9,403.9l-3.7-12.7
			c-1.1-3.6-2.1-8-3-11.6H481c-0.9,3.6-1.8,8.1-2.8,11.6l-3.6,12.7H487.9z"/>
		<path d="M517.2,370.2c4.4-0.7,10.9-1.2,18.1-1.2c8.9,0,15.2,1.3,19.4,4.7c3.6,2.9,5.5,7,5.5,12.6c0,7.7-5.4,12.9-10.6,14.8v0.3
			c4.2,1.7,6.5,5.7,8,11.2c1.9,6.8,3.7,14.6,4.9,16.9h-13.9c-1-1.8-2.4-6.6-4.2-14c-1.6-7.5-4.2-9.5-9.7-9.6h-4.1v23.6h-13.5V370.2z
			 M530.6,396.1h5.3c6.8,0,10.8-3.4,10.8-8.6c0-5.5-3.7-8.3-10-8.4c-3.3,0-5.2,0.3-6.2,0.4V396.1z"/>
		<path d="M570,370.2c5-0.8,11.5-1.2,18.4-1.2c11.4,0,18.8,2,24.6,6.4c6.2,4.6,10.2,12,10.2,22.6c0,11.5-4.2,19.4-10,24.3
			c-6.3,5.3-16,7.8-27.7,7.8c-7,0-12-0.4-15.4-0.9V370.2z M583.7,419.3c1.2,0.3,3,0.3,4.7,0.3c12.3,0.1,20.3-6.7,20.3-21
			c0.1-12.5-7.2-19.1-18.9-19.1c-3,0-5,0.3-6.2,0.5V419.3z"/>
	</g>
</g>
</svg>
