<?xml version="1.0" encoding="utf-8"?>
<!-- Generator: Adobe Illustrator 19.0.0, SVG Export Plug-In . SVG Version: 6.00 Build 0)  -->
<svg version="1.1" id="Capa_1" xmlns="http://www.w3.org/2000/svg" xmlns:xlink="http://www.w3.org/1999/xlink" x="0px" y="0px"
	 viewBox="-31 122.8 548.2 548.2" style="enable-background:new -31 122.8 548.2 548.2;" xml:space="preserve">
<g>
	<g>
		<path d="M506.5,243.2c-7.1-7.1-15.8-10.7-25.8-10.7H5.5c-10.1,0-18.7,3.6-25.8,10.7C-27.4,250.3-31,258.9-31,269v255.8
			c0,10.1,3.6,18.7,10.7,25.8c7.1,7.1,15.7,10.7,25.8,10.7h475.1c10.1,0,18.7-3.6,25.8-10.7c7.1-7.1,10.7-15.7,10.7-25.8V269
			C517.2,258.9,513.6,250.3,506.5,243.2z M480.6,524.8H5.5V269h475.1V524.8z"/>
		<path d="M46.7,488.3h27.4c3,0,4.6-1.5,4.6-4.6v-27.4c0-3-1.5-4.6-4.6-4.6H46.7c-3,0-4.6,1.5-4.6,4.6v27.4
			C42.1,486.7,43.6,488.3,46.7,488.3z"/>
		<path d="M46.7,415.2h64c3,0,4.6-1.5,4.6-4.6v-27.4c0-3-1.5-4.6-4.6-4.6h-64c-3,0-4.6,1.5-4.6,4.6v27.4
			C42.1,413.7,43.6,415.2,46.7,415.2z"/>
		<path d="M46.7,342.1h27.4c3,0,4.6-1.5,4.6-4.6v-27.4c0-3-1.5-4.6-4.6-4.6H46.7c-3,0-4.6,1.5-4.6,4.6v27.4
			C42.1,340.6,43.6,342.1,46.7,342.1z"/>
		<path d="M366.4,451.7H119.8c-3,0-4.6,1.5-4.6,4.6v27.4c0,3,1.5,4.6,4.6,4.6h246.7c3,0,4.6-1.5,4.6-4.6v-27.4
			C371,453.3,369.5,451.7,366.4,451.7z"/>
		<path d="M151.7,410.6c0,3,1.5,4.6,4.6,4.6h27.4c3,0,4.6-1.5,4.6-4.6v-27.4c0-3-1.5-4.6-4.6-4.6h-27.4c-3,0-4.6,1.5-4.6,4.6
			L151.7,410.6L151.7,410.6z"/>
		<path d="M119.8,342.1h27.4c3,0,4.6-1.5,4.6-4.6v-27.4c0-3-1.5-4.6-4.6-4.6h-27.4c-3,0-4.6,1.5-4.6,4.6v27.4
			C115.2,340.6,116.7,342.1,119.8,342.1z"/>
		<path d="M224.8,410.6c0,3,1.5,4.6,4.6,4.6h27.4c3,0,4.6-1.5,4.6-4.6v-27.4c0-3-1.5-4.6-4.6-4.6h-27.4c-3,0-4.6,1.5-4.6,4.6
			L224.8,410.6L224.8,410.6z"/>
		<path d="M192.8,342.1h27.4c3,0,4.6-1.5,4.6-4.6v-27.4c0-3-1.5-4.6-4.6-4.6h-27.4c-3,0-4.6,1.5-4.6,4.6v27.4
			C188.3,340.6,189.8,342.1,192.8,342.1z"/>
		<path d="M297.9,410.6c0,3,1.5,4.6,4.6,4.6h27.4c3,0,4.6-1.5,4.6-4.6v-27.4c0-3-1.5-4.6-4.6-4.6h-27.4c-3,0-4.6,1.5-4.6,4.6V410.6z
			"/>
		<path d="M439.5,451.7h-27.4c-3,0-4.6,1.5-4.6,4.6v27.4c0,3,1.5,4.6,4.6,4.6h27.4c3,0,4.6-1.5,4.6-4.6v-27.4
			C444.1,453.3,442.6,451.7,439.5,451.7z"/>
		<path d="M265.9,342.1h27.4c3,0,4.6-1.5,4.6-4.6v-27.4c0-3-1.5-4.6-4.6-4.6h-27.4c-3,0-4.6,1.5-4.6,4.6v27.4
			C261.4,340.6,262.9,342.1,265.9,342.1z"/>
		<path d="M339,342.1h27.4c3,0,4.6-1.5,4.6-4.6v-27.4c0-3-1.5-4.6-4.6-4.6H339c-3,0-4.6,1.5-4.6,4.6v27.4
			C334.4,340.6,336,342.1,339,342.1z"/>
		<path d="M371,410.6c0,3,1.5,4.6,4.6,4.6h64c3,0,4.6-1.5,4.6-4.6V310.1c0-3-1.5-4.6-4.6-4.6h-27.4c-3,0-4.6,1.5-4.6,4.6v68.5h-32
			c-3,0-4.6,1.5-4.6,4.6L371,410.6L371,410.6z"/>
	</g>
</g>
</svg>
