<?xml version="1.0" encoding="utf-8"?>
<!-- Generator: Adobe Illustrator 19.0.0, SVG Export Plug-In . SVG Version: 6.00 Build 0)  -->
<svg version="1.1" id="Capa_1" xmlns="http://www.w3.org/2000/svg" xmlns:xlink="http://www.w3.org/1999/xlink" x="0px" y="0px"
	 viewBox="-12.9 140.9 512 512" style="enable-background:new -12.9 140.9 512 512;" xml:space="preserve">
<style type="text/css">
	.st0{fill-rule:evenodd;clip-rule:evenodd;fill:#BD2F32;}
	.st1{fill:#FFFFFF;}
</style>
<g id="XMLID_29_">
	<rect id="XMLID_28_" x="-13" y="140.8" class="st0" width="512" height="512"/>
	<g id="XMLID_30_">
		<rect id="XMLID_31_" x="59.3" y="580" class="st1" width="367.3" height="2.1"/>
	</g>
</g>
<g>
	<g>
		<path class="st1" d="M448.1,234.7c-5.5-5.5-12.3-8.3-20.1-8.3H58.3c-7.9,0-14.5,2.8-20.1,8.3c-5.5,5.5-8.3,12.2-8.3,20.1v199
			c0,7.9,2.8,14.5,8.3,20.1c5.5,5.5,12.2,8.3,20.1,8.3h369.6c7.9,0,14.5-2.8,20.1-8.3c5.5-5.5,8.3-12.2,8.3-20.1v-199
			C456.4,246.9,453.6,240.2,448.1,234.7z M427.9,453.8H58.3v-199h369.6V453.8z"/>
		<path class="st1" d="M90.3,425.4h21.3c2.3,0,3.6-1.2,3.6-3.6v-21.3c0-2.3-1.2-3.6-3.6-3.6H90.3c-2.3,0-3.6,1.2-3.6,3.6v21.3
			C86.8,424.1,87.9,425.4,90.3,425.4z"/>
		<path class="st1" d="M90.3,368.5h49.8c2.3,0,3.6-1.2,3.6-3.6v-21.3c0-2.3-1.2-3.6-3.6-3.6H90.3c-2.3,0-3.6,1.2-3.6,3.6v21.3
			C86.8,367.3,87.9,368.5,90.3,368.5z"/>
		<path class="st1" d="M90.3,311.6h21.3c2.3,0,3.6-1.2,3.6-3.6v-21.3c0-2.3-1.2-3.6-3.6-3.6H90.3c-2.3,0-3.6,1.2-3.6,3.6v21.3
			C86.8,310.5,87.9,311.6,90.3,311.6z"/>
		<path class="st1" d="M339.1,396.9H147.2c-2.3,0-3.6,1.2-3.6,3.6v21.3c0,2.3,1.2,3.6,3.6,3.6h191.9c2.3,0,3.6-1.2,3.6-3.6v-21.3
			C342.6,398.1,341.5,396.9,339.1,396.9z"/>
		<path class="st1" d="M172,364.9c0,2.3,1.2,3.6,3.6,3.6h21.3c2.3,0,3.6-1.2,3.6-3.6v-21.3c0-2.3-1.2-3.6-3.6-3.6h-21.3
			c-2.3,0-3.6,1.2-3.6,3.6V364.9L172,364.9z"/>
		<path class="st1" d="M147.2,311.6h21.3c2.3,0,3.6-1.2,3.6-3.6v-21.3c0-2.3-1.2-3.6-3.6-3.6h-21.3c-2.3,0-3.6,1.2-3.6,3.6v21.3
			C143.6,310.5,144.8,311.6,147.2,311.6z"/>
		<path class="st1" d="M228.9,364.9c0,2.3,1.2,3.6,3.6,3.6h21.3c2.3,0,3.6-1.2,3.6-3.6v-21.3c0-2.3-1.2-3.6-3.6-3.6h-21.3
			c-2.3,0-3.6,1.2-3.6,3.6V364.9L228.9,364.9z"/>
		<path class="st1" d="M204,311.6h21.3c2.3,0,3.6-1.2,3.6-3.6v-21.3c0-2.3-1.2-3.6-3.6-3.6H204c-2.3,0-3.6,1.2-3.6,3.6v21.3
			C200.5,310.5,201.7,311.6,204,311.6z"/>
		<path class="st1" d="M285.8,364.9c0,2.3,1.2,3.6,3.6,3.6h21.3c2.3,0,3.6-1.2,3.6-3.6v-21.3c0-2.3-1.2-3.6-3.6-3.6h-21.3
			c-2.3,0-3.6,1.2-3.6,3.6V364.9z"/>
		<path class="st1" d="M395.9,396.9h-21.3c-2.3,0-3.6,1.2-3.6,3.6v21.3c0,2.3,1.2,3.6,3.6,3.6h21.3c2.3,0,3.6-1.2,3.6-3.6v-21.3
			C399.5,398.1,398.3,396.9,395.9,396.9z"/>
		<path class="st1" d="M260.9,311.6h21.3c2.3,0,3.6-1.2,3.6-3.6v-21.3c0-2.3-1.2-3.6-3.6-3.6h-21.3c-2.3,0-3.6,1.2-3.6,3.6v21.3
			C257.4,310.5,258.5,311.6,260.9,311.6z"/>
		<path class="st1" d="M317.7,311.6h21.3c2.3,0,3.6-1.2,3.6-3.6v-21.3c0-2.3-1.2-3.6-3.6-3.6h-21.3c-2.3,0-3.6,1.2-3.6,3.6v21.3
			C314.2,310.5,315.4,311.6,317.7,311.6z"/>
		<path class="st1" d="M342.6,364.9c0,2.3,1.2,3.6,3.6,3.6H396c2.3,0,3.6-1.2,3.6-3.6v-78.2c0-2.3-1.2-3.6-3.6-3.6h-21.3
			c-2.3,0-3.6,1.2-3.6,3.6V340h-24.9c-2.3,0-3.6,1.2-3.6,3.6V364.9L342.6,364.9z"/>
	</g>
</g>
<g>
	<path d="M91.6,598h9.4v18.5h0.2c0.9-1.6,2-3.1,2.9-4.6l9.5-13.9h11.6l-13.9,17.8l14.6,24h-11.1l-10.2-18l-3.6,4.4v13.7h-9.4V598
		H91.6z"/>
	<path d="M154.6,622.1h-15.4v10h17.2v7.7h-26.7V598h25.8v7.7h-16.3v8.7h15.4L154.6,622.1L154.6,622.1z"/>
	<path d="M172.5,639.8v-17.1L159.3,598h10.8l4.3,10c1.3,3.1,2.2,5.3,3.2,8h0.1c0.9-2.6,2-5,3.1-8l4.2-10h10.6l-13.8,24.4v17.4
		L172.5,639.8L172.5,639.8z"/>
	<path d="M199.2,598.5c2.5-0.5,7.5-0.8,12.3-0.8c5.8,0,9.3,0.6,12.3,2.4c2.9,1.5,5,4.4,5,8.2c0,3.7-2.2,7.2-6.9,8.9v0.1
		c4.8,1.3,8.3,4.9,8.3,10.3c0,3.8-1.7,6.8-4.3,8.8c-3.1,2.4-8.1,3.8-16.4,3.8c-4.7,0-8.1-0.3-10.2-0.6V598.5z M208.5,614.5h3.1
		c4.9,0,7.7-2,7.7-5.2c0-3.1-2.4-4.9-6.7-4.9c-2,0-3.2,0.1-4,0.3L208.5,614.5L208.5,614.5z M208.5,633.1c0.9,0.1,2,0.1,3.7,0.1
		c4.3,0,8.1-1.7,8.1-6c0-4.2-3.8-5.9-8.5-5.9h-3.2L208.5,633.1L208.5,633.1z"/>
	<path d="M275,618.4c0,13.7-8.3,22-20.5,22c-12.4,0-19.7-9.4-19.7-21.3c0-12.5,8-21.9,20.3-21.9C267.9,597.3,275,607,275,618.4z
		 M244.7,619.1c0,8.2,3.8,14,10.2,14c6.4,0,10-6.1,10-14.2c0-7.5-3.6-14-10.1-14C248.4,604.8,244.7,610.9,244.7,619.1z"/>
	<path d="M289.9,629.1l-3,10.7h-9.8l12.8-41.9h12.4l13,41.9h-10.2l-3.2-10.7H289.9z M300.5,622l-2.6-8.8c-0.8-2.5-1.5-5.6-2.1-8.1
		h-0.1c-0.6,2.5-1.3,5.6-2,8.1l-2.5,8.8H300.5z"/>
	<path d="M320.9,598.5c3.1-0.5,7.6-0.8,12.6-0.8c6.2,0,10.6,0.9,13.5,3.3c2.5,2,3.8,4.9,3.8,8.8c0,5.4-3.8,9-7.4,10.3v0.2
		c2.9,1.2,4.5,4,5.6,7.8c1.3,4.7,2.6,10.2,3.4,11.8h-9.7c-0.7-1.3-1.7-4.6-2.9-9.8c-1.1-5.2-2.9-6.6-6.8-6.7h-2.9v16.4h-9.4
		L320.9,598.5L320.9,598.5z M330.3,616.6h3.7c4.7,0,7.5-2.4,7.5-6c0-3.8-2.6-5.8-7-5.9c-2.3,0-3.6,0.2-4.3,0.3L330.3,616.6
		L330.3,616.6z"/>
	<path d="M357.7,598.5c3.5-0.6,8-0.8,12.8-0.8c7.9,0,13.1,1.4,17.1,4.5c4.3,3.2,7.1,8.4,7.1,15.7c0,8-2.9,13.5-7,16.9
		c-4.4,3.7-11.1,5.4-19.3,5.4c-4.9,0-8.4-0.3-10.7-0.6L357.7,598.5L357.7,598.5z M367.2,632.7c0.8,0.2,2.1,0.2,3.3,0.2
		c8.6,0.1,14.1-4.7,14.1-14.6c0.1-8.7-5-13.3-13.2-13.3c-2.1,0-3.5,0.2-4.3,0.3L367.2,632.7L367.2,632.7z"/>
</g>
<g>
	<path class="st1" d="M85.9,598h9.4v18.5h0.2c0.9-1.6,2-3.1,2.9-4.6l9.5-13.9h11.6l-13.9,17.8l14.6,24H109l-10.2-18l-3.6,4.4v13.7
		h-9.4V598H85.9z"/>
	<path class="st1" d="M148.9,622.1h-15.4v10h17.2v7.7h-26.7V598h25.8v7.7h-16.3v8.7H149L148.9,622.1L148.9,622.1z"/>
	<path class="st1" d="M166.8,639.8v-17.1L153.6,598h10.8l4.3,10c1.3,3.1,2.2,5.3,3.2,8h0.1c0.9-2.6,2-5,3.1-8l4.2-10H190l-13.8,24.4
		v17.4L166.8,639.8L166.8,639.8z"/>
	<path class="st1" d="M193.5,598.5c2.5-0.5,7.5-0.8,12.3-0.8c5.8,0,9.3,0.6,12.3,2.4c2.9,1.5,5,4.4,5,8.2c0,3.7-2.2,7.2-6.9,8.9v0.1
		c4.8,1.3,8.3,4.9,8.3,10.3c0,3.8-1.7,6.8-4.3,8.8c-3.1,2.4-8.1,3.8-16.4,3.8c-4.7,0-8.1-0.3-10.2-0.6V598.5z M202.9,614.5h3.1
		c4.9,0,7.7-2,7.7-5.2c0-3.1-2.4-4.9-6.7-4.9c-2,0-3.2,0.1-4,0.3L202.9,614.5L202.9,614.5z M202.9,633.1c0.9,0.1,2,0.1,3.7,0.1
		c4.3,0,8.1-1.7,8.1-6c0-4.2-3.8-5.9-8.5-5.9h-3.2L202.9,633.1L202.9,633.1z"/>
	<path class="st1" d="M269.3,618.4c0,13.7-8.3,22-20.5,22c-12.4,0-19.7-9.4-19.7-21.3c0-12.5,8-21.9,20.3-21.9
		C262.3,597.3,269.3,607,269.3,618.4z M239.1,619.1c0,8.2,3.8,14,10.2,14c6.4,0,10-6.1,10-14.2c0-7.5-3.6-14-10.1-14
		C242.8,604.8,239.1,610.9,239.1,619.1z"/>
	<path class="st1" d="M284.3,629.1l-3,10.7h-9.8l12.8-41.9h12.4l13,41.9h-10.2l-3.2-10.7H284.3z M294.9,622l-2.6-8.8
		c-0.8-2.5-1.5-5.6-2.1-8.1H290c-0.6,2.5-1.3,5.6-2,8.1l-2.5,8.8H294.9z"/>
	<path class="st1" d="M315.3,598.5c3.1-0.5,7.6-0.8,12.6-0.8c6.2,0,10.6,0.9,13.5,3.3c2.5,2,3.8,4.9,3.8,8.8c0,5.4-3.8,9-7.4,10.3
		v0.2c2.9,1.2,4.5,4,5.6,7.8c1.3,4.7,2.6,10.2,3.4,11.8h-9.7c-0.7-1.3-1.7-4.6-2.9-9.8c-1.1-5.2-2.9-6.6-6.8-6.7h-2.9v16.4h-9.4
		L315.3,598.5L315.3,598.5z M324.6,616.6h3.7c4.7,0,7.5-2.4,7.5-6c0-3.8-2.6-5.8-7-5.9c-2.3,0-3.6,0.2-4.3,0.3L324.6,616.6
		L324.6,616.6z"/>
	<path class="st1" d="M352,598.5c3.5-0.6,8-0.8,12.8-0.8c7.9,0,13.1,1.4,17.1,4.5c4.3,3.2,7.1,8.4,7.1,15.7c0,8-2.9,13.5-7,16.9
		c-4.4,3.7-11.1,5.4-19.3,5.4c-4.9,0-8.4-0.3-10.7-0.6L352,598.5L352,598.5z M361.6,632.7c0.8,0.2,2.1,0.2,3.3,0.2
		c8.6,0.1,14.1-4.7,14.1-14.6c0.1-8.7-5-13.3-13.2-13.3c-2.1,0-3.5,0.2-4.3,0.3L361.6,632.7L361.6,632.7z"/>
</g>
</svg>
