<?xml version="1.0" encoding="utf-8"?>
<!-- Generator: Adobe Illustrator 19.0.0, SVG Export Plug-In . SVG Version: 6.00 Build 0)  -->
<svg version="1.1" id="Layer_1" xmlns="http://www.w3.org/2000/svg" xmlns:xlink="http://www.w3.org/1999/xlink" x="0px" y="0px"
	 viewBox="-417 141 512 512" style="enable-background:new -417 141 512 512;" xml:space="preserve">
<style type="text/css">
	.st0{fill-rule:evenodd;clip-rule:evenodd;fill:#BD2F32;}
	.st1{fill:#FFFFFF;}
</style>
<g id="XMLID_29_">
	<rect id="XMLID_28_" x="-417" y="141" class="st0" width="512" height="512"/>
	<g id="XMLID_30_">
		<rect id="XMLID_31_" x="-344.7" y="580.2" class="st1" width="367.3" height="2.1"/>
	</g>
</g>
<g id="XMLID_346_">
	<g id="XMLID_363_">
		<g id="XMLID_364_">
			<path id="XMLID_365_" class="st1" d="M-42,348.1L-62.4,311c-1.8-3-6.1-6.1-9.4-6.1h-8.5l-0.3-96c0-6.4-5.5-10.7-11.9-10.7l0,0
				c-6.4,0-11.9,4.6-11.9,11.3v5.5l-12.2,12.2c-2.4,2.4-2.4,6.4,0,9.1l12.5,12.5v4.6l-12.5,12.2c-2.4,2.4-2.4,6.4,0,9.1l12.5,12.5
				v17.4h-8.5c-3.4,0-7.9,3-9.4,6.1l-20.4,37.2c-1.8,3-1.8,7.9,0,11l4,7.6c-5.8,3-11.6,6.4-17.4,10.7c-14.9,9.7-27.4,21.3-35.9,32
				l-0.3,0.3l-52.4-7c-2.1-0.3-2.7,0.6-0.9,2.4l9.7,10.1c-0.3,0-0.3,0.3-0.6,0.3l-43.3,43.3c-1.8,1.8-1.8,4,0,5.5l57.9,58.2
				c1.8,1.8,4,1.8,5.5,0l43.3-43.3c0,0,0-0.3,0.3-0.3l9.7,10.1c1.8,1.8,2.7,0.9,2.4-0.9l-5.2-46c-5.5,2.4-11.6,3.7-17.7,4.6
				c-2.4,3-6.1,4.9-10.1,4.9c-7,0-13.4-5.8-13.4-13.4c0-4,1.8-7.6,4.9-9.7c-0.3,3,0.3,6.1,1.8,8.2c0.6,0.9,1.2,1.8,2.1,2.4
				c2.7,2.1,6.4,3.4,11.6,3.4c1.8,0,3.7,0,5.8-0.3c4.6-0.6,9.4-2.1,14.6-3.7c5.2-1.5,10.7-4,15.8-6.7c6.7-3.4,14-7.6,21-12.2
				c3.4-2.4,7-4.9,10.1-7.6c4.9-3.7,9.1-7.6,13.4-11.3c15.8-15.2,26.2-31.4,19.8-40.5c-2.4-3.7-7-5.5-13.7-5.5
				c-2.7,0-5.8,0.3-8.8,0.9c0.6-2.1,2.1-4,3.7-5.8c1.8-1.8,3.7-3,5.8-4c3.7-1.8,8.2-1.8,11.9-0.6c2.7,0.6,5.2,2.1,7.6,4
				c7,6.7,7,18,0.3,25.3c-0.9,0.9-2.1,1.8-3.4,2.7c-3,9.1-8.2,17.1-14.6,23.5h23.8c3.4,0,7.9-1.2,9.4-4.6l20.4-35.3
				C-40.5,356.7-40.5,351.2-42,348.1z M-98.4,359.4c3,0,6.7,0.3,8.5,3c3.7,5.8-5.2,20.7-23.8,37.2c-2.7,2.4-5.8,4.9-8.8,7
				c-3,2.1-5.8,4.6-9.1,6.4c-4.6,3-8.8,5.5-13.4,8.2c-7.6,4-14.6,7.6-21.3,9.7c-5.2,1.8-9.4,3-14,3.7c-2.1,0.3-4.6,0.6-6.1,0.6
				c-3,0-6.7-0.3-8.5-3c0,0,0,0,0-0.3c-0.6-1.8-0.6-4.6,0.3-7.6c0.6,0,0.9-0.3,1.8-0.3c4.6,0,8.5,2.4,11,5.5
				c5.5-0.6,10.7-2.1,15.2-5.2l-0.9-8.2c-0.3-2.1-2.1-4-4.6-4.6l-13.4-1.8c7.9-9.4,19.5-19.5,32.6-28.6c5.8-3.7,11.6-7,17.1-10.1
				l13.4,23.5c0.3,0.3,0.6,0.6,0.9,1.2c0.6-0.3,0.9-0.9,1.8-1.2c8.5-4.9,14.9-11,18.9-18.9c-0.9-0.6-2.1-1.2-2.7-2.4
				c-3.7-3.4-5.5-8.2-5.5-12.8C-104.8,360.3-101.4,359.4-98.4,359.4z"/>
		</g>
	</g>
	<g id="XMLID_362_">
	</g>
	<g id="XMLID_361_">
	</g>
	<g id="XMLID_360_">
	</g>
	<g id="XMLID_359_">
	</g>
	<g id="XMLID_358_">
	</g>
	<g id="XMLID_357_">
	</g>
	<g id="XMLID_356_">
	</g>
	<g id="XMLID_355_">
	</g>
	<g id="XMLID_354_">
	</g>
	<g id="XMLID_353_">
	</g>
	<g id="XMLID_352_">
	</g>
	<g id="XMLID_351_">
	</g>
	<g id="XMLID_350_">
	</g>
	<g id="XMLID_349_">
	</g>
	<g id="XMLID_347_">
	</g>
</g>
<g>
	<path d="M-286.3,596.9h8.4v16.7h0.3c0.9-1.5,1.9-2.8,2.5-4l8.7-12.4h10.5l-12.4,16.1l13,21.6h-9.9l-9.3-16.4l-3.1,4v12.4h-8.4v-38
		H-286.3z"/>
	<path d="M-229.7,618.8h-13.9v9h15.5v7.1h-24.1v-37.7h23.2v7.1h-14.8v7.7h13.9v6.8H-229.7z"/>
	<path d="M-213.6,634.6v-15.5l-11.8-22.3h9.6l3.7,9c1.2,2.8,1.9,4.6,2.8,7.1l0,0c0.9-2.5,1.9-4.6,2.8-7.1l3.7-9h9.6l-12.4,22v15.8
		H-213.6z"/>
	<path d="M-163.5,633.7c-1.5,0.9-4.9,1.5-9.6,1.5c-13,0-19.8-8-19.8-18.9c0-13,9.3-20.1,20.4-20.1c4.3,0,7.7,0.9,9.3,1.5l-1.9,6.8
		c-1.9-0.6-4-1.5-7.1-1.5c-6.8,0-12.1,4-12.1,12.4c0,7.4,4.3,12.4,12.1,12.4c2.5,0,5.6-0.6,7.1-1.2L-163.5,633.7z"/>
	<path d="M-149.2,596.9v14.5h13.9v-14.5h8.3v37.7h-8.3v-15.8h-13.9v15.8h-8.7v-37.7H-149.2z"/>
	<path d="M-110.6,625l-2.8,9.6h-9l11.4-37.7h11.1l11.8,37.7h-9.3l-2.8-9.6H-110.6z M-101,618.5l-2.5-8c-0.6-2.2-1.2-4.9-1.9-7.1l0,0
		c-0.6,2.2-1.2,4.9-1.9,7.1l-2.2,8H-101z"/>
	<path d="M-74.1,596.9v37.7h-8.7v-37.7H-74.1z"/>
	<path d="M-67,634.6v-37.7h9.9l7.7,13.9c2.2,4,4.3,8.7,6.2,13h0.3c-0.6-4.9-0.6-10.2-0.6-15.8v-10.8h7.7v37.7h-9l-8-14.5
		c-2.2-4-4.6-9-6.5-13.3h-0.3c0.3,4.9,0.3,10.2,0.3,16.4v11.4H-67V634.6z"/>
</g>
<g>
	<path class="st1" d="M-291.9,596.9h8.4v16.7h0.3c0.9-1.5,1.9-2.8,2.5-4l8.7-12.4h10.5l-12.4,16.1l13,21.6h-9.9l-9.3-16.4l-3.1,4
		v12.4h-8.4v-38H-291.9z"/>
	<path class="st1" d="M-235.3,618.8h-13.9v9h15.5v7.1h-24.1v-37.7h23.2v7.1h-14.8v7.7h13.9v6.8H-235.3z"/>
	<path class="st1" d="M-219.2,634.6v-15.5l-11.8-22.3h9.6l3.7,9c1.2,2.8,1.9,4.6,2.8,7.1l0,0c0.9-2.5,1.9-4.6,2.8-7.1l3.7-9h9.6
		l-12.4,22v15.8H-219.2z"/>
	<path class="st1" d="M-169.1,633.7c-1.5,0.9-4.9,1.5-9.6,1.5c-13,0-19.8-8-19.8-18.9c0-13,9.3-20.1,20.4-20.1
		c4.3,0,7.7,0.9,9.3,1.5l-1.9,6.8c-1.9-0.6-4-1.5-7.1-1.5c-6.8,0-12.1,4-12.1,12.4c0,7.4,4.3,12.4,12.1,12.4c2.5,0,5.6-0.6,7.1-1.2
		L-169.1,633.7z"/>
	<path class="st1" d="M-154.9,596.9v14.5h13.9v-14.5h8.3v37.7h-8.3v-15.8h-13.9v15.8h-8.7v-37.7H-154.9z"/>
	<path class="st1" d="M-116.3,625l-2.8,9.6h-9l11.4-37.7h11.1l11.8,37.7h-9.3l-2.8-9.6H-116.3z M-106.7,618.5l-2.5-8
		c-0.6-2.2-1.2-4.9-1.9-7.1l0,0c-0.6,2.2-1.2,4.9-1.9,7.1l-2.2,8H-106.7z"/>
	<path class="st1" d="M-79.8,596.9v37.7h-8.7v-37.7H-79.8z"/>
	<path class="st1" d="M-72.7,634.6v-37.7h9.9l7.7,13.9c2.2,4,4.3,8.7,6.2,13h0.3c-0.6-4.9-0.6-10.2-0.6-15.8v-10.8h7.7v37.7h-9
		l-8-14.5c-2.2-4-4.6-9-6.5-13.3h-0.3c0.3,4.9,0.3,10.2,0.3,16.4v11.4h-7.7V634.6z"/>
</g>
</svg>
