<?xml version="1.0" encoding="utf-8"?>
<!-- Generator: Adobe Illustrator 19.0.0, SVG Export Plug-In . SVG Version: 6.00 Build 0)  -->
<svg version="1.1" id="Layer_1" xmlns="http://www.w3.org/2000/svg" xmlns:xlink="http://www.w3.org/1999/xlink" x="0px" y="0px"
	 viewBox="-71 145 144 144" style="enable-background:new -71 145 144 144;" xml:space="preserve">
<style type="text/css">
	.st0{fill:#040305;}
</style>
<g id="XMLID_346_">
	<g id="XMLID_363_">
		<g id="XMLID_364_">
			<path id="XMLID_365_" class="st0" d="M37,198.9l-6.7-12.2c-0.6-1-2-2-3.1-2h-2.8l-0.1-31.5c0-2.1-1.8-3.5-3.9-3.5l0,0
				c-2.1,0-3.9,1.5-3.9,3.7v1.8l-4,4c-0.8,0.8-0.8,2.1,0,3l4.1,4.1v1.5l-4.1,4c-0.8,0.8-0.8,2.1,0,3l4.1,4.1v5.7h-2.8
				c-1.1,0-2.6,1-3.1,2l-6.7,12.2c-0.6,1-0.6,2.6,0,3.6l1.3,2.5c-1.9,1-3.8,2.1-5.7,3.5c-4.9,3.2-9,7-11.8,10.5l-0.1,0.1l-17.2-2.3
				c-0.7-0.1-0.9,0.2-0.3,0.8l3.2,3.3c-0.1,0-0.1,0.1-0.2,0.1L-41,235.1c-0.6,0.6-0.6,1.3,0,1.8L-22,256c0.6,0.6,1.3,0.6,1.8,0
				L-6,241.8c0,0,0-0.1,0.1-0.1l3.2,3.3c0.6,0.6,0.9,0.3,0.8-0.3l-1.7-15.1c-1.8,0.8-3.8,1.2-5.8,1.5c-0.8,1-2,1.6-3.3,1.6
				c-2.3,0-4.4-1.9-4.4-4.4c0-1.3,0.6-2.5,1.6-3.2c-0.1,1,0.1,2,0.6,2.7c0.2,0.3,0.4,0.6,0.7,0.8c0.9,0.7,2.1,1.1,3.8,1.1
				c0.6,0,1.2,0,1.9-0.1c1.5-0.2,3.1-0.7,4.8-1.2s3.5-1.3,5.2-2.2c2.2-1.1,4.6-2.5,6.9-4c1.1-0.8,2.3-1.6,3.3-2.5
				c1.6-1.2,3-2.5,4.4-3.7c5.2-5,8.6-10.3,6.5-13.3c-0.8-1.2-2.3-1.8-4.5-1.8c-0.9,0-1.9,0.1-2.9,0.3c0.2-0.7,0.7-1.3,1.2-1.9
				c0.6-0.6,1.2-1,1.9-1.3c1.2-0.6,2.7-0.6,3.9-0.2c0.9,0.2,1.7,0.7,2.5,1.3c2.3,2.2,2.3,5.9,0.1,8.3c-0.3,0.3-0.7,0.6-1.1,0.9
				c-1,3-2.7,5.6-4.8,7.7h7.8c1.1,0,2.6-0.4,3.1-1.5l6.7-11.6C37.5,201.7,37.5,199.9,37,198.9z M18.5,202.6c1,0,2.2,0.1,2.8,1
				c1.2,1.9-1.7,6.8-7.8,12.2c-0.9,0.8-1.9,1.6-2.9,2.3c-1,0.7-1.9,1.5-3,2.1c-1.5,1-2.9,1.8-4.4,2.7c-2.5,1.3-4.8,2.5-7,3.2
				c-1.7,0.6-3.1,1-4.6,1.2c-0.7,0.1-1.5,0.2-2,0.2c-1,0-2.2-0.1-2.8-1c0,0,0,0,0-0.1c-0.2-0.6-0.2-1.5,0.1-2.5
				c0.2,0,0.3-0.1,0.6-0.1c1.5,0,2.8,0.8,3.6,1.8c1.8-0.2,3.5-0.7,5-1.7l-0.3-2.7c-0.1-0.7-0.7-1.3-1.5-1.5l-4.4-0.6
				c2.6-3.1,6.4-6.4,10.7-9.4c1.9-1.2,3.8-2.3,5.6-3.3l4.4,7.7c0.1,0.1,0.2,0.2,0.3,0.4c0.2-0.1,0.3-0.3,0.6-0.4
				c2.8-1.6,4.9-3.6,6.2-6.2c-0.3-0.2-0.7-0.4-0.9-0.8c-1.2-1.1-1.8-2.7-1.8-4.2C16.4,202.9,17.5,202.6,18.5,202.6z"/>
		</g>
	</g>
	<g id="XMLID_362_">
	</g>
	<g id="XMLID_361_">
	</g>
	<g id="XMLID_360_">
	</g>
	<g id="XMLID_359_">
	</g>
	<g id="XMLID_358_">
	</g>
	<g id="XMLID_357_">
	</g>
	<g id="XMLID_356_">
	</g>
	<g id="XMLID_355_">
	</g>
	<g id="XMLID_354_">
	</g>
	<g id="XMLID_353_">
	</g>
	<g id="XMLID_352_">
	</g>
	<g id="XMLID_351_">
	</g>
	<g id="XMLID_350_">
	</g>
	<g id="XMLID_349_">
	</g>
	<g id="XMLID_347_">
	</g>
</g>
<g>
	<path d="M-39.5,267.9h2.7v5.4h0.1c0.3-0.5,0.6-0.9,0.8-1.3l2.8-4h3.4l-4,5.2l4.2,7h-3.2l-3-5.3l-1,1.3v4h-2.7V267.9z"/>
	<path d="M-21.2,275h-4.5v2.9h5v2.3h-7.8v-12.2h7.5v2.3h-4.8v2.5h4.5V275z"/>
	<path d="M-16,280.1v-5l-3.8-7.2h3.1l1.2,2.9c0.4,0.9,0.6,1.5,0.9,2.3h0c0.3-0.8,0.6-1.5,0.9-2.3l1.2-2.9h3.1l-4,7.1v5.1H-16z"/>
	<path d="M0.2,279.8c-0.5,0.3-1.6,0.5-3.1,0.5c-4.2,0-6.4-2.6-6.4-6.1c0-4.2,3-6.5,6.6-6.5c1.4,0,2.5,0.3,3,0.5l-0.6,2.2
		c-0.6-0.2-1.3-0.5-2.3-0.5c-2.2,0-3.9,1.3-3.9,4c0,2.4,1.4,4,3.9,4c0.8,0,1.8-0.2,2.3-0.4L0.2,279.8z"/>
	<path d="M4.8,267.9v4.7h4.5v-4.7H12v12.2H9.3V275H4.8v5.1H2v-12.2H4.8z"/>
	<path d="M17.3,277l-0.9,3.1h-2.9l3.7-12.2h3.6l3.8,12.2h-3l-0.9-3.1H17.3z M20.4,274.9l-0.8-2.6c-0.2-0.7-0.4-1.6-0.6-2.3h0
		c-0.2,0.7-0.4,1.6-0.6,2.3l-0.7,2.6H20.4z"/>
	<path d="M29.1,267.9v12.2h-2.8v-12.2H29.1z"/>
	<path d="M31.4,280.1v-12.2h3.2l2.5,4.5c0.7,1.3,1.4,2.8,2,4.2h0.1c-0.2-1.6-0.2-3.3-0.2-5.1v-3.5h2.5v12.2h-2.9l-2.6-4.7
		c-0.7-1.3-1.5-2.9-2.1-4.3l-0.1,0c0.1,1.6,0.1,3.3,0.1,5.3v3.7H31.4z"/>
</g>
</svg>
