<?xml version="1.0" encoding="utf-8"?>
<!-- Generator: Adobe Illustrator 19.0.0, SVG Export Plug-In . SVG Version: 6.00 Build 0)  -->
<svg version="1.1" id="Layer_1" xmlns="http://www.w3.org/2000/svg" xmlns:xlink="http://www.w3.org/1999/xlink" x="0px" y="0px"
	 viewBox="0 0 144 144" style="enable-background:new 0 0 144 144;" xml:space="preserve">
<style type="text/css">
	.st0{fill:#010101;}
</style>
<path id="XMLID_391_" class="st0" d="M108.2,31.4c-3.5,0-6.5,2.1-7.9,5H62.9c-1.8,0-3.4,1.3-3.7,3H47.5c-0.4,0-0.8,0.3-0.8,0.8v3
	h-6.2v6.1C32.6,52.2,27,59.7,27,68.6h12.8c0.5,3.9,3.8,6.9,7.8,6.9c4,0,7.3-3,7.8-6.9h12.8c0-8.9-5.7-16.5-13.6-19.3v-6.1h-6.2v-2.3
	h10.9c0.4,1.7,1.9,3,3.7,3h37.4c0.4,0.9,1,1.7,1.6,2.4l-20.2,54.8h-7.9c-6.4,0-11.5,5.2-11.5,11.5h46.1c0-6.4-5.2-11.5-11.5-11.5
	h-7.2L109,49c4.5-0.4,8-4.2,8-8.8C117,35.3,113.1,31.4,108.2,31.4z M110.4,45.3c-0.7,0.3-1.4,0.4-2.1,0.4c-1.6,0-3-0.7-4-1.7
	c-0.4-0.4-0.7-0.8-0.9-1.3c-0.4-0.7-0.6-1.6-0.6-2.5c0-1.5,0.6-2.8,1.5-3.8c1-1.1,2.4-1.7,4-1.7c3.1,0,5.5,2.5,5.5,5.5
	C113.7,42.5,112.3,44.5,110.4,45.3z"/>
</svg>
