<?xml version="1.0" encoding="utf-8"?>
<!-- Generator: Adobe Illustrator 19.0.0, SVG Export Plug-In . SVG Version: 6.00 Build 0)  -->
<svg version="1.1" id="Layer_1" xmlns="http://www.w3.org/2000/svg" xmlns:xlink="http://www.w3.org/1999/xlink" x="0px" y="0px"
	 viewBox="-417 141 512 512" style="enable-background:new -417 141 512 512;" xml:space="preserve">
<style type="text/css">
	.st0{fill-rule:evenodd;clip-rule:evenodd;fill:#BD2F32;}
	.st1{fill:#FFFFFF;}
</style>
<g id="XMLID_29_">
	<rect id="XMLID_28_" x="-417" y="141" class="st0" width="512" height="512"/>
	<g id="XMLID_30_">
		<rect id="XMLID_31_" x="-344.7" y="580.2" class="st1" width="367.3" height="2.1"/>
	</g>
</g>
<path id="XMLID_391_" class="st1" d="M-22.6,214.8c-13.4,0-24.8,8-30.2,19.1h-143c-6.9,0-13,5-14.1,11.5h-44.7
	c-1.5,0-3.1,1.1-3.1,3.1v11.5h-23.7v23.3C-311.6,294.3-333,323-333,357h48.9c1.9,14.9,14.5,26.4,29.8,26.4s27.9-11.5,29.8-26.4h48.9
	c0-34-21.8-63.1-52-73.8v-23.3h-23.7v-8.8h41.7c1.5,6.5,7.3,11.5,14.1,11.5h143c1.5,3.4,3.8,6.5,6.1,9.2l-77.2,209.5h-30.2
	c-24.5,0-44,19.9-44,44h176.2c0-24.5-19.9-44-44-44H-93l73.4-199.1C-2.4,280.6,11,266,11,248.5C11,229.7-3.9,214.8-22.6,214.8z
	 M-14.2,267.9c-2.7,1.1-5.4,1.5-8,1.5c-6.1,0-11.5-2.7-15.3-6.5c-1.5-1.5-2.7-3.1-3.4-5c-1.5-2.7-2.3-6.1-2.3-9.6
	c0-5.7,2.3-10.7,5.7-14.5c3.8-4.2,9.2-6.5,15.3-6.5c11.8,0,21,9.6,21,21C-1.6,257.2-7,264.9-14.2,267.9z"/>
<g>
	<path d="M-233.3,597h8.8v31.5h15.5v7.5h-24.3V597z"/>
	<path d="M-194.3,625.9l-2.8,10.1h-9l11.9-39h11.6l12.1,39h-9.6l-3.1-10.1H-194.3z M-184.5,619.2l-2.3-8.3c-0.8-2.3-1.3-5.2-2.1-7.5
		l0,0c-0.5,2.3-1,5.2-1.8,7.5l-2.3,8.3H-184.5z"/>
	<path d="M-132.6,621c-0.3-4.6-0.3-10.3-0.3-16h-0.3c-1.3,4.9-2.8,10.6-4.4,15l-4.6,15.2h-7l-4.1-15c-1.3-4.6-2.6-10.1-3.6-15.2l0,0
		c-0.3,5.2-0.5,11.4-0.8,16l-0.8,14.7h-8.3l2.6-39h11.6l3.9,12.9c1.3,4.4,2.3,9.3,3.4,13.9h0.3c1-4.4,2.3-9.6,3.6-13.9l4.1-12.9
		h11.6l2.1,39h-8.5L-132.6,621z"/>
	<path d="M-116.6,597.5c2.8-0.5,6.5-0.8,11.9-0.8c5.4,0,9.3,1,11.9,3.1c2.6,2.1,4.1,5.2,4.1,9c0,3.9-1.3,7-3.6,9.3
		c-3.1,2.8-7.5,4.1-12.7,4.1c-1,0-2.3,0-3.1-0.3V636h-8.8v-38.5H-116.6z M-107.8,615.1c0.8,0.3,1.5,0.3,2.8,0.3
		c4.6,0,7.5-2.3,7.5-6.5c0-3.6-2.6-5.7-7-5.7c-1.8,0-3.1,0.3-3.6,0.3v11.6H-107.8z"/>
</g>
<g>
	<path class="st1" d="M-239,597h8.8v31.5h15.5v7.5H-239V597z"/>
	<path class="st1" d="M-200,625.9l-2.8,10.1h-9l11.9-39h11.6l12.1,39h-9.6l-3.1-10.1H-200z M-190.2,619.2l-2.3-8.3
		c-0.8-2.3-1.3-5.2-2.1-7.5l0,0c-0.5,2.3-1,5.2-1.8,7.5l-2.3,8.3H-190.2z"/>
	<path class="st1" d="M-138.3,621c-0.3-4.6-0.3-10.3-0.3-16h-0.3c-1.3,4.9-2.8,10.6-4.4,15l-4.6,15.2h-7l-4.1-15
		c-1.3-4.6-2.6-10.1-3.6-15.2l0,0c-0.3,5.2-0.5,11.4-0.8,16l-0.8,14.7h-8.3l2.6-39h11.6l3.9,12.9c1.3,4.4,2.3,9.3,3.4,13.9h0.3
		c1-4.4,2.3-9.6,3.6-13.9l4.1-12.9h11.6l2.1,39h-8.5L-138.3,621z"/>
	<path class="st1" d="M-122.2,597.5c2.8-0.5,6.5-0.8,11.9-0.8c5.4,0,9.3,1,11.9,3.1c2.6,2.1,4.1,5.2,4.1,9c0,3.9-1.3,7-3.6,9.3
		c-3.1,2.8-7.5,4.1-12.7,4.1c-1,0-2.3,0-3.1-0.3V636h-8.8v-38.5H-122.2z M-113.5,615.1c0.8,0.3,1.5,0.3,2.8,0.3
		c4.6,0,7.5-2.3,7.5-6.5c0-3.6-2.6-5.7-7-5.7c-1.8,0-3.1,0.3-3.6,0.3v11.6H-113.5z"/>
</g>
</svg>
