<?xml version="1.0" encoding="utf-8"?>
<!-- Generator: Adobe Illustrator 19.0.0, SVG Export Plug-In . SVG Version: 6.00 Build 0)  -->
<svg version="1.1" id="Layer_1" xmlns="http://www.w3.org/2000/svg" xmlns:xlink="http://www.w3.org/1999/xlink" x="0px" y="0px"
	 viewBox="-71 145 144 144" style="enable-background:new -71 145 144 144;" xml:space="preserve">
<style type="text/css">
	.st0{fill:#010101;}
</style>
<path id="XMLID_391_" class="st0" d="M37.2,157.9c-3.5,0-6.5,2.1-7.9,5H-8.1c-1.8,0-3.4,1.3-3.7,3h-11.7c-0.4,0-0.8,0.3-0.8,0.8v3
	h-6.2v6.1c-7.9,2.9-13.5,10.4-13.5,19.3h12.8c0.5,3.9,3.8,6.9,7.8,6.9s7.3-3,7.8-6.9h12.8c0-8.9-5.7-16.5-13.6-19.3v-6.1h-6.2v-2.3
	h10.9c0.4,1.7,1.9,3,3.7,3h37.4c0.4,0.9,1,1.7,1.6,2.4l-20.2,54.8H2.9c-6.4,0-11.5,5.2-11.5,11.5h46.1c0-6.4-5.2-11.5-11.5-11.5
	h-7.2L38,175.5c4.5-0.4,8-4.2,8-8.8C46,161.8,42.1,157.9,37.2,157.9z M39.4,171.8c-0.7,0.3-1.4,0.4-2.1,0.4c-1.6,0-3-0.7-4-1.7
	c-0.4-0.4-0.7-0.8-0.9-1.3c-0.4-0.7-0.6-1.6-0.6-2.5c0-1.5,0.6-2.8,1.5-3.8c1-1.1,2.4-1.7,4-1.7c3.1,0,5.5,2.5,5.5,5.5
	C42.7,169,41.3,171,39.4,171.8z"/>
<g>
	<path d="M-26.6,260.5h3.4v12.2h6v2.9h-9.4V260.5z"/>
	<path d="M-11.5,271.7l-1.1,3.9h-3.5l4.6-15.1h4.5l4.7,15.1h-3.7l-1.2-3.9H-11.5z M-7.7,269.1l-0.9-3.2c-0.3-0.9-0.5-2-0.8-2.9h0
		c-0.2,0.9-0.4,2-0.7,2.9l-0.9,3.2H-7.7z"/>
	<path d="M12.4,269.8c-0.1-1.8-0.1-4-0.1-6.2h-0.1c-0.5,1.9-1.1,4.1-1.7,5.8l-1.8,5.9H6l-1.6-5.8c-0.5-1.8-1-3.9-1.4-5.9h0
		c-0.1,2-0.2,4.4-0.3,6.2l-0.3,5.7h-3.2l1-15.1h4.5l1.5,5c0.5,1.7,0.9,3.6,1.3,5.4h0.1c0.4-1.7,0.9-3.7,1.4-5.4l1.6-5h4.5l0.8,15.1
		h-3.3L12.4,269.8z"/>
	<path d="M18.6,260.7c1.1-0.2,2.5-0.3,4.6-0.3c2.1,0,3.6,0.4,4.6,1.2c1,0.8,1.6,2,1.6,3.5c0,1.5-0.5,2.7-1.4,3.6
		c-1.2,1.1-2.9,1.6-4.9,1.6c-0.4,0-0.9,0-1.2-0.1v5.4h-3.4V260.7z M22,267.5c0.3,0.1,0.6,0.1,1.1,0.1c1.8,0,2.9-0.9,2.9-2.5
		c0-1.4-1-2.2-2.7-2.2c-0.7,0-1.2,0.1-1.4,0.1V267.5z"/>
</g>
</svg>
