<?xml version="1.0" encoding="utf-8"?>
<!-- Generator: Adobe Illustrator 19.0.0, SVG Export Plug-In . SVG Version: 6.00 Build 0)  -->
<svg version="1.1" id="Layer_1" xmlns="http://www.w3.org/2000/svg" xmlns:xlink="http://www.w3.org/1999/xlink" x="0px" y="0px"
	 viewBox="0 0 144 144" style="enable-background:new 0 0 144 144;" xml:space="preserve">
<style type="text/css">
	.st0{fill:#010101;}
	.st1{opacity:0;fill:#010101;}
	.st2{opacity:6.250000e-002;fill:#010101;}
	.st3{opacity:0.125;fill:#010101;}
	.st4{opacity:0.1875;fill:#010101;}
	.st5{opacity:0.25;fill:#010101;}
	.st6{opacity:0.3125;fill:#010101;}
	.st7{opacity:0.375;fill:#010101;}
	.st8{opacity:0.4375;fill:#010101;}
	.st9{opacity:0.5;fill:#010101;}
	.st10{opacity:0.5625;fill:#010101;}
	.st11{opacity:0.625;fill:#010101;}
	.st12{opacity:0.6875;fill:#010101;}
	.st13{opacity:0.75;fill:#010101;}
	.st14{opacity:0.8125;fill:#010101;}
	.st15{opacity:0.875;fill:#010101;}
	.st16{opacity:0.9375;fill:#010101;}
	.st17{clip-path:url(#XMLID_101_);}
</style>
<g id="XMLID_521_">
	
		<image style="overflow:visible;" width="143" height="234" id="XMLID_1039_" xlink:href="61ACE029.png"  transform="matrix(0.24 0 0 0.24 69.528 13.0673)">
	</image>
	
		<image style="overflow:visible;" width="61" height="229" id="XMLID_1038_" xlink:href="61ACE02B.png"  transform="matrix(0.24 0 0 0.24 76.4621 13.5783)">
	</image>
	
		<image style="overflow:visible;" width="72" height="251" id="XMLID_1037_" xlink:href="61ACE02E.png"  transform="matrix(0.24 0 0 0.24 63.4963 13.6047)">
	</image>
	<g id="XMLID_1026_">
		<g id="XMLID_116_">
			
				<image style="overflow:visible;" width="18" height="51" id="XMLID_117_" xlink:href="61ACE02F.png"  transform="matrix(0.24 0 0 0.24 66.7918 78.5298)">
			</image>
		</g>
	</g>
	<path id="XMLID_1014_" class="st0" d="M79.8,87.7c-0.2-0.1-0.3-0.2-0.5-0.2h-8.1h-7.8h-8.1c-0.2,0-0.3,0.1-0.5,0.2l-4.6,3.1v1.7
		h34.2v-1.7L79.8,87.7z M59.4,90.6c0,0.5-0.4,1-1,1h-1.4c-0.5,0-1-0.4-1-1v-0.2c0-0.5,0.4-1,1-1h1.4c0.5,0,1,0.4,1,1V90.6z M71,90.7
		c0,0.5-0.4,0.9-0.9,0.9h-5.6c-0.5,0-0.9-0.4-0.9-0.9v-0.4c0-0.5,0.4-0.9,0.9-0.9h5.6c0.5,0,0.9,0.4,0.9,0.9V90.7z M78.8,90.6
		c0,0.5-0.4,1-1,1h-1.4c-0.5,0-1-0.4-1-1v-0.2c0-0.5,0.4-1,1-1h1.4c0.5,0,1,0.4,1,1V90.6z"/>
	<g id="XMLID_821_">
		<path id="XMLID_83_" class="st1" d="M79.8,87.7c0,0.4-5.3,0.7-12.2,0.7S55,88.1,55,87.7c0-0.4,5.6-0.4,12.5-0.4
			S79.8,87.3,79.8,87.7z"/>
		<path id="XMLID_98_" class="st2" d="M79.7,87.7c0,0.4-5.3,0.7-12.1,0.7s-12.4-0.3-12.4-0.7c0-0.4,5.5-0.3,12.4-0.3
			S79.7,87.4,79.7,87.7z"/>
		<path id="XMLID_97_" class="st3" d="M79.6,87.7c0,0.4-5.2,0.6-12,0.6s-12.2-0.3-12.2-0.6c0-0.4,5.5-0.3,12.2-0.3
			S79.6,87.4,79.6,87.7z"/>
		<path id="XMLID_96_" class="st4" d="M79.4,87.7c0,0.3-5.2,0.6-11.9,0.6s-12.1-0.2-12.1-0.6c0-0.3,5.4-0.3,12.1-0.3
			S79.4,87.4,79.4,87.7z"/>
		<path id="XMLID_95_" class="st5" d="M79.3,87.7c0,0.3-5.2,0.6-11.8,0.6c-6.6,0-12-0.2-12-0.6c0-0.3,5.4-0.3,12-0.3
			C74.2,87.4,79.3,87.4,79.3,87.7z"/>
		<path id="XMLID_94_" class="st6" d="M79.2,87.7c0,0.3-5.1,0.5-11.6,0.5c-6.5,0-11.8-0.2-11.8-0.5c0-0.3,5.3-0.3,11.8-0.3
			C74.1,87.4,79.2,87.4,79.2,87.7z"/>
		<path id="XMLID_93_" class="st7" d="M79.1,87.7c0,0.3-5.1,0.5-11.5,0.5S55.9,88,55.9,87.7c0-0.3,5.2-0.2,11.7-0.2
			S79.1,87.4,79.1,87.7z"/>
		<path id="XMLID_92_" class="st8" d="M79,87.7c0,0.3-5,0.4-11.4,0.4S56,88,56,87.7c0-0.3,5.2-0.2,11.5-0.2S79,87.4,79,87.7z"/>
		<path id="XMLID_91_" class="st9" d="M78.8,87.7c0,0.3-5,0.4-11.3,0.4S56.1,88,56.1,87.7c0-0.3,5.1-0.2,11.4-0.2
			S78.8,87.4,78.8,87.7z"/>
		<path id="XMLID_90_" class="st10" d="M78.7,87.7c0,0.3-4.9,0.4-11.2,0.4c-6.2,0-11.3-0.1-11.3-0.4c0-0.3,5-0.2,11.3-0.2
			C73.8,87.5,78.7,87.4,78.7,87.7z"/>
		<path id="XMLID_89_" class="st11" d="M78.6,87.7c0,0.2-4.9,0.3-11,0.3c-6.2,0-11.1-0.1-11.1-0.3c0-0.2,5-0.1,11.1-0.1
			C73.7,87.5,78.6,87.4,78.6,87.7z"/>
		<path id="XMLID_88_" class="st12" d="M78.5,87.7c0,0.2-4.8,0.3-10.9,0.3s-11-0.1-11-0.3c0-0.2,4.9-0.1,11-0.1S78.5,87.4,78.5,87.7
			z"/>
		<path id="XMLID_87_" class="st13" d="M78.4,87.7c0,0.2-4.8,0.3-10.8,0.3s-10.9,0-10.9-0.3c0-0.2,4.9-0.1,10.9-0.1
			S78.4,87.4,78.4,87.7z"/>
		<path id="XMLID_86_" class="st14" d="M78.2,87.6c0,0.2-4.8,0.2-10.7,0.2s-10.7,0-10.7-0.2c0-0.2,4.8-0.1,10.7-0.1
			S78.2,87.4,78.2,87.6z"/>
		<path id="XMLID_85_" class="st15" d="M78.1,87.6c0,0.2-4.7,0.2-10.6,0.2S57,87.8,57,87.6c0-0.2,4.7,0,10.6,0S78.1,87.4,78.1,87.6z
			"/>
		<path id="XMLID_84_" class="st16" d="M78,87.6c0,0.2-4.7,0.1-10.4,0.1c-5.8,0-10.5,0-10.5-0.1c0-0.2,4.7,0,10.5,0
			C73.3,87.6,78,87.5,78,87.6z"/>
		<path id="XMLID_82_" class="st0" d="M77.9,87.6c0,0.2-4.6,0.1-10.3,0.1c-5.7,0-10.3,0.1-10.3-0.1c0-0.2,4.6,0,10.3,0
			C73.3,87.6,77.9,87.5,77.9,87.6z"/>
	</g>
	<g id="XMLID_820_">
		<path id="XMLID_66_" class="st1" d="M84.5,91.1c-0.1,0.2-1.5-0.3-3-1.3c-1.4-1-2.5-1.9-2.3-2.2c0.1-0.2,1.3,0.6,2.8,1.6
			C83.4,90.2,84.7,90.8,84.5,91.1z"/>
		<path id="XMLID_81_" class="st2" d="M84.5,91c-0.1,0.2-1.5-0.3-2.9-1.3c-1.4-1-2.5-1.9-2.3-2.1c0.1-0.2,1.3,0.6,2.7,1.5
			C83.4,90.2,84.7,90.8,84.5,91z"/>
		<path id="XMLID_80_" class="st3" d="M84.5,91c-0.1,0.2-1.5-0.3-2.9-1.3c-1.4-1-2.4-1.9-2.3-2.1c0.1-0.2,1.3,0.6,2.7,1.5
			C83.4,90.2,84.6,90.8,84.5,91z"/>
		<path id="XMLID_79_" class="st4" d="M84.4,91c-0.1,0.2-1.4-0.3-2.8-1.3c-1.4-0.9-2.4-1.8-2.3-2c0.1-0.2,1.2,0.6,2.6,1.5
			C83.3,90.2,84.6,90.8,84.4,91z"/>
		<path id="XMLID_78_" class="st5" d="M84.4,91c-0.1,0.2-1.4-0.4-2.8-1.3c-1.4-0.9-2.4-1.8-2.3-2c0.1-0.2,1.2,0.6,2.6,1.5
			C83.3,90.2,84.5,90.8,84.4,91z"/>
		<path id="XMLID_77_" class="st6" d="M84.4,91c-0.1,0.2-1.4-0.4-2.7-1.3c-1.4-0.9-2.4-1.8-2.3-2c0.1-0.2,1.2,0.6,2.6,1.5
			C83.3,90.2,84.5,90.8,84.4,91z"/>
		<path id="XMLID_76_" class="st7" d="M84.3,91c-0.1,0.2-1.3-0.4-2.7-1.3c-1.3-0.9-2.4-1.7-2.3-1.9c0.1-0.2,1.2,0.6,2.5,1.5
			C83.3,90.2,84.5,90.8,84.3,91z"/>
		<path id="XMLID_75_" class="st8" d="M84.3,90.9c-0.1,0.2-1.3-0.4-2.6-1.3c-1.3-0.9-2.4-1.7-2.2-1.9c0.1-0.2,1.2,0.6,2.5,1.5
			C83.3,90.1,84.4,90.8,84.3,90.9z"/>
		<path id="XMLID_74_" class="st9" d="M84.3,90.9c-0.1,0.2-1.3-0.4-2.6-1.3c-1.3-0.9-2.3-1.7-2.2-1.8c0.1-0.2,1.1,0.6,2.5,1.5
			C83.2,90.1,84.4,90.8,84.3,90.9z"/>
		<path id="XMLID_73_" class="st10" d="M84.2,90.9c-0.1,0.1-1.2-0.5-2.5-1.3c-1.3-0.9-2.3-1.6-2.2-1.8c0.1-0.1,1.1,0.6,2.4,1.5
			C83.2,90.1,84.4,90.8,84.2,90.9z"/>
		<path id="XMLID_72_" class="st11" d="M84.2,90.9c-0.1,0.1-1.2-0.5-2.5-1.3c-1.3-0.9-2.3-1.6-2.2-1.8c0.1-0.1,1.1,0.6,2.4,1.5
			C83.2,90.1,84.3,90.7,84.2,90.9z"/>
		<path id="XMLID_71_" class="st12" d="M84.2,90.9c-0.1,0.1-1.2-0.5-2.4-1.3c-1.3-0.9-2.3-1.6-2.2-1.7c0.1-0.1,1.1,0.6,2.3,1.5
			C83.2,90.1,84.3,90.7,84.2,90.9z"/>
		<path id="XMLID_70_" class="st13" d="M84.2,90.9c-0.1,0.1-1.1-0.5-2.4-1.4c-1.3-0.8-2.3-1.6-2.2-1.7c0.1-0.1,1.1,0.6,2.3,1.5
			C83.1,90.1,84.2,90.7,84.2,90.9z"/>
		<path id="XMLID_69_" class="st14" d="M84.1,90.8C84,91,83,90.3,81.8,89.5c-1.2-0.8-2.2-1.5-2.2-1.6c0.1-0.1,1,0.6,2.3,1.5
			C83.1,90.1,84.2,90.7,84.1,90.8z"/>
		<path id="XMLID_68_" class="st15" d="M84.1,90.8c-0.1,0.1-1.1-0.5-2.3-1.4c-1.2-0.8-2.2-1.5-2.1-1.6c0.1-0.1,1,0.6,2.2,1.5
			C83.1,90.1,84.2,90.7,84.1,90.8z"/>
		<path id="XMLID_67_" class="st16" d="M84.1,90.8c-0.1,0.1-1-0.6-2.2-1.4c-1.2-0.8-2.2-1.5-2.1-1.6c0.1-0.1,1,0.6,2.2,1.5
			C83.1,90.1,84.1,90.7,84.1,90.8z"/>
		<path id="XMLID_65_" class="st0" d="M84,90.8c-0.1,0.1-1-0.6-2.2-1.4s-2.2-1.4-2.1-1.5c0.1-0.1,1,0.6,2.2,1.5
			C83.1,90.1,84.1,90.7,84,90.8z"/>
	</g>
	<g id="XMLID_819_">
		<path id="XMLID_49_" class="st1" d="M84.4,92.7c-0.2,0-0.4-0.4-0.4-1c0-0.5,0.2-1,0.3-1c0.2,0,0.1,0.4,0.1,1
			C84.5,92.3,84.6,92.7,84.4,92.7z"/>
		<path id="XMLID_64_" class="st2" d="M84.4,92.7c-0.2,0-0.4-0.4-0.3-1c0-0.5,0.1-1,0.3-0.9c0.2,0,0.1,0.4,0.1,1
			C84.5,92.3,84.6,92.7,84.4,92.7z"/>
		<path id="XMLID_63_" class="st3" d="M84.4,92.7c-0.2,0-0.3-0.4-0.3-1c0-0.5,0.1-0.9,0.3-0.9c0.2,0,0.1,0.4,0.1,0.9
			C84.5,92.3,84.5,92.7,84.4,92.7z"/>
		<path id="XMLID_62_" class="st4" d="M84.4,92.7c-0.1,0-0.3-0.4-0.3-0.9c0-0.5,0.1-0.9,0.3-0.9c0.1,0,0.1,0.4,0.1,0.9
			C84.5,92.3,84.5,92.7,84.4,92.7z"/>
		<path id="XMLID_61_" class="st5" d="M84.4,92.7c-0.1,0-0.3-0.4-0.3-0.9c0-0.5,0.1-0.9,0.3-0.9c0.1,0,0.1,0.4,0.1,0.9
			C84.5,92.3,84.5,92.7,84.4,92.7z"/>
		<path id="XMLID_60_" class="st6" d="M84.4,92.7c-0.1,0-0.3-0.4-0.3-0.9c0-0.5,0.1-0.9,0.2-0.9c0.1,0,0.1,0.4,0.1,0.9
			C84.4,92.3,84.5,92.7,84.4,92.7z"/>
		<path id="XMLID_59_" class="st7" d="M84.4,92.7c-0.1,0-0.3-0.4-0.2-0.9c0-0.5,0.1-0.9,0.2-0.9c0.1,0,0.1,0.4,0.1,0.9
			C84.4,92.3,84.5,92.7,84.4,92.7z"/>
		<path id="XMLID_58_" class="st8" d="M84.4,92.7c-0.1,0-0.2-0.4-0.2-0.9c0-0.5,0.1-0.9,0.2-0.9c0.1,0,0.1,0.4,0.1,0.9
			C84.4,92.3,84.5,92.7,84.4,92.7z"/>
		<path id="XMLID_57_" class="st9" d="M84.4,92.7c-0.1,0-0.2-0.4-0.2-0.9c0-0.5,0.1-0.9,0.2-0.9c0.1,0,0.1,0.4,0.1,0.9
			C84.4,92.3,84.5,92.7,84.4,92.7z"/>
		<path id="XMLID_56_" class="st10" d="M84.4,92.6c-0.1,0-0.2-0.4-0.2-0.9c0-0.5,0.1-0.9,0.2-0.9c0.1,0,0.1,0.4,0.1,0.9
			C84.4,92.2,84.5,92.6,84.4,92.6z"/>
		<path id="XMLID_55_" class="st11" d="M84.4,92.6c-0.1,0-0.2-0.4-0.2-0.9c0-0.5,0.1-0.9,0.2-0.9c0.1,0,0.1,0.4,0,0.9
			C84.4,92.2,84.5,92.6,84.4,92.6z"/>
		<path id="XMLID_54_" class="st12" d="M84.4,92.6c-0.1,0-0.1-0.4-0.1-0.9c0-0.5,0-0.8,0.1-0.8c0.1,0,0,0.4,0,0.8
			C84.4,92.2,84.5,92.6,84.4,92.6z"/>
		<path id="XMLID_53_" class="st13" d="M84.4,92.6c-0.1,0-0.1-0.4-0.1-0.8c0-0.5,0-0.8,0.1-0.8c0.1,0,0,0.4,0,0.8
			C84.4,92.2,84.5,92.6,84.4,92.6z"/>
		<path id="XMLID_52_" class="st14" d="M84.4,92.6c-0.1,0-0.1-0.4-0.1-0.8c0-0.5,0-0.8,0.1-0.8c0.1,0,0,0.4,0,0.8
			C84.4,92.2,84.5,92.6,84.4,92.6z"/>
		<path id="XMLID_51_" class="st15" d="M84.4,92.6c-0.1,0-0.1-0.4-0.1-0.8c0-0.5,0-0.8,0.1-0.8c0.1,0,0,0.4,0,0.8
			C84.4,92.2,84.4,92.6,84.4,92.6z"/>
		<path id="XMLID_50_" class="st16" d="M84.4,92.6c-0.1,0-0.1-0.4-0.1-0.8c0-0.4,0-0.8,0.1-0.8c0.1,0,0,0.4,0,0.8
			C84.4,92.2,84.4,92.6,84.4,92.6z"/>
		<path id="XMLID_48_" class="st0" d="M84.4,92.6c-0.1,0,0-0.4,0-0.8c0-0.4,0-0.8,0.1-0.8c0.1,0,0,0.4,0,0.8
			C84.4,92.2,84.4,92.6,84.4,92.6z"/>
	</g>
	<g id="XMLID_935_">
		<g id="XMLID_143_">
			
				<image style="overflow:visible;" width="20" height="51" id="XMLID_146_" xlink:href="61ACE02A.png"  transform="matrix(0.24 0 0 0.24 63.8811 78.5298)">
			</image>
			<path id="XMLID_145_" class="st0" d="M64.9,83.9l-1.6-0.5c-0.3-0.1-0.6,0.1-0.7,0.4l0,0c-0.1,0.3,0,0.7,0.4,0.8l1.6,0.4L65,84
				L64.9,83.9z"/>
			<path id="XMLID_144_" class="st0" d="M65,84l-1.7-0.4c-0.3-0.1-0.6,0.1-0.7,0.4l0,0c-0.1,0.3,0.1,0.6,0.4,0.7l1.6,0.4L65,84z"/>
		</g>
	</g>
	
		<image style="overflow:visible;" width="41" height="21" id="XMLID_932_" xlink:href="61ACE025.png"  transform="matrix(0.24 0 0 0.24 62.5492 72.6899)">
	</image>
	<g id="XMLID_768_">
		<g id="XMLID_477_">
			<g id="XMLID_478_">
				<defs>
					<path id="XMLID_479_" d="M66.6,76.6c0.1,0.1,1.4,0.3,1.8,0c0.1-0.7,0-0.8,0-0.8l-2-0.1L66.6,76.6z"/>
				</defs>
				<clipPath id="XMLID_100_">
					<use xlink:href="#XMLID_479_"  style="overflow:visible;"/>
				</clipPath>
			</g>
		</g>
		<g id="XMLID_434_">
			<g id="XMLID_457_">
				
					<image style="overflow:visible;" width="13" height="12" id="XMLID_476_" xlink:href="61ACE026.png"  transform="matrix(0.24 0 0 0.24 65.8641 76.6023)">
				</image>
				<g id="XMLID_458_">
					<path id="XMLID_475_" class="st1" d="M69,76.7c0,0.1-0.7,0.2-1.5,0.2c-0.9,0-1.6-0.1-1.6-0.2c0-0.1,0.7-0.3,1.6-0.3
						C68.3,76.4,69,76.5,69,76.7z"/>
					<path id="XMLID_474_" class="st2" d="M69,76.6c0,0.1-0.7,0.2-1.5,0.2c-0.9,0-1.6-0.1-1.6-0.2c0-0.1,0.7-0.3,1.6-0.3
						C68.3,76.4,69,76.5,69,76.6z"/>
					<path id="XMLID_473_" class="st3" d="M69,76.6c0,0.1-0.7,0.2-1.5,0.2c-0.9,0-1.6-0.1-1.6-0.2c0-0.1,0.7-0.3,1.6-0.3
						C68.3,76.4,69,76.5,69,76.6z"/>
					<path id="XMLID_472_" class="st4" d="M69,76.6c0,0.1-0.7,0.2-1.5,0.2c-0.9,0-1.6-0.1-1.6-0.2c0-0.1,0.7-0.3,1.6-0.3
						C68.3,76.4,69,76.5,69,76.6z"/>
					<path id="XMLID_471_" class="st5" d="M69,76.6c0,0.1-0.7,0.2-1.5,0.2c-0.9,0-1.6-0.1-1.6-0.2c0-0.1,0.7-0.3,1.6-0.3
						C68.3,76.4,69,76.5,69,76.6z"/>
					<path id="XMLID_470_" class="st6" d="M69,76.6c0,0.1-0.7,0.2-1.5,0.2c-0.9,0-1.6-0.1-1.6-0.2c0-0.1,0.7-0.3,1.6-0.3
						C68.3,76.4,69,76.5,69,76.6z"/>
					<path id="XMLID_469_" class="st7" d="M69,76.6c0,0.1-0.7,0.2-1.5,0.2c-0.9,0-1.6-0.1-1.6-0.2c0-0.1,0.7-0.2,1.6-0.2
						C68.3,76.4,69,76.5,69,76.6z"/>
					<path id="XMLID_468_" class="st8" d="M69,76.6c0,0.1-0.7,0.2-1.5,0.2c-0.9,0-1.6-0.1-1.6-0.2c0-0.1,0.7-0.2,1.6-0.2
						C68.3,76.4,69,76.5,69,76.6z"/>
					<path id="XMLID_467_" class="st9" d="M69,76.6c0,0.1-0.7,0.2-1.5,0.2c-0.9,0-1.6-0.1-1.6-0.2c0-0.1,0.7-0.2,1.6-0.2
						C68.3,76.4,69,76.5,69,76.6z"/>
					<path id="XMLID_466_" class="st10" d="M69,76.6c0,0.1-0.7,0.2-1.5,0.2c-0.9,0-1.6-0.1-1.6-0.2c0-0.1,0.7-0.2,1.6-0.2
						C68.3,76.4,69,76.5,69,76.6z"/>
					<path id="XMLID_465_" class="st11" d="M69,76.6c0,0.1-0.7,0.2-1.5,0.2c-0.9,0-1.5-0.1-1.5-0.2c0-0.1,0.7-0.2,1.5-0.2
						C68.3,76.4,69,76.5,69,76.6z"/>
					<path id="XMLID_464_" class="st12" d="M69,76.6c0,0.1-0.7,0.2-1.5,0.2c-0.9,0-1.5-0.1-1.5-0.2c0-0.1,0.7-0.2,1.5-0.2
						C68.3,76.4,69,76.5,69,76.6z"/>
					<ellipse id="XMLID_463_" class="st13" cx="67.4" cy="76.6" rx="1.5" ry="0.2"/>
					<ellipse id="XMLID_462_" class="st14" cx="67.4" cy="76.6" rx="1.5" ry="0.2"/>
					<ellipse id="XMLID_461_" class="st15" cx="67.4" cy="76.6" rx="1.5" ry="0.2"/>
					<ellipse id="XMLID_460_" class="st16" cx="67.4" cy="76.6" rx="1.5" ry="0.2"/>
					<ellipse id="XMLID_459_" class="st0" cx="67.4" cy="76.6" rx="1.5" ry="0.2"/>
				</g>
			</g>
			<g id="XMLID_435_">
				<defs>
					<path id="XMLID_436_" d="M66.6,76.6c0.1,0.1,1.4,0.3,1.8,0c0.1-0.7,0-0.8,0-0.8l-2-0.1L66.6,76.6z"/>
				</defs>
				<use xlink:href="#XMLID_436_"  style="overflow:visible;fill:#010101;"/>
				<clipPath id="XMLID_101_">
					<use xlink:href="#XMLID_436_"  style="overflow:visible;"/>
				</clipPath>
				<g id="XMLID_437_" class="st17">
					
						<image style="overflow:visible;" width="8" height="7" id="XMLID_456_" xlink:href="61ACE027.png"  transform="matrix(0.24 0 0 0.24 66.6043 75.9875)">
					</image>
					<g id="XMLID_438_">
						<path id="XMLID_455_" class="st1" d="M68.3,76c0,0.1-0.4,0.1-0.9,0.1c-0.5,0-0.9-0.1-0.9-0.1c0-0.1,0.4-0.2,0.9-0.2
							C67.9,75.9,68.3,75.9,68.3,76z"/>
						<path id="XMLID_454_" class="st2" d="M68.3,76c0,0.1-0.4,0.1-0.9,0.1c-0.5,0-0.9-0.1-0.9-0.1c0-0.1,0.4-0.2,0.9-0.2
							C67.9,75.9,68.3,75.9,68.3,76z"/>
						<path id="XMLID_453_" class="st3" d="M68.3,76c0,0.1-0.4,0.1-0.9,0.1c-0.5,0-0.9-0.1-0.9-0.1c0-0.1,0.4-0.1,0.9-0.1
							C67.9,75.9,68.3,75.9,68.3,76z"/>
						<path id="XMLID_452_" class="st4" d="M68.3,76c0,0.1-0.4,0.1-0.9,0.1c-0.5,0-0.9-0.1-0.9-0.1c0-0.1,0.4-0.1,0.9-0.1
							C67.9,75.9,68.3,75.9,68.3,76z"/>
						<path id="XMLID_451_" class="st5" d="M68.3,76c0,0.1-0.4,0.1-0.9,0.1c-0.5,0-0.9-0.1-0.9-0.1c0-0.1,0.4-0.1,0.9-0.1
							C67.9,75.9,68.3,75.9,68.3,76z"/>
						<ellipse id="XMLID_450_" class="st6" cx="67.5" cy="76" rx="0.9" ry="0.1"/>
						<ellipse id="XMLID_449_" class="st7" cx="67.5" cy="76" rx="0.9" ry="0.1"/>
						<ellipse id="XMLID_448_" class="st8" cx="67.5" cy="76" rx="0.9" ry="0.1"/>
						<ellipse id="XMLID_447_" class="st9" cx="67.5" cy="76" rx="0.9" ry="0.1"/>
						<ellipse id="XMLID_446_" class="st10" cx="67.5" cy="76" rx="0.9" ry="0.1"/>
						<ellipse id="XMLID_445_" class="st11" cx="67.5" cy="76" rx="0.9" ry="0.1"/>
						<ellipse id="XMLID_444_" class="st12" cx="67.5" cy="76" rx="0.9" ry="0.1"/>
						<ellipse id="XMLID_443_" class="st13" cx="67.5" cy="76" rx="0.9" ry="0.1"/>
						<ellipse id="XMLID_442_" class="st14" cx="67.5" cy="76" rx="0.9" ry="0.1"/>
						<ellipse id="XMLID_441_" class="st15" cx="67.5" cy="76" rx="0.9" ry="0.1"/>
						<ellipse id="XMLID_440_" class="st16" cx="67.5" cy="76" rx="0.9" ry="0.1"/>
						<ellipse id="XMLID_439_" class="st0" cx="67.5" cy="76" rx="0.9" ry="0.1"/>
					</g>
				</g>
			</g>
		</g>
		<g id="XMLID_393_">
			<g id="XMLID_394_">
				<defs>
					<path id="XMLID_395_" d="M66.6,76.6c0.1,0.1,1.4,0.3,1.8,0c0.1-0.7,0-0.8,0-0.8l-2-0.1L66.6,76.6z"/>
				</defs>
				<clipPath id="XMLID_102_">
					<use xlink:href="#XMLID_395_"  style="overflow:visible;"/>
				</clipPath>
			</g>
		</g>
	</g>
	<path id="XMLID_764_" class="st0" d="M55.1,117c0.2,0.3,0.2,1.2,0.2,1.4v3.6c0.3-0.7,0.7-1.9,1.1-3.1c0.2-0.6,0.4-1.2,0.5-1.7
		l0.3,0.2l0.1-2.7l-0.6-0.3l-1.5,1.6l1.8,1.2l-1.4-0.9C55.4,116.3,55.2,116.4,55.1,117z"/>
	<path id="XMLID_552_" class="st0" d="M52.8,117.1c0.1,0.6,0.3,1.2,0.5,1.8c0.3,1.2,0.7,2.3,1,2.9v-3.5c0-0.2,0-1.1,0.2-1.4
		c-0.1-0.6-0.3-0.7-0.3-0.7l0,0L52.8,117.1l1.6-1.2l-1.6-1.7l-0.6,0.4l0.2,2.7L52.8,117.1z"/>
	<path id="XMLID_549_" class="st0" d="M48.6,116.1l3.4-1.5l0.8-0.5c0-0.2,0-0.5,0-0.7c-0.1-0.2-0.3-0.4-0.4-0.6
		c-0.1-0.2-0.2-0.6-0.3-1c-0.1,0-0.2-0.1-0.3-0.2c-0.2-0.2-0.3-1.3-0.4-1.7c0-0.2,0.1-0.3,0.2-0.4c0-0.2-0.1-0.6-0.1-1
		c0-1,0.3-1.6,1-2.2c0.9-0.7,1.7-0.7,2.6-0.5c0.3,0.1,0.5,0.2,0.6,0.2c0,0,0,0,0,0c0.5-0.3,1.3,0.1,1.8,1.2c0.3,0.7,0.2,1.7,0.1,2.3
		c0.1,0,0.2,0.1,0.2,0.4c-0.1,0.4-0.2,1.5-0.4,1.7c-0.1,0.1-0.2,0.1-0.3,0.2c-0.1,0.4-0.2,0.8-0.4,1.1c-0.1,0.2-0.2,0.4-0.4,0.5
		c0,0.2,0,0.4,0,0.6l0.9,0.5l3.4,1.4c0,0,0.5,0.1,0.8,0.9c0,0.1,0.1,0.4,0.3,1.1v-14.8c0-0.1-0.1-0.2-0.2-0.2H47.6
		c-0.1,0-0.2,0.1-0.2,0.2v15c0.2-0.7,0.3-1,0.3-1.1C47.9,116.3,48.6,116.1,48.6,116.1z"/>
	<path id="XMLID_548_" class="st0" d="M62,122c0,0.1-0.1,0.2-0.2,0.2H47.6c-0.1,0-0.2-0.1-0.2-0.2v-3.8c-0.1,0.2-0.1,0.5-0.2,0.7
		v3.1c0,0.2,0.1,0.3,0.3,0.3h14.3c0.2,0,0.3-0.1,0.3-0.3v-3.3c-0.1-0.3-0.1-0.5-0.2-0.7V122z"/>
	<path id="XMLID_823_" class="st0" d="M92.7,92.5H42c-0.4,0-1.7,0.6-1.7,1.7v35.1c0,0.4,0.2,1.7,1.7,1.7h50.7c0.4,0,1.7-0.7,1.7-1.7
		V94.2C94.4,93.7,93.8,92.6,92.7,92.5z M92.3,128.3c0,0.4-0.3,0.7-0.7,0.7H42.9c-0.4,0-0.7-0.3-0.7-0.7V96.5c0-0.4,0.3-0.7,0.7-0.7
		h48.7c0.4,0,0.7,0.3,0.7,0.7V128.3z"/>
	<path id="XMLID_765_" class="st0" d="M91.1,96.5H43.4c-0.4,0-0.7,0.3-0.7,0.6v30.8c0,0.4,0.3,0.6,0.7,0.6h47.6
		c0.4,0,0.7-0.3,0.7-0.6V97.1C91.8,96.8,91.4,96.5,91.1,96.5z M62.3,122c0,0.3-0.2,0.5-0.5,0.5H47.6c-0.3,0-0.5-0.2-0.5-0.5v-18.8
		c0-0.3,0.2-0.5,0.5-0.5h14.3c0.3,0,0.5,0.2,0.5,0.5V122z M88.1,121.8h-22v-0.3h22V121.8z M88.1,117h-22v-0.3h22V117z M88.1,112.2
		h-22v-0.3h22V112.2z M88.1,107.3h-22v-0.3h22V107.3z"/>
</g>
</svg>
