<?xml version="1.0" encoding="utf-8"?>
<!-- Generator: Adobe Illustrator 19.0.0, SVG Export Plug-In . SVG Version: 6.00 Build 0)  -->
<svg version="1.1" id="Layer_1" xmlns="http://www.w3.org/2000/svg" xmlns:xlink="http://www.w3.org/1999/xlink" x="0px" y="0px"
	 viewBox="-71 145 144 144" style="enable-background:new -71 145 144 144;" xml:space="preserve">
<g>
	<g>
		<path d="M-28,272.6h2.1v7.5h3.7v1.8H-28V272.6z"/>
		<path d="M-18.7,279.5l-0.7,2.4h-2.2l2.8-9.3h2.8l2.8,9.3h-2.3l-0.8-2.4H-18.7z M-16.3,277.9l-0.6-2c-0.2-0.6-0.3-1.3-0.5-1.8l0,0
			c-0.2,0.6-0.3,1.3-0.4,1.8l-0.6,2H-16.3z"/>
		<path d="M-11.8,281.9v-9.3h2.4l1.9,3.4c0.6,1,1.1,2.2,1.5,3.2l0,0c-0.2-1.3-0.2-2.5-0.2-3.9v-2.7h1.9v9.3h-2.2l-2-3.6
			c-0.6-1-1.2-2.2-1.6-3.3l0,0c0.1,1.3,0.1,2.5,0.1,4v2.8L-11.8,281.9L-11.8,281.9z"/>
		<path d="M-0.4,281.9v-3.8l-2.9-5.5h2.4l0.9,2.3c0.3,0.7,0.5,1.2,0.8,1.8l0,0c0.2-0.6,0.4-1.1,0.7-1.8l0.9-2.3h2.3L1.6,278v3.8
			L-0.4,281.9L-0.4,281.9z"/>
		<path d="M6.7,279.5L6,281.9H3.8l2.8-9.3h2.8l2.8,9.3H10l-0.8-2.4H6.7z M9,277.9l-0.6-2c-0.2-0.6-0.3-1.3-0.5-1.8l0,0
			c-0.2,0.6-0.3,1.3-0.4,1.8l-0.6,2H9z"/>
		<path d="M13.5,272.7c0.7-0.1,1.7-0.2,2.8-0.2c1.3,0,2.3,0.2,3,0.8c0.6,0.4,0.8,1.1,0.8,1.9c0,1.2-0.8,2-1.7,2.3l0,0
			c0.7,0.3,1,0.9,1.3,1.8c0.3,1.1,0.6,2.3,0.8,2.6h-2.2c-0.2-0.3-0.3-1-0.7-2.2c-0.3-1.2-0.7-1.5-1.5-1.5h-0.7v3.7h-2.1v-9.1H13.5z
			 M15.6,276.7h0.8c1.1,0,1.7-0.5,1.7-1.3c0-0.8-0.6-1.3-1.5-1.3c-0.5,0-0.8,0-0.9,0.1L15.6,276.7L15.6,276.7z"/>
		<path d="M21.7,272.7c0.8-0.1,1.8-0.2,2.8-0.2c1.8,0,2.9,0.3,3.8,1c1,0.8,1.6,1.8,1.6,3.5c0,1.8-0.7,3-1.5,3.8
			c-1,0.8-2.5,1.2-4.3,1.2c-1.1,0-1.8-0.1-2.4-0.2L21.7,272.7L21.7,272.7z M23.8,280.3c0.2,0,0.5,0,0.8,0c1.9,0,3.2-1,3.2-3.3
			c0-1.9-1.1-2.9-2.9-2.9c-0.5,0-0.8,0-0.9,0.1L23.8,280.3L23.8,280.3z"/>
	</g>
	<g>
		<path d="M1.9,228.8c0.1-0.5,0-0.6,0-0.6l-1.5-0.1l0.1,0.7C0.5,229,1.5,229.1,1.9,228.8z"/>
		<polygon points="-6.9,259.7 -6.9,259.7 -6.8,259.7 		"/>
		<path d="M-6.6,259.8l0.1-2l-0.5-0.3l-1.2,1.3l1.3,0.9c0,0,0,0,0-0.1L-6.6,259.8z"/>
		<path d="M-6.9,259.7l-1.1-0.7c0-0.1-0.2,0-0.3,0.4c0.2,0.3,0.2,0.9,0.2,1.1v2.8c0.2-0.5,0.5-1.4,0.8-2.3
			C-7,260.5-6.9,260.1-6.9,259.7z"/>
		<path d="M-8.8,259l-1.1,0.7c0.1,0.4,0.3,0.9,0.4,1.4c0.3,0.8,0.6,1.7,0.8,2.2v-2.7c0-0.2,0-0.8,0.2-1.1C-8.7,259-8.8,259-8.8,259z
			"/>
		<polygon points="-9.9,257.4 -10.3,257.7 -10.1,259.7 -9.9,259.6 -8.7,258.7 		"/>
		<path d="M-3,249.1h-10.8c-0.1,0-0.1,0.1-0.1,0.1v11.4c0.1-0.5,0.3-0.8,0.3-0.8c0-0.8,0.5-0.9,0.5-0.9l2.6-1.1l0.6-0.3
			c0-0.2,0-0.3,0-0.5c-0.1-0.2-0.2-0.3-0.3-0.4c-0.1-0.2-0.2-0.4-0.3-0.8c-0.1,0-0.2-0.1-0.3-0.1c-0.2-0.2-0.3-0.9-0.3-1.3
			c0-0.2,0.1-0.3,0.2-0.3c0-0.2-0.1-0.4-0.1-0.8c0-0.8,0.2-1.2,0.8-1.7c0.7-0.6,1.3-0.6,2-0.4c0.3,0.1,0.4,0.1,0.5,0.2
			c0.4-0.2,1,0.1,1.3,0.9c0.3,0.5,0.2,1.3,0.1,1.8c0.1,0,0.2,0.1,0.2,0.3c-0.1,0.3-0.1,1.1-0.3,1.3c-0.1,0.1-0.2,0.1-0.3,0.1
			c-0.1,0.3-0.2,0.6-0.3,0.8c-0.1,0.2-0.2,0.3-0.3,0.4c0,0.2,0,0.3,0,0.4l0.7,0.4l2.6,1.1c0,0,0.4,0.1,0.6,0.7
			c0,0.1,0.1,0.3,0.3,0.8L-3,249.1C-2.9,249.1-3,249.1-3,249.1z"/>
		<path d="M20.3,241h-6.3v-1.3l-3.5-2.3c-0.2-0.1-0.3-0.2-0.4-0.2H4.6c0-0.3-0.2-0.6-0.2-0.6c-2.9-1.9-1.3-4.8-1.3-4.8
			c1.2-0.6,0.7-2,0.7-2c1-1.4,0.5-4.1,0.5-4.1H4L4,221l17.2-62.4l-5-6.5l-18.6,69.4v4.5c-0.1,0.6-0.3,2.8,0.6,4c0,0-0.5,1.4,0.7,2
			c0,0,0.7,1.2,0.4,2.6l-0.1-0.1l-1.2-0.3c-0.3-0.1-0.5,0.1-0.5,0.3c0,0.1,0,0.3,0,0.4c0,0,0.2,0.1,0.3,0.2l1.1,0.3
			c-0.3,0.5-0.7,0.9-1.3,1.3c0,0-0.2,0.3-0.2,0.6H-8c-0.1,0-0.3,0.1-0.4,0.2l-3.5,2.3v1.3h-6.3c-0.3,0-1.3,0.4-1.3,1.3v26.6
			c0,0.3,0.2,1.3,1.3,1.3h38.4c0.3,0,1.3-0.5,1.3-1.3v-26.6C21.6,241.9,21.2,241,20.3,241z M7.1,239.3c0-0.4,0.3-0.8,0.8-0.8H9
			c0.4,0,0.8,0.3,0.8,0.8v0.2c0,0.4-0.3,0.8-0.8,0.8H7.9c-0.4,0-0.8-0.3-0.8-0.8V239.3z M-1.7,239.3c0-0.3,0.3-0.7,0.7-0.7h4.3
			c0.3,0,0.7,0.3,0.7,0.7v0.3c0,0.3-0.3,0.7-0.7,0.7h-4.3c-0.3,0-0.7-0.3-0.7-0.7V239.3z M-1.1,229.4c0,0-1.7-1.6-0.6-1.6h2.2h0.9
			h2.2c1.1,0-0.6,1.6-0.6,1.6H1H-1.1z M1,236c2.3,0,2.7,1.1,2.7,1.1H1h-2.7C-1.7,237.1-1.3,236,1,236z M-7.5,239.3
			c0-0.4,0.3-0.8,0.8-0.8h1.1c0.4,0,0.8,0.3,0.8,0.8v0.2c0,0.4-0.3,0.8-0.8,0.8h-1.1c-0.4,0-0.8-0.3-0.8-0.8V239.3z M20,268.1
			c0,0.3-0.3,0.5-0.5,0.5h-36.9c-0.3,0-0.5-0.3-0.5-0.5V244c0-0.3,0.3-0.5,0.5-0.5h36.9c0.3,0,0.5,0.3,0.5,0.5V268.1z"/>
		<path d="M19.1,244H-17c-0.3,0-0.5,0.3-0.5,0.5v23.3c0,0.3,0.3,0.5,0.5,0.5h36.1c0.3,0,0.5-0.3,0.5-0.5v-23.3
			C19.6,244.1,19.3,244,19.1,244z M-2.8,263.4c0,0,0.1-0.1,0.1-0.2C-2.7,263.3-2.8,263.3-2.8,263.4z M-2.7,260.8
			c0-0.3-0.1-0.4-0.1-0.6v3H-3c0,0.1-0.1,0.1-0.1,0.1H-8h-5.9c-0.1,0-0.1-0.1-0.1-0.1v-2.9c0,0.2-0.1,0.3-0.1,0.6v2.3
			c0,0.2,0.1,0.3,0.3,0.3H-3c0.1,0,0.1,0,0.2-0.1c-0.1,0.1-0.2,0.1-0.3,0.1h-10.8c-0.2,0-0.3-0.2-0.3-0.3V249c0-0.2,0.2-0.3,0.3-0.3
			h10.8c0.2,0,0.3,0.2,0.3,0.3C-2.7,249-2.7,257.5-2.7,260.8z M16.8,263.1H0.2V263h16.6V263.1z M16.8,259.5H0.2v-0.2h16.6V259.5z
			 M16.8,255.9H0.2v-0.2h16.6V255.9z M16.8,252.2H0.2V252h16.6V252.2z"/>
		<polygon points="14.1,157.7 15.7,152 -14.6,152.1 -13.1,157.7 		"/>
		<polygon points="0.2,209.3 -15.2,152.1 -19.3,157.6 -2.6,219 		"/>
	</g>
</g>
</svg>
