<?xml version="1.0" encoding="utf-8"?>
<!-- Generator: Adobe Illustrator 19.0.0, SVG Export Plug-In . SVG Version: 6.00 Build 0)  -->
<svg version="1.1" id="Layer_1" xmlns="http://www.w3.org/2000/svg" xmlns:xlink="http://www.w3.org/1999/xlink" x="0px" y="0px"
	 viewBox="-417 141 512 512" style="enable-background:new -417 141 512 512;" xml:space="preserve">
<style type="text/css">
	.st0{fill-rule:evenodd;clip-rule:evenodd;fill:#BD2F32;}
	.st1{fill:#FFFFFF;}
</style>
<g id="XMLID_29_">
	<rect id="XMLID_28_" x="-417" y="141" class="st0" width="512" height="512"/>
	<g id="XMLID_30_">
		<rect id="XMLID_31_" x="-344.7" y="580.2" class="st1" width="367.3" height="2.1"/>
	</g>
</g>
<g>
	<path d="M-249.7,604.5h6.4v23h11.3v5.5h-17.8V604.5z"/>
	<path d="M-221.2,625.6l-2.1,7.3h-6.7l8.6-28.5h8.6l8.6,28.5h-7l-2.4-7.3H-221.2z M-213.8,620.7l-1.8-6.1c-0.6-1.8-0.9-4-1.5-5.5
		l0,0c-0.6,1.8-0.9,4-1.2,5.5l-1.8,6.1H-213.8z"/>
	<path d="M-200,633v-28.5h7.4l5.8,10.4c1.8,3.1,3.4,6.7,4.6,9.8l0,0c-0.6-4-0.6-7.7-0.6-11.9v-8.3h5.8V633h-6.7l-6.1-11
		c-1.8-3.1-3.7-6.7-4.9-10.1l0,0c0.3,4,0.3,7.7,0.3,12.3v8.6L-200,633L-200,633z"/>
	<path d="M-165.1,633v-11.6l-8.9-16.8h7.4l2.8,7c0.9,2.1,1.5,3.7,2.4,5.5l0,0c0.6-1.8,1.2-3.4,2.1-5.5l2.8-7h7L-159,621v11.6
		L-165.1,633L-165.1,633z"/>
	<path d="M-143.4,625.6l-2.1,7.3h-6.7l8.6-28.5h8.6l8.6,28.5h-6.7l-2.4-7.3H-143.4z M-136.3,620.7l-1.8-6.1c-0.6-1.8-0.9-4-1.5-5.5
		l0,0c-0.6,1.8-0.9,4-1.2,5.5l-1.8,6.1H-136.3z"/>
	<path d="M-122.6,604.8c2.1-0.3,5.2-0.6,8.6-0.6c4,0,7,0.6,9.2,2.4c1.8,1.2,2.4,3.4,2.4,5.8c0,3.7-2.4,6.1-5.2,7l0,0
		c2.1,0.9,3.1,2.8,4,5.5c0.9,3.4,1.8,7,2.4,8h-6.7c-0.6-0.9-0.9-3.1-2.1-6.7c-0.9-3.7-2.1-4.6-4.6-4.6h-2.1V633h-6.4v-27.9h0.6
		V604.8z M-116.1,617.1h2.5c3.4,0,5.2-1.5,5.2-4c0-2.5-1.8-4-4.6-4c-1.5,0-2.4,0-2.8,0.3L-116.1,617.1L-116.1,617.1z"/>
	<path d="M-97.5,604.8c2.4-0.3,5.5-0.6,8.6-0.6c5.5,0,8.9,0.9,11.6,3.1c3.1,2.4,4.9,5.5,4.9,10.7c0,5.5-2.1,9.2-4.6,11.6
		c-3.1,2.4-7.7,3.7-13.2,3.7c-3.4,0-5.5-0.3-7.3-0.6V604.8L-97.5,604.8z M-91,628.1c0.6,0,1.5,0,2.4,0c5.8,0,9.8-3.1,9.8-10.1
		c0-5.8-3.4-8.9-8.9-8.9c-1.5,0-2.5,0-2.8,0.3L-91,628.1L-91,628.1z"/>
</g>
<g>
	<path class="st1" d="M-255.3,604.5h6.4v23h11.3v5.5h-17.8V604.5z"/>
	<path class="st1" d="M-226.8,625.6l-2.1,7.3h-6.7l8.6-28.5h8.6l8.6,28.5h-7l-2.4-7.3H-226.8z M-219.5,620.7l-1.8-6.1
		c-0.6-1.8-0.9-4-1.5-5.5l0,0c-0.6,1.8-0.9,4-1.2,5.5l-1.8,6.1H-219.5z"/>
	<path class="st1" d="M-205.7,633v-28.5h7.4l5.8,10.4c1.8,3.1,3.4,6.7,4.6,9.8l0,0c-0.6-4-0.6-7.7-0.6-11.9v-8.3h5.8V633h-6.7
		l-6.1-11c-1.8-3.1-3.7-6.7-4.9-10.1l0,0c0.3,4,0.3,7.7,0.3,12.3v8.6L-205.7,633L-205.7,633z"/>
	<path class="st1" d="M-170.8,633v-11.6l-8.9-16.8h7.4l2.8,7c0.9,2.1,1.5,3.7,2.4,5.5l0,0c0.6-1.8,1.2-3.4,2.1-5.5l2.8-7h7
		l-9.5,16.5v11.6L-170.8,633L-170.8,633z"/>
	<path class="st1" d="M-149.1,625.6l-2.1,7.3h-6.7l8.6-28.5h8.6l8.6,28.5h-6.7l-2.5-7.3H-149.1z M-142,620.7l-1.8-6.1
		c-0.6-1.8-0.9-4-1.5-5.5l0,0c-0.6,1.8-0.9,4-1.2,5.5l-1.8,6.1H-142z"/>
	<path class="st1" d="M-128.2,604.8c2.1-0.3,5.2-0.6,8.6-0.6c4,0,7,0.6,9.2,2.4c1.8,1.2,2.4,3.4,2.4,5.8c0,3.7-2.4,6.1-5.2,7l0,0
		c2.1,0.9,3.1,2.8,4,5.5c0.9,3.4,1.8,7,2.5,8h-6.7c-0.6-0.9-0.9-3.1-2.1-6.7c-0.9-3.7-2.1-4.6-4.6-4.6h-2.1V633h-6.4v-27.9h0.6
		V604.8z M-121.8,617.1h2.4c3.4,0,5.2-1.5,5.2-4c0-2.5-1.8-4-4.6-4c-1.5,0-2.4,0-2.8,0.3L-121.8,617.1L-121.8,617.1z"/>
	<path class="st1" d="M-103.1,604.8c2.4-0.3,5.5-0.6,8.6-0.6c5.5,0,8.9,0.9,11.6,3.1c3.1,2.4,4.9,5.5,4.9,10.7
		c0,5.5-2.1,9.2-4.6,11.6c-3.1,2.4-7.7,3.7-13.2,3.7c-3.4,0-5.5-0.3-7.3-0.6L-103.1,604.8L-103.1,604.8z M-96.7,628.1
		c0.6,0,1.5,0,2.4,0c5.8,0,9.8-3.1,9.8-10.1c0-5.8-3.4-8.9-8.9-8.9c-1.5,0-2.4,0-2.8,0.3L-96.7,628.1L-96.7,628.1z"/>
</g>
<g>
	<path class="st1" d="M-158.1,417.5c0.3-1.6,0-1.9,0-1.9l-4.9-0.3l0.3,2.3C-162.6,418.2-159.4,418.5-158.1,417.5z"/>
	<polygon class="st1" points="-186.7,517.9 -186.7,517.9 -186.4,517.9 	"/>
	<path class="st1" d="M-185.7,518.2l0.3-6.5l-1.6-1l-3.9,4.2l4.2,2.9c0,0,0,0,0-0.3L-185.7,518.2z"/>
	<path class="st1" d="M-186.7,517.9l-3.6-2.3c0-0.3-0.6,0-1,1.3c0.6,1,0.6,2.9,0.6,3.6v9.1c0.6-1.6,1.6-4.5,2.6-7.5
		C-187,520.5-186.7,519.2-186.7,517.9z"/>
	<path class="st1" d="M-192.9,515.6l-3.6,2.3c0.3,1.3,1,2.9,1.3,4.5c1,2.6,1.9,5.5,2.6,7.1v-8.8c0-0.6,0-2.6,0.6-3.6
		C-192.5,515.6-192.9,515.6-192.9,515.6z"/>
	<polygon class="st1" points="-196.4,510.4 -197.7,511.4 -197.1,517.9 -196.4,517.5 -192.5,514.6 	"/>
	<path class="st1" d="M-174,483.4h-35.1c-0.3,0-0.3,0.3-0.3,0.3v37c0.3-1.6,1-2.6,1-2.6c0-2.6,1.6-2.9,1.6-2.9l8.4-3.6l1.9-1
		c0-0.6,0-1,0-1.6c-0.3-0.6-0.6-1-1-1.3c-0.3-0.6-0.6-1.3-1-2.6c-0.3,0-0.6-0.3-1-0.3c-0.6-0.6-1-2.9-1-4.2c0-0.6,0.3-1,0.6-1
		c0-0.6-0.3-1.3-0.3-2.6c0-2.6,0.6-3.9,2.6-5.5c2.3-1.9,4.2-1.9,6.5-1.3c1,0.3,1.3,0.3,1.6,0.6c1.3-0.6,3.2,0.3,4.2,2.9
		c1,1.6,0.6,4.2,0.3,5.8c0.3,0,0.6,0.3,0.6,1c-0.3,1-0.3,3.6-1,4.2c-0.3,0.3-0.6,0.3-1,0.3c-0.3,1-0.6,1.9-1,2.6s-0.6,1-1,1.3
		c0,0.6,0,1,0,1.3l2.3,1.3l8.4,3.6c0,0,1.3,0.3,1.9,2.3c0,0.3,0.3,1,1,2.6L-174,483.4C-173.7,483.4-174,483.4-174,483.4z"/>
	<path class="st1" d="M-98.3,457.1h-20.5v-4.2l-11.4-7.5c-0.6-0.3-1-0.6-1.3-0.6h-17.9c0-1-0.6-1.9-0.6-1.9
		c-9.4-6.2-4.2-15.6-4.2-15.6c3.9-1.9,2.3-6.5,2.3-6.5c3.2-4.5,1.6-13.3,1.6-13.3h-1v-15.3l55.9-202.7l-16.2-21.1l-60.4,225.4v14.6
		c-0.3,1.9-1,9.1,1.9,13c0,0-1.6,4.5,2.3,6.5c0,0,2.3,3.9,1.3,8.4l-0.3-0.3l-3.9-1c-1-0.3-1.6,0.3-1.6,1c0,0.3,0,1,0,1.3
		c0,0,0.6,0.3,1,0.6l3.6,1c-1,1.6-2.3,2.9-4.2,4.2c0,0-0.6,1-0.6,1.9h-17.5c-0.3,0-1,0.3-1.3,0.6l-11.4,7.5v4.2h-20.5
		c-1,0-4.2,1.3-4.2,4.2v86.4c0,1,0.6,4.2,4.2,4.2h124.7c1,0,4.2-1.6,4.2-4.2v-86.4C-94.1,460.1-95.4,457.1-98.3,457.1z
		 M-141.2,451.6c0-1.3,1-2.6,2.6-2.6h3.6c1.3,0,2.6,1,2.6,2.6v0.6c0,1.3-1,2.6-2.6,2.6h-3.6c-1.3,0-2.6-1-2.6-2.6V451.6z
		 M-169.8,451.6c0-1,1-2.3,2.3-2.3h14c1,0,2.3,1,2.3,2.3v1c0,1-1,2.3-2.3,2.3h-14c-1,0-2.3-1-2.3-2.3
		C-169.8,452.6-169.8,451.6-169.8,451.6z M-167.8,419.5c0,0-5.5-5.2-1.9-5.2h7.1h2.9h7.1c3.6,0-1.9,5.2-1.9,5.2h-6.5H-167.8z
		 M-161,440.9c7.5,0,8.8,3.6,8.8,3.6h-8.8h-8.8C-169.8,444.5-168.5,440.9-161,440.9z M-188.6,451.6c0-1.3,1-2.6,2.6-2.6h3.6
		c1.3,0,2.6,1,2.6,2.6v0.6c0,1.3-1,2.6-2.6,2.6h-3.6c-1.3,0-2.6-1-2.6-2.6V451.6z M-99.3,545.1c0,1-1,1.6-1.6,1.6h-119.8
		c-1,0-1.6-1-1.6-1.6v-78.3c0-1,1-1.6,1.6-1.6h119.8c1,0,1.6,1,1.6,1.6V545.1z"/>
	<path class="st1" d="M-102.2,466.9h-117.2c-1,0-1.6,1-1.6,1.6v75.7c0,1,1,1.6,1.6,1.6h117.2c1,0,1.6-1,1.6-1.6v-75.7
		C-100.6,467.2-101.6,466.9-102.2,466.9z M-173.4,529.9c0,0,0.3-0.3,0.3-0.6C-173,529.6-173.4,529.6-173.4,529.9z M-173,521.4
		c0-1-0.3-1.3-0.3-1.9v9.7h-0.6c0,0.3-0.3,0.3-0.3,0.3h-15.9h-19.2c-0.3,0-0.3-0.3-0.3-0.3v-9.4c0,0.6-0.3,1-0.3,1.9v7.5
		c0,0.6,0.3,1,1,1h35.1c0.3,0,0.3,0,0.6-0.3c-0.3,0.3-0.6,0.3-1,0.3h-35.1c-0.6,0-1-0.6-1-1v-46.1c0-0.6,0.6-1,1-1h35.1
		c0.6,0,1,0.6,1,1C-173,483.1-173,510.7-173,521.4z M-109.7,528.9h-53.9v-0.3h53.9C-109.7,528.6-109.7,528.9-109.7,528.9z
		 M-109.7,517.2h-53.9v-0.6h53.9C-109.7,516.6-109.7,517.2-109.7,517.2z M-109.7,505.5h-53.9v-0.6h53.9
		C-109.7,504.9-109.7,505.5-109.7,505.5z M-109.7,493.5h-53.9v-0.6h53.9C-109.7,492.9-109.7,493.5-109.7,493.5z"/>
	<polygon class="st1" points="-118.5,186.6 -113.3,168.1 -211.7,168.4 -206.8,186.6 	"/>
	<polygon class="st1" points="-163.6,354.2 -213.6,168.4 -227,186.3 -172.7,385.7 	"/>
</g>
</svg>
