<?xml version="1.0" encoding="utf-8"?>
<!-- Generator: Adobe Illustrator 19.0.0, SVG Export Plug-In . SVG Version: 6.00 Build 0)  -->
<svg version="1.1" id="Capa_1" xmlns="http://www.w3.org/2000/svg" xmlns:xlink="http://www.w3.org/1999/xlink" x="0px" y="0px"
	 viewBox="-49 141 512 512" style="enable-background:new -49 141 512 512;" xml:space="preserve">
<style type="text/css">
	.st0{fill-rule:evenodd;clip-rule:evenodd;fill:#BD2F32;}
	.st1{fill:#FFFFFF;}
</style>
<g id="XMLID_29_">
	<rect id="XMLID_28_" x="-49" y="141" class="st0" width="512" height="512"/>
	<g id="XMLID_30_">
		<rect id="XMLID_31_" x="23.3" y="580.2" class="st1" width="367.3" height="2.1"/>
	</g>
</g>
<g>
	<g>
		<path class="st1" d="M322,365.6v-25.7c0.9,6.7,6.7,12,13.6,12c7.6,0,13.8-6.2,13.8-13.8s-6.2-13.8-13.8-13.8
			c-7.1,0-12.9,5.3-13.7,12.2c-0.6-14.9-9-27.7-21.3-34.6c4.8-7.4,7.5-16.3,7.5-25.7c0-18.6-10.5-29.1-18.8-37.4
			c-7.9-8-12.1-12.5-12.1-21.9v-13.8h-19.8l-3.8,3.2c-4,3.3-14,13.6-22.7,25.4c-12.7,17.1-19.1,32.1-19.1,44.5
			c0,9.5,2.8,18.3,7.5,25.7c-12.7,7-21.3,20.6-21.3,36.1v27.5h-9.2c-4.8-14.3-17.1-25.1-32.1-27.6V192.1H91.3
			c-22.8,0-41.3,18.5-41.3,41.3v125.3c0,22.8,18.5,41.3,41.3,41.3h23.1c6.3,10.3,16.9,17.7,29.3,19.6v83.7
			c0,22.8,18.5,41.3,41.3,41.3h137.7c22.8,0,41.3-18.5,41.3-41.3V365.6H322z M257,243c3.9,6.3,8.8,11.2,12.9,15.4
			c7.2,7.2,10.7,11,10.7,17.9c0,11.4-9.3,20.6-20.7,20.6c-11.4,0-20.7-9.2-20.7-20.6C239.4,267.6,248.4,253.8,257,243z M225.6,338
			c0-7.6,6.2-13.8,13.8-13.8h41.3c7.6,0,13.8,6.2,13.8,13.8v27.5h-68.8L225.6,338L225.6,338z M129.3,342.9
			c-10.7,6.1-18.4,16.9-20.3,29.6H91.4c-7.6,0-13.8-6.2-13.8-13.8V233.4c0-7.6,6.2-13.8,13.8-13.8h37.9V342.9z M149.8,392.4
			c-7.6,0-13.8-6.2-13.8-13.8s6.2-13.8,13.8-13.8c7.6,0,13.8,6.2,13.8,13.8S157.4,392.4,149.8,392.4z M336.5,503.3
			c0,7.6-6.2,13.8-13.8,13.8H185c-7.6,0-13.8-6.2-13.8-13.8V414c7.8-4.8,14-12.1,17.2-20.9h148L336.5,503.3L336.5,503.3z"/>
	</g>
</g>
<g>
	<path d="M107.2,600.1h8.1v29h14.2v6.8h-22.4L107.2,600.1L107.2,600.1z"/>
	<path d="M142.5,600.1v35.8h-8.1v-35.8H142.5z"/>
	<path d="M179.4,634.3c-2.5,0.9-7.2,2-12,2c-6.5,0-11.3-1.6-14.6-4.8c-3.3-3.1-5.1-7.8-5-13c0.1-11.9,8.7-18.7,20.5-18.7
		c4.6,0,8.2,0.9,9.9,1.8l-1.7,6.5c-2-0.8-4.4-1.5-8.3-1.5c-6.7,0-11.8,3.8-11.8,11.6c0,7.4,4.6,11.7,11.3,11.7c1.9,0,3.3-0.2,4-0.5
		v-7.5H166v-6.3h13.3v18.7H179.4z"/>
	<path d="M193.8,600.1v13.8h13.3v-13.8h8.1v35.8h-8.1v-15h-13.3v15h-8.1v-35.8H193.8z"/>
	<path d="M229.2,606.9h-9.6v-6.8h27.5v6.8h-9.8v29h-8.1V606.9z"/>
	<path d="M272.7,620.8h-13.2v8.5h14.7v6.6h-22.8v-35.8h22.1v6.6h-14v7.4h13.2L272.7,620.8L272.7,620.8z"/>
	<path d="M279.8,600.6c2.6-0.4,6.5-0.7,10.8-0.7c5.3,0,9,0.8,11.6,2.8c2.1,1.7,3.3,4.2,3.3,7.5c0,4.6-3.2,7.7-6.3,8.8v0.2
		c2.5,1,3.9,3.4,4.8,6.7c1.1,4,2.2,8.7,2.9,10.1h-8.3c-0.6-1.1-1.4-3.9-2.5-8.3c-1-4.5-2.5-5.7-5.8-5.7h-2.4v14.1h-8v-35.5H279.8z
		 M287.8,616h3.2c4,0,6.4-2,6.4-5.2c0-3.3-2.2-4.9-6-5c-2,0-3.1,0.2-3.7,0.3v9.9H287.8z"/>
</g>
<g>
	<path class="st1" d="M101.5,600.1h8.1v29h14.2v6.8h-22.4L101.5,600.1L101.5,600.1z"/>
	<path class="st1" d="M136.8,600.1v35.8h-8.1v-35.8H136.8z"/>
	<path class="st1" d="M173.7,634.3c-2.5,0.9-7.2,2-12,2c-6.5,0-11.3-1.6-14.6-4.8c-3.3-3.1-5.1-7.8-5-13
		c0.1-11.9,8.7-18.7,20.5-18.7c4.6,0,8.2,0.9,9.9,1.8l-1.7,6.5c-2-0.8-4.4-1.5-8.3-1.5c-6.7,0-11.8,3.8-11.8,11.6
		c0,7.4,4.6,11.7,11.3,11.7c1.9,0,3.3-0.2,4-0.5v-7.5h-5.7v-6.3h13.3v18.7H173.7z"/>
	<path class="st1" d="M188.1,600.1v13.8h13.3v-13.8h8.1v35.8h-8.1v-15h-13.3v15H180v-35.8H188.1z"/>
	<path class="st1" d="M223.5,606.9h-9.6v-6.8h27.5v6.8h-9.8v29h-8.1V606.9z"/>
	<path class="st1" d="M267,620.8h-13.2v8.5h14.7v6.6h-22.8v-35.8h22.1v6.6h-14v7.4H267L267,620.8L267,620.8z"/>
	<path class="st1" d="M274.1,600.6c2.6-0.4,6.5-0.7,10.8-0.7c5.3,0,9,0.8,11.6,2.8c2.1,1.7,3.3,4.2,3.3,7.5c0,4.6-3.2,7.7-6.3,8.8
		v0.2c2.5,1,3.9,3.4,4.8,6.7c1.1,4,2.2,8.7,2.9,10.1h-8.3c-0.6-1.1-1.4-3.9-2.5-8.3c-1-4.5-2.5-5.7-5.8-5.7h-2.4v14.1h-8v-35.5
		H274.1z M282.1,616h3.2c4,0,6.4-2,6.4-5.2c0-3.3-2.2-4.9-6-5c-2,0-3.1,0.2-3.7,0.3v9.9H282.1z"/>
</g>
</svg>
