<?xml version="1.0" encoding="utf-8"?>
<!-- Generator: Adobe Illustrator 19.0.0, SVG Export Plug-In . SVG Version: 6.00 Build 0)  -->
<svg version="1.1" id="Capa_1" xmlns="http://www.w3.org/2000/svg" xmlns:xlink="http://www.w3.org/1999/xlink" x="0px" y="0px"
	 viewBox="112 -40 512 512" style="enable-background:new 112 -40 512 512;" xml:space="preserve">
<g>
	<g>
		<path d="M456.9,160.4v-25.7c0.9,6.7,6.7,12,13.6,12c7.6,0,13.8-6.2,13.8-13.8s-6.2-13.8-13.8-13.8c-7.1,0-12.9,5.3-13.7,12.2
			c-0.6-14.9-9-27.7-21.3-34.6c4.8-7.4,7.5-16.3,7.5-25.7c0-18.6-10.5-29.1-18.8-37.4c-7.9-8-12.1-12.5-12.1-21.9V-2.1h-19.8
			l-3.8,3.2c-4,3.3-14,13.6-22.7,25.4c-12.7,17.1-19.1,32.1-19.1,44.5c0,9.5,2.8,18.3,7.5,25.7c-12.7,7-21.3,20.6-21.3,36.1v27.5
			h-9.2c-4.8-14.3-17.1-25.1-32.1-27.6V-13.1h-65.4c-22.8,0-41.3,18.5-41.3,41.3v125.3c0,22.8,18.5,41.3,41.3,41.3h23.1
			c6.3,10.3,16.9,17.7,29.3,19.6v83.7c0,22.8,18.5,41.3,41.3,41.3h137.7c22.8,0,41.3-18.5,41.3-41.3V160.4H456.9z M391.9,37.8
			c3.9,6.3,8.8,11.2,12.9,15.4c7.2,7.2,10.7,11,10.7,17.9c0,11.4-9.3,20.6-20.7,20.6c-11.4,0-20.7-9.2-20.7-20.6
			C374.3,62.4,383.3,48.6,391.9,37.8z M360.5,132.8c0-7.6,6.2-13.8,13.8-13.8h41.3c7.6,0,13.8,6.2,13.8,13.8v27.5h-68.8V132.8z
			 M264.2,137.7c-10.7,6.1-18.4,16.9-20.3,29.6h-17.6c-7.6,0-13.8-6.2-13.8-13.8V28.2c0-7.6,6.2-13.8,13.8-13.8h37.9V137.7z
			 M284.7,187.2c-7.6,0-13.8-6.2-13.8-13.8s6.2-13.8,13.8-13.8c7.6,0,13.8,6.2,13.8,13.8S292.3,187.2,284.7,187.2z M471.4,298.1
			c0,7.6-6.2,13.8-13.8,13.8H319.9c-7.6,0-13.8-6.2-13.8-13.8v-89.3c7.8-4.8,14-12.1,17.2-20.9h148V298.1z"/>
	</g>
</g>
<g>
	<path d="M268.2,392.8h8.1v29h14.2v6.8h-22.4V392.8z"/>
	<path d="M303.5,392.8v35.8h-8.1v-35.8H303.5z"/>
	<path d="M340.4,427c-2.5,0.9-7.2,2-12,2c-6.5,0-11.3-1.6-14.6-4.8c-3.3-3.1-5.1-7.8-5-13c0.1-11.9,8.7-18.7,20.5-18.7
		c4.6,0,8.2,0.9,9.9,1.8l-1.7,6.5c-2-0.8-4.4-1.5-8.3-1.5c-6.7,0-11.8,3.8-11.8,11.6c0,7.4,4.6,11.7,11.3,11.7c1.9,0,3.3-0.2,4-0.5
		v-7.5H327v-6.3h13.3V427z"/>
	<path d="M354.8,392.8v13.8h13.3v-13.8h8.1v35.8h-8.1v-15h-13.3v15h-8.1v-35.8H354.8z"/>
	<path d="M390.2,399.6h-9.6v-6.8h27.5v6.8h-9.8v29h-8.1V399.6z"/>
	<path d="M433.7,413.5h-13.2v8.5h14.7v6.6h-22.8v-35.8h22.1v6.6h-14v7.4h13.2V413.5z"/>
	<path d="M440.8,393.3c2.6-0.4,6.5-0.7,10.8-0.7c5.3,0,9,0.8,11.6,2.8c2.1,1.7,3.3,4.2,3.3,7.5c0,4.6-3.2,7.7-6.3,8.8v0.2
		c2.5,1,3.9,3.4,4.8,6.7c1.1,4,2.2,8.7,2.9,10.1h-8.3c-0.6-1.1-1.4-3.9-2.5-8.3c-1-4.5-2.5-5.7-5.8-5.7h-2.4v14.1h-8V393.3z
		 M448.8,408.7h3.2c4,0,6.4-2,6.4-5.2c0-3.3-2.2-4.9-6-5c-2,0-3.1,0.2-3.7,0.3V408.7z"/>
</g>
</svg>
