<?xml version="1.0" encoding="utf-8"?>
<!-- Generator: Adobe Illustrator 19.0.0, SVG Export Plug-In . SVG Version: 6.00 Build 0)  -->
<svg version="1.1" id="Capa_1" xmlns="http://www.w3.org/2000/svg" xmlns:xlink="http://www.w3.org/1999/xlink" x="0px" y="0px"
	 viewBox="-507 141 512 512" style="enable-background:new -507 141 512 512;" xml:space="preserve">
<style type="text/css">
	.st0{fill-rule:evenodd;clip-rule:evenodd;fill:#BD2F32;}
	.st1{fill:#FFFFFF;}
</style>
<g id="XMLID_29_">
	<rect id="XMLID_28_" x="-507" y="141" class="st0" width="512" height="512"/>
	<g id="XMLID_30_">
		<rect id="XMLID_31_" x="-434.7" y="580.2" class="st1" width="367.3" height="2.1"/>
	</g>
</g>
<g>
	<path class="st1" d="M-141.3,317.1v-38.3c0-54.7-49.2-99.1-109.3-99.1S-360,224.1-360,278.8v38.3c-23.2,4.1-41,23.9-41,48.5v133.2
		c0,27.3,21.9,49.2,49.2,49.2h201.6c27.3,0,49.2-21.9,49.2-49.2V365.6C-100.3,342.3-118.1,321.8-141.3,317.1z M-346.3,278.8
		c0-47.1,43-85.4,95.7-85.4s95.7,38.3,95.7,85.4v37.6h-191.3V278.8z M-114,499.5c0,19.8-15.7,35.5-35.5,35.5h-201.6
		c-19.8,0-35.5-15.7-35.5-35.5V366.3c0-19.8,15.7-35.5,35.5-35.5h201.6c19.8,0,35.5,15.7,35.5,35.5V499.5L-114,499.5z"/>
	<path class="st1" d="M-250.7,371c-15,0-27.3,12.3-27.3,27.3v41c0,15,12.3,27.3,27.3,27.3c15,0,27.3-12.3,27.3-27.3v-41
		C-223.3,383.3-235.6,371-250.7,371z M-237,439.4c0,7.5-6.1,13.7-13.7,13.7s-13.7-6.1-13.7-13.7v-41c0-7.5,6.1-13.7,13.7-13.7
		s13.7,6.1,13.7,13.7V439.4z"/>
</g>
<g>
	<path d="M-334.9,597.3h9v32.3h16.1v7.8h-25.1V597.3z"/>
	<path d="M-271,616.4c0,13.1-7.8,20.9-19.7,20.9c-11.9,0-18.5-9-18.5-20.3c0-11.9,7.8-20.9,19.1-20.9
		C-277.6,596.7-271,605.7-271,616.4z M-299.7,617c0,7.8,3.6,13.1,9.6,13.1s9.6-6,9.6-13.7c0-7.2-3.6-13.1-9.6-13.1
		C-296.1,603.9-299.7,609.3-299.7,617z"/>
	<path d="M-235.8,635.6c-1.8,0.6-5.4,1.8-10.2,1.8c-13.7,0-20.9-8.4-20.9-19.7c0-13.7,9.6-20.9,21.5-20.9c4.8,0,8.4,1.2,9.6,1.8
		l-1.8,7.2c-1.8-0.6-4.2-1.2-7.8-1.2c-7.2,0-12.5,4.2-12.5,13.1c0,7.8,4.8,13.1,12.5,13.1c3,0,6-0.6,7.8-1.2L-235.8,635.6z"/>
	<path d="M-229.8,597.3h9v17.9l0,0c0.6-1.8,1.8-3,3-4.2l9-13.1h11.3l-13.1,16.7l13.7,22.7h-10.8l-9.6-17.3l-3.6,4.2v13.1h-9
		C-229.8,637.4-229.8,597.3-229.8,597.3z"/>
	<path d="M-192.8,627.8c2.4,1.2,6,2.4,10.2,2.4c4.2,0,6.6-1.8,6.6-4.2c0-2.4-1.8-4.2-6.6-5.4c-6.6-2.4-10.8-6-10.8-11.9
		c0-6.6,6-11.9,14.9-11.9c4.8,0,7.8,1.2,10.2,1.8l-1.8,7.2c-1.8-0.6-4.2-1.8-8.4-1.8c-4.2,0-6,1.8-6,3.6c0,2.4,2.4,3.6,7.2,5.4
		c7.2,2.4,10.2,6,10.2,11.9c0,6.6-5.4,12.5-16.1,12.5c-4.8,0-9-1.2-11.3-2.4L-192.8,627.8z"/>
</g>
<g>
	<path class="st1" d="M-340.6,597.3h9v32.3h16.1v7.8h-25.1V597.3z"/>
	<path class="st1" d="M-276.7,616.4c0,13.1-7.8,20.9-19.7,20.9s-18.5-9-18.5-20.3c0-11.9,7.8-20.9,19.1-20.9
		C-283.2,596.7-276.7,605.7-276.7,616.4z M-305.3,617c0,7.8,3.6,13.1,9.6,13.1s9.6-6,9.6-13.7c0-7.2-3.6-13.1-9.6-13.1
		C-301.8,603.9-305.3,609.3-305.3,617z"/>
	<path class="st1" d="M-241.4,635.6c-1.8,0.6-5.4,1.8-10.2,1.8c-13.7,0-20.9-8.4-20.9-19.7c0-13.7,9.6-20.9,21.5-20.9
		c4.8,0,8.4,1.2,9.6,1.8l-1.8,7.2c-1.8-0.6-4.2-1.2-7.8-1.2c-7.2,0-12.5,4.2-12.5,13.1c0,7.8,4.8,13.1,12.5,13.1c3,0,6-0.6,7.8-1.2
		L-241.4,635.6z"/>
	<path class="st1" d="M-235.5,597.3h9v17.9l0,0c0.6-1.8,1.8-3,3-4.2l9-13.1h11.3l-13.1,16.7l13.7,22.7h-10.8l-9.6-17.3l-3.6,4.2
		v13.1h-9C-235.5,637.4-235.5,597.3-235.5,597.3z"/>
	<path class="st1" d="M-198.4,627.8c2.4,1.2,6,2.4,10.2,2.4c4.2,0,6.6-1.8,6.6-4.2c0-2.4-1.8-4.2-6.6-5.4c-6.6-2.4-10.8-6-10.8-11.9
		c0-6.6,6-11.9,14.9-11.9c4.8,0,7.8,1.2,10.2,1.8l-1.8,7.2c-1.8-0.6-4.2-1.8-8.4-1.8c-4.2,0-6,1.8-6,3.6c0,2.4,2.4,3.6,7.2,5.4
		c7.2,2.4,10.2,6,10.2,11.9c0,6.6-5.4,12.5-16.1,12.5c-4.8,0-9-1.2-11.3-2.4L-198.4,627.8z"/>
</g>
</svg>
