<?xml version="1.0" encoding="utf-8"?>
<!-- Generator: Adobe Illustrator 19.0.0, SVG Export Plug-In . SVG Version: 6.00 Build 0)  -->
<svg version="1.1" id="Capa_1" xmlns="http://www.w3.org/2000/svg" xmlns:xlink="http://www.w3.org/1999/xlink" x="0px" y="0px"
	 viewBox="-116 190 54 54" style="enable-background:new -116 190 54 54;" xml:space="preserve">
<g>
	<path d="M-73,210.1v-5.6c0-8-7.2-14.5-16-14.5c-8.8,0-16,6.5-16,14.5v5.6c-3.4,0.6-6,3.5-6,7.1v19.5c0,4,3.2,7.2,7.2,7.2h29.5
		c4,0,7.2-3.2,7.2-7.2v-19.5C-67,213.8-69.6,210.8-73,210.1z M-103,204.5c0-6.9,6.3-12.5,14-12.5s14,5.6,14,12.5v5.5h-28V204.5z
		 M-69,236.8c0,2.9-2.3,5.2-5.2,5.2h-29.5c-2.9,0-5.2-2.3-5.2-5.2v-19.5c0-2.9,2.3-5.2,5.2-5.2h29.5c2.9,0,5.2,2.3,5.2,5.2
		L-69,236.8L-69,236.8z"/>
	<path d="M-89,218c-2.2,0-4,1.8-4,4v6c0,2.2,1.8,4,4,4s4-1.8,4-4v-6C-85,219.8-86.8,218-89,218z M-87,228c0,1.1-0.9,2-2,2
		s-2-0.9-2-2v-6c0-1.1,0.9-2,2-2s2,0.9,2,2V228z"/>
</g>
<g>
	<path d="M-103,234.8h1.5v5.4h2.7v1.3h-4.2V234.8z"/>
	<path d="M-92.3,238c0,2.2-1.3,3.5-3.3,3.5c-2,0-3.1-1.5-3.1-3.4c0-2,1.3-3.5,3.2-3.5C-93.4,234.7-92.3,236.2-92.3,238z
		 M-97.1,238.1c0,1.3,0.6,2.2,1.6,2.2c1,0,1.6-1,1.6-2.3c0-1.2-0.6-2.2-1.6-2.2C-96.5,235.9-97.1,236.8-97.1,238.1z"/>
	<path d="M-86.4,241.2c-0.3,0.1-0.9,0.3-1.7,0.3c-2.3,0-3.5-1.4-3.5-3.3c0-2.3,1.6-3.5,3.6-3.5c0.8,0,1.4,0.2,1.6,0.3l-0.3,1.2
		c-0.3-0.1-0.7-0.2-1.3-0.2c-1.2,0-2.1,0.7-2.1,2.2c0,1.3,0.8,2.2,2.1,2.2c0.5,0,1-0.1,1.3-0.2L-86.4,241.2z"/>
	<path d="M-85.4,234.8h1.5v3h0c0.1-0.3,0.3-0.5,0.5-0.7l1.5-2.2h1.9l-2.2,2.8l2.3,3.8h-1.8l-1.6-2.9l-0.6,0.7v2.2h-1.5V234.8z"/>
	<path d="M-79.2,239.9c0.4,0.2,1,0.4,1.7,0.4c0.7,0,1.1-0.3,1.1-0.7c0-0.4-0.3-0.7-1.1-0.9c-1.1-0.4-1.8-1-1.8-2c0-1.1,1-2,2.5-2
		c0.8,0,1.3,0.2,1.7,0.3l-0.3,1.2c-0.3-0.1-0.7-0.3-1.4-0.3c-0.7,0-1,0.3-1,0.6c0,0.4,0.4,0.6,1.2,0.9c1.2,0.4,1.7,1,1.7,2
		c0,1.1-0.9,2.1-2.7,2.1c-0.8,0-1.5-0.2-1.9-0.4L-79.2,239.9z"/>
</g>
</svg>
