<?xml version="1.0" encoding="utf-8"?>
<!-- Generator: Adobe Illustrator 19.0.0, SVG Export Plug-In . SVG Version: 6.00 Build 0)  -->
<svg version="1.1" id="Layer_1" xmlns="http://www.w3.org/2000/svg" xmlns:xlink="http://www.w3.org/1999/xlink" x="0px" y="0px"
	 viewBox="-417 141 512 512" style="enable-background:new -417 141 512 512;" xml:space="preserve">
<style type="text/css">
	.st0{fill-rule:evenodd;clip-rule:evenodd;fill:#BD2F32;}
	.st1{fill:#FFFFFF;}
</style>
<g id="XMLID_29_">
	<rect id="XMLID_28_" x="-417" y="141" class="st0" width="512" height="512"/>
	<g id="XMLID_30_">
		<rect id="XMLID_31_" x="-344.7" y="580.2" class="st1" width="367.3" height="2.1"/>
	</g>
</g>
<g id="XMLID_403_">
	<g id="XMLID_419_">
		<g id="XMLID_420_">
			<path id="XMLID_431_" class="st1" d="M-133.4,469.4v-81.3c0-3.3-2.2-5.8-5.1-6.9V249.8c0-3.3,1.1-52.4-15.2-73.3
				c-2.5-2.9-6.9-3.3-9.8-1.1c-0.4,0.4-1.1,0.7-1.1,1.1l0,0c-16.6,20.9-15.5,69.7-15.2,73.3v131.5c-2.9,0.7-5.1,3.3-5.1,6.9v81.3
				c0,0.7,0,15.5,2.2,30.3c3.6,23.5,11.6,35.4,23.5,35.4h0.4h0.4c11.9-0.4,19.9-12.3,23.5-35.4
				C-133.4,484.5-133.4,470.1-133.4,469.4z M-159.4,195.3c6.5,17.3,7.2,43.7,6.9,54.5c0,0,0,0,0,0.4v131.1h-14.1V249.8
				c0,0,0,0,0-0.4C-166.6,239-165.9,212.6-159.4,195.3z M-159.4,521.7c-6.5-1.1-12.3-25.6-12.3-52.4V395h24.2v74.4
				C-146.7,495.7-152.5,520.6-159.4,521.7z"/>
			<path id="XMLID_427_" class="st1" d="M-52.8,321.7c0-3.6-2.9-6.5-6.1-6.9v-11.2c0-1.8-0.4-3.6-2.2-4.7c0,0-6.1-3.3,0-9.8
				c12.3-12.6,9.4-29.3,0-38.3c-1.8-1.8-4.3-2.5-6.9-1.8c-2.5,0.7-4.3,2.5-4.7,4.7c-0.7,3.6-4,9.8-6.1,9.8s-5.1-5.4-6.5-9.8
				c-0.7-2.5-2.5-4.3-4.7-4.7c-2.5-0.7-4.7,0-6.9,1.8c-9.4,9.4-12.3,25.6,0,38.3c4,4,2.2,7.6,0,9.8c-1.1,1.1-2.2,2.9-2.2,4.7v11.2
				c-3.3,0.4-6.1,3.3-6.1,6.9v147.7c0,0.7,0,15.5,2.2,30.3c3.6,23.5,11.6,35.4,23.5,35.4h0.4h0.4c11.9-0.4,19.9-12.3,23.5-35.4
				c2.5-15.2,2.5-29.6,2.2-30.3L-52.8,321.7L-52.8,321.7z M-78.5,277.2c5.1,0,9-2.5,12.3-5.8c-0.4,2.5-1.4,5.1-4,7.6
				c-11.6,11.9-2.9,25.3-2.2,26.7v8.7h-12.3v-8.7c4.7-6.5,7.2-17.3-2.2-26.7c-2.5-2.5-3.6-5.1-4-7.6
				C-87.5,275.1-83.5,277.2-78.5,277.2z M-78.5,521.7c-6.5-1.1-12.3-25.6-12.3-52.4V328.9h24.2v140.5
				C-66.2,495.7-72,520.6-78.5,521.7z"/>
			<path id="XMLID_421_" class="st1" d="M-212.8,469.4v-89.9c0-2.2-1.1-4-2.5-5.4c-1.4-1.1-3.6-1.8-5.8-1.1
				c-1.4,0.4-3.3,1.1-4.7,1.1c-4.7,1.1-10.1,2.5-15.2,2.5s-10.5-1.1-15.2-2.5c-1.4-0.4-3.3-1.1-4.7-1.1c-2.2-0.4-4.3,0-5.8,1.1
				c-1.4,1.1-2.5,3.3-2.5,5.4v89.9c0,0.7,0,15.5,2.9,30.7c2.5,13.7,6.5,23.5,11.9,29.3c3.3,4,8.7,6.5,14.1,6.5s10.5-2.5,14.1-6.5
				c5.4-5.8,9.4-15.5,11.9-29.3C-212.8,484.9-212.8,470.1-212.8,469.4z M-256.2,388.1c4.7,1.1,9.4,2.2,14.8,2.2
				c5.1,0,10.5-1.1,14.8-2.2v2.5c-4.7,1.4-9.8,2.5-14.8,2.5s-10.1-1.1-14.8-2.5V388.1z M-236.7,406.5L-236.7,406.5
				c0,2.5-2.2,4.7-4.7,4.7s-4.7-2.2-4.7-4.7l0,0C-242.8,406.9-239.9,406.9-236.7,406.5z M-241.4,521.7c-2.5,0-4.7-2.2-4.7-4.7
				s2.2-4.7,4.7-4.7c2.5,0,4.7,2.2,4.7,4.7C-236.7,519.9-238.5,521.7-241.4,521.7z M-228.7,497.5c-0.4,1.8-0.7,3.6-1.1,5.4
				c-2.9-2.5-6.9-4-11.2-4c-4.3,0-8.3,1.4-11.2,4c-2.5-10.5-3.6-22.8-3.6-33.6v-52c3.3,4.7,8.7,7.6,14.8,7.6
				c6.1,0,11.6-2.9,14.8-7.6v52.4C-226.5,469.7-226.5,483.4-228.7,497.5z"/>
		</g>
	</g>
	<g id="XMLID_418_">
	</g>
	<g id="XMLID_417_">
	</g>
	<g id="XMLID_416_">
	</g>
	<g id="XMLID_415_">
	</g>
	<g id="XMLID_414_">
	</g>
	<g id="XMLID_413_">
	</g>
	<g id="XMLID_412_">
	</g>
	<g id="XMLID_411_">
	</g>
	<g id="XMLID_410_">
	</g>
	<g id="XMLID_409_">
	</g>
	<g id="XMLID_408_">
	</g>
	<g id="XMLID_407_">
	</g>
	<g id="XMLID_406_">
	</g>
	<g id="XMLID_405_">
	</g>
	<g id="XMLID_404_">
	</g>
</g>
<g>
	<path d="M-271.3,617.8c0-3.4-0.3-7.1-0.3-11.1l0,0c-1,3.4-2,7.4-3,10.4l-3.4,10.7h-4.7l-3-10.4c-1-3.4-1.7-7.1-2.4-10.7l0,0
		c0,3.7-0.3,7.7-0.3,11.1l-0.3,10.4h-5.7l1.7-27.2h8.1l2.7,9.1c1,3,1.7,6.4,2.4,9.7l0,0c0.7-3,1.7-6.7,2.7-9.7l3-9.1h8.1l1.3,27.2
		h-6L-271.3,617.8z"/>
	<path d="M-254.2,621.5l-2,7.1h-6.4l8.4-27.2h8.1l8.4,27.2h-6.7l-2-7.1H-254.2z M-247.1,616.8l-1.7-5.7c-0.3-1.7-1-3.7-1.3-5.4l0,0
		c-0.3,1.7-0.7,3.7-1.3,5.4l-1.7,5.7H-247.1z"/>
	<path d="M-234,628.2V601h7.1l5.7,10.1c1.7,3,3.4,6.4,4.4,9.4l0,0c-0.3-3.7-0.7-7.4-0.7-11.4V601h5.7v27.2h-6.4l-5.7-10.4
		c-1.7-3-3.4-6.4-4.7-9.7l0,0c0,3.7,0.3,7.4,0.3,11.8v8.1h-5.7V628.2z"/>
	<path d="M-199.8,601v27.2h-6V601H-199.8z"/>
	<path d="M-174.6,627.5c-1,0.7-3.7,1.3-7.1,1.3c-9.4,0-14.1-6-14.1-13.8c0-9.4,6.7-14.4,14.8-14.4c3,0,5.7,0.7,6.7,1.3l-1.3,5
		c-1.3-0.7-3-1-5-1c-5,0-8.7,3-8.7,9.1c0,5.4,3.4,8.7,8.7,8.7c2,0,4-0.3,5-1L-174.6,627.5z"/>
	<path d="M-164.5,601v15.8c0,4.7,1.7,7.1,5,7.1s5-2.4,5-7.1V601h6v15.1c0,8.4-4.4,12.4-11.4,12.4c-6.7,0-10.7-3.7-10.7-12.4V601
		H-164.5z"/>
	<path d="M-143,601.7c2-0.3,5-0.7,8.1-0.7c4,0,6.7,0.7,8.7,2c1.7,1.3,2.4,3,2.4,5.7c0,3.4-2.4,5.7-4.7,6.7l0,0c2,0.7,3,2.7,3.7,5
		c1,3,1.7,6.7,2.4,7.7h-6.4c-0.3-0.7-1-3-2-6.4c-0.7-3.4-2-4.4-4.4-4.4h-1.7v10.7h-6V601.7z M-137,613.1h2.4c3,0,5-1.7,5-4
		c0-2.4-1.7-3.7-4.4-3.7c-1.3,0-2.4,0-2.7,0.3v7.4H-137z"/>
	<path d="M-103.1,616.8h-10.1v6.4h11.1v5h-17.5V601h16.8v5h-10.7v5.7h10.1v5H-103.1z"/>
	<path d="M-89.3,622.2c1.7,1,4,1.7,6.7,1.7s4.4-1,4.4-3c0-1.7-1.3-2.7-4.7-3.7c-4.4-1.7-7.4-4-7.4-8.1c0-4.7,4-8.1,10.4-8.1
		c3,0,5.4,0.7,7.1,1.3l-1.7,4.7c-1-0.7-3-1.3-5.7-1.3s-4,1.3-4,2.7c0,1.7,1.7,2.4,5,3.7c4.7,1.7,7.1,4.4,7.1,8.1
		c0,4.7-3.4,8.4-11.1,8.4c-3,0-6-1-7.7-1.7L-89.3,622.2z"/>
	<path d="M-51.7,616.8h-10.1v6.4h11.1v5h-17.1V601H-51v5h-10.7v5.7h10.1V616.8z"/>
	<path d="M-40.9,606.4h-7.4v-5h20.8v5h-7.4v21.8h-6V606.4z"/>
</g>
<g>
	<path class="st1" d="M-277,617.8c0-3.4-0.3-7.1-0.3-11.1l0,0c-1,3.4-2,7.4-3,10.4l-3.4,10.7h-4.7l-3-10.4c-1-3.4-1.7-7.1-2.4-10.7
		l0,0c0,3.7-0.3,7.7-0.3,11.1l-0.3,10.4h-5.7l1.7-27.2h8.1l2.7,9.1c1,3,1.7,6.4,2.4,9.7l0,0c0.7-3,1.7-6.7,2.7-9.7l3-9.1h8.1
		l1.3,27.2h-6L-277,617.8z"/>
	<path class="st1" d="M-259.9,621.5l-2,7.1h-6.4l8.4-27.2h8.1l8.4,27.2h-6.7l-2-7.1H-259.9z M-252.8,616.8l-1.7-5.7
		c-0.3-1.7-1-3.7-1.3-5.4l0,0c-0.3,1.7-0.7,3.7-1.3,5.4l-1.7,5.7H-252.8z"/>
	<path class="st1" d="M-239.7,628.2V601h7.1l5.7,10.1c1.7,3,3.4,6.4,4.4,9.4l0,0c-0.3-3.7-0.7-7.4-0.7-11.4V601h5.7v27.2h-6.4
		l-5.7-10.4c-1.7-3-3.4-6.4-4.7-9.7l0,0c0,3.7,0.3,7.4,0.3,11.8v8.1h-5.7V628.2z"/>
	<path class="st1" d="M-205.5,601v27.2h-6V601H-205.5z"/>
	<path class="st1" d="M-180.3,627.5c-1,0.7-3.7,1.3-7.1,1.3c-9.4,0-14.1-6-14.1-13.8c0-9.4,6.7-14.4,14.8-14.4c3,0,5.7,0.7,6.7,1.3
		l-1.3,5c-1.3-0.7-3-1-5-1c-5,0-8.7,3-8.7,9.1c0,5.4,3.4,8.7,8.7,8.7c2,0,4-0.3,5-1L-180.3,627.5z"/>
	<path class="st1" d="M-170.2,601v15.8c0,4.7,1.7,7.1,5,7.1s5-2.4,5-7.1V601h6v15.1c0,8.4-4.4,12.4-11.4,12.4
		c-6.7,0-10.7-3.7-10.7-12.4V601H-170.2z"/>
	<path class="st1" d="M-148.7,601.7c2-0.3,5-0.7,8.1-0.7c4,0,6.7,0.7,8.7,2c1.7,1.3,2.4,3,2.4,5.7c0,3.4-2.4,5.7-4.7,6.7l0,0
		c2,0.7,3,2.7,3.7,5c1,3,1.7,6.7,2.4,7.7h-6.4c-0.3-0.7-1-3-2-6.4c-0.7-3.4-2-4.4-4.4-4.4h-1.7v10.7h-6V601.7z M-142.7,613.1h2.4
		c3,0,5-1.7,5-4c0-2.4-1.7-3.7-4.4-3.7c-1.3,0-2.4,0-2.7,0.3v7.4H-142.7z"/>
	<path class="st1" d="M-108.7,616.8h-10.1v6.4h11.1v5h-17.5V601h16.8v5h-10.7v5.7h10.1v5H-108.7z"/>
	<path class="st1" d="M-95,622.2c1.7,1,4,1.7,6.7,1.7s4.4-1,4.4-3c0-1.7-1.3-2.7-4.7-3.7c-4.4-1.7-7.4-4-7.4-8.1
		c0-4.7,4-8.1,10.4-8.1c3,0,5.4,0.7,7.1,1.3l-1.7,4.7c-1-0.7-3-1.3-5.7-1.3c-2.7,0-4,1.3-4,2.7c0,1.7,1.7,2.4,5,3.7
		c4.7,1.7,7.1,4.4,7.1,8.1c0,4.7-3.4,8.4-11.1,8.4c-3,0-6-1-7.7-1.7L-95,622.2z"/>
	<path class="st1" d="M-57.4,616.8h-10.1v6.4h11.1v5h-17.1V601h16.8v5h-10.7v5.7h10.1V616.8z"/>
	<path class="st1" d="M-46.6,606.4H-54v-5h20.8v5h-7.4v21.8h-6V606.4z"/>
</g>
</svg>
