<?xml version="1.0" encoding="utf-8"?>
<!-- Generator: Adobe Illustrator 19.0.0, SVG Export Plug-In . SVG Version: 6.00 Build 0)  -->
<svg version="1.1" id="Layer_1" xmlns="http://www.w3.org/2000/svg" xmlns:xlink="http://www.w3.org/1999/xlink" x="0px" y="0px"
	 viewBox="-71 145 144 144" style="enable-background:new -71 145 144 144;" xml:space="preserve">
<style type="text/css">
	.st0{fill:#010101;}
</style>
<g id="XMLID_403_">
	<g id="XMLID_419_">
		<g id="XMLID_420_">
			<path id="XMLID_431_" class="st0" d="M8.7,237.6v-22.5c0-0.9-0.6-1.6-1.4-1.9v-36.4c0-0.9,0.3-14.5-4.2-20.3
				c-0.7-0.8-1.9-0.9-2.7-0.3c-0.1,0.1-0.3,0.2-0.3,0.3l0,0c-4.6,5.8-4.3,19.3-4.2,20.3v36.4c-0.8,0.2-1.4,0.9-1.4,1.9v22.5
				c0,0.2,0,4.3,0.6,8.4c1,6.5,3.2,9.8,6.5,9.8h0.1h0.1c3.3-0.1,5.5-3.4,6.5-9.8C8.7,241.8,8.7,237.8,8.7,237.6z M1.5,161.7
				c1.8,4.8,2,12.1,1.9,15.1c0,0,0,0,0,0.1v36.3h-3.9v-36.4c0,0,0,0,0-0.1C-0.5,173.8-0.3,166.5,1.5,161.7z M1.5,252.1
				c-1.8-0.3-3.4-7.1-3.4-14.5V217h6.7v20.6C5,244.9,3.4,251.8,1.5,252.1z"/>
			<path id="XMLID_427_" class="st0" d="M31,196.7c0-1-0.8-1.8-1.7-1.9v-3.1c0-0.5-0.1-1-0.6-1.3c0,0-1.7-0.9,0-2.7
				c3.4-3.5,2.6-8.1,0-10.6c-0.5-0.5-1.2-0.7-1.9-0.5c-0.7,0.2-1.2,0.7-1.3,1.3c-0.2,1-1.1,2.7-1.7,2.7c-0.6,0-1.4-1.5-1.8-2.7
				c-0.2-0.7-0.7-1.2-1.3-1.3c-0.7-0.2-1.3,0-1.9,0.5c-2.6,2.6-3.4,7.1,0,10.6c1.1,1.1,0.6,2.1,0,2.7c-0.3,0.3-0.6,0.8-0.6,1.3v3.1
				c-0.9,0.1-1.7,0.9-1.7,1.9v40.9c0,0.2,0,4.3,0.6,8.4c1,6.5,3.2,9.8,6.5,9.8h0.1h0.1c3.3-0.1,5.5-3.4,6.5-9.8
				c0.7-4.2,0.7-8.2,0.6-8.4L31,196.7L31,196.7z M23.9,184.4c1.4,0,2.5-0.7,3.4-1.6c-0.1,0.7-0.4,1.4-1.1,2.1
				c-3.2,3.3-0.8,7-0.6,7.4v2.4h-3.4v-2.4c1.3-1.8,2-4.8-0.6-7.4c-0.7-0.7-1-1.4-1.1-2.1C21.4,183.8,22.5,184.4,23.9,184.4z
				 M23.9,252.1c-1.8-0.3-3.4-7.1-3.4-14.5v-38.9h6.7v38.9C27.3,244.9,25.7,251.8,23.9,252.1z"/>
			<path id="XMLID_421_" class="st0" d="M-13.3,237.6v-24.9c0-0.6-0.3-1.1-0.7-1.5c-0.4-0.3-1-0.5-1.6-0.3c-0.4,0.1-0.9,0.3-1.3,0.3
				c-1.3,0.3-2.8,0.7-4.2,0.7c-1.4,0-2.9-0.3-4.2-0.7c-0.4-0.1-0.9-0.3-1.3-0.3c-0.6-0.1-1.2,0-1.6,0.3c-0.4,0.3-0.7,0.9-0.7,1.5
				v24.9c0,0.2,0,4.3,0.8,8.5c0.7,3.8,1.8,6.5,3.3,8.1c0.9,1.1,2.4,1.8,3.9,1.8s2.9-0.7,3.9-1.8c1.5-1.6,2.6-4.3,3.3-8.1
				C-13.3,241.9-13.3,237.8-13.3,237.6z M-25.3,215.1c1.3,0.3,2.6,0.6,4.1,0.6c1.4,0,2.9-0.3,4.1-0.6v0.7c-1.3,0.4-2.7,0.7-4.1,0.7
				c-1.4,0-2.8-0.3-4.1-0.7V215.1z M-19.9,220.2L-19.9,220.2c0,0.7-0.6,1.3-1.3,1.3s-1.3-0.6-1.3-1.3l0,0
				C-21.6,220.3-20.8,220.3-19.9,220.2z M-21.2,252.1c-0.7,0-1.3-0.6-1.3-1.3c0-0.7,0.6-1.3,1.3-1.3s1.3,0.6,1.3,1.3
				C-19.9,251.6-20.4,252.1-21.2,252.1z M-17.7,245.4c-0.1,0.5-0.2,1-0.3,1.5c-0.8-0.7-1.9-1.1-3.1-1.1s-2.3,0.4-3.1,1.1
				c-0.7-2.9-1-6.3-1-9.3v-14.4c0.9,1.3,2.4,2.1,4.1,2.1s3.2-0.8,4.1-2.1v14.5C-17.1,237.7-17.1,241.5-17.7,245.4z"/>
		</g>
	</g>
	<g id="XMLID_418_">
	</g>
	<g id="XMLID_417_">
	</g>
	<g id="XMLID_416_">
	</g>
	<g id="XMLID_415_">
	</g>
	<g id="XMLID_414_">
	</g>
	<g id="XMLID_413_">
	</g>
	<g id="XMLID_412_">
	</g>
	<g id="XMLID_411_">
	</g>
	<g id="XMLID_410_">
	</g>
	<g id="XMLID_409_">
	</g>
	<g id="XMLID_408_">
	</g>
	<g id="XMLID_407_">
	</g>
	<g id="XMLID_406_">
	</g>
	<g id="XMLID_405_">
	</g>
	<g id="XMLID_404_">
	</g>
</g>
<g>
	<path d="M-31.6,272.2c0-1-0.1-2.1-0.1-3.3h0c-0.3,1-0.6,2.2-0.9,3.1l-1,3.2H-35l-0.9-3.1c-0.3-1-0.5-2.1-0.7-3.2h0
		c0,1.1-0.1,2.3-0.1,3.3l-0.1,3.1h-1.7l0.5-8.1h2.4l0.8,2.7c0.3,0.9,0.5,1.9,0.7,2.9h0c0.2-0.9,0.5-2,0.8-2.9l0.9-2.7h2.4l0.4,8.1
		h-1.8L-31.6,272.2z"/>
	<path d="M-26.5,273.3l-0.6,2.1h-1.9l2.5-8.1h2.4l2.5,8.1h-2l-0.6-2.1H-26.5z M-24.4,271.9l-0.5-1.7c-0.1-0.5-0.3-1.1-0.4-1.6h0
		c-0.1,0.5-0.2,1.1-0.4,1.6l-0.5,1.7H-24.4z"/>
	<path d="M-20.5,275.3v-8.1h2.1l1.7,3c0.5,0.9,1,1.9,1.3,2.8h0c-0.1-1.1-0.2-2.2-0.2-3.4v-2.4h1.7v8.1h-1.9l-1.7-3.1
		c-0.5-0.9-1-1.9-1.4-2.9l0,0c0,1.1,0.1,2.2,0.1,3.5v2.4H-20.5z"/>
	<path d="M-10.3,267.2v8.1h-1.8v-8.1H-10.3z"/>
	<path d="M-2.8,275.1c-0.3,0.2-1.1,0.4-2.1,0.4c-2.8,0-4.2-1.8-4.2-4.1c0-2.8,2-4.3,4.4-4.3c0.9,0,1.7,0.2,2,0.4l-0.4,1.5
		c-0.4-0.2-0.9-0.3-1.5-0.3c-1.5,0-2.6,0.9-2.6,2.7c0,1.6,1,2.6,2.6,2.6c0.6,0,1.2-0.1,1.5-0.3L-2.8,275.1z"/>
	<path d="M0.2,267.2v4.7c0,1.4,0.5,2.1,1.5,2.1c1,0,1.5-0.7,1.5-2.1v-4.7H5v4.5c0,2.5-1.3,3.7-3.4,3.7c-2,0-3.2-1.1-3.2-3.7v-4.5
		H0.2z"/>
	<path d="M6.6,267.4c0.6-0.1,1.5-0.2,2.4-0.2c1.2,0,2,0.2,2.6,0.6c0.5,0.4,0.7,0.9,0.7,1.7c0,1-0.7,1.7-1.4,2v0
		c0.6,0.2,0.9,0.8,1.1,1.5c0.3,0.9,0.5,2,0.7,2.3h-1.9c-0.1-0.2-0.3-0.9-0.6-1.9c-0.2-1-0.6-1.3-1.3-1.3H8.4v3.2H6.6V267.4z
		 M8.4,270.8h0.7c0.9,0,1.5-0.5,1.5-1.2c0-0.7-0.5-1.1-1.3-1.1c-0.4,0-0.7,0-0.8,0.1V270.8z"/>
	<path d="M18.5,271.9h-3v1.9h3.3v1.5h-5.2v-8.1h5v1.5h-3.2v1.7h3V271.9z"/>
	<path d="M22.6,273.5c0.5,0.3,1.2,0.5,2,0.5c0.8,0,1.3-0.3,1.3-0.9c0-0.5-0.4-0.8-1.4-1.1c-1.3-0.5-2.2-1.2-2.2-2.4
		c0-1.4,1.2-2.4,3.1-2.4c0.9,0,1.6,0.2,2.1,0.4L27,269c-0.3-0.2-0.9-0.4-1.7-0.4c-0.8,0-1.2,0.4-1.2,0.8c0,0.5,0.5,0.7,1.5,1.1
		c1.4,0.5,2.1,1.3,2.1,2.4c0,1.4-1,2.5-3.3,2.5c-0.9,0-1.8-0.3-2.3-0.5L22.6,273.5z"/>
	<path d="M33.8,271.9h-3v1.9h3.3v1.5H29v-8.1h5v1.5h-3.2v1.7h3V271.9z"/>
	<path d="M37,268.8h-2.2v-1.5h6.2v1.5h-2.2v6.5H37V268.8z"/>
</g>
</svg>
