<?xml version="1.0" encoding="utf-8"?>
<!-- Generator: Adobe Illustrator 19.0.0, SVG Export Plug-In . SVG Version: 6.00 Build 0)  -->
<svg version="1.1" id="Layer_1" xmlns="http://www.w3.org/2000/svg" xmlns:xlink="http://www.w3.org/1999/xlink" x="0px" y="0px"
	 viewBox="0 0 144 144" style="enable-background:new 0 0 144 144;" xml:space="preserve">
<style type="text/css">
	.st0{fill:#010101;}
</style>
<g id="XMLID_403_">
	<g id="XMLID_419_">
		<g id="XMLID_420_">
			<path id="XMLID_431_" class="st0" d="M81.1,109.7V83c0-1.1-0.7-1.9-1.7-2.2V37.5c0-1.1,0.4-17.2-5-24.1c-0.8-1-2.2-1.1-3.2-0.4
				c-0.1,0.1-0.3,0.2-0.4,0.4l0,0c-5.5,6.9-5.1,23-5,24.1v43.3c-1,0.2-1.7,1.1-1.7,2.2v26.7c0,0.2,0,5.1,0.7,10
				c1.2,7.7,3.8,11.6,7.7,11.7c0,0,0.1,0,0.1,0c0,0,0.1,0,0.1,0c3.9-0.1,6.5-4.1,7.7-11.7C81.2,114.7,81.1,109.9,81.1,109.7z
				 M72.6,19.5c2.1,5.7,2.4,14.4,2.3,17.9c0,0,0,0,0,0.1v43.2h-4.6V37.4c0,0,0,0,0-0.1C70.2,33.9,70.5,25.2,72.6,19.5z M72.6,126.9
				c-2.1-0.3-4.1-8.5-4-17.2V85.2h8v24.5C76.7,118.4,74.8,126.6,72.6,126.9z"/>
			<path id="XMLID_427_" class="st0" d="M107.7,61.1c0-1.2-0.9-2.1-2-2.2v-3.7c0-0.6-0.1-1.2-0.7-1.6c0,0-2-1.1,0-3.2
				c4-4.2,3.1-9.6,0-12.6c-0.6-0.6-1.4-0.8-2.2-0.6c-0.8,0.2-1.4,0.8-1.6,1.6C101,40,99.9,42,99.2,42c-0.7,0-1.7-1.8-2.1-3.2
				c-0.2-0.8-0.8-1.4-1.6-1.6c-0.8-0.2-1.6,0-2.2,0.6c-3.1,3.1-4.1,8.5,0,12.6c1.3,1.3,0.7,2.5,0,3.2c-0.4,0.4-0.7,1-0.7,1.6v3.7
				c-1.1,0.1-2,1.1-2,2.2v48.6c0,0.2,0,5.1,0.7,10c1.2,7.7,3.8,11.6,7.7,11.7c0,0,0.1,0,0.1,0c0,0,0.1,0,0.1,0
				c3.9-0.1,6.5-4.1,7.7-11.7c0.8-5,0.8-9.8,0.7-10L107.7,61.1L107.7,61.1z M99.2,46.5c1.7,0,3-0.8,4-1.9c-0.1,0.8-0.5,1.7-1.3,2.5
				c-3.8,3.9-1,8.3-0.7,8.8v2.9h-4V56c1.6-2.1,2.4-5.7-0.7-8.8c-0.8-0.8-1.2-1.7-1.3-2.5C96.2,45.7,97.5,46.5,99.2,46.5z
				 M99.2,126.9c-2.1-0.3-4.1-8.5-4-17.2V63.4h8v46.3C103.3,118.4,101.4,126.6,99.2,126.9z"/>
			<path id="XMLID_421_" class="st0" d="M55,109.7V80.1c0-0.7-0.3-1.3-0.8-1.8c-0.5-0.4-1.2-0.6-1.9-0.4c-0.5,0.1-1.1,0.3-1.6,0.4
				c-1.6,0.4-3.3,0.8-5,0.8c-1.7,0-3.4-0.4-5-0.8c-0.5-0.1-1.1-0.3-1.6-0.4c-0.7-0.1-1.4,0-1.9,0.4c-0.5,0.4-0.8,1.1-0.8,1.8l0,29.6
				c0,0.2,0,5.1,0.9,10.1c0.8,4.5,2.1,7.7,3.9,9.6c1.1,1.3,2.8,2.1,4.6,2.1c1.8,0,3.5-0.8,4.6-2.1c1.8-1.9,3.1-5.1,3.9-9.6
				C55,114.8,55,109.9,55,109.7z M40.7,83c1.5,0.4,3.1,0.7,4.9,0.7c1.7,0,3.4-0.3,4.9-0.7v0.8c-1.5,0.5-3.2,0.8-4.9,0.8
				c-1.7,0-3.3-0.3-4.9-0.8L40.7,83z M47.1,89C47.1,89,47.1,89,47.1,89c0,0.8-0.7,1.5-1.5,1.5s-1.5-0.7-1.5-1.5c0,0,0,0,0,0
				C45.1,89.1,46.1,89.1,47.1,89z M45.6,127c-0.8,0-1.5-0.7-1.5-1.5s0.7-1.5,1.5-1.5c0.8,0,1.5,0.7,1.5,1.5
				C47.1,126.3,46.5,127,45.6,127z M49.7,119c-0.1,0.6-0.2,1.2-0.4,1.8c-1-0.8-2.3-1.3-3.7-1.3c-1.4,0-2.7,0.5-3.7,1.3
				c-0.8-3.4-1.2-7.5-1.2-11.1V92.6c1.1,1.5,2.9,2.5,4.9,2.5c2,0,3.8-1,4.9-2.5v17.2C50.5,109.8,50.5,114.4,49.7,119z"/>
		</g>
	</g>
	<g id="XMLID_418_">
	</g>
	<g id="XMLID_417_">
	</g>
	<g id="XMLID_416_">
	</g>
	<g id="XMLID_415_">
	</g>
	<g id="XMLID_414_">
	</g>
	<g id="XMLID_413_">
	</g>
	<g id="XMLID_412_">
	</g>
	<g id="XMLID_411_">
	</g>
	<g id="XMLID_410_">
	</g>
	<g id="XMLID_409_">
	</g>
	<g id="XMLID_408_">
	</g>
	<g id="XMLID_407_">
	</g>
	<g id="XMLID_406_">
	</g>
	<g id="XMLID_405_">
	</g>
	<g id="XMLID_404_">
	</g>
</g>
</svg>
