<?xml version="1.0" encoding="utf-8"?>
<!-- Generator: Adobe Illustrator 19.0.0, SVG Export Plug-In . SVG Version: 6.00 Build 0)  -->
<svg version="1.1" id="Layer_1" xmlns="http://www.w3.org/2000/svg" xmlns:xlink="http://www.w3.org/1999/xlink" x="0px" y="0px"
	 viewBox="0 0 144 144" style="enable-background:new 0 0 144 144;" xml:space="preserve">
<style type="text/css">
	.st0{fill:#010101;}
</style>
<g id="XMLID_242_">
	<polygon id="XMLID_921_" class="st0" points="105.5,41.1 105.5,41.1 106.1,42.2 	"/>
	<polygon id="XMLID_922_" class="st0" points="106.7,43.3 106.1,42.2 106.7,43.3 	"/>
	<path id="XMLID_920_" class="st0" d="M111.4,36.2l-0.6-1.2l-3.7-6.9l-0.4-0.7l0.4,0.7l0.6,1.1L74,80.5l-2-1.3l-2,1.3L36.4,29.3
		l0.6-1.1l1-1.8l0.6-1.1L72,76.2l33.5-50.9v0l-4.1-7.5l-0.5-1l0,0H43.1L32.9,35.6l-0.3,0.6l0,0l0,0l0,0h0l32.1,49l7.3-4.8l0,0l0,0
		l7.3,4.8L111.4,36.2L111.4,36.2L111.4,36.2L111.4,36.2L111.4,36.2z M72,60.8L72,60.8L72,60.8L55.9,36.2h32.3L72,60.8z M96.1,23.3
		l-2.7,4H50.6l-2.7-4H96.1z"/>
	<path id="XMLID_915_" class="st0" d="M72,78.9c-13.3,0-24.2,10.8-24.2,24.2s10.8,24.2,24.2,24.2c13.3,0,24.2-10.8,24.2-24.2
		S85.3,78.9,72,78.9z M75.4,93.1v15.8H78v3.7H66.9v-3.7h2.8V98.5l-2.8,1.3l-1.3-3.1c1.6-0.8,2.8-1.2,4.9-3.6H75.4z M91,106.6
		c-0.5,0.4-1.1,0.5-1.7,0.4c0,0,0,0,0,0c-0.2,0.7-0.4,1.3-0.6,2c0.2-0.2,0.4-0.4,0.7-0.6c0.6-0.3,1.3-0.3,1.8,0
		c-0.2,0.6-0.6,1.1-1.2,1.4c-0.6,0.3-1.2,0.3-1.7,0.1c0,0,0,0,0,0c-0.3,0.7-0.6,1.3-1,1.9c0,0,0,0,0,0c0,0,0,0,0,0
		c0.3-0.2,0.6-0.4,0.9-0.5c0.6-0.2,1.3,0,1.8,0.3c-0.3,0.6-0.8,1-1.4,1.2c-0.6,0.2-1.2,0.1-1.7-0.3c0,0,0,0,0,0
		c-0.4,0.6-0.8,1.2-1.3,1.7c0,0,0,0,0,0c0.3-0.2,0.6-0.3,1-0.4c0.7-0.1,1.3,0.2,1.7,0.6c-0.4,0.5-0.9,0.8-1.6,0.9
		c-0.6,0.1-1.2-0.2-1.7-0.6c0,0,0,0,0,0c-0.5,0.5-1,1-1.6,1.5c0,0,0,0,0,0c0.3-0.1,0.7-0.2,1-0.2c0.7,0.1,1.2,0.4,1.6,0.9
		c-0.4,0.4-1.1,0.7-1.7,0.6c-0.6-0.1-1.2-0.4-1.5-0.8c-0.3,0.2-0.6,0.5-0.9,0.7c-0.3,0.2-0.5,0.3-0.8,0.5c0,0,0,0,0,0
		c0.3-0.1,0.6,0,1,0c0.6,0.2,1.1,0.6,1.4,1.2c-0.5,0.3-1.2,0.5-1.8,0.3c-0.6-0.2-1.1-0.6-1.4-1.1c0,0,0,0,0,0
		c-0.6,0.3-1.2,0.6-1.8,0.8h0c0,0,0,0,0,0c0.3,0,0.6,0.1,0.8,0.2c0.6,0.3,1,0.8,1.2,1.4c-0.6,0.2-1.2,0.3-1.8,0
		c-0.5-0.3-0.9-0.7-1.1-1.2c0,0,0,0,0,0h0c-1.3,0.5-3.2,1.1-5.2,2.3c0.7,0.5,1.5,1,2.2,1.7l-0.2,0.2c-0.8-0.7-1.5-1.2-2.3-1.7
		c-0.8,0.5-1.6,1-2.3,1.7l-0.2-0.2c0.7-0.7,1.5-1.2,2.3-1.7c-2-1.2-3.9-1.8-5.2-2.3c0,0,0,0,0,0c-0.2,0.5-0.6,1-1.1,1.2
		c-0.6,0.3-1.3,0.3-1.8,0c0.2-0.6,0.6-1.1,1.2-1.4c0.3-0.1,0.6-0.2,0.8-0.2c0,0,0,0,0,0c-0.6-0.2-1.2-0.5-1.8-0.8c0,0,0,0,0,0
		c-0.3,0.5-0.8,0.9-1.4,1.1c-0.6,0.2-1.3,0-1.8-0.3c0.3-0.6,0.8-1,1.4-1.2c0.3-0.1,0.7-0.1,1,0c0,0,0,0,0,0
		c-0.3-0.2-0.6-0.3-0.8-0.5c-0.3-0.2-0.6-0.4-0.9-0.6c-0.4,0.5-0.9,0.8-1.5,0.8c-0.7,0.1-1.3-0.2-1.7-0.6c0.4-0.5,0.9-0.8,1.6-0.9
		c0.4,0,0.7,0,1,0.2c0,0,0,0,0,0c0,0,0,0,0,0c-0.6-0.5-1.1-0.9-1.6-1.5c0,0,0,0,0,0c-0.4,0.4-1,0.6-1.7,0.6
		c-0.7-0.1-1.2-0.4-1.6-0.9c0.4-0.4,1.1-0.7,1.7-0.6c0.4,0,0.7,0.2,1,0.3c-0.5-0.6-0.9-1.1-1.3-1.7c0,0,0,0,0,0
		c-0.5,0.3-1.1,0.4-1.7,0.3c-0.6-0.2-1.1-0.6-1.4-1.2c0.5-0.3,1.2-0.5,1.8-0.3c0.3,0.1,0.6,0.3,0.9,0.5c0,0,0,0,0,0
		c-0.4-0.6-0.7-1.2-1-1.9c0,0,0,0,0,0c-0.5,0.2-1.1,0.2-1.7-0.1c-0.6-0.3-1-0.8-1.2-1.4c0.6-0.2,1.2-0.3,1.8,0
		c0.3,0.1,0.5,0.3,0.7,0.5c-0.2-0.6-0.5-1.3-0.6-2c0,0,0,0,0,0c-0.6,0.1-1.2,0-1.7-0.4c-0.5-0.4-0.9-1-0.9-1.6
		c0.6-0.1,1.2,0,1.8,0.3c0.2,0.2,0.4,0.4,0.6,0.6c0,0,0,0,0,0c-0.1-0.7-0.2-1.3-0.3-2c0,0,0,0,0,0c-0.6,0-1.1-0.2-1.5-0.6
		c-0.5-0.5-0.7-1.1-0.6-1.7c0.6,0,1.2,0.2,1.7,0.7c0.2,0.2,0.3,0.4,0.4,0.7c0,0,0,0,0,0v-0.2c0-0.6,0-1.2,0.1-1.8c0,0,0,0,0,0
		c-0.5-0.1-1.1-0.4-1.4-0.9c-0.4-0.5-0.5-1.2-0.3-1.8c0.6,0.1,1.2,0.4,1.6,0.9c0.2,0.2,0.3,0.5,0.3,0.7c0,0,0,0,0,0
		c0.1-0.7,0.3-1.3,0.5-1.9c0,0,0,0,0,0c-0.5-0.2-1-0.6-1.2-1.1c-0.3-0.6-0.3-1.3,0-1.8c0.6,0.2,1.1,0.6,1.4,1.2
		c0.1,0.3,0.2,0.5,0.2,0.8c0,0,0,0,0,0c0.2-0.6,0.5-1.2,0.8-1.8c0,0,0,0,0,0c-0.5-0.3-0.9-0.8-1-1.4c-0.2-0.6,0-1.3,0.3-1.8
		c0.5,0.3,1,0.8,1.1,1.4c0.1,0.3,0.1,0.6,0,0.9c0,0,0,0,0,0c0.3-0.6,0.7-1.2,1.1-1.7c0,0,0,0,0,0c-0.5-0.4-0.8-0.9-0.8-1.5
		c-0.1-0.7,0.2-1.3,0.6-1.7c0.5,0.4,0.8,0.9,0.9,1.6c0,0.3,0,0.7-0.1,1c0.4-0.6,0.9-1.1,1.4-1.6v0c-0.4-0.4-0.6-1-0.5-1.7
		c0.1-0.7,0.4-1.2,0.9-1.6c0.4,0.4,0.7,1.1,0.6,1.7c0,0.4-0.1,0.7-0.3,1c0.5-0.5,1.1-0.9,1.7-1.3c0,0,0,0,0,0
		c-0.3-0.5-0.4-1.1-0.2-1.7c0.2-0.6,0.6-1.1,1.1-1.4c0.3,0.5,0.5,1.2,0.3,1.8c-0.1,0.3-0.2,0.6-0.5,0.9c0,0,0,0,0,0c0,0,0,0,0,0
		c0.6-0.4,1.2-0.7,1.8-1c0,0,0,0,0,0c-0.2-0.5-0.2-1.2,0.1-1.7c0.3-0.6,0.8-1,1.4-1.2c0.2,0.6,0.3,1.2,0,1.8
		c-0.1,0.3-0.3,0.5-0.5,0.7c0,0,0,0,0,0c0.6-0.2,1.1-0.4,1.7-0.6c0,0,0,0,0,0c0.2-0.5,0.7-0.9,1.2-1.1c0.6-0.2,1.3-0.2,1.8,0.1
		c-0.2,0.6-0.7,1.1-1.3,1.3c-0.5,0.2-1.1,0.2-1.6,0c0,0,0,0,0,0c-0.7,0.2-1.3,0.4-1.9,0.7c0,0,0,0,0,0c0.4,0,0.7,0,1.1,0.2
		c0.6,0.3,1,0.8,1.2,1.4c-0.6,0.2-1.2,0.3-1.8,0c-0.5-0.3-0.9-0.7-1.1-1.2c0,0,0,0,0,0c-0.6,0.3-1.2,0.6-1.8,1c0,0,0,0,0,0
		c0.3-0.1,0.6,0,0.9,0c0.6,0.2,1.1,0.6,1.4,1.2c-0.5,0.3-1.2,0.5-1.8,0.3c-0.6-0.2-1-0.5-1.3-1c0,0,0,0,0,0
		c-0.5,0.4-1.1,0.8-1.6,1.2c0.3-0.1,0.6-0.1,0.9-0.1c0.7,0.1,1.2,0.4,1.6,0.9c-0.4,0.4-1.1,0.7-1.7,0.6c-0.6-0.1-1.1-0.3-1.5-0.8
		c0,0,0,0,0,0c-0.5,0.5-0.9,1-1.4,1.5c0.3-0.2,0.6-0.3,0.9-0.3c0.7-0.1,1.3,0.2,1.7,0.6c-0.4,0.5-0.9,0.8-1.6,0.9
		c-0.6,0.1-1.1-0.1-1.6-0.5c0,0,0,0,0,0c-0.4,0.6-0.8,1.2-1.1,1.8c0,0,0,0,0,0c0.3-0.2,0.5-0.4,0.9-0.5c0.6-0.2,1.3,0,1.8,0.3
		c-0.3,0.6-0.8,1-1.4,1.2c-0.6,0.2-1.2,0.1-1.7-0.2c0,0,0,0,0,0c-0.3,0.7-0.6,1.4-0.9,2.1c0,0,0,0,0,0c0.2-0.3,0.5-0.6,0.9-0.7
		c0.6-0.3,1.3-0.3,1.8,0c-0.2,0.6-0.6,1.1-1.2,1.4c-0.6,0.3-1.2,0.3-1.7,0.1c0,0,0,0,0,0c-0.2,0.7-0.4,1.5-0.5,2.2c0,0,0,0,0,0
		c0.2-0.4,0.4-0.7,0.7-0.9c0.5-0.4,1.2-0.5,1.8-0.3c-0.1,0.6-0.4,1.2-0.9,1.6c-0.5,0.4-1.1,0.5-1.7,0.4l0,0
		c-0.1,0.6-0.1,1.2-0.1,1.8c0,0.2,0,0.3,0,0.5c0,0,0,0,0,0c0.1-0.4,0.3-0.7,0.6-1c0.5-0.5,1.1-0.7,1.7-0.7c0,0.6-0.2,1.2-0.6,1.7
		c-0.4,0.4-1,0.7-1.6,0.6c0,0,0,0,0,0c0.1,0.7,0.2,1.5,0.3,2.2c0,0,0,0,0,0c0-0.4,0.2-0.7,0.4-1c0.4-0.5,1-0.9,1.6-0.9
		c0.1,0.6,0,1.3-0.3,1.8c-0.3,0.5-0.9,0.8-1.4,0.9c0,0,0,0,0,0c0.2,0.7,0.4,1.3,0.6,2c0,0,0,0,0,0c0-0.3,0.1-0.7,0.2-1
		c0.3-0.6,0.8-1,1.4-1.2c0.2,0.6,0.3,1.2,0,1.8c-0.3,0.6-0.7,0.9-1.2,1.1c0,0,0,0,0,0c0.3,0.6,0.6,1.2,0.9,1.8c0,0,0,0,0,0
		c0-0.3,0-0.6,0-0.9c0.2-0.6,0.6-1.1,1.1-1.4c0.3,0.5,0.5,1.2,0.3,1.8c-0.2,0.6-0.5,1-1,1.3c0,0,0,0,0,0c0.4,0.5,0.8,1.1,1.2,1.6
		c0,0,0,0,0,0c-0.1-0.3-0.1-0.6-0.1-0.9c0.1-0.7,0.4-1.2,0.9-1.6c0.4,0.4,0.7,1.1,0.6,1.7c-0.1,0.6-0.3,1.1-0.7,1.5c0,0,0,0,0,0
		c0.5,0.5,1,0.9,1.5,1.4c0,0,0,0,0,0c-0.1-0.3-0.2-0.6-0.3-0.9c-0.1-0.7,0.2-1.3,0.6-1.7c0.5,0.4,0.8,0.9,0.9,1.6
		c0.1,0.6-0.1,1.2-0.5,1.6l0,0c0.2,0.2,0.5,0.4,0.8,0.5c0.3,0.2,0.6,0.4,1,0.6c0,0,0,0,0,0c-0.2-0.2-0.4-0.5-0.5-0.9
		c-0.2-0.6,0-1.3,0.3-1.8c0.5,0.3,1,0.8,1.1,1.4c0.2,0.6,0.1,1.2-0.2,1.7c0,0,0,0,0,0c0.7,0.3,1.3,0.6,2.1,0.9c0,0,0,0,0,0
		c-0.3-0.2-0.6-0.5-0.8-0.9c-0.3-0.6-0.3-1.3,0-1.8c0.6,0.2,1.1,0.6,1.4,1.2c0.3,0.6,0.3,1.2,0.1,1.8c0,0,0,0,0,0h0
		c1.4,0.5,3.3,1.1,5.4,2.4c2-1.2,4-1.9,5.4-2.4c0,0,0,0,0,0c-0.2-0.5-0.2-1.2,0.1-1.7c0.3-0.6,0.8-1,1.4-1.2c0.2,0.6,0.3,1.2,0,1.8
		c-0.2,0.4-0.4,0.7-0.7,0.9c0,0,0,0,0,0c0.7-0.3,1.4-0.5,2-0.9c0,0,0,0,0,0c-0.3-0.5-0.4-1.1-0.2-1.7c0.2-0.6,0.6-1.1,1.1-1.4
		c0.3,0.5,0.5,1.2,0.3,1.8c-0.1,0.3-0.2,0.6-0.4,0.8c0.3-0.2,0.6-0.4,0.9-0.6c0.3-0.2,0.5-0.3,0.8-0.5c0,0,0,0,0,0
		c-0.3-0.4-0.5-1-0.5-1.6c0.1-0.7,0.4-1.2,0.9-1.6c0.4,0.4,0.7,1.1,0.6,1.7c0,0.3-0.1,0.6-0.3,0.9c0,0,0,0,0,0
		c0.5-0.4,1-0.9,1.5-1.4c0,0,0,0,0,0c-0.4-0.4-0.7-0.9-0.7-1.5c-0.1-0.7,0.2-1.3,0.6-1.7c0.5,0.4,0.8,0.9,0.9,1.6
		c0,0.3,0,0.6-0.1,0.9c0,0,0,0,0,0l0,0c0.4-0.5,0.8-1,1.2-1.6c0,0,0,0,0,0c-0.5-0.3-0.8-0.7-1-1.3c-0.2-0.6,0-1.3,0.3-1.8
		c0.5,0.3,1,0.8,1.1,1.4c0.1,0.3,0.1,0.6,0,0.9c0,0,0,0,0,0c0.3-0.6,0.7-1.2,0.9-1.8c0,0,0,0,0,0c-0.5-0.2-1-0.6-1.2-1.1
		c-0.3-0.6-0.3-1.3,0-1.8c0.6,0.2,1.1,0.6,1.4,1.2c0.2,0.3,0.2,0.7,0.2,1c0,0,0,0,0,0v0c0.3-0.7,0.5-1.3,0.6-2c0,0,0,0,0,0
		c-0.6-0.1-1.1-0.4-1.4-0.9c-0.4-0.5-0.5-1.2-0.3-1.8c0.6,0.1,1.2,0.4,1.6,0.9c0.2,0.3,0.3,0.7,0.4,1c0,0,0,0,0,0c0,0,0,0,0,0
		c0.2-0.7,0.3-1.4,0.3-2.1c0,0,0,0,0,0c-0.6,0-1.2-0.2-1.6-0.6c-0.5-0.5-0.7-1.1-0.6-1.7c0.6,0,1.2,0.2,1.7,0.7
		c0.3,0.3,0.5,0.7,0.6,1v0c0-0.2,0-0.3,0-0.5c0-0.6,0-1.2-0.1-1.8c0,0,0,0,0,0c-0.6,0.1-1.2,0-1.7-0.4c-0.5-0.4-0.9-1-0.9-1.6
		c0.6-0.1,1.2,0,1.8,0.3c0.3,0.2,0.6,0.6,0.8,0.9c0,0,0,0,0,0c-0.1-0.8-0.3-1.5-0.5-2.2c0,0,0,0,0,0c-0.5,0.2-1.1,0.2-1.7-0.1
		c-0.6-0.3-1-0.8-1.2-1.4c0.6-0.2,1.2-0.3,1.8,0c0.4,0.2,0.7,0.4,0.9,0.8c0,0,0,0,0,0c-0.2-0.7-0.5-1.4-0.9-2.1c0,0,0,0,0,0
		c-0.5,0.3-1.1,0.4-1.7,0.2c-0.6-0.2-1.1-0.6-1.4-1.2c0.5-0.3,1.2-0.5,1.8-0.3c0.3,0.1,0.7,0.3,0.9,0.5c-0.3-0.6-0.7-1.2-1.2-1.8
		c0,0,0,0,0,0c-0.4,0.4-1,0.5-1.6,0.5c-0.7-0.1-1.2-0.4-1.6-0.9c0.4-0.4,1.1-0.7,1.7-0.6c0.3,0,0.6,0.1,0.9,0.3
		c-0.4-0.5-0.9-1-1.4-1.5c0,0,0,0,0,0c-0.4,0.4-0.9,0.7-1.5,0.8c-0.7,0.1-1.3-0.2-1.7-0.6c0.4-0.5,0.9-0.8,1.6-0.9
		c0.3,0,0.6,0,0.9,0.1l0,0c-0.5-0.4-1-0.8-1.6-1.2c0,0,0,0,0,0c-0.3,0.5-0.7,0.8-1.3,1c-0.6,0.2-1.3,0-1.8-0.3
		c0.3-0.6,0.8-1,1.4-1.2c0.3-0.1,0.6-0.1,1,0c0,0,0,0,0,0c-0.6-0.4-1.2-0.7-1.8-1c0,0,0,0,0,0c-0.2,0.5-0.6,1-1.1,1.2
		c-0.6,0.3-1.3,0.3-1.8,0c0.2-0.6,0.6-1.1,1.2-1.4c0.3-0.2,0.7-0.2,1.1-0.2c0,0,0,0,0,0l0,0c-0.6-0.3-1.3-0.5-1.9-0.7c0,0,0,0,0,0
		c-0.5,0.2-1.1,0.2-1.6,0c-0.6-0.2-1.1-0.7-1.3-1.3c0.5-0.3,1.2-0.4,1.8-0.1c0.6,0.2,1,0.6,1.2,1.1c0,0,0,0,0,0
		c0.6,0.2,1.1,0.4,1.7,0.6h0c0,0,0,0,0,0c-0.2-0.2-0.4-0.4-0.5-0.7c-0.3-0.6-0.3-1.3,0-1.8c0.6,0.2,1.1,0.6,1.4,1.2
		c0.3,0.6,0.3,1.2,0.1,1.7c0,0,0,0,0,0c0.6,0.3,1.3,0.6,1.9,1c-0.2-0.2-0.4-0.5-0.5-0.9c-0.2-0.6,0-1.3,0.3-1.8
		c0.5,0.3,1,0.8,1.1,1.4c0.2,0.6,0.1,1.2-0.3,1.7c0.6,0.4,1.2,0.9,1.7,1.3c-0.2-0.3-0.3-0.6-0.3-1c-0.1-0.7,0.2-1.3,0.6-1.7
		c0.5,0.4,0.8,0.9,0.9,1.6c0.1,0.6-0.2,1.2-0.6,1.7c0,0,0,0,0,0c0.5,0.5,1,1,1.5,1.6c0,0,0,0,0,0c-0.1-0.3-0.2-0.7-0.2-1
		c0.1-0.7,0.4-1.2,0.9-1.6c0.4,0.4,0.7,1.1,0.6,1.7c-0.1,0.6-0.4,1.2-0.8,1.5c0,0,0,0,0,0c0.4,0.5,0.8,1.1,1.1,1.7v0c0,0,0,0,0,0
		c0-0.3,0-0.6,0-0.9c0.2-0.6,0.6-1.1,1.1-1.4c0.3,0.5,0.5,1.2,0.3,1.8c-0.2,0.6-0.6,1.1-1,1.4c0,0,0,0,0,0c0.3,0.6,0.6,1.2,0.8,1.9
		v0c0,0,0,0,0,0c0-0.3,0.1-0.6,0.2-0.9c0.3-0.6,0.8-1,1.4-1.2c0.2,0.6,0.3,1.2,0,1.8c-0.3,0.6-0.7,0.9-1.2,1.1c0,0,0,0,0,0
		c0.2,0.6,0.3,1.3,0.5,1.9c0,0,0,0,0,0c0.1-0.3,0.2-0.5,0.3-0.8c0.4-0.5,1-0.9,1.6-0.9c0.1,0.6,0,1.3-0.3,1.8
		c-0.3,0.5-0.9,0.8-1.4,0.9l0,0c0.1,0.6,0.1,1.2,0.1,1.8v0.2c0.1-0.2,0.3-0.5,0.5-0.7c0.5-0.5,1.1-0.7,1.7-0.7
		c0,0.6-0.2,1.2-0.6,1.7c-0.4,0.4-1,0.6-1.5,0.6c0,0,0,0,0,0c-0.1,0.7-0.1,1.3-0.3,2v0c0,0,0,0,0,0c0.2-0.2,0.3-0.5,0.6-0.6
		c0.5-0.4,1.2-0.5,1.8-0.3C91.9,105.7,91.5,106.2,91,106.6z"/>
</g>
</svg>
