<?xml version="1.0" encoding="utf-8"?>
<!-- Generator: Adobe Illustrator 19.0.0, SVG Export Plug-In . SVG Version: 6.00 Build 0)  -->
<svg version="1.1" id="Layer_1" xmlns="http://www.w3.org/2000/svg" xmlns:xlink="http://www.w3.org/1999/xlink" x="0px" y="0px"
	 viewBox="-417 141 512 512" style="enable-background:new -417 141 512 512;" xml:space="preserve">
<style type="text/css">
	.st0{fill-rule:evenodd;clip-rule:evenodd;fill:#BD2F32;}
	.st1{fill:#FFFFFF;}
</style>
<g id="XMLID_29_">
	<rect id="XMLID_28_" x="-417" y="141" class="st0" width="512" height="512"/>
	<g id="XMLID_30_">
		<rect id="XMLID_31_" x="-344.7" y="580.2" class="st1" width="367.3" height="2.1"/>
	</g>
</g>
<g>
	<path d="M-218.7,618.7c0-3.8-0.4-8-0.4-12.6l0,0c-1.1,3.8-2.3,8.4-3.4,11.8l-3.8,12.2h-5.3l-3.4-11.8c-1.1-3.8-1.9-8-2.7-12.2l0,0
		c0,4.2-0.4,8.8-0.4,12.6l-0.4,11.8h-6.5l1.9-30.9h9.1l3,10.3c1.1,3.4,1.9,7.2,2.7,11l0,0c0.8-3.4,1.9-7.6,3-11l3.4-10.3h9.1
		l1.5,30.9h-6.9L-218.7,618.7z"/>
	<path d="M-187.5,617.6h-11.4v7.2h12.6v5.7h-19.8v-30.9h19v5.7h-12.2v6.5h11.4v5.7H-187.5z"/>
	<path d="M-181.4,600.1c2.7-0.4,5.7-0.8,9.5-0.8c5.7,0,9.5,1.1,12.6,3.4c3,2.3,5.3,6.1,5.3,11.4c0,5.7-2.3,9.9-5,12.6
		c-3.4,2.7-8,3.8-14.1,3.8c-3.4,0-6.1-0.4-8-0.4v-30.1H-181.4z M-174.5,625.2c0.8,0,1.5,0,2.3,0c6.5,0,10.3-3.4,10.3-10.7
		c0-6.5-3.8-9.9-9.5-9.9c-1.5,0-2.7,0-3,0.4V625.2z"/>
	<path d="M-143.3,622.5l-2.3,8h-7.2l9.5-30.9h9.1l9.5,30.9h-7.6l-2.3-8H-143.3z M-135.3,617.6l-1.9-6.5c-0.4-1.9-1.1-4.2-1.5-6.1
		l0,0c-0.4,1.9-0.8,4.2-1.5,6.1l-1.9,6.5H-135.3z"/>
	<path d="M-120.4,599.7h6.9v24.8h12.2v5.7h-19C-120.4,630.2-120.4,599.7-120.4,599.7z"/>
	<path d="M-96.8,623.3c1.9,1.1,4.6,1.9,7.6,1.9c3,0,5-1.1,5-3.4c0-1.9-1.5-3-5.3-4.2c-5-1.9-8.4-4.6-8.4-9.1c0-5.3,4.6-9.1,11.8-9.1
		c3.4,0,6.1,0.8,8,1.5l-1.5,5.7c-1.1-0.8-3.4-1.5-6.5-1.5c-3,0-4.6,1.5-4.6,3c0,1.9,1.9,2.7,5.7,4.2c5.3,1.9,8,5,8,9.1
		c0,5.3-3.8,9.5-12.6,9.5c-3.4,0-6.9-1.1-8.8-1.9L-96.8,623.3z"/>
</g>
<g>
	<path class="st1" d="M-224.4,618.7c0-3.8-0.4-8-0.4-12.6l0,0c-1.1,3.8-2.3,8.4-3.4,11.8l-3.8,12.2h-5.3l-3.4-11.8
		c-1.1-3.8-1.9-8-2.7-12.2l0,0c0,4.2-0.4,8.8-0.4,12.6l-0.4,11.8h-6.5l1.9-30.9h9.1l3,10.3c1.1,3.4,1.9,7.2,2.7,11l0,0
		c0.8-3.4,1.9-7.6,3-11l3.4-10.3h9.1l1.5,30.9h-6.9L-224.4,618.7z"/>
	<path class="st1" d="M-193.1,617.6h-11.4v7.2h12.6v5.7h-19.8v-30.9h19v5.7H-205v6.5h11.4v5.7H-193.1z"/>
	<path class="st1" d="M-187.1,600.1c2.7-0.4,5.7-0.8,9.5-0.8c5.7,0,9.5,1.1,12.6,3.4c3,2.3,5.3,6.1,5.3,11.4c0,5.7-2.3,9.9-5,12.6
		c-3.4,2.7-8,3.8-14.1,3.8c-3.4,0-6.1-0.4-8-0.4v-30.1H-187.1z M-180.2,625.2c0.8,0,1.5,0,2.3,0c6.5,0,10.3-3.4,10.3-10.7
		c0-6.5-3.8-9.9-9.5-9.9c-1.5,0-2.7,0-3,0.4V625.2z"/>
	<path class="st1" d="M-149,622.5l-2.3,8h-7.2l9.5-30.9h9.1l9.5,30.9h-7.6l-2.3-8H-149z M-141,617.6l-1.9-6.5
		c-0.4-1.9-1.1-4.2-1.5-6.1l0,0c-0.4,1.9-0.8,4.2-1.5,6.1l-1.9,6.5H-141z"/>
	<path class="st1" d="M-126.1,599.7h6.9v24.8h12.2v5.7h-19C-126.1,630.2-126.1,599.7-126.1,599.7z"/>
	<path class="st1" d="M-102.5,623.3c1.9,1.1,4.6,1.9,7.6,1.9s5-1.1,5-3.4c0-1.9-1.5-3-5.3-4.2c-5-1.9-8.4-4.6-8.4-9.1
		c0-5.3,4.6-9.1,11.8-9.1c3.4,0,6.1,0.8,8,1.5l-1.5,5.7c-1.1-0.8-3.4-1.5-6.5-1.5c-3,0-4.6,1.5-4.6,3c0,1.9,1.9,2.7,5.7,4.2
		c5.3,1.9,8,5,8,9.1c0,5.3-3.8,9.5-12.6,9.5c-3.4,0-6.9-1.1-8.8-1.9L-102.5,623.3z"/>
</g>
<g id="XMLID_242_">
	<polygon id="XMLID_921_" class="st1" points="-53.7,281.6 -53.7,281.6 -51.8,285.1 	"/>
	<polygon id="XMLID_922_" class="st1" points="-49.9,288.6 -51.8,285.1 -49.9,288.6 	"/>
	<path id="XMLID_920_" class="st1" d="M-34.8,265.9l-2-3.7l-11.9-22.1l-1.1-2.1l1.1,2.1l1.9,3.5l-107.7,164l-6.4-4.2l-6.4,4.2
		l-107.7-164l1.9-3.5l3-5.7l1.9-3.5L-161,394l107.3-163.1v0l-13-24.1l-1.7-3.2l0-0.1h-185l-32.6,60.4l-1,1.9l0,0l0,0l0,0h0
		l102.9,156.8l23.3-15.3l0,0l0,0l23.3,15.3L-34.8,265.9L-34.8,265.9L-34.8,265.9L-34.8,265.9L-34.8,265.9z M-161,344.7L-161,344.7
		L-161,344.7l-51.7-78.8h103.3L-161,344.7z M-83.9,224.6l-8.6,12.7h-137.1l-8.5-12.7H-83.9z"/>
	<path id="XMLID_915_" class="st1" d="M-161,402.4c-42.7,0-77.4,34.6-77.4,77.4s34.6,77.4,77.4,77.4c42.7,0,77.4-34.6,77.4-77.4
		S-118.3,402.4-161,402.4z M-150.1,448v50.5h8.3v11.9h-35.7v-11.9h8.9v-33.1l-8.9,4.2l-4.1-9.9c5.1-2.5,9.1-3.9,15.6-11.7H-150.1z
		 M-100.2,491.3c-1.6,1.1-3.5,1.5-5.3,1.2c0,0,0,0,0,0c-0.5,2.1-1.2,4.3-2,6.3c0.6-0.7,1.4-1.3,2.3-1.8c1.9-0.9,4-0.9,5.8-0.1
		c-0.6,1.9-1.9,3.5-3.8,4.4c-1.8,0.8-3.8,0.8-5.5,0.2c0,0,0,0,0,0c-0.9,2.1-2,4.1-3.2,6c0,0,0,0,0,0c0,0,0,0,0,0.1
		c0.8-0.7,1.8-1.3,2.9-1.6c2-0.6,4.1-0.1,5.7,0.9c-0.9,1.8-2.5,3.2-4.5,3.7c-2,0.5-3.9,0.2-5.5-0.8c0,0,0,0,0,0
		c-1.3,1.9-2.7,3.8-4.3,5.5c0,0,0,0-0.1,0.1c0.9-0.6,2-1,3.2-1.1c2.1-0.2,4.1,0.6,5.5,1.9c-1.2,1.6-3,2.7-5.1,2.9
		c-2,0.2-3.9-0.5-5.3-1.8c0,0,0,0,0,0c-1.6,1.7-3.2,3.2-5,4.7c0,0,0,0-0.1,0c1-0.4,2.1-0.6,3.2-0.5c2.1,0.2,3.9,1.3,5.1,2.9
		c-1.4,1.4-3.4,2.1-5.5,1.9c-2-0.2-3.8-1.2-4.9-2.7c-1,0.8-1.9,1.5-3,2.1c-0.8,0.6-1.7,1.1-2.6,1.6c0,0,0,0-0.1,0
		c1-0.2,2-0.2,3.1,0.1c2,0.6,3.6,1.9,4.5,3.7c-1.6,1.1-3.7,1.5-5.7,0.9c-1.9-0.5-3.4-1.8-4.3-3.4c0,0,0,0,0,0
		c-1.9,1-3.8,1.9-5.8,2.6h0c0,0,0,0,0,0c0.9,0,1.8,0.2,2.6,0.6c1.9,0.9,3.2,2.6,3.8,4.4c-1.8,0.8-3.9,0.8-5.8-0.1
		c-1.7-0.8-3-2.3-3.6-3.9c0,0,0,0,0,0h0c-4.2,1.5-10.3,3.5-16.6,7.3c2.4,1.5,4.8,3.3,7.2,5.4l-0.6,0.6c-2.4-2.1-4.9-4-7.4-5.5
		c-2.5,1.5-5,3.3-7.4,5.5l-0.6-0.6c2.4-2.1,4.8-3.9,7.2-5.4c-6.4-3.8-12.4-5.9-16.7-7.3c0,0,0,0-0.1,0c-0.6,1.7-1.9,3.1-3.6,3.9
		c-1.9,0.9-4,0.9-5.8,0.1c0.6-1.9,1.9-3.5,3.8-4.4c0.9-0.4,1.8-0.6,2.7-0.6c0,0-0.1,0-0.1,0c-2-0.7-4-1.6-5.8-2.6c0,0,0,0,0,0
		c-0.9,1.6-2.4,2.9-4.3,3.4c-2,0.6-4.1,0.1-5.7-0.9c0.9-1.8,2.5-3.2,4.5-3.7c1.1-0.3,2.1-0.3,3.1-0.1c0,0,0,0-0.1,0
		c-0.9-0.5-1.8-1.1-2.7-1.7c-1-0.6-2-1.3-2.9-2c-1.2,1.5-2.9,2.5-4.9,2.7c-2.1,0.2-4.1-0.6-5.5-1.9c1.2-1.6,3-2.7,5.1-2.9
		c1.2-0.1,2.3,0.1,3.3,0.5c0,0,0,0-0.1-0.1c0,0,0,0,0,0c-1.8-1.5-3.5-3-5-4.7c0,0,0,0,0,0c-1.4,1.3-3.3,2-5.3,1.8
		c-2.1-0.2-3.9-1.3-5.1-2.9c1.4-1.4,3.4-2.1,5.5-1.9c1.2,0.1,2.3,0.5,3.2,1.1c-1.5-1.8-3-3.7-4.3-5.6c0,0,0,0,0,0
		c-1.6,1-3.6,1.4-5.5,0.8c-2-0.6-3.6-1.9-4.5-3.7c1.6-1.1,3.7-1.5,5.7-0.9c1.1,0.3,2.1,0.9,2.9,1.6c0,0,0,0,0,0
		c-1.2-2-2.3-4-3.2-6.1c0,0,0,0,0,0c-1.7,0.6-3.7,0.7-5.5-0.2c-1.9-0.9-3.2-2.6-3.8-4.4c1.8-0.8,3.9-0.8,5.8,0.1
		c0.9,0.4,1.7,1,2.3,1.8c-0.8-2-1.5-4.1-2-6.3c0,0,0,0,0,0c-1.8,0.3-3.7,0-5.3-1.2c-1.7-1.2-2.8-3.1-3-5c1.9-0.5,4-0.1,5.7,1.1
		c0.8,0.5,1.4,1.2,1.9,2c0,0,0,0,0,0c-0.4-2.1-0.7-4.2-0.8-6.3c0,0,0,0,0,0c-1.8,0-3.6-0.7-4.9-2.1c-1.5-1.5-2.2-3.5-2.1-5.5
		c2-0.1,3.9,0.6,5.4,2.1c0.6,0.6,1.1,1.4,1.4,2.2c0,0,0,0,0,0v-0.5c0-2,0.1-3.9,0.3-5.9c0,0,0,0,0,0c-1.7-0.3-3.4-1.3-4.5-2.9
		c-1.2-1.7-1.5-3.8-1.1-5.8c1.9,0.2,3.8,1.3,5,3c0.5,0.7,0.8,1.5,1,2.4c0,0,0,0,0,0c0.4-2.1,0.9-4.2,1.4-6.2c0,0,0,0,0,0
		c-1.7-0.6-3.1-1.9-4-3.7c-0.9-1.9-0.9-4.1-0.1-5.9c1.9,0.6,3.5,1.9,4.4,3.8c0.4,0.9,0.6,1.8,0.6,2.6c0,0,0,0,0,0
		c0.7-2,1.6-4,2.5-5.9c0,0,0,0,0,0c-1.6-0.9-2.8-2.4-3.3-4.3c-0.5-2.1-0.1-4.1,0.9-5.8c1.7,0.9,3.1,2.5,3.7,4.6c0.3,1,0.3,2,0.2,2.9
		c0,0,0,0,0,0c1.1-1.9,2.3-3.7,3.6-5.5c0,0,0,0,0,0c-1.4-1.2-2.4-2.9-2.6-4.9c-0.2-2.1,0.6-4.1,1.9-5.6c1.6,1.2,2.7,3,2.8,5.1
		c0.1,1.1-0.1,2.2-0.4,3.2c1.4-1.8,3-3.5,4.6-5v0c-1.2-1.4-1.9-3.3-1.7-5.3c0.2-2.1,1.3-4,2.8-5.1c1.3,1.4,2.1,3.4,1.9,5.6
		c-0.1,1.1-0.5,2.2-1,3.1c1.7-1.5,3.5-2.9,5.4-4.2c0,0,0,0,0,0c-1-1.6-1.3-3.6-0.8-5.6c0.5-2.1,1.9-3.7,3.7-4.6
		c1.1,1.7,1.5,3.7,0.9,5.8c-0.3,1.1-0.8,2-1.4,2.8c0,0,0,0,0,0c0,0,0,0,0,0c1.9-1.2,3.9-2.2,5.9-3.1c0,0,0,0,0,0
		c-0.6-1.7-0.6-3.7,0.2-5.5c0.9-1.9,2.5-3.3,4.4-3.8c0.8,1.8,0.8,3.9-0.1,5.9c-0.4,0.9-1,1.6-1.6,2.2c0,0,0,0,0,0
		c1.8-0.7,3.6-1.3,5.4-1.9c0,0,0,0,0,0c0.8-1.6,2.1-3,3.9-3.6c2-0.7,4.1-0.5,5.8,0.4c-0.7,1.8-2.2,3.4-4.2,4.1
		c-1.7,0.6-3.5,0.5-5.1-0.1c0,0,0,0,0,0c-2.1,0.6-4.2,1.3-6.2,2.1c0,0-0.1,0-0.1,0.1c1.2-0.1,2.3,0.1,3.5,0.6
		c1.9,0.9,3.2,2.6,3.8,4.4c-1.8,0.8-3.9,0.8-5.8-0.1c-1.8-0.8-3-2.3-3.6-4c0,0,0,0,0,0c-2,0.9-3.9,1.9-5.7,3.1c0,0,0,0,0,0
		c1-0.2,2-0.1,3,0.1c2,0.6,3.6,1.9,4.5,3.7c-1.6,1.1-3.7,1.5-5.7,0.9c-1.8-0.5-3.3-1.7-4.2-3.2c0,0,0,0,0,0c-1.8,1.2-3.5,2.5-5,3.9
		c0.9-0.3,1.9-0.4,2.9-0.4c2.1,0.2,3.9,1.3,5.1,2.9c-1.4,1.4-3.4,2.1-5.5,1.9c-1.9-0.2-3.5-1.1-4.7-2.4c0,0,0,0,0,0
		c-1.6,1.5-3,3.1-4.4,4.8c0.9-0.5,1.8-0.8,2.9-0.9c2.1-0.2,4.1,0.6,5.5,1.9c-1.2,1.6-3,2.7-5.1,2.9c-1.9,0.2-3.7-0.5-5.1-1.6
		c0,0,0,0,0,0c-1.3,1.8-2.6,3.7-3.7,5.7c0,0,0,0,0,0c0.8-0.7,1.8-1.3,2.9-1.6c2-0.6,4.1-0.1,5.7,0.9c-0.9,1.8-2.5,3.2-4.5,3.7
		c-1.9,0.5-3.8,0.2-5.3-0.7c0,0,0,0,0,0c-1.1,2.1-2,4.3-2.8,6.6c0,0,0,0,0,0.1c0.7-1,1.6-1.8,2.8-2.4c1.9-0.9,4-0.9,5.8-0.1
		c-0.6,1.9-1.9,3.5-3.8,4.4c-1.8,0.8-3.7,0.8-5.5,0.2c0,0,0,0,0,0c-0.7,2.3-1.2,4.7-1.6,7.1c0,0,0,0.1,0,0.1
		c0.5-1.1,1.3-2.2,2.4-2.9c1.7-1.2,3.8-1.6,5.7-1.1c-0.2,2-1.3,3.8-3,5c-1.6,1.2-3.6,1.5-5.4,1.2l0,0c-0.2,1.9-0.3,3.8-0.3,5.7
		c0,0.5,0,1.1,0,1.6c0,0,0,0,0,0c0.3-1.2,0.9-2.3,1.8-3.3c1.5-1.5,3.5-2.2,5.4-2.1c0.1,2-0.6,4-2.1,5.5c-1.4,1.4-3.3,2.1-5.1,2.1
		c0,0,0,0,0,0c0.2,2.3,0.5,4.7,1,6.9c0,0,0,0,0,0c0.1-1.1,0.5-2.3,1.2-3.3c1.2-1.7,3.1-2.8,5-3c0.4,1.9,0.1,4-1.1,5.8
		c-1.1,1.6-2.8,2.6-4.6,2.9c0,0,0,0,0,0c0.5,2.1,1.2,4.3,2,6.3c0,0,0,0,0,0.1c0-1.1,0.2-2.1,0.7-3.2c0.9-1.9,2.5-3.3,4.4-3.8
		c0.8,1.8,0.8,3.9-0.1,5.9c-0.8,1.8-2.3,3-3.9,3.6c0,0,0,0,0,0c0.9,2,1.9,3.9,3,5.8c0,0,0,0,0,0c-0.2-1-0.1-2,0.1-3
		c0.5-2.1,1.9-3.7,3.7-4.6c1.1,1.7,1.5,3.7,0.9,5.8c-0.5,1.9-1.7,3.3-3.2,4.2c0,0,0,0,0,0c1.2,1.8,2.5,3.5,3.9,5.1c0,0,0,0,0,0
		c-0.3-0.9-0.4-1.9-0.4-2.9c0.2-2.1,1.3-4,2.8-5.1c1.3,1.4,2.1,3.4,1.9,5.6c-0.2,1.9-1.1,3.5-2.4,4.7c0,0,0,0,0,0
		c1.5,1.6,3,3,4.7,4.4c0,0,0,0,0,0c-0.5-0.8-0.8-1.8-0.9-2.8c-0.2-2.1,0.6-4.1,1.9-5.6c1.6,1.2,2.7,3,2.8,5.1
		c0.2,1.9-0.5,3.7-1.6,5.1l0,0c0.8,0.6,1.6,1.1,2.4,1.7c1,0.7,2.1,1.3,3.2,2c0,0,0,0,0,0c-0.7-0.8-1.2-1.7-1.5-2.8
		c-0.5-2.1-0.1-4.1,0.9-5.8c1.7,0.9,3.1,2.5,3.7,4.6c0.5,1.9,0.2,3.8-0.7,5.4c0,0,0,0,0,0c2.1,1.1,4.3,2,6.6,2.8c0,0,0.1,0,0.1,0
		c-1-0.7-1.9-1.6-2.4-2.8c-0.9-1.9-0.9-4.1-0.1-5.9c1.9,0.6,3.5,1.9,4.4,3.8c0.8,1.8,0.8,3.8,0.2,5.6c0,0,0,0,0,0h0
		c4.4,1.5,10.6,3.6,17.2,7.6c6.6-4,12.8-6.1,17.2-7.6c0,0,0,0,0,0c-0.7-1.8-0.7-3.8,0.2-5.6c0.9-1.9,2.5-3.3,4.4-3.8
		c0.8,1.8,0.8,3.9-0.1,5.9c-0.5,1.2-1.4,2.1-2.4,2.8c0,0,0.1,0,0.1,0c2.3-0.8,4.4-1.8,6.5-2.8c0,0,0,0,0,0c-0.9-1.6-1.2-3.5-0.7-5.4
		c0.5-2.1,1.9-3.7,3.7-4.6c1.1,1.7,1.5,3.7,0.9,5.8c-0.3,1-0.8,1.9-1.4,2.7c1-0.6,2.1-1.2,3-1.9c0.8-0.5,1.6-1.1,2.4-1.7
		c0,0,0,0,0,0c-1.1-1.4-1.7-3.2-1.5-5.1c0.2-2.1,1.3-4,2.8-5.1c1.3,1.4,2.1,3.4,1.9,5.6c-0.1,1-0.4,2-0.8,2.8c0,0,0,0,0,0
		c1.6-1.4,3.2-2.8,4.7-4.4c0,0,0,0,0,0c-1.3-1.2-2.2-2.8-2.4-4.7c-0.2-2.1,0.6-4.1,1.9-5.6c1.6,1.2,2.7,3,2.8,5.1c0.1,1,0,2-0.3,2.9
		c0,0,0,0,0,0l0,0c1.4-1.6,2.7-3.3,3.8-5c0,0,0,0,0,0c-1.5-0.9-2.7-2.4-3.2-4.2c-0.5-2.1-0.1-4.1,0.9-5.8c1.7,0.9,3.1,2.5,3.7,4.6
		c0.3,1,0.3,2,0.1,3c0,0,0,0,0-0.1c1.1-1.8,2.1-3.7,3-5.7c0,0,0,0,0,0c-1.7-0.6-3.1-1.9-3.9-3.6c-0.9-1.9-0.9-4.1-0.1-5.9
		c1.9,0.6,3.5,1.9,4.4,3.8c0.5,1.1,0.7,2.2,0.6,3.3c0,0,0,0,0,0v0c0.8-2.1,1.5-4.2,2.1-6.4c0,0,0,0,0,0c-1.8-0.3-3.5-1.3-4.6-2.9
		c-1.2-1.7-1.5-3.8-1.1-5.8c1.9,0.2,3.8,1.3,5,3c0.7,1,1.1,2.2,1.2,3.3c0,0,0-0.1,0-0.1c0,0,0,0,0-0.1c0.5-2.2,0.8-4.5,1-6.8
		c0,0,0,0,0,0c-1.8,0-3.7-0.7-5.1-2.1c-1.5-1.5-2.2-3.5-2.1-5.5c2-0.1,3.9,0.6,5.4,2.1c0.9,1,1.5,2.1,1.8,3.3v0c0-0.6,0-1.1,0-1.7
		c0-1.9-0.1-3.8-0.3-5.7c0,0,0,0,0,0c-1.8,0.3-3.8,0-5.4-1.1c-1.7-1.2-2.8-3.1-3-5c1.9-0.5,4-0.1,5.7,1.1c1.1,0.8,1.9,1.9,2.4,3
		c0,0,0-0.1,0-0.1c-0.4-2.4-0.9-4.8-1.6-7.2c0,0,0,0,0,0c-1.7,0.6-3.7,0.6-5.5-0.2c-1.9-0.9-3.2-2.6-3.8-4.4
		c1.8-0.8,3.9-0.8,5.8,0.1c1.2,0.6,2.1,1.4,2.8,2.4c0,0,0-0.1,0-0.1c-0.8-2.3-1.7-4.5-2.8-6.6c0,0,0,0,0,0c-1.6,0.9-3.5,1.2-5.3,0.7
		c-2-0.6-3.6-1.9-4.5-3.7c1.6-1.1,3.7-1.5,5.7-0.9c1.1,0.3,2.1,0.9,2.9,1.6c-1.1-2-2.3-3.9-3.7-5.7c0,0,0,0,0,0
		c-1.4,1.1-3.2,1.8-5.1,1.6c-2.1-0.2-3.9-1.3-5.1-2.9c1.4-1.4,3.4-2.1,5.5-1.9c1.1,0.1,2,0.4,2.9,0.9c-1.4-1.7-2.8-3.3-4.4-4.8
		c0,0,0,0,0,0c-1.2,1.3-2.8,2.3-4.7,2.4c-2.1,0.2-4.1-0.6-5.5-1.9c1.2-1.6,3-2.7,5.1-2.9c1-0.1,2,0.1,2.9,0.4l0,0
		c-1.6-1.4-3.3-2.7-5-3.9c0,0,0,0,0,0c-0.9,1.5-2.4,2.7-4.2,3.2c-2,0.6-4.1,0.1-5.7-0.9c0.9-1.8,2.5-3.2,4.5-3.7
		c1-0.3,2.1-0.3,3.1-0.1c0,0,0,0,0,0c-1.8-1.2-3.7-2.2-5.7-3.1c0,0,0,0,0,0c-0.6,1.7-1.9,3.2-3.6,4c-1.9,0.9-4,0.9-5.8,0.1
		c0.6-1.9,1.9-3.5,3.8-4.4c1.1-0.5,2.3-0.7,3.4-0.6c0,0,0,0-0.1,0l0,0c-2-0.8-4.1-1.6-6.2-2.1c0,0,0,0,0,0c-1.6,0.7-3.4,0.8-5.1,0.1
		c-2-0.7-3.5-2.3-4.2-4.1c1.7-0.9,3.8-1.2,5.8-0.4c1.8,0.7,3.2,2,4,3.7c0,0,0,0,0,0c1.9,0.5,3.7,1.1,5.4,1.9h0c0,0,0,0,0,0
		c-0.7-0.6-1.2-1.4-1.7-2.2c-0.9-1.9-0.9-4.1-0.1-5.9c1.9,0.6,3.5,1.9,4.4,3.8c0.8,1.8,0.8,3.8,0.2,5.5c0,0,0,0,0,0
		c2.1,1,4.1,2,6,3.2c-0.7-0.8-1.2-1.7-1.5-2.8c-0.5-2.1-0.1-4.1,0.9-5.8c1.7,0.9,3.1,2.5,3.7,4.6c0.5,2,0.2,3.9-0.8,5.6
		c1.9,1.4,3.8,2.7,5.5,4.3c-0.6-0.9-1-2-1.1-3.2c-0.2-2.1,0.6-4.1,1.9-5.6c1.6,1.2,2.7,3,2.8,5.1c0.2,2-0.5,3.9-1.8,5.4c0,0,0,0,0,0
		c1.7,1.6,3.2,3.3,4.7,5.1c0,0,0,0,0,0c-0.4-1-0.6-2.1-0.5-3.3c0.2-2.1,1.3-4,2.8-5.1c1.3,1.4,2.1,3.4,1.9,5.6
		c-0.2,2-1.2,3.8-2.6,4.9c0,0,0,0,0,0c1.3,1.8,2.5,3.6,3.6,5.5v0c0,0,0,0,0,0.1c-0.2-1-0.1-2,0.1-3c0.5-2.1,1.9-3.7,3.7-4.6
		c1.1,1.7,1.5,3.7,0.9,5.8c-0.5,1.9-1.8,3.4-3.4,4.3c0,0,0,0,0,0c1,1.9,1.8,3.9,2.5,6v0c0,0,0,0,0,0.1c0-0.9,0.2-1.9,0.6-2.8
		c0.9-1.9,2.5-3.3,4.4-3.8c0.8,1.8,0.8,3.9-0.1,5.9c-0.8,1.8-2.3,3-4,3.7c0,0,0,0,0,0c0.6,2,1.1,4.1,1.4,6.2c0,0,0,0,0,0
		c0.2-0.8,0.5-1.7,1.1-2.4c1.2-1.7,3.1-2.8,5-3c0.4,1.9,0.1,4-1.1,5.8c-1.1,1.6-2.7,2.6-4.5,2.9l0,0c0.2,2,0.3,3.9,0.3,5.9v0.5
		c0.3-0.8,0.8-1.5,1.4-2.2c1.5-1.5,3.5-2.2,5.4-2.1c0.1,2-0.6,4-2.1,5.5c-1.4,1.4-3.2,2-4.9,2.1c0,0,0,0,0,0
		c-0.2,2.1-0.4,4.3-0.9,6.4v0c0,0,0,0,0,0c0.5-0.8,1.1-1.5,1.9-2c1.7-1.2,3.8-1.6,5.7-1.1C-97.4,488.2-98.4,490-100.2,491.3z"/>
</g>
</svg>
