<?xml version="1.0" encoding="utf-8"?>
<!-- Generator: Adobe Illustrator 19.0.0, SVG Export Plug-In . SVG Version: 6.00 Build 0)  -->
<svg version="1.1" id="Layer_1" xmlns="http://www.w3.org/2000/svg" xmlns:xlink="http://www.w3.org/1999/xlink" x="0px" y="0px"
	 viewBox="-71 145 144 144" style="enable-background:new -71 145 144 144;" xml:space="preserve">
<g>
	<path d="M-14.1,279.4c0-1-0.1-2.1-0.1-3.3h0c-0.3,1-0.6,2.2-0.9,3.1l-1,3.2h-1.4l-0.9-3.1c-0.3-1-0.5-2.1-0.7-3.2h0
		c0,1.1-0.1,2.3-0.1,3.3l-0.1,3.1h-1.7l0.5-8.1h2.4l0.8,2.7c0.3,0.9,0.5,1.9,0.7,2.9h0c0.2-0.9,0.5-2,0.8-2.9l0.9-2.7h2.4l0.4,8.1
		h-1.8L-14.1,279.4z"/>
	<path d="M-5.9,279.1h-3v1.9h3.3v1.5h-5.2v-8.1h5v1.5h-3.2v1.7h3V279.1z"/>
	<path d="M-4.3,274.5c0.7-0.1,1.5-0.2,2.5-0.2c1.5,0,2.5,0.3,3.3,0.9c0.8,0.6,1.4,1.6,1.4,3c0,1.5-0.6,2.6-1.3,3.3
		c-0.9,0.7-2.1,1-3.7,1c-0.9,0-1.6-0.1-2.1-0.1V274.5z M-2.5,281.1c0.2,0,0.4,0,0.6,0c1.7,0,2.7-0.9,2.7-2.8c0-1.7-1-2.6-2.5-2.6
		c-0.4,0-0.7,0-0.8,0.1V281.1z"/>
	<path d="M5.7,280.4l-0.6,2.1H3.2l2.5-8.1h2.4l2.5,8.1h-2L8,280.4H5.7z M7.8,279.1l-0.5-1.7c-0.1-0.5-0.3-1.1-0.4-1.6h0
		c-0.1,0.5-0.2,1.1-0.4,1.6L6,279.1H7.8z"/>
	<path d="M11.7,274.4h1.8v6.5h3.2v1.5h-5V274.4z"/>
	<path d="M17.9,280.6c0.5,0.3,1.2,0.5,2,0.5c0.8,0,1.3-0.3,1.3-0.9c0-0.5-0.4-0.8-1.4-1.1c-1.3-0.5-2.2-1.2-2.2-2.4
		c0-1.4,1.2-2.4,3.1-2.4c0.9,0,1.6,0.2,2.1,0.4l-0.4,1.5c-0.3-0.2-0.9-0.4-1.7-0.4c-0.8,0-1.2,0.4-1.2,0.8c0,0.5,0.5,0.7,1.5,1.1
		c1.4,0.5,2.1,1.3,2.1,2.4c0,1.4-1,2.5-3.3,2.5c-0.9,0-1.8-0.3-2.3-0.5L17.9,280.6z"/>
</g>
<g>
	<polygon id="XMLID_4_" points="34.5,178.2 34.5,178.2 35.1,179.3 	"/>
	<polygon id="XMLID_3_" points="35.7,180.4 35.1,179.3 35.7,180.4 	"/>
	<path id="XMLID_2_" d="M40.4,173.3l-0.6-1.2l-3.7-6.9l-0.4-0.7l0.4,0.7l0.6,1.1L3,217.6l-2-1.3l-2,1.3l-33.6-51.2l0.6-1.1l1-1.8
		l0.6-1.1L1,213.3l33.5-50.9v0l-4.1-7.5l-0.5-1l0,0h-57.8l-10.2,18.9l-0.3,0.6l0,0l0,0l0,0h0l32.1,49l7.3-4.8l0,0l0,0l7.3,4.8
		L40.4,173.3L40.4,173.3L40.4,173.3L40.4,173.3L40.4,173.3z M1,197.9L1,197.9L1,197.9l-16.1-24.6h32.3L1,197.9z M25.1,160.4l-2.7,4
		h-42.8l-2.7-4H25.1z"/>
	<path id="XMLID_1_" d="M1,216c-13.3,0-24.2,10.8-24.2,24.2s10.8,24.2,24.2,24.2c13.3,0,24.2-10.8,24.2-24.2S14.3,216,1,216z
		 M4.4,230.2V246H7v3.7H-4.1V246h2.8v-10.3l-2.8,1.3l-1.3-3.1c1.6-0.8,2.8-1.2,4.9-3.6H4.4z M20,243.7c-0.5,0.4-1.1,0.5-1.7,0.4
		c0,0,0,0,0,0c-0.2,0.7-0.4,1.3-0.6,2c0.2-0.2,0.4-0.4,0.7-0.6c0.6-0.3,1.3-0.3,1.8,0c-0.2,0.6-0.6,1.1-1.2,1.4
		c-0.6,0.3-1.2,0.3-1.7,0.1c0,0,0,0,0,0c-0.3,0.7-0.6,1.3-1,1.9c0,0,0,0,0,0c0,0,0,0,0,0c0.3-0.2,0.6-0.4,0.9-0.5
		c0.6-0.2,1.3,0,1.8,0.3c-0.3,0.6-0.8,1-1.4,1.2c-0.6,0.2-1.2,0.1-1.7-0.3c0,0,0,0,0,0c-0.4,0.6-0.8,1.2-1.3,1.7c0,0,0,0,0,0
		c0.3-0.2,0.6-0.3,1-0.4c0.7-0.1,1.3,0.2,1.7,0.6c-0.4,0.5-0.9,0.8-1.6,0.9c-0.6,0.1-1.2-0.2-1.7-0.6c0,0,0,0,0,0
		c-0.5,0.5-1,1-1.6,1.5c0,0,0,0,0,0c0.3-0.1,0.7-0.2,1-0.2c0.7,0.1,1.2,0.4,1.6,0.9c-0.4,0.4-1.1,0.7-1.7,0.6
		c-0.6-0.1-1.2-0.4-1.5-0.8c-0.3,0.2-0.6,0.5-0.9,0.7c-0.3,0.2-0.5,0.3-0.8,0.5c0,0,0,0,0,0c0.3-0.1,0.6,0,1,0
		c0.6,0.2,1.1,0.6,1.4,1.2c-0.5,0.3-1.2,0.5-1.8,0.3c-0.6-0.2-1.1-0.6-1.4-1.1c0,0,0,0,0,0c-0.6,0.3-1.2,0.6-1.8,0.8h0c0,0,0,0,0,0
		c0.3,0,0.6,0.1,0.8,0.2c0.6,0.3,1,0.8,1.2,1.4c-0.6,0.2-1.2,0.3-1.8,0c-0.5-0.3-0.9-0.7-1.1-1.2c0,0,0,0,0,0h0
		c-1.3,0.5-3.2,1.1-5.2,2.3c0.7,0.5,1.5,1,2.2,1.7l-0.2,0.2c-0.8-0.7-1.5-1.2-2.3-1.7c-0.8,0.5-1.6,1-2.3,1.7l-0.2-0.2
		c0.7-0.7,1.5-1.2,2.3-1.7c-2-1.2-3.9-1.8-5.2-2.3c0,0,0,0,0,0c-0.2,0.5-0.6,1-1.1,1.2c-0.6,0.3-1.3,0.3-1.8,0
		c0.2-0.6,0.6-1.1,1.2-1.4c0.3-0.1,0.6-0.2,0.8-0.2c0,0,0,0,0,0c-0.6-0.2-1.2-0.5-1.8-0.8c0,0,0,0,0,0c-0.3,0.5-0.8,0.9-1.4,1.1
		c-0.6,0.2-1.3,0-1.8-0.3c0.3-0.6,0.8-1,1.4-1.2c0.3-0.1,0.7-0.1,1,0c0,0,0,0,0,0c-0.3-0.2-0.6-0.3-0.8-0.5
		c-0.3-0.2-0.6-0.4-0.9-0.6c-0.4,0.5-0.9,0.8-1.5,0.8c-0.7,0.1-1.3-0.2-1.7-0.6c0.4-0.5,0.9-0.8,1.6-0.9c0.4,0,0.7,0,1,0.2
		c0,0,0,0,0,0c0,0,0,0,0,0c-0.6-0.5-1.1-0.9-1.6-1.5c0,0,0,0,0,0c-0.4,0.4-1,0.6-1.7,0.6c-0.7-0.1-1.2-0.4-1.6-0.9
		c0.4-0.4,1.1-0.7,1.7-0.6c0.4,0,0.7,0.2,1,0.3c-0.5-0.6-0.9-1.1-1.3-1.7c0,0,0,0,0,0c-0.5,0.3-1.1,0.4-1.7,0.3
		c-0.6-0.2-1.1-0.6-1.4-1.2c0.5-0.3,1.2-0.5,1.8-0.3c0.3,0.1,0.6,0.3,0.9,0.5c0,0,0,0,0,0c-0.4-0.6-0.7-1.2-1-1.9c0,0,0,0,0,0
		c-0.5,0.2-1.1,0.2-1.7-0.1c-0.6-0.3-1-0.8-1.2-1.4c0.6-0.2,1.2-0.3,1.8,0c0.3,0.1,0.5,0.3,0.7,0.5c-0.2-0.6-0.5-1.3-0.6-2
		c0,0,0,0,0,0c-0.6,0.1-1.2,0-1.7-0.4c-0.5-0.4-0.9-1-0.9-1.6c0.6-0.1,1.2,0,1.8,0.3c0.2,0.2,0.4,0.4,0.6,0.6c0,0,0,0,0,0
		c-0.1-0.7-0.2-1.3-0.3-2c0,0,0,0,0,0c-0.6,0-1.1-0.2-1.5-0.6c-0.5-0.5-0.7-1.1-0.6-1.7c0.6,0,1.2,0.2,1.7,0.7
		c0.2,0.2,0.3,0.4,0.4,0.7c0,0,0,0,0,0v-0.2c0-0.6,0-1.2,0.1-1.8c0,0,0,0,0,0c-0.5-0.1-1.1-0.4-1.4-0.9c-0.4-0.5-0.5-1.2-0.3-1.8
		c0.6,0.1,1.2,0.4,1.6,0.9c0.2,0.2,0.3,0.5,0.3,0.7c0,0,0,0,0,0c0.1-0.7,0.3-1.3,0.5-1.9c0,0,0,0,0,0c-0.5-0.2-1-0.6-1.2-1.1
		c-0.3-0.6-0.3-1.3,0-1.8c0.6,0.2,1.1,0.6,1.4,1.2c0.1,0.3,0.2,0.5,0.2,0.8c0,0,0,0,0,0c0.2-0.6,0.5-1.2,0.8-1.8c0,0,0,0,0,0
		c-0.5-0.3-0.9-0.8-1-1.4c-0.2-0.6,0-1.3,0.3-1.8c0.5,0.3,1,0.8,1.1,1.4c0.1,0.3,0.1,0.6,0,0.9c0,0,0,0,0,0c0.3-0.6,0.7-1.2,1.1-1.7
		c0,0,0,0,0,0c-0.5-0.4-0.8-0.9-0.8-1.5c-0.1-0.7,0.2-1.3,0.6-1.7c0.5,0.4,0.8,0.9,0.9,1.6c0,0.3,0,0.7-0.1,1
		c0.4-0.6,0.9-1.1,1.4-1.6v0c-0.4-0.4-0.6-1-0.5-1.7c0.1-0.7,0.4-1.2,0.9-1.6c0.4,0.4,0.7,1.1,0.6,1.7c0,0.4-0.1,0.7-0.3,1
		c0.5-0.5,1.1-0.9,1.7-1.3c0,0,0,0,0,0c-0.3-0.5-0.4-1.1-0.2-1.7c0.2-0.6,0.6-1.1,1.1-1.4c0.3,0.5,0.5,1.2,0.3,1.8
		c-0.1,0.3-0.2,0.6-0.5,0.9c0,0,0,0,0,0c0,0,0,0,0,0c0.6-0.4,1.2-0.7,1.8-1c0,0,0,0,0,0c-0.2-0.5-0.2-1.2,0.1-1.7
		c0.3-0.6,0.8-1,1.4-1.2c0.2,0.6,0.3,1.2,0,1.8c-0.1,0.3-0.3,0.5-0.5,0.7c0,0,0,0,0,0c0.6-0.2,1.1-0.4,1.7-0.6c0,0,0,0,0,0
		c0.2-0.5,0.7-0.9,1.2-1.1c0.6-0.2,1.3-0.2,1.8,0.1c-0.2,0.6-0.7,1.1-1.3,1.3c-0.5,0.2-1.1,0.2-1.6,0c0,0,0,0,0,0
		c-0.7,0.2-1.3,0.4-1.9,0.7c0,0,0,0,0,0c0.4,0,0.7,0,1.1,0.2c0.6,0.3,1,0.8,1.2,1.4c-0.6,0.2-1.2,0.3-1.8,0
		c-0.5-0.3-0.9-0.7-1.1-1.2c0,0,0,0,0,0c-0.6,0.3-1.2,0.6-1.8,1c0,0,0,0,0,0c0.3-0.1,0.6,0,0.9,0c0.6,0.2,1.1,0.6,1.4,1.2
		c-0.5,0.3-1.2,0.5-1.8,0.3c-0.6-0.2-1-0.5-1.3-1c0,0,0,0,0,0c-0.5,0.4-1.1,0.8-1.6,1.2c0.3-0.1,0.6-0.1,0.9-0.1
		c0.7,0.1,1.2,0.4,1.6,0.9c-0.4,0.4-1.1,0.7-1.7,0.6c-0.6-0.1-1.1-0.3-1.5-0.8c0,0,0,0,0,0c-0.5,0.5-0.9,1-1.4,1.5
		c0.3-0.2,0.6-0.3,0.9-0.3c0.7-0.1,1.3,0.2,1.7,0.6c-0.4,0.5-0.9,0.8-1.6,0.9c-0.6,0.1-1.1-0.1-1.6-0.5c0,0,0,0,0,0
		c-0.4,0.6-0.8,1.2-1.1,1.8c0,0,0,0,0,0c0.3-0.2,0.5-0.4,0.9-0.5c0.6-0.2,1.3,0,1.8,0.3c-0.3,0.6-0.8,1-1.4,1.2
		c-0.6,0.2-1.2,0.1-1.7-0.2c0,0,0,0,0,0c-0.3,0.7-0.6,1.4-0.9,2.1c0,0,0,0,0,0c0.2-0.3,0.5-0.6,0.9-0.7c0.6-0.3,1.3-0.3,1.8,0
		c-0.2,0.6-0.6,1.1-1.2,1.4c-0.6,0.3-1.2,0.3-1.7,0.1c0,0,0,0,0,0c-0.2,0.7-0.4,1.5-0.5,2.2c0,0,0,0,0,0c0.2-0.4,0.4-0.7,0.7-0.9
		c0.5-0.4,1.2-0.5,1.8-0.3c-0.1,0.6-0.4,1.2-0.9,1.6c-0.5,0.4-1.1,0.5-1.7,0.4l0,0c-0.1,0.6-0.1,1.2-0.1,1.8c0,0.2,0,0.3,0,0.5
		c0,0,0,0,0,0c0.1-0.4,0.3-0.7,0.6-1c0.5-0.5,1.1-0.7,1.7-0.7c0,0.6-0.2,1.2-0.6,1.7c-0.4,0.4-1,0.7-1.6,0.6c0,0,0,0,0,0
		c0.1,0.7,0.2,1.5,0.3,2.2c0,0,0,0,0,0c0-0.4,0.2-0.7,0.4-1c0.4-0.5,1-0.9,1.6-0.9c0.1,0.6,0,1.3-0.3,1.8c-0.3,0.5-0.9,0.8-1.4,0.9
		c0,0,0,0,0,0c0.2,0.7,0.4,1.3,0.6,2c0,0,0,0,0,0c0-0.3,0.1-0.7,0.2-1c0.3-0.6,0.8-1,1.4-1.2c0.2,0.6,0.3,1.2,0,1.8
		c-0.3,0.6-0.7,0.9-1.2,1.1c0,0,0,0,0,0c0.3,0.6,0.6,1.2,0.9,1.8c0,0,0,0,0,0c0-0.3,0-0.6,0-0.9c0.2-0.6,0.6-1.1,1.1-1.4
		c0.3,0.5,0.5,1.2,0.3,1.8c-0.2,0.6-0.5,1-1,1.3c0,0,0,0,0,0c0.4,0.5,0.8,1.1,1.2,1.6c0,0,0,0,0,0c-0.1-0.3-0.1-0.6-0.1-0.9
		c0.1-0.7,0.4-1.2,0.9-1.6c0.4,0.4,0.7,1.1,0.6,1.7c-0.1,0.6-0.3,1.1-0.7,1.5c0,0,0,0,0,0c0.5,0.5,1,0.9,1.5,1.4c0,0,0,0,0,0
		c-0.1-0.3-0.2-0.6-0.3-0.9c-0.1-0.7,0.2-1.3,0.6-1.7c0.5,0.4,0.8,0.9,0.9,1.6c0.1,0.6-0.1,1.2-0.5,1.6l0,0c0.2,0.2,0.5,0.4,0.8,0.5
		c0.3,0.2,0.6,0.4,1,0.6c0,0,0,0,0,0c-0.2-0.2-0.4-0.5-0.5-0.9c-0.2-0.6,0-1.3,0.3-1.8c0.5,0.3,1,0.8,1.1,1.4
		c0.2,0.6,0.1,1.2-0.2,1.7c0,0,0,0,0,0c0.7,0.3,1.3,0.6,2.1,0.9c0,0,0,0,0,0c-0.3-0.2-0.6-0.5-0.8-0.9c-0.3-0.6-0.3-1.3,0-1.8
		c0.6,0.2,1.1,0.6,1.4,1.2c0.3,0.6,0.3,1.2,0.1,1.8c0,0,0,0,0,0h0c1.4,0.5,3.3,1.1,5.4,2.4c2-1.2,4-1.9,5.4-2.4c0,0,0,0,0,0
		c-0.2-0.5-0.2-1.2,0.1-1.7c0.3-0.6,0.8-1,1.4-1.2c0.2,0.6,0.3,1.2,0,1.8c-0.2,0.4-0.4,0.7-0.7,0.9c0,0,0,0,0,0
		c0.7-0.3,1.4-0.5,2-0.9c0,0,0,0,0,0c-0.3-0.5-0.4-1.1-0.2-1.7c0.2-0.6,0.6-1.1,1.1-1.4c0.3,0.5,0.5,1.2,0.3,1.8
		c-0.1,0.3-0.2,0.6-0.4,0.8c0.3-0.2,0.6-0.4,0.9-0.6c0.3-0.2,0.5-0.3,0.8-0.5c0,0,0,0,0,0c-0.3-0.4-0.5-1-0.5-1.6
		c0.1-0.7,0.4-1.2,0.9-1.6c0.4,0.4,0.7,1.1,0.6,1.7c0,0.3-0.1,0.6-0.3,0.9c0,0,0,0,0,0c0.5-0.4,1-0.9,1.5-1.4c0,0,0,0,0,0
		c-0.4-0.4-0.7-0.9-0.7-1.5c-0.1-0.7,0.2-1.3,0.6-1.7c0.5,0.4,0.8,0.9,0.9,1.6c0,0.3,0,0.6-0.1,0.9c0,0,0,0,0,0l0,0
		c0.4-0.5,0.8-1,1.2-1.6c0,0,0,0,0,0c-0.5-0.3-0.8-0.7-1-1.3c-0.2-0.6,0-1.3,0.3-1.8c0.5,0.3,1,0.8,1.1,1.4c0.1,0.3,0.1,0.6,0,0.9
		c0,0,0,0,0,0c0.3-0.6,0.7-1.2,0.9-1.8c0,0,0,0,0,0c-0.5-0.2-1-0.6-1.2-1.1c-0.3-0.6-0.3-1.3,0-1.8c0.6,0.2,1.1,0.6,1.4,1.2
		c0.2,0.3,0.2,0.7,0.2,1c0,0,0,0,0,0v0c0.3-0.7,0.5-1.3,0.6-2c0,0,0,0,0,0c-0.6-0.1-1.1-0.4-1.4-0.9c-0.4-0.5-0.5-1.2-0.3-1.8
		c0.6,0.1,1.2,0.4,1.6,0.9c0.2,0.3,0.3,0.7,0.4,1c0,0,0,0,0,0c0,0,0,0,0,0c0.2-0.7,0.3-1.4,0.3-2.1c0,0,0,0,0,0
		c-0.6,0-1.2-0.2-1.6-0.6c-0.5-0.5-0.7-1.1-0.6-1.7c0.6,0,1.2,0.2,1.7,0.7c0.3,0.3,0.5,0.7,0.6,1v0c0-0.2,0-0.3,0-0.5
		c0-0.6,0-1.2-0.1-1.8c0,0,0,0,0,0c-0.6,0.1-1.2,0-1.7-0.4c-0.5-0.4-0.9-1-0.9-1.6c0.6-0.1,1.2,0,1.8,0.3c0.3,0.2,0.6,0.6,0.8,0.9
		c0,0,0,0,0,0c-0.1-0.8-0.3-1.5-0.5-2.2c0,0,0,0,0,0c-0.5,0.2-1.1,0.2-1.7-0.1c-0.6-0.3-1-0.8-1.2-1.4c0.6-0.2,1.2-0.3,1.8,0
		c0.4,0.2,0.7,0.4,0.9,0.8c0,0,0,0,0,0c-0.2-0.7-0.5-1.4-0.9-2.1c0,0,0,0,0,0c-0.5,0.3-1.1,0.4-1.7,0.2c-0.6-0.2-1.1-0.6-1.4-1.2
		c0.5-0.3,1.2-0.5,1.8-0.3c0.3,0.1,0.7,0.3,0.9,0.5c-0.3-0.6-0.7-1.2-1.2-1.8c0,0,0,0,0,0c-0.4,0.4-1,0.5-1.6,0.5
		c-0.7-0.1-1.2-0.4-1.6-0.9c0.4-0.4,1.1-0.7,1.7-0.6c0.3,0,0.6,0.1,0.9,0.3c-0.4-0.5-0.9-1-1.4-1.5c0,0,0,0,0,0
		c-0.4,0.4-0.9,0.7-1.5,0.8c-0.7,0.1-1.3-0.2-1.7-0.6c0.4-0.5,0.9-0.8,1.6-0.9c0.3,0,0.6,0,0.9,0.1l0,0c-0.5-0.4-1-0.8-1.6-1.2
		c0,0,0,0,0,0c-0.3,0.5-0.7,0.8-1.3,1c-0.6,0.2-1.3,0-1.8-0.3c0.3-0.6,0.8-1,1.4-1.2c0.3-0.1,0.6-0.1,1,0c0,0,0,0,0,0
		c-0.6-0.4-1.2-0.7-1.8-1c0,0,0,0,0,0c-0.2,0.5-0.6,1-1.1,1.2c-0.6,0.3-1.3,0.3-1.8,0c0.2-0.6,0.6-1.1,1.2-1.4
		c0.3-0.2,0.7-0.2,1.1-0.2c0,0,0,0,0,0l0,0c-0.6-0.3-1.3-0.5-1.9-0.7c0,0,0,0,0,0c-0.5,0.2-1.1,0.2-1.6,0c-0.6-0.2-1.1-0.7-1.3-1.3
		c0.5-0.3,1.2-0.4,1.8-0.1c0.6,0.2,1,0.6,1.2,1.1c0,0,0,0,0,0c0.6,0.2,1.1,0.4,1.7,0.6h0c0,0,0,0,0,0c-0.2-0.2-0.4-0.4-0.5-0.7
		c-0.3-0.6-0.3-1.3,0-1.8c0.6,0.2,1.1,0.6,1.4,1.2c0.3,0.6,0.3,1.2,0.1,1.7c0,0,0,0,0,0c0.6,0.3,1.3,0.6,1.9,1
		c-0.2-0.2-0.4-0.5-0.5-0.9c-0.2-0.6,0-1.3,0.3-1.8c0.5,0.3,1,0.8,1.1,1.4c0.2,0.6,0.1,1.2-0.3,1.7c0.6,0.4,1.2,0.9,1.7,1.3
		c-0.2-0.3-0.3-0.6-0.3-1c-0.1-0.7,0.2-1.3,0.6-1.7c0.5,0.4,0.8,0.9,0.9,1.6c0.1,0.6-0.2,1.2-0.6,1.7c0,0,0,0,0,0
		c0.5,0.5,1,1,1.5,1.6c0,0,0,0,0,0c-0.1-0.3-0.2-0.7-0.2-1c0.1-0.7,0.4-1.2,0.9-1.6c0.4,0.4,0.7,1.1,0.6,1.7
		c-0.1,0.6-0.4,1.2-0.8,1.5c0,0,0,0,0,0c0.4,0.5,0.8,1.1,1.1,1.7v0c0,0,0,0,0,0c0-0.3,0-0.6,0-0.9c0.2-0.6,0.6-1.1,1.1-1.4
		c0.3,0.5,0.5,1.2,0.3,1.8c-0.2,0.6-0.6,1.1-1,1.4c0,0,0,0,0,0c0.3,0.6,0.6,1.2,0.8,1.9v0c0,0,0,0,0,0c0-0.3,0.1-0.6,0.2-0.9
		c0.3-0.6,0.8-1,1.4-1.2c0.2,0.6,0.3,1.2,0,1.8c-0.3,0.6-0.7,0.9-1.2,1.1c0,0,0,0,0,0c0.2,0.6,0.3,1.3,0.5,1.9c0,0,0,0,0,0
		c0.1-0.3,0.2-0.5,0.3-0.8c0.4-0.5,1-0.9,1.6-0.9c0.1,0.6,0,1.3-0.3,1.8c-0.3,0.5-0.9,0.8-1.4,0.9l0,0c0.1,0.6,0.1,1.2,0.1,1.8v0.2
		c0.1-0.2,0.3-0.5,0.5-0.7c0.5-0.5,1.1-0.7,1.7-0.7c0,0.6-0.2,1.2-0.6,1.7c-0.4,0.4-1,0.6-1.5,0.6c0,0,0,0,0,0
		c-0.1,0.7-0.1,1.3-0.3,2v0c0,0,0,0,0,0c0.2-0.2,0.3-0.5,0.6-0.6c0.5-0.4,1.2-0.5,1.8-0.3C20.9,242.8,20.5,243.3,20,243.7z"/>
</g>
</svg>
