<?xml version="1.0" encoding="utf-8"?>
<!-- Generator: Adobe Illustrator 19.0.0, SVG Export Plug-In . SVG Version: 6.00 Build 0)  -->
<svg version="1.1" id="Layer_1" xmlns="http://www.w3.org/2000/svg" xmlns:xlink="http://www.w3.org/1999/xlink" x="0px" y="0px"
	 viewBox="-417 141 512 512" style="enable-background:new -417 141 512 512;" xml:space="preserve">
<style type="text/css">
	.st0{fill-rule:evenodd;clip-rule:evenodd;fill:#BD2F32;}
	.st1{fill:#FFFFFF;}
</style>
<g id="XMLID_29_">
	<rect id="XMLID_28_" x="-417" y="141" class="st0" width="512" height="512"/>
	<g id="XMLID_30_">
		<rect id="XMLID_31_" x="-344.7" y="580.2" class="st1" width="367.3" height="2.1"/>
	</g>
</g>
<g id="XMLID_259_">
	<g id="XMLID_260_">
		<g id="XMLID_261_" transform="translate(0.000000,511.000000) scale(0.100000,-0.100000)">
			<path id="XMLID_262_" class="st1" d="M-1256.8,2826.2c-57.7-14.2-147.9-53.8-193.6-85.3c-47.8-32.9-124.9-108.3-157.1-152.5
				c-36.8-52.4-71.1-125.6-91.3-195.7c-12.7-45.7-15.6-68-14.9-157.1c0.7-92.7,2.1-110.1,18-163.2c32.9-106.9,83.9-190.8,163.9-270
				l41.1-40.3l-128.8-208.5l-129.2-208.5l-443.5-4.6l-442.7-3.9l-18.8,17.3c-18.8,18.1-19.5,18.1-138.4,20.2
				c-114.3,2.1-119.6,1.4-137.7-12.7c-31.5-24.8-37.5-49.5-37.5-154c0-106.9,7.4-134.5,40.3-153.2l20.2-11.3V616V189.2l-14.9-6.7
				c-8.1-3.9-20.9-15.6-28.3-25.5c-12.7-17.3-14.2-28.3-14.2-132.4s1.4-115,14.2-132.4c24.1-32.2,37.5-35.7,154.7-35.7
				c104.8,0,109,0.7,133.1,16.6l24.8,16.6h1027.1h1027.4l24.8-16.6c24.1-16.3,28.3-16.6,133.1-16.6c116.8,0,130.2,3.2,154.7,35.7
				c12.7,16.6,14.2,30.1,16.3,113.6c2.8,111.5,0,132.4-22.3,159.3l-16.6,19.5v433.5c0,395,0.7,434.3,11.3,442
				c23,19.5,29,50.3,29,147.2c0,104.1-6,129.2-37.5,154c-18,14.2-23.4,14.9-137.7,12.7c-112.9-2.1-120.3-2.8-135.2-17.3l-16.3-14.9
				l-501.1,1.4l-500.8,2.1l100.2,161.4c55.2,88.8,103,165.3,105.5,170.6c4.6,8.1,16.6,5.3,71.8-13.4c66.5-23,66.5-23,190.8-23
				c124.2,0,124.2,0,190.8,23c238.5,82.8,399.9,295.5,412,545c8.1,169.2-47.8,321.7-162.1,441.3c-83.9,88.8-186.9,149.4-300.5,176.6
				C-1049,2845-1181.8,2845-1256.8,2826.2z M-703.3,616V-29.2h-896.8h-897.2V616v645.2h897.2h897.2V616H-703.3z M-505.4,739.9
				c2.1-6,3.9-61.2,3.9-123.5c0-62.6-2.1-117.5-3.9-123.5c-4.6-12.7-23.4-14.2-35-2.8c-8.8,8.8-12,229-3.9,249.9
				c2.1,6,10.6,10.6,19.5,10.6C-516,750.5-507.6,745.9-505.4,739.9z"/>
		</g>
	</g>
</g>
<g>
	<g>
		<path d="M-285.6,619.5c0-3.4-0.3-7.2-0.3-11.3l0,0c-1,3.4-2.1,7.5-3.1,10.6l-3.4,11h-4.8l-3.1-10.6c-1-3.4-1.7-7.2-2.4-11l0,0
			c0,3.8-0.3,7.9-0.3,11.3l-0.3,10.6h-6.2l1.7-27.7h8.2l2.7,9.2c1,3.1,1.7,6.5,2.4,9.9l0,0c0.7-3.1,1.7-6.8,2.7-9.9l3.1-9.2h8.2
			l1.4,27.7h-6.2L-285.6,619.5z"/>
		<path d="M-248.9,616c0,9.2-5.5,14.7-13.7,14.7c-8.2,0-13-6.2-13-14c0-8.2,5.1-14.4,13.4-14.4C-253.4,602-248.9,608.5-248.9,616z
			 M-268.8,616.4c0,5.5,2.4,9.2,6.8,9.2c4.1,0,6.5-4.1,6.5-9.2c0-5.1-2.4-9.2-6.8-9.2C-266.4,607.1-268.8,610.9-268.8,616.4z"/>
		<path d="M-244.8,603c1.7-0.3,5.1-0.7,8.2-0.7c3.8,0,6.2,0.3,8.2,1.7c2.1,1,3.4,3.1,3.4,5.5s-1.4,4.8-4.5,5.8l0,0
			c3.1,1,5.5,3.1,5.5,6.8c0,2.4-1,4.5-2.7,5.8c-2.1,1.7-5.5,2.4-11,2.4c-3.1,0-5.5-0.3-6.8-0.3V603H-244.8z M-238.6,613.6h2.1
			c3.4,0,5.1-1.4,5.1-3.4s-1.7-3.1-4.5-3.1c-1.4,0-2.1,0-2.7,0C-238.6,607.1-238.6,613.6-238.6,613.6z M-238.6,625.6
			c0.7,0,1.4,0,2.4,0c2.7,0,5.5-1,5.5-4.1c0-2.7-2.4-3.8-5.5-3.8h-2.1v7.9H-238.6z"/>
		<path d="M-213.6,602.3v27.7h-6.2v-27.7H-213.6z"/>
		<path d="M-208.2,602.3h6.2v22.3h11v5.1h-17.1V602.3z"/>
		<path d="M-170.8,618.4h-10.3v6.5h11.3v5.1h-17.8v-27.7h17.1v5.1h-11v5.8h10.3v5.1H-170.8z"/>
		<path d="M-150.6,602.3V613h10.3v-10.6h6.2v27.7h-6.2v-11.3h-10.3v11.6h-6.5v-27.7h6.5V602.3z"/>
		<path d="M-103.4,616c0,9.2-5.5,14.7-13.7,14.7s-13-6.2-13-14c0-8.2,5.1-14.4,13.4-14.4C-107.8,602-103.4,608.5-103.4,616z
			 M-123.2,616.4c0,5.5,2.4,9.2,6.8,9.2c4.1,0,6.5-4.1,6.5-9.2c0-5.1-2.4-9.2-6.8-9.2C-120.8,607.1-123.2,610.9-123.2,616.4z"/>
		<path d="M-99.3,602.3h6.2v22.3h11v5.1h-17.1V602.3z"/>
		<path d="M-78.4,603c2.4-0.3,5.1-0.7,8.6-0.7c5.1,0,8.6,1,11.3,3.1c2.7,2.1,4.8,5.5,4.8,10.3c0,5.1-2.1,8.9-4.5,11.3
			c-3.1,2.4-7.2,3.4-12.7,3.4c-3.1,0-5.5-0.3-7.2-0.3V603H-78.4z M-71.9,625.6c0.7,0,1.4,0,2.1,0c5.8,0,9.2-3.1,9.2-9.6
			c0-5.8-3.4-8.9-8.6-8.9c-1.4,0-2.4,0-2.7,0.3C-71.9,607.5-71.9,625.6-71.9,625.6z"/>
		<path d="M-33.2,618.4h-10.3v6.5h11.3v5.1H-50v-27.7h17.1v5.1h-11v5.8h10.3v5.1H-33.2z"/>
		<path d="M-27.7,603c2.1-0.3,5.1-0.7,8.2-0.7c4.1,0,6.8,0.7,8.9,2.1c1.7,1.4,2.4,3.1,2.4,5.8c0,3.4-2.4,5.8-4.8,6.8l0,0
			c2.1,0.7,3.1,2.7,3.8,5.1c1,3.1,1.7,6.8,2.4,7.9h-6.5c-0.3-0.7-1-3.1-2.1-6.5c-0.7-3.4-2.1-4.5-4.5-4.5h-2.1v11H-28V603H-27.7z
			 M-21.5,614.7h2.4c3.1,0,5.1-1.7,5.1-4.1c0-2.4-1.7-3.8-4.5-3.8c-1.4,0-2.4,0-2.7,0.3v7.5H-21.5z"/>
	</g>
	<g>
		<path class="st1" d="M-291.2,619.5c0-3.4-0.3-7.2-0.3-11.3l0,0c-1,3.4-2.1,7.5-3.1,10.6l-3.4,11h-4.8l-3.1-10.6
			c-1-3.4-1.7-7.2-2.4-11l0,0c0,3.8-0.3,7.9-0.3,11.3l-0.3,10.6h-6.2l1.7-27.7h8.2l2.7,9.2c1,3.1,1.7,6.5,2.4,9.9l0,0
			c0.7-3.1,1.7-6.8,2.7-9.9l3.1-9.2h8.2l1.4,27.7h-6.2L-291.2,619.5z"/>
		<path class="st1" d="M-254.6,616c0,9.2-5.5,14.7-13.7,14.7c-8.2,0-13-6.2-13-14c0-8.2,5.1-14.4,13.4-14.4
			C-259,602-254.6,608.5-254.6,616z M-274.4,616.4c0,5.5,2.4,9.2,6.8,9.2c4.1,0,6.5-4.1,6.5-9.2c0-5.1-2.4-9.2-6.8-9.2
			C-272,607.1-274.4,610.9-274.4,616.4z"/>
		<path class="st1" d="M-250.5,603c1.7-0.3,5.1-0.7,8.2-0.7c3.8,0,6.2,0.3,8.2,1.7c2.1,1,3.4,3.1,3.4,5.5s-1.4,4.8-4.5,5.8l0,0
			c3.1,1,5.5,3.1,5.5,6.8c0,2.4-1,4.5-2.7,5.8c-2.1,1.7-5.5,2.4-11,2.4c-3.1,0-5.5-0.3-6.8-0.3V603H-250.5z M-244.3,613.6h2.1
			c3.4,0,5.1-1.4,5.1-3.4s-1.7-3.1-4.5-3.1c-1.4,0-2.1,0-2.7,0C-244.3,607.1-244.3,613.6-244.3,613.6z M-244.3,625.6
			c0.7,0,1.4,0,2.4,0c2.7,0,5.5-1,5.5-4.1c0-2.7-2.4-3.8-5.5-3.8h-2.1v7.9H-244.3z"/>
		<path class="st1" d="M-219.3,602.3v27.7h-6.2v-27.7H-219.3z"/>
		<path class="st1" d="M-213.8,602.3h6.2v22.3h11v5.1h-17.1V602.3z"/>
		<path class="st1" d="M-176.5,618.4h-10.3v6.5h11.3v5.1h-17.8v-27.7h17.1v5.1h-11v5.8h10.3v5.1H-176.5z"/>
		<path class="st1" d="M-156.3,602.3V613h10.3v-10.6h6.2v27.7h-6.2v-11.3h-10.3v11.6h-6.5v-27.7h6.5V602.3z"/>
		<path class="st1" d="M-109,616c0,9.2-5.5,14.7-13.7,14.7s-13-6.2-13-14c0-8.2,5.1-14.4,13.4-14.4C-113.5,602-109,608.5-109,616z
			 M-128.9,616.4c0,5.5,2.4,9.2,6.8,9.2c4.1,0,6.5-4.1,6.5-9.2c0-5.1-2.4-9.2-6.8-9.2C-126.5,607.1-128.9,610.9-128.9,616.4z"/>
		<path class="st1" d="M-104.9,602.3h6.2v22.3h11v5.1h-17.1V602.3z"/>
		<path class="st1" d="M-84,603c2.4-0.3,5.1-0.7,8.6-0.7c5.1,0,8.6,1,11.3,3.1c2.7,2.1,4.8,5.5,4.8,10.3c0,5.1-2.1,8.9-4.5,11.3
			c-3.1,2.4-7.2,3.4-12.7,3.4c-3.1,0-5.5-0.3-7.2-0.3V603H-84z M-77.5,625.6c0.7,0,1.4,0,2.1,0c5.8,0,9.2-3.1,9.2-9.6
			c0-5.8-3.4-8.9-8.6-8.9c-1.4,0-2.4,0-2.7,0.3C-77.5,607.5-77.5,625.6-77.5,625.6z"/>
		<path class="st1" d="M-38.8,618.4h-10.3v6.5h11.3v5.1h-17.8v-27.7h17.1v5.1h-11v5.8h10.3v5.1H-38.8z"/>
		<path class="st1" d="M-33.4,603c2.1-0.3,5.1-0.7,8.2-0.7c4.1,0,6.8,0.7,8.9,2.1c1.7,1.4,2.4,3.1,2.4,5.8c0,3.4-2.4,5.8-4.8,6.8
			l0,0c2.1,0.7,3.1,2.7,3.8,5.1c1,3.1,1.7,6.8,2.4,7.9H-19c-0.3-0.7-1-3.1-2.1-6.5c-0.7-3.4-2.1-4.5-4.5-4.5h-2.1v11h-6.2V603H-33.4
			z M-27.2,614.7h2.4c3.1,0,5.1-1.7,5.1-4.1c0-2.4-1.7-3.8-4.5-3.8c-1.4,0-2.4,0-2.7,0.3v7.5H-27.2z"/>
	</g>
</g>
</svg>
