<?xml version="1.0" encoding="utf-8"?>
<!-- Generator: Adobe Illustrator 19.0.0, SVG Export Plug-In . SVG Version: 6.00 Build 0)  -->
<svg version="1.1" id="Layer_1" xmlns="http://www.w3.org/2000/svg" xmlns:xlink="http://www.w3.org/1999/xlink" x="0px" y="0px"
	 viewBox="-71 145 144 144" style="enable-background:new -71 145 144 144;" xml:space="preserve">
<style type="text/css">
	.st0{fill:#010101;}
</style>
<g id="XMLID_259_">
	<g id="XMLID_260_">
		<g id="XMLID_261_" transform="translate(0.000000,511.000000) scale(0.100000,-0.100000)">
			<path id="XMLID_262_" class="st0" d="M109.9,3534.3c-16.3-4-41.8-15.2-54.7-24.1c-13.5-9.3-35.3-30.6-44.4-43.1
				c-10.4-14.8-20.1-35.5-25.8-55.3c-3.6-12.9-4.4-19.2-4.2-44.4c0.2-26.2,0.6-31.1,5.1-46.1c9.3-30.2,23.7-53.9,46.3-76.3
				l11.6-11.4l-36.4-58.9l-36.5-58.9l-125.3-1.3l-125.1-1.1l-5.3,4.9c-5.3,5.1-5.5,5.1-39.1,5.7c-32.3,0.6-33.8,0.4-38.9-3.6
				c-8.9-7-10.6-14-10.6-43.5c0-30.2,2.1-38,11.4-43.3l5.7-3.2v-120.6v-120.6l-4.2-1.9c-2.3-1.1-5.9-4.4-8-7.2c-3.6-4.9-4-8-4-37.4
				s0.4-32.5,4-37.4c6.8-9.1,10.6-10.1,43.7-10.1c29.6,0,30.8,0.2,37.6,4.7l7,4.7H10h290.3l7-4.7c6.8-4.6,8-4.7,37.6-4.7
				c33,0,36.8,0.9,43.7,10.1c3.6,4.7,4,8.5,4.6,32.1c0.8,31.5,0,37.4-6.3,45l-4.7,5.5v122.5c0,111.6,0.2,122.7,3.2,124.9
				c6.5,5.5,8.2,14.2,8.2,41.6c0,29.4-1.7,36.5-10.6,43.5c-5.1,4-6.6,4.2-38.9,3.6c-31.9-0.6-34-0.8-38.2-4.9l-4.6-4.2l-141.6,0.4
				l-141.5,0.6l28.3,45.6c15.6,25.1,29.1,46.7,29.8,48.2c1.3,2.3,4.7,1.5,20.3-3.8c18.8-6.5,18.8-6.5,53.9-6.5
				c35.1,0,35.1,0,53.9,6.5c67.4,23.4,113,83.5,116.4,154c2.3,47.8-13.5,90.9-45.8,124.7c-23.7,25.1-52.8,42.2-84.9,49.9
				C168.6,3539.6,131.1,3539.6,109.9,3534.3z M266.3,2909.8v-182.3H12.9h-253.5v182.3v182.3H12.9h253.5v-182.3H266.3z M322.2,2944.8
				c0.6-1.7,1.1-17.3,1.1-34.9c0-17.7-0.6-33.2-1.1-34.9c-1.3-3.6-6.6-4-9.9-0.8c-2.5,2.5-3.4,64.7-1.1,70.6c0.6,1.7,3,3,5.5,3
				S321.6,2946.5,322.2,2944.8z"/>
		</g>
	</g>
</g>
<g>
	<path d="M-36,267.2c0-1-0.1-2.1-0.1-3.3h0c-0.3,1-0.6,2.2-0.9,3.1l-1,3.2h-1.4l-0.9-3.1c-0.3-1-0.5-2.1-0.7-3.2h0
		c0,1.1-0.1,2.3-0.1,3.3l-0.1,3.1H-43l0.5-8.1h2.4l0.8,2.7c0.3,0.9,0.5,1.9,0.7,2.9h0c0.2-0.9,0.5-2,0.8-2.9l0.9-2.7h2.4l0.4,8.1
		h-1.8L-36,267.2z"/>
	<path d="M-25.3,266.2c0,2.7-1.6,4.3-4,4.3c-2.4,0-3.8-1.8-3.8-4.1c0-2.4,1.5-4.2,3.9-4.2C-26.6,262.1-25.3,264-25.3,266.2z
		 M-31.1,266.3c0,1.6,0.7,2.7,2,2.7c1.2,0,1.9-1.2,1.9-2.7c0-1.5-0.7-2.7-2-2.7C-30.4,263.6-31.1,264.7-31.1,266.3z"/>
	<path d="M-24.1,262.4c0.5-0.1,1.5-0.2,2.4-0.2c1.1,0,1.8,0.1,2.4,0.5c0.6,0.3,1,0.9,1,1.6c0,0.7-0.4,1.4-1.3,1.7v0
		c0.9,0.3,1.6,0.9,1.6,2c0,0.7-0.3,1.3-0.8,1.7c-0.6,0.5-1.6,0.7-3.2,0.7c-0.9,0-1.6-0.1-2-0.1V262.4z M-22.3,265.5h0.6
		c1,0,1.5-0.4,1.5-1c0-0.6-0.5-0.9-1.3-0.9c-0.4,0-0.6,0-0.8,0V265.5z M-22.3,269c0.2,0,0.4,0,0.7,0c0.8,0,1.6-0.3,1.6-1.2
		c0-0.8-0.7-1.1-1.6-1.1h-0.6V269z"/>
	<path d="M-15,262.2v8.1h-1.8v-8.1H-15z"/>
	<path d="M-13.4,262.2h1.8v6.5h3.2v1.5h-5V262.2z"/>
	<path d="M-2.5,266.9h-3v1.9h3.3v1.5h-5.2v-8.1h5v1.5h-3.2v1.7h3V266.9z"/>
	<path d="M3.4,262.2v3.1h3v-3.1h1.8v8.1H6.4V267h-3v3.4H1.5v-8.1H3.4z"/>
	<path d="M17.2,266.2c0,2.7-1.6,4.3-4,4.3c-2.4,0-3.8-1.8-3.8-4.1c0-2.4,1.5-4.2,3.9-4.2C15.9,262.1,17.2,264,17.2,266.2z
		 M11.4,266.3c0,1.6,0.7,2.7,2,2.7c1.2,0,1.9-1.2,1.9-2.7c0-1.5-0.7-2.7-2-2.7C12.1,263.6,11.4,264.7,11.4,266.3z"/>
	<path d="M18.4,262.2h1.8v6.5h3.2v1.5h-5V262.2z"/>
	<path d="M24.5,262.4c0.7-0.1,1.5-0.2,2.5-0.2c1.5,0,2.5,0.3,3.3,0.9c0.8,0.6,1.4,1.6,1.4,3c0,1.5-0.6,2.6-1.3,3.3
		c-0.9,0.7-2.1,1-3.7,1c-0.9,0-1.6-0.1-2.1-0.1V262.4z M26.4,269c0.2,0,0.4,0,0.6,0c1.7,0,2.7-0.9,2.7-2.8c0-1.7-1-2.6-2.5-2.6
		c-0.4,0-0.7,0-0.8,0.1V269z"/>
	<path d="M37.7,266.9h-3v1.9h3.3v1.5h-5.2v-8.1h5v1.5h-3.2v1.7h3V266.9z"/>
	<path d="M39.3,262.4c0.6-0.1,1.5-0.2,2.4-0.2c1.2,0,2,0.2,2.6,0.6c0.5,0.4,0.7,0.9,0.7,1.7c0,1-0.7,1.7-1.4,2v0
		c0.6,0.2,0.9,0.8,1.1,1.5c0.3,0.9,0.5,2,0.7,2.3h-1.9c-0.1-0.2-0.3-0.9-0.6-1.9c-0.2-1-0.6-1.3-1.3-1.3h-0.6v3.2h-1.8V262.4z
		 M41.1,265.8h0.7c0.9,0,1.5-0.5,1.5-1.2c0-0.7-0.5-1.1-1.3-1.1c-0.4,0-0.7,0-0.8,0.1V265.8z"/>
</g>
</svg>
