<?xml version="1.0" encoding="utf-8"?>
<!-- Generator: Adobe Illustrator 19.0.0, SVG Export Plug-In . SVG Version: 6.00 Build 0)  -->
<svg version="1.1" id="Layer_1" xmlns="http://www.w3.org/2000/svg" xmlns:xlink="http://www.w3.org/1999/xlink" x="0px" y="0px"
	 viewBox="0 0 144 144" style="enable-background:new 0 0 144 144;" xml:space="preserve">
<style type="text/css">
	.st0{fill:#010101;}
</style>
<g id="XMLID_259_">
	<g id="XMLID_260_">
		<g id="XMLID_261_" transform="translate(0.000000,511.000000) scale(0.100000,-0.100000)">
			<path id="XMLID_262_" class="st0" d="M819.9,4807.5c-16.3-4-41.8-15.2-54.7-24.1c-13.5-9.3-35.3-30.6-44.4-43.1
				c-10.4-14.8-20.1-35.5-25.8-55.3c-3.6-12.9-4.4-19.2-4.2-44.4c0.2-26.2,0.6-31.1,5.1-46.1c9.3-30.2,23.7-53.9,46.3-76.3
				l11.6-11.4l-36.4-58.9l-36.5-58.9l-125.3-1.3l-125.1-1.1l-5.3,4.9c-5.3,5.1-5.5,5.1-39.1,5.7c-32.3,0.6-33.8,0.4-38.9-3.6
				c-8.9-7-10.6-14-10.6-43.5c0-30.2,2.1-38,11.4-43.3l5.7-3.2V4183v-120.6l-4.2-1.9c-2.3-1.1-5.9-4.4-8-7.2c-3.6-4.9-4-8-4-37.4
				s0.4-32.5,4-37.4c6.8-9.1,10.6-10.1,43.7-10.1c29.6,0,30.8,0.2,37.6,4.7l7,4.7H720h290.3l7-4.7c6.8-4.6,8-4.7,37.6-4.7
				c33,0,36.8,0.9,43.7,10.1c3.6,4.7,4,8.5,4.6,32.1c0.8,31.5,0,37.4-6.3,45l-4.7,5.5v122.5c0,111.6,0.2,122.7,3.2,124.9
				c6.5,5.5,8.2,14.2,8.2,41.6c0,29.4-1.7,36.5-10.6,43.5c-5.1,4-6.6,4.2-38.9,3.6c-31.9-0.6-34-0.8-38.2-4.9l-4.6-4.2l-141.6,0.4
				l-141.5,0.6l28.3,45.6c15.6,25.1,29.1,46.7,29.8,48.2c1.3,2.3,4.7,1.5,20.3-3.8c18.8-6.5,18.8-6.5,53.9-6.5
				c35.1,0,35.1,0,53.9,6.5c67.4,23.4,113,83.5,116.4,154c2.3,47.8-13.5,90.9-45.8,124.7c-23.7,25.1-52.8,42.2-84.9,49.9
				C878.6,4812.8,841.1,4812.8,819.9,4807.5z M976.3,4183v-182.3H722.9H469.4V4183v182.3h253.5h253.5V4183z M1032.2,4218
				c0.6-1.7,1.1-17.3,1.1-34.9c0-17.7-0.6-33.2-1.1-34.9c-1.3-3.6-6.6-4-9.9-0.8c-2.5,2.5-3.4,64.7-1.1,70.6c0.6,1.7,3,3,5.5,3
				S1031.6,4219.7,1032.2,4218z"/>
		</g>
	</g>
</g>
</svg>
