<?xml version="1.0" encoding="utf-8"?>
<!-- Generator: Adobe Illustrator 19.0.0, SVG Export Plug-In . SVG Version: 6.00 Build 0)  -->
<svg version="1.1" id="Layer_1" xmlns="http://www.w3.org/2000/svg" xmlns:xlink="http://www.w3.org/1999/xlink" x="0px" y="0px"
	 viewBox="0 0 512 512" style="enable-background:new 0 0 512 512;" xml:space="preserve">
<style type="text/css">
	.st0{fill:#BD3334;}
	.st1{fill:#FFFFFF;}
</style>
<rect id="XMLID_28_" class="st0" width="512" height="512"/>
<g id="XMLID_30_">
	<rect id="XMLID_31_" x="72.3" y="439.2" class="st1" width="367.3" height="2.1"/>
</g>
<path id="XMLID_36_" class="st1" d="M256,26.2c-66.4,0-120.5,54.1-120.5,120.5v145.5c0,66.4,54.1,120.5,120.5,120.5
	s120.5-54.1,120.5-120.5V146.7C376.5,80.3,322.4,26.2,256,26.2z M362.1,146.7v1.9c-31.1,16.4-65.9,25.3-101.2,26.1v-40.3
	c10.2-2.2,17.9-11.3,17.9-22.1V82.1c0-10.8-7.7-19.9-17.9-22.1V40.8C317.1,43.3,362.1,89.9,362.1,146.7z M256,69c7.2,0,13,5.8,13,13
	v30.2c0,7.2-5.8,13-13,13s-13-5.8-13-13V82.1C243,74.9,248.8,69,256,69z M251.2,40.8v19.1c-10.2,2.2-17.8,11.3-17.8,22.1v30.2
	c0,10.8,7.7,19.9,17.8,22.1v40.3c-35.3-0.7-70.1-9.7-101.2-26.1v-1.9C149.9,89.9,194.9,43.3,251.2,40.8z M256,398.3
	c-58.5,0-106.1-47.6-106.1-106.1V159.5c32.8,16.3,69.2,24.9,106.1,24.9c36.9,0,73.3-8.6,106.1-24.9v132.8
	C362.1,350.8,314.5,398.3,256,398.3z"/>
<g id="XMLID_37_">
	<path id="XMLID_38_" d="M199.8,452.5v47.4h-13.5V466l-8.8,33.9h-9.2l-9.1-33.9v33.9h-10.9v-47.4h19l6.9,25.2l6.6-25.2H199.8z"/>
	<path id="XMLID_40_" d="M224.8,500.6c-5.9,0-10.5-1.8-14-5.5c-3.5-3.6-5.2-7.9-5.2-12.8c0-5.3,1.8-9.7,5.4-13.2
		c3.6-3.5,8.3-5.3,14.1-5.3c5.8,0,10.5,1.7,14,5.2c3.5,3.5,5.3,7.8,5.3,13.1c0,5.3-1.8,9.7-5.4,13.2
		C235.5,498.8,230.7,500.6,224.8,500.6z M225,492.2c2.2,0,3.5-1.1,3.9-3.4c0.5-2.2,0.7-4.6,0.7-7c0-3.3-0.3-5.7-1-7.2
		c-0.7-1.5-1.9-2.2-3.6-2.2c-1.6,0-2.8,0.8-3.5,2.3c-0.7,1.5-1.1,4-1.1,7.4c0,4.1,0.4,6.7,1.1,8C222.3,491.5,223.5,492.2,225,492.2z
		"/>
	<path id="XMLID_43_" d="M284.2,464.5v35.3h-12.8v-5.8c-1.9,4.4-5.5,6.5-11,6.5c-3.4,0-6-0.9-7.8-2.8c-1.8-1.9-2.8-4.5-2.8-8v-25.3
		h13.9v22.2c0,1.4,0.2,2.4,0.6,2.9c0.4,0.6,1.1,0.9,2.2,0.9c1.2,0,2.1-0.4,2.9-1.3c0.7-0.8,1.1-2,1.1-3.6v-21.2H284.2z"/>
	<path id="XMLID_45_" d="M288.4,489.9l10.9-1.5c0.6,2.5,3.1,3.8,7.4,3.8c3.6,0,5.4-0.7,5.4-2.1c0-0.6-0.3-1.1-1-1.4
		c-0.7-0.3-2.3-0.7-4.9-1c-7.2-1-11.7-2.6-13.4-4.7c-1.8-2.1-2.7-4.5-2.7-7.1c0-3.6,1.5-6.5,4.5-8.8c3-2.2,7-3.4,11.8-3.4
		c8.6,0,14,3.1,16.4,9.3l-10.5,2c-1-2.1-3-3.1-6.1-3.1c-1.5,0-2.6,0.2-3.3,0.6c-0.7,0.4-1.1,0.8-1.1,1.2c0,1.2,1.1,1.9,3.3,2.1
		c5.8,0.6,9.7,1.3,11.8,2c2.1,0.7,3.8,1.9,5.3,3.7c1.5,1.8,2.2,3.9,2.2,6.5c0,3.9-1.6,6.9-4.8,9.2c-3.2,2.3-7.7,3.4-13.4,3.4
		C296.6,500.6,290.6,497,288.4,489.9z"/>
	<path id="XMLID_47_" d="M352.5,487.2l12.9,0.9c-0.8,3.5-2.7,6.4-5.9,8.9c-3.1,2.4-7.4,3.7-12.7,3.7c-6,0-10.7-1.7-14.2-5.2
		c-3.5-3.4-5.3-7.7-5.3-12.8c0-5.3,1.7-9.7,5.2-13.4c3.5-3.6,8.2-5.5,14-5.5c5.7,0,10.2,1.7,13.7,5.1c3.5,3.4,5.2,8.1,5.2,14
		c0,0.5,0,1.2,0,2h-23.7c0,2.2,0.4,3.9,1.2,5c0.7,1.1,2.2,1.6,4.2,1.6C350.2,491.5,352,490.1,352.5,487.2z M351.6,478
		c0-2.4-0.5-4-1.4-4.8c-0.9-0.8-2.1-1.2-3.5-1.2c-3.3,0-4.9,2-4.9,6H351.6z"/>
</g>
<g id="XMLID_35_">
	<path id="XMLID_60_" class="st1" d="M197.9,452.5v47.4h-13.5V466l-8.8,33.9h-9.2l-9.1-33.9v33.9h-10.9v-47.4h19l6.9,25.2l6.6-25.2
		H197.9z"/>
	<path id="XMLID_57_" class="st1" d="M223,500.6c-5.9,0-10.5-1.8-14-5.5c-3.5-3.6-5.2-7.9-5.2-12.8c0-5.3,1.8-9.7,5.4-13.2
		c3.6-3.5,8.3-5.3,14.1-5.3c5.8,0,10.5,1.7,14,5.2c3.5,3.5,5.3,7.8,5.3,13.1c0,5.3-1.8,9.7-5.4,13.2
		C233.7,498.8,228.9,500.6,223,500.6z M223.2,492.2c2.2,0,3.5-1.1,3.9-3.4c0.5-2.2,0.7-4.6,0.7-7c0-3.3-0.3-5.7-1-7.2
		c-0.7-1.5-1.9-2.2-3.6-2.2c-1.6,0-2.8,0.8-3.5,2.3c-0.7,1.5-1.1,4-1.1,7.4c0,4.1,0.4,6.7,1.1,8
		C220.5,491.5,221.7,492.2,223.2,492.2z"/>
	<path id="XMLID_55_" class="st1" d="M282.4,464.5v35.3h-12.8v-5.8c-1.9,4.4-5.5,6.5-11,6.5c-3.4,0-6-0.9-7.8-2.8
		c-1.8-1.9-2.8-4.5-2.8-8v-25.3h13.9v22.2c0,1.4,0.2,2.4,0.6,2.9c0.4,0.6,1.1,0.9,2.2,0.9c1.2,0,2.1-0.4,2.9-1.3
		c0.7-0.8,1.1-2,1.1-3.6v-21.2H282.4z"/>
	<path id="XMLID_53_" class="st1" d="M286.5,489.9l10.9-1.5c0.6,2.5,3.1,3.8,7.4,3.8c3.6,0,5.4-0.7,5.4-2.1c0-0.6-0.3-1.1-1-1.4
		c-0.7-0.3-2.3-0.7-4.9-1c-7.2-1-11.7-2.6-13.4-4.7c-1.8-2.1-2.7-4.5-2.7-7.1c0-3.6,1.5-6.5,4.5-8.8c3-2.2,7-3.4,11.8-3.4
		c8.6,0,14,3.1,16.4,9.3l-10.5,2c-1-2.1-3-3.1-6.1-3.1c-1.5,0-2.6,0.2-3.3,0.6c-0.7,0.4-1.1,0.8-1.1,1.2c0,1.2,1.1,1.9,3.3,2.1
		c5.8,0.6,9.7,1.3,11.8,2c2.1,0.7,3.8,1.9,5.3,3.7c1.5,1.8,2.2,3.9,2.2,6.5c0,3.9-1.6,6.9-4.8,9.2c-3.2,2.3-7.7,3.4-13.4,3.4
		C294.7,500.6,288.8,497,286.5,489.9z"/>
	<path id="XMLID_50_" class="st1" d="M350.7,487.2l12.9,0.9c-0.8,3.5-2.7,6.4-5.9,8.9c-3.1,2.4-7.4,3.7-12.7,3.7
		c-6,0-10.7-1.7-14.2-5.2c-3.5-3.4-5.3-7.7-5.3-12.8c0-5.3,1.7-9.7,5.2-13.4c3.5-3.6,8.2-5.5,14-5.5c5.7,0,10.2,1.7,13.7,5.1
		c3.5,3.4,5.2,8.1,5.2,14c0,0.5,0,1.2,0,2H340c0,2.2,0.4,3.9,1.2,5c0.7,1.1,2.2,1.6,4.2,1.6C348.4,491.5,350.2,490.1,350.7,487.2z
		 M349.8,478c0-2.4-0.5-4-1.4-4.8c-0.9-0.8-2.1-1.2-3.5-1.2c-3.3,0-4.9,2-4.9,6H349.8z"/>
</g>
</svg>
