<?xml version="1.0" encoding="utf-8"?>
<!-- Generator: Adobe Illustrator 19.0.0, SVG Export Plug-In . SVG Version: 6.00 Build 0)  -->
<svg version="1.1" id="Layer_1" xmlns="http://www.w3.org/2000/svg" xmlns:xlink="http://www.w3.org/1999/xlink" x="0px" y="0px"
	 viewBox="0 0 144 144" style="enable-background:new 0 0 144 144;" xml:space="preserve">
<style type="text/css">
	.st0{fill:#010101;}
</style>
<g id="XMLID_201_">
	<g id="XMLID_202_">
		<g id="XMLID_218_">
			<g id="Layer_8_1_">
				<path id="XMLID_219_" class="st0" d="M40.9,34.3v1.1C30.7,36.1,22.5,44.6,22.5,55v11.6c0,10.4,8.2,19,18.4,19.6v0.4
					c0,12.8,10.4,23.1,23.1,23.1h25.8c12.8,0,23.1-10.4,23.1-23.1V34.3H40.9z M40.9,79.2c-6.4-0.6-11.5-6.1-11.5-12.7V55
					c0-6.6,5.1-12,11.5-12.7V79.2z M70.6,98.5c-21.6,0-21.8-19.7-21.8-19.9V47.9c0-1.3,1.1-2.4,2.4-2.4c1.3,0,2.4,1.1,2.4,2.4v30.7
					c0,1.5,0.6,15,17,15c1.3,0,2.4,1.1,2.4,2.4C73,97.4,71.9,98.5,70.6,98.5z"/>
			</g>
		</g>
		<g id="XMLID_217_">
		</g>
		<g id="XMLID_216_">
		</g>
		<g id="XMLID_215_">
		</g>
		<g id="XMLID_214_">
		</g>
		<g id="XMLID_213_">
		</g>
		<g id="XMLID_212_">
		</g>
		<g id="XMLID_211_">
		</g>
		<g id="XMLID_210_">
		</g>
		<g id="XMLID_209_">
		</g>
		<g id="XMLID_208_">
		</g>
		<g id="XMLID_207_">
		</g>
		<g id="XMLID_206_">
		</g>
		<g id="XMLID_205_">
		</g>
		<g id="XMLID_204_">
		</g>
		<g id="XMLID_203_">
		</g>
	</g>
</g>
</svg>
