<?xml version="1.0" encoding="utf-8"?>
<!-- Generator: Adobe Illustrator 19.0.0, SVG Export Plug-In . SVG Version: 6.00 Build 0)  -->
<svg version="1.1" id="Layer_1" xmlns="http://www.w3.org/2000/svg" xmlns:xlink="http://www.w3.org/1999/xlink" x="0px" y="0px"
	 viewBox="-219 -184 512 512" style="enable-background:new -219 -184 512 512;" xml:space="preserve">
<style type="text/css">
	.st0{fill-rule:evenodd;clip-rule:evenodd;fill:#BD2F32;}
	.st1{fill:#FFFFFF;}
</style>
<g id="XMLID_29_">
	<rect id="XMLID_28_" x="-219" y="-185" class="st0" width="512" height="512"/>
	<g id="XMLID_30_">
		<rect id="XMLID_31_" x="-146.7" y="254.2" class="st1" width="367.3" height="2.1"/>
	</g>
</g>
<g id="XMLID_201_">
	<g id="XMLID_202_">
		<g id="XMLID_218_">
			<g id="Layer_8_1_">
				<path id="XMLID_219_" class="st1" d="M-66.2-118.2v4.2c-39.3,2.7-70.8,35.4-70.8,75.5V6.1c0,40,31.6,73.1,70.8,75.5v1.5
					c0,49.3,40,88.9,88.9,88.9h99.3c49.3,0,88.9-40,88.9-88.9v-201.3L-66.2-118.2L-66.2-118.2z M-66.2,54.6
					c-24.6-2.3-44.3-23.5-44.3-48.9v-44.3c0-25.4,19.6-46.2,44.3-48.9C-66.2-87.4-66.2,54.6-66.2,54.6z M48.2,128.9
					c-83.2,0-83.9-75.8-83.9-76.6V-65.9c0-5,4.2-9.2,9.2-9.2s9.2,4.2,9.2,9.2V52.3c0,5.8,2.3,57.7,65.4,57.7c5,0,9.2,4.2,9.2,9.2
					C57.4,124.7,53.2,128.9,48.2,128.9z"/>
			</g>
		</g>
		<g id="XMLID_217_">
		</g>
		<g id="XMLID_216_">
		</g>
		<g id="XMLID_215_">
		</g>
		<g id="XMLID_214_">
		</g>
		<g id="XMLID_213_">
		</g>
		<g id="XMLID_212_">
		</g>
		<g id="XMLID_211_">
		</g>
		<g id="XMLID_210_">
		</g>
		<g id="XMLID_209_">
		</g>
		<g id="XMLID_208_">
		</g>
		<g id="XMLID_207_">
		</g>
		<g id="XMLID_206_">
		</g>
		<g id="XMLID_205_">
		</g>
		<g id="XMLID_204_">
		</g>
		<g id="XMLID_203_">
		</g>
	</g>
</g>
<g>
	<path d="M13.5,293.1c-0.2-4-0.2-9-0.2-13.9h-0.2c-1.1,4.3-2.5,9.2-3.8,13l-4,13.3h-5.8l-3.6-13c-1.1-4-2.2-8.8-3.1-13.3l0,0
		c-0.2,4.5-0.4,9.7-0.7,13.9l-0.7,12.8h-7l2.2-33.7h10.1L0,283.4c1.1,3.8,2,8.1,2.9,12.1h0.2c0.9-3.8,2-8.3,3.1-12.1l3.6-11.2h9.9
		l1.8,33.7h-7.4L13.5,293.1z"/>
	<path d="M34.9,272.2v19.3c0,5.8,2.2,8.8,6.1,8.8c4,0,6.3-2.7,6.3-8.8v-19.3h7.6v18.9c0,10.3-5.2,15.3-14.2,15.3
		c-8.5,0-13.5-4.7-13.5-15.5V272h7.6V272.2z"/>
	<path d="M89.5,304.6c-2.2,0.9-6.7,1.8-11.2,1.8c-6.1,0-10.6-1.6-13.7-4.5c-3.1-2.9-4.7-7.4-4.7-12.4c0-11.2,8.3-17.5,19.3-17.5
		c4.3,0,7.6,0.9,9.4,1.6l-1.6,6.1c-1.8-0.9-4-1.3-7.9-1.3c-6.3,0-11.2,3.6-11.2,11c0,7,4.3,11,10.6,11c1.8,0,3.1-0.2,3.8-0.4v-7
		h-5.2V287h12.6v17.5H89.5z"/>
</g>
<g>
	<path class="st1" d="M7.8,293.1c-0.2-4-0.2-9-0.2-13.9H7.4c-1.1,4.3-2.5,9.2-3.8,13l-4,13.3h-5.8l-3.6-13c-1.1-4-2.2-8.8-3.1-13.3
		l0,0c-0.2,4.5-0.4,9.7-0.7,13.9l-0.7,12.8h-7l2.2-33.7H-9l3.4,11.2c1.1,3.8,2,8.1,2.9,12.1h0.2c0.9-3.8,2-8.3,3.1-12.1l3.6-11.2
		h9.9l1.8,33.7H8.5L7.8,293.1z"/>
	<path class="st1" d="M29.2,272.2v19.3c0,5.8,2.2,8.8,6.1,8.8c4,0,6.3-2.7,6.3-8.8v-19.3h7.6v18.9c0,10.3-5.2,15.3-14.2,15.3
		c-8.5,0-13.5-4.7-13.5-15.5V272h7.6V272.2z"/>
	<path class="st1" d="M83.8,304.6c-2.2,0.9-6.7,1.8-11.2,1.8c-6.1,0-10.6-1.6-13.7-4.5c-3.1-2.9-4.7-7.4-4.7-12.4
		c0-11.2,8.3-17.5,19.3-17.5c4.3,0,7.6,0.9,9.4,1.6l-1.6,6.1c-1.8-0.9-4-1.3-7.9-1.3c-6.3,0-11.2,3.6-11.2,11c0,7,4.3,11,10.6,11
		c1.8,0,3.1-0.2,3.8-0.4v-7h-5.2V287H84v17.5H83.8z"/>
</g>
</svg>
