<?xml version="1.0" encoding="utf-8"?>
<!-- Generator: Adobe Illustrator 19.0.0, SVG Export Plug-In . SVG Version: 6.00 Build 0)  -->
<svg version="1.1" id="Layer_1" xmlns="http://www.w3.org/2000/svg" xmlns:xlink="http://www.w3.org/1999/xlink" x="0px" y="0px"
	 viewBox="-71 145 144 144" style="enable-background:new -71 145 144 144;" xml:space="preserve">
<style type="text/css">
	.st0{fill:#010101;}
</style>
<g id="XMLID_201_">
	<g id="XMLID_202_">
		<g id="XMLID_218_">
			<g id="Layer_8_1_">
				<path id="XMLID_219_" class="st0" d="M-30.1,165.8v1.1c-10.2,0.7-18.4,9.2-18.4,19.6v11.6c0,10.4,8.2,19,18.4,19.6v0.4
					c0,12.8,10.4,23.1,23.1,23.1h25.8c12.8,0,23.1-10.4,23.1-23.1v-52.3H-30.1z M-30.1,210.7c-6.4-0.6-11.5-6.1-11.5-12.7v-11.5
					c0-6.6,5.1-12,11.5-12.7V210.7z M-0.4,230c-21.6,0-21.8-19.7-21.8-19.9v-30.7c0-1.3,1.1-2.4,2.4-2.4c1.3,0,2.4,1.1,2.4,2.4v30.7
					c0,1.5,0.6,15,17,15c1.3,0,2.4,1.1,2.4,2.4C2,228.9,0.9,230-0.4,230z"/>
			</g>
		</g>
		<g id="XMLID_217_">
		</g>
		<g id="XMLID_216_">
		</g>
		<g id="XMLID_215_">
		</g>
		<g id="XMLID_214_">
		</g>
		<g id="XMLID_213_">
		</g>
		<g id="XMLID_212_">
		</g>
		<g id="XMLID_211_">
		</g>
		<g id="XMLID_210_">
		</g>
		<g id="XMLID_209_">
		</g>
		<g id="XMLID_208_">
		</g>
		<g id="XMLID_207_">
		</g>
		<g id="XMLID_206_">
		</g>
		<g id="XMLID_205_">
		</g>
		<g id="XMLID_204_">
		</g>
		<g id="XMLID_203_">
		</g>
	</g>
</g>
<g>
	<path d="M-9.4,268.6c-0.1-1.8-0.1-4-0.1-6.2h-0.1c-0.5,1.9-1.1,4.1-1.7,5.8l-1.8,5.9h-2.6l-1.6-5.8c-0.5-1.8-1-3.9-1.4-5.9h0
		c-0.1,2-0.2,4.3-0.3,6.2l-0.3,5.7h-3.1l1-15h4.5l1.5,5c0.5,1.7,0.9,3.6,1.3,5.4h0.1c0.4-1.7,0.9-3.7,1.4-5.4l1.6-5h4.4l0.8,15h-3.3
		L-9.4,268.6z"/>
	<path d="M0.1,259.3v8.6c0,2.6,1,3.9,2.7,3.9c1.8,0,2.8-1.2,2.8-3.9v-8.6H9v8.4c0,4.6-2.3,6.8-6.3,6.8c-3.8,0-6-2.1-6-6.9v-8.4H0.1z
		"/>
	<path d="M24.4,273.7c-1,0.4-3,0.8-5,0.8c-2.7,0-4.7-0.7-6.1-2c-1.4-1.3-2.1-3.3-2.1-5.5c0-5,3.7-7.8,8.6-7.8c1.9,0,3.4,0.4,4.2,0.7
		l-0.7,2.7c-0.8-0.4-1.8-0.6-3.5-0.6c-2.8,0-5,1.6-5,4.9c0,3.1,1.9,4.9,4.7,4.9c0.8,0,1.4-0.1,1.7-0.2v-3.1h-2.3v-2.6h5.6V273.7z"/>
</g>
</svg>
