<?xml version="1.0" encoding="utf-8"?>
<!-- Generator: Adobe Illustrator 19.0.0, SVG Export Plug-In . SVG Version: 6.00 Build 0)  -->
<svg version="1.1" id="Capa_1" xmlns="http://www.w3.org/2000/svg" xmlns:xlink="http://www.w3.org/1999/xlink" x="0px" y="0px"
	 viewBox="162 -90 612 612" style="enable-background:new 162 -90 612 612;" xml:space="preserve">
<g>
	<g>
		<path d="M649.3,34.2l-79.3-23v306.2c0,1.5-0.1,3-0.3,4.5c9.7,1,19.1-5.1,21.9-14.8l71.8-247.4C666.6,48.9,660.3,37.4,649.3,34.2z"
			/>
		<path d="M388.4,45.3c-8.5,3.7-16.1,9.1-22.3,15.7h15.3C383.4,55.2,385.8,49.9,388.4,45.3z"/>
		<path d="M377.7,74.8h-21.8c-4.5,8-7.4,17-8.3,26.5h27C374.8,91.8,375.9,83,377.7,74.8z"/>
		<path d="M465.4,61c-6.3-6.6-13.9-11.9-22.3-15.7c2.7,4.6,5.1,9.8,7,15.7H465.4z"/>
		<path d="M366,155.4c6.3,6.6,13.9,11.9,22.3,15.7c-2.7-4.6-5.1-9.8-7-15.7H366z"/>
		<path d="M443.2,101.3c-0.4-9.6-1.7-18.6-3.7-26.5h-47.6c-1.9,7.9-3.2,16.8-3.7,26.5H443.2L443.2,101.3z"/>
		<path d="M415.7,39.6c-6.8,0-14.1,8-19.4,21.4h38.9C429.8,47.7,422.5,39.6,415.7,39.6z"/>
		<path d="M374.4,115.1h-27c1,9.6,3.9,18.5,8.3,26.5h21.8C375.9,133.5,374.8,124.5,374.4,115.1z"/>
		<path d="M457,101.3h27c-1-9.6-3.9-18.5-8.3-26.5h-21.8C455.6,83,456.6,91.8,457,101.3z"/>
		<path d="M415.7,176.8c6.8,0,14.1-8,19.5-21.4h-38.9C401.7,168.7,408.9,176.8,415.7,176.8z"/>
		<path d="M453.8,141.6h21.8c4.5-8,7.4-17,8.3-26.5h-27C456.6,124.5,455.6,133.5,453.8,141.6z"/>
		<path d="M528.6-44.5H302.8c-17.1,0-31,13.9-31,31v331c0,17.1,13.9,31,31,31h225.8c17.1,0,31-13.9,31-31v-331
			C559.6-30.6,545.7-44.5,528.6-44.5z M415.7,25.8c45.4,0,82.4,36.9,82.4,82.4s-36.9,82.4-82.4,82.4c-45.4,0-82.4-36.9-82.4-82.4
			C333.4,62.8,370.3,25.8,415.7,25.8z"/>
		<path d="M388.3,115.1c0.4,9.6,1.7,18.6,3.7,26.5h47.6c1.9-7.9,3.2-16.8,3.7-26.5H388.3L388.3,115.1z"/>
		<path d="M443,171.1c8.5-3.7,16.1-9.1,22.3-15.7h-15.3C448.1,161.3,445.7,166.5,443,171.1z"/>
	</g>
</g>
<g>
	<path d="M221.2,412.9c2.7-0.5,6.6-0.8,12-0.8c5.5,0,9.3,1,12,3.1c2.5,2,4.2,5.2,4.2,9.1s-1.3,7.1-3.6,9.3c-3,2.8-7.5,4.1-12.7,4.1
		c-1.2,0-2.2-0.1-3-0.2v14h-8.8V412.9z M229.9,430.6c0.8,0.2,1.7,0.2,3,0.2c4.7,0,7.6-2.4,7.6-6.4c0-3.6-2.5-5.7-6.9-5.7
		c-1.8,0-3,0.2-3.7,0.3V430.6z"/>
	<path d="M260.5,441.4l-2.8,10h-9.2l12-39.1h11.6l12.1,39.1h-9.5l-3-10H260.5z M270.4,434.8l-2.4-8.3c-0.7-2.3-1.4-5.2-2-7.5h-0.1
		c-0.6,2.3-1.2,5.3-1.8,7.5l-2.3,8.3H270.4z"/>
	<path d="M289.8,442.4c2.4,1.2,6,2.4,9.8,2.4c4.1,0,6.2-1.7,6.2-4.2c0-2.4-1.9-3.8-6.6-5.5c-6.5-2.3-10.7-5.9-10.7-11.6
		c0-6.7,5.6-11.8,14.8-11.8c4.4,0,7.7,0.9,10,2l-2,7.1c-1.6-0.8-4.4-1.9-8.2-1.9c-3.8,0-5.7,1.7-5.7,3.8c0,2.5,2.2,3.6,7.3,5.5
		c6.9,2.6,10.2,6.2,10.2,11.7c0,6.6-5,12.2-15.8,12.2c-4.5,0-8.9-1.2-11.1-2.4L289.8,442.4z"/>
	<path d="M321.1,442.4c2.4,1.2,6,2.4,9.8,2.4c4.1,0,6.2-1.7,6.2-4.2c0-2.4-1.9-3.8-6.6-5.5c-6.5-2.3-10.7-5.9-10.7-11.6
		c0-6.7,5.6-11.8,14.8-11.8c4.4,0,7.7,0.9,10,2l-2,7.1c-1.6-0.8-4.4-1.9-8.2-1.9c-3.8,0-5.7,1.7-5.7,3.8c0,2.5,2.2,3.6,7.3,5.5
		c6.9,2.6,10.2,6.2,10.2,11.7c0,6.6-5,12.2-15.8,12.2c-4.5,0-8.9-1.2-11.1-2.4L321.1,442.4z"/>
	<path d="M352.2,412.9c2.7-0.5,6.6-0.8,12-0.8c5.5,0,9.3,1,12,3.1c2.5,2,4.2,5.2,4.2,9.1s-1.3,7.1-3.6,9.3c-3,2.8-7.5,4.1-12.7,4.1
		c-1.2,0-2.2-0.1-3-0.2v14h-8.8V412.9z M360.9,430.6c0.8,0.2,1.7,0.2,3,0.2c4.7,0,7.6-2.4,7.6-6.4c0-3.6-2.5-5.7-6.9-5.7
		c-1.8,0-3,0.2-3.7,0.3V430.6z"/>
	<path d="M421.7,431.5c0,12.8-7.8,20.6-19.2,20.6c-11.6,0-18.4-8.8-18.4-19.9c0-11.7,7.5-20.5,19-20.5
		C415.1,411.7,421.7,420.7,421.7,431.5z M393.4,432c0,7.7,3.6,13.1,9.5,13.1c6,0,9.4-5.7,9.4-13.3c0-7-3.4-13.1-9.5-13.1
		C396.9,418.7,393.4,424.4,393.4,432z"/>
	<path d="M427.5,412.9c2.8-0.5,7.1-0.8,11.8-0.8c5.8,0,9.9,0.9,12.7,3.1c2.3,1.9,3.6,4.6,3.6,8.2c0,5-3.5,8.4-6.9,9.6v0.2
		c2.7,1.1,4.2,3.7,5.2,7.3c1.2,4.4,2.4,9.5,3.2,11H448c-0.6-1.2-1.6-4.3-2.7-9.1c-1-4.9-2.7-6.2-6.3-6.3h-2.7v15.4h-8.8V412.9z
		 M436.3,429.7h3.5c4.4,0,7-2.2,7-5.6c0-3.6-2.4-5.4-6.5-5.5c-2.1,0-3.4,0.2-4,0.3V429.7z"/>
	<path d="M469.5,419.8h-10.5v-7.4H489v7.4h-10.7v31.7h-8.9V419.8z"/>
	<path d="M514.3,412.4v15h14.6v-15h8.8v39.1h-8.8v-16.4h-14.6v16.4h-8.9v-39.1H514.3z"/>
	<path d="M581.2,431.5c0,12.8-7.8,20.6-19.2,20.6c-11.6,0-18.4-8.8-18.4-19.9c0-11.7,7.5-20.5,19-20.5
		C574.7,411.7,581.2,420.7,581.2,431.5z M553,432c0,7.7,3.6,13.1,9.5,13.1c6,0,9.4-5.7,9.4-13.3c0-7-3.4-13.1-9.5-13.1
		C556.4,418.7,553,424.4,553,432z"/>
	<path d="M587,412.4h8.9V444h15.6v7.4H587V412.4z"/>
	<path d="M616.7,412.9c3.3-0.5,7.5-0.8,12-0.8c7.4,0,12.2,1.3,16,4.2c4.1,3,6.6,7.8,6.6,14.7c0,7.5-2.7,12.7-6.5,15.8
		c-4.1,3.4-10.4,5-18.1,5c-4.6,0-7.8-0.3-10-0.6V412.9z M625.6,444.8c0.8,0.2,2,0.2,3.1,0.2c8,0.1,13.2-4.4,13.2-13.7
		c0.1-8.1-4.7-12.4-12.3-12.4c-2,0-3.3,0.2-4,0.3V444.8z"/>
	<path d="M680.4,434.9H666v9.3H682v7.3h-25v-39.1h24.1v7.3H666v8.1h14.4V434.9z"/>
	<path d="M688.1,412.9c2.8-0.5,7.1-0.8,11.8-0.8c5.8,0,9.9,0.9,12.7,3.1c2.3,1.9,3.6,4.6,3.6,8.2c0,5-3.5,8.4-6.9,9.6v0.2
		c2.7,1.1,4.2,3.7,5.2,7.3c1.2,4.4,2.4,9.5,3.2,11h-9.1c-0.6-1.2-1.6-4.3-2.7-9.1c-1-4.9-2.7-6.2-6.3-6.3h-2.7v15.4h-8.8V412.9z
		 M696.8,429.7h3.5c4.4,0,7-2.2,7-5.6c0-3.6-2.4-5.4-6.5-5.5c-2.1,0-3.4,0.2-4,0.3V429.7z"/>
</g>
</svg>
