<?xml version="1.0" encoding="utf-8"?>
<!-- Generator: Adobe Illustrator 19.0.0, SVG Export Plug-In . SVG Version: 6.00 Build 0)  -->
<svg version="1.1" id="Capa_1" xmlns="http://www.w3.org/2000/svg" xmlns:xlink="http://www.w3.org/1999/xlink" x="0px" y="0px"
	 viewBox="248 -184 512 512" style="enable-background:new 248 -184 512 512;" xml:space="preserve">
<style type="text/css">
	.st0{fill-rule:evenodd;clip-rule:evenodd;fill:#BD2F32;}
	.st1{fill:#FFFFFF;}
</style>
<g id="XMLID_29_">
	<rect id="XMLID_28_" x="247" y="-185" class="st0" width="512" height="512"/>
	<g id="XMLID_30_">
		<rect id="XMLID_31_" x="319.3" y="254.2" class="st1" width="367.3" height="2.1"/>
	</g>
</g>
<g>
	<g>
		<path class="st1" d="M653.5-25.1l-65.4-19v252.4c0,1.2-0.1,2.5-0.2,3.7c8,0.8,15.7-4.2,18.1-12.2l59.2-204
			C667.7-13,662.5-22.5,653.5-25.1z"/>
		<path class="st1" d="M438.4-16c-7,3.1-13.3,7.5-18.4,12.9h12.6C434.2-7.8,436.2-12.2,438.4-16z"/>
		<path class="st1" d="M429.5,8.4h-18c-3.7,6.6-6.1,14-6.8,21.8H427C427.1,22.4,428.1,15.1,429.5,8.4z"/>
		<path class="st1" d="M501.8-3c-5.2-5.4-11.5-9.8-18.4-12.9c2.2,3.8,4.2,8.1,5.8,12.9H501.8z"/>
		<path class="st1" d="M419.9,74.8c5.2,5.4,11.5,9.8,18.4,12.9c-2.2-3.8-4.2-8.1-5.8-12.9H419.9z"/>
		<path class="st1" d="M483.5,30.2c-0.3-7.9-1.4-15.3-3.1-21.8h-39.2c-1.6,6.5-2.6,13.9-3.1,21.8H483.5L483.5,30.2z"/>
		<path class="st1" d="M460.9-20.7c-5.6,0-11.6,6.6-16,17.6h32.1C472.5-14,466.5-20.7,460.9-20.7z"/>
		<path class="st1" d="M426.8,41.6h-22.3c0.8,7.9,3.2,15.3,6.8,21.8h18C428.1,56.7,427.1,49.3,426.8,41.6z"/>
		<path class="st1" d="M494.9,30.2h22.3c-0.8-7.9-3.2-15.3-6.8-21.8h-18C493.8,15.1,494.6,22.4,494.9,30.2z"/>
		<path class="st1" d="M460.9,92.4c5.6,0,11.6-6.6,16.1-17.6h-32.1C449.3,85.8,455.3,92.4,460.9,92.4z"/>
		<path class="st1" d="M492.3,63.4h18c3.7-6.6,6.1-14,6.8-21.8h-22.3C494.6,49.3,493.8,56.7,492.3,63.4z"/>
		<path class="st1" d="M553.9-90H367.8c-14.1,0-25.6,11.5-25.6,25.6v272.9c0,14.1,11.5,25.6,25.6,25.6h186.2
			c14.1,0,25.6-11.5,25.6-25.6V-64.4C579.5-78.5,568-90,553.9-90z M460.9-32c37.4,0,67.9,30.4,67.9,67.9s-30.4,67.9-67.9,67.9
			c-37.4,0-67.9-30.4-67.9-67.9C393-1.5,423.4-32,460.9-32z"/>
		<path class="st1" d="M438.3,41.6c0.3,7.9,1.4,15.3,3.1,21.8h39.2c1.6-6.5,2.6-13.9,3.1-21.8L438.3,41.6L438.3,41.6z"/>
		<path class="st1" d="M483.4,87.7c7-3.1,13.3-7.5,18.4-12.9h-12.6C487.6,79.7,485.6,84,483.4,87.7z"/>
	</g>
</g>
<g>
	<path d="M290.2,272.3c2.3-0.4,5.7-0.7,10.3-0.7c4.7,0,8,0.9,10.3,2.7c2.2,1.7,3.6,4.5,3.6,7.8s-1.1,6.1-3.1,8
		c-2.6,2.4-6.5,3.5-10.9,3.5c-1,0-1.9-0.1-2.6-0.2v12.1h-7.6L290.2,272.3L290.2,272.3z M297.7,287.6c0.7,0.2,1.5,0.2,2.6,0.2
		c4,0,6.5-2.1,6.5-5.5c0-3.1-2.2-4.9-5.9-4.9c-1.6,0-2.6,0.2-3.2,0.3L297.7,287.6L297.7,287.6z"/>
	<path d="M324,296.9l-2.4,8.6h-7.9l10.3-33.7h10l10.4,33.7h-8.2l-2.6-8.6H324z M332.5,291.2l-2.1-7.1c-0.6-2-1.2-4.5-1.7-6.5h-0.1
		c-0.5,2-1,4.6-1.6,6.5l-2,7.1H332.5z"/>
	<path d="M349.3,297.7c2.1,1,5.2,2.1,8.4,2.1c3.5,0,5.3-1.5,5.3-3.6c0-2.1-1.6-3.3-5.7-4.7c-5.6-2-9.2-5.1-9.2-10
		c0-5.8,4.8-10.2,12.7-10.2c3.8,0,6.6,0.8,8.6,1.7l-1.7,6.1c-1.4-0.7-3.8-1.6-7.1-1.6c-3.3,0-4.9,1.5-4.9,3.3c0,2.2,1.9,3.1,6.3,4.7
		c5.9,2.2,8.8,5.3,8.8,10.1c0,5.7-4.3,10.5-13.6,10.5c-3.9,0-7.7-1-9.6-2.1L349.3,297.7z"/>
	<path d="M376.2,297.7c2.1,1,5.2,2.1,8.4,2.1c3.5,0,5.3-1.5,5.3-3.6c0-2.1-1.6-3.3-5.7-4.7c-5.6-2-9.2-5.1-9.2-10
		c0-5.8,4.8-10.2,12.7-10.2c3.8,0,6.6,0.8,8.6,1.7l-1.7,6.1c-1.4-0.7-3.8-1.6-7.1-1.6c-3.3,0-4.9,1.5-4.9,3.3c0,2.2,1.9,3.1,6.3,4.7
		c5.9,2.2,8.8,5.3,8.8,10.1c0,5.7-4.3,10.5-13.6,10.5c-3.9,0-7.7-1-9.6-2.1L376.2,297.7z"/>
	<path d="M403,272.3c2.3-0.4,5.7-0.7,10.3-0.7c4.7,0,8,0.9,10.3,2.7c2.2,1.7,3.6,4.5,3.6,7.8s-1.1,6.1-3.1,8
		c-2.6,2.4-6.5,3.5-10.9,3.5c-1,0-1.9-0.1-2.6-0.2v12.1h-7.6L403,272.3L403,272.3z M410.5,287.6c0.7,0.2,1.5,0.2,2.6,0.2
		c4,0,6.5-2.1,6.5-5.5c0-3.1-2.2-4.9-5.9-4.9c-1.6,0-2.6,0.2-3.2,0.3V287.6z"/>
	<path d="M462.9,288.4c0,11-6.7,17.7-16.5,17.7c-10,0-15.8-7.6-15.8-17.1c0-10.1,6.5-17.7,16.4-17.7
		C457.2,271.3,462.9,279.1,462.9,288.4z M438.5,288.8c0,6.6,3.1,11.3,8.2,11.3c5.2,0,8.1-4.9,8.1-11.5c0-6-2.9-11.3-8.2-11.3
		C441.5,277.3,438.5,282.2,438.5,288.8z"/>
	<path d="M467.9,272.3c2.4-0.4,6.1-0.7,10.2-0.7c5,0,8.5,0.8,10.9,2.7c2,1.6,3.1,4,3.1,7.1c0,4.3-3,7.2-5.9,8.3v0.2
		c2.3,0.9,3.6,3.2,4.5,6.3c1,3.8,2.1,8.2,2.8,9.5h-7.8c-0.5-1-1.4-3.7-2.3-7.8c-0.9-4.2-2.3-5.3-5.4-5.4h-2.3v13.3h-7.6V272.3z
		 M475.4,286.8h3c3.8,0,6-1.9,6-4.8c0-3.1-2.1-4.7-5.6-4.7c-1.8,0-2.9,0.2-3.4,0.3V286.8z"/>
	<path d="M504,278.3h-9v-6.4h25.8v6.4h-9.2v27.3H504L504,278.3L504,278.3z"/>
	<path d="M542.6,271.9v12.9h12.6v-12.9h7.6v33.7h-7.6v-14.1h-12.6v14.1H535v-33.7H542.6z"/>
	<path d="M600.3,288.4c0,11-6.7,17.7-16.5,17.7c-10,0-15.8-7.6-15.8-17.1c0-10.1,6.5-17.7,16.4-17.7
		C594.7,271.3,600.3,279.1,600.3,288.4z M576,288.8c0,6.6,3.1,11.3,8.2,11.3c5.2,0,8.1-4.9,8.1-11.5c0-6-2.9-11.3-8.2-11.3
		C578.9,277.3,576,282.2,576,288.8z"/>
	<path d="M605.3,271.9h7.7v27.2h13.4v6.4h-21.1V271.9z"/>
	<path d="M630.8,272.3c2.8-0.4,6.5-0.7,10.3-0.7c6.4,0,10.5,1.1,13.8,3.6c3.5,2.6,5.7,6.7,5.7,12.7c0,6.5-2.3,10.9-5.6,13.6
		c-3.5,2.9-9,4.3-15.6,4.3c-4,0-6.7-0.3-8.6-0.5V272.3z M638.5,299.8c0.7,0.2,1.7,0.2,2.7,0.2c6.9,0.1,11.4-3.8,11.4-11.8
		c0.1-7-4-10.7-10.6-10.7c-1.7,0-2.8,0.2-3.4,0.3V299.8z"/>
	<path d="M685.7,291.3h-12.4v8h13.8v6.3h-21.5v-33.7h20.8v6.3h-13v7h12.4V291.3z"/>
	<path d="M692.3,272.3c2.4-0.4,6.1-0.7,10.2-0.7c5,0,8.5,0.8,10.9,2.7c2,1.6,3.1,4,3.1,7.1c0,4.3-3,7.2-5.9,8.3v0.2
		c2.3,0.9,3.6,3.2,4.5,6.3c1,3.8,2.1,8.2,2.8,9.5H710c-0.5-1-1.4-3.7-2.3-7.8c-0.9-4.2-2.3-5.3-5.4-5.4h-2.3v13.3h-7.6V272.3z
		 M699.8,286.8h3c3.8,0,6-1.9,6-4.8c0-3.1-2.1-4.7-5.6-4.7c-1.8,0-2.9,0.2-3.4,0.3V286.8z"/>
</g>
<g>
	<path class="st1" d="M284.5,272.3c2.3-0.4,5.7-0.7,10.3-0.7c4.7,0,8,0.9,10.3,2.7c2.2,1.7,3.6,4.5,3.6,7.8s-1.1,6.1-3.1,8
		c-2.6,2.4-6.5,3.5-10.9,3.5c-1,0-1.9-0.1-2.6-0.2v12.1h-7.6L284.5,272.3L284.5,272.3z M292,287.6c0.7,0.2,1.5,0.2,2.6,0.2
		c4,0,6.5-2.1,6.5-5.5c0-3.1-2.2-4.9-5.9-4.9c-1.6,0-2.6,0.2-3.2,0.3V287.6L292,287.6z"/>
	<path class="st1" d="M318.3,296.9l-2.4,8.6H308l10.3-33.7h10l10.4,33.7h-8.2l-2.6-8.6H318.3z M326.9,291.2l-2.1-7.1
		c-0.6-2-1.2-4.5-1.7-6.5H323c-0.5,2-1,4.6-1.6,6.5l-2,7.1H326.9z"/>
	<path class="st1" d="M343.6,297.7c2.1,1,5.2,2.1,8.4,2.1c3.5,0,5.3-1.5,5.3-3.6c0-2.1-1.6-3.3-5.7-4.7c-5.6-2-9.2-5.1-9.2-10
		c0-5.8,4.8-10.2,12.7-10.2c3.8,0,6.6,0.8,8.6,1.7l-1.7,6.1c-1.4-0.7-3.8-1.6-7.1-1.6c-3.3,0-4.9,1.5-4.9,3.3c0,2.2,1.9,3.1,6.3,4.7
		c5.9,2.2,8.8,5.3,8.8,10.1c0,5.7-4.3,10.5-13.6,10.5c-3.9,0-7.7-1-9.6-2.1L343.6,297.7z"/>
	<path class="st1" d="M370.5,297.7c2.1,1,5.2,2.1,8.4,2.1c3.5,0,5.3-1.5,5.3-3.6c0-2.1-1.6-3.3-5.7-4.7c-5.6-2-9.2-5.1-9.2-10
		c0-5.8,4.8-10.2,12.7-10.2c3.8,0,6.6,0.8,8.6,1.7l-1.7,6.1c-1.4-0.7-3.8-1.6-7.1-1.6c-3.3,0-4.9,1.5-4.9,3.3c0,2.2,1.9,3.1,6.3,4.7
		c5.9,2.2,8.8,5.3,8.8,10.1c0,5.7-4.3,10.5-13.6,10.5c-3.9,0-7.7-1-9.6-2.1L370.5,297.7z"/>
	<path class="st1" d="M397.3,272.3c2.3-0.4,5.7-0.7,10.3-0.7c4.7,0,8,0.9,10.3,2.7c2.2,1.7,3.6,4.5,3.6,7.8s-1.1,6.1-3.1,8
		c-2.6,2.4-6.5,3.5-10.9,3.5c-1,0-1.9-0.1-2.6-0.2v12.1h-7.6L397.3,272.3L397.3,272.3z M404.8,287.6c0.7,0.2,1.5,0.2,2.6,0.2
		c4,0,6.5-2.1,6.5-5.5c0-3.1-2.2-4.9-5.9-4.9c-1.6,0-2.6,0.2-3.2,0.3V287.6z"/>
	<path class="st1" d="M457.2,288.4c0,11-6.7,17.7-16.5,17.7c-10,0-15.8-7.6-15.8-17.1c0-10.1,6.5-17.7,16.4-17.7
		C451.5,271.3,457.2,279.1,457.2,288.4z M432.8,288.8c0,6.6,3.1,11.3,8.2,11.3c5.2,0,8.1-4.9,8.1-11.5c0-6-2.9-11.3-8.2-11.3
		C435.8,277.3,432.8,282.2,432.8,288.8z"/>
	<path class="st1" d="M462.2,272.3c2.4-0.4,6.1-0.7,10.2-0.7c5,0,8.5,0.8,10.9,2.7c2,1.6,3.1,4,3.1,7.1c0,4.3-3,7.2-5.9,8.3v0.2
		c2.3,0.9,3.6,3.2,4.5,6.3c1,3.8,2.1,8.2,2.8,9.5h-7.8c-0.5-1-1.4-3.7-2.3-7.8c-0.9-4.2-2.3-5.3-5.4-5.4h-2.3v13.3h-7.6V272.3z
		 M469.8,286.8h3c3.8,0,6-1.9,6-4.8c0-3.1-2.1-4.7-5.6-4.7c-1.8,0-2.9,0.2-3.4,0.3V286.8z"/>
	<path class="st1" d="M498.4,278.3h-9v-6.4h25.8v6.4H506v27.3h-7.7L498.4,278.3L498.4,278.3z"/>
	<path class="st1" d="M537,271.9v12.9h12.6v-12.9h7.6v33.7h-7.6v-14.1H537v14.1h-7.7v-33.7H537z"/>
	<path class="st1" d="M594.6,288.4c0,11-6.7,17.7-16.5,17.7c-10,0-15.8-7.6-15.8-17.1c0-10.1,6.5-17.7,16.4-17.7
		C589,271.3,594.6,279.1,594.6,288.4z M570.3,288.8c0,6.6,3.1,11.3,8.2,11.3c5.2,0,8.1-4.9,8.1-11.5c0-6-2.9-11.3-8.2-11.3
		C573.2,277.3,570.3,282.2,570.3,288.8z"/>
	<path class="st1" d="M599.6,271.9h7.7v27.2h13.4v6.4h-21.1V271.9z"/>
	<path class="st1" d="M625.2,272.3c2.8-0.4,6.5-0.7,10.3-0.7c6.4,0,10.5,1.1,13.8,3.6c3.5,2.6,5.7,6.7,5.7,12.7
		c0,6.5-2.3,10.9-5.6,13.6c-3.5,2.9-9,4.3-15.6,4.3c-4,0-6.7-0.3-8.6-0.5V272.3z M632.8,299.8c0.7,0.2,1.7,0.2,2.7,0.2
		c6.9,0.1,11.4-3.8,11.4-11.8c0.1-7-4-10.7-10.6-10.7c-1.7,0-2.8,0.2-3.4,0.3V299.8z"/>
	<path class="st1" d="M680,291.3h-12.4v8h13.8v6.3h-21.5v-33.7h20.8v6.3h-13v7H680V291.3z"/>
	<path class="st1" d="M686.7,272.3c2.4-0.4,6.1-0.7,10.2-0.7c5,0,8.5,0.8,10.9,2.7c2,1.6,3.1,4,3.1,7.1c0,4.3-3,7.2-5.9,8.3v0.2
		c2.3,0.9,3.6,3.2,4.5,6.3c1,3.8,2.1,8.2,2.8,9.5h-7.8c-0.5-1-1.4-3.7-2.3-7.8c-0.9-4.2-2.3-5.3-5.4-5.4h-2.3v13.3h-7.6V272.3z
		 M694.2,286.8h3c3.8,0,6-1.9,6-4.8c0-3.1-2.1-4.7-5.6-4.7c-1.8,0-2.9,0.2-3.4,0.3V286.8z"/>
</g>
</svg>
