<?xml version="1.0" encoding="utf-8"?>
<!-- Generator: Adobe Illustrator 19.0.0, SVG Export Plug-In . SVG Version: 6.00 Build 0)  -->
<svg version="1.1" id="Capa_1" xmlns="http://www.w3.org/2000/svg" xmlns:xlink="http://www.w3.org/1999/xlink" x="0px" y="0px"
	 viewBox="0 91 612 612" style="enable-background:new 0 91 612 612;" xml:space="preserve">
<g>
	<g>
		<path d="M588.3,213.6l-123.5-35.8v476.9c0,2.4-0.1,4.7-0.4,7c15.1,1.5,29.7-7.9,34.1-23.1l111.8-385.2
			C615.2,236.4,605.4,218.5,588.3,213.6z"/>
		<path d="M182,230.9c-13.2,5.8-25,14.1-34.8,24.4h23.8C174.2,246.2,177.9,238,182,230.9z"/>
		<path d="M165.3,276.8h-33.9c-7,12.4-11.5,26.4-13,41.3h42C160.9,303.3,162.6,289.5,165.3,276.8z"/>
		<path d="M301.9,255.3c-9.8-10.3-21.6-18.6-34.8-24.4c4.2,7.1,7.9,15.3,10.9,24.4H301.9z"/>
		<path d="M147.2,402.3c9.8,10.3,21.6,18.6,34.8,24.4c-4.2-7.1-7.9-15.3-10.9-24.4H147.2z"/>
		<path d="M267.3,318c-0.7-15-2.7-29-5.7-41.3h-74.1c-3,12.3-5,26.2-5.7,41.3L267.3,318L267.3,318z"/>
		<path d="M224.6,222c-10.6,0-21.9,12.5-30.2,33.3h60.5C246.5,234.6,235.2,222,224.6,222z"/>
		<path d="M160.3,339.5h-42c1.5,14.9,6.1,28.8,13,41.3h33.9C162.6,368.1,160.9,354.2,160.3,339.5z"/>
		<path d="M288.8,318h42c-1.5-14.9-6.1-28.8-13-41.3h-33.9C286.6,289.5,288.3,303.3,288.8,318z"/>
		<path d="M224.6,435.6c10.6,0,21.9-12.5,30.3-33.3h-60.5C202.7,423,213.9,435.6,224.6,435.6z"/>
		<path d="M283.9,380.8h33.9c7-12.4,11.5-26.4,13-41.3h-42C288.3,354.2,286.6,368.1,283.9,380.8z"/>
		<path d="M113,528.1H94.6v35.1H113c14.6,0,22-6,22-17.8C135,533.9,127.6,528.1,113,528.1z"/>
		<polygon points="172.4,566.4 197.9,566.4 185.1,538.6 		"/>
		<path d="M400.4,91H48.8c-26.6,0-48.3,21.7-48.3,48.3v515.4c0,26.6,21.7,48.3,48.3,48.3h351.6c26.6,0,48.3-21.7,48.3-48.3V139.3
			C448.7,112.7,427,91,400.4,91z M224.6,200.5c70.7,0,128.3,57.5,128.3,128.3s-57.5,128.3-128.3,128.3
			c-70.7,0-128.3-57.5-128.3-128.3C96.3,258.1,153.8,200.5,224.6,200.5z M94.6,580.1v20.4c0,4.4-3.6,8.1-8.1,8.1h-0.8
			c-4.4,0-8.1-3.6-8.1-8v-81.1c0-4.4,3.6-8,8.1-8H113c24,0,38.8,13.1,38.8,34.1c0,21.4-14.9,34.7-38.8,34.7L94.6,580.1L94.6,580.1z
			 M230.2,604.8c-1.5,2.3-4,3.7-6.8,3.7h-0.9c-3.1,0-6-1.8-7.3-4.7l-9.4-20.5h-40.9l-9.3,20.5c-1.3,2.9-4.2,4.7-7.3,4.7h-1.1
			c-2.7,0-5.3-1.4-6.8-3.7c-1.5-2.3-1.7-5.2-0.5-7.7l37.1-81.1c1.3-2.9,4.2-4.7,7.3-4.7h0.8c0,0,0,0,0,0h0.8c3.1,0,6,1.8,7.3,4.7
			l37.6,81.1C231.8,599.5,231.6,602.4,230.2,604.8z M265.9,608.5c-11.9,0-24.4-5-32.7-13.1c-1.6-1.5-2.4-3.6-2.5-5.7
			c0-2.2,0.8-4.2,2.4-5.8l0.5-0.5c3.1-3.1,8.2-3.1,11.4,0c4.9,4.9,13.3,8.2,21,8.2c8.5,0,18.4-2.7,18.4-10.5c0.1-7.5-4.4-10-19-14.4
			c-12.9-3.9-30.5-9.2-30.5-29.8c0-15.3,13.5-25.6,33.6-25.6c8.7,0,18.3,2.5,25.1,6.6c1.8,1.1,3.2,2.9,3.7,5s0.1,4.3-1,6.1l-0.3,0.5
			c-2.3,3.7-7.2,4.9-11,2.7c-4.1-2.5-10.7-4.1-16.4-4.1c-7.7,0-16.8,2.3-16.8,8.7c0,7,4.4,9.4,18.7,13.7c13.1,4,31,9.4,30.8,30.6
			C301.2,597.5,287,608.5,265.9,608.5z M336.1,608.5c-11.9,0-24.4-5-32.7-13.1c-1.6-1.5-2.4-3.6-2.5-5.7c0-2.2,0.8-4.2,2.4-5.8
			l0.5-0.5c3.1-3.1,8.2-3.2,11.4,0c4.9,4.9,13.4,8.2,21,8.2c8.5,0,18.4-2.7,18.4-10.5c0.1-7.5-4.5-10-19-14.4
			c-12.9-3.9-30.5-9.2-30.5-29.8c0-15.3,13.5-25.6,33.6-25.6c8.7,0,18.3,2.5,25.1,6.6c1.9,1.1,3.2,2.9,3.7,5c0.5,2.1,0.1,4.3-1,6.1
			l-0.3,0.5c-2.3,3.7-7.2,4.9-10.9,2.6c-4.1-2.5-10.7-4.1-16.4-4.1c-7.7,0-16.8,2.3-16.8,8.7c0,7,4.4,9.4,18.7,13.7
			c13.1,4,31,9.4,30.8,30.6C371.4,597.5,357.2,608.5,336.1,608.5z"/>
		<path d="M181.8,339.5c0.7,15,2.7,29,5.7,41.3h74.1c3-12.3,5-26.2,5.7-41.3H181.8L181.8,339.5z"/>
		<path d="M267.1,426.7c13.2-5.8,25-14.1,34.8-24.4h-23.8C275,411.4,271.3,419.6,267.1,426.7z"/>
	</g>
</g>
</svg>
