<?xml version="1.0" encoding="utf-8"?>
<!-- Generator: Adobe Illustrator 19.0.0, SVG Export Plug-In . SVG Version: 6.00 Build 0)  -->
<svg version="1.1" id="Layer_1" xmlns="http://www.w3.org/2000/svg" xmlns:xlink="http://www.w3.org/1999/xlink" x="0px" y="0px"
	 viewBox="-219 -184 512 512" style="enable-background:new -219 -184 512 512;" xml:space="preserve">
<style type="text/css">
	.st0{fill-rule:evenodd;clip-rule:evenodd;fill:#BD2F32;}
	.st1{fill:#FFFFFF;}
</style>
<g id="XMLID_29_">
	<rect id="XMLID_28_" x="-219" y="-185" class="st0" width="512" height="512"/>
	<g id="XMLID_30_">
		<rect id="XMLID_31_" x="-146.7" y="254.2" class="st1" width="367.3" height="2.1"/>
	</g>
</g>
<g id="XMLID_186_">
	<g id="XMLID_187_">
		<g id="XMLID_188_" transform="translate(0.000000,511.000000) scale(0.100000,-0.100000)">
			<path id="XMLID_197_" class="st1" d="M16.9,6056.8v-285l-27.8-8c-63.2-16.4-112.2-56.6-139.6-111.4l-15.3-30.7v-963.1v-963.1
				l21.9-63.2c38-108.1,110.3-207.2,196.6-268.9c314.2-222.5,746.4-62.5,840.7,312c13.2,52.6,13.2,69.1,12.1,999.6l-1.8,946.3
				l-15.3,30.7c-27.4,55.2-76.4,95-139.6,111.4l-27.8,8v285v285.3H369.1H17.2L16.9,6056.8L16.9,6056.8z M587.9,5990.3v-219.2H368.7
				H149.5v219.2v219.2h219.2h219.2V5990.3z M748.7,5625c9.1-6.6,20.1-21.2,24.5-31.1c5.5-13.9,7.3-255.7,5.8-945.2l-1.8-926.5
				l-17.9-48.6c-49.7-136.6-156-234.9-290.8-270.4c-59.9-15.3-173.2-11.3-230.5,8.8c-122.8,43.1-219.9,142.1-263.1,267.1l-14.6,43.1
				l-1.8,926.5c-1.5,689.4,0.7,930.9,5.8,945.2c4.7,9.9,15.3,24.5,24.5,31.1c16.1,12.4,28.5,13.2,380,13.2S732.9,5637.8,748.7,5625z
				"/>
			<path id="XMLID_196_" class="st1" d="M209.4,5897.2v-66.5h63.2h63.2v66.5v66.5h-63.2h-63.2V5897.2z"/>
			<path id="XMLID_195_" class="st1" d="M401.9,5897.2v-66.5h63.2h63.2v66.5v66.5h-63.2h-63.2V5897.2L401.9,5897.2z"/>
			<path id="XMLID_194_" class="st1" d="M95.4,5521.9c-25.2-13.9-35.1-48.6-22.7-78.2c5.5-13.2,15.3-26.7,22.7-30.7
				c18.6-9.9,528.7-9.9,547.3,0c21.2,11.3,34,49.3,25.2,76.4c-13.9,42-16.4,42.4-300.3,42.4C158.2,5531.4,110,5530,95.4,5521.9z"/>
			<path id="XMLID_193_" class="st1" d="M94.7,5332.3c-21.2-12.4-33.2-49.7-24.5-76.4c13.9-42,17.2-42.4,298.9-42.4
				c284.2,0,286.1,0,298.1,43.8c8,28.5-4,63.6-24.5,74.9C623.7,5342.2,111.1,5342.2,94.7,5332.3z"/>
			<path id="XMLID_192_" class="st1" d="M106.4,5147.5c-41.3-17.2-52.6-74.5-20.5-105.6l17.2-17.9h265.6h265.6l17.2,17.9
				c24.5,24.5,24.5,65.8,0,90.2l-17.2,17.9l-257.6,1.5C235.3,5152.2,113.7,5150,106.4,5147.5z"/>
			<path id="XMLID_189_" class="st1" d="M276.6,4140.2c-125-33.2-222.5-136.6-249.5-264.9c-12.1-58.5-12.1-87.7,0-146.1
				c14.6-67.6,44.6-124.2,92.4-172.1c138.1-139.6,361.3-139.6,499.4,0c187.8,189.3,98.3,515.9-160,583.8
				C410,4153.3,324.5,4152.6,276.6,4140.2z M452,4007.2c46.4-16.1,103-73.1,121.7-124.2c31.8-85.1,13.2-173.2-51.1-237.8
				c-44.6-44.6-88.4-61.7-153.4-61.7s-108.9,17.2-153.4,61.7c-45.7,45.7-65.8,93.5-65.8,156.7c0,74.9,41.3,151.3,102.3,188.5
				C306.6,4024.7,382.9,4030.6,452,4007.2z"/>
		</g>
	</g>
</g>
<g>
	<path d="M-66.7,275.1c2.2-0.4,5.2-0.7,9.3-0.7s7.1,0.7,9.3,2.2c1.9,1.5,3.3,4.1,3.3,7.1c0,3-1.1,5.6-2.6,7.1
		c-2.2,2.2-5.6,3.3-9.7,3.3c-0.7,0-1.9,0-2.2,0v10.8h-6.7v-29.8H-66.7z M-60,288.8c0.7,0,1.1,0,2.2,0c3.7,0,6-1.9,6-4.8
		c0-2.6-1.9-4.5-5.2-4.5c-1.5,0-2.2,0-3,0.4C-60,279.9-60,288.8-60,288.8z"/>
	<path d="M-22.7,291.8h-11.2v7.1h12.3v5.6H-41v-30.1h18.6v5.6h-11.9v6.3h11.2v5.6H-22.7z"/>
	<path d="M-16.8,304.8v-30.1H-9l6.3,11.2c1.9,3.3,3.7,7.1,4.8,10.4l0,0c-0.4-4.1-0.7-8.2-0.7-12.7v-8.9h6.3v30.1H0.7l-6.3-11.5
		c-1.9-3.3-3.7-7.1-5.2-10.8l0,0c0,4.1,0.4,8.2,0.4,13v8.9h-6.3V304.8z"/>
	<path d="M23,275.1c2.6-0.4,5.6-0.7,9.3-0.7c5.6,0,9.3,1.1,12.3,3.3s5.2,6,5.2,11.2c0,5.6-2.2,9.7-4.8,12.3
		c-3.3,2.6-7.8,3.7-13.8,3.7c-3.3,0-6-0.4-7.8-0.4v-29.4H23z M29.7,299.6c0.7,0,1.5,0,2.2,0c6.3,0,10-3.3,10-10.4
		c0-6.3-3.7-9.7-9.3-9.7c-1.5,0-2.6,0-3,0.4V299.6z"/>
	<path d="M53.9,275.1c2.2-0.4,5.6-0.7,8.9-0.7c4.5,0,7.4,0.7,9.7,2.2c1.9,1.5,2.6,3.3,2.6,6.3c0,3.7-2.6,6.3-5.2,7.4l0,0
		c2.2,0.7,3.3,3,4.1,5.6c1.1,3.3,1.9,7.4,2.6,8.6h-6.7c-0.4-0.7-1.1-3.3-2.2-7.1c-0.7-3.7-2.2-4.8-4.8-4.8h-2.2v11.9h-6.7V275.1z
		 M60.6,288.1h2.6c3.3,0,5.6-1.9,5.6-4.5s-1.9-4.1-4.8-4.1c-1.5,0-2.6,0-3,0.4v8.2H60.6z"/>
	<path d="M87.4,274.7v30.1h-6.7v-30.1H87.4z"/>
	<path d="M100.5,304.8l-9.7-30.1h7.4l3.7,12.7c1.1,3.7,1.9,7.1,2.6,10.8l0,0c0.7-3.7,1.9-7.1,2.6-10.8l3.7-13h7.4l-10,30.1h-7.8
		V304.8z"/>
	<path d="M139.5,291.8h-11.2v7.1h12.3v5.6h-19.4v-30.1h18.6v5.6H128v6.3h11.2v5.6H139.5z"/>
</g>
<g>
	<path class="st1" d="M-72.3,275.1c2.2-0.4,5.2-0.7,9.3-0.7s7.1,0.7,9.3,2.2c1.9,1.5,3.3,4.1,3.3,7.1c0,3-1.1,5.6-2.6,7.1
		c-2.2,2.2-5.6,3.3-9.7,3.3c-0.7,0-1.9,0-2.2,0v10.8h-6.7v-29.8H-72.3z M-65.6,288.8c0.7,0,1.1,0,2.2,0c3.7,0,6-1.9,6-4.8
		c0-2.6-1.9-4.5-5.2-4.5c-1.5,0-2.2,0-3,0.4C-65.6,279.9-65.6,288.8-65.6,288.8z"/>
	<path class="st1" d="M-28.4,291.8h-11.2v7.1h12.3v5.6h-19.4v-30.1H-28v5.6h-11.9v6.3h11.2v5.6H-28.4z"/>
	<path class="st1" d="M-22.4,304.8v-30.1h7.8l6.3,11.2c1.9,3.3,3.7,7.1,4.8,10.4l0,0c-0.4-4.1-0.7-8.2-0.7-12.7v-8.9h6.3v30.1H-5
		l-6.3-11.5c-1.9-3.3-3.7-7.1-5.2-10.8l0,0c0,4.1,0.4,8.2,0.4,13v8.9h-6.3V304.8z"/>
	<path class="st1" d="M17.4,275.1c2.6-0.4,5.6-0.7,9.3-0.7c5.6,0,9.3,1.1,12.3,3.3s5.2,6,5.2,11.2c0,5.6-2.2,9.7-4.8,12.3
		c-3.3,2.6-7.8,3.7-13.8,3.7c-3.3,0-6-0.4-7.8-0.4v-29.4H17.4z M24.1,299.6c0.7,0,1.5,0,2.2,0c6.3,0,10-3.3,10-10.4
		c0-6.3-3.7-9.7-9.3-9.7c-1.5,0-2.6,0-3,0.4V299.6z"/>
	<path class="st1" d="M48.3,275.1c2.2-0.4,5.6-0.7,8.9-0.7c4.5,0,7.4,0.7,9.7,2.2c1.9,1.5,2.6,3.3,2.6,6.3c0,3.7-2.6,6.3-5.2,7.4
		l0,0c2.2,0.7,3.3,3,4.1,5.6c1.1,3.3,1.9,7.4,2.6,8.6h-6.7c-0.4-0.7-1.1-3.3-2.2-7.1c-0.7-3.7-2.2-4.8-4.8-4.8H55v11.9h-6.7V275.1z
		 M55,288.1h2.6c3.3,0,5.6-1.9,5.6-4.5s-1.9-4.1-4.8-4.1c-1.5,0-2.6,0-3,0.4v8.2H55z"/>
	<path class="st1" d="M81.8,274.7v30.1h-6.7v-30.1H81.8z"/>
	<path class="st1" d="M94.8,304.8l-9.7-30.1h7.4l3.7,12.7c1.1,3.7,1.9,7.1,2.6,10.8l0,0c0.7-3.7,1.9-7.1,2.6-10.8l3.7-13h7.4
		l-10,30.1h-7.8V304.8z"/>
	<path class="st1" d="M133.9,291.8h-11.2v7.1H135v5.6h-19.4v-30.1h18.6v5.6h-11.9v6.3h11.2v5.6H133.9z"/>
</g>
</svg>
