<?xml version="1.0" encoding="utf-8"?>
<!-- Generator: Adobe Illustrator 19.0.0, SVG Export Plug-In . SVG Version: 6.00 Build 0)  -->
<svg version="1.1" id="Layer_1" xmlns="http://www.w3.org/2000/svg" xmlns:xlink="http://www.w3.org/1999/xlink" x="0px" y="0px"
	 viewBox="0 0 144 144" style="enable-background:new 0 0 144 144;" xml:space="preserve">
<style type="text/css">
	.st0{fill:#010101;}
</style>
<g id="XMLID_186_">
	<g id="XMLID_187_">
		<g id="XMLID_188_" transform="translate(0.000000,511.000000) scale(0.100000,-0.100000)">
			<path id="XMLID_197_" class="st0" d="M623.3,4733.4v-78l-7.6-2.2c-17.3-4.5-30.7-15.5-38.2-30.5l-4.2-8.4v-263.6v-263.6l6-17.3
				c10.4-29.6,30.2-56.7,53.8-73.6c86-60.9,204.3-17.1,230.1,85.4c3.6,14.4,3.6,18.9,3.3,273.6l-0.5,259l-4.2,8.4
				c-7.5,15.1-20.9,26-38.2,30.5l-7.6,2.2v78v78.1h-96.3h-96.3V4733.4z M779.6,4715.2v-60h-60h-60v60v60h60h60V4715.2z
				 M823.6,4615.2c2.5-1.8,5.5-5.8,6.7-8.5c1.5-3.8,2-70,1.6-258.7l-0.5-253.6l-4.9-13.3c-13.6-37.4-42.7-64.3-79.6-74
				c-16.4-4.2-47.4-3.1-63.1,2.4c-33.6,11.8-60.2,38.9-72,73.1l-4,11.8l-0.5,253.6c-0.4,188.7,0.2,254.8,1.6,258.7
				c1.3,2.7,4.2,6.7,6.7,8.5c4.4,3.4,7.8,3.6,104,3.6S819.3,4618.7,823.6,4615.2z"/>
			<path id="XMLID_196_" class="st0" d="M676,4689.7v-18.2h17.3h17.3v18.2v18.2h-17.3H676V4689.7z"/>
			<path id="XMLID_195_" class="st0" d="M728.7,4689.7v-18.2H746h17.3v18.2v18.2H746h-17.3L728.7,4689.7L728.7,4689.7z"/>
			<path id="XMLID_194_" class="st0" d="M644.8,4587c-6.9-3.8-9.6-13.3-6.2-21.4c1.5-3.6,4.2-7.3,6.2-8.4c5.1-2.7,144.7-2.7,149.8,0
				c5.8,3.1,9.3,13.5,6.9,20.9c-3.8,11.5-4.5,11.6-82.2,11.6C662,4589.6,648.8,4589.2,644.8,4587z"/>
			<path id="XMLID_193_" class="st0" d="M644.6,4535.1c-5.8-3.4-9.1-13.6-6.7-20.9c3.8-11.5,4.7-11.6,81.8-11.6
				c77.8,0,78.3,0,81.6,12c2.2,7.8-1.1,17.4-6.7,20.5C789.4,4537.8,649.1,4537.8,644.6,4535.1z"/>
			<path id="XMLID_192_" class="st0" d="M647.8,4484.5c-11.3-4.7-14.4-20.4-5.6-28.9l4.7-4.9h72.7h72.7l4.7,4.9
				c6.7,6.7,6.7,18,0,24.7l-4.7,4.9l-70.5,0.4C683.1,4485.8,649.8,4485.2,647.8,4484.5z"/>
			<path id="XMLID_189_" class="st0" d="M694.4,4208.8c-34.2-9.1-60.9-37.4-68.3-72.5c-3.3-16-3.3-24,0-40c4-18.5,12.2-34,25.3-47.1
				c37.8-38.2,98.9-38.2,136.7,0c51.4,51.8,26.9,141.2-43.8,159.8C730.9,4212.4,707.5,4212.2,694.4,4208.8z M742.4,4172.4
				c12.7-4.4,28.2-20,33.3-34c8.7-23.3,3.6-47.4-14-65.1c-12.2-12.2-24.2-16.9-42-16.9s-29.8,4.7-42,16.9
				c-12.5,12.5-18,25.6-18,42.9c0,20.5,11.3,41.4,28,51.6C702.6,4177.2,723.5,4178.8,742.4,4172.4z"/>
		</g>
	</g>
</g>
</svg>
