<?xml version="1.0" encoding="utf-8"?>
<!-- Generator: Adobe Illustrator 19.0.0, SVG Export Plug-In . SVG Version: 6.00 Build 0)  -->
<svg version="1.1" id="Layer_1" xmlns="http://www.w3.org/2000/svg" xmlns:xlink="http://www.w3.org/1999/xlink" x="0px" y="0px"
	 viewBox="-71 145 144 144" style="enable-background:new -71 145 144 144;" xml:space="preserve">
<style type="text/css">
	.st0{fill:#010101;}
</style>
<g id="XMLID_186_">
	<g id="XMLID_187_">
		<g id="XMLID_188_" transform="translate(0.000000,511.000000) scale(0.100000,-0.100000)">
			<path id="XMLID_197_" class="st0" d="M-86.7,3413.4v-78l-7.6-2.2c-17.3-4.5-30.7-15.5-38.2-30.5l-4.2-8.4v-263.6v-263.6l6-17.3
				c10.4-29.6,30.2-56.7,53.8-73.6c86-60.9,204.3-17.1,230.1,85.4c3.6,14.4,3.6,18.9,3.3,273.6l-0.5,259l-4.2,8.4
				c-7.5,15.1-20.9,26-38.2,30.5l-7.6,2.2v78v78.1H9.7h-96.3L-86.7,3413.4L-86.7,3413.4z M69.6,3395.2v-60h-60h-60v60v60h60h60
				V3395.2z M113.6,3295.2c2.5-1.8,5.5-5.8,6.7-8.5c1.5-3.8,2-70,1.6-258.7l-0.5-253.6l-4.9-13.3c-13.6-37.4-42.7-64.3-79.6-74
				c-16.4-4.2-47.4-3.1-63.1,2.4c-33.6,11.8-60.2,38.9-72,73.1l-4,11.8l-0.5,253.6c-0.4,188.7,0.2,254.8,1.6,258.7
				c1.3,2.7,4.2,6.7,6.7,8.5c4.4,3.4,7.8,3.6,104,3.6S109.3,3298.7,113.6,3295.2z"/>
			<path id="XMLID_196_" class="st0" d="M-34,3369.7v-18.2h17.3H0.6v18.2v18.2h-17.3H-34V3369.7z"/>
			<path id="XMLID_195_" class="st0" d="M18.7,3369.7v-18.2H36h17.3v18.2v18.2H36H18.7V3369.7L18.7,3369.7z"/>
			<path id="XMLID_194_" class="st0" d="M-65.2,3267c-6.9-3.8-9.6-13.3-6.2-21.4c1.5-3.6,4.2-7.3,6.2-8.4c5.1-2.7,144.7-2.7,149.8,0
				c5.8,3.1,9.3,13.5,6.9,20.9c-3.8,11.5-4.5,11.6-82.2,11.6C-48,3269.6-61.2,3269.2-65.2,3267z"/>
			<path id="XMLID_193_" class="st0" d="M-65.4,3215.1c-5.8-3.4-9.1-13.6-6.7-20.9c3.8-11.5,4.7-11.6,81.8-11.6
				c77.8,0,78.3,0,81.6,12c2.2,7.8-1.1,17.4-6.7,20.5C79.4,3217.8-60.9,3217.8-65.4,3215.1z"/>
			<path id="XMLID_192_" class="st0" d="M-62.2,3164.5c-11.3-4.7-14.4-20.4-5.6-28.9l4.7-4.9H9.6h72.7l4.7,4.9
				c6.7,6.7,6.7,18,0,24.7l-4.7,4.9l-70.5,0.4C-26.9,3165.8-60.2,3165.2-62.2,3164.5z"/>
			<path id="XMLID_189_" class="st0" d="M-15.6,2888.8c-34.2-9.1-60.9-37.4-68.3-72.5c-3.3-16-3.3-24,0-40c4-18.5,12.2-34,25.3-47.1
				c37.8-38.2,98.9-38.2,136.7,0c51.4,51.8,26.9,141.2-43.8,159.8C20.9,2892.4-2.5,2892.2-15.6,2888.8z M32.4,2852.4
				c12.7-4.4,28.2-20,33.3-34c8.7-23.3,3.6-47.4-14-65.1c-12.2-12.2-24.2-16.9-42-16.9s-29.8,4.7-42,16.9
				c-12.5,12.5-18,25.6-18,42.9c0,20.5,11.3,41.4,28,51.6C-7.4,2857.2,13.5,2858.8,32.4,2852.4z"/>
		</g>
	</g>
</g>
<g>
	<path d="M-26.7,258.7c0.6-0.1,1.4-0.2,2.5-0.2c1.1,0,1.9,0.2,2.5,0.6c0.5,0.4,0.9,1.1,0.9,1.9c0,0.8-0.3,1.5-0.7,1.9
		c-0.6,0.6-1.5,0.9-2.6,0.9c-0.2,0-0.5,0-0.6,0v2.9h-1.8V258.7z M-24.9,262.4c0.2,0,0.3,0,0.6,0c1,0,1.6-0.5,1.6-1.3
		c0-0.7-0.5-1.2-1.4-1.2c-0.4,0-0.6,0-0.8,0.1V262.4z"/>
	<path d="M-14.9,263.2h-3v1.9h3.3v1.5h-5.2v-8.1h5v1.5h-3.2v1.7h3V263.2z"/>
	<path d="M-13.3,266.7v-8.1h2.1l1.7,3c0.5,0.9,1,1.9,1.3,2.8h0c-0.1-1.1-0.2-2.2-0.2-3.4v-2.4h1.7v8.1h-1.9l-1.7-3.1
		c-0.5-0.9-1-1.9-1.4-2.9l0,0c0,1.1,0.1,2.2,0.1,3.5v2.4H-13.3z"/>
	<path d="M-2.6,258.7c0.7-0.1,1.5-0.2,2.5-0.2c1.5,0,2.5,0.3,3.3,0.9c0.8,0.6,1.4,1.6,1.4,3c0,1.5-0.6,2.6-1.3,3.3
		c-0.9,0.7-2.1,1-3.7,1c-0.9,0-1.6-0.1-2.1-0.1V258.7z M-0.8,265.3c0.2,0,0.4,0,0.6,0c1.7,0,2.7-0.9,2.7-2.8c0-1.7-1-2.6-2.5-2.6
		c-0.4,0-0.7,0-0.8,0.1V265.3z"/>
	<path d="M5.7,258.7c0.6-0.1,1.5-0.2,2.4-0.2c1.2,0,2,0.2,2.6,0.6c0.5,0.4,0.7,0.9,0.7,1.7c0,1-0.7,1.7-1.4,2v0
		c0.6,0.2,0.9,0.8,1.1,1.5c0.3,0.9,0.5,2,0.7,2.3H10c-0.1-0.2-0.3-0.9-0.6-1.9c-0.2-1-0.6-1.3-1.3-1.3H7.5v3.2H5.7V258.7z
		 M7.5,262.2h0.7c0.9,0,1.5-0.5,1.5-1.2c0-0.7-0.5-1.1-1.3-1.1c-0.4,0-0.7,0-0.8,0.1V262.2z"/>
	<path d="M14.7,258.6v8.1h-1.8v-8.1H14.7z"/>
	<path d="M18.2,266.7l-2.6-8.1h2l1,3.4c0.3,1,0.5,1.9,0.7,2.9h0c0.2-1,0.5-1.9,0.7-2.9l1-3.5H23l-2.7,8.1H18.2z"/>
	<path d="M28.7,263.2h-3v1.9H29v1.5h-5.2v-8.1h5v1.5h-3.2v1.7h3V263.2z"/>
</g>
</svg>
