<?xml version="1.0" encoding="utf-8"?>
<!-- Generator: Adobe Illustrator 19.0.0, SVG Export Plug-In . SVG Version: 6.00 Build 0)  -->
<svg version="1.1" id="Layer_1" xmlns="http://www.w3.org/2000/svg" xmlns:xlink="http://www.w3.org/1999/xlink" x="0px" y="0px"
	 viewBox="-71 145 144 144" style="enable-background:new -71 145 144 144;" xml:space="preserve">
<style type="text/css">
	.st0{fill:#010101;}
</style>
<g id="XMLID_116_">
	<g id="XMLID_117_">
		<g id="XMLID_118_" transform="translate(0.000000,511.000000) scale(0.100000,-0.100000)">
			<path id="XMLID_119_" class="st0" d="M326.5,3359.8c-15.1-2.2-36.6-10-50.2-18c-6.9-4.1-24-19.3-45.2-40.1l-33.8-33.5l-23.8,23.6
				l-24,23.6h-8.9h-9.1L12.8,3197c-65.4-65.2-121.2-121.9-124.2-125.8c-7.6-10.2-7.3-18.2,0.9-26.4c6.7-6.7,14.3-8.2,22.1-4.3
				c2.2,1.1,54.8,52.8,116.9,114.7l113,112.8l13.9-13.9l13.9-13.9L-59,3011.5l-228.4-228.6l-62.6-120.4
				c-57.8-111-62.6-120.8-61.3-126.9c2-11.9,14.3-19.3,24.9-15.4c2.8,1.1,57.6,29.2,121.9,62.6l117.1,60.8l228.6,228.1
				c226.6,226,228.6,228.1,233.3,225.4c6.1-3.5,11.9-3.5,18.8,0.2c9.7,4.8,13.2,20.1,6.7,28.3c-1.3,1.7,5.8,10.2,28.6,33.5
				c16.9,17.1,33.8,35.3,37.5,40.7c14.5,19.9,25.5,52,25.5,73.4c-0.2,22.5-9.3,46.1-24.3,61.9C388.2,3355,357.2,3364.5,326.5,3359.8
				z M358.9,3319.8c34.9-10.4,43.3-54.6,17.5-93.7c-7.2-11-63-68.8-66.4-68.8c-1.1,0-20.6,18.6-43.5,41.4l-41.4,41.4l33.1,32.5
				c34.8,34.2,45,41.4,65.8,47C337.1,3323.4,347,3323.4,358.9,3319.8z M240.1,3169.5l41.8-41.8l-46.5-46.1
				c-25.6-25.5-114.1-113.4-196.6-195.5l-150.2-149.4l-41.6,41.6l-41.8,41.8L0.7,3015.6c107.6,107.6,196.1,195.7,196.6,195.7
				C197.9,3211.3,217,3192.5,240.1,3169.5z M-180.3,2749.8l41.3-41.3l-16.4-16.4l-16.4-16.4l-85.3-44.4
				c-47-24.5-85.7-44.1-86.1-43.7c-0.4,0.4,19.5,39.4,44,86.8l45,86.1l15.2,15.4c8.4,8.4,15.6,15.2,16.2,15.2
				C-222.2,2791.3-203.2,2772.7-180.3,2749.8z"/>
		</g>
	</g>
</g>
<g>
	<path d="M-3.1,247.3c0.8-0.1,2-0.2,3.7-0.2c1.7,0,2.9,0.3,3.7,1c0.8,0.6,1.3,1.6,1.3,2.8c0,1.2-0.4,2.2-1.1,2.8
		c-0.9,0.9-2.3,1.3-3.9,1.3c-0.4,0-0.7,0-0.9-0.1v4.3h-2.7V247.3z M-0.4,252.7c0.2,0.1,0.5,0.1,0.9,0.1c1.4,0,2.3-0.7,2.3-2
		c0-1.1-0.8-1.8-2.1-1.8c-0.5,0-0.9,0.1-1.1,0.1V252.7z"/>
	<path d="M14.3,254H9.9v2.8h4.9v2.2H7.2v-12h7.4v2.2H9.9v2.5h4.4V254z"/>
	<path d="M16.7,259.1v-12h3.2l2.5,4.4c0.7,1.3,1.4,2.8,2,4.1h0.1c-0.2-1.6-0.2-3.2-0.2-5v-3.5h2.5v12h-2.8l-2.6-4.6
		c-0.7-1.3-1.5-2.8-2.1-4.2l-0.1,0c0.1,1.6,0.1,3.3,0.1,5.2v3.6H16.7z"/>
</g>
</svg>
