<?xml version="1.0" encoding="utf-8"?>
<!-- Generator: Adobe Illustrator 19.0.0, SVG Export Plug-In . SVG Version: 6.00 Build 0)  -->
<svg version="1.1" id="Layer_1" xmlns="http://www.w3.org/2000/svg" xmlns:xlink="http://www.w3.org/1999/xlink" x="0px" y="0px"
	 viewBox="-219 -184 512 512" style="enable-background:new -219 -184 512 512;" xml:space="preserve">
<style type="text/css">
	.st0{fill-rule:evenodd;clip-rule:evenodd;fill:#BD2F32;}
	.st1{fill:#FFFFFF;}
</style>
<g id="XMLID_29_">
	<rect id="XMLID_28_" x="-219" y="-185" class="st0" width="512" height="512"/>
	<g id="XMLID_30_">
		<rect id="XMLID_31_" x="-146.7" y="254.2" class="st1" width="367.3" height="2.1"/>
	</g>
</g>
<g id="XMLID_116_">
	<g id="XMLID_117_">
		<g id="XMLID_118_" transform="translate(0.000000,511.000000) scale(0.100000,-0.100000)">
			<path id="XMLID_119_" class="st1" d="M1484.2,6108.9c-53.2-7.7-128.9-35.2-176.8-63.4c-24.3-14.4-84.5-68-159.2-141.2l-119-118
				l-83.8,83.1l-84.5,83.1h-31.3h-32l-418-416.9c-230.3-229.6-426.8-429.2-437.3-443c-26.8-35.9-25.7-64.1,3.2-93
				c23.6-23.6,50.4-28.9,77.8-15.1c7.7,3.9,193,185.9,411.6,403.9l397.9,397.2l48.9-48.9l48.9-48.9l-803.9-805.3l-804.2-804.9
				l-220.4-423.9c-203.5-390.9-220.4-425.4-215.8-446.8c7-41.9,50.4-68,87.7-54.2c9.9,3.9,202.8,102.8,429.2,220.4l412.3,214.1
				l804.9,803.2c797.9,795.8,804.9,803.2,821.5,793.7c21.5-12.3,41.9-12.3,66.2,0.7c34.2,16.9,46.5,70.8,23.6,99.6
				c-4.6,6,20.4,35.9,100.7,118c59.5,60.2,119,124.3,132,143.3c51.1,70.1,89.8,183.1,89.8,258.5c-0.7,79.2-32.7,162.3-85.6,218
				C1701.5,6092,1592.3,6125.5,1484.2,6108.9z M1598.3,5968.1c122.9-36.6,152.5-192.3,61.6-329.9
				c-25.4-38.7-221.8-242.3-233.8-242.3c-3.9,0-72.5,65.5-153.2,145.8l-145.8,145.8l116.6,114.4
				c122.5,120.4,158.5,145.8,231.7,165.5C1521.5,5980.8,1556.4,5980.8,1598.3,5968.1z M1180,5438.9l147.2-147.2l-163.7-162.3
				c-90.1-89.8-401.8-399.3-692.3-688.4l-528.9-526.1l-146.5,146.5l-147.2,147.2L337,4897c378.9,378.9,690.5,689.1,692.3,689.1
				C1031.4,5586,1098.7,5519.9,1180,5438.9z M-300.3,3961l145.4-145.4l-57.7-57.7l-57.7-57.7l-300.4-156.3
				c-165.5-86.3-301.8-155.3-303.2-153.9c-1.4,1.4,68.7,138.7,154.9,305.6l158.5,303.2l53.5,54.2c29.6,29.6,54.9,53.5,57,53.5
				C-447.8,4107.2-380.9,4041.7-300.3,3961z"/>
		</g>
	</g>
</g>
<g>
	<path d="M-6.4,274.1c2.3-0.3,5.8-0.6,10.8-0.6s8.4,0.9,10.8,2.9c2.3,1.7,3.8,4.6,3.8,8.1s-1.2,6.4-3.2,8.1
		c-2.6,2.6-6.7,3.8-11.3,3.8c-1.2,0-2,0-2.6-0.3v12.5h-7.8v-34.6H-6.4z M1.4,289.8c0.6,0.3,1.5,0.3,2.6,0.3c4.1,0,6.7-2,6.7-5.8
		c0-3.2-2.3-5.2-6.1-5.2c-1.5,0-2.6,0.3-3.2,0.3C1.4,279.3,1.4,289.8,1.4,289.8z"/>
	<path d="M44.1,293.6H31.3v8.1h14.2v6.4H23.5v-34.9H45v6.4H31.3v7.3h12.8C44.1,286.9,44.1,293.6,44.1,293.6z"/>
	<path d="M51.1,308.4v-34.9h9.3l7.3,12.8c2,3.8,4.1,8.1,5.8,11.9h0.3c-0.6-4.6-0.6-9.3-0.6-14.5v-10.2h7.3v34.9h-8.1L64.8,295
		c-2-3.8-4.4-8.1-6.1-12.2h-0.3c0.3,4.6,0.3,9.6,0.3,15.1v10.5H51.1z"/>
</g>
<g>
	<path class="st1" d="M-12.1,274.1c2.3-0.3,5.8-0.6,10.8-0.6s8.4,0.9,10.8,2.9c2.3,1.7,3.8,4.6,3.8,8.1S12,291,10,292.7
		c-2.6,2.6-6.7,3.8-11.3,3.8c-1.2,0-2,0-2.6-0.3v12.5h-7.8v-34.6H-12.1z M-4.3,289.8c0.6,0.3,1.5,0.3,2.6,0.3c4.1,0,6.7-2,6.7-5.8
		c0-3.2-2.3-5.2-6.1-5.2c-1.5,0-2.6,0.3-3.2,0.3C-4.3,279.3-4.3,289.8-4.3,289.8z"/>
	<path class="st1" d="M38.5,293.6H25.7v8.1h14.2v6.4H17.8v-34.9h21.5v6.4H25.7v7.3h12.8C38.5,286.9,38.5,293.6,38.5,293.6z"/>
	<path class="st1" d="M45.4,308.4v-34.9h9.3l7.3,12.8c2,3.8,4.1,8.1,5.8,11.9h0.3c-0.6-4.6-0.6-9.3-0.6-14.5v-10.2h7.3v34.9h-8.1
		L59.1,295c-2-3.8-4.4-8.1-6.1-12.2h-0.3c0.3,4.6,0.3,9.6,0.3,15.1v10.5H45.4z"/>
</g>
</svg>
