<?xml version="1.0" encoding="utf-8"?>
<!-- Generator: Adobe Illustrator 19.0.0, SVG Export Plug-In . SVG Version: 6.00 Build 0)  -->
<svg version="1.1" id="Layer_1" xmlns="http://www.w3.org/2000/svg" xmlns:xlink="http://www.w3.org/1999/xlink" x="0px" y="0px"
	 viewBox="-219 -184 512 512" style="enable-background:new -219 -184 512 512;" xml:space="preserve">
<style type="text/css">
	.st0{fill-rule:evenodd;clip-rule:evenodd;fill:#BD2F32;}
	.st1{fill:#FFFFFF;}
</style>
<g id="XMLID_29_">
	<rect id="XMLID_28_" x="-219" y="-185" class="st0" width="512" height="512"/>
	<g id="XMLID_30_">
		<rect id="XMLID_31_" x="-146.7" y="254.2" class="st1" width="367.3" height="2.1"/>
	</g>
</g>
<g id="XMLID_56_">
	<g id="XMLID_57_" transform="translate(0.000000,512.000000) scale(0.100000,-0.100000)">
		<path id="XMLID_76_" class="st1" d="M-1082.7,6491.8c-34.6-11.3-81.5-61.6-91.4-97.6c-5.8-21.9-7.9-96.2-6.5-278
			c2.1-227.7,2.7-248.9,14-255.4c7.9-5.1,14.7-5.1,23.3,0c10.6,6.5,11.3,29.1,14.7,268.8c3.4,283.1,2.7,276.6,41.1,303
			c14,10.6,104.8,11.3,1112.4,14.7c1035.7,3.4,1097.3,4.1,1104.5,15.4c5.1,7.9,5.1,14.7,0,23.3c-7.2,10.6-67.1,11.3-1098,12
			C-753,6499.3-1066.3,6497.3-1082.7,6491.8z"/>
		<path id="XMLID_75_" class="st1" d="M1247.2,6492.5c-4.8-4.8-7.9-12.7-7.9-18.5c0-26,7.2-26.7,286.6-26.7
			c295.1,0,304.4-1.4,328.3-37.3c11.3-17.8,12-67.1,15.4-1102.4c3.4-1023.7,4.1-1084.6,15.4-1091.8c7.9-5.1,14.7-5.1,23.3,0
			c10.6,7.2,11.3,67.1,13.4,1078.1c1.4,831.3,0,1077.4-6.5,1100.7c-9.9,38.3-57.9,87-95.5,98.3
			C1780.6,6503.8,1258.5,6503.8,1247.2,6492.5z"/>
		<path id="XMLID_74_" class="st1" d="M-975.9,6292.2c-5.1-5.8-6.5-147.9-5.8-521.4c2.1-480.3,2.7-513.6,13.4-520.1
			c8.6-5.1,15.4-5.1,23.3,0c11.3,6.5,12,39,14,502.9l1.4,495.1H370h1300.3l1.4-143.5c2.1-128.7,3.4-144.5,14-151.3
			c7.9-5.1,14.7-5.1,23.3,0c9.9,6.5,11.3,23.3,13.4,168.4c1.4,112.6-0.7,164-5.8,169.8C1704.9,6306.2-964.9,6306.2-975.9,6292.2z"/>
		<path id="XMLID_73_" class="st1" d="M1144.8,6020.4c-36.6-9.9-51.7-20.5-51.7-37.3c0-24,17.1-29.1,53.8-17.1
			c126.7,40.4,251.3-47.9,251.3-178.4c0-104.1-84.9-189-189-189c-104.8,0-189,84.9-189,189.7c0,15.4,4.8,43.1,10.6,61.6
			c9.2,27.7,9.9,35.3,2.7,43.8c-24.7,29.8-56.5-10.6-63.7-81.5c-12-112,66.4-225.6,177-256.1c69.2-19.9,135.2-7.9,197.5,35.3
			c61.6,42.5,106.8,125.3,106.8,196.5C1451.2,5940.6,1293.4,6060.1,1144.8,6020.4z"/>
		<path id="XMLID_70_" class="st1" d="M1677.5,5835.1c-5.1-6.5-7.9-193.8-8.6-663.5l-2.1-653.9l-172.6,196.5
			c-330.4,377-363.6,413.2-374.9,413.2c-7.2,0-70.9-69.2-156.5-170.5c-80.1-93.5-153.4-179.7-164-191l-17.8-19.9l-32.5,35.9
			c-27.7,31.2-34.6,35.3-49.6,31.2c-28.4-7.2-21.9-29.8,23.3-80.8c44.5-50.3,53.8-57.9,67.8-51.7c5.1,2.1,43.1,43.8,84.9,92.8
			l75.7,89l79.8-79.8c43.8-43.8,84.2-79.8,89.7-79.8c5.8,0,45.9,35.9,89.7,79.8c43.8,43.8,81.5,79.1,84.2,78.4
			c2.1-1.4,88.3-97.6,190.4-214.3l186.6-211.6v-88.3v-88.3H370H-930.3v217.7V4694l155.8,175.3c86.3,96.9,159.9,182.5,164,190.4
			c8.6,17.8-2.1,35.3-21.9,35.3c-7.9,0-63.7-57.9-154.1-159.2l-140.7-159.2l-3.4,177c-2.7,158.5-4.8,177-14.7,183.9
			c-8.6,5.1-15.4,5.1-23.3,0c-11.3-6.5-12-37.3-14-460.5c-0.7-329,0.7-455.7,5.8-461.9c10.6-12.7,2678.7-14,2691.4-1.4
			c11.3,11.3,11.3,1611.5,0,1622.8C1704.9,5846.4,1686.8,5845.8,1677.5,5835.1z M1193.4,4978.2l65.1-72.9l-69.5-69.5l-69.2-69.5
			l-60.3,59.6c-33.2,33.2-62.3,64.4-65.7,70.2c-4.1,7.2,9.9,28.4,57.9,84.2c35.3,41.1,66.4,73.6,70.2,72.2
			C1124.9,5051.8,1157.5,5017.9,1193.4,4978.2z"/>
		<path id="XMLID_69_" class="st1" d="M-1175.1,5741.7c-20.5-24.7,5.8-68.5,31.2-53.1c24,15.4,15.4,62.3-12,62.3
			C-1162.5,5750.9-1171,5746.8-1175.1,5741.7z"/>
		<path id="XMLID_66_" class="st1" d="M-257.6,5528c-87.6-97.6-161.3-181.1-164-185.9c-3.4-5.1-3.4-15.4-1.4-22.6
			c7.2-21.9,31.2-15.7,63,16.4l29.1,29.8l70.2-69.5c38.3-38.3,74.3-69.5,79.8-69.5c5.5,0,29.1,20.5,53.1,46.6l43.1,46.6l92.1-99.6
			c50.3-55.1,96.9-99.6,102.7-99.6c5.8,0,41.8,28.4,79.1,63c37.7,34.6,69.5,63,70.9,63c1.4,0,72.9-79.1,159.2-176.3
			c138-154.8,159.9-175.6,175.3-173.9c44.5,5.1,33.9,18.5-327,422.5C60.5,5551-81.2,5704.4-88.1,5704.4
			C-94.9,5704.4-164.8,5631.4-257.6,5528z M70.1,5463.7l154.8-173.9l-54.4-51.7c-29.8-28.4-56.5-50.3-59.2-49.6
			c-2.7,1.4-45.9,45.9-96.2,100.3c-50.3,53.8-96.2,97.6-102.7,97.6c-5.8,0-29.8-21.2-53.1-47.2l-41.8-47.2l-55.8,55.8
			c-30.5,29.8-54.4,57.2-53.1,60.3c2.1,7.2,199.6,229.4,203.7,229.4C-85.7,5637.6-14.8,5559.2,70.1,5463.7z"/>
		<path id="XMLID_65_" class="st1" d="M-1175.1,5542.8c-5.5-6.5-6.5-218.8-6.2-793.3c2.1-739.2,2.7-784.7,14-792.2
			c7.9-5.1,14.7-5.1,23.3,0c10.6,7.2,11.3,53.1,13.4,792.2c0.7,574.5-0.7,786.8-5.8,793.3c-4.1,5.1-12.7,9.2-19.2,9.2
			C-1162.1,5552-1171,5547.9-1175.1,5542.8z"/>
		<path id="XMLID_64_" class="st1" d="M-527,5226.1c-20.5-12-11.3-52.4,12-52.4c24.7,0,39.7,47.9,18.5,55.8
			C-510.2,5235-513.7,5234.3-527,5226.1z"/>
		<path id="XMLID_63_" class="st1" d="M1876.8,4096.6c-20.5-24.7,5.8-68.5,31.2-53.1c24,15.4,15.4,62.3-12,62.3
			C1889.1,4105.8,1880.5,4101.7,1876.8,4096.6z"/>
		<path id="XMLID_62_" class="st1" d="M1877.1,3925.4c-5.8-5.8-7.9-60.9-7.9-207.1c0-224.3-2.1-235.6-46.6-257.5
			c-21.9-11.3-104.8-12-1451.7-12c-1557.1,0-1458.8-2.7-1485.2,37.3c-10.6,16.4-12.7,38.3-15.4,183.9
			c-2.7,148.6-4.8,166.4-15.4,173.2c-7.9,5.1-14.7,5.1-23.3,0c-9.9-6.5-11.3-22.6-11.3-172.6c0-157.8,0.7-166.4,14.7-193.1
			l14.7-27.7l-83.5-2.1c-70.9-2.1-84.9-4.1-90.7-13.4c-5.1-8.6-5.1-15.4,0-23.3c7.2-11.3,94.8-12,1694.4-12s1687.2,0.7,1694.4,12
			c5.1,7.9,5.1,14.7,0,23.3c-5.8,9.2-19.9,11.3-90.7,13.4l-83.5,2.1l14.7,27.7c14,26.7,14.7,35.9,16.4,232.1
			c1.4,148.6,0,207.5-5.8,214.3C1905.9,3935.3,1888.1,3936,1877.1,3925.4z"/>
		<path id="XMLID_61_" class="st1" d="M-464.7,3295.1c-10.6-10.6-9.9-28.4,1.4-37.7c5.8-5.1,66.4-7.2,206.5-5.8
			c179.7,2.1,198.2,3.4,205.1,14c5.1,7.9,5.1,14.7,0,23.3c-6.5,9.9-25.3,11.3-205.8,13.4C-406.8,3303-458.5,3300.9-464.7,3295.1z"/>
		<path id="XMLID_60_" class="st1" d="M225.5,3295.1c-10.6-10.6-9.9-28.4,1.4-37.7c5.8-5.1,69.2-7.2,216.4-5.8
			c189,2.1,208.2,3.4,215,14c5.1,7.9,5.1,14.7,0,23.3c-6.5,9.9-26,11.3-215.7,13.4C285.1,3303,231.3,3300.9,225.5,3295.1z"/>
		<path id="XMLID_59_" class="st1" d="M953.7,3192c-9.2-6.5-21.2-16.4-26.7-23.3c-9.2-10.6-27-12-198.2-14
			c-171.2-1.4-189-2.7-195.8-13.4c-5.1-7.9-5.1-14.7,0-23.3c6.5-9.9,25.3-11.3,211.6-13.4c139.3-0.7,207.1,0.7,213,5.8
			c4.8,4.1,9.2,13.4,10.6,21.2c2.7,20.5,34.6,20.5,37.3,0c4.1-26.7,14.7-29.1,117.4-27c84.9,2.1,98.9,3.4,105.5,14
			c5.1,7.9,5.1,14.7,0,23.3c-5.8,9.2-19.9,11.3-89.7,13.4c-69.2,1.4-83.5,3.4-92.1,13.4c-17.1,19.9-41.8,34.6-59.6,34.6
			C977.7,3203.3,962.3,3198.2,953.7,3192z"/>
		<path id="XMLID_58_" class="st1" d="M364.9,3149.2c-19.9-19.9-2.1-47.6,29.1-43.8c22.6,2.7,35.3,20.5,25.3,37.3
			C410.4,3156.4,376.5,3160.9,364.9,3149.2z"/>
	</g>
</g>
<g>
	<path d="M-80.5,276.3c1.8-0.3,4.2-0.6,7.6-0.6s5.8,0.6,7.6,1.8c1.5,1.2,2.7,3.3,2.7,5.8c0,2.4-0.9,4.5-2.1,5.8
		c-1.8,1.8-4.5,2.7-7.9,2.7c-0.6,0-1.5,0-1.8,0v8.8h-5.5v-24.3H-80.5z M-75,287.5c0.6,0,0.9,0,1.8,0c3,0,4.9-1.5,4.9-3.9
		c0-2.1-1.5-3.6-4.2-3.6c-1.2,0-1.8,0-2.4,0.3C-75,280.2-75,287.5-75,287.5z"/>
	<path d="M-53.8,276v9.4h9.1V276h5.5v24.6h-5.5v-10.3h-9.1v10.3h-5.5V276H-53.8z"/>
	<path d="M-11.7,288.1c0,8.2-4.9,13-12.1,13s-11.5-5.5-11.5-12.4c0-7.3,4.5-12.7,11.8-12.7C-15.9,275.7-11.7,281.1-11.7,288.1z
		 M-29.5,288.4c0,4.9,2.1,8.2,6.1,8.2c3.6,0,5.8-3.6,5.8-8.2s-2.1-8.2-6.1-8.2C-27.4,279.9-29.5,283.5-29.5,288.4z"/>
	<path d="M-4.4,280.8h-6.7v-4.5H7.7v4.5H1.1v19.7h-5.5V280.8z"/>
	<path d="M32.3,288.1c0,8.2-4.9,13-12.1,13s-11.5-5.5-11.5-12.4c0-7.3,4.5-12.7,11.8-12.7C28.1,275.7,32.3,281.1,32.3,288.1z
		 M14.4,288.4c0,4.9,2.1,8.2,6.1,8.2c3.6,0,5.8-3.6,5.8-8.2s-2.1-8.2-6.1-8.2C16.5,279.9,14.4,283.5,14.4,288.4z"/>
	<path d="M43.2,276h14.9v4.5h-9.4v5.5h8.8v4.5h-8.8v10h-5.5V276z"/>
	<path d="M62.3,276.3c1.8-0.3,4.5-0.6,7.3-0.6c3.6,0,6.1,0.6,7.9,1.8c1.5,1.2,2.1,2.7,2.1,5.2c0,3-2.1,5.2-4.2,6.1l0,0
		c1.8,0.6,2.7,2.4,3.3,4.5c0.9,2.7,1.5,6.1,2.1,7H75c-0.3-0.6-0.9-2.7-1.8-5.8c-0.6-3-1.8-3.9-3.9-3.9h-1.8v9.7h-5.2V276.3z
		 M67.8,286.9h2.1c2.7,0,4.5-1.5,4.5-3.6s-1.5-3.3-3.9-3.3c-1.2,0-2.1,0-2.4,0.3v6.7H67.8z"/>
	<path d="M89.9,294.2l-1.8,6.4h-5.8l7.6-24.6h7.3l7.6,24.6h-6.1l-1.8-6.4H89.9z M96.3,290.2l-1.5-5.2c-0.3-1.5-0.9-3.3-1.2-4.9l0,0
		c-0.3,1.5-0.6,3.3-1.2,4.9l-1.5,5.2H96.3z"/>
	<path d="M128.7,291.1c0-3-0.3-6.4-0.3-10l0,0c-0.9,3-1.8,6.7-2.7,9.4l-3,9.7h-4.2l-2.7-9.4c-0.9-3-1.5-6.4-2.1-9.7l0,0
		c0,3.3-0.3,7-0.3,10l-0.3,9.4h-5.2l1.5-24.6h7.3l2.4,8.2c0.9,2.7,1.5,5.8,2.1,8.8l0,0c0.6-2.7,1.5-6.1,2.4-8.8l2.7-8.2h7.3
		l1.2,24.6h-5.5L128.7,291.1z"/>
	<path d="M153.6,290.2h-9.1v5.8h10v4.5h-15.8V276h15.2v4.5h-9.7v5.2h9.1v4.5H153.6z"/>
</g>
<g>
	<path class="st1" d="M-86.1,276.3c1.8-0.3,4.2-0.6,7.6-0.6c3.3,0,5.8,0.6,7.6,1.8c1.5,1.2,2.7,3.3,2.7,5.8c0,2.4-0.9,4.5-2.1,5.8
		c-1.8,1.8-4.5,2.7-7.9,2.7c-0.6,0-1.5,0-1.8,0v8.8h-5.5v-24.3H-86.1z M-80.7,287.5c0.6,0,0.9,0,1.8,0c3,0,4.9-1.5,4.9-3.9
		c0-2.1-1.5-3.6-4.2-3.6c-1.2,0-1.8,0-2.4,0.3C-80.7,280.2-80.7,287.5-80.7,287.5z"/>
	<path class="st1" d="M-59.5,276v9.4h9.1V276h5.5v24.6h-5.5v-10.3h-9.1v10.3h-5.5V276H-59.5z"/>
	<path class="st1" d="M-17.3,288.1c0,8.2-4.9,13-12.1,13S-41,295.7-41,288.7c0-7.3,4.5-12.7,11.8-12.7
		C-21.6,275.7-17.3,281.1-17.3,288.1z M-35.2,288.4c0,4.9,2.1,8.2,6.1,8.2c3.6,0,5.8-3.6,5.8-8.2s-2.1-8.2-6.1-8.2
		C-33.1,279.9-35.2,283.5-35.2,288.4z"/>
	<path class="st1" d="M-10.1,280.8h-6.7v-4.5H2.1v4.5h-6.7v19.7h-5.5V280.8z"/>
	<path class="st1" d="M26.6,288.1c0,8.2-4.9,13-12.1,13S3,295.7,3,288.7c0-7.3,4.5-12.7,11.8-12.7C22.4,275.7,26.6,281.1,26.6,288.1
		z M8.7,288.4c0,4.9,2.1,8.2,6.1,8.2c3.6,0,5.8-3.6,5.8-8.2s-2.1-8.2-6.1-8.2C10.9,279.9,8.7,283.5,8.7,288.4z"/>
	<path class="st1" d="M37.5,276h14.9v4.5H43v5.5h8.8v4.5H43v10h-5.5V276z"/>
	<path class="st1" d="M56.6,276.3c1.8-0.3,4.5-0.6,7.3-0.6c3.6,0,6.1,0.6,7.9,1.8c1.5,1.2,2.1,2.7,2.1,5.2c0,3-2.1,5.2-4.2,6.1l0,0
		c1.8,0.6,2.7,2.4,3.3,4.5c0.9,2.7,1.5,6.1,2.1,7h-5.8c-0.3-0.6-0.9-2.7-1.8-5.8c-0.6-3-1.8-3.9-3.9-3.9h-1.8v9.7h-5.2V276.3z
		 M62.1,286.9h2.1c2.7,0,4.5-1.5,4.5-3.6s-1.5-3.3-3.9-3.3c-1.2,0-2.1,0-2.4,0.3v6.7H62.1z"/>
	<path class="st1" d="M84.2,294.2l-1.8,6.4h-5.8l7.6-24.6h7.3l7.6,24.6H93l-1.8-6.4H84.2z M90.6,290.2l-1.5-5.2
		c-0.3-1.5-0.9-3.3-1.2-4.9l0,0c-0.3,1.5-0.6,3.3-1.2,4.9l-1.5,5.2H90.6z"/>
	<path class="st1" d="M123,291.1c0-3-0.3-6.4-0.3-10l0,0c-0.9,3-1.8,6.7-2.7,9.4l-3,9.7h-4.2l-2.7-9.4c-0.9-3-1.5-6.4-2.1-9.7l0,0
		c0,3.3-0.3,7-0.3,10l-0.3,9.4h-5.2l1.5-24.6h7.3l2.4,8.2c0.9,2.7,1.5,5.8,2.1,8.8l0,0c0.6-2.7,1.5-6.1,2.4-8.8l2.7-8.2h7.3
		l1.2,24.6h-5.5L123,291.1z"/>
	<path class="st1" d="M147.9,290.2h-9.1v5.8h10v4.5H133V276h15.2v4.5h-9.7v5.2h9.1v4.5H147.9z"/>
</g>
</svg>
