<?xml version="1.0" encoding="utf-8"?>
<!-- Generator: Adobe Illustrator 19.0.0, SVG Export Plug-In . SVG Version: 6.00 Build 0)  -->
<svg version="1.1" id="Layer_1" xmlns="http://www.w3.org/2000/svg" xmlns:xlink="http://www.w3.org/1999/xlink" x="0px" y="0px"
	 viewBox="-71 145 144 144" style="enable-background:new -71 145 144 144;" xml:space="preserve">
<style type="text/css">
	.st0{fill:#010101;}
</style>
<g id="XMLID_55_">
	<g id="XMLID_56_">
		<g id="XMLID_57_" transform="translate(0.000000,512.000000) scale(0.100000,-0.100000)">
			<path id="XMLID_76_" class="st0" d="M-414.3,3443.3c-10.1-3.3-23.8-18-26.7-28.5c-1.7-6.4-2.3-28.1-1.9-81.2
				c0.6-66.5,0.8-72.7,4.1-74.6c2.3-1.5,4.3-1.5,6.8,0c3.1,1.9,3.3,8.5,4.3,78.5c1,82.7,0.8,80.8,12,88.5
				c4.1,3.1,30.6,3.3,324.9,4.3c302.5,1,320.5,1.2,322.6,4.5c1.5,2.3,1.5,4.3,0,6.8c-2.1,3.1-19.6,3.3-320.7,3.5
				C-318,3445.5-409.5,3444.9-414.3,3443.3z"/>
			<path id="XMLID_75_" class="st0" d="M266.2,3443.5c-1.4-1.4-2.3-3.7-2.3-5.4c0-7.6,2.1-7.8,83.7-7.8c86.2,0,88.9-0.4,95.9-10.9
				c3.3-5.2,3.5-19.6,4.5-322c1-299,1.2-316.8,4.5-318.9c2.3-1.5,4.3-1.5,6.8,0c3.1,2.1,3.3,19.6,3.9,314.9
				c0.4,242.8,0,314.7-1.9,321.5c-2.9,11.2-16.9,25.4-27.9,28.7C422,3446.8,269.5,3446.8,266.2,3443.5z"/>
			<path id="XMLID_74_" class="st0" d="M-383.1,3385c-1.5-1.7-1.9-43.2-1.7-152.3c0.6-140.3,0.8-150,3.9-151.9
				c2.5-1.5,4.5-1.5,6.8,0c3.3,1.9,3.5,11.4,4.1,146.9l0.4,144.6H10h379.8l0.4-41.9c0.6-37.6,1-42.2,4.1-44.2c2.3-1.5,4.3-1.5,6.8,0
				c2.9,1.9,3.3,6.8,3.9,49.2c0.4,32.9-0.2,47.9-1.7,49.6C399.9,3389.1-379.9,3389.1-383.1,3385z"/>
			<path id="XMLID_73_" class="st0" d="M236.3,3305.6c-10.7-2.9-15.1-6-15.1-10.9c0-7,5-8.5,15.7-5c37,11.8,73.4-14,73.4-52.1
				c0-30.4-24.8-55.2-55.2-55.2c-30.6,0-55.2,24.8-55.2,55.4c0,4.5,1.4,12.6,3.1,18c2.7,8.1,2.9,10.3,0.8,12.8
				c-7.2,8.7-16.5-3.1-18.6-23.8c-3.5-32.7,19.4-65.9,51.7-74.8c20.2-5.8,39.5-2.3,57.7,10.3c18,12.4,31.2,36.6,31.2,57.4
				C325.8,3282.3,279.7,3317.2,236.3,3305.6z"/>
			<path id="XMLID_70_" class="st0" d="M391.9,3251.5c-1.5-1.9-2.3-56.6-2.5-193.8l-0.6-191l-50.4,57.4
				c-96.5,110.1-106.2,120.7-109.5,120.7c-2.1,0-20.7-20.2-45.7-49.8c-23.4-27.3-44.8-52.5-47.9-55.8l-5.2-5.8l-9.5,10.5
				c-8.1,9.1-10.1,10.3-14.5,9.1c-8.3-2.1-6.4-8.7,6.8-23.6c13-14.7,15.7-16.9,19.8-15.1c1.5,0.6,12.6,12.8,24.8,27.1l22.1,26
				l23.3-23.3c12.8-12.8,24.6-23.3,26.2-23.3c1.7,0,13.4,10.5,26.2,23.3c12.8,12.8,23.8,23.1,24.6,22.9c0.6-0.4,25.8-28.5,55.6-62.6
				l54.5-61.8v-25.8V2791H10h-379.8v63.6v63.6l45.5,51.2c25.2,28.3,46.7,53.3,47.9,55.6c2.5,5.2-0.6,10.3-6.4,10.3
				c-2.3,0-18.6-16.9-45-46.5l-41.1-46.5l-1,51.7c-0.8,46.3-1.4,51.7-4.3,53.7c-2.5,1.5-4.5,1.5-6.8,0c-3.3-1.9-3.5-10.9-4.1-134.5
				c-0.2-96.1,0.2-133.1,1.7-134.9c3.1-3.7,782.4-4.1,786.1-0.4c3.3,3.3,3.3,470.7,0,474C399.9,3254.8,394.6,3254.6,391.9,3251.5z
				 M250.5,3001.2l19-21.3l-20.3-20.3l-20.2-20.3l-17.6,17.4c-9.7,9.7-18.2,18.8-19.2,20.5c-1.2,2.1,2.9,8.3,16.9,24.6
				c10.3,12,19.4,21.5,20.5,21.1C230.5,3022.7,240,3012.8,250.5,3001.2z"/>
			<path id="XMLID_69_" class="st0" d="M-441.3,3224.2c-6-7.2,1.7-20,9.1-15.5c7,4.5,4.5,18.2-3.5,18.2
				C-437.6,3226.9-440.1,3225.7-441.3,3224.2z"/>
			<path id="XMLID_66_" class="st0" d="M-173.3,3161.8c-25.6-28.5-47.1-52.9-47.9-54.3c-1-1.5-1-4.5-0.4-6.6
				c2.1-6.4,9.1-4.6,18.4,4.8l8.5,8.7l20.5-20.3c11.2-11.2,21.7-20.3,23.3-20.3s8.5,6,15.5,13.6l12.6,13.6l26.9-29.1
				c14.7-16.1,28.3-29.1,30-29.1s12.2,8.3,23.1,18.4c11,10.1,20.3,18.4,20.7,18.4s21.3-23.1,46.5-51.5
				c40.3-45.2,46.7-51.3,51.2-50.8c13,1.5,9.9,5.4-95.5,123.4c-60.5,67.8-101.9,112.6-103.9,112.6S-146.2,3192-173.3,3161.8z
				 M-77.6,3143l45.2-50.8l-15.9-15.1c-8.7-8.3-16.5-14.7-17.3-14.5c-0.8,0.4-13.4,13.4-28.1,29.3c-14.7,15.7-28.1,28.5-30,28.5
				c-1.7,0-8.7-6.2-15.5-13.8l-12.2-13.8l-16.3,16.3c-8.9,8.7-15.9,16.7-15.5,17.6c0.6,2.1,58.3,67,59.5,67
				C-123.1,3193.8-102.4,3170.9-77.6,3143z"/>
			<path id="XMLID_65_" class="st0" d="M-441.3,3166.1c-1.6-1.9-1.9-63.9-1.8-231.7c0.6-215.9,0.8-229.2,4.1-231.4
				c2.3-1.5,4.3-1.5,6.8,0c3.1,2.1,3.3,15.5,3.9,231.4c0.2,167.8-0.2,229.8-1.7,231.7c-1.2,1.5-3.7,2.7-5.6,2.7
				S-440.1,3167.6-441.3,3166.1z"/>
			<path id="XMLID_64_" class="st0" d="M-252,3073.6c-6-3.5-3.3-15.3,3.5-15.3c7.2,0,11.6,14,5.4,16.3
				C-247.1,3076.2-248.1,3076-252,3073.6z"/>
			<path id="XMLID_63_" class="st0" d="M450.1,2743.7c-6-7.2,1.7-20,9.1-15.5c7,4.5,4.5,18.2-3.5,18.2
				C453.7,2746.4,451.2,2745.2,450.1,2743.7z"/>
			<path id="XMLID_62_" class="st0" d="M450.2,2693.7c-1.7-1.7-2.3-17.8-2.3-60.5c0-65.5-0.6-68.8-13.6-75.2
				c-6.4-3.3-30.6-3.5-424-3.5c-454.8,0-426.1-0.8-433.8,10.9c-3.1,4.8-3.7,11.2-4.5,53.7c-0.8,43.4-1.4,48.6-4.5,50.6
				c-2.3,1.5-4.3,1.5-6.8,0c-2.9-1.9-3.3-6.6-3.3-50.4c0-46.1,0.2-48.6,4.3-56.4l4.3-8.1l-24.4-0.6c-20.7-0.6-24.8-1.2-26.5-3.9
				c-1.5-2.5-1.5-4.5,0-6.8c2.1-3.3,27.7-3.5,494.9-3.5s492.8,0.2,494.9,3.5c1.5,2.3,1.5,4.3,0,6.8c-1.7,2.7-5.8,3.3-26.5,3.9
				l-24.4,0.6l4.3,8.1c4.1,7.8,4.3,10.5,4.8,67.8c0.4,43.4,0,60.6-1.7,62.6C458.6,2696.6,453.4,2696.8,450.2,2693.7z"/>
			<path id="XMLID_61_" class="st0" d="M-233.8,2509.6c-3.1-3.1-2.9-8.3,0.4-11c1.7-1.5,19.4-2.1,60.3-1.7c52.5,0.6,57.9,1,59.9,4.1
				c1.5,2.3,1.5,4.3,0,6.8c-1.9,2.9-7.4,3.3-60.1,3.9C-216.9,2511.9-232,2511.3-233.8,2509.6z"/>
			<path id="XMLID_60_" class="st0" d="M-32.2,2509.6c-3.1-3.1-2.9-8.3,0.4-11c1.7-1.5,20.2-2.1,63.2-1.7c55.2,0.6,60.8,1,62.8,4.1
				c1.5,2.3,1.5,4.3,0,6.8c-1.9,2.9-7.6,3.3-63,3.9C-14.8,2511.9-30.5,2511.3-32.2,2509.6z"/>
			<path id="XMLID_59_" class="st0" d="M180.5,2479.5c-2.7-1.9-6.2-4.8-7.8-6.8c-2.7-3.1-7.9-3.5-57.9-4.1
				c-50-0.4-55.2-0.8-57.2-3.9c-1.5-2.3-1.5-4.3,0-6.8c1.9-2.9,7.4-3.3,61.8-3.9c40.7-0.2,60.5,0.2,62.2,1.7
				c1.4,1.2,2.7,3.9,3.1,6.2c0.8,6,10.1,6,10.9,0c1.2-7.8,4.3-8.5,34.3-7.9c24.8,0.6,28.9,1,30.8,4.1c1.5,2.3,1.5,4.3,0,6.8
				c-1.7,2.7-5.8,3.3-26.2,3.9c-20.2,0.4-24.4,1-26.9,3.9c-5,5.8-12.2,10.1-17.4,10.1C187.5,2482.8,183,2481.3,180.5,2479.5z"/>
			<path id="XMLID_58_" class="st0" d="M8.5,2467c-5.8-5.8-0.6-13.9,8.5-12.8c6.6,0.8,10.3,6,7.4,10.9
				C21.8,2469.1,11.9,2470.4,8.5,2467z"/>
		</g>
	</g>
</g>
<g>
	<path d="M-37.6,242.2c0.6-0.1,1.4-0.2,2.5-0.2c1.1,0,1.9,0.2,2.5,0.6c0.5,0.4,0.9,1.1,0.9,1.9c0,0.8-0.3,1.5-0.7,1.9
		c-0.6,0.6-1.5,0.9-2.6,0.9c-0.2,0-0.5,0-0.6,0v2.9h-1.8V242.2z M-35.8,245.9c0.2,0,0.3,0,0.6,0c1,0,1.6-0.5,1.6-1.3
		c0-0.7-0.5-1.2-1.4-1.2c-0.4,0-0.6,0-0.8,0.1V245.9z"/>
	<path d="M-28.8,242.1v3.1h3v-3.1h1.8v8.1h-1.8v-3.4h-3v3.4h-1.8v-8.1H-28.8z"/>
	<path d="M-14.9,246.1c0,2.7-1.6,4.3-4,4.3c-2.4,0-3.8-1.8-3.8-4.1c0-2.4,1.5-4.2,3.9-4.2C-16.3,242-14.9,243.8-14.9,246.1z
		 M-20.8,246.2c0,1.6,0.7,2.7,2,2.7c1.2,0,1.9-1.2,1.9-2.7c0-1.5-0.7-2.7-2-2.7C-20.1,243.4-20.8,244.6-20.8,246.2z"/>
	<path d="M-12.5,243.7h-2.2v-1.5h6.2v1.5h-2.2v6.5h-1.8V243.7z"/>
	<path d="M-0.4,246.1c0,2.7-1.6,4.3-4,4.3c-2.4,0-3.8-1.8-3.8-4.1c0-2.4,1.5-4.2,3.9-4.2C-1.8,242-0.4,243.8-0.4,246.1z M-6.3,246.2
		c0,1.6,0.7,2.7,2,2.7c1.2,0,1.9-1.2,1.9-2.7c0-1.5-0.7-2.7-2-2.7C-5.6,243.4-6.3,244.6-6.3,246.2z"/>
	<path d="M3.2,242.1h4.9v1.5H5v1.8h2.9v1.5H5v3.3H3.2V242.1z"/>
	<path d="M9.5,242.2c0.6-0.1,1.5-0.2,2.4-0.2c1.2,0,2,0.2,2.6,0.6c0.5,0.4,0.7,0.9,0.7,1.7c0,1-0.7,1.7-1.4,2v0
		c0.6,0.2,0.9,0.8,1.1,1.5c0.3,0.9,0.5,2,0.7,2.3h-1.9c-0.1-0.2-0.3-0.9-0.6-1.9c-0.2-1-0.6-1.3-1.3-1.3h-0.6v3.2H9.5V242.2z
		 M11.3,245.7H12c0.9,0,1.5-0.5,1.5-1.2c0-0.7-0.5-1.1-1.3-1.1c-0.4,0-0.7,0-0.8,0.1V245.7z"/>
	<path d="M18.6,248.1l-0.6,2.1h-1.9l2.5-8.1H21l2.5,8.1h-2l-0.6-2.1H18.6z M20.7,246.8l-0.5-1.7c-0.1-0.5-0.3-1.1-0.4-1.6h0
		c-0.1,0.5-0.2,1.1-0.4,1.6l-0.5,1.7H20.7z"/>
	<path d="M31.4,247.1c0-1-0.1-2.1-0.1-3.3h0c-0.3,1-0.6,2.2-0.9,3.1l-1,3.2H28l-0.9-3.1c-0.3-1-0.5-2.1-0.7-3.2h0
		c0,1.1-0.1,2.3-0.1,3.3l-0.1,3.1h-1.7l0.5-8.1h2.4l0.8,2.7c0.3,0.9,0.5,1.9,0.7,2.9h0c0.2-0.9,0.5-2,0.8-2.9l0.9-2.7h2.4l0.4,8.1
		h-1.8L31.4,247.1z"/>
	<path d="M39.6,246.8h-3v1.9h3.3v1.5h-5.2v-8.1h5v1.5h-3.2v1.7h3V246.8z"/>
</g>
</svg>
