<?xml version="1.0" encoding="utf-8"?>
<!-- Generator: Adobe Illustrator 19.0.0, SVG Export Plug-In . SVG Version: 6.00 Build 0)  -->
<svg version="1.1" id="Layer_1" xmlns="http://www.w3.org/2000/svg" xmlns:xlink="http://www.w3.org/1999/xlink" x="0px" y="0px"
	 viewBox="0 0 144 144" style="enable-background:new 0 0 144 144;" xml:space="preserve">
<style type="text/css">
	.st0{fill:#010101;}
</style>
<g id="XMLID_55_">
	<g id="XMLID_56_">
		<g id="XMLID_57_" transform="translate(0.000000,512.000000) scale(0.100000,-0.100000)">
			<path id="XMLID_76_" class="st0" d="M295.7,4893.3c-10.1-3.3-23.8-18-26.7-28.5c-1.7-6.4-2.3-28.1-1.9-81.2
				c0.6-66.5,0.8-72.7,4.1-74.6c2.3-1.5,4.3-1.5,6.8,0c3.1,1.9,3.3,8.5,4.3,78.5c1,82.7,0.8,80.8,12,88.5
				c4.1,3.1,30.6,3.3,324.9,4.3c302.5,1,320.5,1.2,322.6,4.5c1.5,2.3,1.5,4.3,0,6.8c-2.1,3.1-19.6,3.3-320.7,3.5
				C392,4895.5,300.5,4894.9,295.7,4893.3z"/>
			<path id="XMLID_75_" class="st0" d="M976.2,4893.5c-1.4-1.4-2.3-3.7-2.3-5.4c0-7.6,2.1-7.8,83.7-7.8c86.2,0,88.9-0.4,95.9-10.9
				c3.3-5.2,3.5-19.6,4.5-322c1-299,1.2-316.8,4.5-318.9c2.3-1.5,4.3-1.5,6.8,0c3.1,2.1,3.3,19.6,3.9,314.9
				c0.4,242.8,0,314.7-1.9,321.5c-2.9,11.2-16.9,25.4-27.9,28.7C1132,4896.8,979.5,4896.8,976.2,4893.5z"/>
			<path id="XMLID_74_" class="st0" d="M326.9,4835c-1.5-1.7-1.9-43.2-1.7-152.3c0.6-140.3,0.8-150,3.9-151.9c2.5-1.5,4.5-1.5,6.8,0
				c3.3,1.9,3.5,11.4,4.1,146.9l0.4,144.6H720h379.8l0.4-41.9c0.6-37.6,1-42.2,4.1-44.2c2.3-1.5,4.3-1.5,6.8,0
				c2.9,1.9,3.3,6.8,3.9,49.2c0.4,32.9-0.2,47.9-1.7,49.6C1109.9,4839.1,330.1,4839.1,326.9,4835z"/>
			<path id="XMLID_73_" class="st0" d="M946.3,4755.6c-10.7-2.9-15.1-6-15.1-10.9c0-7,5-8.5,15.7-5c37,11.8,73.4-14,73.4-52.1
				c0-30.4-24.8-55.2-55.2-55.2c-30.6,0-55.2,24.8-55.2,55.4c0,4.5,1.4,12.6,3.1,18c2.7,8.1,2.9,10.3,0.8,12.8
				c-7.2,8.7-16.5-3.1-18.6-23.8c-3.5-32.7,19.4-65.9,51.7-74.8c20.2-5.8,39.5-2.3,57.7,10.3c18,12.4,31.2,36.6,31.2,57.4
				C1035.8,4732.3,989.7,4767.2,946.3,4755.6z"/>
			<path id="XMLID_70_" class="st0" d="M1101.9,4701.5c-1.5-1.9-2.3-56.6-2.5-193.8l-0.6-191l-50.4,57.4
				c-96.5,110.1-106.2,120.7-109.5,120.7c-2.1,0-20.7-20.2-45.7-49.8c-23.4-27.3-44.8-52.5-47.9-55.8l-5.2-5.8l-9.5,10.5
				c-8.1,9.1-10.1,10.3-14.5,9.1c-8.3-2.1-6.4-8.7,6.8-23.6c13-14.7,15.7-16.9,19.8-15.1c1.5,0.6,12.6,12.8,24.8,27.1l22.1,26
				l23.3-23.3c12.8-12.8,24.6-23.3,26.2-23.3c1.7,0,13.4,10.5,26.2,23.3c12.8,12.8,23.8,23.1,24.6,22.9c0.6-0.4,25.8-28.5,55.6-62.6
				l54.5-61.8v-25.8v-25.8H720H340.2v63.6v63.6l45.5,51.2c25.2,28.3,46.7,53.3,47.9,55.6c2.5,5.2-0.6,10.3-6.4,10.3
				c-2.3,0-18.6-16.9-45-46.5l-41.1-46.5l-1,51.7c-0.8,46.3-1.4,51.7-4.3,53.7c-2.5,1.5-4.5,1.5-6.8,0c-3.3-1.9-3.5-10.9-4.1-134.5
				c-0.2-96.1,0.2-133.1,1.7-134.9c3.1-3.7,782.4-4.1,786.1-0.4c3.3,3.3,3.3,470.7,0,474C1109.9,4704.8,1104.6,4704.6,1101.9,4701.5
				z M960.5,4451.2l19-21.3l-20.3-20.3l-20.2-20.3l-17.6,17.4c-9.7,9.7-18.2,18.8-19.2,20.5c-1.2,2.1,2.9,8.3,16.9,24.6
				c10.3,12,19.4,21.5,20.5,21.1C940.5,4472.7,950,4462.8,960.5,4451.2z"/>
			<path id="XMLID_69_" class="st0" d="M268.7,4674.2c-6-7.2,1.7-20,9.1-15.5c7,4.5,4.5,18.2-3.5,18.2
				C272.4,4676.9,269.9,4675.7,268.7,4674.2z"/>
			<path id="XMLID_66_" class="st0" d="M536.7,4611.8c-25.6-28.5-47.1-52.9-47.9-54.3c-1-1.5-1-4.5-0.4-6.6
				c2.1-6.4,9.1-4.6,18.4,4.8l8.5,8.7l20.5-20.3c11.2-11.2,21.7-20.3,23.3-20.3s8.5,6,15.5,13.6l12.6,13.6l26.9-29.1
				c14.7-16.1,28.3-29.1,30-29.1c1.7,0,12.2,8.3,23.1,18.4c11,10.1,20.3,18.4,20.7,18.4c0.4,0,21.3-23.1,46.5-51.5
				c40.3-45.2,46.7-51.3,51.2-50.8c13,1.5,9.9,5.4-95.5,123.4c-60.5,67.8-101.9,112.6-103.9,112.6S563.8,4642,536.7,4611.8z
				 M632.4,4593l45.2-50.8l-15.9-15.1c-8.7-8.3-16.5-14.7-17.3-14.5c-0.8,0.4-13.4,13.4-28.1,29.3c-14.7,15.7-28.1,28.5-30,28.5
				c-1.7,0-8.7-6.2-15.5-13.8l-12.2-13.8l-16.3,16.3c-8.9,8.7-15.9,16.7-15.5,17.6c0.6,2.1,58.3,67,59.5,67
				C586.9,4643.8,607.6,4620.9,632.4,4593z"/>
			<path id="XMLID_65_" class="st0" d="M268.7,4616.1c-1.6-1.9-1.9-63.9-1.8-231.7c0.6-215.9,0.8-229.2,4.1-231.4
				c2.3-1.5,4.3-1.5,6.8,0c3.1,2.1,3.3,15.5,3.9,231.4c0.2,167.8-0.2,229.8-1.7,231.7c-1.2,1.5-3.7,2.7-5.6,2.7
				S269.9,4617.6,268.7,4616.1z"/>
			<path id="XMLID_64_" class="st0" d="M458,4523.6c-6-3.5-3.3-15.3,3.5-15.3c7.2,0,11.6,14,5.4,16.3
				C462.9,4526.2,461.9,4526,458,4523.6z"/>
			<path id="XMLID_63_" class="st0" d="M1160.1,4193.7c-6-7.2,1.7-20,9.1-15.5c7,4.5,4.5,18.2-3.5,18.2
				C1163.7,4196.4,1161.2,4195.2,1160.1,4193.7z"/>
			<path id="XMLID_62_" class="st0" d="M1160.2,4143.7c-1.7-1.7-2.3-17.8-2.3-60.5c0-65.5-0.6-68.8-13.6-75.2
				c-6.4-3.3-30.6-3.5-424-3.5c-454.8,0-426.1-0.8-433.8,10.9c-3.1,4.8-3.7,11.2-4.5,53.7c-0.8,43.4-1.4,48.6-4.5,50.6
				c-2.3,1.5-4.3,1.5-6.8,0c-2.9-1.9-3.3-6.6-3.3-50.4c0-46.1,0.2-48.6,4.3-56.4l4.3-8.1l-24.4-0.6c-20.7-0.6-24.8-1.2-26.5-3.9
				c-1.5-2.5-1.5-4.5,0-6.8c2.1-3.3,27.7-3.5,494.9-3.5s492.8,0.2,494.9,3.5c1.5,2.3,1.5,4.3,0,6.8c-1.7,2.7-5.8,3.3-26.5,3.9
				l-24.4,0.6l4.3,8.1c4.1,7.8,4.3,10.5,4.8,67.8c0.4,43.4,0,60.6-1.7,62.6C1168.6,4146.6,1163.4,4146.8,1160.2,4143.7z"/>
			<path id="XMLID_61_" class="st0" d="M476.2,3959.6c-3.1-3.1-2.9-8.3,0.4-11c1.7-1.5,19.4-2.1,60.3-1.7c52.5,0.6,57.9,1,59.9,4.1
				c1.5,2.3,1.5,4.3,0,6.8c-1.9,2.9-7.4,3.3-60.1,3.9C493.1,3961.9,478,3961.3,476.2,3959.6z"/>
			<path id="XMLID_60_" class="st0" d="M677.8,3959.6c-3.1-3.1-2.9-8.3,0.4-11c1.7-1.5,20.2-2.1,63.2-1.7c55.2,0.6,60.8,1,62.8,4.1
				c1.5,2.3,1.5,4.3,0,6.8c-1.9,2.9-7.6,3.3-63,3.9C695.2,3961.9,679.5,3961.3,677.8,3959.6z"/>
			<path id="XMLID_59_" class="st0" d="M890.5,3929.5c-2.7-1.9-6.2-4.8-7.8-6.8c-2.7-3.1-7.9-3.5-57.9-4.1
				c-50-0.4-55.2-0.8-57.2-3.9c-1.5-2.3-1.5-4.3,0-6.8c1.9-2.9,7.4-3.3,61.8-3.9c40.7-0.2,60.5,0.2,62.2,1.7
				c1.4,1.2,2.7,3.9,3.1,6.2c0.8,6,10.1,6,10.9,0c1.2-7.8,4.3-8.5,34.3-7.9c24.8,0.6,28.9,1,30.8,4.1c1.5,2.3,1.5,4.3,0,6.8
				c-1.7,2.7-5.8,3.3-26.2,3.9c-20.2,0.4-24.4,1-26.9,3.9c-5,5.8-12.2,10.1-17.4,10.1C897.5,3932.8,893,3931.3,890.5,3929.5z"/>
			<path id="XMLID_58_" class="st0" d="M718.5,3917c-5.8-5.8-0.6-13.9,8.5-12.8c6.6,0.8,10.3,6,7.4,10.9
				C731.8,3919.1,721.9,3920.4,718.5,3917z"/>
		</g>
	</g>
</g>
</svg>
