<?xml version="1.0" encoding="utf-8"?>
<!-- Generator: Adobe Illustrator 19.0.0, SVG Export Plug-In . SVG Version: 6.00 Build 0)  -->
<svg version="1.1" id="Capa_1" xmlns="http://www.w3.org/2000/svg" xmlns:xlink="http://www.w3.org/1999/xlink" x="0px" y="0px"
	 viewBox="112 -39.9 511.9 511.9" style="enable-background:new 112 -39.9 511.9 511.9;" xml:space="preserve">
<style type="text/css">
	.st0{opacity:0.2;}
	.st1{fill:#FFFFFF;}
	.st2{opacity:0.5;}
	.st3{fill:#3A3847;}
</style>
<g>
	<g class="st0">
		<path class="st1" d="M426.4,108.7V89.2h-6.5v19.5c0,7.2,5.9,13,13,13c1.1,0,2.2-0.2,3.3-0.5C430.6,119.8,426.4,114.8,426.4,108.7z
			"/>
	</g>
	<g class="st2">
		<path class="st1" d="M177.1,153.1c0,0,4.3-9.8,7.7-17.1c12.2-26.3,37.2-82.4,48.5-92.5C245.2,32.8,292.7,15.1,307,10l-4.1-5.3
			h-6.5c0,0-57,19.5-71.5,32.5c-11.4,10.2-40.9,72.4-53.1,98.8c-3.4,7.2-5.4,11.7-5.4,11.7L177.1,153.1z"/>
		<path class="st1" d="M257.4,381.8V141.2h-6.5v240.6c0,3.6,2.9,6.5,6.5,6.5h6.5C260.3,388.3,257.4,385.4,257.4,381.8z"/>
	</g>
	<path class="st1" d="M182.3,141.2l-10.3-5l-0.3-0.2c-3.3,7.2-5.4,11.7-5.4,11.7l10.7,5.3C177.1,153.1,179.6,147.1,182.3,141.2z"/>
	<path class="st3" d="M368.1,73c-1.8,0-3.3-1.5-3.3-3.3c0-1.8,1.5-3.3,3.3-3.3h0.1c1.8,0,3.3,1.5,3.3,3.3
		C371.4,71.5,369.9,73,368.1,73z"/>
	<path class="st3" d="M368.1,60c-1.8,0-3.3-1.5-3.3-3.3c0-1.8,1.5-3.3,3.3-3.3h0.1c1.8,0,3.3,1.5,3.3,3.3
		C371.4,58.5,369.9,60,368.1,60z"/>
	<path class="st3" d="M368.1,47c-1.8,0-3.3-1.5-3.3-3.3s1.5-3.3,3.3-3.3h0.1c1.8,0,3.3,1.5,3.3,3.3C371.4,45.5,369.9,47,368.1,47z"
		/>
	<path class="st3" d="M484.9,385.1c-1.8,0-3.3-1.5-3.3-3.3V141.2c0-1.8,1.5-3.3,3.3-3.3s3.3,1.5,3.3,3.3v240.6
		C488.2,383.6,486.7,385.1,484.9,385.1z"/>
	<path class="st3" d="M569.5,151c-1.2,0-2.4-0.7-2.9-2c-12.2-27-46.3-99.2-57.7-109.4C495,27.1,439,7.9,438.4,7.7
		c-1.7-0.6-2.6-2.4-2-4.1c0.6-1.7,2.4-2.6,4.1-2c2.4,0.8,57.8,19.8,72.7,33.2C528,48,570.7,142.3,572.6,146.3c0.7,1.6,0,3.6-1.6,4.3
		C570.4,150.9,570,151,569.5,151z"/>
	<path class="st3" d="M504.4,183.1c-1.2,0-2.4-0.7-2.9-1.8c-0.8-1.6-0.2-3.6,1.5-4.4l65-32.1c1.6-0.8,3.6-0.2,4.4,1.5
		s0.2,3.6-1.5,4.4l-65,32.1C505.4,183,504.9,183.1,504.4,183.1z"/>
	<path class="st3" d="M504.4,183.1c-1.2,0-2.4-0.7-2.9-1.8L482,142.7c-0.8-1.6-0.2-3.6,1.5-4.4c1.6-0.8,3.6-0.2,4.4,1.5l19.5,38.6
		c0.8,1.6,0.2,3.6-1.5,4.4C505.5,183,504.9,183.1,504.4,183.1z"/>
	<path class="st3" d="M478.4,391.6c-1.8,0-3.3-1.5-3.3-3.3s1.5-3.3,3.3-3.3s3.3-1.5,3.3-3.3s1.5-3.3,3.3-3.3s3.3,1.5,3.3,3.3
		C488.2,387.2,483.9,391.6,478.4,391.6z"/>
	<path class="st3" d="M250.9,385.1c-1.8,0-3.3-1.5-3.3-3.3V141.2c0-1.8,1.5-3.3,3.3-3.3s3.3,1.5,3.3,3.3v240.6
		C254.1,383.6,252.7,385.1,250.9,385.1z"/>
	<path class="st3" d="M166.3,151c-0.4,0-0.9-0.1-1.3-0.3c-1.6-0.7-2.4-2.7-1.6-4.3c1.8-4,44.5-98.3,59.3-111.6
		c14.8-13.3,70.3-32.4,72.7-33.2c1.7-0.6,3.6,0.3,4.1,2s-0.3,3.6-2,4.1C297,7.9,241,27.1,227.1,39.6
		c-11.5,10.3-45.5,82.5-57.7,109.4C168.8,150.3,167.5,151,166.3,151z"/>
	<path class="st3" d="M231.4,183.1c-0.5,0-1-0.1-1.5-0.3l-65-32.1c-1.6-0.8-2.3-2.8-1.5-4.4s2.8-2.3,4.4-1.5l65,32.1
		c1.6,0.8,2.3,2.8,1.5,4.4C233.7,182.4,232.6,183.1,231.4,183.1z"/>
	<path class="st3" d="M231.4,183.1c-0.5,0-1-0.1-1.5-0.3c-1.6-0.8-2.3-2.8-1.5-4.4l19.5-38.6c0.8-1.6,2.8-2.3,4.4-1.5
		c1.6,0.8,2.3,2.8,1.5,4.4l-19.5,38.6C233.7,182.4,232.5,183.1,231.4,183.1z"/>
	<path class="st3" d="M257.4,391.6c-5.4,0-9.8-4.4-9.8-9.8c0-1.8,1.5-3.3,3.3-3.3s3.3,1.5,3.3,3.3s1.5,3.3,3.3,3.3
		c1.8,0,3.3,1.5,3.3,3.3S259.2,391.6,257.4,391.6z"/>
	<path class="st3" d="M478.4,391.6H257.4c-1.8,0-3.3-1.5-3.3-3.3s1.5-3.3,3.3-3.3h221.1c1.8,0,3.3,1.5,3.3,3.3
		C481.7,390.1,480.2,391.6,478.4,391.6z"/>
	<path class="st3" d="M471.9,378.6h-208c-1.8,0-3.3-1.5-3.3-3.3s1.5-3.3,3.3-3.3H472c1.8,0,3.3,1.5,3.3,3.3
		C475.2,377.1,473.7,378.6,471.9,378.6z"/>
	<path class="st3" d="M432.9,7.9c-1.5,0-2.8-1-3.2-2.4l-6.5-26c-0.4-1.7,0.7-3.5,2.4-3.9c1.7-0.4,3.5,0.7,4,2.4l6.5,26
		c0.4,1.7-0.7,3.5-2.4,3.9C433.5,7.9,433.2,7.9,432.9,7.9z"/>
	<path class="st3" d="M425.5-18.1H310.3c-2.3,0-4.1-1.5-4.1-3.3c0-1.8,1.9-3.3,4.1-3.3h115.1c2.3,0,4.1,1.5,4.1,3.3
		C429.6-19.5,427.8-18.1,425.5-18.1z"/>
	<path class="st3" d="M371.2,21c-1.1,0-2-0.5-2.7-1.4c-1.1-1.5-0.7-3.5,0.8-4.6l55.3-39c1.5-1.1,3.5-0.7,4.6,0.8
		c1.1,1.5,0.7,3.5-0.8,4.6l-55.3,39C372.5,20.7,371.8,21,371.2,21z"/>
	<path class="st3" d="M407,41.8c-0.6,0-1.1-0.2-1.6-0.4l-35.8-20.9c-1.5-0.9-2.1-2.9-1.1-4.5c0.9-1.5,2.9-2,4.5-1.1l35.8,20.9
		c1.5,0.9,2.1,2.9,1.1,4.5C409.2,41.2,408,41.8,407,41.8z"/>
	<path class="st3" d="M407,41.8c-0.7,0-1.4-0.2-2-0.7c-1.5-1.1-1.7-3.2-0.6-4.6l26-33.9c1.1-1.5,3.2-1.7,4.6-0.6
		c1.5,1.1,1.7,3.2,0.6,4.6l-26,33.9C408.8,41.4,407.9,41.8,407,41.8z"/>
	<path class="st3" d="M302.9,7.9c-0.2,0-0.5,0-0.8-0.1c-1.7-0.4-2.8-2.2-2.4-3.9l6.5-26c0.4-1.7,2.2-2.8,3.9-2.4
		c1.7,0.4,2.8,2.2,2.4,3.9l-6.5,26C305.7,7,304.4,7.9,302.9,7.9z"/>
	<path class="st3" d="M364.7,21c-0.7,0-1.3-0.2-1.9-0.6l-55.3-39c-1.5-1.1-1.8-3.1-0.8-4.6c1.1-1.5,3.1-1.8,4.6-0.8l55.3,39
		c1.5,1.1,1.8,3.1,0.8,4.6C366.6,20.5,365.7,21,364.7,21z"/>
	<path class="st3" d="M328.9,41.8c-1.1,0-2.2-0.6-2.8-1.6c-0.9-1.5-0.4-3.6,1.1-4.5L363,14.8c1.5-0.9,3.6-0.4,4.5,1.1
		c0.9,1.5,0.4,3.6-1.1,4.5l-35.8,20.9C330.1,41.7,329.5,41.8,328.9,41.8z"/>
	<path class="st3" d="M328.9,41.8c-1,0-2-0.4-2.6-1.3l-26-33.9c-1.1-1.5-0.8-3.5,0.6-4.6c1.5-1.1,3.5-0.8,4.6,0.6l26,33.9
		c1.1,1.5,0.8,3.5-0.6,4.6C330.3,41.6,329.6,41.8,328.9,41.8z"/>
	<path class="st3" d="M361.4,86c-1.8,0-3.3-1.5-3.3-3.3v-52c0-1.8,1.5-3.3,3.3-3.3c1.8,0,3.3,1.5,3.3,3.3v52
		C364.7,84.5,363.2,86,361.4,86z"/>
	<path class="st3" d="M374.4,86h-13c-1.8,0-3.3-1.5-3.3-3.3c0-1.8,1.5-3.3,3.3-3.3h13c1.8,0,3.3,1.5,3.3,3.3
		C377.7,84.5,376.2,86,374.4,86z"/>
	<path class="st3" d="M374.4,86c-1.8,0-3.3-1.5-3.3-3.3v-52c0-1.8,1.5-3.3,3.3-3.3s3.3,1.5,3.3,3.3v52C377.7,84.5,376.2,86,374.4,86
		z"/>
	<path class="st3" d="M445.9,112c-1.8,0-3.3-1.5-3.3-3.3V92.5h-19.5v16.3c0,1.8-1.5,3.3-3.3,3.3s-3.3-1.5-3.3-3.3V89.2
		c0-1.8,1.5-3.3,3.3-3.3h26c1.8,0,3.3,1.5,3.3,3.3v19.5C449.2,110.5,447.8,112,445.9,112z"/>
	<path class="st3" d="M432.9,125c-8.9,0-16.3-7.3-16.3-16.3c0-1.8,1.5-3.3,3.3-3.3s3.3,1.5,3.3,3.3c0,5.4,4.4,9.8,9.8,9.8
		c5.4,0,9.8-4.4,9.8-9.8c0-1.8,1.5-3.3,3.3-3.3s3.3,1.5,3.3,3.3C449.2,117.7,441.9,125,432.9,125z"/>
	<path class="st3" d="M439.4,105.5h-13c-1.8,0-3.3-1.5-3.3-3.3c0-1.8,1.5-3.3,3.3-3.3h13c1.8,0,3.3,1.5,3.3,3.3
		C442.7,104,441.3,105.5,439.4,105.5z"/>
	<path class="st3" d="M432.9,125c-1.8,0-3.3-1.5-3.3-3.3v-6.5c0-1.8,1.5-3.3,3.3-3.3c1.8,0,3.3,1.5,3.3,3.3v6.5
		C436.2,123.6,434.8,125,432.9,125z"/>
	<path class="st3" d="M496.1,165.3c-1.2,0-2.4-0.7-2.9-1.8c-0.8-1.6-0.2-3.6,1.5-4.4l65-32.1c1.6-0.8,3.6-0.2,4.4,1.5
		c0.8,1.6,0.2,3.6-1.5,4.4l-65,32.1C497,165.2,496.6,165.3,496.1,165.3z"/>
	<path class="st3" d="M239.7,165.7c-0.5,0-1-0.1-1.5-0.3l-65-32.1c-1.6-0.8-2.3-2.8-1.5-4.4c0.8-1.6,2.8-2.3,4.4-1.5l65,32.1
		c1.6,0.8,2.3,2.8,1.5,4.4C242.1,165.1,241,165.7,239.7,165.7z"/>
	<g>
		
			<rect x="167" y="153.4" transform="matrix(-0.8944 -0.4472 0.4472 -0.8944 316.976 383.8536)" class="st3" width="73.7" height="2.3"/>
	</g>
	<g>
		
			<rect x="497.9" y="153.3" transform="matrix(0.8944 -0.4472 0.4472 0.8944 -12.6192 255.4451)" class="st3" width="73.7" height="2.3"/>
	</g>
	<g>
		
			<rect x="297.3" y="14.4" transform="matrix(-0.6202 -0.7844 0.7844 -0.6202 507.5682 276.7593)" class="st3" width="46.9" height="2.3"/>
	</g>
	<g>
		
			<rect x="390.9" y="14.4" transform="matrix(0.6202 -0.7844 0.7844 0.6202 145.1503 330.9702)" class="st3" width="46.9" height="2.3"/>
	</g>
</g>
<g>
	<path d="M186.4,412.7c2.3-0.4,5.4-0.7,9.9-0.7c4.5,0,7.7,0.9,9.9,2.6c2.1,1.6,3.5,4.3,3.5,7.5c0,3.2-1.1,5.9-3,7.7
		c-2.5,2.4-6.2,3.4-10.5,3.4c-1,0-1.8,0-2.5-0.1v11.6h-7.3V412.7z M193.7,427.4c0.6,0.1,1.4,0.2,2.4,0.2c3.9,0,6.3-2,6.3-5.3
		c0-3-2.1-4.8-5.7-4.8c-1.5,0-2.5,0.1-3,0.3V427.4z"/>
	<path d="M244,428.1c0,10.6-6.4,17-15.9,17c-9.6,0-15.2-7.3-15.2-16.5c0-9.7,6.2-17,15.8-17C238.5,411.8,244,419.2,244,428.1z
		 M220.6,428.6c0,6.3,3,10.8,7.9,10.8c4.9,0,7.8-4.7,7.8-11c0-5.8-2.8-10.8-7.8-10.8C223.5,417.6,220.6,422.3,220.6,428.6z"/>
	<path d="M248.8,412.3h7.3v26.2H269v6.1h-20.2V412.3z"/>
	<path d="M301.1,428.1c0,10.6-6.4,17-15.9,17c-9.6,0-15.2-7.3-15.2-16.5c0-9.7,6.2-17,15.8-17C295.7,411.8,301.1,419.2,301.1,428.1z
		 M277.7,428.6c0,6.3,3,10.8,7.9,10.8c4.9,0,7.8-4.7,7.8-11c0-5.8-2.8-10.8-7.8-10.8C280.6,417.6,277.7,422.3,277.7,428.6z"/>
	<path d="M320,418.4h-8.7v-6.1h24.9v6.1h-8.8v26.2H320V418.4z"/>
	<path d="M348,429.6v4.9h-12.6v-4.9H348z"/>
	<path d="M352.8,437.1c2,1,5,2,8.1,2c3.4,0,5.1-1.4,5.1-3.5c0-2-1.5-3.2-5.4-4.6c-5.4-1.9-8.9-4.8-8.9-9.6c0-5.5,4.6-9.7,12.2-9.7
		c3.6,0,6.3,0.8,8.3,1.6l-1.6,5.9c-1.3-0.6-3.6-1.5-6.8-1.5c-3.2,0-4.7,1.4-4.7,3.1c0,2.1,1.8,3,6,4.6c5.7,2.1,8.4,5.1,8.4,9.7
		c0,5.4-4.2,10.1-13.1,10.1c-3.7,0-7.3-1-9.2-2L352.8,437.1z"/>
	<path d="M385.9,412.3v12.4h12.1v-12.4h7.3v32.4h-7.3v-13.5h-12.1v13.5h-7.3v-32.4H385.9z"/>
	<path d="M419,412.3v32.4h-7.3v-32.4H419z"/>
	<path d="M425.3,412.7c2.4-0.4,5.9-0.7,9.7-0.7c4.8,0,8.2,0.7,10.5,2.5c1.9,1.5,3,3.8,3,6.8c0,4.1-2.9,7-5.7,8v0.1
		c2.3,0.9,3.5,3.1,4.3,6c1,3.6,2,7.9,2.6,9.1h-7.5c-0.5-1-1.3-3.6-2.3-7.5c-0.9-4-2.3-5.1-5.2-5.2h-2.2v12.7h-7.3V412.7z
		 M432.6,426.7h2.9c3.6,0,5.8-1.8,5.8-4.7c0-3-2-4.5-5.4-4.5c-1.8,0-2.8,0.1-3.3,0.2V426.7z"/>
	<path d="M460,418.4h-8.7v-6.1h24.9v6.1h-8.8v26.2H460V418.4z"/>
	<path d="M494.2,418.4h-8.7v-6.1h24.9v6.1h-8.8v26.2h-7.3V418.4z"/>
	<path d="M521.6,412.3v32.4h-7.3v-32.4H521.6z"/>
	<path d="M527.9,412.7c2.3-0.4,5.4-0.7,9.9-0.7c4.5,0,7.7,0.9,9.9,2.6c2.1,1.6,3.5,4.3,3.5,7.5c0,3.2-1.1,5.9-3,7.7
		c-2.5,2.4-6.2,3.4-10.5,3.4c-1,0-1.8,0-2.5-0.1v11.6h-7.3V412.7z M535.2,427.4c0.6,0.1,1.4,0.2,2.4,0.2c3.9,0,6.3-2,6.3-5.3
		c0-3-2.1-4.8-5.7-4.8c-1.5,0-2.5,0.1-3,0.3V427.4z"/>
</g>
</svg>
