<?xml version="1.0" encoding="utf-8"?>
<!-- Generator: Adobe Illustrator 19.0.0, SVG Export Plug-In . SVG Version: 6.00 Build 0)  -->
<svg version="1.1" id="Capa_1" xmlns="http://www.w3.org/2000/svg" xmlns:xlink="http://www.w3.org/1999/xlink" x="0px" y="0px"
	 viewBox="148 -183.9 511.9 511.9" style="enable-background:new 148 -183.9 511.9 511.9;" xml:space="preserve">
<style type="text/css">
	.st0{fill-rule:evenodd;clip-rule:evenodd;fill:#BD2F32;}
	.st1{fill:#FFFFFF;}
</style>
<g id="XMLID_29_">
	<rect id="XMLID_28_" x="147" y="-184.9" class="st0" width="512" height="512"/>
	<g id="XMLID_30_">
		<rect id="XMLID_31_" x="219.3" y="254.3" class="st1" width="367.3" height="2.1"/>
	</g>
</g>
<g>
	<path class="st1" d="M404.1-77.8c-1.7,0-3.1-1.4-3.1-3.1s1.4-3.1,3.1-3.1h0.1c1.7,0,3.1,1.4,3.1,3.1
		C407.2-79.2,405.8-77.8,404.1-77.8z"/>
	<path class="st1" d="M404.1-90c-1.7,0-3.1-1.4-3.1-3.1s1.4-3.1,3.1-3.1h0.1c1.7,0,3.1,1.4,3.1,3.1C407.2-91.4,405.8-90,404.1-90z"
		/>
	<path class="st1" d="M404.1-102.2c-1.7,0-3.1-1.4-3.1-3.1s1.4-3.1,3.1-3.1h0.1c1.7,0,3.1,1.4,3.1,3.1
		C407.2-103.6,405.8-102.2,404.1-102.2z"/>
	<path class="st1" d="M513.5,214.6c-1.7,0-3.1-1.4-3.1-3.1V-13.9c0-1.7,1.4-3.1,3.1-3.1c1.7,0,3.1,1.4,3.1,3.1v225.4
		C516.6,213.2,515.2,214.6,513.5,214.6z"/>
	<path class="st1" d="M592.8-4.7c-1.1,0-2.2-0.7-2.7-1.9c-11.4-25.3-43.4-93-54.1-102.5c-13-11.7-65.5-29.7-66.1-29.9
		c-1.6-0.6-2.4-2.2-1.9-3.8s2.2-2.4,3.8-1.9c2.2,0.7,54.2,18.6,68.1,31.1c13.9,12.4,53.9,100.7,55.7,104.5c0.7,1.5,0,3.4-1.5,4
		C593.6-4.8,593.3-4.7,592.8-4.7z"/>
	<path class="st1" d="M531.8,25.3c-1.1,0-2.2-0.7-2.7-1.7c-0.7-1.5-0.2-3.4,1.4-4.1l60.9-30.1c1.5-0.7,3.4-0.2,4.1,1.4
		c0.7,1.6,0.2,3.4-1.4,4.1l-60.9,30.1C532.7,25.2,532.3,25.3,531.8,25.3z"/>
	<path class="st1" d="M531.8,25.3c-1.1,0-2.2-0.7-2.7-1.7l-18.3-36.2c-0.7-1.5-0.2-3.4,1.4-4.1c1.5-0.7,3.4-0.2,4.1,1.4l18.3,36.2
		c0.7,1.5,0.2,3.4-1.4,4.1C532.8,25.2,532.3,25.3,531.8,25.3z"/>
	<path class="st1" d="M507.4,220.7c-1.7,0-3.1-1.4-3.1-3.1s1.4-3.1,3.1-3.1s3.1-1.4,3.1-3.1s1.4-3.1,3.1-3.1c1.7,0,3.1,1.4,3.1,3.1
		C516.6,216.6,512.6,220.7,507.4,220.7z"/>
	<path class="st1" d="M294.3,214.6c-1.7,0-3.1-1.4-3.1-3.1V-13.9c0-1.7,1.4-3.1,3.1-3.1s3.1,1.4,3.1,3.1v225.4
		C297.3,213.2,295.9,214.6,294.3,214.6z"/>
	<path class="st1" d="M215-4.7c-0.4,0-0.8-0.1-1.2-0.3c-1.5-0.7-2.2-2.5-1.5-4c1.7-3.7,41.7-92.1,55.6-104.6
		c13.9-12.5,65.9-30.4,68.1-31.1c1.6-0.6,3.4,0.3,3.8,1.9s-0.3,3.4-1.9,3.8c-0.5,0.2-52.9,18.2-66,29.9
		c-10.8,9.7-42.6,77.3-54.1,102.5C217.3-5.4,216.1-4.7,215-4.7z"/>
	<path class="st1" d="M276,25.3c-0.5,0-0.9-0.1-1.4-0.3L213.7-5c-1.5-0.7-2.2-2.6-1.4-4.1s2.6-2.2,4.1-1.4l60.9,30.1
		c1.5,0.7,2.2,2.6,1.4,4.1C278.1,24.7,277.1,25.3,276,25.3z"/>
	<path class="st1" d="M276,25.3c-0.5,0-0.9-0.1-1.4-0.3c-1.5-0.7-2.2-2.6-1.4-4.1l18.3-36.2c0.7-1.5,2.6-2.2,4.1-1.4
		s2.2,2.6,1.4,4.1l-18.3,36.2C278.1,24.7,277,25.3,276,25.3z"/>
	<path class="st1" d="M300.3,220.7c-5.1,0-9.2-4.1-9.2-9.2c0-1.7,1.4-3.1,3.1-3.1s3.1,1.4,3.1,3.1c0,1.7,1.4,3.1,3.1,3.1
		c1.7,0,3.1,1.4,3.1,3.1C303.5,219.4,302,220.7,300.3,220.7z"/>
	<path class="st1" d="M507.4,220.7H300.3c-1.7,0-3.1-1.4-3.1-3.1s1.4-3.1,3.1-3.1h207.2c1.7,0,3.1,1.4,3.1,3.1
		C510.5,219.3,509.1,220.7,507.4,220.7z"/>
	<path class="st1" d="M501.3,208.5H306.4c-1.7,0-3.1-1.4-3.1-3.1s1.4-3.1,3.1-3.1h195c1.7,0,3.1,1.4,3.1,3.1
		C504.4,207.1,503,208.5,501.3,208.5z"/>
	<path class="st1" d="M464.8-138.8c-1.4,0-2.6-0.9-3-2.2l-6.1-24.4c-0.4-1.6,0.7-3.3,2.2-3.7c1.6-0.4,3.3,0.7,3.7,2.2l6.1,24.4
		c0.4,1.6-0.7,3.3-2.2,3.7C465.4-138.8,465.1-138.8,464.8-138.8z"/>
	<path class="st1" d="M457.9-163.2H349.9c-2.2,0-3.8-1.4-3.8-3.1c0-1.7,1.8-3.1,3.8-3.1h107.9c2.2,0,3.8,1.4,3.8,3.1
		C461.7-164.5,460-163.2,457.9-163.2z"/>
	<path class="st1" d="M407-126.6c-1,0-1.9-0.5-2.5-1.3c-1-1.4-0.7-3.3,0.7-4.3l51.8-36.5c1.4-1,3.3-0.7,4.3,0.7s0.7,3.3-0.7,4.3
		l-51.8,36.5C408.2-126.8,407.5-126.6,407-126.6z"/>
	<path class="st1" d="M440.5-107.1c-0.6,0-1-0.2-1.5-0.4L405.5-127c-1.4-0.8-2-2.7-1-4.2c0.8-1.4,2.7-1.9,4.2-1l33.5,19.6
		c1.4,0.8,2,2.7,1,4.2C442.6-107.6,441.5-107.1,440.5-107.1z"/>
	<path class="st1" d="M440.5-107.1c-0.7,0-1.3-0.2-1.9-0.7c-1.4-1-1.6-3-0.6-4.3l24.4-31.8c1-1.4,3-1.6,4.3-0.6c1.4,1,1.6,3,0.6,4.3
		L443-108.3C442.2-107.4,441.4-107.1,440.5-107.1z"/>
	<path class="st1" d="M343-138.8c-0.2,0-0.5,0-0.7-0.1c-1.6-0.4-2.6-2.1-2.2-3.7l6.1-24.4c0.4-1.6,2.1-2.6,3.7-2.2
		c1.6,0.4,2.6,2.1,2.2,3.7l-6.1,24.4C345.6-139.7,344.4-138.8,343-138.8z"/>
	<path class="st1" d="M400.9-126.6c-0.7,0-1.2-0.2-1.8-0.6l-51.8-36.5c-1.4-1-1.7-2.9-0.7-4.3c1-1.4,2.9-1.7,4.3-0.7l51.8,36.5
		c1.4,1,1.7,2.9,0.7,4.3C402.7-127,401.8-126.6,400.9-126.6z"/>
	<path class="st1" d="M367.3-107.1c-1,0-2.1-0.6-2.6-1.5c-0.8-1.4-0.4-3.4,1-4.2l33.5-19.6c1.4-0.8,3.4-0.4,4.2,1s0.4,3.4-1,4.2
		l-33.5,19.6C368.5-107.2,367.9-107.1,367.3-107.1z"/>
	<path class="st1" d="M367.3-107.1c-0.9,0-1.9-0.4-2.4-1.2L340.5-140c-1-1.4-0.7-3.3,0.6-4.3c1.4-1,3.3-0.7,4.3,0.6l24.4,31.8
		c1,1.4,0.7,3.3-0.6,4.3C368.7-107.3,368-107.1,367.3-107.1z"/>
	<path class="st1" d="M397.8-65.6c-1.7,0-3.1-1.4-3.1-3.1v-48.7c0-1.7,1.4-3.1,3.1-3.1c1.7,0,3.1,1.4,3.1,3.1v48.7
		C400.9-67.1,399.5-65.6,397.8-65.6z"/>
	<path class="st1" d="M410-65.6h-12.2c-1.7,0-3.1-1.4-3.1-3.1c0-1.7,1.4-3.1,3.1-3.1H410c1.7,0,3.1,1.4,3.1,3.1
		C413.1-67.1,411.7-65.6,410-65.6z"/>
	<path class="st1" d="M410-65.6c-1.7,0-3.1-1.4-3.1-3.1v-48.7c0-1.7,1.4-3.1,3.1-3.1c1.7,0,3.1,1.4,3.1,3.1v48.7
		C413.1-67.1,411.7-65.6,410-65.6z"/>
	<path class="st1" d="M477-41.3c-1.7,0-3.1-1.4-3.1-3.1v-15.2h-18.3v15.3c0,1.7-1.4,3.1-3.1,3.1c-1.7,0-3.1-1.4-3.1-3.1v-18.4
		c0-1.7,1.4-3.1,3.1-3.1h24.4c1.7,0,3.1,1.4,3.1,3.1v18.3C480.1-42.7,478.8-41.3,477-41.3z"/>
	<path class="st1" d="M464.8-29.1c-8.3,0-15.3-6.8-15.3-15.3c0-1.7,1.4-3.1,3.1-3.1c1.7,0,3.1,1.4,3.1,3.1c0,5.1,4.1,9.2,9.2,9.2
		c5.1,0,9.2-4.1,9.2-9.2c0-1.7,1.4-3.1,3.1-3.1c1.7,0,3.1,1.4,3.1,3.1C480.1-35.9,473.2-29.1,464.8-29.1z"/>
	<path class="st1" d="M470.9-47.4h-12.2c-1.7,0-3.1-1.4-3.1-3.1s1.4-3.1,3.1-3.1h12.2c1.7,0,3.1,1.4,3.1,3.1
		C474-48.8,472.7-47.4,470.9-47.4z"/>
	<path class="st1" d="M464.8-29.1c-1.7,0-3.1-1.4-3.1-3.1v-6.1c0-1.7,1.4-3.1,3.1-3.1c1.7,0,3.1,1.4,3.1,3.1v6.1
		C467.9-30.4,466.6-29.1,464.8-29.1z"/>
	<path class="st1" d="M524,8.7c-1.1,0-2.2-0.7-2.7-1.7c-0.7-1.5-0.2-3.4,1.4-4.1l60.9-30.1c1.5-0.7,3.4-0.2,4.1,1.4
		c0.7,1.5,0.2,3.4-1.4,4.1L525.4,8.4C524.9,8.6,524.5,8.7,524,8.7z"/>
	<path class="st1" d="M283.8,9c-0.5,0-0.9-0.1-1.4-0.3l-60.9-30.1c-1.5-0.7-2.2-2.6-1.4-4.1c0.7-1.5,2.6-2.2,4.1-1.4l60.9,30.1
		c1.5,0.7,2.2,2.6,1.4,4.1C286,8.5,285,9,283.8,9z"/>
	<g>
		
			<rect x="215.6" y="-2.6" transform="matrix(0.8944 0.4472 -0.4472 0.8944 25.7327 -112.0014)" class="st1" width="69.1" height="2.2"/>
	</g>
	<g>
		
			<rect x="525.7" y="-2.6" transform="matrix(-0.8944 0.4472 -0.4472 -0.8944 1060.5991 -253.4022)" class="st1" width="69.1" height="2.2"/>
	</g>
	<g>
		
			<rect x="337.8" y="-132.8" transform="matrix(0.6202 0.7844 -0.7844 0.6202 33.3368 -332.239)" class="st1" width="43.9" height="2.2"/>
	</g>
	<g>
		
			<rect x="425.4" y="-132.7" transform="matrix(-0.6202 0.7844 -0.7844 -0.6202 621.625 -564.1923)" class="st1" width="43.9" height="2.2"/>
	</g>
</g>
<g>
	<path d="M221.5,276.4c2.3-0.4,5.4-0.7,9.9-0.7s7.7,0.9,9.9,2.6c2.1,1.6,3.5,4.3,3.5,7.5s-1.1,5.9-3,7.7c-2.5,2.4-6.2,3.4-10.5,3.4
		c-1,0-1.8,0-2.5-0.1v11.6h-7.3L221.5,276.4L221.5,276.4z M228.8,291.1c0.6,0.1,1.4,0.2,2.4,0.2c3.9,0,6.3-2,6.3-5.3
		c0-3-2.1-4.8-5.7-4.8c-1.5,0-2.5,0.1-3,0.3V291.1z"/>
	<path d="M279.1,291.8c0,10.6-6.4,17-15.9,17c-9.6,0-15.2-7.3-15.2-16.5c0-9.7,6.2-17,15.8-17C273.6,275.5,279.1,282.9,279.1,291.8z
		 M255.7,292.3c0,6.3,3,10.8,7.9,10.8s7.8-4.7,7.8-11c0-5.8-2.8-10.8-7.8-10.8S255.7,286,255.7,292.3z"/>
	<path d="M283.9,276h7.3v26.2h12.9v6.1h-20.2V276z"/>
	<path d="M336.2,291.8c0,10.6-6.4,17-15.9,17c-9.6,0-15.2-7.3-15.2-16.5c0-9.7,6.2-17,15.8-17C330.8,275.5,336.2,282.9,336.2,291.8z
		 M312.8,292.3c0,6.3,3,10.8,7.9,10.8s7.8-4.7,7.8-11c0-5.8-2.8-10.8-7.8-10.8S312.8,286,312.8,292.3z"/>
	<path d="M355.1,282.1h-8.7V276h24.9v6.1h-8.8v26.2h-7.4V282.1z"/>
	<path d="M383.1,293.3v4.9h-12.6v-4.9H383.1z"/>
	<path d="M387.9,300.8c2,1,5,2,8.1,2c3.4,0,5.1-1.4,5.1-3.5c0-2-1.5-3.2-5.4-4.6c-5.4-1.9-8.9-4.8-8.9-9.6c0-5.5,4.6-9.7,12.2-9.7
		c3.6,0,6.3,0.8,8.3,1.6l-1.6,5.9c-1.3-0.6-3.6-1.5-6.8-1.5c-3.2,0-4.7,1.4-4.7,3.1c0,2.1,1.8,3,6,4.6c5.7,2.1,8.4,5.1,8.4,9.7
		c0,5.4-4.2,10.1-13.1,10.1c-3.7,0-7.3-1-9.2-2L387.9,300.8z"/>
	<path d="M421,276v12.4h12.1V276h7.3v32.4h-7.3v-13.5H421v13.5h-7.3V276H421z"/>
	<path d="M454.1,276v32.4h-7.3V276H454.1z"/>
	<path d="M460.4,276.4c2.4-0.4,5.9-0.7,9.7-0.7c4.8,0,8.2,0.7,10.5,2.5c1.9,1.5,3,3.8,3,6.8c0,4.1-2.9,7-5.7,8v0.1
		c2.3,0.9,3.5,3.1,4.3,6c1,3.6,2,7.9,2.6,9.1h-7.5c-0.5-1-1.3-3.6-2.3-7.5c-0.9-4-2.3-5.1-5.2-5.2h-2.2v12.7h-7.3v-31.8H460.4z
		 M467.7,290.4h2.9c3.6,0,5.8-1.8,5.8-4.7c0-3-2-4.5-5.4-4.5c-1.8,0-2.8,0.1-3.3,0.2V290.4z"/>
	<path d="M495.1,282.1h-8.7V276h24.9v6.1h-8.8v26.2h-7.4V282.1z"/>
	<path d="M529.3,282.1h-8.7V276h24.9v6.1h-8.8v26.2h-7.3v-26.2H529.3z"/>
	<path d="M556.7,276v32.4h-7.3V276H556.7z"/>
	<path d="M563,276.4c2.3-0.4,5.4-0.7,9.9-0.7s7.7,0.9,9.9,2.6c2.1,1.6,3.5,4.3,3.5,7.5s-1.1,5.9-3,7.7c-2.5,2.4-6.2,3.4-10.5,3.4
		c-1,0-1.8,0-2.5-0.1v11.6h-7.3L563,276.4L563,276.4z M570.3,291.1c0.6,0.1,1.4,0.2,2.4,0.2c3.9,0,6.3-2,6.3-5.3
		c0-3-2.1-4.8-5.7-4.8c-1.5,0-2.5,0.1-3,0.3V291.1z"/>
</g>
<g>
	<path class="st1" d="M215.9,276.4c2.3-0.4,5.4-0.7,9.9-0.7s7.7,0.9,9.9,2.6c2.1,1.6,3.5,4.3,3.5,7.5s-1.1,5.9-3,7.7
		c-2.5,2.4-6.2,3.4-10.5,3.4c-1,0-1.8,0-2.5-0.1v11.6h-7.3L215.9,276.4L215.9,276.4z M223.2,291.1c0.6,0.1,1.4,0.2,2.4,0.2
		c3.9,0,6.3-2,6.3-5.3c0-3-2.1-4.8-5.7-4.8c-1.5,0-2.5,0.1-3,0.3V291.1z"/>
	<path class="st1" d="M273.5,291.8c0,10.6-6.4,17-15.9,17c-9.6,0-15.2-7.3-15.2-16.5c0-9.7,6.2-17,15.8-17
		C268,275.5,273.5,282.9,273.5,291.8z M250.1,292.3c0,6.3,3,10.8,7.9,10.8s7.8-4.7,7.8-11c0-5.8-2.8-10.8-7.8-10.8
		S250.1,286,250.1,292.3z"/>
	<path class="st1" d="M278.3,276h7.3v26.2h12.9v6.1h-20.2V276z"/>
	<path class="st1" d="M330.6,291.8c0,10.6-6.4,17-15.9,17c-9.6,0-15.2-7.3-15.2-16.5c0-9.7,6.2-17,15.8-17
		C325.2,275.5,330.6,282.9,330.6,291.8z M307.2,292.3c0,6.3,3,10.8,7.9,10.8s7.8-4.7,7.8-11c0-5.8-2.8-10.8-7.8-10.8
		S307.2,286,307.2,292.3z"/>
	<path class="st1" d="M349.5,282.1h-8.7V276h24.9v6.1h-8.8v26.2h-7.4V282.1z"/>
	<path class="st1" d="M377.5,293.3v4.9h-12.6v-4.9H377.5z"/>
	<path class="st1" d="M382.3,300.8c2,1,5,2,8.1,2c3.4,0,5.1-1.4,5.1-3.5c0-2-1.5-3.2-5.4-4.6c-5.4-1.9-8.9-4.8-8.9-9.6
		c0-5.5,4.6-9.7,12.2-9.7c3.6,0,6.3,0.8,8.3,1.6l-1.6,5.9c-1.3-0.6-3.6-1.5-6.8-1.5c-3.2,0-4.7,1.4-4.7,3.1c0,2.1,1.8,3,6,4.6
		c5.7,2.1,8.4,5.1,8.4,9.7c0,5.4-4.2,10.1-13.1,10.1c-3.7,0-7.3-1-9.2-2L382.3,300.8z"/>
	<path class="st1" d="M415.4,276v12.4h12.1V276h7.3v32.4h-7.3v-13.5h-12.1v13.5h-7.3V276H415.4z"/>
	<path class="st1" d="M448.5,276v32.4h-7.3V276H448.5z"/>
	<path class="st1" d="M454.8,276.4c2.4-0.4,5.9-0.7,9.7-0.7c4.8,0,8.2,0.7,10.5,2.5c1.9,1.5,3,3.8,3,6.8c0,4.1-2.9,7-5.7,8v0.1
		c2.3,0.9,3.5,3.1,4.3,6c1,3.6,2,7.9,2.6,9.1h-7.5c-0.5-1-1.3-3.6-2.3-7.5c-0.9-4-2.3-5.1-5.2-5.2H462v12.7h-7.3v-31.8H454.8z
		 M462.1,290.4h2.9c3.6,0,5.8-1.8,5.8-4.7c0-3-2-4.5-5.4-4.5c-1.8,0-2.8,0.1-3.3,0.2V290.4z"/>
	<path class="st1" d="M489.5,282.1h-8.7V276h24.9v6.1h-8.8v26.2h-7.4V282.1z"/>
	<path class="st1" d="M523.7,282.1H515V276h24.9v6.1h-8.8v26.2h-7.3v-26.2H523.7z"/>
	<path class="st1" d="M551.1,276v32.4h-7.3V276H551.1z"/>
	<path class="st1" d="M557.4,276.4c2.3-0.4,5.4-0.7,9.9-0.7s7.7,0.9,9.9,2.6c2.1,1.6,3.5,4.3,3.5,7.5s-1.1,5.9-3,7.7
		c-2.5,2.4-6.2,3.4-10.5,3.4c-1,0-1.8,0-2.5-0.1v11.6h-7.3L557.4,276.4L557.4,276.4z M564.7,291.1c0.6,0.1,1.4,0.2,2.4,0.2
		c3.9,0,6.3-2,6.3-5.3c0-3-2.1-4.8-5.7-4.8c-1.5,0-2.5,0.1-3,0.3V291.1z"/>
</g>
</svg>
