<?xml version="1.0" encoding="utf-8"?>
<!-- Generator: Adobe Illustrator 19.0.0, SVG Export Plug-In . SVG Version: 6.00 Build 0)  -->
<svg version="1.1" id="Capa_1" xmlns="http://www.w3.org/2000/svg" xmlns:xlink="http://www.w3.org/1999/xlink" x="0px" y="0px"
	 viewBox="-49 141.1 511.9 511.9" style="enable-background:new -49 141.1 511.9 511.9;" xml:space="preserve">
<style type="text/css">
	.st0{opacity:0.2;}
	.st1{fill:#FFFFFF;}
	.st2{opacity:0.5;}
	.st3{fill:#3A3847;}
</style>
<g>
	<g class="st0">
		<path class="st1" d="M278.8,305v-24h-8v24c0,8.8,7.2,16,16,16c1.4,0,2.7-0.2,4-0.6C284,318.7,278.8,312.5,278.8,305z"/>
	</g>
	<g class="st2">
		<path class="st1" d="M-27.9,359.6c0,0,5.3-12.1,9.5-21c15-32.4,45.7-101.3,59.7-113.8c14.6-13.1,73-34.9,90.6-41.2l-5-6.5h-8
			c0,0-70.1,24-88,40c-14,12.6-50.3,89.1-65.3,121.5c-4.2,8.8-6.7,14.4-6.7,14.4L-27.9,359.6z"/>
		<path class="st1" d="M70.9,641V345h-8v296c0,4.4,3.6,8,8,8h8C74.5,649,70.9,645.4,70.9,641z"/>
	</g>
	<path class="st1" d="M-21.4,345l-12.7-6.2l-0.4-0.2c-4.1,8.8-6.6,14.4-6.6,14.4l13.2,6.5C-27.9,359.6-24.8,352.3-21.4,345z"/>
	<path class="st3" d="M207.1,261.1c-2.2,0-4-1.8-4-4c0-2.2,1.8-4,4-4h0.1c2.2,0,4,1.8,4,4C211.1,259.3,209.3,261.1,207.1,261.1z"/>
	<path class="st3" d="M207.1,245.1c-2.2,0-4-1.8-4-4s1.8-4,4-4h0.1c2.2,0,4,1.8,4,4C211.1,243.3,209.3,245.1,207.1,245.1z"/>
	<path class="st3" d="M207.1,229.1c-2.2,0-4-1.8-4-4s1.8-4,4-4h0.1c2.2,0,4,1.8,4,4C211.1,227.3,209.3,229.1,207.1,229.1z"/>
	<path class="st3" d="M350.8,645c-2.2,0-4-1.8-4-4V345c0-2.2,1.8-4,4-4s4,1.8,4,4v296C354.8,643.2,353,645,350.8,645z"/>
	<path class="st3" d="M454.8,357c-1.5,0-3-0.9-3.6-2.4c-15-33.2-56.9-122-71-134.6c-17-15.3-85.9-38.9-86.6-39.2
		c-2.1-0.7-3.2-3-2.5-5.1s3-3.2,5.1-2.5c2.9,1,71.1,24.4,89.4,40.8c18.2,16.4,70.7,132.4,73,137.3c0.9,2,0,4.4-2,5.3
		C455.9,356.9,455.4,357,454.8,357z"/>
	<path class="st3" d="M374.8,396.5c-1.5,0-2.9-0.8-3.6-2.2c-1-2-0.2-4.4,1.8-5.4l80-39.5c2-1,4.4-0.2,5.4,1.8s0.2,4.4-1.8,5.4
		l-80,39.5C376,396.4,375.4,396.5,374.8,396.5z"/>
	<path class="st3" d="M374.8,396.5c-1.5,0-2.9-0.8-3.6-2.2l-24-47.5c-1-2-0.2-4.4,1.8-5.4s4.4-0.2,5.4,1.8l24,47.5
		c1,2,0.2,4.4-1.8,5.4C376.1,396.4,375.4,396.5,374.8,396.5z"/>
	<path class="st3" d="M342.8,653c-2.2,0-4-1.8-4-4s1.8-4,4-4s4-1.8,4-4s1.8-4,4-4s4,1.8,4,4C354.8,647.6,349.5,653,342.8,653z"/>
	<path class="st3" d="M62.9,645c-2.2,0-4-1.8-4-4V345c0-2.2,1.8-4,4-4c2.2,0,4,1.8,4,4v296C66.9,643.2,65.1,645,62.9,645z"/>
	<path class="st3" d="M-41.1,357c-0.5,0-1.1-0.1-1.6-0.4c-2-0.9-2.9-3.3-2-5.3c2.2-4.9,54.7-120.9,73-137.3
		c18.2-16.4,86.5-39.8,89.4-40.8c2.1-0.7,4.4,0.4,5.1,2.5s-0.4,4.4-2.5,5.1c-0.7,0.2-69.6,23.9-86.6,39.2
		c-14.1,12.7-56,101.5-71,134.6C-38.1,356.2-39.6,357-41.1,357z"/>
	<path class="st3" d="M38.9,396.5c-0.6,0-1.2-0.1-1.8-0.4l-80-39.5c-2-1-2.8-3.4-1.8-5.4s3.4-2.8,5.4-1.8l80,39.5
		c2,1,2.8,3.4,1.8,5.4C41.8,395.7,40.4,396.5,38.9,396.5z"/>
	<path class="st3" d="M38.9,396.5c-0.6,0-1.2-0.1-1.8-0.4c-2-1-2.8-3.4-1.8-5.4l24-47.5c1-2,3.4-2.8,5.4-1.8s2.8,3.4,1.8,5.4
		l-24,47.5C41.8,395.7,40.3,396.5,38.9,396.5z"/>
	<path class="st3" d="M70.9,653c-6.6,0-12-5.4-12-12c0-2.2,1.8-4,4-4c2.2,0,4,1.8,4,4s1.8,4,4,4s4,1.8,4,4S73.1,653,70.9,653z"/>
	<path class="st3" d="M342.8,653H70.9c-2.2,0-4-1.8-4-4s1.8-4,4-4h272c2.2,0,4,1.8,4,4C346.8,651.2,345,653,342.8,653z"/>
	<path class="st3" d="M334.8,637H78.9c-2.2,0-4-1.8-4-4s1.8-4,4-4h256c2.2,0,4,1.8,4,4C338.8,635.2,337,637,334.8,637z"/>
	<path class="st3" d="M286.8,181.1c-1.8,0-3.4-1.2-3.9-3l-8-32c-0.5-2.1,0.8-4.3,2.9-4.8s4.3,0.8,4.9,2.9l8,32
		c0.5,2.1-0.8,4.3-2.9,4.8C287.5,181,287.2,181.1,286.8,181.1z"/>
	<path class="st3" d="M277.7,149.1H136c-2.8,0-5.1-1.8-5.1-4s2.3-4,5.1-4h141.6c2.8,0,5.1,1.8,5.1,4S280.5,149.1,277.7,149.1z"/>
	<path class="st3" d="M210.9,197.1c-1.3,0-2.5-0.6-3.3-1.7c-1.3-1.8-0.8-4.3,1-5.6l68-48c1.8-1.3,4.3-0.8,5.6,1
		c1.3,1.8,0.8,4.3-1,5.6l-68,48C212.5,196.8,211.7,197.1,210.9,197.1z"/>
	<path class="st3" d="M254.9,222.7c-0.7,0-1.4-0.2-2-0.5l-44-25.7c-1.9-1.1-2.6-3.6-1.4-5.5c1.1-1.9,3.6-2.5,5.5-1.4l44,25.7
		c1.9,1.1,2.6,3.6,1.4,5.5C257.6,222,256.2,222.7,254.9,222.7z"/>
	<path class="st3" d="M254.9,222.7c-0.9,0-1.7-0.3-2.4-0.8c-1.8-1.3-2.1-3.9-0.7-5.6l32-41.7c1.4-1.8,3.9-2.1,5.6-0.7
		c1.8,1.3,2.1,3.9,0.7,5.6l-32,41.7C257.2,222.2,256,222.7,254.9,222.7z"/>
	<path class="st3" d="M126.9,181.1c-0.3,0-0.6,0-1-0.1c-2.1-0.5-3.4-2.7-2.9-4.8l8-32c0.5-2.1,2.7-3.5,4.8-2.9
		c2.1,0.5,3.4,2.7,2.9,4.8l-8,32C130.3,179.9,128.7,181.1,126.9,181.1z"/>
	<path class="st3" d="M202.9,197.1c-0.8,0-1.6-0.2-2.3-0.7l-68-48c-1.8-1.3-2.2-3.8-1-5.6c1.3-1.8,3.8-2.2,5.6-1l68,48
		c1.8,1.3,2.2,3.8,1,5.6C205.3,196.5,204.1,197.1,202.9,197.1z"/>
	<path class="st3" d="M158.9,222.7c-1.4,0-2.7-0.7-3.5-2c-1.1-1.9-0.5-4.4,1.4-5.5l44-25.7c1.9-1.1,4.4-0.5,5.5,1.4s0.5,4.4-1.4,5.5
		l-44,25.7C160.3,222.6,159.6,222.7,158.9,222.7z"/>
	<path class="st3" d="M158.9,222.7c-1.2,0-2.4-0.5-3.2-1.6l-32-41.7c-1.3-1.8-1-4.3,0.7-5.6c1.8-1.3,4.3-1,5.6,0.7l32,41.7
		c1.3,1.8,1,4.3-0.7,5.6C160.6,222.5,159.7,222.7,158.9,222.7z"/>
	<path class="st3" d="M198.9,277.1c-2.2,0-4-1.8-4-4v-64c0-2.2,1.8-4,4-4s4,1.8,4,4v64C202.9,275.3,201.1,277.1,198.9,277.1z"/>
	<path class="st3" d="M214.9,277.1h-16c-2.2,0-4-1.8-4-4s1.8-4,4-4h16c2.2,0,4,1.8,4,4C218.9,275.3,217.1,277.1,214.9,277.1z"/>
	<path class="st3" d="M214.9,277.1c-2.2,0-4-1.8-4-4v-64c0-2.2,1.8-4,4-4s4,1.8,4,4v64C218.9,275.3,217.1,277.1,214.9,277.1z"/>
	<path class="st3" d="M302.8,309.1c-2.2,0-4-1.8-4-4v-20h-24v20c0,2.2-1.8,4-4,4s-4-1.8-4-4v-24c0-2.2,1.8-4,4-4h32c2.2,0,4,1.8,4,4
		v24C306.8,307.3,305.1,309.1,302.8,309.1z"/>
	<path class="st3" d="M286.8,325.1c-11,0-20-9-20-20c0-2.2,1.8-4,4-4s4,1.8,4,4c0,6.6,5.4,12,12,12s12-5.4,12-12c0-2.2,1.8-4,4-4
		s4,1.8,4,4C306.8,316.1,297.9,325.1,286.8,325.1z"/>
	<path class="st3" d="M294.8,301.1h-16c-2.2,0-4-1.8-4-4s1.8-4,4-4h16c2.2,0,4,1.8,4,4C298.8,299.3,297.1,301.1,294.8,301.1z"/>
	<path class="st3" d="M286.8,325.1c-2.2,0-4-1.8-4-4v-8c0-2.2,1.8-4,4-4s4,1.8,4,4v8C290.8,323.3,289.1,325.1,286.8,325.1z"/>
	<path class="st3" d="M364.5,374.7c-1.5,0-2.9-0.8-3.6-2.2c-1-2-0.2-4.4,1.8-5.4l80-39.5c2-1,4.4-0.2,5.4,1.8s0.2,4.4-1.8,5.4
		l-80,39.5C365.7,374.5,365.1,374.7,364.5,374.7z"/>
	<path class="st3" d="M49.2,375.2c-0.6,0-1.2-0.1-1.8-0.4l-80-39.5c-2-1-2.8-3.4-1.8-5.4s3.4-2.8,5.4-1.8l80,39.5
		c2,1,2.8,3.4,1.8,5.4C52.1,374.4,50.7,375.2,49.2,375.2z"/>
	<g>
		
			<rect x="-40.3" y="360" transform="matrix(0.8944 0.4472 -0.4472 0.8944 162.1426 35.9063)" class="st3" width="90.6" height="2.8"/>
	</g>
	<g>
		
			<rect x="366.7" y="359.9" transform="matrix(-0.8944 0.4472 -0.4472 -0.8944 942.1204 500.2021)" class="st3" width="90.6" height="2.8"/>
	</g>
	<g>
		
			<rect x="120" y="189" transform="matrix(0.6202 0.7844 -0.7844 0.6202 205.9228 -44.4411)" class="st3" width="57.7" height="2.8"/>
	</g>
	<g>
		
			<rect x="235.1" y="189.1" transform="matrix(-0.6202 0.7844 -0.7844 -0.6202 577.1517 101.5969)" class="st3" width="57.7" height="2.8"/>
	</g>
</g>
</svg>
