<?xml version="1.0" encoding="utf-8"?>
<!-- Generator: Adobe Illustrator 19.0.0, SVG Export Plug-In . SVG Version: 6.00 Build 0)  -->
<svg version="1.1" id="Capa_1" xmlns="http://www.w3.org/2000/svg" xmlns:xlink="http://www.w3.org/1999/xlink" x="0px" y="0px"
	 viewBox="-49 141.1 511.9 511.9" style="enable-background:new -49 141.1 511.9 511.9;" xml:space="preserve">
<style type="text/css">
	.st0{opacity:0.2;}
	.st1{fill:#FFFFFF;}
	.st2{fill:#3A3847;}
</style>
<g>
	<g class="st0">
		<path class="st1" d="M278.8,305.1v-24h-8v24c0,8.8,7.2,16,16,16c1.4,0,2.7-0.2,4-0.6C284,318.7,278.8,312.5,278.8,305.1z"/>
	</g>
	<polygon class="st1" points="138.9,174.1 144.4,151.8 134.9,145.1 126.9,177.1 158.9,218.7 168.7,213 	"/>
	<path class="st1" d="M-21.4,345l-12.7-6.2l-0.4-0.2c-4.2,8.9-6.6,14.5-6.6,14.5l13.2,6.5C-27.9,359.6-24.8,352.3-21.4,345z"/>
	<path class="st2" d="M207.1,261.1c-2.2,0-4-1.8-4-4c0-2.2,1.8-4,4-4h0.1c2.2,0,4,1.8,4,4C211.2,259.3,209.3,261.1,207.1,261.1z"/>
	<path class="st2" d="M207.1,245.1c-2.2,0-4-1.8-4-4c0-2.2,1.8-4,4-4h0.1c2.2,0,4,1.8,4,4C211.2,243.3,209.3,245.1,207.1,245.1z"/>
	<path class="st2" d="M207.1,229.1c-2.2,0-4-1.8-4-4c0-2.2,1.8-4,4-4h0.1c2.2,0,4,1.8,4,4C211.1,227.3,209.3,229.1,207.1,229.1z"/>
	<path class="st2" d="M454.8,357c-1.5,0-3-0.9-3.6-2.4c-15-33.2-56.9-122-71-134.6c-17-15.3-85.9-38.9-86.6-39.2
		c-2.1-0.7-3.2-3-2.5-5.1s3-3.2,5.1-2.5c2.9,1,71.1,24.4,89.4,40.8c18.2,16.4,70.7,132.4,73,137.3c0.9,2,0,4.4-2,5.3
		C455.9,356.9,455.4,357,454.8,357z"/>
	<path class="st2" d="M374.8,396.5c-1.5,0-2.9-0.8-3.6-2.2c-1-2-0.2-4.4,1.8-5.4l80-39.5c2-1,4.4-0.2,5.4,1.8s0.2,4.4-1.8,5.4
		l-80,39.5C376,396.4,375.4,396.5,374.8,396.5z"/>
	<path class="st2" d="M374.8,396.5c-1.5,0-2.9-0.8-3.6-2.2l-24-47.5c-1-2-0.2-4.4,1.8-5.4s4.4-0.2,5.4,1.8l24,47.5
		c1,2,0.2,4.4-1.8,5.4C376.1,396.4,375.4,396.5,374.8,396.5z"/>
	<path class="st2" d="M-41.1,357c-0.5,0-1.1-0.1-1.6-0.4c-2-0.9-2.9-3.3-2-5.3c2.2-4.9,54.7-120.9,73-137.3
		c18.2-16.4,86.5-39.8,89.4-40.8c2.1-0.7,4.4,0.4,5.1,2.5s-0.4,4.4-2.5,5.1c-0.7,0.2-69.6,23.9-86.6,39.2
		c-14.1,12.7-56,101.5-71,134.6C-38.1,356.2-39.6,357-41.1,357z"/>
	<path class="st2" d="M38.9,396.5c-0.6,0-1.2-0.1-1.8-0.4l-80-39.5c-2-1-2.8-3.4-1.8-5.4s3.4-2.8,5.4-1.8l80,39.5
		c2,1,2.8,3.4,1.8,5.4C41.8,395.7,40.4,396.5,38.9,396.5z"/>
	<path class="st2" d="M38.9,396.5c-0.6,0-1.2-0.1-1.8-0.4c-2-1-2.8-3.4-1.8-5.4l24-47.5c1-2,3.4-2.8,5.4-1.8s2.8,3.4,1.8,5.4
		l-24,47.5C41.8,395.7,40.3,396.5,38.9,396.5z"/>
	<g>
		<path class="st2" d="M350.8,645c-2.2,0-4-1.8-4-4V345c0-2.2,1.8-4,4-4c2.2,0,4,1.8,4,4v296C354.8,643.2,353,645,350.8,645z"/>
		<path class="st2" d="M342.8,653c-2.2,0-4-1.8-4-4s1.8-4,4-4s4-1.8,4-4s1.8-4,4-4c2.2,0,4,1.8,4,4C354.8,647.6,349.5,653,342.8,653
			z"/>
		<path class="st2" d="M62.9,645c-2.2,0-4-1.8-4-4V345c0-2.2,1.8-4,4-4s4,1.8,4,4v296C66.9,643.2,65.1,645,62.9,645z"/>
		<path class="st2" d="M70.9,653c-6.6,0-12-5.4-12-12c0-2.2,1.8-4,4-4s4,1.8,4,4s1.8,4,4,4s4,1.8,4,4S73.1,653,70.9,653z"/>
		<path class="st2" d="M342.8,653H70.9c-2.2,0-4-1.8-4-4s1.8-4,4-4h272c2.2,0,4,1.8,4,4C346.8,651.2,345,653,342.8,653z"/>
		<path class="st2" d="M350.4,637h-287c-2.5,0-4.5-1.8-4.5-4s2-4,4.5-4h287c2.5,0,4.5,1.8,4.5,4C354.8,635.2,352.8,637,350.4,637z"
			/>
	</g>
	<path class="st2" d="M286.8,181.1c-1.8,0-3.4-1.2-3.9-3l-8-32c-0.5-2.1,0.8-4.3,2.9-4.8s4.3,0.8,4.9,2.9l8,32
		c0.5,2.1-0.8,4.3-2.9,4.8C287.5,181,287.2,181.1,286.8,181.1z"/>
	<path class="st2" d="M275.9,149.1H137.8c-2.7,0-4.9-1.8-4.9-4c0-2.2,2.2-4,4.9-4h138.1c2.7,0,4.9,1.8,4.9,4
		C280.8,147.3,278.6,149.1,275.9,149.1z"/>
	<path class="st2" d="M210.9,197.1c-1.3,0-2.5-0.6-3.3-1.7c-1.3-1.8-0.8-4.3,1-5.6l68-48c1.8-1.3,4.3-0.8,5.6,1
		c1.3,1.8,0.8,4.3-1,5.6l-68,48C212.5,196.8,211.7,197.1,210.9,197.1z"/>
	<path class="st2" d="M254.9,222.7c-0.7,0-1.4-0.2-2-0.5l-44-25.7c-1.9-1.1-2.5-3.6-1.4-5.5c1.1-1.9,3.6-2.5,5.5-1.4l44,25.7
		c1.9,1.1,2.6,3.6,1.4,5.5C257.6,222,256.2,222.7,254.9,222.7z"/>
	<path class="st2" d="M254.9,222.7c-0.9,0-1.7-0.3-2.4-0.8c-1.8-1.3-2.1-3.9-0.7-5.6l32-41.7c1.4-1.8,3.9-2.1,5.6-0.7
		c1.8,1.3,2.1,3.9,0.7,5.6l-32,41.7C257.2,222.2,256,222.7,254.9,222.7z"/>
	<path class="st2" d="M126.9,181.1c-0.3,0-0.6,0-1-0.1c-2.1-0.5-3.4-2.7-2.9-4.8l8-32c0.5-2.1,2.7-3.5,4.8-2.9
		c2.1,0.5,3.4,2.7,2.9,4.8l-8,32C130.3,179.9,128.7,181.1,126.9,181.1z"/>
	<path class="st2" d="M202.9,197.1c-0.8,0-1.6-0.2-2.3-0.7l-68-48c-1.8-1.3-2.2-3.8-1-5.6c1.3-1.8,3.8-2.2,5.6-1l68,48
		c1.8,1.3,2.2,3.8,1,5.6C205.3,196.5,204.1,197.1,202.9,197.1z"/>
	<path class="st2" d="M158.9,222.7c-1.4,0-2.7-0.7-3.5-2c-1.1-1.9-0.5-4.4,1.4-5.5l44-25.7c1.9-1.1,4.4-0.5,5.5,1.4
		c1.1,1.9,0.5,4.4-1.4,5.5l-44,25.7C160.3,222.6,159.6,222.7,158.9,222.7z"/>
	<path class="st2" d="M158.9,222.7c-1.2,0-2.4-0.5-3.2-1.6l-32-41.7c-1.3-1.8-1-4.3,0.7-5.6c1.8-1.3,4.3-1,5.6,0.7l32,41.7
		c1.3,1.8,1,4.3-0.7,5.6C160.6,222.5,159.7,222.7,158.9,222.7z"/>
	<path class="st2" d="M198.9,277.1c-2.2,0-4-1.8-4-4v-64c0-2.2,1.8-4,4-4s4,1.8,4,4v64C202.9,275.3,201.1,277.1,198.9,277.1z"/>
	<path class="st2" d="M214.9,277.1h-16c-2.2,0-4-1.8-4-4c0-2.2,1.8-4,4-4h16c2.2,0,4,1.8,4,4C218.9,275.3,217.1,277.1,214.9,277.1z"
		/>
	<path class="st2" d="M214.9,277.1c-2.2,0-4-1.8-4-4v-64c0-2.2,1.8-4,4-4s4,1.8,4,4v64C218.9,275.3,217.1,277.1,214.9,277.1z"/>
	<path class="st2" d="M367.7,382.2c-1.5,0-2.9-0.8-3.6-2.2c-1-2-0.2-4.4,1.8-5.4l80-39.5c2-1,4.4-0.2,5.4,1.8s0.2,4.4-1.8,5.4
		l-80,39.5C368.9,382.1,368.3,382.2,367.7,382.2z"/>
	<path class="st2" d="M46,382.2c-0.6,0-1.2-0.1-1.8-0.4l-80-39.5c-2-1-2.8-3.4-1.8-5.4s3.4-2.8,5.4-1.8l80,39.5c2,1,2.8,3.4,1.8,5.4
		C48.9,381.4,47.4,382.2,46,382.2z"/>
	<g>
		<path class="st2" d="M96.7,382.2H115c16.2,0,26.5,9.4,26.5,25.6s-10.4,25.8-26.5,25.8H96.7V382.2z M114.5,422.8
			c8.7,0,14-5.2,14-15c0-9.8-5.5-14.8-14-14.8h-5.2v29.8H114.5z"/>
		<path class="st2" d="M148,396.6h11.9v6.3c0,1.2-0.1,2.3-0.1,2.3h0.1c1.6-5,6.3-9.2,11.8-9.2c0.5,0,1,0.1,1.4,0.1v12.2
			c-0.4-0.1-1.7-0.2-2.5-0.2c-6.9,0-10.2,4.4-10.2,11.1v14.4H148L148,396.6L148,396.6z"/>
		<path class="st2" d="M182.8,438.3c2,0,4.7-0.6,6-3.7l0.7-1.7l-15.7-36.3h14.1l5.5,17c0.6,2,1.4,5.8,1.4,5.8h0.1
			c0,0,0.7-3.5,1.2-5.5l4.7-17.3h13.6l-15.2,41c-3.1,8.3-9.6,11.1-15.5,11.1c-4.9,0-8.6-2.6-8.6-2.6l4-9.1
			C179,437,181,438.3,182.8,438.3z"/>
		<path class="st2" d="M236.3,382.2h31.5V393h-18.9v10.8h15.7v10.8h-15.7v19.1h-12.6V382.2z"/>
		<path class="st2" d="M273.4,396.6h12.4v37h-12.4V396.6z M273.5,382.2h12.1v9.7h-12.1V382.2z"/>
		<path class="st2" d="M296.3,406.9h-4.7v-9.7h5.1v-10.6h12.1v10.6h7.8v9.7h-7.8v11.4c0,4.2,4.2,4.7,6.6,4.7c0.4,0,0.9,0,1.7-0.1
			v10.8c-0.9,0.1-1.9,0.2-3.4,0.2c-5.9,0-17.3-1.6-17.3-14v-13H296.3z"/>
	</g>
</g>
</svg>
