<?xml version="1.0" encoding="utf-8"?>
<!-- Generator: Adobe Illustrator 19.0.0, SVG Export Plug-In . SVG Version: 6.00 Build 0)  -->
<svg version="1.1" id="Layer_1" xmlns="http://www.w3.org/2000/svg" xmlns:xlink="http://www.w3.org/1999/xlink" x="0px" y="0px"
	 viewBox="112 -40 512 512" style="enable-background:new 112 -40 512 512;" xml:space="preserve">
<path d="M562.3,157.6L544.5,51.6c-2.9-17.1-15.7-30.8-32.7-34.7L444.2,1.3l-12.9-19.4c-1.1-1.6-2.8-2.7-4.7-3
	c-0.3,0-0.6-0.1-0.9-0.1l0,0H310.3l0,0c-0.3,0-0.6,0-0.9,0.1c-1.9,0.3-3.6,1.4-4.7,3L291.8,1.3l-67.7,15.6
	c-17,3.9-29.8,17.6-32.7,34.7l-17.7,106.1c-0.5,3.1,1.2,6.2,4.1,7.4l67.9,27.2v211.9c0,3.7,3,6.8,6.8,6.8h230.9c3.7,0,6.8-3,6.8-6.8
	V192.2L558,165C561.1,163.9,562.9,160.7,562.3,157.6z M432.2,7.3l-29.5,47.2c0,0.1-0.1,0.2-0.3,0.2c-0.2,0-0.3-0.1-0.3-0.1
	l-23.5-18.7l45.8-40.1L432.2,7.3z M368,27.1L328.3-7.7h79.4L368,27.1z M360.4,50.9l7.7-6.2l7.7,6.2v64.5c0,0.3-0.2,0.4-0.4,0.4
	h-14.4c-0.3,0-0.4-0.2-0.4-0.4L360.4,50.9L360.4,50.9z M311.7-4.2l45.8,40.1L334,54.6c-0.1,0-0.2,0.1-0.3,0.1
	c-0.2,0-0.3-0.2-0.3-0.2L303.9,7.3L311.7-4.2z M204.8,53.7c1.9-11.7,10.7-21.1,22.4-23.7l65.6-15.1l29.2,46.7
	c2.1,3.4,5.6,5.7,9.5,6.4c0.8,0.2,1.6,0.2,2.4,0.2c3.1,0,6.2-1.1,8.8-3l4.3-3.5v53.7c0,7.7,6.2,14,14,14h14.4c7.7,0,14-6.2,14-14
	V61.8l4.3,3.5c2.5,2,5.6,3,8.8,3c0.8,0,1.6-0.1,2.4-0.2c4-0.7,7.4-3,9.5-6.4l29.2-46.7L509,30c11.6,2.7,20.3,12,22.4,23.7l12.2,73.7
	l-53.3,21.3v-40.5c0-3.7-3-6.8-6.8-6.8s-6.8,3-6.8,6.8v260.2H259.4V108.3c0-3.7-3-6.8-6.8-6.8c-3.7,0-6.8,3-6.8,6.8v40.5l-53.3-21.3
	L204.8,53.7z M188,154.5l2.2-13.4l55.6,22.3v14.3L188,154.5z M259.4,397.3V382h217.3v15.4H259.4z M490.2,177.6v-14.3l55.6-22.3
	l2.2,13.4L490.2,177.6z"/>
<g>
	<path d="M250.3,420.8c1.8-0.3,4.4-0.6,8.1-0.6c3.7,0,6.3,0.7,8.1,2.1c1.7,1.3,2.8,3.5,2.8,6.1c0,2.6-0.9,4.8-2.4,6.3
		c-2,1.9-5.1,2.8-8.6,2.8c-0.8,0-1.5,0-2-0.1v9.5h-5.9V420.8z M256.2,432.9c0.5,0.1,1.1,0.2,2,0.2c3.2,0,5.2-1.6,5.2-4.3
		c0-2.4-1.7-3.9-4.7-3.9c-1.2,0-2,0.1-2.5,0.2V432.9z"/>
	<path d="M297.4,433.4c0,8.7-5.3,14-13,14c-7.9,0-12.5-5.9-12.5-13.5c0-7.9,5.1-13.9,12.9-13.9C293,420,297.4,426.1,297.4,433.4z
		 M278.3,433.8c0,5.2,2.4,8.9,6.5,8.9c4.1,0,6.4-3.9,6.4-9c0-4.8-2.3-8.9-6.4-8.9C280.6,424.8,278.3,428.6,278.3,433.8z"/>
	<path d="M301.4,420.5h6v21.5h10.5v5h-16.6V420.5z"/>
	<path d="M344.2,433.4c0,8.7-5.3,14-13,14c-7.9,0-12.5-5.9-12.5-13.5c0-7.9,5.1-13.9,12.9-13.9C339.8,420,344.2,426.1,344.2,433.4z
		 M325.1,433.8c0,5.2,2.4,8.9,6.5,8.9c4.1,0,6.4-3.9,6.4-9c0-4.8-2.3-8.9-6.4-8.9C327.4,424.8,325.1,428.6,325.1,433.8z"/>
	<path d="M359.7,425.5h-7.1v-5H373v5h-7.2V447h-6V425.5z"/>
	<path d="M382.7,434.6v4h-10.3v-4H382.7z"/>
	<path d="M386.6,440.8c1.6,0.8,4.1,1.7,6.6,1.7c2.8,0,4.2-1.1,4.2-2.9c0-1.7-1.3-2.6-4.4-3.7c-4.4-1.5-7.3-4-7.3-7.8
		c0-4.5,3.8-8,10-8c3,0,5.2,0.6,6.8,1.3l-1.3,4.8c-1.1-0.5-3-1.3-5.5-1.3c-2.6,0-3.9,1.2-3.9,2.6c0,1.7,1.5,2.4,4.9,3.7
		c4.7,1.7,6.9,4.2,6.9,7.9c0,4.4-3.4,8.3-10.7,8.3c-3,0-6-0.8-7.5-1.7L386.6,440.8z"/>
	<path d="M413.7,420.5v10.2h9.9v-10.2h6V447h-6v-11.1h-9.9V447h-6v-26.5H413.7z"/>
	<path d="M440.8,420.5V447h-6v-26.5H440.8z"/>
	<path d="M446,420.8c1.9-0.3,4.8-0.6,8-0.6c3.9,0,6.7,0.6,8.6,2.1c1.6,1.3,2.4,3.1,2.4,5.5c0,3.4-2.4,5.7-4.7,6.5v0.1
		c1.8,0.7,2.9,2.5,3.5,5c0.8,3,1.7,6.5,2.2,7.5h-6.1c-0.4-0.8-1.1-2.9-1.8-6.2c-0.7-3.3-1.8-4.2-4.3-4.2h-1.8V447H446V420.8z
		 M451.9,432.2h2.4c3,0,4.8-1.5,4.8-3.8c0-2.4-1.7-3.7-4.4-3.7c-1.5,0-2.3,0.1-2.7,0.2V432.2z"/>
	<path d="M474.5,425.5h-7.1v-5h20.4v5h-7.2V447h-6V425.5z"/>
</g>
</svg>
