<?xml version="1.0" encoding="utf-8"?>
<!-- Generator: Adobe Illustrator 19.0.0, SVG Export Plug-In . SVG Version: 6.00 Build 0)  -->
<svg version="1.1" id="Layer_1" xmlns="http://www.w3.org/2000/svg" xmlns:xlink="http://www.w3.org/1999/xlink" x="0px" y="0px"
	 viewBox="-49 141 512 512" style="enable-background:new -49 141 512 512;" xml:space="preserve">
<path d="M437.2,352.9l-21-125.7c-3.4-20.3-18.6-36.5-38.7-41.1l-80.2-18.5l-15.3-23c-1.3-1.9-3.3-3.2-5.6-3.5
	c-0.4,0-0.7-0.1-1.1-0.1l0,0H138.6l0,0c-0.4,0-0.7,0-1.1,0.1c-2.3,0.3-4.3,1.6-5.6,3.5l-15.3,23l-80.2,18.5
	c-20.1,4.6-35.3,20.8-38.7,41.1l-21,125.7c-0.6,3.7,1.4,7.4,4.9,8.8l80.5,32.2V645c0,4.4,3.6,8,8,8h273.6c4.4,0,8-3.6,8-8V393.9
	l80.5-32.2C435.8,360.3,437.9,356.6,437.2,352.9z M283,174.8l-35,55.9c0,0.1-0.1,0.2-0.4,0.2c-0.2,0-0.4-0.1-0.4-0.1l-27.8-22.2
	l54.3-47.5L283,174.8z M207,198.2L159.9,157H254L207,198.2z M197.9,226.4l9.1-7.3l9.1,7.3v76.5c0,0.3-0.2,0.5-0.5,0.5h-17.1
	c-0.3,0-0.5-0.2-0.5-0.5L197.9,226.4L197.9,226.4z M140.2,161.1l54.3,47.5l-27.8,22.2c-0.1,0-0.2,0.1-0.4,0.1s-0.3-0.2-0.4-0.2
	L131,174.8L140.2,161.1z M13.5,229.8c2.3-13.9,12.7-25,26.5-28.1l77.7-17.9l34.6,55.4c2.5,4,6.6,6.8,11.3,7.6
	c0.9,0.2,1.9,0.2,2.8,0.2c3.7,0,7.4-1.3,10.4-3.6l5.1-4.1V303c0,9.1,7.4,16.6,16.6,16.6h17.1c9.1,0,16.6-7.4,16.6-16.6v-63.7
	l5.1,4.1c3,2.4,6.6,3.6,10.4,3.6c0.9,0,1.9-0.1,2.8-0.2c4.7-0.8,8.8-3.5,11.3-7.6l34.6-55.4l77.7,17.9c13.8,3.2,24.1,14.2,26.5,28.1
	l14.5,87.3l-63.2,25.3v-48c0-4.4-3.6-8-8-8s-8,3.6-8,8v308.4H78.2V294.4c0-4.4-3.6-8-8-8s-8,3.6-8,8v48L-1,317.1L13.5,229.8z
	 M-6.4,349.2l2.6-15.9l65.9,26.4v16.9L-6.4,349.2z M78.2,637v-18.2h257.6V637H78.2z M351.8,376.6v-16.9l65.9-26.4l2.6,15.9
	L351.8,376.6z"/>
</svg>
