<?xml version="1.0" encoding="utf-8"?>
<!-- Generator: Adobe Illustrator 19.0.0, SVG Export Plug-In . SVG Version: 6.00 Build 0)  -->
<svg version="1.1" id="Capa_1" xmlns="http://www.w3.org/2000/svg" xmlns:xlink="http://www.w3.org/1999/xlink" x="0px" y="0px"
	 viewBox="148 -183.9 511.9 511.9" style="enable-background:new 148 -183.9 511.9 511.9;" xml:space="preserve">
<style type="text/css">
	.st0{fill-rule:evenodd;clip-rule:evenodd;fill:#BD2F32;}
	.st1{fill:#FFFFFF;}
</style>
<g id="XMLID_29_">
	<rect id="XMLID_28_" x="147.9" y="-184.9" class="st0" width="512" height="512"/>
	<g id="XMLID_30_">
		<rect id="XMLID_31_" x="220.3" y="254.3" class="st1" width="367.3" height="2.1"/>
	</g>
</g>
<path class="st1" d="M404.1-61.2c-1.7,0-3.1-1.4-3.1-3.1s1.4-3.1,3.1-3.1h0.1c1.7,0,3.1,1.4,3.1,3.1S405.8-61.2,404.1-61.2z"/>
<path class="st1" d="M404.1-73.4c-1.7,0-3.1-1.4-3.1-3.1c0-1.7,1.4-3.1,3.1-3.1h0.1c1.7,0,3.1,1.4,3.1,3.1
	C407.2-74.8,405.8-73.4,404.1-73.4z"/>
<path class="st1" d="M404.1-85.7c-1.7,0-3.1-1.4-3.1-3.1c0-1.7,1.4-3.1,3.1-3.1h0.1c1.7,0,3.1,1.4,3.1,3.1
	C407.2-87,405.8-85.7,404.1-85.7z"/>
<path class="st1" d="M593.8,12.3c-1.1,0-2.3-0.7-2.8-1.8c-11.5-25.4-43.6-93.4-54.4-103.1c-13-11.7-65.8-29.8-66.3-30
	c-1.6-0.5-2.5-2.3-1.9-3.9c0.6-1.6,2.3-2.5,3.9-1.9c2.2,0.8,54.4,18.7,68.5,31.2C554.7-84.6,594.9,4.2,596.7,7.9
	c0.7,1.5,0,3.4-1.5,4.1C594.6,12.2,594.2,12.3,593.8,12.3z"/>
<path class="st1" d="M532.5,42.5c-1.1,0-2.2-0.6-2.8-1.7c-0.8-1.5-0.2-3.4,1.4-4.1l61.3-30.2c1.5-0.8,3.4-0.2,4.1,1.4
	c0.8,1.5,0.2,3.4-1.4,4.1l-61.3,30.2C533.4,42.5,533,42.5,532.5,42.5z"/>
<path class="st1" d="M532.5,42.5c-1.1,0-2.2-0.6-2.8-1.7L511.3,4.4c-0.8-1.5-0.2-3.4,1.4-4.1c1.6-0.7,3.4-0.2,4.1,1.4l18.4,36.4
	c0.8,1.5,0.2,3.4-1.4,4.1C533.5,42.5,533,42.5,532.5,42.5z"/>
<path class="st1" d="M214,12.3c-0.4,0-0.8-0.1-1.2-0.3c-1.5-0.7-2.2-2.5-1.5-4.1c1.7-3.8,41.9-92.6,55.9-105.1
	c13.9-12.6,66.2-30.5,68.5-31.2c1.6-0.5,3.4,0.3,3.9,1.9c0.5,1.6-0.3,3.4-1.9,3.9c-0.5,0.2-53.3,18.3-66.3,30
	c-10.8,9.7-42.9,77.7-54.4,103.1C216.3,11.7,215.2,12.3,214,12.3z"/>
<path class="st1" d="M275.3,42.5c-0.5,0-0.9-0.1-1.4-0.3L212.6,12c-1.5-0.8-2.1-2.6-1.4-4.1c0.8-1.5,2.6-2.1,4.1-1.4l61.3,30.2
	c1.5,0.8,2.1,2.6,1.4,4.1C277.5,41.9,276.4,42.5,275.3,42.5z"/>
<path class="st1" d="M275.3,42.5c-0.5,0-0.9-0.1-1.4-0.3c-1.5-0.8-2.1-2.6-1.4-4.1l18.4-36.4c0.8-1.5,2.6-2.1,4.1-1.4
	c1.5,0.8,2.1,2.6,1.4,4.1L278,40.8C277.5,41.9,276.4,42.5,275.3,42.5z"/>
<g>
	<path class="st1" d="M514.1,232.8c-1.7,0-3.1-1.4-3.1-3.1V3.1c0-1.7,1.4-3.1,3.1-3.1s3.1,1.4,3.1,3.1v226.7
		C517.2,231.4,515.8,232.8,514.1,232.8z"/>
	<path class="st1" d="M508,239c-1.7,0-3.1-1.4-3.1-3.1s1.4-3.1,3.1-3.1s3.1-1.4,3.1-3.1s1.4-3.1,3.1-3.1s3.1,1.4,3.1,3.1
		C517.2,234.8,513.1,239,508,239z"/>
	<path class="st1" d="M293.7,232.8c-1.7,0-3.1-1.4-3.1-3.1V3.1c0-1.7,1.4-3.1,3.1-3.1s3.1,1.4,3.1,3.1v226.7
		C296.7,231.4,295.4,232.8,293.7,232.8z"/>
	<path class="st1" d="M299.8,239c-5.1,0-9.2-4.1-9.2-9.2c0-1.7,1.4-3.1,3.1-3.1c1.7,0,3.1,1.4,3.1,3.1s1.4,3.1,3.1,3.1
		s3.1,1.4,3.1,3.1C302.9,237.6,301.5,239,299.8,239z"/>
	<path class="st1" d="M508,239H299.8c-1.7,0-3.1-1.4-3.1-3.1s1.4-3.1,3.1-3.1h208.3c1.7,0,3.1,1.4,3.1,3.1
		C511.1,237.6,509.7,239,508,239z"/>
	<path class="st1" d="M513.8,226.7H294.1c-1.9,0-3.4-1.4-3.4-3.1s1.5-3.1,3.4-3.1h219.8c1.9,0,3.4,1.4,3.4,3.1
		C517.2,225.3,515.7,226.7,513.8,226.7z"/>
</g>
<path class="st1" d="M465.1-122.4c-1.4,0-2.6-0.9-3-2.3l-6.1-24.5c-0.4-1.6,0.6-3.3,2.2-3.7c1.6-0.4,3.3,0.6,3.8,2.2l6.1,24.5
	c0.4,1.6-0.6,3.3-2.2,3.7C465.7-122.5,465.4-122.4,465.1-122.4z"/>
<path class="st1" d="M456.8-146.9H351c-2.1,0-3.8-1.4-3.8-3.1s1.7-3.1,3.8-3.1h105.8c2.1,0,3.8,1.4,3.8,3.1S458.8-146.9,456.8-146.9
	z"/>
<path class="st1" d="M407-110.2c-1,0-1.9-0.5-2.5-1.3c-1-1.4-0.6-3.3,0.8-4.3l52.1-36.8c1.4-1,3.3-0.6,4.3,0.8
	c1,1.4,0.6,3.3-0.8,4.3l-52.1,36.8C408.2-110.4,407.6-110.2,407-110.2z"/>
<path class="st1" d="M440.7-90.6c-0.5,0-1.1-0.2-1.5-0.4l-33.7-19.7c-1.5-0.8-1.9-2.8-1.1-4.2c0.8-1.5,2.8-1.9,4.2-1.1l33.7,19.7
	c1.5,0.8,2,2.8,1.1,4.2C442.8-91.1,441.7-90.6,440.7-90.6z"/>
<path class="st1" d="M440.7-90.6c-0.7,0-1.3-0.2-1.8-0.6c-1.4-1-1.6-3-0.5-4.3l24.5-31.9c1.1-1.4,3-1.6,4.3-0.5c1.4,1,1.6,3,0.5,4.3
	l-24.5,31.9C442.5-90.9,441.5-90.6,440.7-90.6z"/>
<path class="st1" d="M342.7-122.4c-0.2,0-0.5,0-0.8-0.1c-1.6-0.4-2.6-2.1-2.2-3.7l6.1-24.5c0.4-1.6,2.1-2.7,3.7-2.2
	c1.6,0.4,2.6,2.1,2.2,3.7l-6.1,24.5C345.3-123.3,344.1-122.4,342.7-122.4z"/>
<path class="st1" d="M400.9-110.2c-0.6,0-1.2-0.2-1.8-0.5L347-147.5c-1.4-1-1.7-2.9-0.8-4.3c1-1.4,2.9-1.7,4.3-0.8l52.1,36.8
	c1.4,1,1.7,2.9,0.8,4.3C402.7-110.6,401.8-110.2,400.9-110.2z"/>
<path class="st1" d="M367.2-90.6c-1.1,0-2.1-0.5-2.7-1.5c-0.8-1.5-0.4-3.4,1.1-4.2l33.7-19.7c1.5-0.8,3.4-0.4,4.2,1.1
	s0.4,3.4-1.1,4.2L368.7-91C368.3-90.6,367.7-90.6,367.2-90.6z"/>
<path class="st1" d="M367.2-90.6c-0.9,0-1.8-0.4-2.5-1.2l-24.5-31.9c-1-1.4-0.8-3.3,0.5-4.3c1.4-1,3.3-0.8,4.3,0.5l24.5,31.9
	c1,1.4,0.8,3.3-0.5,4.3C368.5-90.7,367.8-90.6,367.2-90.6z"/>
<path class="st1" d="M397.8-48.9c-1.7,0-3.1-1.4-3.1-3.1v-49c0-1.7,1.4-3.1,3.1-3.1s3.1,1.4,3.1,3.1v49
	C400.9-50.3,399.5-48.9,397.8-48.9z"/>
<path class="st1" d="M410.1-48.9h-12.3c-1.7,0-3.1-1.4-3.1-3.1s1.4-3.1,3.1-3.1h12.3c1.7,0,3.1,1.4,3.1,3.1
	C413.1-50.3,411.8-48.9,410.1-48.9z"/>
<path class="st1" d="M410.1-48.9c-1.7,0-3.1-1.4-3.1-3.1v-49c0-1.7,1.4-3.1,3.1-3.1s3.1,1.4,3.1,3.1v49
	C413.1-50.3,411.8-48.9,410.1-48.9z"/>
<path class="st1" d="M527.1,31.6c-1.1,0-2.2-0.6-2.8-1.7c-0.8-1.5-0.2-3.4,1.4-4.1L587-4.4c1.5-0.8,3.4-0.2,4.1,1.4
	c0.8,1.5,0.2,3.4-1.4,4.1l-61.3,30.2C528,31.5,527.5,31.6,527.1,31.6z"/>
<path class="st1" d="M280.7,31.6c-0.5,0-0.9-0.1-1.4-0.3L218,1.1c-1.5-0.8-2.1-2.6-1.4-4.1c0.8-1.5,2.6-2.1,4.1-1.4L282,25.8
	c1.5,0.8,2.1,2.6,1.4,4.1C283,31,281.8,31.6,280.7,31.6z"/>
<g>
	<path class="st1" d="M319.6,31.6h14c12.4,0,20.3,7.2,20.3,19.6c0,12.4-8,19.8-20.3,19.8h-14V31.6z M333.2,62.7
		c6.7,0,10.7-4,10.7-11.5s-4.2-11.3-10.7-11.3h-4v22.8H333.2z"/>
	<path class="st1" d="M358.8,42.6h9.1v4.8c0,0.9-0.1,1.8-0.1,1.8h0.1c1.2-3.8,4.8-7,9-7c0.4,0,0.8,0.1,1.1,0.1v9.3
		c-0.3-0.1-1.3-0.2-1.9-0.2c-5.3,0-7.8,3.4-7.8,8.5v11h-9.5V42.6L358.8,42.6z"/>
	<path class="st1" d="M385.5,74.5c1.5,0,3.6-0.5,4.6-2.8l0.5-1.3l-12-27.8h10.8l4.2,13c0.5,1.5,1.1,4.4,1.1,4.4h0.1
		c0,0,0.5-2.7,0.9-4.2l3.6-13.2h10.4L398,74c-2.4,6.4-7.4,8.5-11.9,8.5c-3.8,0-6.6-2-6.6-2l3.1-7C382.6,73.5,384.1,74.5,385.5,74.5z
		"/>
	<path class="st1" d="M426.5,31.6h24.1v8.3h-14.5v8.3h12v8.3h-12v14.6h-9.6V31.6z"/>
	<path class="st1" d="M454.9,42.6h9.5v28.3h-9.5V42.6z M454.9,31.6h9.3V39h-9.3V31.6z"/>
	<path class="st1" d="M472.4,50.5h-3.6v-7.4h3.9V35h9.3v8.1h6v7.4h-6v8.7c0,3.2,3.2,3.6,5.1,3.6c0.3,0,0.7,0,1.3-0.1V71
		c-0.7,0.1-1.5,0.2-2.6,0.2c-4.5,0-13.2-1.2-13.2-10.7L472.4,50.5L472.4,50.5L472.4,50.5z"/>
</g>
<g>
	<path d="M182.4,280.5c2.3-0.4,5.5-0.7,10-0.7s7.8,0.9,10,2.6c2.1,1.6,3.5,4.3,3.5,7.5s-1.1,5.9-3,7.7c-2.5,2.4-6.2,3.4-10.6,3.4
		c-1,0-1.8,0-2.5-0.1v11.6h-7.3v-32H182.4z M189.8,295.3c0.6,0.1,1.4,0.2,2.5,0.2c3.9,0,6.3-2,6.3-5.3c0-3-2.1-4.8-5.7-4.8
		c-1.5,0-2.5,0.1-3,0.3v9.6H189.8z"/>
	<path d="M240.4,296c0,10.7-6.5,17.1-16,17.1c-9.7,0-15.3-7.3-15.3-16.6c0-9.8,6.2-17.1,15.8-17.1C234.9,279.6,240.4,287,240.4,296z
		 M216.8,296.5c0,6.4,3,10.9,7.9,10.9c5,0,7.8-4.7,7.8-11.1c0-5.8-2.8-10.9-7.9-10.9C219.6,285.4,216.8,290.1,216.8,296.5z"/>
	<path d="M245.1,280.1h7.4v26.4h12.9v6.2h-20.3L245.1,280.1L245.1,280.1z"/>
	<path d="M297.8,296c0,10.7-6.5,17.1-16,17.1c-9.7,0-15.3-7.3-15.3-16.6c0-9.8,6.2-17.1,15.8-17.1C292.4,279.6,297.8,287,297.8,296z
		 M274.3,296.5c0,6.4,3,10.9,7.9,10.9c5,0,7.8-4.7,7.8-11.1c0-5.8-2.8-10.9-7.9-10.9C277.1,285.4,274.3,290.1,274.3,296.5z"/>
	<path d="M316.8,286.3H308v-6.2h25v6.2h-8.9v26.4h-7.4V286.3z"/>
	<path d="M345,297.5v4.9h-12.7v-4.9H345z"/>
	<path d="M349.9,305.1c2,1,5,2,8.2,2c3.4,0,5.2-1.4,5.2-3.5c0-2-1.5-3.2-5.5-4.6c-5.4-1.9-8.9-4.9-8.9-9.6c0-5.6,4.6-9.8,12.3-9.8
		c3.7,0,6.4,0.8,8.3,1.6l-1.7,5.9c-1.3-0.6-3.6-1.5-6.8-1.5s-4.7,1.4-4.7,3.1c0,2.1,1.8,3,6,4.6c5.7,2.1,8.5,5.1,8.5,9.7
		c0,5.5-4.2,10.1-13.1,10.1c-3.7,0-7.4-1-9.2-2L349.9,305.1z"/>
	<path d="M383,280.1v12.5h12.1v-12.5h7.3v32.6h-7.3v-13.6H383v13.6h-7.3v-32.6H383z"/>
	<path d="M416.4,280.1v32.6H409v-32.6H416.4z"/>
	<path d="M422.8,280.5c2.4-0.4,5.9-0.7,9.8-0.7c4.8,0,8.2,0.7,10.5,2.6c1.9,1.5,3,3.8,3,6.8c0,4.2-2.9,7-5.7,8v0.1
		c2.3,0.9,3.5,3.1,4.3,6.1c1,3.7,2,7.9,2.7,9.2h-7.5c-0.5-1-1.3-3.6-2.3-7.6c-0.9-4.1-2.3-5.2-5.3-5.2H430v12.8h-7.3V280.5z
		 M430,294.5h2.9c3.7,0,5.8-1.8,5.8-4.7c0-3-2-4.5-5.4-4.5c-1.8,0-2.8,0.1-3.3,0.2V294.5z"/>
	<path d="M457.6,286.3h-8.7v-6.2h25v6.2H465v26.4h-7.4V286.3z"/>
	<path d="M487.6,280.5c2.7-0.4,6.2-0.7,10-0.7c6.2,0,10.2,1.1,13.3,3.5c3.4,2.5,5.5,6.5,5.5,12.3c0,6.2-2.3,10.5-5.4,13.2
		c-3.4,2.9-8.6,4.2-15,4.2c-3.8,0-6.5-0.2-8.4-0.5V280.5z M495,307.1c0.6,0.1,1.6,0.1,2.6,0.1c6.7,0,11-3.6,11-11.4
		c0-6.8-3.9-10.3-10.2-10.3c-1.6,0-2.7,0.1-3.3,0.3v21.3H495z"/>
	<path d="M521.3,280.5c2.4-0.4,5.9-0.7,9.8-0.7c4.8,0,8.2,0.7,10.5,2.6c1.9,1.5,3,3.8,3,6.8c0,4.2-2.9,7-5.7,8v0.1
		c2.3,0.9,3.5,3.1,4.3,6.1c1,3.7,2,7.9,2.7,9.2h-7.5c-0.5-1-1.3-3.6-2.3-7.6c-0.9-4.1-2.3-5.2-5.3-5.2h-2.2v12.8h-7.3V280.5z
		 M528.5,294.5h2.9c3.7,0,5.8-1.8,5.8-4.7c0-3-2-4.5-5.4-4.5c-1.8,0-2.8,0.1-3.3,0.2V294.5z"/>
	<path d="M557.3,280.1v32.6h-7.4v-32.6H557.3z"/>
	<path d="M563.7,280.1h19.9v6h-12.5v7.4h11.7v6H571v13.1h-7.4L563.7,280.1L563.7,280.1z"/>
	<path d="M596.5,280.1v32.6H589v-32.6H596.5z"/>
	<path d="M609.2,286.3h-8.7v-6.2h25v6.2h-8.9v26.4h-7.4L609.2,286.3L609.2,286.3z"/>
</g>
<g>
	<path class="st1" d="M176.8,280.5c2.3-0.4,5.5-0.7,10-0.7s7.8,0.9,10,2.6c2.1,1.6,3.5,4.3,3.5,7.5s-1.1,5.9-3,7.7
		c-2.5,2.4-6.2,3.4-10.6,3.4c-1,0-1.8,0-2.5-0.1v11.6h-7.3L176.8,280.5L176.8,280.5z M184.1,295.3c0.6,0.1,1.4,0.2,2.5,0.2
		c3.9,0,6.3-2,6.3-5.3c0-3-2.1-4.8-5.7-4.8c-1.5,0-2.5,0.1-3,0.3v9.6H184.1z"/>
	<path class="st1" d="M234.7,296c0,10.7-6.5,17.1-16,17.1c-9.7,0-15.3-7.3-15.3-16.6c0-9.8,6.2-17.1,15.8-17.1
		C229.2,279.6,234.7,287,234.7,296z M211.1,296.5c0,6.4,3,10.9,7.9,10.9c5,0,7.8-4.7,7.8-11.1c0-5.8-2.8-10.9-7.9-10.9
		C214,285.4,211.1,290.1,211.1,296.5z"/>
	<path class="st1" d="M239.5,280.1h7.4v26.4h12.9v6.2h-20.3L239.5,280.1L239.5,280.1z"/>
	<path class="st1" d="M292.1,296c0,10.7-6.5,17.1-16,17.1c-9.7,0-15.3-7.3-15.3-16.6c0-9.8,6.2-17.1,15.8-17.1
		C286.7,279.6,292.1,287,292.1,296z M268.6,296.5c0,6.4,3,10.9,7.9,10.9c5,0,7.8-4.7,7.8-11.1c0-5.8-2.8-10.9-7.9-10.9
		C271.5,285.4,268.6,290.1,268.6,296.5z"/>
	<path class="st1" d="M311.1,286.3h-8.7v-6.2h25v6.2h-8.9v26.4h-7.4V286.3z"/>
	<path class="st1" d="M339.3,297.5v4.9h-12.7v-4.9H339.3z"/>
	<path class="st1" d="M344.2,305.1c2,1,5,2,8.2,2c3.4,0,5.2-1.4,5.2-3.5c0-2-1.5-3.2-5.5-4.6c-5.4-1.9-8.9-4.9-8.9-9.6
		c0-5.6,4.6-9.8,12.3-9.8c3.7,0,6.4,0.8,8.3,1.6l-1.7,5.9c-1.3-0.6-3.6-1.5-6.8-1.5s-4.7,1.4-4.7,3.1c0,2.1,1.8,3,6,4.6
		c5.7,2.1,8.5,5.1,8.5,9.7c0,5.5-4.2,10.1-13.1,10.1c-3.7,0-7.4-1-9.2-2L344.2,305.1z"/>
	<path class="st1" d="M377.4,280.1v12.5h12.1v-12.5h7.3v32.6h-7.3v-13.6h-12.1v13.6h-7.3v-32.6H377.4z"/>
	<path class="st1" d="M410.7,280.1v32.6h-7.4v-32.6H410.7z"/>
	<path class="st1" d="M417.1,280.5c2.4-0.4,5.9-0.7,9.8-0.7c4.8,0,8.2,0.7,10.5,2.6c1.9,1.5,3,3.8,3,6.8c0,4.2-2.9,7-5.7,8v0.1
		c2.3,0.9,3.5,3.1,4.3,6.1c1,3.7,2,7.9,2.7,9.2h-7.5c-0.5-1-1.3-3.6-2.3-7.6c-0.9-4.1-2.3-5.2-5.3-5.2h-2.2v12.8h-7.3V280.5z
		 M424.4,294.5h2.9c3.7,0,5.8-1.8,5.8-4.7c0-3-2-4.5-5.4-4.5c-1.8,0-2.8,0.1-3.3,0.2V294.5z"/>
	<path class="st1" d="M452,286.3h-8.7v-6.2h25v6.2h-8.9v26.4H452V286.3z"/>
	<path class="st1" d="M482,280.5c2.7-0.4,6.2-0.7,10-0.7c6.2,0,10.2,1.1,13.3,3.5c3.4,2.5,5.5,6.5,5.5,12.3c0,6.2-2.3,10.5-5.4,13.2
		c-3.4,2.9-8.6,4.2-15,4.2c-3.8,0-6.5-0.2-8.4-0.5V280.5z M489.4,307.1c0.6,0.1,1.6,0.1,2.6,0.1c6.7,0,11-3.6,11-11.4
		c0-6.8-3.9-10.3-10.2-10.3c-1.6,0-2.7,0.1-3.3,0.3v21.3H489.4z"/>
	<path class="st1" d="M515.6,280.5c2.4-0.4,5.9-0.7,9.8-0.7c4.8,0,8.2,0.7,10.5,2.6c1.9,1.5,3,3.8,3,6.8c0,4.2-2.9,7-5.7,8v0.1
		c2.3,0.9,3.5,3.1,4.3,6.1c1,3.7,2,7.9,2.7,9.2h-7.5c-0.5-1-1.3-3.6-2.3-7.6c-0.9-4.1-2.3-5.2-5.3-5.2h-2.2v12.8h-7.3V280.5z
		 M522.9,294.5h2.9c3.7,0,5.8-1.8,5.8-4.7c0-3-2-4.5-5.4-4.5c-1.8,0-2.8,0.1-3.3,0.2V294.5z"/>
	<path class="st1" d="M551.6,280.1v32.6h-7.4v-32.6H551.6z"/>
	<path class="st1" d="M558,280.1h19.9v6h-12.5v7.4h11.7v6h-11.7v13.1H558L558,280.1L558,280.1z"/>
	<path class="st1" d="M590.8,280.1v32.6h-7.4v-32.6H590.8z"/>
	<path class="st1" d="M603.5,286.3h-8.7v-6.2h25v6.2h-8.9v26.4h-7.4L603.5,286.3L603.5,286.3z"/>
</g>
</svg>
