<?xml version="1.0" encoding="utf-8"?>
<!-- Generator: Adobe Illustrator 19.0.0, SVG Export Plug-In . SVG Version: 6.00 Build 0)  -->
<svg version="1.1" id="Layer_1" xmlns="http://www.w3.org/2000/svg" xmlns:xlink="http://www.w3.org/1999/xlink" x="0px" y="0px"
	 viewBox="148 -184 512 512" style="enable-background:new 148 -184 512 512;" xml:space="preserve">
<style type="text/css">
	.st0{fill-rule:evenodd;clip-rule:evenodd;fill:#BD2F32;}
	.st1{fill:#FFFFFF;}
</style>
<g id="XMLID_29_">
	<rect id="XMLID_28_" x="147" y="-185" class="st0" width="512" height="512"/>
	<g id="XMLID_30_">
		<rect id="XMLID_31_" x="219.3" y="254.2" class="st1" width="367.3" height="2.1"/>
	</g>
</g>
<path class="st1" d="M583,8.6L566.6-89c-2.7-15.8-14.5-28.4-30.1-32l-62.3-14.4l-11.9-17.9c-1-1.5-2.6-2.5-4.3-2.8
	c-0.3,0-0.6-0.1-0.8-0.1l0,0H350.8l0,0c-0.3,0-0.6,0-0.8,0.1c-1.8,0.3-3.3,1.3-4.3,2.8l-11.9,17.9L271.4-121
	c-15.7,3.6-27.5,16.2-30.1,32L225,8.7c-0.5,2.9,1.1,5.7,3.8,6.8l62.6,25.1v195.2c0,3.4,2.8,6.3,6.3,6.3h212.7c3.4,0,6.3-2.8,6.3-6.3
	V40.5L579,15.5C581.9,14.4,583.6,11.5,583,8.6z M463.1-129.8L436-86.4c0,0.1-0.1,0.2-0.3,0.2s-0.3-0.1-0.3-0.1l-21.7-17.2l42.2-36.9
	L463.1-129.8z M404-111.6l-36.6-32.1h73.2L404-111.6z M397-89.7l7.1-5.7l7.1,5.7v59.4c0,0.3-0.2,0.4-0.4,0.4h-13.3
	c-0.3,0-0.4-0.2-0.4-0.4L397-89.7L397-89.7z M352.1-140.4l42.2,36.9l-21.7,17.2c-0.1,0-0.2,0.1-0.3,0.1c-0.2,0-0.3-0.2-0.3-0.2
	l-27.2-43.5L352.1-140.4z M253.6-87.1c1.8-10.8,9.9-19.4,20.6-21.8l60.4-13.9l26.9,43c1.9,3.1,5.2,5.3,8.8,5.9
	c0.7,0.2,1.5,0.2,2.2,0.2c2.9,0,5.7-1,8.1-2.8l4-3.2v49.5c0,7.1,5.7,12.9,12.9,12.9h13.3c7.1,0,12.9-5.7,12.9-12.9v-49.4l4,3.2
	c2.3,1.8,5.2,2.8,8.1,2.8c0.7,0,1.5-0.1,2.2-0.2c3.7-0.6,6.8-2.8,8.8-5.9l26.9-43l60.3,13.8c10.7,2.5,18.7,11.1,20.6,21.8l11.2,67.9
	L516.7,0.4v-37.3c0-3.4-2.8-6.3-6.3-6.3s-6.3,2.8-6.3,6.3v239.7H303.9V-36.8c0-3.4-2.8-6.3-6.3-6.3c-3.4,0-6.3,2.8-6.3,6.3V0.5
	l-49.1-19.6L253.6-87.1z M238.1,5.8l2-12.3L291.4,14v13.2L238.1,5.8z M303.9,229.5v-14.1h200.2v14.2L303.9,229.5L303.9,229.5z
	 M516.6,27.1V13.9l51.2-20.5l2,12.3L516.6,27.1z"/>
<g>
	<path d="M284.2,275.3c1.8-0.3,4.4-0.6,8.1-0.6s6.3,0.7,8.1,2.1c1.7,1.3,2.8,3.5,2.8,6.1c0,2.6-0.9,4.8-2.4,6.3
		c-2,1.9-5.1,2.8-8.6,2.8c-0.8,0-1.5,0-2-0.1v9.5h-5.9v-26.1H284.2z M290.1,287.4c0.5,0.1,1.1,0.2,2,0.2c3.2,0,5.2-1.6,5.2-4.3
		c0-2.4-1.7-3.9-4.7-3.9c-1.2,0-2,0.1-2.5,0.2V287.4z"/>
	<path d="M331.3,287.9c0,8.7-5.3,14-13,14c-7.9,0-12.5-5.9-12.5-13.5c0-7.9,5.1-13.9,12.9-13.9C326.9,274.5,331.3,280.6,331.3,287.9
		z M312.2,288.3c0,5.2,2.4,8.9,6.5,8.9s6.4-3.9,6.4-9c0-4.8-2.3-8.9-6.4-8.9C314.5,279.3,312.2,283.1,312.2,288.3z"/>
	<path d="M335.3,275h6v21.5h10.5v5h-16.6V275H335.3z"/>
	<path d="M378.1,287.9c0,8.7-5.3,14-13,14c-7.9,0-12.5-5.9-12.5-13.5c0-7.9,5.1-13.9,12.9-13.9C373.7,274.5,378.1,280.6,378.1,287.9
		z M359,288.3c0,5.2,2.4,8.9,6.5,8.9s6.4-3.9,6.4-9c0-4.8-2.3-8.9-6.4-8.9C361.3,279.3,359,283.1,359,288.3z"/>
	<path d="M393.6,280h-7.1v-5h20.4v5h-7.2v21.5h-6L393.6,280L393.6,280z"/>
	<path d="M416.6,289.1v4h-10.3v-4H416.6z"/>
	<path d="M420.5,295.3c1.6,0.8,4.1,1.7,6.6,1.7c2.8,0,4.2-1.1,4.2-2.9c0-1.7-1.3-2.6-4.4-3.7c-4.4-1.5-7.3-4-7.3-7.8
		c0-4.5,3.8-8,10-8c3,0,5.2,0.6,6.8,1.3l-1.3,4.8c-1.1-0.5-3-1.3-5.5-1.3c-2.6,0-3.9,1.2-3.9,2.6c0,1.7,1.5,2.4,4.9,3.7
		c4.7,1.7,6.9,4.2,6.9,7.9c0,4.4-3.4,8.3-10.7,8.3c-3,0-6-0.8-7.5-1.7L420.5,295.3z"/>
	<path d="M447.6,275v10.2h9.9V275h6v26.5h-6v-11.1h-9.9v11.1h-6V275H447.6z"/>
	<path d="M474.7,275v26.5h-6V275H474.7z"/>
	<path d="M479.9,275.3c1.9-0.3,4.8-0.6,8-0.6c3.9,0,6.7,0.6,8.6,2.1c1.6,1.3,2.4,3.1,2.4,5.5c0,3.4-2.4,5.7-4.7,6.5v0.1
		c1.8,0.7,2.9,2.5,3.5,5c0.8,3,1.7,6.5,2.2,7.5h-6.1c-0.4-0.8-1.1-2.9-1.8-6.2c-0.7-3.3-1.8-4.2-4.3-4.2H486v10.5h-6V275.3z
		 M485.8,286.7h2.4c3,0,4.8-1.5,4.8-3.8c0-2.4-1.7-3.7-4.4-3.7c-1.5,0-2.3,0.1-2.7,0.2L485.8,286.7L485.8,286.7z"/>
	<path d="M508.4,280h-7.1v-5h20.4v5h-7.2v21.5h-6L508.4,280L508.4,280z"/>
</g>
<g>
	<path class="st1" d="M278.6,275.3c1.8-0.3,4.4-0.6,8.1-0.6c3.7,0,6.3,0.7,8.1,2.1c1.7,1.3,2.8,3.5,2.8,6.1c0,2.6-0.9,4.8-2.4,6.3
		c-2,1.9-5.1,2.8-8.6,2.8c-0.8,0-1.5,0-2-0.1v9.5h-5.9L278.6,275.3L278.6,275.3z M284.5,287.4c0.5,0.1,1.1,0.2,2,0.2
		c3.2,0,5.2-1.6,5.2-4.3c0-2.4-1.7-3.9-4.7-3.9c-1.2,0-2,0.1-2.5,0.2V287.4z"/>
	<path class="st1" d="M325.7,287.9c0,8.7-5.3,14-13,14c-7.9,0-12.5-5.9-12.5-13.5c0-7.9,5.1-13.9,12.9-13.9
		C321.3,274.5,325.7,280.6,325.7,287.9z M306.6,288.3c0,5.2,2.4,8.9,6.5,8.9s6.4-3.9,6.4-9c0-4.8-2.3-8.9-6.4-8.9
		C308.9,279.3,306.6,283.1,306.6,288.3z"/>
	<path class="st1" d="M329.7,275h6v21.5h10.5v5h-16.6V275H329.7z"/>
	<path class="st1" d="M372.5,287.9c0,8.7-5.3,14-13,14c-7.9,0-12.5-5.9-12.5-13.5c0-7.9,5.1-13.9,12.9-13.9
		C368.1,274.5,372.5,280.6,372.5,287.9z M353.4,288.3c0,5.2,2.4,8.9,6.5,8.9s6.4-3.9,6.4-9c0-4.8-2.3-8.9-6.4-8.9
		C355.7,279.3,353.4,283.1,353.4,288.3z"/>
	<path class="st1" d="M388,280h-7.1v-5h20.4v5h-7.2v21.5h-6L388,280L388,280z"/>
	<path class="st1" d="M411,289.1v4h-10.3v-4H411z"/>
	<path class="st1" d="M414.9,295.3c1.6,0.8,4.1,1.7,6.6,1.7c2.8,0,4.2-1.1,4.2-2.9c0-1.7-1.3-2.6-4.4-3.7c-4.4-1.5-7.3-4-7.3-7.8
		c0-4.5,3.8-8,10-8c3,0,5.2,0.6,6.8,1.3l-1.3,4.8c-1.1-0.5-3-1.3-5.5-1.3c-2.6,0-3.9,1.2-3.9,2.6c0,1.7,1.5,2.4,4.9,3.7
		c4.7,1.7,6.9,4.2,6.9,7.9c0,4.4-3.4,8.3-10.7,8.3c-3,0-6-0.8-7.5-1.7L414.9,295.3z"/>
	<path class="st1" d="M442,275v10.2h9.9V275h6v26.5h-6v-11.1H442v11.1h-6V275H442z"/>
	<path class="st1" d="M469.1,275v26.5h-6V275H469.1z"/>
	<path class="st1" d="M474.3,275.3c1.9-0.3,4.8-0.6,8-0.6c3.9,0,6.7,0.6,8.6,2.1c1.6,1.3,2.4,3.1,2.4,5.5c0,3.4-2.4,5.7-4.7,6.5v0.1
		c1.8,0.7,2.9,2.5,3.5,5c0.8,3,1.7,6.5,2.2,7.5h-6.1c-0.4-0.8-1.1-2.9-1.8-6.2c-0.7-3.3-1.8-4.2-4.3-4.2h-1.8v10.5h-6V275.3z
		 M480.2,286.7h2.4c3,0,4.8-1.5,4.8-3.8c0-2.4-1.7-3.7-4.4-3.7c-1.5,0-2.3,0.1-2.7,0.2L480.2,286.7L480.2,286.7z"/>
	<path class="st1" d="M502.8,280h-7.1v-5h20.4v5h-7.2v21.5h-6L502.8,280L502.8,280z"/>
</g>
</svg>
