<?xml version="1.0" encoding="utf-8"?>
<!-- Generator: Adobe Illustrator 19.0.0, SVG Export Plug-In . SVG Version: 6.00 Build 0)  -->
<svg version="1.1" id="Capa_1" xmlns="http://www.w3.org/2000/svg" xmlns:xlink="http://www.w3.org/1999/xlink" x="0px" y="0px"
	 viewBox="112 -39.9 511.9 511.9" style="enable-background:new 112 -39.9 511.9 511.9;" xml:space="preserve">
<style type="text/css">
	.st0{opacity:0.2;}
	.st1{fill:#FFFFFF;}
	.st2{fill:#3A3847;}
</style>
<g>
	<g class="st0">
		<path class="st1" d="M423,108.8V90.5h-6.1v18.4c0,6.7,5.5,12.3,12.3,12.3c1.1,0,2.1-0.2,3.1-0.5C427,119.3,423,114.5,423,108.8z"
			/>
	</g>
	<polygon class="st1" points="315.9,8.5 320.1,-8.6 312.8,-13.7 306.7,10.8 331.2,42.7 338.7,38.3 	"/>
	<path class="st1" d="M193.1,139.4l-9.7-4.7l-0.3-0.2c-3.2,6.8-5.1,11.1-5.1,11.1l10.1,5C188.1,150.6,190.5,145,193.1,139.4z"/>
	<path class="st2" d="M368.1,75.1c-1.7,0-3.1-1.4-3.1-3.1c0-1.7,1.4-3.1,3.1-3.1h0.1c1.7,0,3.1,1.4,3.1,3.1S369.8,75.1,368.1,75.1z"
		/>
	<path class="st2" d="M368.1,62.9c-1.7,0-3.1-1.4-3.1-3.1c0-1.7,1.4-3.1,3.1-3.1h0.1c1.7,0,3.1,1.4,3.1,3.1
		C371.2,61.5,369.8,62.9,368.1,62.9z"/>
	<path class="st2" d="M368.1,50.6c-1.7,0-3.1-1.4-3.1-3.1c0-1.7,1.4-3.1,3.1-3.1h0.1c1.7,0,3.1,1.4,3.1,3.1
		C371.2,49.3,369.8,50.6,368.1,50.6z"/>
	<path class="st2" d="M557.8,148.6c-1.1,0-2.3-0.7-2.8-1.8c-11.5-25.4-43.6-93.4-54.4-103.1c-13-11.7-65.8-29.8-66.3-30
		c-1.6-0.5-2.5-2.3-1.9-3.9s2.3-2.5,3.9-1.9c2.2,0.8,54.4,18.7,68.5,31.2c13.9,12.6,54.1,101.4,55.9,105.1c0.7,1.5,0,3.4-1.5,4.1
		C558.6,148.5,558.2,148.6,557.8,148.6z"/>
	<path class="st2" d="M496.5,178.8c-1.1,0-2.2-0.6-2.8-1.7c-0.8-1.5-0.2-3.4,1.4-4.1l61.3-30.2c1.5-0.8,3.4-0.2,4.1,1.4
		c0.8,1.5,0.2,3.4-1.4,4.1l-61.3,30.2C497.4,178.8,497,178.8,496.5,178.8z"/>
	<path class="st2" d="M496.5,178.8c-1.1,0-2.2-0.6-2.8-1.7l-18.4-36.4c-0.8-1.5-0.2-3.4,1.4-4.1s3.4-0.2,4.1,1.4l18.4,36.4
		c0.8,1.5,0.2,3.4-1.4,4.1C497.5,178.8,497,178.8,496.5,178.8z"/>
	<path class="st2" d="M178,148.6c-0.4,0-0.8-0.1-1.2-0.3c-1.5-0.7-2.2-2.5-1.5-4.1c1.7-3.8,41.9-92.6,55.9-105.1
		c13.9-12.6,66.2-30.5,68.5-31.2c1.6-0.5,3.4,0.3,3.9,1.9s-0.3,3.4-1.9,3.9c-0.5,0.2-53.3,18.3-66.3,30
		c-10.8,9.7-42.9,77.7-54.4,103.1C180.3,148,179.2,148.6,178,148.6z"/>
	<path class="st2" d="M239.3,178.8c-0.5,0-0.9-0.1-1.4-0.3l-61.3-30.2c-1.5-0.8-2.1-2.6-1.4-4.1c0.8-1.5,2.6-2.1,4.1-1.4l61.3,30.2
		c1.5,0.8,2.1,2.6,1.4,4.1C241.5,178.2,240.4,178.8,239.3,178.8z"/>
	<path class="st2" d="M239.3,178.8c-0.5,0-0.9-0.1-1.4-0.3c-1.5-0.8-2.1-2.6-1.4-4.1l18.4-36.4c0.8-1.5,2.6-2.1,4.1-1.4
		c1.5,0.8,2.1,2.6,1.4,4.1L242,177.1C241.5,178.2,240.4,178.8,239.3,178.8z"/>
	<g>
		<path class="st2" d="M478.1,369.1c-1.7,0-3.1-1.4-3.1-3.1V139.4c0-1.7,1.4-3.1,3.1-3.1c1.7,0,3.1,1.4,3.1,3.1v226.7
			C481.2,367.7,479.8,369.1,478.1,369.1z"/>
		<path class="st2" d="M472,375.3c-1.7,0-3.1-1.4-3.1-3.1c0-1.7,1.4-3.1,3.1-3.1c1.7,0,3.1-1.4,3.1-3.1c0-1.7,1.4-3.1,3.1-3.1
			c1.7,0,3.1,1.4,3.1,3.1C481.2,371.1,477.1,375.3,472,375.3z"/>
		<path class="st2" d="M257.7,369.1c-1.7,0-3.1-1.4-3.1-3.1V139.4c0-1.7,1.4-3.1,3.1-3.1c1.7,0,3.1,1.4,3.1,3.1v226.7
			C260.7,367.7,259.4,369.1,257.7,369.1z"/>
		<path class="st2" d="M263.8,375.3c-5.1,0-9.2-4.1-9.2-9.2c0-1.7,1.4-3.1,3.1-3.1c1.7,0,3.1,1.4,3.1,3.1c0,1.7,1.4,3.1,3.1,3.1
			s3.1,1.4,3.1,3.1C266.9,373.9,265.5,375.3,263.8,375.3z"/>
		<path class="st2" d="M472,375.3H263.8c-1.7,0-3.1-1.4-3.1-3.1c0-1.7,1.4-3.1,3.1-3.1h208.3c1.7,0,3.1,1.4,3.1,3.1
			C475.1,373.9,473.7,375.3,472,375.3z"/>
		<path class="st2" d="M477.8,363H258.1c-1.9,0-3.4-1.4-3.4-3.1c0-1.7,1.5-3.1,3.4-3.1h219.8c1.9,0,3.4,1.4,3.4,3.1
			C481.2,361.6,479.7,363,477.8,363z"/>
	</g>
	<path class="st2" d="M429.1,13.9c-1.4,0-2.6-0.9-3-2.3L420-12.9c-0.4-1.6,0.6-3.3,2.2-3.7s3.3,0.6,3.8,2.2l6.1,24.5
		c0.4,1.6-0.6,3.3-2.2,3.7C429.7,13.8,429.4,13.9,429.1,13.9z"/>
	<path class="st2" d="M420.8-10.6H315c-2.1,0-3.8-1.4-3.8-3.1s1.7-3.1,3.8-3.1h105.8c2.1,0,3.8,1.4,3.8,3.1S422.8-10.6,420.8-10.6z"
		/>
	<path class="st2" d="M371,26.1c-1,0-1.9-0.5-2.5-1.3c-1-1.4-0.6-3.3,0.8-4.3l52.1-36.8c1.4-1,3.3-0.6,4.3,0.8
		c1,1.4,0.6,3.3-0.8,4.3l-52.1,36.8C372.2,25.9,371.6,26.1,371,26.1z"/>
	<path class="st2" d="M404.7,45.7c-0.5,0-1.1-0.2-1.5-0.4l-33.7-19.7c-1.5-0.8-1.9-2.8-1.1-4.2c0.8-1.5,2.8-1.9,4.2-1.1l33.7,19.7
		c1.5,0.8,2,2.8,1.1,4.2C406.8,45.2,405.7,45.7,404.7,45.7z"/>
	<path class="st2" d="M404.7,45.7c-0.7,0-1.3-0.2-1.8-0.6c-1.4-1-1.6-3-0.5-4.3l24.5-31.9c1.1-1.4,3-1.6,4.3-0.5
		c1.4,1,1.6,3,0.5,4.3l-24.5,31.9C406.5,45.4,405.5,45.7,404.7,45.7z"/>
	<path class="st2" d="M306.7,13.9c-0.2,0-0.5,0-0.8-0.1c-1.6-0.4-2.6-2.1-2.2-3.7l6.1-24.5c0.4-1.6,2.1-2.7,3.7-2.2
		c1.6,0.4,2.6,2.1,2.2,3.7l-6.1,24.5C309.3,13,308.1,13.9,306.7,13.9z"/>
	<path class="st2" d="M364.9,26.1c-0.6,0-1.2-0.2-1.8-0.5L311-11.2c-1.4-1-1.7-2.9-0.8-4.3c1-1.4,2.9-1.7,4.3-0.8l52.1,36.8
		c1.4,1,1.7,2.9,0.8,4.3C366.7,25.7,365.8,26.1,364.9,26.1z"/>
	<path class="st2" d="M331.2,45.7c-1.1,0-2.1-0.5-2.7-1.5c-0.8-1.5-0.4-3.4,1.1-4.2l33.7-19.7c1.5-0.8,3.4-0.4,4.2,1.1
		c0.8,1.5,0.4,3.4-1.1,4.2l-33.7,19.7C332.3,45.7,331.7,45.7,331.2,45.7z"/>
	<path class="st2" d="M331.2,45.7c-0.9,0-1.8-0.4-2.5-1.2l-24.5-31.9c-1-1.4-0.8-3.3,0.5-4.3c1.4-1,3.3-0.8,4.3,0.5l24.5,31.9
		c1,1.4,0.8,3.3-0.5,4.3C332.5,45.6,331.8,45.7,331.2,45.7z"/>
	<path class="st2" d="M361.8,87.4c-1.7,0-3.1-1.4-3.1-3.1v-49c0-1.7,1.4-3.1,3.1-3.1c1.7,0,3.1,1.4,3.1,3.1v49
		C364.9,86,363.5,87.4,361.8,87.4z"/>
	<path class="st2" d="M374.1,87.4h-12.3c-1.7,0-3.1-1.4-3.1-3.1s1.4-3.1,3.1-3.1h12.3c1.7,0,3.1,1.4,3.1,3.1
		C377.1,86,375.8,87.4,374.1,87.4z"/>
	<path class="st2" d="M374.1,87.4c-1.7,0-3.1-1.4-3.1-3.1v-49c0-1.7,1.4-3.1,3.1-3.1s3.1,1.4,3.1,3.1v49
		C377.1,86,375.8,87.4,374.1,87.4z"/>
	<path class="st2" d="M491.1,167.9c-1.1,0-2.2-0.6-2.8-1.7c-0.8-1.5-0.2-3.4,1.4-4.1l61.3-30.2c1.5-0.8,3.4-0.2,4.1,1.4
		c0.8,1.5,0.2,3.4-1.4,4.1l-61.3,30.2C492,167.8,491.5,167.9,491.1,167.9z"/>
	<path class="st2" d="M244.7,167.9c-0.5,0-0.9-0.1-1.4-0.3l-61.3-30.2c-1.5-0.8-2.1-2.6-1.4-4.1c0.8-1.5,2.6-2.1,4.1-1.4l61.3,30.2
		c1.5,0.8,2.1,2.6,1.4,4.1C247,167.3,245.8,167.9,244.7,167.9z"/>
	<g>
		<path class="st2" d="M283.6,167.9h14c12.4,0,20.3,7.2,20.3,19.6c0,12.4-8,19.8-20.3,19.8h-14V167.9z M297.2,199
			c6.7,0,10.7-4,10.7-11.5s-4.2-11.3-10.7-11.3h-4V199H297.2z"/>
		<path class="st2" d="M322.8,178.9h9.1v4.8c0,0.9-0.1,1.8-0.1,1.8h0.1c1.2-3.8,4.8-7,9-7c0.4,0,0.8,0.1,1.1,0.1v9.3
			c-0.3-0.1-1.3-0.2-1.9-0.2c-5.3,0-7.8,3.4-7.8,8.5v11h-9.5V178.9L322.8,178.9z"/>
		<path class="st2" d="M349.5,210.8c1.5,0,3.6-0.5,4.6-2.8l0.5-1.3l-12-27.8h10.8l4.2,13c0.5,1.5,1.1,4.4,1.1,4.4h0.1
			c0,0,0.5-2.7,0.9-4.2l3.6-13.2h10.4L362,210.3c-2.4,6.4-7.4,8.5-11.9,8.5c-3.8,0-6.6-2-6.6-2l3.1-7
			C346.6,209.8,348.1,210.8,349.5,210.8z"/>
		<path class="st2" d="M390.5,167.9h24.1v8.3h-14.5v8.3h12v8.3h-12v14.6h-9.6V167.9z"/>
		<path class="st2" d="M418.9,178.9h9.5v28.3h-9.5V178.9z M418.9,167.9h9.3v7.4h-9.3V167.9z"/>
		<path class="st2" d="M436.4,186.8h-3.6v-7.4h3.9v-8.1h9.3v8.1h6v7.4h-6v8.7c0,3.2,3.2,3.6,5.1,3.6c0.3,0,0.7,0,1.3-0.1v8.3
			c-0.7,0.1-1.5,0.2-2.6,0.2c-4.5,0-13.2-1.2-13.2-10.7L436.4,186.8L436.4,186.8L436.4,186.8z"/>
	</g>
</g>
<g>
	<path d="M147.7,412.4c2.3-0.4,5.5-0.7,10-0.7c4.5,0,7.8,0.9,10,2.6c2.1,1.6,3.5,4.3,3.5,7.5s-1.1,5.9-3,7.7
		c-2.5,2.4-6.2,3.4-10.6,3.4c-1,0-1.8,0-2.5-0.1v11.6h-7.3V412.4z M155,427.2c0.6,0.1,1.4,0.2,2.5,0.2c3.9,0,6.3-2,6.3-5.3
		c0-3-2.1-4.8-5.7-4.8c-1.5,0-2.5,0.1-3,0.3V427.2z"/>
	<path d="M205.6,427.9c0,10.7-6.5,17.1-16,17.1c-9.7,0-15.3-7.3-15.3-16.6c0-9.8,6.2-17.1,15.8-17.1
		C200.1,411.5,205.6,418.9,205.6,427.9z M182,428.4c0,6.4,3,10.9,7.9,10.9c5,0,7.8-4.7,7.8-11.1c0-5.8-2.8-10.9-7.9-10.9
		C184.9,417.3,182,422,182,428.4z"/>
	<path d="M210.4,412h7.4v26.4h12.9v6.2h-20.3V412z"/>
	<path d="M263,427.9c0,10.7-6.5,17.1-16,17.1c-9.7,0-15.3-7.3-15.3-16.6c0-9.8,6.2-17.1,15.8-17.1C257.6,411.5,263,418.9,263,427.9z
		 M239.5,428.4c0,6.4,3,10.9,7.9,10.9c5,0,7.8-4.7,7.8-11.1c0-5.8-2.8-10.9-7.9-10.9C242.4,417.3,239.5,422,239.5,428.4z"/>
	<path d="M282,418.2h-8.7V412h25v6.2h-8.9v26.4H282V418.2z"/>
	<path d="M310.2,429.4v4.9h-12.7v-4.9H310.2z"/>
	<path d="M315.1,437c2,1,5,2,8.2,2c3.4,0,5.2-1.4,5.2-3.5c0-2-1.5-3.2-5.5-4.6c-5.4-1.9-8.9-4.9-8.9-9.6c0-5.6,4.6-9.8,12.3-9.8
		c3.7,0,6.4,0.8,8.3,1.6L333,419c-1.3-0.6-3.6-1.5-6.8-1.5s-4.7,1.4-4.7,3.1c0,2.1,1.8,3,6,4.6c5.7,2.1,8.5,5.1,8.5,9.7
		c0,5.5-4.2,10.1-13.1,10.1c-3.7,0-7.4-1-9.2-2L315.1,437z"/>
	<path d="M348.3,412v12.5h12.1V412h7.3v32.6h-7.3v-13.6h-12.1v13.6H341V412H348.3z"/>
	<path d="M381.6,412v32.6h-7.4V412H381.6z"/>
	<path d="M388,412.4c2.4-0.4,5.9-0.7,9.8-0.7c4.8,0,8.2,0.7,10.5,2.6c1.9,1.5,3,3.8,3,6.8c0,4.2-2.9,7-5.7,8v0.1
		c2.3,0.9,3.5,3.1,4.3,6.1c1,3.7,2,7.9,2.7,9.2h-7.5c-0.5-1-1.3-3.6-2.3-7.6c-0.9-4.1-2.3-5.2-5.3-5.2h-2.2v12.8H388V412.4z
		 M395.3,426.4h2.9c3.7,0,5.8-1.8,5.8-4.7c0-3-2-4.5-5.4-4.5c-1.8,0-2.8,0.1-3.3,0.2V426.4z"/>
	<path d="M422.9,418.2h-8.7V412h25v6.2h-8.9v26.4h-7.4V418.2z"/>
	<path d="M452.9,412.4c2.7-0.4,6.2-0.7,10-0.7c6.2,0,10.2,1.1,13.3,3.5c3.4,2.5,5.5,6.5,5.5,12.3c0,6.2-2.3,10.5-5.4,13.2
		c-3.4,2.9-8.6,4.2-15,4.2c-3.8,0-6.5-0.2-8.4-0.5V412.4z M460.3,439c0.6,0.1,1.6,0.1,2.6,0.1c6.7,0,11-3.6,11-11.4
		c0-6.8-3.9-10.3-10.2-10.3c-1.6,0-2.7,0.1-3.3,0.3V439z"/>
	<path d="M486.5,412.4c2.4-0.4,5.9-0.7,9.8-0.7c4.8,0,8.2,0.7,10.5,2.6c1.9,1.5,3,3.8,3,6.8c0,4.2-2.9,7-5.7,8v0.1
		c2.3,0.9,3.5,3.1,4.3,6.1c1,3.7,2,7.9,2.7,9.2h-7.5c-0.5-1-1.3-3.6-2.3-7.6c-0.9-4.1-2.3-5.2-5.3-5.2h-2.2v12.8h-7.3V412.4z
		 M493.8,426.4h2.9c3.7,0,5.8-1.8,5.8-4.7c0-3-2-4.5-5.4-4.5c-1.8,0-2.8,0.1-3.3,0.2V426.4z"/>
	<path d="M522.5,412v32.6h-7.4V412H522.5z"/>
	<path d="M528.9,412h19.9v6h-12.5v7.4H548v6h-11.7v13.1h-7.4V412z"/>
	<path d="M561.7,412v32.6h-7.4V412H561.7z"/>
	<path d="M574.4,418.2h-8.7V412h25v6.2h-8.9v26.4h-7.4V418.2z"/>
</g>
</svg>
