<?xml version="1.0" encoding="utf-8"?>
<!-- Generator: Adobe Illustrator 19.0.0, SVG Export Plug-In . SVG Version: 6.00 Build 0)  -->
<svg version="1.1" id="Layer_1" xmlns="http://www.w3.org/2000/svg" xmlns:xlink="http://www.w3.org/1999/xlink" x="0px" y="0px"
	 viewBox="0 0 144 144" style="enable-background:new 0 0 144 144;" xml:space="preserve">
<style type="text/css">
	.st0{fill:#010101;}
</style>
<g id="XMLID_104_">
	<g id="XMLID_105_">
		<g id="XMLID_106_" transform="translate(0.000000,511.000000) scale(0.100000,-0.100000)">
			<path id="XMLID_112_" class="st0" d="M496.5,4792.4c-51.6-6.7-97.7-44.9-114.6-94.6c-5-14.6-4.6-12-40.4-277.9
				c-24.4-182.6-28.1-206.2-32-215.1c-9.1-20.8-11-32.5-11-70.7c0-41.5,1.9-52.5,12.9-75.4c16.7-34.4,44.4-57.3,82.6-68.3l13.8-4
				h312.3h312.3l13.8,4c38,11,65.9,34.1,82.6,68.3c11.7,24.1,13.4,35.1,12.6,80.4c-0.9,41.3-1.7,46.3-11.9,67.6
				c-4.6,10-6.5,22.5-35.1,238.5c-16.5,125.3-31.3,233.3-32.7,240.2c-3.4,15.1-14.8,39.1-25.8,53.5c-17.2,22.7-46.8,42.2-77.4,50.6
				l-13.8,4l-218.6,0.2C606,4793.8,502.6,4793.3,496.5,4792.4z M949.6,4753.7c38-9.8,67.1-39.1,75.9-76.6
				c1.9-7.9,55.9-409.4,55.9-415.4c0-0.5-4.5,1.4-10,4.1c-5.5,2.8-15.7,6.9-22.7,9.1l-12.9,4H720.1H404.3l-12.9-4
				c-7.1-2.2-17.9-6.7-23.7-9.8l-11-5.9l1,5.5c0.5,3.1,6,43.5,12.2,89.8c34.2,255.2,42.3,314.1,44.1,321.8
				c6.7,29.3,28.7,56.6,56.1,69.9c21.5,10.5,8.1,10,249,10C914.9,4756.4,940.2,4756.1,949.6,4753.7z M1041,4239
				c22.4-8.1,37.3-19.4,48.7-37.2c13.6-20.6,14.8-26.3,15-68.3c0-34.4-0.3-37.7-4-48c-9.8-27.2-32.2-49.4-58.2-58
				c-9.8-3.1-19.1-3.3-322.5-3.3s-312.7,0.2-322.5,3.3c-26.2,8.6-48.2,30.6-58.2,58c-3.6,10.2-4,13.8-4,47.2
				c0,30.8,0.5,37.5,3.3,45.6c11.5,33.9,38.7,57.8,72.1,63.5c5,0.9,146.4,1.4,314.4,1.2l305.5-0.2L1041,4239z"/>
			<path id="XMLID_111_" class="st0" d="M707.7,4696.4l-5.7-5l-0.5-58.3c-0.7-64.7,0-69.2,8.8-74.5c6.7-4.1,11.7-4.3,18.6-0.7
				c9.6,4.8,10.2,8.6,10.2,70.4c0,60.1-0.5,64.5-8.8,70.4C723.7,4703.1,714.2,4702.2,707.7,4696.4z"/>
			<path id="XMLID_110_" class="st0" d="M626.3,4672.3c-52-32.2-82.1-80.5-88.8-142.8c-3.4-32.4,2.8-65.7,18.1-97.4
				c33.6-68.7,99.8-108.4,175.7-105.3c70,2.9,129.1,41.6,160,105.3c32.5,66.8,22.9,143.5-25.5,202c-16.5,20.1-52.8,46.6-63.7,46.6
				s-18.2-7.6-18.4-18.6c0-8.8,2.9-12,22.4-24.4c41.5-26.2,67.1-73.7,67.1-123.9c0-40.4-13.4-74.5-40.3-102.7
				c-20.8-22-44.2-36.1-72.4-43.7c-19.6-5.3-54.4-5.3-74,0c-28.2,7.6-51.6,21.7-72.5,43.7c-26.8,28.1-40.3,62.3-40.3,101.9
				c0,42.8,15.7,79.2,47,108.6c7.9,7.4,19.6,16.7,26,20.3c13.6,7.9,16.5,11.5,16.5,20.5c0,8.4-2.2,12.6-8.6,15.8
				C646.4,4682.4,640.7,4681.2,626.3,4672.3z"/>
			<path id="XMLID_107_" class="st0" d="M972.9,4186.2c-25-6.7-41.1-27.5-41.1-53.2c0-14.8,4-25.3,13.4-35.8
				c31.3-34.9,86.6-19.1,95.2,27c5.2,27.5-12.7,54.4-41,61.8C987.8,4189.1,983.5,4189.1,972.9,4186.2z M999,4145.7
				c11.5-11.5,2.8-31.1-13.9-31.1c-7.6,0-17.2,9.6-17.2,17.2c0,6.5,4.3,14.6,9.3,17C984.6,4152.3,993.7,4151,999,4145.7z"/>
		</g>
	</g>
</g>
</svg>
