<?xml version="1.0" encoding="utf-8"?>
<!-- Generator: Adobe Illustrator 19.0.0, SVG Export Plug-In . SVG Version: 6.00 Build 0)  -->
<svg version="1.1" id="Layer_1" xmlns="http://www.w3.org/2000/svg" xmlns:xlink="http://www.w3.org/1999/xlink" x="0px" y="0px"
	 viewBox="-219 -184 512 512" style="enable-background:new -219 -184 512 512;" xml:space="preserve">
<style type="text/css">
	.st0{fill-rule:evenodd;clip-rule:evenodd;fill:#BD2F32;}
	.st1{fill:#FFFFFF;}
</style>
<g id="XMLID_29_">
	<rect id="XMLID_28_" x="-219" y="-185" class="st0" width="512" height="512"/>
	<g id="XMLID_30_">
		<rect id="XMLID_31_" x="-146.7" y="254.2" class="st1" width="367.3" height="2.1"/>
	</g>
</g>
<g id="XMLID_104_">
	<g id="XMLID_105_">
		<g id="XMLID_106_" transform="translate(0.000000,511.000000) scale(0.100000,-0.100000)">
			<path id="XMLID_112_" class="st1" d="M-497.8,6393c-200.3-26-379.3-174.3-444.9-367.3c-19.4-56.7-17.9-46.6-156.8-1078.9
				c-94.7-708.9-109.1-800.5-124.2-835.1c-35.3-80.7-42.7-126.2-42.7-274.5c0-161.1,7.4-203.8,50.1-292.7
				c64.8-133.5,172.4-222.4,320.7-265.2l53.6-15.5H370.3h1212.4l53.6,15.5c147.5,42.7,255.8,132.4,320.7,265.2
				c45.4,93.6,52,136.3,48.9,312.1c-3.5,160.3-6.6,179.7-46.2,262.4c-17.9,38.8-25.2,87.3-136.3,925.9
				c-64.1,486.4-121.5,905.7-126.9,932.5c-13.2,58.6-57.5,151.8-100.2,207.7c-66.8,88.1-181.7,163.8-300.5,196.4l-53.6,15.5
				l-848.6,0.8C-72.7,6398.5-474.1,6396.5-497.8,6393z M1261.2,6242.8c147.5-38,260.5-151.8,294.7-297.4
				c7.4-30.7,217-1589.4,217-1612.7c0-1.9-17.5,5.4-38.8,15.9c-21.4,10.9-61,26.8-88.1,35.3l-50.1,15.5H370.3h-1226l-50.1-15.5
				c-27.6-8.5-69.5-26-92-38l-42.7-22.9l3.9,21.4c1.9,12,23.3,168.9,47.4,348.6c132.8,990.7,164.2,1219.4,171.2,1249.3
				c26,113.7,111.4,219.7,217.8,271.4c83.5,40.8,31.4,38.8,966.7,38.8C1126.5,6253.3,1224.7,6252.1,1261.2,6242.8z M1616,4244.6
				c87-31.4,144.8-75.3,189.1-144.4c52.8-80,57.5-102.1,58.2-265.2c0-133.5-1.2-146.4-15.5-186.3c-38-105.6-125-191.8-225.9-225.2
				c-38-12-74.1-12.8-1252-12.8s-1214,0.8-1252,12.8c-101.7,33.4-187.1,118.8-225.9,225.2c-14,39.6-15.5,53.6-15.5,183.2
				c0,119.6,1.9,145.6,12.8,177c44.6,131.6,150.2,224.4,279.9,246.5c19.4,3.5,568.4,5.4,1220.6,4.7l1186-0.8L1616,4244.6z"/>
			<path id="XMLID_111_" class="st1" d="M322.1,6020.3l-22.1-19.4l-1.9-226.3c-2.7-251.2,0-268.6,34.2-289.2
				c26-15.9,45.4-16.7,72.2-2.7c37.3,18.6,39.6,33.4,39.6,273.3c0,233.3-1.9,250.4-34.2,273.3
				C384.2,6046.3,347.3,6042.9,322.1,6020.3z"/>
			<path id="XMLID_110_" class="st1" d="M6.1,5926.8c-201.9-125-318.7-312.5-344.7-554.4c-13.2-125.8,10.9-255.1,70.3-378.1
				c130.4-266.7,387.4-420.8,682.1-408.8c271.8,11.3,501.2,161.5,621.1,408.8c126.2,259.3,88.9,557.1-99,784.2
				c-64.1,78-205,180.9-247.3,180.9c-42.3,0-70.7-29.5-71.4-72.2c0-34.2,11.3-46.6,87-94.7c161.1-101.7,260.5-286.1,260.5-481
				c0-156.8-52-289.2-156.5-398.7c-80.7-85.4-171.6-140.1-281.1-169.7c-76.1-20.6-211.2-20.6-287.3,0
				c-109.5,29.5-200.3,84.2-281.5,169.7c-104,109.1-156.5,241.9-156.5,395.6c0,166.2,61,307.5,182.5,421.6
				c30.7,28.7,76.1,64.8,100.9,78.8c52.8,30.7,64.1,44.6,64.1,79.6c0,32.6-8.5,48.9-33.4,61.3C84.1,5966,62,5961.3,6.1,5926.8z"/>
			<path id="XMLID_107_" class="st1" d="M1351.7,4039.6c-97.1-26-159.6-106.8-159.6-206.5c0-57.5,15.5-98.2,52-139
				c121.5-135.5,336.2-74.2,369.6,104.8c20.2,106.8-49.3,211.2-159.2,239.9C1409.5,4050.9,1392.8,4050.9,1351.7,4039.6z
				 M1453,3882.4c44.6-44.6,10.9-120.7-54-120.7c-29.5,0-66.8,37.3-66.8,66.8c0,25.2,16.7,56.7,36.1,66
				C1397.1,3908,1432.4,3903,1453,3882.4z"/>
		</g>
	</g>
</g>
<g>
	<path d="M-98.8,272.7c2.3-0.4,5.3-0.8,9.4-0.8c4.2,0,7.2,0.8,9.4,2.3c1.9,1.5,3.4,4.2,3.4,7.2s-1.1,5.7-2.6,7.2
		c-2.3,2.3-5.7,3.4-9.8,3.4c-0.8,0-1.9,0-2.3,0v11h-6.8v-30.2H-98.8z M-92,286.6c0.8,0,1.1,0,2.3,0c3.8,0,6-1.9,6-4.9
		c0-2.6-1.9-4.5-5.3-4.5c-1.5,0-2.3,0-3,0.4V286.6z"/>
	<path d="M-44.8,287.4c0,10.2-6,16.2-15.1,16.2s-14.4-6.8-14.4-15.5c0-9.1,5.7-15.9,14.7-15.9C-49.7,271.9-44.8,278.7-44.8,287.4z
		 M-66.7,287.8c0,6,2.6,10.2,7.6,10.2c4.5,0,7.2-4.5,7.2-10.2c0-5.7-2.6-10.2-7.6-10.2C-64.1,277.2-66.7,281.7-66.7,287.8z"/>
	<path d="M-35.3,302.9l-7.2-30.6h7.6l2.3,12.5c0.8,3.8,1.1,7.6,1.9,10.6l0,0c0.4-3.4,1.1-6.8,1.9-10.6l2.6-12.5h7.2l2.3,12.8
		c0.8,3.4,1.1,6.8,1.5,10.2l0,0c0.4-3.4,1.1-6.8,1.9-10.6l2.6-12.5h7.2l-7.9,30.6h-7.6l-2.6-13.2c-0.8-3-1.1-6-1.5-9.4l0,0
		c-0.4,3.4-1.1,6.4-1.9,9.4l-3,13.2L-35.3,302.9L-35.3,302.9z"/>
	<path d="M17.9,290H6.6v7.2h12.5v5.7H-0.6v-30.6h18.9v5.7H6.2v6.4h11.3v5.7H17.9z"/>
	<path d="M24,272.7c2.3-0.4,5.7-0.8,9.1-0.8c4.5,0,7.6,0.8,9.8,2.3c1.9,1.5,2.6,3.4,2.6,6.4c0,3.8-2.6,6.4-5.3,7.6l0,0
		c2.3,0.8,3.4,3,4.2,5.7c1.1,3.4,1.9,7.6,2.6,8.7h-7.2c-0.4-0.8-1.1-3.4-2.3-7.2c-0.8-3.8-2.3-4.9-4.9-4.9h-2.3v12.1h-6.8v-29.8H24z
		 M30.8,285.9h2.6c3.4,0,5.7-1.9,5.7-4.5s-1.9-4.2-4.9-4.2c-1.5,0-2.6,0-3,0.4v8.3H30.8z"/>
	<path d="M60.2,272.7c1.9-0.4,5.7-0.8,9.1-0.8c4.2,0,6.8,0.4,9.1,1.9c2.3,1.1,3.8,3.4,3.8,6c0,2.6-1.5,5.3-4.9,6.4l0,0
		c3.4,1.1,6,3.4,6,7.6c0,2.6-1.1,4.9-3,6.4c-2.3,1.9-6,2.6-12.1,2.6c-3.4,0-6-0.4-7.6-0.4v-29.8H60.2z M67,284.4h2.3
		c3.8,0,5.7-1.5,5.7-3.8c0-2.3-1.9-3.4-4.9-3.4c-1.5,0-2.3,0-3,0V284.4z M67,298c0.8,0,1.5,0,2.6,0c3,0,6-1.1,6-4.5
		c0-3-2.6-4.2-6-4.2H67V298z"/>
	<path d="M94.2,295l-2.3,7.9h-7.2l9.4-30.6h9.1l9.4,30.6h-7.6l-2.3-7.9H94.2z M102.2,290l-1.9-6.4c-0.4-1.9-1.1-4.2-1.5-6l0,0
		c-0.4,1.9-0.8,4.2-1.5,6l-1.9,6.4H102.2z"/>
	<path d="M116.9,302.9v-30.6h7.9l6.4,11.3c1.9,3.4,3.8,7.2,4.9,10.6l0,0c-0.4-4.2-0.8-8.3-0.8-12.8v-9.1h6.4v30.6h-7.2l-6.4-11.7
		c-1.9-3.4-3.8-7.2-5.3-11l0,0c0,4.2,0.4,8.3,0.4,13.2v9.1h-6.4V302.9z"/>
	<path d="M148.3,272.3h6.8v13.6l0,0c0.8-1.1,1.5-2.3,2.3-3.4l6.8-10.2h8.3l-10.2,12.8l10.6,17.4h-7.9l-7.6-13.2l-2.6,3.4v9.8h-6.8
		v-30.2H148.3z"/>
</g>
<g>
	<path class="st1" d="M-104.5,272.7c2.3-0.4,5.3-0.8,9.4-0.8c4.2,0,7.2,0.8,9.4,2.3c1.9,1.5,3.4,4.2,3.4,7.2s-1.1,5.7-2.6,7.2
		c-2.3,2.3-5.7,3.4-9.8,3.4c-0.8,0-1.9,0-2.3,0v11h-6.8v-30.2H-104.5z M-97.7,286.6c0.8,0,1.1,0,2.3,0c3.8,0,6-1.9,6-4.9
		c0-2.6-1.9-4.5-5.3-4.5c-1.5,0-2.3,0-3,0.4V286.6z"/>
	<path class="st1" d="M-50.5,287.4c0,10.2-6,16.2-15.1,16.2s-14.4-6.8-14.4-15.5c0-9.1,5.7-15.9,14.7-15.9
		C-55.4,271.9-50.5,278.7-50.5,287.4z M-72.4,287.8c0,6,2.6,10.2,7.6,10.2c4.5,0,7.2-4.5,7.2-10.2c0-5.7-2.6-10.2-7.6-10.2
		C-69.7,277.2-72.4,281.7-72.4,287.8z"/>
	<path class="st1" d="M-41,302.9l-7.2-30.6h7.6l2.3,12.5c0.8,3.8,1.1,7.6,1.9,10.6l0,0c0.4-3.4,1.1-6.8,1.9-10.6l2.6-12.5h7.2
		l2.3,12.8c0.8,3.4,1.1,6.8,1.5,10.2l0,0c0.4-3.4,1.1-6.8,1.9-10.6l2.6-12.5h7.2l-7.9,30.6h-7.6l-2.6-13.2c-0.8-3-1.1-6-1.5-9.4l0,0
		c-0.4,3.4-1.1,6.4-1.9,9.4l-3,13.2L-41,302.9L-41,302.9z"/>
	<path class="st1" d="M12.3,290H0.9v7.2h12.5v5.7H-6.3v-30.6h18.9v5.7H0.5v6.4h11.3v5.7H12.3z"/>
	<path class="st1" d="M18.3,272.7c2.3-0.4,5.7-0.8,9.1-0.8c4.5,0,7.6,0.8,9.8,2.3c1.9,1.5,2.6,3.4,2.6,6.4c0,3.8-2.6,6.4-5.3,7.6
		l0,0c2.3,0.8,3.4,3,4.2,5.7c1.1,3.4,1.9,7.6,2.6,8.7h-7.2c-0.4-0.8-1.1-3.4-2.3-7.2c-0.8-3.8-2.3-4.9-4.9-4.9h-2.3v12.1h-6.8v-29.8
		H18.3z M25.1,285.9h2.6c3.4,0,5.7-1.9,5.7-4.5s-1.9-4.2-4.9-4.2c-1.5,0-2.6,0-3,0.4v8.3H25.1z"/>
	<path class="st1" d="M54.6,272.7c1.9-0.4,5.7-0.8,9.1-0.8c4.2,0,6.8,0.4,9.1,1.9c2.3,1.1,3.8,3.4,3.8,6c0,2.6-1.5,5.3-4.9,6.4l0,0
		c3.4,1.1,6,3.4,6,7.6c0,2.6-1.1,4.9-3,6.4c-2.3,1.9-6,2.6-12.1,2.6c-3.4,0-6-0.4-7.6-0.4v-29.8H54.6z M61.4,284.4h2.3
		c3.8,0,5.7-1.5,5.7-3.8c0-2.3-1.9-3.4-4.9-3.4c-1.5,0-2.3,0-3,0V284.4z M61.4,298c0.8,0,1.5,0,2.6,0c3,0,6-1.1,6-4.5
		c0-3-2.6-4.2-6-4.2h-2.6V298z"/>
	<path class="st1" d="M88.6,295l-2.3,7.9h-7.2l9.4-30.6h9.1l9.4,30.6h-7.6l-2.3-7.9H88.6z M96.5,290l-1.9-6.4
		c-0.4-1.9-1.1-4.2-1.5-6l0,0c-0.4,1.9-0.8,4.2-1.5,6l-1.9,6.4H96.5z"/>
	<path class="st1" d="M111.2,302.9v-30.6h7.9l6.4,11.3c1.9,3.4,3.8,7.2,4.9,10.6l0,0c-0.4-4.2-0.8-8.3-0.8-12.8v-9.1h6.4v30.6H129
		l-6.4-11.7c-1.9-3.4-3.8-7.2-5.3-11l0,0c0,4.2,0.4,8.3,0.4,13.2v9.1h-6.4V302.9z"/>
	<path class="st1" d="M142.6,272.3h6.8v13.6l0,0c0.8-1.1,1.5-2.3,2.3-3.4l6.8-10.2h8.3l-10.2,12.8l10.6,17.4h-7.9l-7.6-13.2
		l-2.6,3.4v9.8h-6.8v-30.2H142.6z"/>
</g>
</svg>
