<?xml version="1.0" encoding="utf-8"?>
<!-- Generator: Adobe Illustrator 19.0.0, SVG Export Plug-In . SVG Version: 6.00 Build 0)  -->
<svg version="1.1" id="Layer_1" xmlns="http://www.w3.org/2000/svg" xmlns:xlink="http://www.w3.org/1999/xlink" x="0px" y="0px"
	 viewBox="-71 145 144 144" style="enable-background:new -71 145 144 144;" xml:space="preserve">
<style type="text/css">
	.st0{fill:#010101;}
</style>
<g id="XMLID_104_">
	<g id="XMLID_105_">
		<g id="XMLID_106_" transform="translate(0.000000,511.000000) scale(0.100000,-0.100000)">
			<path id="XMLID_112_" class="st0" d="M-213.5,3507.7c-51.6-6.7-97.7-44.9-114.6-94.6c-5-14.6-4.6-12-40.4-277.9
				c-24.4-182.6-28.1-206.2-32-215.1c-9.1-20.8-11-32.5-11-70.7c0-41.5,1.9-52.5,12.9-75.4c16.7-34.4,44.4-57.3,82.6-68.3l13.8-4
				H10.1h312.3l13.8,4c38,11,65.9,34.1,82.6,68.3c11.7,24.1,13.4,35.1,12.6,80.4c-0.9,41.3-1.7,46.3-11.9,67.6
				c-4.6,10-6.5,22.5-35.1,238.5c-16.5,125.3-31.3,233.3-32.7,240.2c-3.4,15.1-14.8,39.1-25.8,53.5c-17.2,22.7-46.8,42.2-77.4,50.6
				l-13.8,4L16.1,3509C-104,3509.1-207.4,3508.6-213.5,3507.7z M239.6,3469c38-9.8,67.1-39.1,75.9-76.6
				c1.9-7.9,55.9-409.4,55.9-415.4c0-0.5-4.5,1.4-10,4.1c-5.5,2.8-15.7,6.9-22.7,9.1l-12.9,4H10.1h-315.8l-12.9-4
				c-7.1-2.2-17.9-6.7-23.7-9.8l-11-5.9l1,5.5c0.5,3.1,6,43.5,12.2,89.8c34.2,255.2,42.3,314.1,44.1,321.8
				c6.7,29.3,28.7,56.6,56.1,69.9c21.5,10.5,8.1,10,249,10C204.9,3471.7,230.2,3471.4,239.6,3469z M331,2954.3
				c22.4-8.1,37.3-19.4,48.7-37.2c13.6-20.6,14.8-26.3,15-68.3c0-34.4-0.3-37.7-4-48c-9.8-27.2-32.2-49.4-58.2-58
				c-9.8-3.1-19.1-3.3-322.5-3.3s-312.7,0.2-322.5,3.3c-26.2,8.6-48.2,30.6-58.2,58c-3.6,10.2-4,13.8-4,47.2
				c0,30.8,0.5,37.5,3.3,45.6c11.5,33.9,38.7,57.8,72.1,63.5c5,0.9,146.4,1.4,314.4,1.2l305.5-0.2L331,2954.3z"/>
			<path id="XMLID_111_" class="st0" d="M-2.3,3411.7l-5.7-5l-0.5-58.3c-0.7-64.7,0-69.2,8.8-74.5c6.7-4.1,11.7-4.3,18.6-0.7
				c9.6,4.8,10.2,8.6,10.2,70.4c0,60.1-0.5,64.5-8.8,70.4C13.7,3418.4,4.2,3417.5-2.3,3411.7z"/>
			<path id="XMLID_110_" class="st0" d="M-83.7,3387.6c-52-32.2-82.1-80.5-88.8-142.8c-3.4-32.4,2.8-65.7,18.1-97.4
				c33.6-68.7,99.8-108.4,175.7-105.3c70,2.9,129.1,41.6,160,105.3c32.5,66.8,22.9,143.5-25.5,202c-16.5,20.1-52.8,46.6-63.7,46.6
				s-18.2-7.6-18.4-18.6c0-8.8,2.9-12,22.4-24.4c41.5-26.2,67.1-73.7,67.1-123.9c0-40.4-13.4-74.5-40.3-102.7
				c-20.8-22-44.2-36.1-72.4-43.7c-19.6-5.3-54.4-5.3-74,0c-28.2,7.6-51.6,21.7-72.5,43.7c-26.8,28.1-40.3,62.3-40.3,101.9
				c0,42.8,15.7,79.2,47,108.6c7.9,7.4,19.6,16.7,26,20.3c13.6,7.9,16.5,11.5,16.5,20.5c0,8.4-2.2,12.6-8.6,15.8
				C-63.6,3397.7-69.3,3396.5-83.7,3387.6z"/>
			<path id="XMLID_107_" class="st0" d="M262.9,2901.5c-25-6.7-41.1-27.5-41.1-53.2c0-14.8,4-25.3,13.4-35.8
				c31.3-34.9,86.6-19.1,95.2,27c5.2,27.5-12.7,54.4-41,61.8C277.8,2904.4,273.5,2904.4,262.9,2901.5z M289,2861
				c11.5-11.5,2.8-31.1-13.9-31.1c-7.6,0-17.2,9.6-17.2,17.2c0,6.5,4.3,14.6,9.3,17C274.6,2867.6,283.7,2866.3,289,2861z"/>
		</g>
	</g>
</g>
<g>
	<path d="M-34.6,256.5c0.6-0.1,1.4-0.2,2.5-0.2c1.1,0,1.9,0.2,2.5,0.6c0.5,0.4,0.9,1.1,0.9,1.9c0,0.8-0.3,1.5-0.7,1.9
		c-0.6,0.6-1.5,0.9-2.6,0.9c-0.2,0-0.5,0-0.6,0v2.9h-1.8V256.5z M-32.8,260.2c0.2,0,0.3,0,0.6,0c1,0,1.6-0.5,1.6-1.3
		c0-0.7-0.5-1.2-1.4-1.2c-0.4,0-0.6,0-0.8,0.1V260.2z"/>
	<path d="M-20.3,260.4c0,2.7-1.6,4.3-4,4.3c-2.4,0-3.8-1.8-3.8-4.1c0-2.4,1.5-4.2,3.9-4.2C-21.6,256.3-20.3,258.1-20.3,260.4z
		 M-26.1,260.5c0,1.6,0.7,2.7,2,2.7c1.2,0,1.9-1.2,1.9-2.7c0-1.5-0.7-2.7-2-2.7C-25.4,257.7-26.1,258.9-26.1,260.5z"/>
	<path d="M-17.8,264.5l-1.9-8.1h2l0.6,3.3c0.2,1,0.3,2,0.5,2.8h0c0.1-0.9,0.3-1.8,0.5-2.8l0.7-3.3h1.9l0.6,3.4
		c0.2,0.9,0.3,1.8,0.4,2.7h0c0.1-0.9,0.3-1.8,0.5-2.8l0.7-3.3h1.9l-2.1,8.1h-2l-0.7-3.5c-0.2-0.8-0.3-1.6-0.4-2.5h0
		c-0.1,0.9-0.3,1.7-0.5,2.5l-0.8,3.5H-17.8z"/>
	<path d="M-3.7,261.1h-3v1.9h3.3v1.5h-5.2v-8.1h5v1.5h-3.2v1.7h3V261.1z"/>
	<path d="M-2.1,256.5c0.6-0.1,1.5-0.2,2.4-0.2c1.2,0,2,0.2,2.6,0.6c0.5,0.4,0.7,0.9,0.7,1.7c0,1-0.7,1.7-1.4,2v0
		c0.6,0.2,0.9,0.8,1.1,1.5c0.3,0.9,0.5,2,0.7,2.3H2.1c-0.1-0.2-0.3-0.9-0.6-1.9c-0.2-1-0.6-1.3-1.3-1.3h-0.6v3.2h-1.8V256.5z
		 M-0.3,260h0.7c0.9,0,1.5-0.5,1.5-1.2c0-0.7-0.5-1.1-1.3-1.1c-0.4,0-0.7,0-0.8,0.1V260z"/>
	<path d="M7.5,256.5c0.5-0.1,1.5-0.2,2.4-0.2c1.1,0,1.8,0.1,2.4,0.5c0.6,0.3,1,0.9,1,1.6c0,0.7-0.4,1.4-1.3,1.7v0
		c0.9,0.3,1.6,0.9,1.6,2c0,0.7-0.3,1.3-0.8,1.7c-0.6,0.5-1.6,0.7-3.2,0.7c-0.9,0-1.6-0.1-2-0.1V256.5z M9.3,259.6h0.6
		c1,0,1.5-0.4,1.5-1c0-0.6-0.5-0.9-1.3-0.9c-0.4,0-0.6,0-0.8,0V259.6z M9.3,263.2c0.2,0,0.4,0,0.7,0c0.8,0,1.6-0.3,1.6-1.2
		c0-0.8-0.7-1.1-1.6-1.1H9.3V263.2z"/>
	<path d="M16.5,262.4l-0.6,2.1h-1.9l2.5-8.1h2.4l2.5,8.1h-2l-0.6-2.1H16.5z M18.6,261.1l-0.5-1.7c-0.1-0.5-0.3-1.1-0.4-1.6h0
		c-0.1,0.5-0.2,1.1-0.4,1.6l-0.5,1.7H18.6z"/>
	<path d="M22.5,264.5v-8.1h2.1l1.7,3c0.5,0.9,1,1.9,1.3,2.8h0c-0.1-1.1-0.2-2.2-0.2-3.4v-2.4h1.7v8.1h-1.9l-1.7-3.1
		c-0.5-0.9-1-1.9-1.4-2.9l0,0c0,1.1,0.1,2.2,0.1,3.5v2.4H22.5z"/>
	<path d="M30.8,256.4h1.8v3.6h0c0.2-0.3,0.4-0.6,0.6-0.9l1.8-2.7h2.2l-2.7,3.4l2.8,4.6h-2.1l-2-3.5l-0.7,0.9v2.6h-1.8V256.4z"/>
</g>
</svg>
