<?xml version="1.0" encoding="utf-8"?>
<!-- Generator: Adobe Illustrator 19.0.0, SVG Export Plug-In . SVG Version: 6.00 Build 0)  -->
<svg version="1.1" id="Layer_1" xmlns="http://www.w3.org/2000/svg" xmlns:xlink="http://www.w3.org/1999/xlink" x="0px" y="0px"
	 viewBox="0 0 512 512" style="enable-background:new 0 0 512 512;" xml:space="preserve">
<style type="text/css">
	.st0{fill:#BD3334;}
	.st1{fill:#FFFFFF;}
</style>
<g id="XMLID_27_">
	<rect id="XMLID_28_" class="st0" width="512" height="512"/>
	<g id="XMLID_30_">
		<rect id="XMLID_31_" x="72.3" y="439.2" class="st1" width="367.3" height="2.1"/>
	</g>
</g>
<g>
	<path class="st1" d="M199.9,263.5l64.7-92.9c2.9-4.2,3.5-8.7,1.6-12.3c-1.9-3.6-5.9-5.7-11-5.7H213l7.3-58.9
		c0.9-5.9-0.5-9.6-4.1-11.1c-3.6-1.4-7.2,0.3-10.6,5.2l-57.9,81.2c-2.9,4.2-3.5,8.7-1.6,12.3c1.9,3.6,5.9,5.7,11,5.7h36.1l-8,70.7
		c-0.9,5.9,0.5,9.6,4.1,11c0.8,0.3,1.6,0.5,2.4,0.5C194.5,269.2,197.3,267.3,199.9,263.5z M203.4,177.9c-1-1.2-2.5-1.8-4.1-1.8H157
		c-0.3,0-0.6,0-0.8,0c0.1-0.2,0.2-0.4,0.4-0.6l51.4-72.1l-6.7,54.1c-0.2,1.6,0.3,3.1,1.3,4.3c1,1.2,2.5,1.9,4.1,1.9h48.5
		c0.3,0,0.6,0,0.8,0c-0.1,0.2-0.2,0.4-0.4,0.7L197.3,248l7.4-65.8C204.9,180.6,204.4,179.1,203.4,177.9z"/>
	<path class="st1" d="M408.6,111.5h-12.1V81.8c0-3-2.5-5.5-5.5-5.5s-5.5,2.5-5.5,5.5v29.7H373V81.8c0-3-2.5-5.5-5.5-5.5
		c-3,0-5.5,2.5-5.5,5.5v29.7h-12.1c-3,0-5.5,2.5-5.5,5.5s2.5,5.5,5.5,5.5h0.4v23.8c0,14.1,10.1,25.9,23.5,28.4v150.5
		c0,43.9-35.7,79.6-79.6,79.6c-20.8,0-40.4-8-55.4-22.4c-13.8-13.3-22.1-30.9-23.9-49.8c6.6-2.4,11.4-8.8,11.4-16.2v-6.2h64.9
		c16,0,29-13,29-29V70.1c0-16-13-29-29-29H126.9c-16,0-29,13-29,29v211.2c0,16,13,29,29,29h64.9v6.2c0,7.7,5.1,14.2,12.1,16.4
		c1.8,21.8,11.4,42.1,27.2,57.4c17,16.5,39.4,25.5,63,25.5c49.9,0,90.6-40.6,90.6-90.6V174.8c13.4-2.6,23.5-14.3,23.5-28.4v-23.8
		h0.4c3,0,5.5-2.5,5.5-5.5S411.6,111.5,408.6,111.5z M108.9,281.3V70.1c0-9.9,8.1-18,18-18h164.3c9.9,0,18,8.1,18,18v211.2
		c0,9.9-8.1,18-18,18H126.9C117,299.3,108.9,291.2,108.9,281.3z M202.8,310.3h12.5v6.2c0,3.4-2.8,6.2-6.2,6.2s-6.2-2.8-6.2-6.2
		V310.3z M397.2,146.4c0,9.9-8.1,18-18,18s-18-8.1-18-18v-23.8h35.9V146.4z"/>
</g>
<g id="XMLID_38_">
	<path id="XMLID_39_" d="M89.1,478.2V493h-9.5v-40h15.8c3.5,0,6.2,0.4,8.1,1.1c1.9,0.8,3.5,2.1,5,4s2.2,4.3,2.2,7.1
		c0,2-0.4,3.9-1.2,5.8c-0.8,1.9-1.9,3.3-3.3,4.4c-1.4,1.1-2.8,1.8-4.1,2.1c-1.3,0.4-3.4,0.5-6.3,0.5H89.1z M88.8,470.9h6.1
		c2.3,0,4-0.5,4.9-1.6s1.4-2.3,1.4-3.7c0-1.6-0.5-2.9-1.6-3.9c-1-1-2.6-1.4-4.8-1.4h-6.1V470.9z"/>
	<path id="XMLID_42_" d="M127,462.8c4.5,0,8,1.5,10.6,4.4c2.5,2.9,3.8,6.6,3.8,11.1c0,4.4-1.3,8-3.9,10.9s-6.1,4.4-10.5,4.4
		c-4.2,0-7.6-1.4-10.1-4.3s-3.8-6.6-3.8-11.1c0-3.1,0.6-5.8,1.7-8c1.1-2.2,2.7-4,4.7-5.3S124,462.8,127,462.8z M127.2,468.5
		c-1.7,0-2.9,0.6-3.7,1.9s-1.3,3.8-1.3,7.6c0,3.5,0.4,6,1.2,7.5c0.8,1.5,2,2.3,3.7,2.3c1.5,0,2.7-0.6,3.6-1.9
		c0.9-1.3,1.4-3.8,1.4-7.4c0-3.9-0.4-6.5-1.2-7.9C130.1,469.2,128.9,468.5,127.2,468.5z"/>
	<path id="XMLID_45_" d="M185.5,463.4l-8.9,29.6h-7.7l-4.7-19l-4.7,19h-7.3l-9.2-29.6h9.1l4.8,18.1l4.5-18.1h7.9l4.3,18.2l5-18.2
		H185.5z"/>
	<path id="XMLID_47_" d="M215.6,479.7h-19c0,0.5,0,1,0,1.4c0,2.1,0.6,3.7,1.7,4.8c1.1,1.1,2.5,1.6,4,1.6c2.9,0,4.7-1.6,5.2-4.7
		l7.9,0.6c-2.2,6.8-6.7,10.3-13.4,10.3c-2.9,0-5.5-0.6-7.5-1.8c-2.1-1.2-3.8-2.9-5.1-5.2c-1.3-2.3-2-5-2-8.1c0-4.7,1.3-8.5,4-11.4
		c2.7-2.9,6.1-4.3,10.4-4.3c3.8,0,7.1,1.3,9.8,4S215.6,473.8,215.6,479.7z M196.5,474.6H207c-0.3-4.1-1.9-6.1-5-6.1
		C198.7,468.5,196.9,470.6,196.5,474.6z"/>
	<path id="XMLID_50_" d="M229.6,493h-8.5v-29.6h8v5.5c1.2-4.1,3.4-6.2,6.4-6.2c0.4,0,1,0,1.6,0.1v8.6c-1.8,0-3.2,0.3-4.1,0.8
		c-1,0.5-1.8,1.5-2.4,2.9c-0.6,1.4-0.9,3.3-0.9,5.7V493z"/>
	<path id="XMLID_52_" d="M285,461.8l-8,2.7c-1.1-3.2-3.3-4.7-6.8-4.7c-3.7,0-5.6,1.2-5.6,3.6c0,1,0.3,1.8,1,2.4s2.3,1.2,4.7,1.7
		c4.1,0.8,7.1,1.7,9,2.5c1.9,0.8,3.5,2.2,4.8,4.1c1.3,1.9,1.9,3.9,1.9,6.3c0,3.6-1.4,6.7-4.2,9.4c-2.8,2.6-6.9,4-12.4,4
		c-4.1,0-7.6-0.9-10.5-2.8c-2.9-1.9-4.8-4.6-5.7-8.3l8.7-2c1,3.7,3.7,5.6,8.1,5.6c2.1,0,3.7-0.4,4.8-1.2s1.6-1.8,1.6-3
		c0-1.2-0.5-2.1-1.4-2.7s-2.8-1.3-5.5-1.8c-5.1-1.1-8.7-2.5-10.9-4.3c-2.2-1.8-3.2-4.5-3.2-8c0-3.6,1.3-6.6,3.9-9
		c2.6-2.4,6.1-3.7,10.5-3.7C277.7,452.4,282.7,455.6,285,461.8z"/>
	<path id="XMLID_54_" d="M304,462.8c4.5,0,8,1.5,10.6,4.4c2.5,2.9,3.8,6.6,3.8,11.1c0,4.4-1.3,8-3.9,10.9s-6.1,4.4-10.5,4.4
		c-4.2,0-7.6-1.4-10.1-4.3c-2.5-2.9-3.8-6.6-3.8-11.1c0-3.1,0.6-5.8,1.7-8s2.7-4,4.7-5.3S301,462.8,304,462.8z M304.3,468.5
		c-1.7,0-2.9,0.6-3.7,1.9s-1.3,3.8-1.3,7.6c0,3.5,0.4,6,1.2,7.5c0.8,1.5,2,2.3,3.7,2.3c1.5,0,2.7-0.6,3.6-1.9s1.4-3.8,1.4-7.4
		c0-3.9-0.4-6.5-1.2-7.9C307.1,469.2,305.9,468.5,304.3,468.5z"/>
	<path id="XMLID_57_" d="M349.9,481.9c-0.3,3.5-1.7,6.3-4.1,8.5s-5.6,3.2-9.4,3.2c-4.2,0-7.6-1.4-10.2-4.1s-3.9-6.5-3.9-11.1
		s1.3-8.4,4-11.3s6.3-4.3,10.8-4.3c3.6,0,6.6,1.1,9,3.3s3.7,4.9,3.9,8.1l-8.1,0.5c-0.3-3.6-1.8-5.3-4.6-5.3c-3.5,0-5.2,2.8-5.2,8.5
		c0,3.8,0.5,6.2,1.5,7.2s2.1,1.5,3.5,1.5c2.7,0,4.3-1.7,4.8-5.1L349.9,481.9z"/>
	<path id="XMLID_59_" d="M374.5,473.5l9.6,19.6h-9.6l-6.2-13.4l-5.1,5.9v7.5H355v-40h8.2v24l1.3-1.6c0.5-0.7,1-1.3,1.4-1.8l8.6-10.2
		h8.5L374.5,473.5z"/>
	<path id="XMLID_61_" d="M413.4,479.7h-19c0,0.5,0,1,0,1.4c0,2.1,0.6,3.7,1.7,4.8s2.5,1.6,4,1.6c2.9,0,4.7-1.6,5.2-4.7l7.9,0.6
		c-2.2,6.8-6.7,10.3-13.4,10.3c-2.9,0-5.5-0.6-7.5-1.8s-3.8-2.9-5.1-5.2s-2-5-2-8.1c0-4.7,1.3-8.5,4-11.4s6.1-4.3,10.4-4.3
		c3.8,0,7.1,1.3,9.8,4S413.4,473.8,413.4,479.7z M394.3,474.6h10.5c-0.3-4.1-1.9-6.1-5-6.1C396.6,468.5,394.7,470.6,394.3,474.6z"/>
	<path id="XMLID_64_" d="M428.7,470.2v12.5c0,1.6,0.2,2.6,0.7,3.1s1.6,0.8,3.3,0.8c0.8,0,1.7,0,2.8-0.1v6.5
		c-2.5,0.4-4.4,0.6-5.5,0.6c-3.6,0-6.2-0.7-7.7-2.1s-2.3-3.9-2.3-7.6v-13.8h-4.7v-6.8h5.2l0.7-8.7l7.5-0.6v9.3h6.4v6.8H428.7z"/>
</g>
<g id="XMLID_66_">
	<path id="XMLID_91_" class="st1" d="M91.1,478.2V493h-9.5v-40h15.8c3.5,0,6.2,0.4,8.1,1.1c1.9,0.8,3.5,2.1,5,4s2.2,4.3,2.2,7.1
		c0,2-0.4,3.9-1.2,5.8c-0.8,1.9-1.9,3.3-3.3,4.4c-1.4,1.1-2.8,1.8-4.1,2.1c-1.3,0.4-3.4,0.5-6.3,0.5H91.1z M90.8,470.9h6.1
		c2.3,0,4-0.5,4.9-1.6s1.4-2.3,1.4-3.7c0-1.6-0.5-2.9-1.6-3.9c-1-1-2.6-1.4-4.8-1.4h-6.1V470.9z"/>
	<path id="XMLID_88_" class="st1" d="M129,462.8c4.5,0,8,1.5,10.6,4.4c2.5,2.9,3.8,6.6,3.8,11.1c0,4.4-1.3,8-3.9,10.9
		s-6.1,4.4-10.5,4.4c-4.2,0-7.6-1.4-10.1-4.3s-3.8-6.6-3.8-11.1c0-3.1,0.6-5.8,1.7-8c1.1-2.2,2.7-4,4.7-5.3S126,462.8,129,462.8z
		 M129.2,468.5c-1.7,0-2.9,0.6-3.7,1.9s-1.3,3.8-1.3,7.6c0,3.5,0.4,6,1.2,7.5c0.8,1.5,2,2.3,3.7,2.3c1.5,0,2.7-0.6,3.6-1.9
		c0.9-1.3,1.4-3.8,1.4-7.4c0-3.9-0.4-6.5-1.2-7.9C132.1,469.2,130.9,468.5,129.2,468.5z"/>
	<path id="XMLID_86_" class="st1" d="M187.5,463.4l-8.9,29.6h-7.7l-4.7-19l-4.7,19h-7.3l-9.2-29.6h9.1l4.8,18.1l4.5-18.1h7.9
		l4.3,18.2l5-18.2H187.5z"/>
	<path id="XMLID_83_" class="st1" d="M217.6,479.7h-19c0,0.5,0,1,0,1.4c0,2.1,0.6,3.7,1.7,4.8c1.1,1.1,2.5,1.6,4,1.6
		c2.9,0,4.7-1.6,5.2-4.7l7.9,0.6c-2.2,6.8-6.7,10.3-13.4,10.3c-2.9,0-5.5-0.6-7.5-1.8c-2.1-1.2-3.8-2.9-5.1-5.2c-1.3-2.3-2-5-2-8.1
		c0-4.7,1.3-8.5,4-11.4c2.7-2.9,6.1-4.3,10.4-4.3c3.8,0,7.1,1.3,9.8,4S217.6,473.8,217.6,479.7z M198.5,474.6H209
		c-0.3-4.1-1.9-6.1-5-6.1C200.7,468.5,198.9,470.6,198.5,474.6z"/>
	<path id="XMLID_81_" class="st1" d="M231.6,493h-8.5v-29.6h8v5.5c1.2-4.1,3.4-6.2,6.4-6.2c0.4,0,1,0,1.6,0.1v8.6
		c-1.8,0-3.2,0.3-4.1,0.8c-1,0.5-1.8,1.5-2.4,2.9c-0.6,1.4-0.9,3.3-0.9,5.7V493z"/>
	<path id="XMLID_79_" class="st1" d="M287,461.8l-8,2.7c-1.1-3.2-3.3-4.7-6.8-4.7c-3.7,0-5.6,1.2-5.6,3.6c0,1,0.3,1.8,1,2.4
		s2.3,1.2,4.7,1.7c4.1,0.8,7.1,1.7,9,2.5c1.9,0.8,3.5,2.2,4.8,4.1c1.3,1.9,1.9,3.9,1.9,6.3c0,3.6-1.4,6.7-4.2,9.4
		c-2.8,2.6-6.9,4-12.4,4c-4.1,0-7.6-0.9-10.5-2.8c-2.9-1.9-4.8-4.6-5.7-8.3l8.7-2c1,3.7,3.7,5.6,8.1,5.6c2.1,0,3.7-0.4,4.8-1.2
		s1.6-1.8,1.6-3c0-1.2-0.5-2.1-1.4-2.7s-2.8-1.3-5.5-1.8c-5.1-1.1-8.7-2.5-10.9-4.3c-2.2-1.8-3.2-4.5-3.2-8c0-3.6,1.3-6.6,3.9-9
		c2.6-2.4,6.1-3.7,10.5-3.7C279.7,452.4,284.7,455.6,287,461.8z"/>
	<path id="XMLID_76_" class="st1" d="M306,462.8c4.5,0,8,1.5,10.6,4.4c2.5,2.9,3.8,6.6,3.8,11.1c0,4.4-1.3,8-3.9,10.9
		s-6.1,4.4-10.5,4.4c-4.2,0-7.6-1.4-10.1-4.3c-2.5-2.9-3.8-6.6-3.8-11.1c0-3.1,0.6-5.8,1.7-8s2.7-4,4.7-5.3S303,462.8,306,462.8z
		 M306.3,468.5c-1.7,0-2.9,0.6-3.7,1.9s-1.3,3.8-1.3,7.6c0,3.5,0.4,6,1.2,7.5c0.8,1.5,2,2.3,3.7,2.3c1.5,0,2.7-0.6,3.6-1.9
		s1.4-3.8,1.4-7.4c0-3.9-0.4-6.5-1.2-7.9C309.1,469.2,307.9,468.5,306.3,468.5z"/>
	<path id="XMLID_74_" class="st1" d="M351.9,481.9c-0.3,3.5-1.7,6.3-4.1,8.5s-5.6,3.2-9.4,3.2c-4.2,0-7.6-1.4-10.2-4.1
		s-3.9-6.5-3.9-11.1s1.3-8.4,4-11.3s6.3-4.3,10.8-4.3c3.6,0,6.6,1.1,9,3.3s3.7,4.9,3.9,8.1l-8.1,0.5c-0.3-3.6-1.8-5.3-4.6-5.3
		c-3.5,0-5.2,2.8-5.2,8.5c0,3.8,0.5,6.2,1.5,7.2s2.1,1.5,3.5,1.5c2.7,0,4.3-1.7,4.8-5.1L351.9,481.9z"/>
	<path id="XMLID_72_" class="st1" d="M376.5,473.5l9.6,19.6h-9.6l-6.2-13.4l-5.1,5.9v7.5H357v-40h8.2v24l1.3-1.6
		c0.5-0.7,1-1.3,1.4-1.8l8.6-10.2h8.5L376.5,473.5z"/>
	<path id="XMLID_69_" class="st1" d="M415.4,479.7h-19c0,0.5,0,1,0,1.4c0,2.1,0.6,3.7,1.7,4.8s2.5,1.6,4,1.6c2.9,0,4.7-1.6,5.2-4.7
		l7.9,0.6c-2.2,6.8-6.7,10.3-13.4,10.3c-2.9,0-5.5-0.6-7.5-1.8s-3.8-2.9-5.1-5.2s-2-5-2-8.1c0-4.7,1.3-8.5,4-11.4s6.1-4.3,10.4-4.3
		c3.8,0,7.1,1.3,9.8,4S415.4,473.8,415.4,479.7z M396.3,474.6h10.5c-0.3-4.1-1.9-6.1-5-6.1C398.6,468.5,396.7,470.6,396.3,474.6z"/>
	<path id="XMLID_67_" class="st1" d="M430.7,470.2v12.5c0,1.6,0.2,2.6,0.7,3.1s1.6,0.8,3.3,0.8c0.8,0,1.7,0,2.8-0.1v6.5
		c-2.5,0.4-4.4,0.6-5.5,0.6c-3.6,0-6.2-0.7-7.7-2.1s-2.3-3.9-2.3-7.6v-13.8h-4.7v-6.8h5.2l0.7-8.7l7.5-0.6v9.3h6.4v6.8H430.7z"/>
</g>
</svg>
