<?xml version="1.0" encoding="utf-8"?>
<!-- Generator: Adobe Illustrator 19.0.0, SVG Export Plug-In . SVG Version: 6.00 Build 0)  -->
<svg version="1.1" id="Layer_1" xmlns="http://www.w3.org/2000/svg" xmlns:xlink="http://www.w3.org/1999/xlink" x="0px" y="0px"
	 viewBox="148 -184 512 512" style="enable-background:new 148 -184 512 512;" xml:space="preserve">
<style type="text/css">
	.st0{fill-rule:evenodd;clip-rule:evenodd;fill:#BD2F32;}
	.st1{fill:#FFFFFF;}
</style>
<g id="XMLID_29_">
	<rect id="XMLID_28_" x="148" y="-184" class="st0" width="512" height="512"/>
	<g id="XMLID_30_">
		<rect id="XMLID_31_" x="220.3" y="255.2" class="st1" width="367.3" height="2.1"/>
	</g>
</g>
<g>
	<g>
		<g>
			<path class="st1" d="M388.5-117.9h31.4c3.4,0,6.1-2.7,6.1-6.1s-2.7-6.1-6.1-6.1h-31.4c-3.4,0-6.1,2.7-6.1,6.1
				S385.2-117.9,388.5-117.9z"/>
			<path class="st1" d="M585.4-5.8l-21-86.4c-0.2-0.8-5.3-21-25.3-29.5c-14.5-6.2-60.4-23.6-71.9-28c-1.1-0.8-2.4-1.4-3.8-1.4h-0.9
				h-117c-0.2,0-0.4,0-0.6,0c-0.1,0-0.2,0-0.2,0s-0.2,0-0.3,0.1c-0.1,0-0.2,0.1-0.3,0.1c-0.1,0-0.2,0.1-0.2,0.1s-0.2,0.1-0.3,0.1
				s-0.1,0-0.2,0.1c-2.3,0.9-58.2,22-74.5,28.9c-19.3,8.2-24.7,27.1-25.3,29.4l0,0c0,0.1,0,0.1,0,0.1c0,0.1,0,0.1,0,0.1l-14.9,61.4
				l0,0l-6.1,25c-0.8,2.9,0.8,6,3.7,7.1l59.9,23.8v178.9v24.8c0,3.4,2.7,6.1,6.1,6.1h223.6c3.4,0,6.1-2.7,6.1-6.1v-24.8V88.1
				c0-3.4-2.7-6.1-6.1-6.1c-3.4,0-6.1,2.7-6.1,6.1v110H359.9c-3.4,0-6.1,2.7-6.1,6.1s2.7,6.1,6.1,6.1h149.8v12.6H298.3v-12.6h41.3
				c3.4,0,6.1-2.7,6.1-6.1s-2.7-6.1-6.1-6.1h-41.3V20.9V-5.3v-47.1c0-1.1-0.3-2.2-0.9-3.2l-30.8-50.8c2-1.6,4.3-3,6.9-4.1
				c12.5-5.3,49.9-19.6,66.3-25.8c3.9,36,31.9,65,64.6,65c32.6,0,60.5-28.8,64.6-64.7c16.7,6.3,53.1,20.3,65.4,25.5
				c2.6,1.1,5,2.6,6.9,4.1l-30.8,50.8c-0.6,1-0.9,2-0.9,3.2v47.2v26.1v46.7c0,3.4,2.7,6.1,6.1,6.1c3.4,0,6.1-2.7,6.1-6.1V25.1
				l59.9-23.8C584.6,0.1,586.2-2.9,585.4-5.8z M286.1,12.1l-50.5-20l3.2-12.9l47.3,19.8V12.1L286.1,12.1z M286.1-50.7v36.3L241.6-33
				l13.6-56.3c0-0.1,0.8-3.2,3.1-7.2L286.1-50.7z M404.5-83.5c-24.1,0-49.7-22-52.6-55.3h105.2C454.2-105.5,428.5-83.5,404.5-83.5z
				 M521.9-50.7l27.7-45.8c1.4,2.6,2.3,4.8,2.7,6.1l0,0c0.1,0.2,0.1,0.2,0.1,0.3v0.1c0,0.1,0.1,0.2,0.1,0.2v0.1c0,0.1,0,0.1,0.1,0.2
				v0.1v0.1c0,0,0,0,0,0.1v0.1l13.6,56.3l-44.5,18.6L521.9-50.7L521.9-50.7z M521.9,12.1V-1.1l47.3-19.8L572.4-8L521.9,12.1z"/>
		</g>
	</g>
</g>
<g>
	<path d="M216.8,280.1c1.9-0.3,4.8-0.5,8-0.5c3.9,0,6.7,0.6,8.5,2.1c1.6,1.3,2.4,3.1,2.4,5.5c0,3.4-2.4,5.7-4.7,6.5v0.1
		c1.8,0.7,2.9,2.5,3.5,4.9c0.8,3,1.6,6.4,2.2,7.4h-6.1c-0.4-0.8-1.1-2.9-1.8-6.1c-0.7-3.3-1.8-4.2-4.3-4.2h-1.8v10.4h-5.9
		L216.8,280.1L216.8,280.1z M222.7,291.5h2.4c3,0,4.7-1.5,4.7-3.8c0-2.4-1.6-3.6-4.4-3.7c-1.4,0-2.3,0.1-2.7,0.2V291.5z"/>
	<path d="M264.1,292.7c0,8.7-5.2,13.9-13,13.9c-7.8,0-12.4-5.9-12.4-13.4c0-7.9,5.1-13.8,12.8-13.8
		C259.6,279.3,264.1,285.4,264.1,292.7z M245,293c0,5.2,2.4,8.8,6.4,8.8s6.3-3.8,6.3-9c0-4.7-2.3-8.8-6.4-8.8
		C247.3,284.1,245,287.9,245,293z"/>
	<path d="M273.9,279.8V295c0,4.5,1.7,6.9,4.8,6.9c3.1,0,4.9-2.2,4.9-6.9v-15.2h6v14.8c0,8.1-4.1,12-11,12c-6.7,0-10.6-3.7-10.6-12.1
		v-14.7L273.9,279.8L273.9,279.8z"/>
	<path d="M294.7,306.2v-26.4h7l5.5,9.7c1.6,2.8,3.1,6.1,4.3,9h0.1c-0.4-3.5-0.5-7.1-0.5-11v-7.7h5.5v26.4h-6.3l-5.6-10.2
		c-1.6-2.8-3.3-6.2-4.6-9.3H300c0.2,3.5,0.2,7.2,0.2,11.5v8H294.7z"/>
	<path d="M321.7,280.1c2.2-0.4,5.1-0.5,8.1-0.5c5,0,8.3,0.9,10.8,2.8c2.7,2,4.5,5.3,4.5,9.9c0,5.1-1.8,8.5-4.4,10.7
		c-2.8,2.3-7,3.4-12.2,3.4c-3.1,0-5.3-0.2-6.8-0.4V280.1z M327.7,301.7c0.5,0.1,1.3,0.1,2.1,0.1c5.4,0,8.9-2.9,8.9-9.2
		c0-5.5-3.2-8.4-8.3-8.4c-1.3,0-2.2,0.1-2.7,0.2V301.7z"/>
	<path d="M356.9,306.2v-26.4h7l5.5,9.7c1.6,2.8,3.1,6.1,4.3,9h0.1c-0.4-3.5-0.5-7.1-0.5-11v-7.7h5.5v26.4h-6.3l-5.6-10.2
		c-1.6-2.8-3.3-6.2-4.6-9.3h-0.1c0.2,3.5,0.2,7.2,0.2,11.5v8H356.9z"/>
	<path d="M399.6,295h-9.7v6.3h10.8v4.9h-16.8v-26.4h16.3v4.9h-10.3v5.5h9.7V295z"/>
	<path d="M424.2,305.4c-1.1,0.5-3.6,1.2-6.8,1.2c-9.1,0-13.8-5.7-13.8-13.2c0-9,6.4-14,14.4-14c3.1,0,5.4,0.6,6.5,1.2l-1.2,4.7
		c-1.2-0.5-2.9-1-5-1c-4.7,0-8.4,2.9-8.4,8.7c0,5.3,3.1,8.6,8.5,8.6c1.8,0,3.8-0.4,5-0.9L424.2,305.4z"/>
	<path d="M428.2,279.8h5.9v11.7h0.1c0.6-1,1.2-2,1.8-2.9l6-8.8h7.3l-8.7,11.2l9.2,15.2h-7l-6.5-11.4l-2.3,2.8v8.6h-5.9v-26.4H428.2z
		"/>
	<path d="M463.7,284.8h-7.1v-5h20.3v5h-7.2v21.4h-6L463.7,284.8L463.7,284.8z"/>
	<path d="M486.6,293.9v4h-10.3v-4H486.6z"/>
	<path d="M490.5,300c1.6,0.8,4.1,1.6,6.6,1.6c2.7,0,4.2-1.1,4.2-2.9c0-1.6-1.3-2.6-4.4-3.7c-4.4-1.5-7.2-4-7.2-7.8c0-4.5,3.8-8,10-8
		c3,0,5.2,0.6,6.7,1.3l-1.3,4.8c-1.1-0.5-2.9-1.3-5.5-1.3s-3.8,1.2-3.8,2.5c0,1.7,1.5,2.4,4.9,3.7c4.7,1.7,6.9,4.2,6.9,7.9
		c0,4.4-3.4,8.2-10.7,8.2c-3,0-6-0.8-7.5-1.6L490.5,300z"/>
	<path d="M517.5,279.8v10.1h9.8v-10.1h6v26.4h-6v-11h-9.8v11h-6v-26.4H517.5z"/>
	<path d="M544.5,279.8v26.4h-6v-26.4H544.5z"/>
	<path d="M549.7,280.1c1.9-0.3,4.8-0.5,8-0.5c3.9,0,6.7,0.6,8.5,2.1c1.6,1.3,2.4,3.1,2.4,5.5c0,3.4-2.4,5.7-4.7,6.5v0.1
		c1.8,0.7,2.9,2.5,3.5,4.9c0.8,3,1.6,6.4,2.2,7.4h-6.1c-0.4-0.8-1.1-2.9-1.8-6.1c-0.7-3.3-1.8-4.2-4.3-4.2h-1.8v10.4h-5.9
		L549.7,280.1L549.7,280.1z M555.6,291.5h2.3c3,0,4.7-1.5,4.7-3.8c0-2.4-1.6-3.6-4.4-3.7c-1.4,0-2.3,0.1-2.7,0.2v7.3H555.6z"/>
	<path d="M578,284.8h-7.1v-5h20.3v5H584v21.4h-6V284.8z"/>
</g>
<g>
	<path class="st1" d="M211.1,280.1c1.9-0.3,4.8-0.5,8-0.5c3.9,0,6.7,0.6,8.5,2.1c1.6,1.3,2.4,3.1,2.4,5.5c0,3.4-2.4,5.7-4.7,6.5v0.1
		c1.8,0.7,2.9,2.5,3.5,4.9c0.8,3,1.6,6.4,2.2,7.4h-6.1c-0.4-0.8-1.1-2.9-1.8-6.1c-0.7-3.3-1.8-4.2-4.3-4.2H217v10.4h-5.9
		L211.1,280.1L211.1,280.1z M217,291.5h2.4c3,0,4.7-1.5,4.7-3.8c0-2.4-1.6-3.6-4.4-3.7c-1.4,0-2.3,0.1-2.7,0.2V291.5z"/>
	<path class="st1" d="M258.4,292.7c0,8.7-5.2,13.9-13,13.9s-12.4-5.9-12.4-13.4c0-7.9,5.1-13.8,12.8-13.8
		C253.9,279.3,258.4,285.4,258.4,292.7z M239.3,293c0,5.2,2.4,8.8,6.4,8.8s6.3-3.8,6.3-9c0-4.7-2.3-8.8-6.4-8.8
		C241.6,284.1,239.3,287.9,239.3,293z"/>
	<path class="st1" d="M268.2,279.8V295c0,4.5,1.7,6.9,4.8,6.9s4.9-2.2,4.9-6.9v-15.2h6v14.8c0,8.1-4.1,12-11,12
		c-6.7,0-10.6-3.7-10.6-12.1v-14.7L268.2,279.8L268.2,279.8z"/>
	<path class="st1" d="M289,306.2v-26.4h7l5.5,9.7c1.6,2.8,3.1,6.1,4.3,9h0.1c-0.4-3.5-0.5-7.1-0.5-11v-7.7h5.5v26.4h-6.3L299,296
		c-1.6-2.8-3.3-6.2-4.6-9.3h-0.1c0.2,3.5,0.2,7.2,0.2,11.5v8H289z"/>
	<path class="st1" d="M316,280.1c2.2-0.4,5.1-0.5,8.1-0.5c5,0,8.3,0.9,10.8,2.8c2.7,2,4.5,5.3,4.5,9.9c0,5.1-1.8,8.5-4.4,10.7
		c-2.8,2.3-7,3.4-12.2,3.4c-3.1,0-5.3-0.2-6.8-0.4V280.1z M322,301.7c0.5,0.1,1.3,0.1,2.1,0.1c5.4,0,8.9-2.9,8.9-9.2
		c0-5.5-3.2-8.4-8.3-8.4c-1.3,0-2.2,0.1-2.7,0.2V301.7z"/>
	<path class="st1" d="M351.2,306.2v-26.4h7l5.5,9.7c1.6,2.8,3.1,6.1,4.3,9h0.1c-0.4-3.5-0.5-7.1-0.5-11v-7.7h5.5v26.4h-6.3
		l-5.6-10.2c-1.6-2.8-3.3-6.2-4.6-9.3h-0.1c0.2,3.5,0.2,7.2,0.2,11.5v8H351.2z"/>
	<path class="st1" d="M393.9,295h-9.7v6.3H395v4.9h-16.8v-26.4h16.3v4.9h-10.3v5.5h9.7V295z"/>
	<path class="st1" d="M418.5,305.4c-1.1,0.5-3.6,1.2-6.8,1.2c-9.1,0-13.8-5.7-13.8-13.2c0-9,6.4-14,14.4-14c3.1,0,5.4,0.6,6.5,1.2
		l-1.2,4.7c-1.2-0.5-2.9-1-5-1c-4.7,0-8.4,2.9-8.4,8.7c0,5.3,3.1,8.6,8.5,8.6c1.8,0,3.8-0.4,5-0.9L418.5,305.4z"/>
	<path class="st1" d="M422.5,279.8h5.9v11.7h0.1c0.6-1,1.2-2,1.8-2.9l6-8.8h7.3l-8.7,11.2l9.2,15.2h-7l-6.5-11.4l-2.3,2.8v8.6h-5.9
		v-26.4H422.5z"/>
	<path class="st1" d="M458,284.8h-7.1v-5h20.3v5H464v21.4h-6L458,284.8L458,284.8z"/>
	<path class="st1" d="M480.9,293.9v4h-10.3v-4H480.9z"/>
	<path class="st1" d="M484.8,300c1.6,0.8,4.1,1.6,6.6,1.6c2.7,0,4.2-1.1,4.2-2.9c0-1.6-1.3-2.6-4.4-3.7c-4.4-1.5-7.2-4-7.2-7.8
		c0-4.5,3.8-8,10-8c3,0,5.2,0.6,6.7,1.3l-1.3,4.8c-1.1-0.5-2.9-1.3-5.5-1.3s-3.8,1.2-3.8,2.5c0,1.7,1.5,2.4,4.9,3.7
		c4.7,1.7,6.9,4.2,6.9,7.9c0,4.4-3.4,8.2-10.7,8.2c-3,0-6-0.8-7.5-1.6L484.8,300z"/>
	<path class="st1" d="M511.8,279.8v10.1h9.8v-10.1h6v26.4h-6v-11h-9.8v11h-6v-26.4H511.8z"/>
	<path class="st1" d="M538.8,279.8v26.4h-6v-26.4H538.8z"/>
	<path class="st1" d="M544,280.1c1.9-0.3,4.8-0.5,8-0.5c3.9,0,6.7,0.6,8.5,2.1c1.6,1.3,2.4,3.1,2.4,5.5c0,3.4-2.4,5.7-4.7,6.5v0.1
		c1.8,0.7,2.9,2.5,3.5,4.9c0.8,3,1.6,6.4,2.2,7.4h-6.1c-0.4-0.8-1.1-2.9-1.8-6.1c-0.7-3.3-1.8-4.2-4.3-4.2h-1.8v10.4H544L544,280.1
		L544,280.1z M549.9,291.5h2.3c3,0,4.7-1.5,4.7-3.8c0-2.4-1.6-3.6-4.4-3.7c-1.4,0-2.3,0.1-2.7,0.2v7.3H549.9z"/>
	<path class="st1" d="M572.3,284.8h-7.1v-5h20.3v5h-7.2v21.4h-6V284.8z"/>
</g>
</svg>
