<?xml version="1.0" encoding="utf-8"?>
<!-- Generator: Adobe Illustrator 19.0.0, SVG Export Plug-In . SVG Version: 6.00 Build 0)  -->
<svg version="1.1" id="Layer_1" xmlns="http://www.w3.org/2000/svg" xmlns:xlink="http://www.w3.org/1999/xlink" x="0px" y="0px"
	 viewBox="636 -184 512 512" style="enable-background:new 636 -184 512 512;" xml:space="preserve">
<style type="text/css">
	.st0{fill-rule:evenodd;clip-rule:evenodd;fill:#BD2F32;}
	.st1{fill:#FFFFFF;}
</style>
<g id="XMLID_29_">
	<rect id="XMLID_28_" x="636" y="-184" class="st0" width="512" height="512"/>
	<g id="XMLID_30_">
		<rect id="XMLID_31_" x="708.3" y="255.2" class="st1" width="367.3" height="2.1"/>
	</g>
</g>
<g>
	<g transform="translate(0.000000,511.000000) scale(0.100000,-0.100000)">
		<path class="st1" d="M7697.1,6246.6c-326.3-95.3-594.4-174.9-595.1-175.6c-2.1-2.2,222.5-722.4,226.8-725.9
			c2.1-2.1,134.4,33.4,294.3,78.2c160,44.8,291.5,81.8,292.2,81.8c1.4,0,2.1-467.8,2.1-1040.1c0-799.8-2.1-1042.3-8.5-1048.7
			c-6.4-6.4,219-8.5,1016.7-8.5h1025.2v1048.6c0,576.6,1.4,1048.7,3.6,1048.7c2.2,0,130.1-37,285.8-81.8
			c155-44.8,283.7-79.6,285.8-77.5c5,4.3,214,723.1,211.9,725.2c-0.7,1.4-270.9,80.3-600.1,176.3L9540,6422.2h-120.9h-120.9
			l-12.8-37c-19.2-60.4-42-100.2-81.8-143.6c-66.1-72.5-141.5-103.8-251-103.8c-118.7,0-201.9,34.1-277.3,113.8
			c-41.2,44.1-96.7,135.8-96.7,160.7c0,7.8-27,9.9-143.6,9.2l-144.3-0.7L7697.1,6246.6z"/>
	</g>
</g>
<g>
	<path d="M724.9,273c2.8-0.4,6.8-0.8,11.4-0.8c5.6,0,9.5,0.9,12.3,3c2.3,1.8,3.5,4.4,3.5,7.9c0,4.8-3.4,8.1-6.7,9.4v0.2
		c2.6,1,4.1,3.6,5,7.1c1.2,4.2,2.3,9.2,3.1,10.7h-8.7c-0.6-1.1-1.5-4.2-2.6-8.8c-1-4.7-2.6-6-6.1-6.1h-2.6v14.9h-8.5V273z
		 M733.4,289.3h3.4c4.2,0,6.8-2.2,6.8-5.5c0-3.5-2.3-5.2-6.3-5.3c-2.1,0-3.3,0.2-3.9,0.3V289.3z"/>
	<path d="M792.7,291c0,12.4-7.5,19.9-18.6,19.9c-11.3,0-17.8-8.5-17.8-19.3c0-11.3,7.3-19.8,18.4-19.8
		C786.3,271.9,792.7,280.6,792.7,291z M765.3,291.5c0,7.4,3.5,12.6,9.2,12.6c5.8,0,9.1-5.5,9.1-12.9c0-6.8-3.3-12.6-9.2-12.6
		C768.7,278.7,765.3,284.1,765.3,291.5z"/>
	<path d="M806.8,272.5v21.8c0,6.5,2.5,9.9,6.8,9.9c4.5,0,7-3.1,7-9.9v-21.8h8.6v21.2c0,11.7-5.9,17.2-15.8,17.2
		c-9.5,0-15.1-5.3-15.1-17.4v-21.1H806.8z"/>
	<path d="M836.6,310.4v-37.9h10l7.9,13.9c2.3,4,4.5,8.7,6.2,13h0.2c-0.6-5-0.7-10.1-0.7-15.8v-11h7.9v37.9h-9l-8.1-14.7
		c-2.3-4.1-4.7-8.9-6.6-13.4l-0.2,0.1c0.2,5,0.3,10.3,0.3,16.5v11.4L836.6,310.4L836.6,310.4z"/>
	<path d="M875.4,273c3.1-0.5,7.3-0.8,11.6-0.8c7.2,0,11.9,1.3,15.5,4.1c3.9,2.9,6.4,7.6,6.4,14.3c0,7.3-2.6,12.3-6.3,15.3
		c-4,3.3-10,4.9-17.5,4.9c-4.4,0-7.6-0.3-9.7-0.6V273z M884,303.9c0.7,0.2,1.9,0.2,3,0.2c7.8,0.1,12.8-4.2,12.8-13.2
		c0.1-7.9-4.6-12-11.9-12c-1.9,0-3.1,0.2-3.9,0.3V303.9z"/>
	<path d="M925.8,310.4v-37.9h10l7.9,13.9c2.3,4,4.5,8.7,6.2,13h0.2c-0.6-5-0.7-10.1-0.7-15.8v-11h7.9v37.9h-9l-8.1-14.6
		c-2.3-4.1-4.7-8.9-6.6-13.4l-0.2,0.1c0.2,5,0.3,10.3,0.3,16.5v11.4L925.8,310.4L925.8,310.4z"/>
	<path d="M987.1,294.4h-13.9v9h15.6v7h-24.1v-37.9H988v7h-14.8v7.9h13.9L987.1,294.4L987.1,294.4z"/>
	<path d="M1022.4,309.3c-1.6,0.8-5.1,1.7-9.7,1.7c-13.1,0-19.8-8.2-19.8-19c0-12.9,9.2-20.1,20.7-20.1c4.4,0,7.8,0.9,9.4,1.7
		l-1.7,6.8c-1.7-0.7-4.2-1.4-7.2-1.4c-6.8,0-12.1,4.1-12.1,12.6c0,7.6,4.5,12.4,12.1,12.4c2.6,0,5.5-0.6,7.1-1.2L1022.4,309.3z"/>
	<path d="M1028.1,272.5h8.5v16.7h0.2c0.9-1.5,1.7-2.8,2.6-4.2l8.6-12.6h10.5l-12.6,16.1l13.2,21.7h-10l-9.3-16.4l-3.3,4v12.4h-8.5
		V272.5z"/>
</g>
<g>
	<path class="st1" d="M719.2,273c2.8-0.4,6.8-0.8,11.4-0.8c5.6,0,9.5,0.9,12.3,3c2.3,1.8,3.5,4.4,3.5,7.9c0,4.8-3.4,8.1-6.7,9.4v0.2
		c2.6,1,4.1,3.6,5,7.1c1.2,4.2,2.3,9.2,3.1,10.7h-8.7c-0.6-1.1-1.5-4.2-2.6-8.8c-1-4.7-2.6-6-6.1-6.1h-2.6v14.9h-8.5V273z
		 M727.7,289.3h3.4c4.2,0,6.8-2.2,6.8-5.5c0-3.5-2.3-5.2-6.3-5.3c-2.1,0-3.3,0.2-3.9,0.3V289.3z"/>
	<path class="st1" d="M787,291c0,12.4-7.5,19.9-18.6,19.9c-11.3,0-17.8-8.5-17.8-19.3c0-11.3,7.3-19.8,18.4-19.8
		C780.6,271.9,787,280.6,787,291z M759.6,291.5c0,7.4,3.5,12.6,9.2,12.6c5.8,0,9.1-5.5,9.1-12.9c0-6.8-3.3-12.6-9.2-12.6
		C763,278.7,759.6,284.1,759.6,291.5z"/>
	<path class="st1" d="M801.1,272.5v21.8c0,6.5,2.5,9.9,6.8,9.9c4.5,0,7-3.1,7-9.9v-21.8h8.6v21.2c0,11.7-5.9,17.2-15.8,17.2
		c-9.5,0-15.1-5.3-15.1-17.4v-21.1H801.1z"/>
	<path class="st1" d="M830.9,310.4v-37.9h10l7.9,13.9c2.3,4,4.5,8.7,6.2,13h0.2c-0.6-5-0.7-10.1-0.7-15.8v-11h7.9v37.9h-9l-8.1-14.7
		c-2.3-4.1-4.7-8.9-6.6-13.4l-0.2,0.1c0.2,5,0.3,10.3,0.3,16.5v11.4L830.9,310.4L830.9,310.4z"/>
	<path class="st1" d="M869.7,273c3.1-0.5,7.3-0.8,11.6-0.8c7.2,0,11.9,1.3,15.5,4.1c3.9,2.9,6.4,7.6,6.4,14.3
		c0,7.3-2.6,12.3-6.3,15.3c-4,3.3-10,4.9-17.5,4.9c-4.4,0-7.6-0.3-9.7-0.6V273z M878.3,303.9c0.7,0.2,1.9,0.2,3,0.2
		c7.8,0.1,12.8-4.2,12.8-13.2c0.1-7.9-4.6-12-11.9-12c-1.9,0-3.1,0.2-3.9,0.3V303.9z"/>
	<path class="st1" d="M920.1,310.4v-37.9h10l7.9,13.9c2.3,4,4.5,8.7,6.2,13h0.2c-0.6-5-0.7-10.1-0.7-15.8v-11h7.9v37.9h-9l-8.1-14.6
		c-2.3-4.1-4.7-8.9-6.6-13.4l-0.2,0.1c0.2,5,0.3,10.3,0.3,16.5v11.4L920.1,310.4L920.1,310.4z"/>
	<path class="st1" d="M981.5,294.4h-13.9v9h15.6v7H959v-37.9h23.4v7h-14.8v7.9h13.9L981.5,294.4L981.5,294.4z"/>
	<path class="st1" d="M1016.7,309.3c-1.6,0.8-5.1,1.7-9.7,1.7c-13.1,0-19.8-8.2-19.8-19c0-12.9,9.2-20.1,20.7-20.1
		c4.4,0,7.8,0.9,9.4,1.7l-1.7,6.8c-1.7-0.7-4.2-1.4-7.2-1.4c-6.8,0-12.1,4.1-12.1,12.6c0,7.6,4.5,12.4,12.1,12.4
		c2.6,0,5.5-0.6,7.1-1.2L1016.7,309.3z"/>
	<path class="st1" d="M1022.4,272.5h8.5v16.7h0.2c0.9-1.5,1.7-2.8,2.6-4.2l8.6-12.6h10.5l-12.6,16.1l13.2,21.7h-10l-9.3-16.4l-3.3,4
		v12.4h-8.5V272.5z"/>
</g>
</svg>
