<?xml version="1.0" encoding="utf-8"?>
<!-- Generator: Adobe Illustrator 19.0.0, SVG Export Plug-In . SVG Version: 6.00 Build 0)  -->
<svg version="1.1" id="Layer_1" xmlns="http://www.w3.org/2000/svg" xmlns:xlink="http://www.w3.org/1999/xlink" x="0px" y="0px"
	 viewBox="356 -284 1000 1000" style="enable-background:new 356 -284 1000 1000;" xml:space="preserve">
<style type="text/css">
	.st0{fill:none;}
</style>
<g>
	<path class="st0" d="M983.2-200.4c-3.2-1-236.9-1-237.7,0c-1.5,1.3,2.8,22.3,6.7,32.2c11.8,31.7,38.2,55.7,73,66.7
		c16.5,5.4,50,6.5,69.2,2.7c50-10.2,84.7-45.4,90.9-92.2C986.2-198.3,985.9-199.7,983.2-200.4z"/>
	<path d="M769.5,141c-4.2,0-6.6,0.3-7.8,0.6v21.1h6.8c8.6,0,13.8-4.3,13.8-11C782.3,144.7,777.5,141.1,769.5,141z"/>
	<path d="M1251.4-109.5c-1.5-1.9-57.5-31.3-124.5-65.7l-121.6-62.1l-140.9-0.3c-113.8-0.3-142,0-146.7,1.8
		c-15.3,5.9-254.5,123.4-257.1,126.2c-6.7,7.8-6.2,10.3,20.4,85.7c13.7,39.3,26,73.5,27,75.5c4.3,8.3,7.2,8.6,66.2,8.6h55.2
		l0.3,199.9c0.5,197.2,0.5,199.9,3.8,203.6c7.7,8.7-1,8.3,219.5,8.1c154.7,0,206.9-0.5,211.2-2c3.2-1.1,7.2-4,9-6.5
		c3.2-4.3,3.3-8,3.5-203.4l0.2-198.8l59.2-0.8c62-0.8,64.2-1.1,68-8.6c1-2.2,13.4-36.2,27-75.5
		C1257.4-99.2,1258.1-101.9,1251.4-109.5z M720.5,196.2c-8.1,6.7-20.4,9.9-35.3,9.9c-9,0-15.3-0.6-19.6-1.1v-75.2
		c6.4-1.1,14.7-1.6,23.4-1.6c14.6,0,23.9,2.6,31.3,8.1c8,5.9,12.9,15.3,12.9,28.8C733.2,179.9,727.9,190,720.5,196.2z M784.7,205.3
		c-1.2-2.3-3.1-8.4-5.4-17.8c-2-9.5-5.4-12.1-12.4-12.3h-5.2v30.1h-17.2v-75.6c5.5-0.9,13.8-1.6,23-1.6c11.3,0,19.3,1.7,24.8,6
		c4.6,3.7,7,9,7,16c0,9.8-6.9,16.4-13.5,18.9v0.3c5.4,2.2,8.3,7.2,10.3,14.3c2.4,8.6,4.8,18.6,6.3,21.6H784.7z M844.8,173.4v31.9
		h-17.3V174l-24.2-45.2h19.8l7.8,18.4c2.4,5.5,4,9.7,5.9,14.7h0.2c1.7-4.8,3.5-9.2,5.8-14.7l7.7-18.4h19.5L844.8,173.4z M948,143
		h-29.4v17.5h27.5v14.1h-27.5v30.8h-17.3v-76.5H948V143z M978.5,205.3h-17.4v-76.5h17.3L978.5,205.3L978.5,205.3z M985.2-191
		c-6.2,46.8-40.9,82-90.9,92.2c-19.1,3.8-52.7,2.7-69.2-2.7c-34.8-11-61.1-35-73-66.7c-3.8-9.9-8.1-30.9-6.7-32.2
		c0.8-1,234.6-1,237.7,0C985.9-199.7,986.2-198.3,985.2-191z M1046.5,143.3h-20.9v62h-17.3v-62h-20.5v-14.6h58.9L1046.5,143.3
		L1046.5,143.3z"/>
	<path d="M690.7,141.5c-3.8,0-6.4,0.3-7.8,0.7v50.1c1.5,0.3,3.8,0.3,6,0.3c15.7,0.1,25.9-8.5,25.9-26.8
		C714.9,149.9,705.6,141.5,690.7,141.5z"/>
</g>
<g>
	<path d="M582.2,586.9c3-0.5,7.4-0.9,12.3-0.9c6.1,0,10.3,0.9,13.2,3.2c2.4,1.9,3.8,4.8,3.8,8.6c0,5.2-3.7,8.8-7.2,10.1v0.2
		c2.9,1.2,4.4,3.9,5.5,7.7c1.3,4.6,2.6,10,3.3,11.5h-9.5c-0.7-1.2-1.6-4.5-2.9-9.5c-1.1-5.1-2.9-6.5-6.6-6.6h-2.8v16.1h-9.2V586.9z
		 M591.4,604.5h3.6c4.6,0,7.4-2.3,7.4-5.9c0-3.8-2.6-5.6-6.8-5.7c-2.2,0-3.5,0.2-4.2,0.3V604.5z"/>
	<path d="M655.5,606.4c0,13.4-8.1,21.6-20.1,21.6c-12.1,0-19.3-9.2-19.3-20.8c0-12.3,7.8-21.4,19.9-21.4
		C648.6,585.7,655.5,595.1,655.5,606.4z M625.9,607c0,8,3.8,13.7,10,13.7c6.3,0,9.8-6,9.8-13.9c0-7.3-3.5-13.7-9.9-13.7
		C629.6,593,625.9,599,625.9,607z"/>
	<path d="M670.8,586.4v23.6c0,7,2.7,10.6,7.4,10.6c4.9,0,7.5-3.4,7.5-10.6v-23.6h9.2v23c0,12.6-6.4,18.6-17.1,18.6
		c-10.3,0-16.4-5.7-16.4-18.8v-22.8H670.8z"/>
	<path d="M703,627.3v-40.9h10.8l8.5,15c2.4,4.3,4.9,9.4,6.7,14h0.2c-0.6-5.4-0.8-10.9-0.8-17.1v-11.9h8.5v40.9h-9.7l-8.7-15.8
		c-2.4-4.4-5.1-9.7-7.1-14.5l-0.2,0.1c0.2,5.4,0.4,11.2,0.4,17.9v12.3H703z"/>
	<path d="M744.9,586.9c3.4-0.5,7.8-0.9,12.5-0.9c7.8,0,12.8,1.4,16.8,4.4c4.3,3.2,6.9,8.2,6.9,15.4c0,7.8-2.9,13.2-6.8,16.6
		c-4.3,3.6-10.9,5.3-18.9,5.3c-4.8,0-8.2-0.3-10.5-0.6V586.9z M754.2,620.3c0.8,0.2,2.1,0.2,3.2,0.2c8.4,0.1,13.8-4.6,13.8-14.3
		c0.1-8.5-4.9-13-12.9-13c-2.1,0-3.4,0.2-4.2,0.4V620.3z"/>
	<path d="M799.5,627.3v-40.9h10.8l8.5,15c2.4,4.3,4.9,9.4,6.7,14h0.2c-0.6-5.4-0.8-10.9-0.8-17.1v-11.9h8.5v40.9h-9.7l-8.7-15.8
		c-2.4-4.4-5.1-9.7-7.1-14.5l-0.2,0.1c0.2,5.4,0.4,11.2,0.4,17.9v12.3H799.5z"/>
	<path d="M865.7,610h-15.1v9.7h16.8v7.6h-26.1v-40.9h25.3v7.6h-16v8.5h15.1V610z"/>
	<path d="M903.9,626.2c-1.7,0.9-5.5,1.8-10.5,1.8c-14.2,0-21.4-8.9-21.4-20.5c0-14,10-21.7,22.4-21.7c4.8,0,8.4,1,10.1,1.8l-1.9,7.4
		c-1.9-0.8-4.5-1.5-7.8-1.5c-7.4,0-13.1,4.4-13.1,13.5c0,8.2,4.9,13.4,13.1,13.4c2.8,0,5.9-0.6,7.7-1.3L903.9,626.2z"/>
	<path d="M910,586.4h9.2v18.1h0.2c0.9-1.6,1.9-3,2.8-4.5l9.3-13.6h11.4l-13.5,17.4l14.3,23.5h-10.8l-10-17.7l-3.5,4.3v13.4H910
		V586.4z"/>
	<path d="M959.5,586.9c3.4-0.5,7.8-0.9,12.5-0.9c7.8,0,12.8,1.4,16.8,4.4c4.3,3.2,6.9,8.2,6.9,15.4c0,7.8-2.9,13.2-6.8,16.6
		c-4.3,3.6-10.9,5.3-18.9,5.3c-4.8,0-8.2-0.3-10.5-0.6V586.9z M968.8,620.3c0.8,0.2,2.1,0.2,3.2,0.2c8.4,0.1,13.9-4.6,13.9-14.3
		c0.1-8.5-4.9-13-12.9-13c-2.1,0-3.4,0.2-4.2,0.4V620.3z"/>
	<path d="M1001.8,586.9c3-0.5,7.4-0.9,12.3-0.9c6.1,0,10.3,0.9,13.2,3.2c2.4,1.9,3.8,4.8,3.8,8.6c0,5.2-3.7,8.8-7.2,10.1v0.2
		c2.9,1.2,4.4,3.9,5.5,7.7c1.3,4.6,2.6,10,3.3,11.5h-9.5c-0.7-1.2-1.6-4.5-2.9-9.5c-1.1-5.1-2.9-6.5-6.6-6.6h-2.8v16.1h-9.2V586.9z
		 M1011,604.5h3.6c4.6,0,7.4-2.3,7.4-5.9c0-3.8-2.6-5.6-6.8-5.7c-2.2,0-3.5,0.2-4.2,0.3V604.5z"/>
	<path d="M1047.1,586.4v40.9h-9.3v-40.9H1047.1z"/>
	<path d="M1055.2,586.4h25v7.6h-15.7v9.4h14.7v7.5h-14.7v16.5h-9.3V586.4z"/>
	<path d="M1096.5,586.4v40.9h-9.3v-40.9H1096.5z"/>
	<path d="M1112.4,594.1h-11v-7.8h31.5v7.8h-11.2v33.2h-9.3V594.1z"/>
</g>
</svg>
