<?xml version="1.0" encoding="utf-8"?>
<!-- Generator: Adobe Illustrator 19.0.0, SVG Export Plug-In . SVG Version: 6.00 Build 0)  -->
<svg version="1.1" id="Layer_1" xmlns="http://www.w3.org/2000/svg" xmlns:xlink="http://www.w3.org/1999/xlink" x="0px" y="0px"
	 viewBox="194 -104 1000 1000" style="enable-background:new 194 -104 1000 1000;" xml:space="preserve">
<style type="text/css">
	.st0{fill:none;}
</style>
<g>
	<path class="st0" d="M850.2,6.2C846.3,5,559.3,5,558.3,6.2c-1.8,1.6,3.5,27.4,8.2,39.5c14.5,38.9,46.9,68.4,89.7,81.9
		c20.3,6.6,61.4,8,85,3.3c61.4-12.5,104-55.7,111.6-113.2C853.9,8.7,853.5,7,850.2,6.2z"/>
	<path d="M587.8,425.5c-5.2,0-8.1,0.4-9.6,0.7v25.9h8.4c10.6,0,16.9-5.3,16.9-13.5C603.5,430,597.6,425.6,587.8,425.5z"/>
	<path d="M1179.6,117.8c-1.8-2.3-70.6-38.5-152.9-80.7L877.3-39.2l-173-0.4c-139.8-0.4-174.4,0-180.2,2.2
		c-18.8,7.2-312.6,151.5-315.7,155c-8.2,9.6-7.6,12.7,25,105.2c16.8,48.3,31.9,90.3,33.2,92.7c5.3,10.2,8.8,10.6,81.3,10.6h67.8
		l0.4,245.5c0.6,242.2,0.6,245.5,4.7,250c9.4,10.7-1.2,10.2,269.6,10c190,0,254.1-0.6,259.4-2.5c3.9-1.4,8.8-4.9,11.1-8
		c3.9-5.3,4.1-9.8,4.3-249.8l0.2-244.2l72.7-1c76.2-1,78.8-1.4,83.5-10.6c1.2-2.7,16.4-44.4,33.2-92.7
		C1187,130.5,1187.8,127.2,1179.6,117.8z M527.6,493.3c-9.9,8.2-25,12.1-43.4,12.1c-11,0-18.8-0.7-24.1-1.4v-92.3
		c7.8-1.3,18-2,28.7-2c17.9,0,29.4,3.2,38.5,10c9.8,7.3,15.9,18.8,15.9,35.4C543.2,473.2,536.6,485.6,527.6,493.3z M606.4,504.4
		c-1.5-2.8-3.8-10.3-6.6-21.9c-2.5-11.7-6.6-14.9-15.2-15.1h-6.4v37h-21.1v-92.8c6.8-1.1,17-2,28.3-2c13.9,0,23.7,2.1,30.4,7.4
		c5.6,4.5,8.6,11,8.6,19.7c0,12-8.5,20.2-16.6,23.2v0.4c6.6,2.7,10.2,8.9,12.6,17.6c2.9,10.6,5.9,22.9,7.7,26.5H606.4z M680.2,465.3
		v39.2H659V466l-29.7-55.5h24.3l9.6,22.6c2.9,6.8,4.9,11.9,7.3,18h0.3c2.1-5.9,4.3-11.3,7.1-18l9.5-22.6h23.9L680.2,465.3z
		 M807,427.9h-36.1v21.5h33.8v17.3h-33.8v37.8h-21.3v-94H807V427.9z M844.4,504.4H823v-94h21.3v94H844.4z M852.7,17.7
		c-7.6,57.5-50.2,100.7-111.6,113.2c-23.5,4.7-64.7,3.3-85-3.3c-42.8-13.5-75.1-43-89.7-81.9c-4.7-12.1-10-37.9-8.2-39.5
		c1-1.2,288.1-1.2,291.9,0C853.5,7,853.9,8.7,852.7,17.7z M927.9,428.3h-25.7v76.2h-21.3v-76.2h-25.2v-17.9H928L927.9,428.3
		L927.9,428.3z"/>
	<path d="M491,426.1c-4.7,0-7.8,0.4-9.6,0.8v61.5c1.8,0.4,4.7,0.4,7.4,0.4c19.3,0.1,31.8-10.5,31.8-32.9
		C520.7,436.4,509.3,426.1,491,426.1z"/>
</g>
</svg>
