<?xml version="1.0" encoding="utf-8"?>
<!-- Generator: Adobe Illustrator 19.0.0, SVG Export Plug-In . SVG Version: 6.00 Build 0)  -->
<svg version="1.1" id="Layer_1" xmlns="http://www.w3.org/2000/svg" xmlns:xlink="http://www.w3.org/1999/xlink" x="0px" y="0px"
	 viewBox="636 -184 512 512" style="enable-background:new 636 -184 512 512;" xml:space="preserve">
<style type="text/css">
	.st0{fill-rule:evenodd;clip-rule:evenodd;fill:#BD2F32;}
	.st1{fill:#FFFFFF;}
</style>
<g id="XMLID_29_">
	<rect id="XMLID_28_" x="636" y="-184" class="st0" width="512" height="512"/>
	<g id="XMLID_30_">
		<rect id="XMLID_31_" x="708.3" y="255.2" class="st1" width="367.3" height="2.1"/>
	</g>
</g>
<path class="st1" d="M850.5,45.5c-2,0-3.2,0.1-3.7,0.3v10.1h3.3c4.1,0,6.6-2.1,6.6-5.3C856.6,47.3,854.3,45.5,850.5,45.5z"/>
<path class="st1" d="M1081.9-74.8c-0.7-0.9-27.6-15-59.8-31.6l-58.4-29.8l-67.7-0.1c-54.7-0.1-68.2,0-70.5,0.9
	c-7.3,2.8-122.2,59.3-123.5,60.6c-3.2,3.7-3,4.9,9.8,41.2c6.6,18.9,12.5,35.3,13,36.3c2.1,4,3.5,4.1,31.8,4.1h26.5l0.1,96
	c0.2,94.7,0.2,96,1.8,97.8c3.7,4.2-0.5,4,105.4,3.9c74.3,0,99.4-0.2,101.4-1c1.5-0.5,3.5-1.9,4.3-3.1c1.5-2.1,1.6-3.8,1.7-97.7
	l0.1-95.5l28.4-0.4c29.8-0.4,30.8-0.5,32.7-4.1c0.5-1.1,6.4-17.4,13-36.3C1084.8-69.9,1085.1-71.2,1081.9-74.8z M826.9,72
	c-3.9,3.2-9.8,4.8-17,4.8c-4.3,0-7.3-0.3-9.4-0.5V40.1c3.1-0.5,7.1-0.8,11.2-0.8c7,0,11.5,1.2,15,3.9c3.8,2.8,6.2,7.3,6.2,13.8
	C833,64.2,830.5,69,826.9,72z M857.8,76.4c-0.6-1.1-1.5-4-2.6-8.5c-1-4.6-2.6-5.8-6-5.9h-2.5v14.5h-8.3V40.1c2.6-0.4,6.6-0.8,11-0.8
	c5.4,0,9.3,0.8,11.9,2.9c2.2,1.8,3.4,4.3,3.4,7.7c0,4.7-3.3,7.9-6.5,9.1v0.1c2.6,1.1,4,3.5,4.9,6.9c1.2,4.1,2.3,8.9,3,10.4
	L857.8,76.4L857.8,76.4z M886.6,61v15.3h-8.3v-15l-11.6-21.7h9.5l3.7,8.8c1.2,2.6,1.9,4.7,2.8,7.1h0.1c0.8-2.3,1.7-4.4,2.8-7.1
	l3.7-8.8h9.4L886.6,61z M936.2,46.4h-14.1v8.4h13.2v6.8h-13.2v14.8h-8.3V39.7h22.4V46.4z M950.8,76.4h-8.4V39.6h8.3L950.8,76.4
	L950.8,76.4z M954.1-114c-3,22.5-19.6,39.4-43.7,44.3c-9.2,1.8-25.3,1.3-33.2-1.3c-16.7-5.3-29.3-16.8-35.1-32
	c-1.8-4.8-3.9-14.8-3.2-15.5c0.4-0.5,112.7-0.5,114.2,0C954.4-118.1,954.5-117.5,954.1-114z M983.5,46.6h-10v29.8h-8.3V46.6h-9.8v-7
	h28.3L983.5,46.6L983.5,46.6z"/>
<path class="st1" d="M812.6,45.7c-1.8,0-3.1,0.1-3.7,0.3v24.1c0.7,0.1,1.8,0.1,2.9,0.1c7.5,0,12.4-4.1,12.4-12.9
	C824.2,49.8,819.8,45.7,812.6,45.7z"/>
<g>
	<g>
		<path d="M667.2,274.2c2.5-0.4,6.1-0.7,10.2-0.7c5,0,8.5,0.7,10.9,2.6c2,1.6,3.1,4,3.1,7.1c0,4.3-3.1,7.3-6,8.4v0.2
			c2.4,1,3.6,3.2,4.5,6.4c1.1,3.8,2.2,8.3,2.7,9.5h-7.9c-0.6-1-1.3-3.7-2.4-7.9c-0.9-4.2-2.4-5.4-5.5-5.5h-2.3v13.3h-7.6
			L667.2,274.2L667.2,274.2z M674.8,288.7h3c3.8,0,6.1-1.9,6.1-4.9c0-3.1-2.2-4.6-5.6-4.7c-1.8,0-2.9,0.2-3.5,0.2V288.7z"/>
		<path d="M727.8,290.3c0,11.1-6.7,17.9-16.6,17.9c-10,0-16-7.6-16-17.2c0-10.2,6.5-17.7,16.5-17.7
			C722.1,273.2,727.8,281,727.8,290.3z M703.3,290.8c0,6.6,3.1,11.3,8.3,11.3c5.2,0,8.1-5,8.1-11.5c0-6-2.9-11.3-8.2-11.3
			C706.4,279.2,703.3,284.2,703.3,290.8z"/>
		<path d="M740.4,273.8v19.5c0,5.8,2.2,8.8,6.1,8.8c4.1,0,6.2-2.8,6.2-8.8v-19.5h7.6v19c0,10.4-5.3,15.4-14.1,15.4
			c-8.5,0-13.6-4.7-13.6-15.5v-18.9H740.4z"/>
		<path d="M767.1,307.6v-33.8h8.9l7,12.4c2,3.6,4.1,7.8,5.5,11.6h0.2c-0.5-4.5-0.7-9-0.7-14.1v-9.8h7v33.8h-8l-7.2-13.1
			c-2-3.6-4.2-8-5.9-12l-0.2,0.1c0.2,4.5,0.3,9.3,0.3,14.8v10.2H767.1z"/>
		<path d="M801.7,274.2c2.8-0.4,6.5-0.7,10.3-0.7c6.5,0,10.6,1.2,13.9,3.6c3.6,2.6,5.7,6.8,5.7,12.7c0,6.5-2.4,10.9-5.6,13.7
			c-3.6,3-9,4.4-15.6,4.4c-4,0-6.8-0.2-8.7-0.5V274.2z M809.4,301.8c0.7,0.2,1.7,0.2,2.6,0.2c6.9,0.1,11.4-3.8,11.4-11.8
			c0.1-7-4.1-10.8-10.7-10.8c-1.7,0-2.8,0.2-3.5,0.3L809.4,301.8L809.4,301.8z"/>
		<path d="M846.9,307.6v-33.8h8.9l7,12.4c2,3.6,4.1,7.8,5.5,11.6h0.2c-0.5-4.5-0.7-9-0.7-14.1v-9.8h7v33.8h-8l-7.2-13.1
			c-2-3.6-4.2-8-5.9-12l-0.2,0.1c0.2,4.5,0.3,9.3,0.3,14.8v10.2H846.9z"/>
		<path d="M901.6,293.3h-12.5v8H903v6.3h-21.6v-33.8h20.9v6.3h-13.2v7h12.5V293.3z"/>
		<path d="M933.2,306.7c-1.4,0.7-4.5,1.5-8.7,1.5c-11.7,0-17.7-7.4-17.7-17c0-11.6,8.3-17.9,18.5-17.9c4,0,6.9,0.8,8.4,1.5l-1.6,6.1
			c-1.6-0.7-3.7-1.2-6.5-1.2c-6.1,0-10.8,3.6-10.8,11.2c0,6.8,4.1,11.1,10.8,11.1c2.3,0,4.9-0.5,6.4-1.1L933.2,306.7z"/>
		<path d="M938.3,273.8h7.6v15h0.2c0.7-1.3,1.6-2.5,2.3-3.7l7.7-11.2h9.4l-11.2,14.4l11.8,19.4h-8.9l-8.3-14.6l-2.9,3.6v11.1h-7.8
			V273.8z"/>
		<path d="M979.2,274.2c2.8-0.4,6.5-0.7,10.3-0.7c6.5,0,10.6,1.2,13.9,3.6c3.6,2.6,5.7,6.8,5.7,12.7c0,6.5-2.4,10.9-5.6,13.7
			c-3.6,3-9,4.4-15.6,4.4c-4,0-6.8-0.2-8.7-0.5V274.2z M986.9,301.8c0.7,0.2,1.7,0.2,2.6,0.2c6.9,0.1,11.5-3.8,11.5-11.8
			c0.1-7-4.1-10.8-10.7-10.8c-1.7,0-2.8,0.2-3.5,0.3V301.8z"/>
		<path d="M1014.2,274.2c2.5-0.4,6.1-0.7,10.2-0.7c5,0,8.5,0.7,10.9,2.6c2,1.6,3.1,4,3.1,7.1c0,4.3-3.1,7.3-6,8.4v0.2
			c2.4,1,3.6,3.2,4.5,6.4c1.1,3.8,2.2,8.3,2.7,9.5h-7.9c-0.6-1-1.3-3.7-2.4-7.9c-0.9-4.2-2.4-5.4-5.5-5.5h-2.3v13.3h-7.6
			L1014.2,274.2L1014.2,274.2z M1021.8,288.7h3c3.8,0,6.1-1.9,6.1-4.9c0-3.1-2.2-4.6-5.6-4.7c-1.8,0-2.9,0.2-3.5,0.2V288.7z"/>
		<path d="M1051.6,273.8v33.8h-7.7v-33.8H1051.6z"/>
		<path d="M1058.3,273.8h20.7v6.3h-13v7.8h12.2v6.2H1066v13.6h-7.7V273.8z"/>
		<path d="M1092.5,273.8v33.8h-7.7v-33.8H1092.5z"/>
		<path d="M1105.6,280.1h-9.1v-6.5h26.1v6.5h-9.3v27.5h-7.7V280.1z"/>
	</g>
	<g>
		<path class="st1" d="M661.5,274.2c2.5-0.4,6.1-0.7,10.2-0.7c5,0,8.5,0.7,10.9,2.6c2,1.6,3.1,4,3.1,7.1c0,4.3-3.1,7.3-6,8.4v0.2
			c2.4,1,3.6,3.2,4.5,6.4c1.1,3.8,2.2,8.3,2.7,9.5h-7.9c-0.6-1-1.3-3.7-2.4-7.9c-0.9-4.2-2.4-5.4-5.5-5.5H669v13.3h-7.6L661.5,274.2
			L661.5,274.2z M669.1,288.7h3c3.8,0,6.1-1.9,6.1-4.9c0-3.1-2.2-4.6-5.6-4.7c-1.8,0-2.9,0.2-3.5,0.2V288.7z"/>
		<path class="st1" d="M722.1,290.3c0,11.1-6.7,17.9-16.6,17.9c-10,0-16-7.6-16-17.2c0-10.2,6.5-17.7,16.5-17.7
			C716.4,273.2,722.1,281,722.1,290.3z M697.6,290.8c0,6.6,3.1,11.3,8.3,11.3c5.2,0,8.1-5,8.1-11.5c0-6-2.9-11.3-8.2-11.3
			C700.7,279.2,697.6,284.2,697.6,290.8z"/>
		<path class="st1" d="M734.8,273.8v19.5c0,5.8,2.2,8.8,6.1,8.8c4.1,0,6.2-2.8,6.2-8.8v-19.5h7.6v19c0,10.4-5.3,15.4-14.1,15.4
			c-8.5,0-13.6-4.7-13.6-15.5v-18.9H734.8z"/>
		<path class="st1" d="M761.4,307.6v-33.8h8.9l7,12.4c2,3.6,4.1,7.8,5.5,11.6h0.2c-0.5-4.5-0.7-9-0.7-14.1v-9.8h7v33.8h-8l-7.2-13.1
			c-2-3.6-4.2-8-5.9-12l-0.2,0.1c0.2,4.5,0.3,9.3,0.3,14.8v10.2H761.4z"/>
		<path class="st1" d="M796,274.2c2.8-0.4,6.5-0.7,10.3-0.7c6.5,0,10.6,1.2,13.9,3.6c3.6,2.6,5.7,6.8,5.7,12.7
			c0,6.5-2.4,10.9-5.6,13.7c-3.6,3-9,4.4-15.6,4.4c-4,0-6.8-0.2-8.7-0.5V274.2z M803.7,301.8c0.7,0.2,1.7,0.2,2.6,0.2
			c6.9,0.1,11.4-3.8,11.4-11.8c0.1-7-4.1-10.8-10.7-10.8c-1.7,0-2.8,0.2-3.5,0.3L803.7,301.8L803.7,301.8z"/>
		<path class="st1" d="M841.2,307.6v-33.8h8.9l7,12.4c2,3.6,4.1,7.8,5.5,11.6h0.2c-0.5-4.5-0.7-9-0.7-14.1v-9.8h7v33.8h-8l-7.2-13.1
			c-2-3.6-4.2-8-5.9-12l-0.2,0.1c0.2,4.5,0.3,9.3,0.3,14.8v10.2H841.2z"/>
		<path class="st1" d="M895.9,293.3h-12.5v8h13.9v6.3h-21.6v-33.8h20.9v6.3h-13.2v7h12.5V293.3z"/>
		<path class="st1" d="M927.5,306.7c-1.4,0.7-4.5,1.5-8.7,1.5c-11.7,0-17.7-7.4-17.7-17c0-11.6,8.3-17.9,18.5-17.9
			c4,0,6.9,0.8,8.4,1.5l-1.6,6.1c-1.6-0.7-3.7-1.2-6.5-1.2c-6.1,0-10.8,3.6-10.8,11.2c0,6.8,4.1,11.1,10.8,11.1
			c2.3,0,4.9-0.5,6.4-1.1L927.5,306.7z"/>
		<path class="st1" d="M932.6,273.8h7.6v15h0.2c0.7-1.3,1.6-2.5,2.3-3.7l7.7-11.2h9.4l-11.2,14.4l11.8,19.4h-8.9l-8.3-14.6l-2.9,3.6
			v11.1h-7.8V273.8z"/>
		<path class="st1" d="M973.5,274.2c2.8-0.4,6.5-0.7,10.3-0.7c6.5,0,10.6,1.2,13.9,3.6c3.6,2.6,5.7,6.8,5.7,12.7
			c0,6.5-2.4,10.9-5.6,13.7c-3.6,3-9,4.4-15.6,4.4c-4,0-6.8-0.2-8.7-0.5V274.2z M981.2,301.8c0.7,0.2,1.7,0.2,2.6,0.2
			c6.9,0.1,11.5-3.8,11.5-11.8c0.1-7-4.1-10.8-10.7-10.8c-1.7,0-2.8,0.2-3.5,0.3V301.8z"/>
		<path class="st1" d="M1008.5,274.2c2.5-0.4,6.1-0.7,10.2-0.7c5,0,8.5,0.7,10.9,2.6c2,1.6,3.1,4,3.1,7.1c0,4.3-3.1,7.3-6,8.4v0.2
			c2.4,1,3.6,3.2,4.5,6.4c1.1,3.8,2.2,8.3,2.7,9.5h-7.9c-0.6-1-1.3-3.7-2.4-7.9c-0.9-4.2-2.4-5.4-5.5-5.5h-2.3v13.3h-7.6
			L1008.5,274.2L1008.5,274.2z M1016.1,288.7h3c3.8,0,6.1-1.9,6.1-4.9c0-3.1-2.2-4.6-5.6-4.7c-1.8,0-2.9,0.2-3.5,0.2V288.7z"/>
		<path class="st1" d="M1046,273.8v33.8h-7.7v-33.8H1046z"/>
		<path class="st1" d="M1052.7,273.8h20.7v6.3h-13v7.8h12.2v6.2h-12.2v13.6h-7.7V273.8z"/>
		<path class="st1" d="M1086.8,273.8v33.8h-7.7v-33.8H1086.8z"/>
		<path class="st1" d="M1100,280.1h-9.1v-6.5h26.1v6.5h-9.3v27.5h-7.7V280.1z"/>
	</g>
</g>
</svg>
