<?xml version="1.0" encoding="utf-8"?>
<!-- Generator: Adobe Illustrator 19.0.0, SVG Export Plug-In . SVG Version: 6.00 Build 0)  -->
<svg version="1.1" id="Layer_1" xmlns="http://www.w3.org/2000/svg" xmlns:xlink="http://www.w3.org/1999/xlink" x="0px" y="0px"
	 viewBox="194 -104 1000 1000" style="enable-background:new 194 -104 1000 1000;" xml:space="preserve">
<g>
	<g transform="translate(0.000000,511.000000) scale(0.100000,-0.100000)">
		<path d="M3644,4739.1c-879.6-256.8-1602-471.4-1604-473.3c-5.7-5.8,599.8-1947,611.3-1956.5c5.7-5.7,362.2,90.1,793.3,210.8
			c431.2,120.7,785.7,220.4,787.6,220.4c3.8,0,5.7-1260.9,5.7-2803.5c0-2155.8-5.7-2809.3-23-2826.5c-17.2-17.3,590.2-23,2740.3-23
			h2763.3V-86.1c0,1554.1,3.8,2826.5,9.6,2826.5s350.7-99.7,770.4-220.4c417.7-120.7,764.6-214.6,770.4-208.9
			c13.4,11.5,576.8,1948.9,571.1,1954.6c-1.9,3.8-730.1,216.5-1617.4,475.2L8611,5212.4h-325.8h-325.8l-34.5-99.7
			c-51.7-162.9-113.1-270.2-220.4-387.1c-178.2-195.5-381.3-279.8-676.5-279.8c-320,0-544.2,92-747.4,306.6
			c-111.1,118.8-260.6,366-260.6,433.1c0,21.1-72.8,26.8-387.1,24.9l-389-1.9L3644,4739.1z"/>
	</g>
</g>
</svg>
