<?xml version="1.0" encoding="utf-8"?>
<!-- Generator: Adobe Illustrator 19.0.0, SVG Export Plug-In . SVG Version: 6.00 Build 0)  -->
<svg version="1.1" id="Layer_1" xmlns="http://www.w3.org/2000/svg" xmlns:xlink="http://www.w3.org/1999/xlink" x="0px" y="0px"
	 viewBox="112 -40 512 512" style="enable-background:new 112 -40 512 512;" xml:space="preserve">
<g>
	<g>
		<g>
			<path d="M352.5,26.2h31.4c3.4,0,6.1-2.7,6.1-6.1s-2.7-6.1-6.1-6.1h-31.4c-3.4,0-6.1,2.7-6.1,6.1
				C346.4,23.5,349.2,26.2,352.5,26.2z"/>
			<path d="M549.4,138.3l-21-86.4c-0.2-0.8-5.3-21-25.3-29.5c-14.5-6.2-60.4-23.6-71.9-28c-1.1-0.8-2.4-1.4-3.8-1.4h-0.9h-117
				c-0.2,0-0.4,0-0.6,0c-0.1,0-0.2,0-0.2,0s-0.2,0-0.3,0.1c-0.1,0-0.2,0.1-0.3,0.1c-0.1,0-0.2,0.1-0.2,0.1s-0.2,0.1-0.3,0.1
				s-0.1,0-0.2,0.1c-2.3,0.9-58.2,22-74.5,28.9c-19.3,8.2-24.7,27.1-25.3,29.4l0,0c0,0.1,0,0.1,0,0.1c0,0.1,0,0.1,0,0.1l-14.9,61.4
				l0,0l-6.1,25c-0.8,2.9,0.8,6,3.7,7.1l59.9,23.8v178.9v24.8c0,3.4,2.7,6.1,6.1,6.1h223.6c3.4,0,6.1-2.7,6.1-6.1v-24.8V232.1
				c0-3.4-2.7-6.1-6.1-6.1s-6.1,2.7-6.1,6.1v110H323.9c-3.4,0-6.1,2.7-6.1,6.1s2.7,6.1,6.1,6.1h149.8v12.6H262.3v-12.6h41.3
				c3.4,0,6.1-2.7,6.1-6.1s-2.7-6.1-6.1-6.1h-41.3V165v-26.2V91.7c0-1.1-0.3-2.2-0.9-3.2l-30.8-50.8c2-1.6,4.3-3,6.9-4.1
				c12.5-5.3,49.9-19.6,66.3-25.8c3.9,36,31.9,65,64.6,65C401,72.8,428.9,44,433,8.1c16.7,6.3,53.1,20.3,65.4,25.5
				c2.6,1.1,5,2.6,6.9,4.1l-30.8,50.8c-0.6,1-0.9,2-0.9,3.2v47.2V165v46.7c0,3.4,2.7,6.1,6.1,6.1c3.4,0,6.1-2.7,6.1-6.1v-42.6
				l59.9-23.8C548.6,144.2,550.2,141.2,549.4,138.3z M250.1,156.1l-50.5-20l3.2-12.9l47.3,19.8V156.1L250.1,156.1z M250.1,93.4v36.3
				l-44.5-18.6l13.6-56.3c0-0.1,0.8-3.2,3.1-7.2L250.1,93.4z M368.5,60.6c-24.1,0-49.7-22-52.6-55.3h105.2
				C418.2,38.6,392.5,60.6,368.5,60.6z M485.9,93.4l27.7-45.8c1.4,2.6,2.3,4.8,2.7,6.1l0,0c0.1,0.2,0.1,0.2,0.1,0.3v0.1
				c0,0.1,0.1,0.2,0.1,0.2v0.1c0,0.1,0,0.1,0.1,0.2v0.1v0.1c0,0,0,0,0,0.1v0.1l13.6,56.3l-44.5,18.6L485.9,93.4L485.9,93.4z
				 M485.9,156.1V143l47.3-19.8l3.2,12.9L485.9,156.1z"/>
		</g>
	</g>
</g>
<g>
	<path d="M181.8,410.8c1.9-0.3,4.8-0.5,8-0.5c3.9,0,6.7,0.6,8.5,2.1c1.6,1.3,2.4,3.1,2.4,5.5c0,3.4-2.4,5.7-4.7,6.5v0.1
		c1.8,0.7,2.9,2.5,3.5,4.9c0.8,3,1.6,6.4,2.2,7.4h-6.1c-0.4-0.8-1.1-2.9-1.8-6.1c-0.7-3.3-1.8-4.2-4.3-4.2h-1.8v10.4h-5.9V410.8z
		 M187.7,422.2h2.4c3,0,4.7-1.5,4.7-3.8c0-2.4-1.6-3.6-4.4-3.7c-1.4,0-2.3,0.1-2.7,0.2V422.2z"/>
	<path d="M229.1,423.4c0,8.7-5.2,13.9-13,13.9c-7.8,0-12.4-5.9-12.4-13.4c0-7.9,5.1-13.8,12.8-13.8
		C224.6,410,229.1,416.1,229.1,423.4z M210,423.7c0,5.2,2.4,8.8,6.4,8.8c4,0,6.3-3.8,6.3-9c0-4.7-2.3-8.8-6.4-8.8
		C212.3,414.8,210,418.6,210,423.7z"/>
	<path d="M238.9,410.5v15.2c0,4.5,1.7,6.9,4.8,6.9c3.1,0,4.9-2.2,4.9-6.9v-15.2h6v14.8c0,8.1-4.1,12-11,12
		c-6.7,0-10.6-3.7-10.6-12.1v-14.7H238.9z"/>
	<path d="M259.7,436.9v-26.4h7l5.5,9.7c1.6,2.8,3.1,6.1,4.3,9h0.1c-0.4-3.5-0.5-7.1-0.5-11v-7.7h5.5v26.4h-6.3l-5.6-10.2
		c-1.6-2.8-3.3-6.2-4.6-9.3l-0.1,0c0.2,3.5,0.2,7.2,0.2,11.5v8H259.7z"/>
	<path d="M286.7,410.8c2.2-0.4,5.1-0.5,8.1-0.5c5,0,8.3,0.9,10.8,2.8c2.7,2,4.5,5.3,4.5,9.9c0,5.1-1.8,8.5-4.4,10.7
		c-2.8,2.3-7,3.4-12.2,3.4c-3.1,0-5.3-0.2-6.8-0.4V410.8z M292.7,432.4c0.5,0.1,1.3,0.1,2.1,0.1c5.4,0,8.9-2.9,8.9-9.2
		c0-5.5-3.2-8.4-8.3-8.4c-1.3,0-2.2,0.1-2.7,0.2V432.4z"/>
	<path d="M321.9,436.9v-26.4h7l5.5,9.7c1.6,2.8,3.1,6.1,4.3,9h0.1c-0.4-3.5-0.5-7.1-0.5-11v-7.7h5.5v26.4h-6.3l-5.6-10.2
		c-1.6-2.8-3.3-6.2-4.6-9.3l-0.1,0c0.2,3.5,0.2,7.2,0.2,11.5v8H321.9z"/>
	<path d="M364.6,425.7h-9.7v6.3h10.8v4.9h-16.8v-26.4h16.3v4.9h-10.3v5.5h9.7V425.7z"/>
	<path d="M389.2,436.1c-1.1,0.5-3.6,1.2-6.8,1.2c-9.1,0-13.8-5.7-13.8-13.2c0-9,6.4-14,14.4-14c3.1,0,5.4,0.6,6.5,1.2l-1.2,4.7
		c-1.2-0.5-2.9-1-5-1c-4.7,0-8.4,2.9-8.4,8.7c0,5.3,3.1,8.6,8.5,8.6c1.8,0,3.8-0.4,5-0.9L389.2,436.1z"/>
	<path d="M393.2,410.5h5.9v11.7h0.1c0.6-1,1.2-2,1.8-2.9l6-8.8h7.3l-8.7,11.2l9.2,15.2h-7l-6.5-11.4l-2.3,2.8v8.6h-5.9V410.5z"/>
	<path d="M428.7,415.5h-7.1v-5h20.3v5h-7.2v21.4h-6V415.5z"/>
	<path d="M451.6,424.6v4h-10.3v-4H451.6z"/>
	<path d="M455.5,430.7c1.6,0.8,4.1,1.6,6.6,1.6c2.7,0,4.2-1.1,4.2-2.9c0-1.6-1.3-2.6-4.4-3.7c-4.4-1.5-7.2-4-7.2-7.8
		c0-4.5,3.8-8,10-8c3,0,5.2,0.6,6.7,1.3l-1.3,4.8c-1.1-0.5-2.9-1.3-5.5-1.3s-3.8,1.2-3.8,2.5c0,1.7,1.5,2.4,4.9,3.7
		c4.7,1.7,6.9,4.2,6.9,7.9c0,4.4-3.4,8.2-10.7,8.2c-3,0-6-0.8-7.5-1.6L455.5,430.7z"/>
	<path d="M482.5,410.5v10.1h9.8v-10.1h6v26.4h-6v-11h-9.8v11h-6v-26.4H482.5z"/>
	<path d="M509.5,410.5v26.4h-6v-26.4H509.5z"/>
	<path d="M514.7,410.8c1.9-0.3,4.8-0.5,8-0.5c3.9,0,6.7,0.6,8.5,2.1c1.6,1.3,2.4,3.1,2.4,5.5c0,3.4-2.4,5.7-4.7,6.5v0.1
		c1.8,0.7,2.9,2.5,3.5,4.9c0.8,3,1.6,6.4,2.2,7.4h-6.1c-0.4-0.8-1.1-2.9-1.8-6.1c-0.7-3.3-1.8-4.2-4.3-4.2h-1.8v10.4h-5.9V410.8z
		 M520.6,422.2h2.3c3,0,4.7-1.5,4.7-3.8c0-2.4-1.6-3.6-4.4-3.7c-1.4,0-2.3,0.1-2.7,0.2V422.2z"/>
	<path d="M543,415.5h-7.1v-5h20.3v5H549v21.4h-6V415.5z"/>
</g>
</svg>
