<?xml version="1.0" encoding="utf-8"?>
<!-- Generator: Adobe Illustrator 19.0.0, SVG Export Plug-In . SVG Version: 6.00 Build 0)  -->
<svg version="1.1" id="Layer_1" xmlns="http://www.w3.org/2000/svg" xmlns:xlink="http://www.w3.org/1999/xlink" x="0px" y="0px"
	 viewBox="356 -284 1000 1000" style="enable-background:new 356 -284 1000 1000;" xml:space="preserve">
<g>
	<g transform="translate(0.000000,511.000000) scale(0.100000,-0.100000)">
		<path d="M5264,7049.2c-879.6-256.8-1602-471.4-1604-473.3c-5.7-5.8,599.8-1947,611.3-1956.5c5.7-5.7,362.2,90.1,793.3,210.8
			c431.2,120.7,785.7,220.4,787.6,220.4c3.8,0,5.7-1260.9,5.7-2803.5c0-2155.8-5.7-2809.3-23-2826.5c-17.2-17.3,590.2-23,2740.3-23
			h2763.3V2224c0,1554.1,3.8,2826.5,9.6,2826.5s350.7-99.7,770.4-220.4c417.7-120.7,764.6-214.6,770.4-208.9
			c13.4,11.5,576.8,1948.9,571.1,1954.6c-1.9,3.8-730.1,216.5-1617.4,475.2L10231,7522.5h-325.8h-325.8l-34.5-99.7
			c-51.7-162.9-113.1-270.2-220.4-387.1c-178.2-195.5-381.3-279.8-676.5-279.8c-320,0-544.2,92-747.4,306.6
			c-111.1,118.8-260.6,366-260.6,433.1c0,21.1-72.8,26.8-387.1,24.9l-389-1.9L5264,7049.2z"/>
	</g>
</g>
<g>
	<path d="M586.4,609.6c4.5-0.7,11.1-1.3,18.5-1.3c9.1,0,15.5,1.4,19.9,4.8c3.7,2.9,5.7,7.2,5.7,12.9c0,7.8-5.6,13.2-10.9,15.2v0.3
		c4.3,1.7,6.7,5.8,8.2,11.5c1.9,6.9,3.8,15,5,17.3h-14.2c-1-1.8-2.5-6.8-4.3-14.3c-1.6-7.7-4.3-9.8-9.9-9.9h-4.2v24.2h-13.8V609.6z
		 M600.2,636.1h5.5c6.9,0,11-3.5,11-8.9c0-5.7-3.8-8.5-10.2-8.6c-3.4,0-5.3,0.3-6.3,0.5V636.1z"/>
	<path d="M696.5,638.9c0,20.2-12.2,32.4-30.2,32.4c-18.3,0-28.9-13.8-28.9-31.3c0-18.4,11.8-32.2,29.9-32.2
		C686.1,607.8,696.5,621.9,696.5,638.9z M652,639.7c0,12,5.7,20.5,15,20.5c9.4,0,14.8-8.9,14.8-20.9c0-11-5.3-20.5-14.9-20.5
		C657.5,618.8,652,627.7,652,639.7z"/>
	<path d="M719.4,608.8v35.4c0,10.6,4,16,11.1,16c7.3,0,11.3-5.1,11.3-16v-35.4h13.9v34.5c0,19-9.6,28-25.6,28
		c-15.5,0-24.6-8.6-24.6-28.2v-34.3H719.4z"/>
	<path d="M767.8,670.3v-61.5h16.2l12.8,22.5c3.7,6.5,7.3,14.1,10,21.1h0.3c-0.9-8.1-1.2-16.4-1.2-25.7v-17.9h12.8v61.5h-14.6
		L791,646.5c-3.7-6.6-7.7-14.5-10.7-21.7l-0.3,0.1c0.4,8.1,0.5,16.8,0.5,26.8v18.5H767.8z"/>
	<path d="M830.8,609.6c5.1-0.8,11.8-1.3,18.8-1.3c11.7,0,19.3,2.1,25.2,6.6c6.4,4.7,10.4,12.3,10.4,23.2c0,11.8-4.3,19.9-10.2,24.9
		c-6.5,5.4-16.3,7.9-28.4,7.9c-7.2,0-12.3-0.5-15.8-0.9V609.6z M844.8,659.8c1.2,0.3,3.1,0.3,4.8,0.3c12.6,0.1,20.8-6.8,20.8-21.5
		c0.1-12.8-7.4-19.5-19.3-19.5c-3.1,0-5.1,0.3-6.3,0.5V659.8z"/>
	<path d="M912.7,670.3v-61.5H929l12.8,22.5c3.7,6.5,7.3,14.1,10,21.1h0.3c-0.9-8.1-1.2-16.4-1.2-25.7v-17.9h12.8v61.5h-14.6
		l-13.1-23.7c-3.7-6.6-7.7-14.5-10.7-21.7l-0.3,0.1c0.4,8.1,0.5,16.8,0.5,26.8v18.5H912.7z"/>
	<path d="M1012.3,644.3h-22.6v14.6h25.3v11.4h-39.2v-61.5h38v11.4h-24V633h22.6V644.3z"/>
	<path d="M1069.6,668.5c-2.6,1.3-8.3,2.7-15.8,2.7c-21.3,0-32.2-13.3-32.2-30.9c0-21,15-32.7,33.6-32.7c7.2,0,12.7,1.5,15.2,2.7
		l-2.8,11c-2.8-1.2-6.8-2.3-11.7-2.3c-11,0-19.6,6.7-19.6,20.4c0,12.3,7.3,20.1,19.7,20.1c4.2,0,8.9-0.9,11.6-2L1069.6,668.5z"/>
	<path d="M1078.8,608.8h13.8V636h0.3c1.4-2.4,2.8-4.6,4.2-6.8l14-20.4h17.1l-20.4,26.2l21.4,35.3h-16.2l-15.1-26.6l-5.3,6.5v20.1
		h-13.8V608.8z"/>
</g>
</svg>
