<?xml version="1.0" encoding="utf-8"?>
<!-- Generator: Adobe Illustrator 19.0.0, SVG Export Plug-In . SVG Version: 6.00 Build 0)  -->
<svg version="1.1" id="Layer_1" xmlns="http://www.w3.org/2000/svg" xmlns:xlink="http://www.w3.org/1999/xlink" x="0px" y="0px"
	 viewBox="356 -284 1000 1000" style="enable-background:new 356 -284 1000 1000;" xml:space="preserve">
<style type="text/css">
	.st0{fill:#FFFFFF;}
</style>
<g>
	<g>
		<g transform="translate(0.000000,492.000000) scale(0.100000,-0.100000)">
			<path d="M8371.7,7612.5c-241.7-18.8-422.2-47.1-580.7-86.3c-287.2-73.7-285.6-73.7-464.6-342.2l-155.4-233.8l-368.8-114.6
				c-202.5-62.8-406.5-130.3-450.4-149.1c-335.9-144.4-718.9-577.6-933.8-1056.3c-65.9-146-561.8-1473.7-671.7-1801.7
				c-51.8-150.7-116.1-356.2-144.4-456.7l-51.8-183.6V1913.6v-1276l43.9-42.4l42.4-43.9H5264h627.8l42.4,43.9l43.9,42.4l7.9,1174
				l7.9,1172.4l51.8,109.8c66,139.7,237,444.1,255.8,456.7c7.9,4.7,14.2-703.1,14.2-1765.6V9.8l45.5-50.2l45.5-51.8h2151.8h2151.8
				l42.4,43.9l43.9,42.4l7.9,1790.8l7.9,1790.8l105.2-185.2c58.1-103.6,128.7-235.4,157-296.7l51.8-109.8l7.9-1172.4l7.9-1174
				l43.9-42.4l42.4-43.9h627.8h627.8l42.4,43.9l43.9,42.4v1276v1274.5l-51.8,183.6c-28.2,100.4-92.6,306.1-144.4,456.7
				c-110,328-605.9,1655.7-671.8,1801.7c-215,478.7-598,911.8-933.8,1056.3c-43.9,18.8-248,86.3-450.4,149.1L9949,6950.1
				l-141.3,213.4c-155.4,235.4-178.9,262.1-257.4,295.1c-98.9,40.8-339,100.4-503.8,122.4
				C8875.4,7604.6,8495.6,7623.4,8371.7,7612.5z M9077.9,7254.6c160.1-33,251.2-58.1,251.2-70.6c0-26.7-80-213.4-127.1-295.1
				c-70.6-124-221.3-271.5-329.6-323.3c-130.3-61.2-285.6-83.2-423.8-59.7c-61.2,9.4-152.2,37.6-200.9,59.7
				c-108.3,51.8-258.9,199.4-329.6,323.3c-45.5,81.6-127.1,268.3-127.1,293.5c0,20.4,270,81.6,447.3,100.4
				C8376.3,7297,8961.8,7278.2,9077.9,7254.6z M7601,6810.5c105.2-215,240.1-370.4,419.1-485l89.4-56.5l-210.3-210.3
				c-114.6-114.6-211.9-207.1-215-202.5c-3.1,3.1-58.1,213.4-120.9,466.1l-116.1,459.8l42.4,66c23.6,37.6,45.5,67.5,50.2,67.5
				C7544.5,6915.6,7572.8,6868.5,7601,6810.5z M9630.3,6848.1l42.4-66l-116.1-459.8c-62.8-252.7-117.7-463-120.9-466.1
				c-3.1-4.7-100.4,87.9-215.1,202.5l-210.3,210.3l89.4,56.5c178.9,114.6,313.9,270,419.1,485c28.2,58.1,56.5,105.2,61.2,105.2
				C9584.8,6915.6,9606.8,6885.7,9630.3,6848.1z M7177.2,6543.7c9.4-33,69.1-274.6,135-538.3c64.3-263.7,128.7-503.8,142.8-535.2
				c37.6-87.9,133.4-117.7,222.8-70.6c23.6,12.6,211.9,193.1,419.1,400.2l376.7,378.3h86.3h84.8l401.7-400.2
				c378.3-375.1,406.5-400.2,459.8-400.2c69.1,0,124,23.6,149.1,62.8c9.4,17.3,81.6,280.9,158.5,588.6
				c76.9,307.6,144.4,563.5,149.1,568.2c9.4,9.4,430.1-116.1,466.1-138.1c12.6-7.9,9.4-72.2-14.1-235.4
				c-62.8-434.7-72.2-569.8-73.7-1026.4c0-489.7,15.7-638.8,94.2-955.8l39.2-153.8l7.9-1928.9l6.3-1928.9H8558.4H6629.5v1906.9
				c0,1892.8,0,1908.5,33,1971.3c199.4,394,219.7,1202.2,51.8,2123.5c-20.4,119.3-36.1,221.3-31.4,224.5
				c11,11,422.2,142.8,452,144.4C7153.7,6601.7,7166.3,6582.9,7177.2,6543.7z M6394,6214c78.5-448.9,109.8-772.2,109.8-1122.2
				c0-441-51.8-720.4-158.5-861.7c-142.8-186.8-533.7-863.2-619.9-1068.8l-53.4-130.3V1952.9V873.1h-408h-409.6l6.3,1125.3
				l4.7,1126.9l48.7,172.7c64.3,222.8,204,632.5,365.7,1067.2c422.2,1141.1,489.7,1294.8,676.5,1555.4
				c94.2,131.8,361,398.6,397.1,398.6C6367.4,6319.2,6381.5,6283.1,6394,6214z M10929.9,6182.7
				c273.1-258.9,422.2-514.8,640.4-1095.5c378.3-1001.4,544.5-1469.1,635.6-1789.2l48.7-172.7l4.7-1126.9l6.3-1125.3h-408h-409.6
				l-3.1,1093.9l-4.7,1095.5l-64.3,141.3c-73.7,164.8-255.8,486.5-463,817.7c-163.3,260.6-186.8,326.5-224.5,626.2
				c-51.8,406.5-45.5,836.5,23.6,1379.6c34.5,276.2,37.6,291.9,59.7,291.9C10780.8,6319.2,10851.4,6258,10929.9,6182.7z"/>
		</g>
	</g>
	<rect x="846.2" y="-139.9" width="19.6" height="609"/>
	<circle class="st0" cx="856" cy="-83.4" r="5.1"/>
	<circle class="st0" cx="856" cy="10.6" r="5.1"/>
	<circle class="st0" cx="856" cy="104.6" r="5.1"/>
	<circle class="st0" cx="856" cy="198.6" r="5.1"/>
	<circle class="st0" cx="856" cy="292.5" r="5.1"/>
	<circle class="st0" cx="856" cy="386.5" r="5.1"/>
</g>
<g>
	<path d="M483,599c3.2,1.6,8.2,3.3,13.3,3.3c5.5,0,8.4-2.3,8.4-5.7c0-3.3-2.5-5.2-8.9-7.5c-8.8-3.1-14.5-7.9-14.5-15.6
		c0-9,7.5-15.9,20-15.9c6,0,10.4,1.3,13.5,2.7l-2.7,9.7c-2.1-1-5.9-2.5-11.1-2.5s-7.7,2.4-7.7,5.1c0,3.4,3,4.9,9.8,7.5
		c9.3,3.5,13.7,8.3,13.7,15.8c0,8.9-6.8,16.5-21.4,16.5c-6,0-12-1.6-15-3.3L483,599z"/>
	<path d="M537,558.4v20.3h19.7v-20.3h11.9v52.9h-11.9v-22.1H537v22.1h-12v-52.9H537z"/>
	<path d="M591.1,558.4v52.9h-12v-52.9H591.1z"/>
	<path d="M601.5,559.1c3.8-0.6,9.6-1.1,15.9-1.1c7.9,0,13.4,1.2,17.1,4.2c3.1,2.5,4.9,6.2,4.9,11.1c0,6.8-4.8,11.4-9.3,13v0.2
		c3.7,1.5,5.7,5,7.1,9.9c1.6,6,3.3,12.9,4.3,14.9h-12.3c-0.9-1.6-2.1-5.8-3.7-12.3c-1.4-6.6-3.7-8.4-8.6-8.5h-3.6v20.8h-11.9V559.1z
		 M613.4,581.9h4.7c6,0,9.5-3,9.5-7.6c0-4.9-3.3-7.3-8.8-7.4c-2.9,0-4.6,0.2-5.4,0.4V581.9z"/>
	<path d="M658.3,568.4h-14.2v-10.1h40.7v10.1h-14.5v42.9h-12V568.4z"/>
	<path d="M690.8,599c3.2,1.6,8.2,3.3,13.3,3.3c5.5,0,8.4-2.3,8.4-5.7c0-3.3-2.5-5.2-8.9-7.5c-8.8-3.1-14.5-7.9-14.5-15.6
		c0-9,7.5-15.9,20-15.9c6,0,10.4,1.3,13.5,2.7l-2.7,9.7c-2.1-1-5.9-2.5-11.1-2.5s-7.7,2.4-7.7,5.1c0,3.4,3,4.9,9.8,7.5
		c9.3,3.5,13.7,8.3,13.7,15.8c0,8.9-6.8,16.5-21.4,16.5c-6,0-12-1.6-15-3.3L690.8,599z"/>
	<path d="M766.4,586.6v8h-20.6v-8H766.4z"/>
	<path d="M789.8,558.4h32.4v9.8h-20.3v12.1h19v9.7h-19v21.3h-12V558.4z"/>
	<path d="M843.2,558.4v30.5c0,9.1,3.5,13.7,9.6,13.7c6.3,0,9.7-4.4,9.7-13.7v-30.5h11.9v29.7c0,16.3-8.2,24.1-22.1,24.1
		c-13.4,0-21.2-7.4-21.2-24.3v-29.5H843.2z"/>
	<path d="M884.8,558.4h12v42.9h21v10.1h-33.1V558.4z"/>
	<path d="M924.9,558.4h12v42.9h21v10.1h-33.1V558.4z"/>
	<path d="M981.3,599c3.2,1.6,8.2,3.3,13.3,3.3c5.5,0,8.4-2.3,8.4-5.7c0-3.3-2.5-5.2-8.9-7.5c-8.8-3.1-14.5-7.9-14.5-15.6
		c0-9,7.5-15.9,20-15.9c6,0,10.4,1.3,13.5,2.7l-2.7,9.7c-2.1-1-5.9-2.5-11.1-2.5s-7.7,2.4-7.7,5.1c0,3.4,3,4.9,9.8,7.5
		c9.3,3.5,13.7,8.3,13.7,15.8c0,8.9-6.8,16.5-21.4,16.5c-6,0-12-1.6-15-3.3L981.3,599z"/>
	<path d="M1023.3,558.4h12v42.9h21v10.1h-33.1V558.4z"/>
	<path d="M1094.9,588.9h-19.5v12.6h21.8v9.8h-33.8v-52.9h32.7v9.8h-20.7v11h19.5V588.9z"/>
	<path d="M1136.9,588.9h-19.5v12.6h21.8v9.8h-33.8v-52.9h32.7v9.8h-20.7v11h19.5V588.9z"/>
	<path d="M1160.4,611.3l-17-52.9h13.1l6.4,22.4c1.8,6.3,3.5,12.3,4.7,18.9h0.2c1.3-6.4,3-12.6,4.8-18.7l6.8-22.6h12.7l-17.8,52.9
		H1160.4z"/>
	<path d="M1229.3,588.9h-19.5v12.6h21.8v9.8h-33.8v-52.9h32.7v9.8h-20.7v11h19.5V588.9z"/>
</g>
</svg>
