<?xml version="1.0" encoding="utf-8"?>
<!-- Generator: Adobe Illustrator 19.0.0, SVG Export Plug-In . SVG Version: 6.00 Build 0)  -->
<svg version="1.1" id="Layer_1" xmlns="http://www.w3.org/2000/svg" xmlns:xlink="http://www.w3.org/1999/xlink" x="0px" y="0px"
	 viewBox="636 -184 512 512" style="enable-background:new 636 -184 512 512;" xml:space="preserve">
<style type="text/css">
	.st0{fill-rule:evenodd;clip-rule:evenodd;fill:#BD2F32;}
	.st1{fill:#FFFFFF;}
</style>
<g id="XMLID_29_">
	<rect id="XMLID_28_" x="635" y="-185" class="st0" width="512" height="512"/>
	<g id="XMLID_30_">
		<rect id="XMLID_31_" x="707.3" y="254.2" class="st1" width="367.3" height="2.1"/>
	</g>
</g>
<g>
	<path class="st1" d="M1073.3,51.4c-1.3-4.6-4.2-14-6.6-20.9c-5-15-27.8-75.8-30.8-82.5c-9.8-21.9-27.4-41.8-42.8-48.4
		c-2-0.9-11.4-4-20.6-6.8l-16.9-5.2l-6.5-9.8c-7.1-10.8-8.2-12-11.8-13.5c-4.5-1.9-15.5-4.6-23.1-5.6c-7.8-1.1-25.2-1.9-30.9-1.4
		c-11.1,0.9-19.3,2.2-26.6,4c-13.2,3.4-13.1,3.4-21.3,15.7l-7.1,10.7l-16.9,5.2c-9.3,2.9-18.6,6-20.6,6.8
		c-15.4,6.6-32.9,26.5-42.8,48.4c-3,6.7-25.7,67.5-30.8,82.5c-2.4,6.9-5.3,16.3-6.6,20.9l-2.4,8.4v58.4v58.4l2,1.9l1.9,2H741h28.8
		l1.9-2l2-1.9l0.4-53.8l0.4-53.7l2.4-5c3-6.4,10.9-20.3,11.7-20.9c0.4-0.2,0.7,32.2,0.7,80.9v81.3l2.1,2.3l2.1,2.4h98.6h98.6l1.9-2
		l2-1.9l0.4-82l0.4-82l4.8,8.5c2.7,4.7,5.9,10.8,7.2,13.6l2.4,5l0.4,53.7l0.4,53.8l2,1.9l1.9,2h28.8h28.8l1.9-2l2-1.9v-58.4V59.8
		L1073.3,51.4z M938.7-110.9c0.2,0,1.2,1.4,2.3,3.1l1.9,3l-5.3,21.1c-2.9,11.6-5.4,21.2-5.5,21.4c-0.1,0.2-4.6-4-9.9-9.3l-9.6-9.6
		l4.1-2.6c8.2-5.2,14.4-12.4,19.2-22.2C937.2-108.8,938.5-110.9,938.7-110.9z M877.3-127.8c6.3-0.7,33.1,0.2,38.5,1.3
		c7.3,1.5,11.5,2.7,11.5,3.2c0,1.2-3.7,9.8-5.8,13.5c-3.2,5.7-10.1,12.4-15.1,14.8c-6,2.8-13.1,3.8-19.4,2.7c-2.8-0.4-7-1.7-9.2-2.7
		c-5-2.4-11.9-9.1-15.1-14.8c-2.1-3.7-5.8-12.3-5.8-13.4C856.8-124.1,869.1-126.9,877.3-127.8z M843-107.8c1.1-1.7,2.1-3.1,2.3-3.1
		c0.2,0,1.5,2.2,2.8,4.8c4.8,9.8,11,17,19.2,22.2l4.1,2.6l-9.6,9.6c-5.2,5.2-9.7,9.5-9.8,9.3c-0.1-0.1-2.7-9.8-5.5-21.4l-5.3-21.1
		L843-107.8z M790.5,12.1c-6.5,8.6-24.4,39.5-28.4,49l-2.4,6v49.4v49.5H741h-18.8l0.3-51.5l0.2-51.6l2.2-7.9
		c2.9-10.2,9.3-29,16.8-48.9c19.3-52.3,22.4-59.3,31-71.2c4.3-6,16.5-18.3,18.2-18.3c0.6,0,1.3,1.7,1.9,4.8c3.6,20.6,5,35.4,5,51.4
		C797.8-7.2,795.4,5.6,790.5,12.1z M896.5,195.4h-9v0h-83.9V108c0-86.7,0-87.4,1.5-90.3c9.1-18,10.1-55.1,2.4-97.3
		c-0.9-5.5-1.7-10.1-1.4-10.3c0.5-0.5,19.3-6.5,20.7-6.6c0.9-0.1,1.4,0.8,1.9,2.6c0.4,1.5,3.2,12.6,6.2,24.7
		c2.9,12.1,5.9,23.1,6.5,24.5c1.7,4,6.1,5.4,10.2,3.2c1.1-0.6,9.7-8.8,19.2-18.3l16.7-16.8v-7h9v7.1l17.8,17.7
		c17.3,17.2,18.6,18.3,21.1,18.3c3.2,0,5.7-1.1,6.8-2.9c0.4-0.8,3.7-12.9,7.3-27c3.5-14.1,6.6-25.8,6.8-26
		c0.4-0.4,19.7,5.3,21.4,6.3c0.6,0.4,0.4,3.3-0.6,10.8c-2.9,19.9-3.3,26.1-3.4,47c0,22.4,0.7,29.3,4.3,43.8l1.8,7l0.4,88.4l0.3,88.4
		L896.5,195.4L896.5,195.4z M1043,165.9h-18.8l-0.1-50.1l-0.2-50.2l-2.9-6.5c-3.4-7.5-11.7-22.3-21.2-37.5
		c-7.5-11.9-8.6-15-10.3-28.7c-2.4-18.6-2.1-38.3,1.1-63.2c1.6-12.7,1.7-13.4,2.7-13.4c0.4,0,3.7,2.8,7.2,6.3
		c12.5,11.9,19.3,23.6,29.3,50.2c17.3,45.9,24.9,67.3,29.1,82l2.2,7.9l0.2,51.6l0.3,51.5H1043z"/>
	<path class="st1" d="M895.9-77.2H892h-4l-0.5,0.5v271.9h4.4h4.6V-76.5L895.9-77.2z M892,159.9c-1.3,0-2.3-1-2.3-2.3
		c0-1.3,1-2.3,2.3-2.3c1.3,0,2.3,1,2.3,2.3C894.3,158.8,893.3,159.9,892,159.9z M892,116.8c-1.3,0-2.3-1-2.3-2.3
		c0-1.3,1-2.3,2.3-2.3c1.3,0,2.3,1,2.3,2.3C894.3,115.8,893.3,116.8,892,116.8z M892,73.8c-1.3,0-2.3-1-2.3-2.3c0-1.3,1-2.3,2.3-2.3
		c1.3,0,2.3,1,2.3,2.3C894.3,72.7,893.3,73.8,892,73.8z M892,30.7c-1.3,0-2.3-1-2.3-2.3s1-2.3,2.3-2.3c1.3,0,2.3,1,2.3,2.3
		S893.3,30.7,892,30.7z M892-12.3c-1.3,0-2.3-1-2.3-2.3s1-2.3,2.3-2.3c1.3,0,2.3,1,2.3,2.3S893.3-12.3,892-12.3z M892-55.4
		c-1.3,0-2.3-1-2.3-2.3c0-1.3,1-2.3,2.3-2.3c1.3,0,2.3,1,2.3,2.3C894.3-56.4,893.3-55.4,892-55.4z"/>
</g>
<g>
	<path d="M687.9,299.4c1.8,0.9,4.5,1.8,7.3,1.8c3,0,4.6-1.3,4.6-3.1c0-1.8-1.4-2.8-4.9-4.1c-4.8-1.7-7.9-4.3-7.9-8.5
		c0-4.9,4.1-8.7,10.9-8.7c3.3,0,5.7,0.7,7.4,1.5l-1.5,5.3c-1.1-0.5-3.2-1.4-6.1-1.4c-2.8,0-4.2,1.3-4.2,2.8c0,1.9,1.6,2.7,5.4,4.1
		c5.1,1.9,7.5,4.5,7.5,8.6c0,4.9-3.7,9-11.7,9c-3.3,0-6.6-0.9-8.2-1.8L687.9,299.4z"/>
	<path d="M717.5,277.2v11.1h10.8v-11.1h6.5v28.9h-6.5v-12.1h-10.8v12.1h-6.6v-28.9H717.5z"/>
	<path d="M747.1,277.2v28.9h-6.6v-28.9H747.1z"/>
	<path d="M752.8,277.6c2.1-0.3,5.3-0.6,8.7-0.6c4.3,0,7.3,0.7,9.4,2.3c1.7,1.4,2.7,3.4,2.7,6.1c0,3.7-2.6,6.2-5.1,7.1v0.1
		c2,0.8,3.1,2.7,3.9,5.4c0.9,3.3,1.8,7.1,2.4,8.2h-6.7c-0.5-0.9-1.1-3.2-2-6.7c-0.8-3.6-2-4.6-4.7-4.7h-2v11.4h-6.5L752.8,277.6
		L752.8,277.6z M759.3,290.1h2.6c3.3,0,5.2-1.6,5.2-4.2c0-2.7-1.8-4-4.8-4c-1.6,0-2.5,0.1-3,0.2V290.1z"/>
	<path d="M783.8,282.7h-7.8v-5.5h22.3v5.5h-7.9v23.5h-6.6V282.7z"/>
	<path d="M801.6,299.4c1.8,0.9,4.5,1.8,7.3,1.8c3,0,4.6-1.3,4.6-3.1c0-1.8-1.4-2.8-4.9-4.1c-4.8-1.7-7.9-4.3-7.9-8.5
		c0-4.9,4.1-8.7,10.9-8.7c3.3,0,5.7,0.7,7.4,1.5l-1.5,5.3c-1.1-0.5-3.2-1.4-6.1-1.4s-4.2,1.3-4.2,2.8c0,1.9,1.6,2.7,5.4,4.1
		c5.1,1.9,7.5,4.5,7.5,8.6c0,4.9-3.7,9-11.7,9c-3.3,0-6.6-0.9-8.2-1.8L801.6,299.4z"/>
	<path d="M843,292.6v4.4h-11.3v-4.4H843z"/>
	<path d="M855.8,277.2h17.7v5.4h-11.1v6.6h10.4v5.3h-10.4v11.7h-6.6L855.8,277.2L855.8,277.2z"/>
	<path d="M885,277.2v16.7c0,5,1.9,7.5,5.3,7.5c3.4,0,5.3-2.4,5.3-7.5v-16.7h6.5v16.2c0,8.9-4.5,13.2-12.1,13.2
		c-7.3,0-11.6-4-11.6-13.3v-16.1H885z"/>
	<path d="M907.8,277.2h6.6v23.5h11.5v5.5h-18.1L907.8,277.2L907.8,277.2z"/>
	<path d="M929.7,277.2h6.6v23.5h11.5v5.5h-18.1L929.7,277.2L929.7,277.2z"/>
	<path d="M960.6,299.4c1.8,0.9,4.5,1.8,7.3,1.8c3,0,4.6-1.3,4.6-3.1c0-1.8-1.4-2.8-4.9-4.1c-4.8-1.7-7.9-4.3-7.9-8.5
		c0-4.9,4.1-8.7,10.9-8.7c3.3,0,5.7,0.7,7.4,1.5l-1.5,5.3c-1.1-0.5-3.2-1.4-6.1-1.4c-2.8,0-4.2,1.3-4.2,2.8c0,1.9,1.6,2.7,5.4,4.1
		c5.1,1.9,7.5,4.5,7.5,8.6c0,4.9-3.7,9-11.7,9c-3.3,0-6.6-0.9-8.2-1.8L960.6,299.4z"/>
	<path d="M983.5,277.2h6.6v23.5h11.5v5.5h-18.1L983.5,277.2L983.5,277.2z"/>
	<path d="M1022.7,293.9H1012v6.9h11.9v5.4h-18.5v-28.9h17.9v5.4H1012v6h10.7V293.9z"/>
	<path d="M1045.7,293.9H1035v6.9h11.9v5.4h-18.5v-28.9h17.9v5.4H1035v6h10.7V293.9z"/>
	<path d="M1058.5,306.2l-9.3-28.9h7.2l3.5,12.3c1,3.4,1.9,6.7,2.6,10.3h0.1c0.7-3.5,1.6-6.9,2.6-10.2l3.7-12.4h6.9l-9.7,28.9
		L1058.5,306.2L1058.5,306.2z"/>
	<path d="M1096.2,293.9h-10.7v6.9h11.9v5.4H1079v-28.9h17.9v5.4h-11.3v6h10.7V293.9z"/>
</g>
<g>
	<path class="st1" d="M682.3,299.4c1.8,0.9,4.5,1.8,7.3,1.8c3,0,4.6-1.3,4.6-3.1c0-1.8-1.4-2.8-4.9-4.1c-4.8-1.7-7.9-4.3-7.9-8.5
		c0-4.9,4.1-8.7,10.9-8.7c3.3,0,5.7,0.7,7.4,1.5l-1.5,5.3c-1.1-0.5-3.2-1.4-6.1-1.4s-4.2,1.3-4.2,2.8c0,1.9,1.6,2.7,5.4,4.1
		c5.1,1.9,7.5,4.5,7.5,8.6c0,4.9-3.7,9-11.7,9c-3.3,0-6.6-0.9-8.2-1.8L682.3,299.4z"/>
	<path class="st1" d="M711.8,277.2v11.1h10.8v-11.1h6.5v28.9h-6.5v-12.1h-10.8v12.1h-6.6v-28.9H711.8z"/>
	<path class="st1" d="M741.4,277.2v28.9h-6.6v-28.9H741.4z"/>
	<path class="st1" d="M747.1,277.6c2.1-0.3,5.3-0.6,8.7-0.6c4.3,0,7.3,0.7,9.4,2.3c1.7,1.4,2.7,3.4,2.7,6.1c0,3.7-2.6,6.2-5.1,7.1
		v0.1c2,0.8,3.1,2.7,3.9,5.4c0.9,3.3,1.8,7.1,2.4,8.2h-6.7c-0.5-0.9-1.1-3.2-2-6.7c-0.8-3.6-2-4.6-4.7-4.7h-2v11.4H747L747.1,277.6
		L747.1,277.6z M753.6,290.1h2.6c3.3,0,5.2-1.6,5.2-4.2c0-2.7-1.8-4-4.8-4c-1.6,0-2.5,0.1-3,0.2V290.1z"/>
	<path class="st1" d="M778.2,282.7h-7.8v-5.5h22.3v5.5h-7.9v23.5h-6.6V282.7z"/>
	<path class="st1" d="M795.9,299.4c1.8,0.9,4.5,1.8,7.3,1.8c3,0,4.6-1.3,4.6-3.1c0-1.8-1.4-2.8-4.9-4.1c-4.8-1.7-7.9-4.3-7.9-8.5
		c0-4.9,4.1-8.7,10.9-8.7c3.3,0,5.7,0.7,7.4,1.5l-1.5,5.3c-1.1-0.5-3.2-1.4-6.1-1.4s-4.2,1.3-4.2,2.8c0,1.9,1.6,2.7,5.4,4.1
		c5.1,1.9,7.5,4.5,7.5,8.6c0,4.9-3.7,9-11.7,9c-3.3,0-6.6-0.9-8.2-1.8L795.9,299.4z"/>
	<path class="st1" d="M837.3,292.6v4.4H826v-4.4H837.3z"/>
	<path class="st1" d="M850.1,277.2h17.7v5.4h-11.1v6.6h10.4v5.3h-10.4v11.7h-6.6L850.1,277.2L850.1,277.2z"/>
	<path class="st1" d="M879.3,277.2v16.7c0,5,1.9,7.5,5.3,7.5c3.4,0,5.3-2.4,5.3-7.5v-16.7h6.5v16.2c0,8.9-4.5,13.2-12.1,13.2
		c-7.3,0-11.6-4-11.6-13.3v-16.1H879.3z"/>
	<path class="st1" d="M902.1,277.2h6.6v23.5h11.5v5.5H902L902.1,277.2L902.1,277.2z"/>
	<path class="st1" d="M924,277.2h6.6v23.5h11.5v5.5H924L924,277.2L924,277.2z"/>
	<path class="st1" d="M954.9,299.4c1.8,0.9,4.5,1.8,7.3,1.8c3,0,4.6-1.3,4.6-3.1c0-1.8-1.4-2.8-4.9-4.1c-4.8-1.7-7.9-4.3-7.9-8.5
		c0-4.9,4.1-8.7,10.9-8.7c3.3,0,5.7,0.7,7.4,1.5l-1.5,5.3c-1.1-0.5-3.2-1.4-6.1-1.4s-4.2,1.3-4.2,2.8c0,1.9,1.6,2.7,5.4,4.1
		c5.1,1.9,7.5,4.5,7.5,8.6c0,4.9-3.7,9-11.7,9c-3.3,0-6.6-0.9-8.2-1.8L954.9,299.4z"/>
	<path class="st1" d="M977.9,277.2h6.6v23.5h11.5v5.5h-18.1L977.9,277.2L977.9,277.2z"/>
	<path class="st1" d="M1017,293.9h-10.7v6.9h11.9v5.4h-18.5v-28.9h17.9v5.4h-11.3v6h10.7V293.9z"/>
	<path class="st1" d="M1040,293.9h-10.7v6.9h11.9v5.4h-18.5v-28.9h17.9v5.4h-11.3v6h10.7V293.9z"/>
	<path class="st1" d="M1052.9,306.2l-9.3-28.9h7.2l3.5,12.3c1,3.4,1.9,6.7,2.6,10.3h0.1c0.7-3.5,1.6-6.9,2.6-10.2l3.7-12.4h6.9
		l-9.7,28.9L1052.9,306.2L1052.9,306.2z"/>
	<path class="st1" d="M1090.6,293.9h-10.7v6.9h11.9v5.4h-18.5v-28.9h17.9v5.4h-11.3v6h10.7V293.9z"/>
</g>
</svg>
