<?xml version="1.0" encoding="utf-8"?>
<!-- Generator: Adobe Illustrator 19.0.0, SVG Export Plug-In . SVG Version: 6.00 Build 0)  -->
<svg version="1.1" id="Layer_1" xmlns="http://www.w3.org/2000/svg" xmlns:xlink="http://www.w3.org/1999/xlink" x="0px" y="0px"
	 viewBox="194 -104 1000 1000" style="enable-background:new 194 -104 1000 1000;" xml:space="preserve">
<style type="text/css">
	.st0{fill:#FFFFFF;}
</style>
<g>
	<g>
		<g transform="translate(0.000000,492.000000) scale(0.100000,-0.100000)">
			<path d="M6709.9,5665.3c-295.3-23-515.9-57.5-709.6-105.5c-351-90.1-349-90.1-567.7-418.1L5242.7,4856L4792,4716
				c-247.4-76.7-496.7-159.2-550.4-182.2c-410.4-176.4-878.4-705.8-1141.1-1290.7c-80.5-178.4-686.5-1800.8-820.8-2201.6
				c-63.3-184.1-141.9-435.3-176.4-558.1L2040,259v-1557.3v-1559.2l53.7-51.8l51.8-53.7h767.1h767.1l51.8,53.7l53.7,51.8l9.6,1434.5
				l9.6,1432.6l63.3,134.2c80.6,170.7,289.6,542.7,312.6,558.1c9.6,5.7,17.3-859.2,17.3-2157.5v-2169l55.6-61.4l55.6-63.3h2629.3
				h2629.3l51.8,53.7l53.7,51.8l9.6,2188.2l9.6,2188.2l128.5-226.3c71-126.6,157.3-287.7,191.8-362.5l63.3-134.2l9.6-1432.6
				l9.6-1434.5l53.7-51.8l51.8-53.7h767.1h767.1l51.8,53.7l53.7,51.8v1559.2V259l-63.3,224.4c-34.5,122.7-113.2,374-176.4,558.1
				c-134.4,400.8-740.4,2023.2-820.9,2201.6c-262.7,584.9-730.7,1114.2-1141.1,1290.7c-53.7,23-303,105.5-550.4,182.2l-450.7,140
				l-172.6,260.8c-189.9,287.7-218.6,320.3-314.5,360.6c-120.8,49.9-414.2,122.7-615.6,149.6
				C7325.5,5655.7,6861.4,5678.7,6709.9,5665.3z M7572.9,5228c195.6-40.3,306.9-71,306.9-86.3c0-32.6-97.8-260.8-155.3-360.6
				c-86.3-151.5-270.4-331.8-402.7-395.1c-159.2-74.8-349-101.7-517.8-72.9c-74.8,11.5-186,46-245.5,72.9
				c-132.3,63.3-316.4,243.6-402.7,395.1c-55.6,99.7-155.3,327.9-155.3,358.6c0,24.9,329.9,99.7,546.6,122.7
				C6715.6,5279.8,7431,5256.8,7572.9,5228z M5768.2,4685.3c128.5-262.7,293.4-452.6,512.1-592.6l109.3-69l-257-257
				c-140-140-258.9-253.1-262.7-247.4c-3.8,3.8-71,260.8-147.7,569.6l-141.9,561.9l51.8,80.6c28.8,46,55.6,82.5,61.4,82.5
				C5699.2,4813.8,5733.7,4756.2,5768.2,4685.3z M8247.9,4731.3l51.8-80.6l-141.9-561.9c-76.7-308.8-143.8-565.8-147.7-569.6
				c-3.8-5.7-122.7,107.4-262.8,247.4l-257,257l109.3,69c218.6,140,383.6,329.9,512.1,592.6c34.5,71,69,128.5,74.8,128.5
				C8192.3,4813.8,8219.2,4777.3,8247.9,4731.3z M5250.4,4359.3c11.5-40.3,84.4-335.6,164.9-657.8c78.6-322.2,157.3-615.6,174.5-654
				c46-107.4,163-143.8,272.3-86.3c28.8,15.4,258.9,235.9,512.1,489l460.3,462.2H6940h103.6l490.9-489
				c462.2-458.4,496.7-489,561.9-489c84.4,0,151.5,28.8,182.2,76.7c11.5,21.1,99.7,343.3,193.7,719.2s176.4,688.5,182.2,694.3
				c11.5,11.5,525.5-141.9,569.6-168.8c15.4-9.6,11.5-88.2-17.2-287.7c-76.7-531.2-88.2-696.2-90.1-1254.2
				c0-598.4,19.2-780.6,115.1-1167.9l47.9-187.9l9.6-2357l7.7-2357h-2359h-2357v2330.1c0,2312.9,0,2332,40.3,2408.8
				c243.6,481.4,268.5,1469,63.3,2594.8c-24.9,145.8-44.1,270.4-38.4,274.3c13.4,13.4,515.9,174.5,552.3,176.4
				C5221.6,4430.2,5237,4407.2,5250.4,4359.3z M4293.4,3956.5c95.9-548.5,134.2-943.6,134.2-1371.2c0-538.9-63.3-880.3-193.7-1052.9
				c-174.5-228.2-652.1-1054.8-757.5-1306l-65.2-159.2v-1317.5v-1319.5h-498.6h-500.5l7.7,1375.1l5.8,1377l59.5,211
				c78.6,272.3,249.3,772.9,446.8,1304.1c515.9,1394.3,598.4,1582.2,826.6,1900.6c115.1,161.1,441.1,487.1,485.2,487.1
				C4260.8,4085,4278.1,4040.9,4293.4,3956.5z M9835.9,3918.2c333.7-316.4,515.9-629,782.5-1338.6
				c462.2-1223.6,665.4-1795.1,776.7-2186.3l59.5-211l5.7-1377l7.7-1375.1h-498.6h-500.5l-3.8,1336.7l-5.8,1338.6l-78.6,172.6
				c-90.1,201.4-312.6,594.5-565.8,999.2c-199.5,318.4-228.2,398.9-274.3,765.2c-63.3,496.7-55.6,1022.2,28.8,1685.8
				c42.2,337.5,46,356.7,72.9,356.7C9653.7,4085,9740,4010.2,9835.9,3918.2z"/>
		</g>
	</g>
	<rect x="682" y="83.5" width="24" height="744.1"/>
	<circle class="st0" cx="694" cy="152.6" r="6.2"/>
	<circle class="st0" cx="694" cy="267.4" r="6.2"/>
	<circle class="st0" cx="694" cy="382.3" r="6.2"/>
	<circle class="st0" cx="694" cy="497.1" r="6.2"/>
	<circle class="st0" cx="694" cy="611.9" r="6.2"/>
	<circle class="st0" cx="694" cy="726.8" r="6.2"/>
</g>
</svg>
