<?xml version="1.0" encoding="utf-8"?>
<!-- Generator: Adobe Illustrator 19.0.0, SVG Export Plug-In . SVG Version: 6.00 Build 0)  -->
<svg version="1.1" id="Layer_1" xmlns="http://www.w3.org/2000/svg" xmlns:xlink="http://www.w3.org/1999/xlink" x="0px" y="0px"
	 viewBox="-71 145 144 144" style="enable-background:new -71 145 144 144;" xml:space="preserve">
<style type="text/css">
	.st0{fill:#010101;}
</style>
<g>
	<g id="XMLID_1_">
		<g id="XMLID_2_">
			<g id="XMLID_3_" transform="translate(0.000000,511.000000) scale(0.100000,-0.100000)">
				<path id="XMLID_9_" class="st0" d="M-93.3,3584.8c-11.4-6.9-16.5-19.7-16.5-41.2v-17.3h10.6h10.6v-50.5v-50.5h63.8H39v50.5v50.5
					h10.6h10.6v18.1c0,22-5.6,34.5-18.6,40.9c-8,4.3-17.5,4.8-67.7,4.8C-80,3590.1-85.3,3589.6-93.3,3584.8z"/>
				<path id="XMLID_8_" class="st0" d="M92.1,3533.8l0.3-24.7l18.6-13c25.8-18.3,58.2-52.9,67.7-72c6.6-13.8,7.7-18.6,7.4-37.2
					c-0.5-23.4-8.5-52.3-23.6-85.5l-8.8-18.9l9.3-25c5-13.5,9.6-25,10.1-25.5s8.5,15.1,18.3,34.5c31.6,64.3,42.5,106.3,36.1,140.8
					c-6.6,38-33.7,77.8-75.2,110.5c-17.3,13.5-56.1,40.4-58.7,40.4C92.9,3558.3,92.1,3547.1,92.1,3533.8z"/>
				<path id="XMLID_4_" class="st0" d="M-97.3,3373.9c-51.3-21.3-90.3-82.1-96.4-149c-1.1-14.1,0.8-34.5,8-83.7
					c18.6-129.1,25.2-246,20.5-357.3c-2.4-55.5-16.7-233.2-23.1-284.8l-1.6-14.1h166.3H143l-1.6,12.8
					c-2.1,18.3-16.5,173.5-20.5,219.7c-4,51-4,211.2,0,263c4.5,55.3,10.4,107.9,17,150.1c10.1,65.6,6.9,105.5-12,151.4
					c-17.8,43.3-44.9,77-72.3,90.6c-12.8,6.1-15.7,6.4-74.4,7.2C-80,3380.3-82.4,3380-97.3,3373.9z M54.1,2691.7
					c4-4.5,6.1-11.4,7.4-24.7c2.7-27.6,5.3-36.4,24.2-76.2c9.3-19.9,17-39.6,17-43.3s-2.9-9.8-6.6-13.3c-6.1-6.4-8.2-6.6-35.9-6.6
					c-16.2,0-31.6,1.1-34.3,2.7c-8.2,4.3-12.2,17.3-8.2,26.6c4,9.6,9.8,13.3,21,13.3h8.2l-7.7,15.4c-11.7,23.1-19.1,49.9-20.7,74.9
					c-1.3,20.5-0.8,23.4,4.5,30C30.5,2700,45.9,2700.5,54.1,2691.7z M-10.1,2563.4c13.3-13,4-35.9-14.6-35.9
					c-10.6,0-21.3,10.4-21.3,20.7C-46,2568-23.7,2577.3-10.1,2563.4z"/>
			</g>
		</g>
	</g>
	<g>
		<path d="M-20.6,275.5c0.5,0.3,1.2,0.5,2,0.5c0.8,0,1.3-0.3,1.3-0.9c0-0.5-0.4-0.8-1.4-1.1c-1.3-0.5-2.2-1.2-2.2-2.4
			c0-1.4,1.2-2.4,3.1-2.4c0.9,0,1.6,0.2,2.1,0.4l-0.4,1.5c-0.3-0.2-0.9-0.4-1.7-0.4s-1.2,0.4-1.2,0.8c0,0.5,0.5,0.7,1.5,1.1
			c1.4,0.5,2.1,1.3,2.1,2.4c0,1.4-1,2.5-3.3,2.5c-0.9,0-1.8-0.3-2.3-0.5L-20.6,275.5z"/>
		<path d="M-12.3,269.3v8.1h-1.8v-8.1H-12.3z"/>
		<path d="M-10.7,269.4c0.6-0.1,1.4-0.2,2.5-0.2c1.1,0,1.9,0.2,2.5,0.6c0.5,0.4,0.9,1.1,0.9,1.9c0,0.8-0.3,1.5-0.7,1.9
			c-0.6,0.6-1.5,0.9-2.6,0.9c-0.2,0-0.5,0-0.6,0v2.9h-1.8V269.4z M-8.9,273c0.2,0,0.3,0,0.6,0c1,0,1.6-0.5,1.6-1.3
			c0-0.7-0.5-1.2-1.4-1.2c-0.4,0-0.6,0-0.8,0.1V273z"/>
		<path d="M-3.7,269.4c0.6-0.1,1.4-0.2,2.5-0.2c1.1,0,1.9,0.2,2.5,0.6c0.5,0.4,0.9,1.1,0.9,1.9c0,0.8-0.3,1.5-0.7,1.9
			c-0.6,0.6-1.5,0.9-2.6,0.9c-0.2,0-0.5,0-0.6,0v2.9h-1.8V269.4z M-1.9,273c0.2,0,0.3,0,0.6,0c1,0,1.6-0.5,1.6-1.3
			c0-0.7-0.5-1.2-1.4-1.2c-0.4,0-0.6,0-0.8,0.1V273z"/>
		<path d="M8,273.9h-3v1.9h3.3v1.5H3.2v-8.1h5v1.5H5.1v1.7h3V273.9z"/>
		<path d="M9.6,269.4c0.6-0.1,1.5-0.2,2.4-0.2c1.2,0,2,0.2,2.6,0.6c0.5,0.4,0.7,0.9,0.7,1.7c0,1-0.7,1.7-1.4,2v0
			c0.6,0.2,0.9,0.8,1.1,1.5c0.3,0.9,0.5,2,0.7,2.3h-1.9c-0.1-0.2-0.3-0.9-0.6-1.9c-0.2-1-0.6-1.3-1.3-1.3h-0.6v3.2H9.6V269.4z
			 M11.5,272.9h0.7c0.9,0,1.5-0.5,1.5-1.2c0-0.7-0.5-1.1-1.3-1.1c-0.4,0-0.7,0-0.8,0.1V272.9z"/>
	</g>
</g>
</svg>
