<?xml version="1.0" encoding="utf-8"?>
<!-- Generator: Adobe Illustrator 19.0.0, SVG Export Plug-In . SVG Version: 6.00 Build 0)  -->
<svg version="1.1" id="Layer_1" xmlns="http://www.w3.org/2000/svg" xmlns:xlink="http://www.w3.org/1999/xlink" x="0px" y="0px"
	 viewBox="0 0 144 144" style="enable-background:new 0 0 144 144;" xml:space="preserve">
<style type="text/css">
	.st0{fill:#010101;}
</style>
<g id="XMLID_1_">
	<g id="XMLID_2_">
		<g id="XMLID_3_" transform="translate(0.000000,511.000000) scale(0.100000,-0.100000)">
			<path id="XMLID_9_" class="st0" d="M609,4937.2c-11.4-6.9-16.5-19.7-16.5-41.2v-17.3h10.6h10.6v-50.5v-50.5h63.8h63.8v50.5v50.5
				h10.6h10.6v18.1c0,22-5.6,34.5-18.6,40.9c-8,4.3-17.5,4.8-67.7,4.8C622.3,4942.5,617,4942,609,4937.2z"/>
			<path id="XMLID_8_" class="st0" d="M794.4,4886.2l0.3-24.7l18.6-13c25.8-18.3,58.2-52.9,67.7-72c6.6-13.8,7.7-18.6,7.4-37.2
				c-0.5-23.4-8.5-52.3-23.6-85.5l-8.8-18.9l9.3-25c5-13.5,9.6-25,10.1-25.5s8.5,15.1,18.3,34.5c31.6,64.3,42.5,106.3,36.1,140.8
				c-6.6,38-33.7,77.8-75.2,110.5c-17.3,13.5-56.1,40.4-58.7,40.4C795.2,4910.7,794.4,4899.5,794.4,4886.2z"/>
			<path id="XMLID_4_" class="st0" d="M605,4726.3c-51.3-21.3-90.3-82.1-96.4-149c-1.1-14.1,0.8-34.5,8-83.7
				c18.6-129.1,25.2-246,20.5-357.3c-2.4-55.5-16.7-233.2-23.1-284.8l-1.6-14.1h166.3h166.6l-1.6,12.8
				c-2.1,18.3-16.5,173.5-20.5,219.7c-4,51-4,211.2,0,263c4.5,55.3,10.4,107.9,17,150.1c10.1,65.6,6.9,105.5-12,151.4
				c-17.8,43.3-44.9,77-72.3,90.6c-12.8,6.1-15.7,6.4-74.4,7.2C622.3,4732.7,619.9,4732.4,605,4726.3z M756.4,4044.1
				c4-4.5,6.1-11.4,7.4-24.7c2.7-27.6,5.3-36.4,24.2-76.2c9.3-19.9,17-39.6,17-43.3s-2.9-9.8-6.6-13.3c-6.1-6.4-8.2-6.6-35.9-6.6
				c-16.2,0-31.6,1.1-34.3,2.7c-8.2,4.3-12.2,17.3-8.2,26.6c4,9.6,9.8,13.3,21,13.3h8.2l-7.7,15.4c-11.7,23.1-19.1,49.9-20.7,74.9
				c-1.3,20.5-0.8,23.4,4.5,30C732.8,4052.4,748.2,4052.9,756.4,4044.1z M692.2,3915.8c13.3-13,4-35.9-14.6-35.9
				c-10.6,0-21.3,10.4-21.3,20.7C656.3,3920.4,678.6,3929.7,692.2,3915.8z"/>
		</g>
	</g>
</g>
</svg>
