<?xml version="1.0" encoding="utf-8"?>
<!-- Generator: Adobe Illustrator 19.0.0, SVG Export Plug-In . SVG Version: 6.00 Build 0)  -->
<svg version="1.1" id="Layer_1" xmlns="http://www.w3.org/2000/svg" xmlns:xlink="http://www.w3.org/1999/xlink" x="0px" y="0px"
	 viewBox="-219 -184 512 512" style="enable-background:new -219 -184 512 512;" xml:space="preserve">
<style type="text/css">
	.st0{fill-rule:evenodd;clip-rule:evenodd;fill:#BD2F32;}
	.st1{fill:#FFFFFF;}
</style>
<g id="XMLID_29_">
	<rect id="XMLID_28_" x="-219" y="-185" class="st0" width="512" height="512"/>
	<g id="XMLID_30_">
		<rect id="XMLID_31_" x="-146.7" y="254.2" class="st1" width="367.3" height="2.1"/>
	</g>
</g>
<g id="XMLID_1_">
	<g id="XMLID_2_">
		<g id="XMLID_3_" transform="translate(0.000000,511.000000) scale(0.100000,-0.100000)">
			<path id="XMLID_9_" class="st1" d="M-5.4,6622.1c-38.6-23.4-55.8-66.7-55.8-139.4v-58.5h35.9h35.9v-170.9v-170.9h215.9h215.9
				v170.9v170.9h35.9h35.9v61.3c0,74.5-19,116.8-62.9,138.4C424,6638.3,391.9,6640,222,6640C39.6,6640,21.6,6638.3-5.4,6622.1z"/>
			<path id="XMLID_8_" class="st1" d="M622,6449.5l1-83.6l62.9-44c87.3-61.9,197-179,229.1-243.7c22.3-46.7,26.1-62.9,25-125.9
				c-1.7-79.2-28.8-177-79.9-289.4l-29.8-64l31.5-84.6c16.9-45.7,32.5-84.6,34.2-86.3c1.7-1.7,28.8,51.1,61.9,116.8
				c106.9,217.6,143.8,359.8,122.2,476.5c-22.3,128.6-114.1,263.3-254.5,374C767.2,6441,635.9,6532,627.1,6532
				C624.7,6532.4,622,6494.5,622,6449.5z"/>
			<path id="XMLID_4_" class="st1" d="M-19,5908.3c-173.6-72.1-305.6-277.9-326.2-504.3c-3.7-47.7,2.7-116.8,27.1-283.3
				c62.9-436.9,85.3-832.5,69.4-1209.2c-8.1-187.8-56.5-789.2-78.2-963.9l-5.4-47.7h562.8h563.8l-5.4,43.3
				c-7.1,61.9-55.8,587.2-69.4,743.5c-13.5,172.6-13.5,714.8,0,890.1c15.2,187.2,35.2,365.2,57.5,508c34.2,222,23.4,357-40.6,512.4
				c-60.2,146.5-152,260.6-244.7,306.6c-43.3,20.6-53.1,21.7-251.8,24.4C39.6,5930,31.5,5929-19,5908.3z M493.4,3599.5
				c13.5-15.2,20.6-38.6,25-83.6c9.1-93.4,17.9-123.2,81.9-257.9c31.5-67.3,57.5-134,57.5-146.5s-9.8-33.2-22.3-45
				c-20.6-21.7-27.8-22.3-121.5-22.3c-54.8,0-106.9,3.7-116.1,9.1c-27.8,14.6-41.3,58.5-27.8,90c13.5,32.5,33.2,45,71.1,45h27.8
				l-26.1,52.1c-39.6,78.2-64.6,168.9-70.1,253.5c-4.4,69.4-2.7,79.2,15.2,101.5C413.5,3627.6,465.7,3629.3,493.4,3599.5z
				 M276.1,3165.3c45-44,13.5-121.5-49.4-121.5c-35.9,0-72.1,35.2-72.1,70.1C154.6,3180.9,230.1,3212.4,276.1,3165.3z"/>
		</g>
	</g>
</g>
<g>
	<path d="M-43.2,299.4c2.2,1.3,5.4,2.2,8.9,2.2s5.8-1.3,5.8-4c0-2.2-1.8-3.6-6.3-4.9c-5.8-2.2-9.8-5.4-9.8-10.7
		c0-6.3,5.4-10.7,13.9-10.7c4,0,7.1,0.9,9.4,1.8l-1.8,6.7c-1.3-0.9-4-1.8-7.6-1.8s-5.4,1.8-5.4,3.6c0,2.2,2.2,3.1,6.7,4.9
		c6.3,2.2,9.4,5.8,9.4,10.7c0,6.3-4.5,11.2-14.7,11.2c-4,0-8-1.3-10.3-2.2L-43.2,299.4z"/>
	<path d="M-6.1,271.7v36.2h-8v-36.2H-6.1z"/>
	<path d="M1,272.1c2.7-0.4,6.3-0.9,11.2-0.9s8.5,0.9,11.2,2.7c2.2,1.8,4,4.9,4,8.5c0,3.6-1.3,6.7-3.1,8.5c-2.7,2.7-6.7,4-11.6,4
		c-0.9,0-2.2,0-2.7,0v13h-8v-35.7H1z M9.1,288.2c0.9,0,1.3,0,2.7,0c4.5,0,7.1-2.2,7.1-5.8c0-3.1-2.2-5.4-6.3-5.4
		c-1.8,0-2.7,0-3.6,0.4V288.2z"/>
	<path d="M32.3,272.1c2.7-0.4,6.3-0.9,11.2-0.9s8.5,0.9,11.2,2.7c2.2,1.8,4,4.9,4,8.5c0,3.6-1.3,6.7-3.1,8.5c-2.7,2.7-6.7,4-11.6,4
		c-0.9,0-2.2,0-2.7,0v13h-8v-35.7H32.3z M40.4,288.2c0.9,0,1.3,0,2.7,0c4.5,0,7.1-2.2,7.1-5.8c0-3.1-2.2-5.4-6.3-5.4
		c-1.8,0-2.7,0-3.6,0.4C40.4,277.5,40.4,288.2,40.4,288.2z"/>
	<path d="M84.6,292.2H71.2v8.5h14.7v6.7H63.1v-36.2h22.3v6.7H71.6v7.6H85v6.7H84.6z"/>
	<path d="M91.7,272.1c2.7-0.4,6.7-0.9,10.7-0.9c5.4,0,8.9,0.9,11.6,2.7c2.2,1.8,3.1,4,3.1,7.6c0,4.5-3.1,7.6-6.3,8.9l0,0
		c2.7,0.9,4,3.6,4.9,6.7c1.3,4,2.2,8.9,3.1,10.3h-8.5c-0.4-0.9-1.3-4-2.7-8.5c-0.9-4.5-2.7-5.8-5.8-5.8h-2.7v14.3h-7.6V272.1z
		 M100.2,287.8h3.1c4,0,6.7-2.2,6.7-5.4c0-3.1-2.2-4.9-5.8-4.9c-1.8,0-3.1,0-3.6,0.4v9.8H100.2z"/>
</g>
<g>
	<path class="st1" d="M-48.9,299.4c2.2,1.3,5.4,2.2,8.9,2.2c3.6,0,5.8-1.3,5.8-4c0-2.2-1.8-3.6-6.3-4.9c-5.8-2.2-9.8-5.4-9.8-10.7
		c0-6.3,5.4-10.7,13.9-10.7c4,0,7.1,0.9,9.4,1.8l-1.8,6.7c-1.3-0.9-4-1.8-7.6-1.8s-5.4,1.8-5.4,3.6c0,2.2,2.2,3.1,6.7,4.9
		c6.3,2.2,9.4,5.8,9.4,10.7c0,6.3-4.5,11.2-14.7,11.2c-4,0-8-1.3-10.3-2.2L-48.9,299.4z"/>
	<path class="st1" d="M-11.8,271.7v36.2h-8v-36.2H-11.8z"/>
	<path class="st1" d="M-4.6,272.1c2.7-0.4,6.3-0.9,11.2-0.9s8.5,0.9,11.2,2.7c2.2,1.8,4,4.9,4,8.5c0,3.6-1.3,6.7-3.1,8.5
		c-2.7,2.7-6.7,4-11.6,4c-0.9,0-2.2,0-2.7,0v13h-8v-35.7H-4.6z M3.4,288.2c0.9,0,1.3,0,2.7,0c4.5,0,7.1-2.2,7.1-5.8
		c0-3.1-2.2-5.4-6.3-5.4c-1.8,0-2.7,0-3.6,0.4V288.2z"/>
	<path class="st1" d="M26.6,272.1c2.7-0.4,6.3-0.9,11.2-0.9s8.5,0.9,11.2,2.7c2.2,1.8,4,4.9,4,8.5c0,3.6-1.3,6.7-3.1,8.5
		c-2.7,2.7-6.7,4-11.6,4c-0.9,0-2.2,0-2.7,0v13h-8v-35.7H26.6z M34.7,288.2c0.9,0,1.3,0,2.7,0c4.5,0,7.1-2.2,7.1-5.8
		c0-3.1-2.2-5.4-6.3-5.4c-1.8,0-2.7,0-3.6,0.4C34.7,277.5,34.7,288.2,34.7,288.2z"/>
	<path class="st1" d="M78.9,292.2H65.5v8.5h14.7v6.7H57.5v-36.2h22.3v6.7H66v7.6h13.4v6.7H78.9z"/>
	<path class="st1" d="M86.1,272.1c2.7-0.4,6.7-0.9,10.7-0.9c5.4,0,8.9,0.9,11.6,2.7c2.2,1.8,3.1,4,3.1,7.6c0,4.5-3.1,7.6-6.3,8.9
		l0,0c2.7,0.9,4,3.6,4.9,6.7c1.3,4,2.2,8.9,3.1,10.3h-8.5c-0.4-0.9-1.3-4-2.7-8.5c-0.9-4.5-2.7-5.8-5.8-5.8h-2.7v14.3h-7.6V272.1z
		 M94.6,287.8h3.1c4,0,6.7-2.2,6.7-5.4c0-3.1-2.2-4.9-5.8-4.9c-1.8,0-3.1,0-3.6,0.4v9.8H94.6z"/>
</g>
</svg>
