<?xml version="1.0" encoding="utf-8"?>
<!-- Generator: Adobe Illustrator 19.0.0, SVG Export Plug-In . SVG Version: 6.00 Build 0)  -->
<svg version="1.1" id="Layer_1" xmlns="http://www.w3.org/2000/svg" xmlns:xlink="http://www.w3.org/1999/xlink" x="0px" y="0px"
	 viewBox="248 -184 512 512" style="enable-background:new 248 -184 512 512;" xml:space="preserve">
<style type="text/css">
	.st0{fill-rule:evenodd;clip-rule:evenodd;fill:#BD2F32;}
	.st1{fill:#FFFFFF;}
</style>
<g id="XMLID_29_">
	<rect id="XMLID_28_" x="247" y="-185" class="st0" width="512" height="512"/>
	<g id="XMLID_30_">
		<rect id="XMLID_31_" x="319.3" y="254.2" class="st1" width="367.3" height="2.1"/>
	</g>
</g>
<g>
	<path class="st1" d="M417.9,122.2c-3.5-0.9-4.5-3.3-4.4-6.7c0.1-6.1,0.1-12.2,0.1-18.4c0-12.5-0.1-25,0-37.5c0-2.9-0.6-4.3-3.9-4
		c-3.5,0.3-7-0.2-10.5,0.1c-3,0.3-3.9-1.3-4.1-3.7s-0.3-4.9,3.1-5.1c4-0.2,8-0.4,12-0.3c2.6,0.1,3.5-0.9,3.4-3.5
		c-0.1-7.2,0.1-14.3-0.1-21.5c-0.1-3.5,1-5.8,4.4-6.8c4.2,0.4,4.7,3.3,5.2,6.7c1.1,8.3,7.3,13.3,15.7,13.6c3.8,0.1,4.4-1.4,4.1-4.6
		c-1.1-12.8-11.4-22.4-25-23.1c-2.9-0.8-4.8-2.5-4.2-5.7c0.7-3.3,3.3-3.6,6.2-3.6c30.7,0,61.5-0.1,92.2-0.1c3,0,4.8,1.6,5.8,4.4
		c-0.8,3.7-3.1,4.9-6.8,4.9c-21.3-0.1-42.6-0.1-63.9,0c-1.6,0-3.1,0-5.6,0c6.3,7,10.2,14.1,10.4,22.5c0.3,10.8,0.1,21.6,0.1,32.4
		c0,3.1-1.3,5.2-4.6,5.2c-3.4,0-4.5-2.2-4.5-5.3c0-4.8,0-9.6,0-14.5c0-1.9-0.1-3.4-2.6-3.1c-6.1,0.6-11.7-1.2-16.9-4.4
		c-1.2,2-0.7,3.9-0.7,5.6c-0.1,22.8-0.1,45.6-0.1,68.4C422.7,117.9,422.4,121.2,417.9,122.2z"/>
	<path class="st1" d="M598.9-89.5c5.3,11.2,6.7,23.1,6.4,35.4c-0.4,13.8-0.1,27.6-0.1,41.4c0,3.3,0.8,7.3-4.3,7.3
		c-4.7,0-4.7-3.8-4.7-7.2c0-16.5,0-33,0-49.4c0-6.9-1.2-13.5-4.3-19.8c-7.5-20-28.2-33.7-51.3-33.8c-15.2-0.1-30.3-0.1-45.5,0
		c-3.3,0-6.4-0.3-6.4-4.4c0-3.9,2.9-4.7,6.3-4.7c17.8,0.3,35.7-1.1,53.4,0.7c21.9,2.2,38.2,13.5,49.2,32.4
		C598-90.9,598.5-90.2,598.9-89.5z"/>
	<path class="st1" d="M565-57.8c-2.6,11.4-9.2,18.8-20.9,21.2c-29.6,0-59.3,0-88.9,0c-0.8,0-1.7,0-2.5,0c-3-0.1-4.6-1.7-4.6-4.7
		c0-2.9,1.9-4.2,4.5-4.3c3.3-0.1,6.7,0,10,0c25.6,0,51.3,0.1,76.9,0c11.3,0,18.7-9.5,15.6-19.6c-1.9-6-7.3-10.4-13.7-10.6
		c-4.7-0.2-9.3,0-14-0.1c-3,0-5.3-1-5.3-4.5s2.2-4.5,5.3-4.5c3.2,0,6.4,0.3,9.5,0C553-86.6,565.6-75.3,565-57.8z"/>
	<path class="st1" d="M490.4-76c-5.8-0.5-12.8,0.8-19.7-0.8c-11.8-2.8-19.9-14-18.4-26c1.8-14.5,10.1-20.4,22.9-21.8
		c3-0.3,5.5,1,5.7,4.2c0.2,3.2-1.9,4.4-5,4.9c-11.4,1.9-17.5,11.1-13.5,20.7c2.7,6.5,7.9,9.7,14.9,9.7c9.7,0.1,19.3,0.1,29,0
		c3.3,0,6.5,0.3,6.5,4.3c0.1,4.2-3.1,4.9-6.6,4.8C501.2-76.1,496.4-76,490.4-76z"/>
	<path class="st1" d="M395.2,3.2c0-9.5-0.4-19,0.1-28.5c0.6-12.5,11.9-20.4,23.7-20.4c2.8,0,4.5,1.7,4.7,4.2
		c0.2,2.9-1.6,4.4-4.5,4.8c-10.9,1.8-15.1,6.8-15.1,17.9c0,16.3,0,32.6,0,49c0,2.3,0.2,4.8-2.6,5.9c-4.1,1.6-6.4,0-6.4-4.5
		c-0.1-9.5,0-19,0-28.5C395.1,3.2,395.2,3.2,395.2,3.2z"/>
	<path d="M417.9,7.4c13.5,0.7,23.9,10.3,25,23.1c0.3,3.2-0.3,4.7-4.1,4.6c-8.4-0.2-14.6-5.2-15.7-13.6c-0.5-3.3-1-6.3-5.2-6.7
		C417.9,12.4,417.9,9.9,417.9,7.4z"/>
	<path class="st1" d="M436.7-36.7c-3.5,0-5.1-1.6-5.3-4.2c-0.1-2.9,1.6-4.8,4.6-4.7c2.6,0.1,4.2,1.6,4.2,4.4
		C440.3-38.3,438.6-37.1,436.7-36.7z"/>
	<path d="M417.9,122.2c4.4-1,4.8-4.4,4.8-8.1c0-22.8,0-45.6,0.1-68.4c0-1.8-0.5-3.6,0.7-5.6c5.2,3.2,10.8,4.9,16.9,4.4
		c2.5-0.2,2.6,1.3,2.6,3.1c-0.1,4.8,0,9.6,0,14.5c0,3.1,1.1,5.3,4.5,5.3s4.6-2.1,4.6-5.2c0-10.8,0.2-21.6-0.1-32.4
		c-0.3-8.4-4.2-15.5-10.4-22.5c2.4,0,4,0,5.6,0c21.3,0,42.6-0.1,63.9,0c3.7,0,6.1-1.1,6.8-4.9c5.1,0,10.1,0,15.2-0.1
		c0.5,4,3,5,6.7,4.9c12.5-0.1,24.9-0.1,37.4,0c2.1,0,4.3,0.1,6.4,0.5c12.9,2.9,20.3,12.8,20.4,27.5c0.1,21.3,0,42.5-0.1,63.8
		c0,3.3,0.5,6,4.4,6.6c0,2.7,0,5.5,0,8.2c-10.2,0.1-20.3,0.2-30.5,0.2c-3.6,0-8.4,1.2-10.6-0.6c-2.7-2.2-0.6-7.2-1-10.9
		c0-0.3,0-0.7,0-1c0.1-3.3-1.6-5-4.8-5.1c-7.7-0.1-15.3-0.1-23,0c-2.9,0-5,1.4-5,4.4c0,3.3,2,4.6,5.2,4.6c5-0.1,10,0.1,15-0.1
		c2.9-0.1,3.7,0.9,3.6,3.7c-0.2,4.7-0.4,9.4,0,14c0.5,5.2-1.2,6.7-6.4,6.5c-8.4-0.5-8.4-0.1-8.5-8.4c-0.1-6.4-0.7-7-7.3-7
		c-18.5,0-37,0.1-55.5,0c-12.6,0-22-6.3-25.8-16.8c-1-2.8-1.5-5.8-1.6-8.8c-0.1-2.8-2.1-4.2-4.7-4.2c-2.8,0-4.3,1.8-4.3,4.5
		c-0.1,2,0,4,0.4,6c3.3,17.1,17,28.4,34.7,28.5c15.2,0.1,30.3,0,45.5,0c9.2,0,9.3,0,9.4,9.3c0,4.6,2,6.3,6.4,6.1
		c5-0.2,10-0.3,15-0.1c11.3,0.3,12.3,1.2,11.8-11.5c0-0.5,0-1,0-1.5c-0.1-1.8,0.8-2.1,2.4-2.3c3.8-0.4,6.1,0.3,5.4,4.9
		c-0.4,2.8-0.1,5.7-0.1,8.5c0,21.6-15,36.9-36.6,37c-25.8,0.1-51.6,0.2-77.5,0.1c-20.9,0-35.3-13.1-37.1-33.9
		c-0.3-3.4-1.4-5.7-4.8-6.6C417.9,129.5,417.9,125.9,417.9,122.2z"/>
	<path class="st1" d="M417.9,133.2c3.4,0.9,4.5,3.1,4.8,6.6c1.8,20.7,16.2,33.8,37.1,33.9c25.8,0,51.6,0,77.5-0.1
		c21.6-0.1,36.6-15.4,36.6-37c0-2.8-0.3-5.7,0.1-8.5c0.7-4.6-1.6-5.3-5.4-4.9c-1.6,0.2-2.6,0.5-2.4,2.3c0,0.5,0,1,0,1.5
		c0.5,12.7-0.5,11.7-11.8,11.5c-5-0.1-10-0.1-15,0.1c-4.4,0.2-6.4-1.5-6.4-6.1c-0.1-9.3-0.2-9.3-9.4-9.3c-15.2,0-30.3,0.1-45.5,0
		c-17.8-0.2-31.4-11.5-34.7-28.5c-0.4-1.9-0.5-4-0.4-6c0.1-2.7,1.6-4.5,4.3-4.5c2.6,0,4.5,1.4,4.7,4.2c0.1,3,0.6,6,1.6,8.8
		c3.8,10.6,13.2,16.8,25.8,16.8c18.5,0.1,37,0,55.5,0c6.6,0,7.3,0.7,7.3,7c0.1,8.3,0.1,7.9,8.5,8.4c5.2,0.3,7-1.2,6.4-6.5
		c-0.5-4.6-0.2-9.3,0-14c0.1-2.8-0.7-3.8-3.6-3.7c-5,0.2-10,0-15,0.1c-3.2,0-5.2-1.3-5.2-4.6c0-3.1,2.1-4.4,5-4.4
		c7.7-0.1,15.3-0.1,23,0c3.2,0,4.9,1.8,4.8,5.1c0,0.3,0,0.7,0,1c0.4,3.7-1.8,8.7,1,10.9c2.3,1.8,7,0.6,10.6,0.6
		c10.2,0,20.3-0.1,30.5-0.2c2.8,0.4,4.9,1.9,4.3,4.9c-0.5,3-2.4,4.6-5.9,4.4c-6.5-0.3-13,0.1-19.4-0.2c-3.2-0.1-4.3,0.7-4.2,4.1
		c0.3,8.4,0.5,16.9-1.9,25.2c-5.2,13.6-14.5,23.2-28.3,28.4c-5.6,1.8-11.3,2.2-17.1,2.2c-25.8,0-51.5,0.1-77.3,0
		c-23.9-0.1-42.8-17.3-44.9-40.7C413.3,138.1,413.3,134.5,417.9,133.2z"/>
	<path class="st1" d="M608.2,105.6c-3.9-0.6-4.4-3.2-4.4-6.6c0.1-21.3,0.1-42.5,0.1-63.8c-0.1-14.7-7.5-24.6-20.4-27.5
		c-2.1-0.5-4.3-0.5-6.4-0.5c-12.5,0-24.9-0.1-37.4,0c-3.7,0-6.2-1-6.7-4.9c0.9-3.3,3.1-4.2,6.4-4.2C552.7-1.8,566-2,579.3-1.8
		c16.8,0.2,30.9,12.8,33,29.5c0.9,7.1,0.5,14.3,0.6,21.4c0,16.3,0,32.6,0,48.9C612.9,101.6,612.6,104.8,608.2,105.6z"/>
</g>
<g>
	<path d="M413.8,296.6c1.8,0.9,4.6,1.9,7.6,1.9c3.2,0,4.8-1.3,4.8-3.3c0-1.9-1.4-3-5.1-4.3c-5-1.8-8.3-4.5-8.3-9
		c0-5.1,4.3-9.1,11.4-9.1c3.4,0,5.9,0.7,7.7,1.5l-1.5,5.5c-1.2-0.6-3.4-1.4-6.4-1.4s-4.4,1.3-4.4,2.9c0,1.9,1.7,2.8,5.6,4.3
		c5.4,2,7.9,4.8,7.9,9c0,5.1-3.9,9.5-12.2,9.5c-3.5,0-6.9-0.9-8.6-1.9L413.8,296.6z"/>
	<path d="M437.4,271.7h6.8v31.9h-6.8V271.7z"/>
	<path d="M456.8,275.5c0,1.9-1.4,3.4-3.7,3.4c-2.2,0-3.6-1.5-3.5-3.4c-0.1-2,1.4-3.5,3.6-3.5S456.8,273.6,456.8,275.5z M449.8,303.6
		v-21.9h6.8v21.9H449.8z"/>
	<path d="M462.1,288.7c0-2.8-0.1-5.1-0.2-7h5.9l0.3,3h0.1c0.9-1.4,3.2-3.5,6.8-3.5c4.5,0,7.9,3,7.9,9.5v13h-6.8v-12.2
		c0-2.8-1-4.8-3.5-4.8c-1.9,0-3,1.3-3.5,2.5c-0.2,0.4-0.3,1.1-0.3,1.7v12.7h-6.8L462.1,288.7L462.1,288.7z"/>
	<path d="M509.2,300.4c0,4.2-0.8,7.7-3.3,9.9c-2.4,2-5.7,2.7-9,2.7c-2.9,0-5.9-0.6-7.9-1.7l1.3-5.1c1.4,0.8,3.8,1.7,6.4,1.7
		c3.2,0,5.7-1.8,5.7-5.8v-1.4h0c-1.3,1.8-3.4,2.9-5.9,2.9c-5.4,0-9.3-4.4-9.3-10.7c0-7.1,4.6-11.6,10-11.6c3,0,4.9,1.3,6,3.1h0.1
		l0.2-2.6h5.9c-0.1,1.4-0.2,3.2-0.2,6.5L509.2,300.4L509.2,300.4z M502.4,290.6c0-0.4-0.1-0.9-0.1-1.3c-0.5-1.8-1.8-3-3.7-3
		c-2.5,0-4.5,2.3-4.5,6.2c0,3.3,1.6,5.9,4.5,5.9c1.8,0,3.2-1.2,3.6-2.8c0.2-0.5,0.2-1.2,0.2-1.8L502.4,290.6L502.4,290.6z"/>
	<path d="M523.9,273.8c1.8-0.4,5.4-0.6,8.8-0.6c4.2,0,6.7,0.4,9,1.7c2.1,1.1,3.6,3.2,3.6,5.9s-1.5,5.2-5,6.5v0.1
		c3.5,0.9,6,3.5,6,7.5c0,2.8-1.3,4.9-3.2,6.4c-2.2,1.8-5.9,2.8-11.9,2.8c-3.4,0-5.9-0.2-7.4-0.4L523.9,273.8L523.9,273.8z
		 M530.7,285.3h2.3c3.6,0,5.5-1.5,5.5-3.7c0-2.3-1.8-3.5-4.9-3.5c-1.5,0-2.3,0.1-2.9,0.2V285.3z M530.7,298.8
		c0.7,0.1,1.5,0.1,2.7,0.1c3.1,0,5.9-1.2,5.9-4.4c0-3-2.8-4.3-6.1-4.3h-2.3L530.7,298.8L530.7,298.8z"/>
	<path d="M569.3,298.3c0,2.1,0.1,4.1,0.3,5.4h-6.1l-0.4-2.2H563c-1.4,1.8-3.7,2.7-6.3,2.7c-4.4,0-7.1-3.2-7.1-6.7
		c0-5.7,5.1-8.5,12.9-8.4v-0.3c0-1.2-0.6-2.8-4-2.8c-2.3,0-4.6,0.8-6.1,1.7l-1.3-4.4c1.5-0.8,4.5-1.9,8.5-1.9c7.3,0,9.7,4.3,9.7,9.5
		L569.3,298.3L569.3,298.3z M562.6,293.2c-3.6-0.1-6.4,0.8-6.4,3.5c0,1.8,1.2,2.6,2.7,2.6c1.7,0,3.1-1.1,3.5-2.5
		c0.1-0.4,0.1-0.8,0.1-1.2L562.6,293.2L562.6,293.2z"/>
	<path d="M595.5,300.4c0,4.2-0.8,7.7-3.3,9.9c-2.4,2-5.7,2.7-9,2.7c-2.9,0-5.9-0.6-7.9-1.7l1.3-5.1c1.4,0.8,3.8,1.7,6.4,1.7
		c3.2,0,5.7-1.8,5.7-5.8v-1.4h-0.1c-1.3,1.8-3.4,2.9-5.9,2.9c-5.4,0-9.3-4.4-9.3-10.7c0-7.1,4.6-11.6,10-11.6c3,0,4.9,1.3,6,3.1h0.1
		l0.2-2.6h5.9c-0.1,1.4-0.2,3.2-0.2,6.5L595.5,300.4L595.5,300.4z M588.6,290.6c0-0.4-0.1-0.9-0.1-1.3c-0.5-1.8-1.8-3-3.7-3
		c-2.5,0-4.5,2.3-4.5,6.2c0,3.3,1.6,5.9,4.5,5.9c1.8,0,3.2-1.2,3.6-2.8c0.2-0.5,0.2-1.2,0.2-1.8V290.6z"/>
</g>
<g>
	<path class="st1" d="M408.1,296.6c1.8,0.9,4.6,1.9,7.6,1.9c3.2,0,4.8-1.3,4.8-3.3c0-1.9-1.4-3-5.1-4.3c-5-1.8-8.3-4.5-8.3-9
		c0-5.1,4.3-9.1,11.4-9.1c3.4,0,5.9,0.7,7.7,1.5l-1.5,5.5c-1.2-0.6-3.4-1.4-6.4-1.4c-3,0-4.4,1.3-4.4,2.9c0,1.9,1.7,2.8,5.6,4.3
		c5.4,2,7.9,4.8,7.9,9c0,5.1-3.9,9.5-12.2,9.5c-3.5,0-6.9-0.9-8.6-1.9L408.1,296.6z"/>
	<path class="st1" d="M431.7,271.7h6.8v31.9h-6.8V271.7z"/>
	<path class="st1" d="M451.1,275.5c0,1.9-1.4,3.4-3.7,3.4c-2.2,0-3.6-1.5-3.5-3.4c-0.1-2,1.4-3.5,3.6-3.5
		C449.7,272.1,451.1,273.6,451.1,275.5z M444.1,303.6v-21.9h6.8v21.9H444.1z"/>
	<path class="st1" d="M456.4,288.7c0-2.8-0.1-5.1-0.2-7h5.9l0.3,3h0.1c0.9-1.4,3.2-3.5,6.8-3.5c4.5,0,7.9,3,7.9,9.5v13h-6.8v-12.2
		c0-2.8-1-4.8-3.5-4.8c-1.9,0-3,1.3-3.5,2.5c-0.2,0.4-0.3,1.1-0.3,1.7v12.7h-6.8L456.4,288.7L456.4,288.7z"/>
	<path class="st1" d="M503.5,300.4c0,4.2-0.8,7.7-3.3,9.9c-2.4,2-5.7,2.7-9,2.7c-2.9,0-5.9-0.6-7.9-1.7l1.3-5.1
		c1.4,0.8,3.8,1.7,6.4,1.7c3.2,0,5.7-1.8,5.7-5.8v-1.4l0,0c-1.3,1.8-3.4,2.9-5.9,2.9c-5.4,0-9.3-4.4-9.3-10.7
		c0-7.1,4.6-11.6,10-11.6c3,0,4.9,1.3,6,3.1h0.1l0.2-2.6h5.9c-0.1,1.4-0.2,3.2-0.2,6.5L503.5,300.4L503.5,300.4z M496.7,290.6
		c0-0.4-0.1-0.9-0.1-1.3c-0.5-1.8-1.8-3-3.7-3c-2.5,0-4.5,2.3-4.5,6.2c0,3.3,1.6,5.9,4.5,5.9c1.8,0,3.2-1.2,3.6-2.8
		c0.2-0.5,0.2-1.2,0.2-1.8V290.6L496.7,290.6z"/>
	<path class="st1" d="M518.3,273.8c1.8-0.4,5.4-0.6,8.8-0.6c4.2,0,6.7,0.4,9,1.7c2.1,1.1,3.6,3.2,3.6,5.9s-1.5,5.2-5,6.5v0.1
		c3.5,0.9,6,3.5,6,7.5c0,2.8-1.3,4.9-3.2,6.4c-2.2,1.8-5.9,2.8-11.9,2.8c-3.4,0-5.9-0.2-7.4-0.4L518.3,273.8L518.3,273.8z
		 M525.1,285.3h2.3c3.6,0,5.5-1.5,5.5-3.7c0-2.3-1.8-3.5-4.9-3.5c-1.5,0-2.3,0.1-2.9,0.2V285.3z M525.1,298.8
		c0.7,0.1,1.5,0.1,2.7,0.1c3.1,0,5.9-1.2,5.9-4.4c0-3-2.8-4.3-6.1-4.3h-2.3L525.1,298.8L525.1,298.8z"/>
	<path class="st1" d="M563.6,298.3c0,2.1,0.1,4.1,0.3,5.4h-6.1l-0.4-2.2h-0.1c-1.4,1.8-3.7,2.7-6.3,2.7c-4.4,0-7.1-3.2-7.1-6.7
		c0-5.7,5.1-8.5,12.9-8.4v-0.3c0-1.2-0.6-2.8-4-2.8c-2.3,0-4.6,0.8-6.1,1.7l-1.3-4.4c1.5-0.8,4.5-1.9,8.5-1.9c7.3,0,9.7,4.3,9.7,9.5
		L563.6,298.3L563.6,298.3z M557,293.2c-3.6-0.1-6.4,0.8-6.4,3.5c0,1.8,1.2,2.6,2.7,2.6c1.7,0,3.1-1.1,3.5-2.5
		c0.1-0.4,0.1-0.8,0.1-1.2V293.2L557,293.2z"/>
	<path class="st1" d="M589.8,300.4c0,4.2-0.8,7.7-3.3,9.9c-2.4,2-5.7,2.7-9,2.7c-2.9,0-5.9-0.6-7.9-1.7l1.3-5.1
		c1.4,0.8,3.8,1.7,6.4,1.7c3.2,0,5.7-1.8,5.7-5.8v-1.4h-0.1c-1.3,1.8-3.4,2.9-5.9,2.9c-5.4,0-9.3-4.4-9.3-10.7
		c0-7.1,4.6-11.6,10-11.6c3,0,4.9,1.3,6,3.1h0.1l0.2-2.6h5.9c-0.1,1.4-0.2,3.2-0.2,6.5V300.4L589.8,300.4z M582.9,290.6
		c0-0.4-0.1-0.9-0.1-1.3c-0.5-1.8-1.8-3-3.7-3c-2.5,0-4.5,2.3-4.5,6.2c0,3.3,1.6,5.9,4.5,5.9c1.8,0,3.2-1.2,3.6-2.8
		c0.2-0.5,0.2-1.2,0.2-1.8V290.6z"/>
</g>
</svg>
