<?xml version="1.0" encoding="utf-8"?>
<!-- Generator: Adobe Illustrator 19.0.0, SVG Export Plug-In . SVG Version: 6.00 Build 0)  -->
<svg version="1.1" id="Layer_1" xmlns="http://www.w3.org/2000/svg" xmlns:xlink="http://www.w3.org/1999/xlink" x="0px" y="0px"
	 viewBox="162 -62 612 556" style="enable-background:new 162 -62 612 556;" xml:space="preserve">
<style type="text/css">
	.st0{fill:#5D5D5D;}
	.st1{fill:#9E9E9E;}
</style>
<g>
	<path class="st0" d="M381.9,231.2c-3.5-0.9-4.5-3.3-4.4-6.7c0.1-6.1,0.1-12.2,0.1-18.4c0-12.5-0.1-25,0-37.5c0-2.9-0.6-4.3-3.9-4
		c-3.5,0.3-7-0.2-10.5,0.1c-3,0.3-3.9-1.3-4.1-3.7c-0.2-2.4-0.3-4.9,3.1-5.1c4-0.2,8-0.4,12-0.3c2.6,0.1,3.5-0.9,3.4-3.5
		c-0.1-7.2,0.1-14.3-0.1-21.5c-0.1-3.5,1-5.8,4.4-6.8c4.2,0.4,4.7,3.3,5.2,6.7c1.1,8.3,7.3,13.3,15.7,13.6c3.8,0.1,4.4-1.4,4.1-4.6
		c-1.1-12.8-11.4-22.4-25-23.1c-2.9-0.8-4.8-2.5-4.2-5.7c0.7-3.3,3.3-3.6,6.2-3.6c30.7,0,61.5-0.1,92.2-0.1c3,0,4.8,1.6,5.8,4.4
		c-0.8,3.7-3.1,4.9-6.8,4.9c-21.3-0.1-42.6-0.1-63.9,0c-1.6,0-3.1,0-5.6,0c6.3,7,10.2,14.1,10.4,22.5c0.3,10.8,0.1,21.6,0.1,32.4
		c0,3.1-1.3,5.2-4.6,5.2c-3.4,0-4.5-2.2-4.5-5.3c0-4.8,0-9.6,0-14.5c0-1.9-0.1-3.4-2.6-3.1c-6.1,0.6-11.7-1.2-16.9-4.4
		c-1.2,2-0.7,3.9-0.7,5.6c-0.1,22.8-0.1,45.6-0.1,68.4C386.7,226.9,386.4,230.2,381.9,231.2z"/>
	<path class="st0" d="M562.9,19.5c5.3,11.2,6.7,23.1,6.4,35.4c-0.4,13.8-0.1,27.6-0.1,41.4c0,3.3,0.8,7.3-4.3,7.3
		c-4.7,0-4.7-3.8-4.7-7.2c0-16.5,0-33,0-49.4c0-6.9-1.2-13.5-4.3-19.8c-7.5-20-28.2-33.7-51.3-33.8c-15.2-0.1-30.3-0.1-45.5,0
		c-3.3,0-6.4-0.3-6.4-4.4c0-3.9,2.9-4.7,6.3-4.7c17.8,0.3,35.7-1.1,53.4,0.7c21.9,2.2,38.2,13.5,49.2,32.4
		C562,18.1,562.5,18.8,562.9,19.5z"/>
	<path class="st0" d="M529,51.2c-2.6,11.4-9.2,18.8-20.9,21.2c-29.6,0-59.3,0-88.9,0c-0.8,0-1.7,0-2.5,0c-3-0.1-4.6-1.7-4.6-4.7
		c0-2.9,1.9-4.2,4.5-4.3c3.3-0.1,6.7,0,10,0c25.6,0,51.3,0.1,76.9,0c11.3,0,18.7-9.5,15.6-19.6c-1.9-6-7.3-10.4-13.7-10.6
		c-4.7-0.2-9.3,0-14-0.1c-3,0-5.3-1-5.3-4.5s2.2-4.5,5.3-4.5c3.2,0,6.4,0.3,9.5,0C517,22.4,529.6,33.7,529,51.2z"/>
	<path class="st0" d="M454.4,33c-5.8-0.5-12.8,0.8-19.7-0.8c-11.8-2.8-19.9-14-18.4-26c1.8-14.5,10.1-20.4,22.9-21.8
		c3-0.3,5.5,1,5.7,4.2s-1.9,4.4-5,4.9c-11.4,1.9-17.5,11.1-13.5,20.7c2.7,6.5,7.9,9.7,14.9,9.7c9.7,0.1,19.3,0.1,29,0
		c3.3,0,6.5,0.3,6.5,4.3c0.1,4.2-3.1,4.9-6.6,4.8C465.2,32.9,460.4,33,454.4,33z"/>
	<path class="st0" d="M359.2,112.2c0-9.5-0.4-19,0.1-28.5c0.6-12.5,11.9-20.4,23.7-20.4c2.8,0,4.5,1.7,4.7,4.2
		c0.2,2.9-1.6,4.4-4.5,4.8c-10.9,1.8-15.1,6.8-15.1,17.9c0,16.3,0,32.6,0,49c0,2.3,0.2,4.8-2.6,5.9c-4.1,1.6-6.4,0-6.4-4.5
		c-0.1-9.5,0-19,0-28.5C359.1,112.2,359.2,112.2,359.2,112.2z"/>
	<path class="st1" d="M381.9,116.4c13.5,0.7,23.9,10.3,25,23.1c0.3,3.2-0.3,4.7-4.1,4.6c-8.4-0.2-14.6-5.2-15.7-13.6
		c-0.5-3.3-1-6.3-5.2-6.7C381.9,121.4,381.9,118.9,381.9,116.4z"/>
	<path class="st0" d="M400.7,72.3c-3.5,0-5.1-1.6-5.3-4.2c-0.1-2.9,1.6-4.8,4.6-4.7c2.6,0.1,4.2,1.6,4.2,4.4
		C404.3,70.7,402.6,71.9,400.7,72.3z"/>
	<path class="st1" d="M381.9,231.2c4.4-1,4.8-4.4,4.8-8.1c0-22.8,0-45.6,0.1-68.4c0-1.8-0.5-3.6,0.7-5.6c5.2,3.2,10.8,4.9,16.9,4.4
		c2.5-0.2,2.6,1.3,2.6,3.1c-0.1,4.8,0,9.6,0,14.5c0,3.1,1.1,5.3,4.5,5.3s4.6-2.1,4.6-5.2c0-10.8,0.2-21.6-0.1-32.4
		c-0.3-8.4-4.2-15.5-10.4-22.5c2.4,0,4,0,5.6,0c21.3,0,42.6-0.1,63.9,0c3.7,0,6.1-1.1,6.8-4.9c5.1,0,10.1,0,15.2-0.1
		c0.5,4,3,5,6.7,4.9c12.5-0.1,24.9-0.1,37.4,0c2.1,0,4.3,0.1,6.4,0.5c12.9,2.9,20.3,12.8,20.4,27.5c0.1,21.3,0,42.5-0.1,63.8
		c0,3.3,0.5,6,4.4,6.6c0,2.7,0,5.5,0,8.2c-10.2,0.1-20.3,0.2-30.5,0.2c-3.6,0-8.4,1.2-10.6-0.6c-2.7-2.2-0.6-7.2-1-10.9
		c0-0.3,0-0.7,0-1c0.1-3.3-1.6-5-4.8-5.1c-7.7-0.1-15.3-0.1-23,0c-2.9,0-5,1.4-5,4.4c0,3.3,2,4.6,5.2,4.6c5-0.1,10,0.1,15-0.1
		c2.9-0.1,3.7,0.9,3.6,3.7c-0.2,4.7-0.4,9.4,0,14c0.5,5.2-1.2,6.7-6.4,6.5c-8.4-0.5-8.4-0.1-8.5-8.4c-0.1-6.4-0.7-7-7.3-7
		c-18.5,0-37,0.1-55.5,0c-12.6,0-22-6.3-25.8-16.8c-1-2.8-1.5-5.8-1.6-8.8c-0.1-2.8-2.1-4.2-4.7-4.2c-2.8,0-4.3,1.8-4.3,4.5
		c-0.1,2,0,4,0.4,6c3.3,17.1,17,28.4,34.7,28.5c15.2,0.1,30.3,0,45.5,0c9.2,0,9.3,0,9.4,9.3c0,4.6,2,6.3,6.4,6.1
		c5-0.2,10-0.3,15-0.1c11.3,0.3,12.3,1.2,11.8-11.5c0-0.5,0-1,0-1.5c-0.1-1.8,0.8-2.1,2.4-2.3c3.8-0.4,6.1,0.3,5.4,4.9
		c-0.4,2.8-0.1,5.7-0.1,8.5c0,21.6-15,36.9-36.6,37c-25.8,0.1-51.6,0.2-77.5,0.1c-20.9,0-35.3-13.1-37.1-33.9
		c-0.3-3.4-1.4-5.7-4.8-6.6C381.9,238.5,381.9,234.9,381.9,231.2z"/>
	<path class="st0" d="M381.9,242.2c3.4,0.9,4.5,3.1,4.8,6.6c1.8,20.7,16.2,33.8,37.1,33.9c25.8,0,51.6,0,77.5-0.1
		c21.6-0.1,36.6-15.4,36.6-37c0-2.8-0.3-5.7,0.1-8.5c0.7-4.6-1.6-5.3-5.4-4.9c-1.6,0.2-2.6,0.5-2.4,2.3c0,0.5,0,1,0,1.5
		c0.5,12.7-0.5,11.7-11.8,11.5c-5-0.1-10-0.1-15,0.1c-4.4,0.2-6.4-1.5-6.4-6.1c-0.1-9.3-0.2-9.3-9.4-9.3c-15.2,0-30.3,0.1-45.5,0
		c-17.8-0.2-31.4-11.5-34.7-28.5c-0.4-1.9-0.5-4-0.4-6c0.1-2.7,1.6-4.5,4.3-4.5c2.6,0,4.5,1.4,4.7,4.2c0.1,3,0.6,6,1.6,8.8
		c3.8,10.6,13.2,16.8,25.8,16.8c18.5,0.1,37,0,55.5,0c6.6,0,7.3,0.7,7.3,7c0.1,8.3,0.1,7.9,8.5,8.4c5.2,0.3,7-1.2,6.4-6.5
		c-0.5-4.6-0.2-9.3,0-14c0.1-2.8-0.7-3.8-3.6-3.7c-5,0.2-10,0-15,0.1c-3.2,0-5.2-1.3-5.2-4.6c0-3.1,2.1-4.4,5-4.4
		c7.7-0.1,15.3-0.1,23,0c3.2,0,4.9,1.8,4.8,5.1c0,0.3,0,0.7,0,1c0.4,3.7-1.8,8.7,1,10.9c2.3,1.8,7,0.6,10.6,0.6
		c10.2,0,20.3-0.1,30.5-0.2c2.8,0.4,4.9,1.9,4.3,4.9c-0.5,3-2.4,4.6-5.9,4.4c-6.5-0.3-13,0.1-19.4-0.2c-3.2-0.1-4.3,0.7-4.2,4.1
		c0.3,8.4,0.5,16.9-1.9,25.2c-5.2,13.6-14.5,23.2-28.3,28.4c-5.6,1.8-11.3,2.2-17.1,2.2c-25.8,0-51.5,0.1-77.3,0
		c-23.9-0.1-42.8-17.3-44.9-40.7C377.3,247.1,377.3,243.5,381.9,242.2z"/>
	<path class="st0" d="M572.2,214.6c-3.9-0.6-4.4-3.2-4.4-6.6c0.1-21.3,0.1-42.5,0.1-63.8c-0.1-14.7-7.5-24.6-20.4-27.5
		c-2.1-0.5-4.3-0.5-6.4-0.5c-12.5,0-24.9-0.1-37.4,0c-3.7,0-6.2-1-6.7-4.9c0.9-3.3,3.1-4.2,6.4-4.2c13.3,0.1,26.6-0.1,39.9,0.1
		c16.8,0.2,30.9,12.8,33,29.5c0.9,7.1,0.5,14.3,0.6,21.4c0,16.3,0,32.6,0,48.9C576.9,210.6,576.6,213.8,572.2,214.6z"/>
</g>
<g>
	<path d="M304.8,370.4c3.3,1.7,8.4,3.4,13.7,3.4c5.7,0,8.7-2.4,8.7-5.9c0-3.4-2.6-5.4-9.2-7.7c-9.1-3.2-15-8.2-15-16.2
		c0-9.3,7.8-16.5,20.7-16.5c6.2,0,10.7,1.3,14,2.8l-2.8,10c-2.2-1.1-6.1-2.6-11.5-2.6c-5.4,0-8,2.4-8,5.3c0,3.5,3.1,5,10.2,7.7
		c9.7,3.6,14.2,8.6,14.2,16.3c0,9.2-7.1,17.1-22.1,17.1c-6.3,0-12.4-1.7-15.5-3.4L304.8,370.4z"/>
	<path d="M347.5,325.5h12.3v57.7h-12.3V325.5z"/>
	<path d="M382.6,332.4c0,3.4-2.6,6.2-6.7,6.2c-3.9,0-6.5-2.8-6.4-6.2c-0.1-3.6,2.5-6.3,6.5-6.3S382.5,328.8,382.6,332.4z
		 M369.9,383.2v-39.7h12.3v39.7H369.9z"/>
	<path d="M392.1,356.1c0-5-0.2-9.2-0.3-12.7h10.7l0.6,5.4h0.2c1.6-2.5,5.7-6.3,12.3-6.3c8.1,0,14.2,5.4,14.2,17.1v23.6h-12.3v-22
		c0-5.1-1.8-8.6-6.3-8.6c-3.4,0-5.4,2.4-6.3,4.6c-0.3,0.8-0.5,1.9-0.5,3.1v22.9h-12.3V356.1z"/>
	<path d="M477.3,377.4c0,7.6-1.5,13.9-6,17.9c-4.4,3.7-10.3,4.9-16.2,4.9c-5.2,0-10.7-1.1-14.3-3.1l2.4-9.3c2.5,1.5,6.9,3,11.5,3
		c5.8,0,10.3-3.2,10.3-10.5v-2.6H465c-2.4,3.3-6.2,5.2-10.7,5.2c-9.8,0-16.8-8-16.8-19.4c0-12.8,8.3-20.9,18-20.9
		c5.4,0,8.9,2.4,10.9,5.6h0.2l0.4-4.7h10.7c-0.2,2.5-0.3,5.8-0.3,11.8V377.4z M465,359.6c0-0.8-0.1-1.6-0.2-2.3
		c-0.9-3.2-3.2-5.4-6.7-5.4c-4.5,0-8.1,4.1-8.1,11.3c0,5.9,2.9,10.6,8.1,10.6c3.2,0,5.7-2.1,6.5-5c0.3-0.9,0.4-2.2,0.4-3.2V359.6z"
		/>
	<path d="M504,329.2c3.2-0.7,9.8-1.1,16-1.1c7.6,0,12.2,0.7,16.2,3.1c3.8,2,6.6,5.8,6.6,10.7c0,4.9-2.8,9.4-9,11.7v0.2
		c6.3,1.7,10.9,6.4,10.9,13.5c0,5-2.3,8.9-5.7,11.6c-4,3.2-10.6,5-21.5,5c-6.1,0-10.6-0.4-13.4-0.8V329.2z M516.3,350.1h4.1
		c6.5,0,10-2.7,10-6.7c0-4.1-3.2-6.3-8.8-6.3c-2.7,0-4.2,0.2-5.3,0.3V350.1z M516.3,374.4c1.2,0.2,2.7,0.2,4.8,0.2
		c5.6,0,10.6-2.2,10.6-7.9c0-5.5-5-7.7-11.1-7.7h-4.2V374.4z"/>
	<path d="M586,373.5c0,3.8,0.2,7.5,0.6,9.7h-11.1l-0.7-4h-0.2c-2.6,3.2-6.7,4.9-11.4,4.9c-8,0-12.8-5.8-12.8-12.2
		c0-10.3,9.3-15.3,23.3-15.2v-0.6c0-2.1-1.1-5.1-7.2-5.1c-4.1,0-8.4,1.4-11,3l-2.3-8c2.8-1.5,8.2-3.5,15.4-3.5
		c13.2,0,17.5,7.8,17.5,17.1V373.5z M574,364.4c-6.5-0.1-11.5,1.5-11.5,6.3c0,3.2,2.1,4.7,4.9,4.7c3.1,0,5.6-2,6.4-4.5
		c0.2-0.7,0.2-1.4,0.2-2.1V364.4z"/>
	<path d="M633.4,377.4c0,7.6-1.5,13.9-6,17.9c-4.4,3.7-10.3,4.9-16.2,4.9c-5.2,0-10.7-1.1-14.3-3.1l2.4-9.3c2.5,1.5,6.9,3,11.5,3
		c5.8,0,10.3-3.2,10.3-10.5v-2.6H621c-2.4,3.3-6.2,5.2-10.7,5.2c-9.8,0-16.8-8-16.8-19.4c0-12.8,8.3-20.9,18-20.9
		c5.4,0,8.9,2.4,10.9,5.6h0.2l0.4-4.7h10.7c-0.2,2.5-0.3,5.8-0.3,11.8V377.4z M621,359.6c0-0.8-0.1-1.6-0.2-2.3
		c-0.9-3.2-3.2-5.4-6.7-5.4c-4.5,0-8.1,4.1-8.1,11.3c0,5.9,2.9,10.6,8.1,10.6c3.2,0,5.7-2.1,6.5-5c0.3-0.9,0.4-2.2,0.4-3.2V359.6z"
		/>
</g>
</svg>
