<?xml version="1.0" encoding="utf-8"?>
<!-- Generator: Adobe Illustrator 19.0.0, SVG Export Plug-In . SVG Version: 6.00 Build 0)  -->
<svg version="1.1" id="Capa_1" xmlns="http://www.w3.org/2000/svg" xmlns:xlink="http://www.w3.org/1999/xlink" x="0px" y="0px"
	 viewBox="-16 89.2 254.8 254.8" style="enable-background:new -16 89.2 254.8 254.8;" xml:space="preserve">
<g>
	<g>
		<path d="M182.9,203.6l-10-2.5c-9-2.2-16.9-12.8-20.2-21.5c-8.7-23.9,3.5-48.8,8.2-56.9c0.4-0.8,0.5-1.6,0.3-2.4
			c-0.3-0.8-0.8-1.5-1.5-1.9L119,96.6c-0.9-0.5-1.9-0.5-2.8-0.1c-0.9,0.4-1.5,1.3-1.7,2.3c-2.1,13-11.3,28.6-17.5,37l20.2,10.8
			c3.2,1.7,5.6,4.7,6.5,8.1c1,3.4,0.5,7.2-1.2,10.4c-2.7,4.7-9.5,17.9-9.8,32.6l0.6,0.4c7.1,4.5,12.6,11.3,15.4,19.3
			c2.3,6.4,7.1,11.5,13.2,14.3c6.2,2.7,12.9,1.9,19.5,0.2c6.2-1.6,23.3-5.3,23.3-5.3c3.8-0.8,6.1-4.4,7.1-8.2
			C193.4,211.7,189.4,205.2,182.9,203.6z"/>
	</g>
	<path d="M135.5,240.8l-10-2.5c-9-2.2-16.9-12.8-20.2-21.5c-8.7-23.9,3.5-48.8,8.2-56.9c0.4-0.8,0.5-1.6,0.3-2.4
		c-0.2-0.8-0.8-1.5-1.5-1.9l-40.7-21.9c-0.5-0.3-1-0.3-1.4-0.3s-1,0.1-1.4,0.3c-0.9,0.4-1.5,1.3-1.7,2.3
		c-2.3,14.1-8.8,25.2-14.9,33.1c9.7,7.7,16,19.7,16,33c0,10.7-4,20.4-10.6,27.9l8.3,5.2c7.1,4.5,12.6,11.3,15.4,19.3
		c2.3,6.4,7.1,11.5,13.2,14.3c3.2,1.4,6.5,2.1,9.9,2.1c6.2,0,13-1.4,32.8-7.3c4.5-1.4,6.1-4.4,7.1-8.2
		C145.9,248.9,141.9,242.4,135.5,240.8z"/>
	<path d="M45.3,176.8c-2.1,2.1-3.9,3.7-5.1,4.7c-0.5,0.4-1,0.8-1.5,1.2c-5.6,4.8-8.5,11.9-8,19.3c0.5,7.3,4.5,14,10.8,17.9l7.2,4.5
		c5.6-5.8,9.1-13.6,9.1-22.4C57.8,191.8,52.9,182.6,45.3,176.8z"/>
</g>
<g>
	<path d="M30.1,309.1c2.3,1.2,5.9,2.4,9.6,2.4c4,0,6.1-1.6,6.1-4.1c0-2.4-1.8-3.7-6.4-5.4c-6.4-2.2-10.5-5.7-10.5-11.3
		c0-6.5,5.5-11.5,14.5-11.5c4.3,0,7.5,0.9,9.8,1.9l-1.9,7c-1.5-0.7-4.3-1.8-8-1.8c-3.7,0-5.6,1.7-5.6,3.7c0,2.4,2.2,3.5,7.1,5.4
		c6.8,2.5,9.9,6,9.9,11.4c0,6.4-4.9,11.9-15.4,11.9c-4.4,0-8.7-1.2-10.8-2.4L30.1,309.1z"/>
	<path d="M95.5,298.5c0,12.5-7.6,20.2-18.8,20.2c-11.4,0-18-8.6-18-19.5c0-11.5,7.3-20,18.6-20C89.1,279.1,95.5,287.9,95.5,298.5z
		 M67.8,299c0,7.5,3.5,12.8,9.3,12.8c5.8,0,9.2-5.6,9.2-13c0-6.9-3.3-12.8-9.3-12.8C71.3,286,67.8,291.5,67.8,299z"/>
	<path d="M129.3,316.9c-1.6,0.8-5.2,1.7-9.8,1.7c-13.2,0-20-8.3-20-19.2c0-13.1,9.3-20.3,20.9-20.3c4.5,0,7.9,0.9,9.4,1.7l-1.8,6.9
		c-1.8-0.7-4.2-1.4-7.3-1.4c-6.9,0-12.2,4.1-12.2,12.7c0,7.7,4.5,12.5,12.3,12.5c2.6,0,5.5-0.6,7.2-1.2L129.3,316.9z"/>
	<path d="M135,279.7h8.6v16.9h0.2c0.9-1.5,1.8-2.8,2.6-4.2l8.7-12.7h10.6L153,296l13.3,22h-10.1l-9.4-16.5l-3.3,4V318H135V279.7z"/>
	<path d="M170.1,309.1c2.3,1.2,5.9,2.4,9.6,2.4c4,0,6.1-1.6,6.1-4.1c0-2.4-1.8-3.7-6.4-5.4c-6.4-2.2-10.5-5.7-10.5-11.3
		c0-6.5,5.5-11.5,14.5-11.5c4.3,0,7.5,0.9,9.8,1.9l-1.9,7c-1.5-0.7-4.3-1.8-8-1.8c-3.7,0-5.6,1.7-5.6,3.7c0,2.4,2.2,3.5,7.1,5.4
		c6.8,2.5,9.9,6,9.9,11.4c0,6.4-4.9,11.9-15.4,11.9c-4.4,0-8.7-1.2-10.8-2.4L170.1,309.1z"/>
</g>
</svg>
