<?xml version="1.0" encoding="utf-8"?>
<!-- Generator: Adobe Illustrator 19.0.0, SVG Export Plug-In . SVG Version: 6.00 Build 0)  -->
<svg version="1.1" id="Capa_1" xmlns="http://www.w3.org/2000/svg" xmlns:xlink="http://www.w3.org/1999/xlink" x="0px" y="0px"
	 viewBox="-109.6 -184.4 512 512" style="enable-background:new -109.6 -184.4 512 512;" xml:space="preserve">
<style type="text/css">
	.st0{fill-rule:evenodd;clip-rule:evenodd;fill:#BD2F32;}
	.st1{fill:#FFFFFF;}
</style>
<g id="XMLID_29_">
	<rect id="XMLID_28_" x="-111" y="-185.8" class="st0" width="512" height="512"/>
	<g id="XMLID_30_">
		<rect id="XMLID_31_" x="-38.7" y="253.4" class="st1" width="367.3" height="2.1"/>
	</g>
</g>
<g>
	<g>
		<path class="st1" d="M287.7,68.2l-19.8-4.9C250.2,58.9,234.5,38,228,20.8c-17.2-47.2,6.9-96.4,16.2-112.5c0.8-1.6,1-3.2,0.6-4.7
			c-0.6-1.6-1.6-3-3-3.8l-80.4-43.1c-1.8-1-3.8-1-5.5-0.2c-1.8,0.8-3,2.6-3.4,4.5c-4.2,25.7-22.3,56.5-34.6,73.1l39.9,21.3
			c6.3,3.4,11.1,9.3,12.8,16c2,6.7,1,14.2-2.4,20.6C163,1.4,149.6,27.5,149,56.6l1.2,0.8c14,8.9,24.9,22.3,30.4,38.1
			c4.5,12.6,14,22.7,26.1,28.3c12.3,5.3,25.5,3.8,38.5,0.4c12.3-3.2,46-10.5,46-10.5c7.5-1.6,12.1-8.7,14-16.2
			C308.5,84.2,300.6,71.4,287.7,68.2z"/>
	</g>
	<path class="st1" d="M194,141.7l-19.8-4.9c-17.8-4.3-33.4-25.3-39.9-42.5c-17.2-47.2,6.9-96.4,16.2-112.5c0.8-1.6,1-3.2,0.6-4.7
		c-0.4-1.6-1.6-3-3-3.8L67.7-69.9c-1-0.6-2-0.6-2.8-0.6c-0.8,0-2,0.2-2.8,0.6c-1.8,0.8-3,2.6-3.4,4.5C54.3-37.5,41.5-15.6,29.4,0
		C48.6,15.2,61,39,61,65.3c0,21.1-7.9,40.3-20.9,55.1l16.4,10.3c14,8.9,24.9,22.3,30.4,38.1c4.5,12.6,14,22.7,26.1,28.3
		c6.3,2.8,12.8,4.2,19.6,4.2c12.3,0,25.7-2.8,64.8-14.4c8.9-2.8,12.1-8.7,14-16.2C214.6,157.7,206.7,144.9,194,141.7z"/>
	<path class="st1" d="M15.8,15.2c-4.2,4.2-7.7,7.3-10.1,9.3c-1,0.8-2,1.6-3,2.4c-11.1,9.5-16.8,23.5-15.8,38.1
		c1,14.4,8.9,27.7,21.3,35.4l14.2,8.9c11.1-11.5,18-26.9,18-44.3C40.5,44.9,30.8,26.7,15.8,15.2z"/>
</g>
<g>
	<path d="M64.9,298.5c2.3,1.2,5.9,2.4,9.6,2.4c4,0,6.1-1.6,6.1-4.1c0-2.4-1.8-3.7-6.4-5.4c-6.4-2.2-10.5-5.7-10.5-11.3
		c0-6.5,5.5-11.5,14.5-11.5c4.3,0,7.5,0.9,9.8,1.9l-1.9,7c-1.5-0.7-4.3-1.8-8-1.8c-3.7,0-5.6,1.7-5.6,3.7c0,2.4,2.2,3.5,7.1,5.4
		c6.8,2.5,9.9,6,9.9,11.4c0,6.4-4.9,11.9-15.4,11.9c-4.4,0-8.7-1.2-10.8-2.4L64.9,298.5z"/>
	<path d="M130.3,287.9c0,12.5-7.6,20.2-18.8,20.2c-11.4,0-18-8.6-18-19.5c0-11.5,7.3-20,18.6-20
		C123.9,268.5,130.3,277.3,130.3,287.9z M102.6,288.4c0,7.5,3.5,12.8,9.3,12.8s9.2-5.6,9.2-13c0-6.9-3.3-12.8-9.3-12.8
		C106.1,275.4,102.6,280.9,102.6,288.4z"/>
	<path d="M164.1,306.3c-1.6,0.8-5.2,1.7-9.8,1.7c-13.2,0-20-8.3-20-19.2c0-13.1,9.3-20.3,20.9-20.3c4.5,0,7.9,0.9,9.4,1.7l-1.8,6.9
		c-1.8-0.7-4.2-1.4-7.3-1.4c-6.9,0-12.2,4.1-12.2,12.7c0,7.7,4.5,12.5,12.3,12.5c2.6,0,5.5-0.6,7.2-1.2L164.1,306.3z"/>
	<path d="M169.8,269.1h8.6V286h0.2c0.9-1.5,1.8-2.8,2.6-4.2l8.7-12.7h10.6l-12.7,16.3l13.3,22H191l-9.4-16.5l-3.3,4v12.5h-8.5V269.1
		z"/>
	<path d="M204.9,298.5c2.3,1.2,5.9,2.4,9.6,2.4c4,0,6.1-1.6,6.1-4.1c0-2.4-1.8-3.7-6.4-5.4c-6.4-2.2-10.5-5.7-10.5-11.3
		c0-6.5,5.5-11.5,14.5-11.5c4.3,0,7.5,0.9,9.8,1.9l-1.9,7c-1.5-0.7-4.3-1.8-8-1.8s-5.6,1.7-5.6,3.7c0,2.4,2.2,3.5,7.1,5.4
		c6.8,2.5,9.9,6,9.9,11.4c0,6.4-4.9,11.9-15.4,11.9c-4.4,0-8.7-1.2-10.8-2.4L204.9,298.5z"/>
</g>
<g>
	<path class="st1" d="M59.2,298.5c2.3,1.2,5.9,2.4,9.6,2.4c4,0,6.1-1.6,6.1-4.1c0-2.4-1.8-3.7-6.4-5.4c-6.4-2.2-10.5-5.7-10.5-11.3
		c0-6.5,5.5-11.5,14.5-11.5c4.3,0,7.5,0.9,9.8,1.9l-1.9,7c-1.5-0.7-4.3-1.8-8-1.8c-3.7,0-5.6,1.7-5.6,3.7c0,2.4,2.2,3.5,7.1,5.4
		c6.8,2.5,9.9,6,9.9,11.4c0,6.4-4.9,11.9-15.4,11.9c-4.4,0-8.7-1.2-10.8-2.4L59.2,298.5z"/>
	<path class="st1" d="M124.6,287.9c0,12.5-7.6,20.2-18.8,20.2c-11.4,0-18-8.6-18-19.5c0-11.5,7.3-20,18.6-20
		C118.2,268.5,124.6,277.3,124.6,287.9z M96.9,288.4c0,7.5,3.5,12.8,9.3,12.8s9.2-5.6,9.2-13c0-6.9-3.3-12.8-9.3-12.8
		C100.4,275.4,96.9,280.9,96.9,288.4z"/>
	<path class="st1" d="M158.4,306.3c-1.6,0.8-5.2,1.7-9.8,1.7c-13.2,0-20-8.3-20-19.2c0-13.1,9.3-20.3,20.9-20.3
		c4.5,0,7.9,0.9,9.4,1.7l-1.8,6.9c-1.8-0.7-4.2-1.4-7.3-1.4c-6.9,0-12.2,4.1-12.2,12.7c0,7.7,4.5,12.5,12.3,12.5
		c2.6,0,5.5-0.6,7.2-1.2L158.4,306.3z"/>
	<path class="st1" d="M164.1,269.1h8.6V286h0.2c0.9-1.5,1.8-2.8,2.6-4.2l8.7-12.7h10.6l-12.7,16.3l13.3,22h-10.1l-9.4-16.5l-3.3,4
		v12.5h-8.5V269.1z"/>
	<path class="st1" d="M199.2,298.5c2.3,1.2,5.9,2.4,9.6,2.4c4,0,6.1-1.6,6.1-4.1c0-2.4-1.8-3.7-6.4-5.4c-6.4-2.2-10.5-5.7-10.5-11.3
		c0-6.5,5.5-11.5,14.5-11.5c4.3,0,7.5,0.9,9.8,1.9l-1.9,7c-1.5-0.7-4.3-1.8-8-1.8s-5.6,1.7-5.6,3.7c0,2.4,2.2,3.5,7.1,5.4
		c6.8,2.5,9.9,6,9.9,11.4c0,6.4-4.9,11.9-15.4,11.9c-4.4,0-8.7-1.2-10.8-2.4L199.2,298.5z"/>
</g>
</svg>
