<?xml version="1.0" encoding="utf-8"?>
<!-- Generator: Adobe Illustrator 19.0.0, SVG Export Plug-In . SVG Version: 6.00 Build 0)  -->
<svg version="1.1" id="Capa_1" xmlns="http://www.w3.org/2000/svg" xmlns:xlink="http://www.w3.org/1999/xlink" x="0px" y="0px"
	 viewBox="-178 269.2 254.8 254.8" style="enable-background:new -178 269.2 254.8 254.8;" xml:space="preserve">
<g>
	<g>
		<path d="M53.8,425.9l-14.6-3.6c-13.1-3.2-24.7-18.7-29.4-31.4c-12.7-34.9,5.1-71.2,11.9-83c0.6-1.1,0.8-2.3,0.4-3.5
			s-1.1-2.2-2.2-2.7l-59.4-31.9c-1.3-0.7-2.8-0.7-4.1-0.1c-1.3,0.6-2.2,1.9-2.5,3.3c-3.1,19-16.5,41.7-25.5,54l29.5,15.7
			c4.6,2.5,8.1,6.8,9.5,11.8c1.4,5,0.8,10.5-1.8,15.1c-3.9,6.8-13.8,26.1-14.3,47.6l0.9,0.6c10.4,6.6,18.4,16.5,22.5,28.1
			c3.3,9.3,10.3,16.8,19.3,20.8c9,4,18.8,2.8,28.4,0.3c9.1-2.4,34-7.8,34-7.8c5.6-1.2,8.9-6.4,10.3-12
			C69,437.7,63.2,428.2,53.8,425.9z"/>
	</g>
	<path d="M-15.4,480.2l-14.6-3.6c-13.1-3.2-24.7-18.7-29.4-31.4c-12.7-34.9,5.1-71.2,11.9-83c0.6-1.1,0.8-2.3,0.4-3.5
		c-0.3-1.2-1.1-2.2-2.2-2.7l-59.4-31.9c-0.7-0.4-1.4-0.5-2.1-0.5c-0.7,0-1.4,0.2-2,0.5c-1.3,0.6-2.2,1.9-2.5,3.3
		c-3.4,20.5-12.8,36.8-21.7,48.3c14.2,11.3,23.3,28.7,23.3,48.2c0,15.6-5.8,29.8-15.4,40.7l12.1,7.6c10.4,6.6,18.4,16.5,22.5,28.1
		c3.3,9.3,10.3,16.8,19.3,20.8c4.6,2,9.5,3.1,14.5,3.1c9,0,18.9-2.1,47.9-10.6c6.5-2,8.9-6.4,10.3-12C-0.2,491.9-6,482.5-15.4,480.2
		z"/>
	<path d="M-146.9,386.8c-3.1,3.1-5.7,5.4-7.5,6.8c-0.8,0.6-1.5,1.1-2.2,1.8c-8.1,7-12.4,17.4-11.6,28.1c0.8,10.7,6.6,20.4,15.7,26.1
		l10.5,6.6c8.2-8.4,13.3-19.9,13.3-32.6C-128.7,408.7-135.8,395.3-146.9,386.8z"/>
</g>
</svg>
