<?xml version="1.0" encoding="utf-8"?>
<!-- Generator: Adobe Illustrator 19.0.0, SVG Export Plug-In . SVG Version: 6.00 Build 0)  -->
<svg version="1.1" id="Capa_1" xmlns="http://www.w3.org/2000/svg" xmlns:xlink="http://www.w3.org/1999/xlink" x="0px" y="0px"
	 viewBox="101.5 -183.5 512 512" style="enable-background:new 101.5 -183.5 512 512;" xml:space="preserve">
<style type="text/css">
	.st0{fill-rule:evenodd;clip-rule:evenodd;fill:#BD2F32;}
	.st1{fill:#FFFFFF;}
</style>
<g id="XMLID_29_">
	<rect id="XMLID_28_" x="101" y="-184" class="st0" width="512" height="512"/>
	<g id="XMLID_30_">
		<rect id="XMLID_31_" x="173.3" y="255.2" class="st1" width="367.3" height="2.1"/>
	</g>
</g>
<g>
	<path class="st1" d="M326.7-26.3c21.8,0,39.5-17.7,39.5-39.5s-17.7-39.5-39.5-39.5s-39.5,17.7-39.5,39.5S304.9-26.3,326.7-26.3z
		 M326.7-92.7c14.8,0,26.9,12,26.9,26.9c0,14.8-12,26.9-26.9,26.9s-26.9-12-26.9-26.9C299.8-80.6,311.8-92.7,326.7-92.7z"/>
	<path class="st1" d="M326.7,15.7c-47.8,0-86.6,38.8-86.6,86.6s38.8,86.6,86.6,86.6s86.6-38.8,86.6-86.6S374.4,15.7,326.7,15.7z
		 M326.7,176.3c-40.8,0-74-33.2-74-74s33.2-74,74-74s74,33.2,74,74S367.5,176.3,326.7,176.3z"/>
	<path class="st1" d="M364.9,109c-3.3-1.2-6.9,0.6-8.1,3.9c-4.5,12.8-16.6,21.4-30.2,21.4c-17.6,0-32-14.3-32-32s14.3-32,32-32
		c13.5,0,25.6,8.6,30.2,21.4c1.2,3.3,4.7,5,8.1,3.9c3.3-1.2,5-4.7,3.9-8.1c-6.2-17.8-23.1-29.9-42-29.9c-24.6,0-44.6,20-44.6,44.6
		s20,44.6,44.6,44.6c18.9,0,35.8-12,42-29.9C369.9,113.8,368.1,110.2,364.9,109z"/>
	<path class="st1" d="M510.7-160h-61.8H204.3c-3.4,0-6.3,2.9-6.3,6.3v378.4c0,3.4,2.9,6.3,6.3,6.3H449h61.8c3.4,0,6.3-2.9,6.3-6.3
		v-378.4C517.1-157.1,514.3-160,510.7-160z M210.6-147.4h232.1v365.8H210.6V-147.4L210.6-147.4z M504.4,218.4h-49.2v-365.8h49.2
		V218.4z"/>
</g>
<g>
	<path d="M239.6,304.5c2.5,1.3,6.2,2.5,10.1,2.5c4.2,0,6.4-1.7,6.4-4.4c0-2.5-1.9-4-6.8-5.7c-6.7-2.3-11.1-6.1-11.1-11.9
		c0-6.9,5.8-12.2,15.3-12.2c4.6,0,7.9,1,10.3,2l-2,7.4c-1.6-0.8-4.5-1.9-8.5-1.9s-5.9,1.8-5.9,3.9c0,2.6,2.3,3.7,7.5,5.7
		c7.1,2.6,10.5,6.4,10.5,12.1c0,6.8-5.2,12.6-16.3,12.6c-4.6,0-9.2-1.3-11.5-2.5L239.6,304.5z"/>
	<path d="M271.7,274c2.8-0.5,6.8-0.8,12.4-0.8c5.6,0,9.7,1.1,12.4,3.2c2.6,2,4.3,5.4,4.3,9.4s-1.3,7.3-3.7,9.6
		c-3.1,2.9-7.7,4.3-13.1,4.3c-1.2,0-2.3-0.1-3.1-0.2V314h-9.1L271.7,274L271.7,274z M280.8,292.3c0.8,0.2,1.7,0.2,3.1,0.2
		c4.9,0,7.9-2.5,7.9-6.6c0-3.7-2.6-5.9-7.1-5.9c-1.9,0-3.1,0.2-3.8,0.4L280.8,292.3L280.8,292.3z"/>
	<path d="M330.7,296.8h-14.9v9.6h16.6v7.5h-25.8v-40.4h25v7.5h-15.8v8.4h14.9V296.8L330.7,296.8z"/>
	<path d="M348,303.5l-2.9,10.4h-9.5l12.4-40.4h12l12.5,40.4h-9.8l-3.1-10.4H348z M358.3,296.7l-2.5-8.6c-0.7-2.4-1.4-5.4-2-7.8h-0.1
		c-0.6,2.4-1.2,5.5-1.9,7.8l-2.4,8.6H358.3z"/>
	<path d="M378,273.4h9.1v17.9h0.2c0.9-1.6,1.9-3,2.8-4.4l9.2-13.4h11.2l-13.4,17.2l14.1,23.2h-10.7l-9.9-17.5l-3.5,4.3v13.2H378
		V273.4L378,273.4z"/>
	<path d="M438.8,296.8H424v9.6h16.6v7.5h-25.8v-40.4h25v7.5H424v8.4h14.9L438.8,296.8L438.8,296.8z"/>
	<path d="M446.8,274c2.9-0.5,7.3-0.8,12.2-0.8c6,0,10.2,0.9,13.1,3.2c2.4,1.9,3.7,4.7,3.7,8.5c0,5.2-3.7,8.7-7.1,10v0.2
		c2.8,1.1,4.4,3.8,5.4,7.6c1.3,4.6,2.5,9.8,3.3,11.4H468c-0.7-1.2-1.6-4.4-2.8-9.4c-1.1-5-2.8-6.4-6.5-6.5H456v15.9h-9.1L446.8,274
		L446.8,274z M455.8,291.4h3.6c4.6,0,7.3-2.3,7.3-5.8c0-3.7-2.5-5.6-6.7-5.6c-2.2,0-3.5,0.2-4.1,0.3L455.8,291.4L455.8,291.4z"/>
</g>
<g>
	<path class="st1" d="M233.9,304.5c2.5,1.3,6.2,2.5,10.1,2.5c4.2,0,6.4-1.7,6.4-4.4c0-2.5-1.9-4-6.8-5.7
		c-6.7-2.3-11.1-6.1-11.1-11.9c0-6.9,5.8-12.2,15.3-12.2c4.6,0,7.9,1,10.3,2l-2,7.4c-1.6-0.8-4.5-1.9-8.5-1.9s-5.9,1.8-5.9,3.9
		c0,2.6,2.3,3.7,7.5,5.7c7.1,2.6,10.5,6.4,10.5,12.1c0,6.8-5.2,12.6-16.3,12.6c-4.6,0-9.2-1.3-11.5-2.5L233.9,304.5z"/>
	<path class="st1" d="M266,274c2.8-0.5,6.8-0.8,12.4-0.8c5.6,0,9.7,1.1,12.4,3.2c2.6,2,4.3,5.4,4.3,9.4s-1.3,7.3-3.7,9.6
		c-3.1,2.9-7.7,4.3-13.1,4.3c-1.2,0-2.3-0.1-3.1-0.2V314h-9.1L266,274L266,274z M275.1,292.3c0.8,0.2,1.7,0.2,3.1,0.2
		c4.9,0,7.9-2.5,7.9-6.6c0-3.7-2.6-5.9-7.1-5.9c-1.9,0-3.1,0.2-3.8,0.4L275.1,292.3L275.1,292.3z"/>
	<path class="st1" d="M325,296.8h-14.9v9.6h16.6v7.5h-25.8v-40.4h25v7.5h-15.8v8.4H325L325,296.8L325,296.8z"/>
	<path class="st1" d="M342.4,303.5l-2.9,10.4H330l12.4-40.4h12l12.5,40.4h-9.8l-3.1-10.4H342.4z M352.6,296.7l-2.5-8.6
		c-0.7-2.4-1.4-5.4-2-7.8H348c-0.6,2.4-1.2,5.5-1.9,7.8l-2.4,8.6H352.6z"/>
	<path class="st1" d="M372.3,273.4h9.1v17.9h0.2c0.9-1.6,1.9-3,2.8-4.4l9.2-13.4h11.2l-13.4,17.2l14.1,23.2h-10.7l-9.9-17.5
		l-3.5,4.3v13.2h-9.1L372.3,273.4L372.3,273.4z"/>
	<path class="st1" d="M433.2,296.8h-14.9v9.6h16.6v7.5h-25.8v-40.4h25v7.5h-15.8v8.4h14.9L433.2,296.8L433.2,296.8z"/>
	<path class="st1" d="M441.2,274c2.9-0.5,7.3-0.8,12.2-0.8c6,0,10.2,0.9,13.1,3.2c2.4,1.9,3.7,4.7,3.7,8.5c0,5.2-3.7,8.7-7.1,10v0.2
		c2.8,1.1,4.4,3.8,5.4,7.6c1.3,4.6,2.5,9.8,3.3,11.4h-9.4c-0.7-1.2-1.6-4.4-2.8-9.4c-1.1-5-2.8-6.4-6.5-6.5h-2.8v15.9h-9.1
		L441.2,274L441.2,274z M450.2,291.4h3.6c4.6,0,7.3-2.3,7.3-5.8c0-3.7-2.5-5.6-6.7-5.6c-2.2,0-3.5,0.2-4.1,0.3L450.2,291.4
		L450.2,291.4z"/>
</g>
</svg>
