<?xml version="1.0" encoding="utf-8"?>
<!-- Generator: Adobe Illustrator 19.0.0, SVG Export Plug-In . SVG Version: 6.00 Build 0)  -->
<svg version="1.1" id="Capa_1" xmlns="http://www.w3.org/2000/svg" xmlns:xlink="http://www.w3.org/1999/xlink" x="0px" y="0px"
	 viewBox="-73 164 465 465" style="enable-background:new -73 164 465 465;" xml:space="preserve">
<g>
	<path d="M122.8,323c25.9,0,47-21.1,47-47c0-25.9-21.1-47-47-47s-47,21.1-47,47C75.8,301.9,96.9,323,122.8,323z M122.8,244
		c17.6,0,32,14.3,32,32c0,17.6-14.3,32-32,32s-32-14.3-32-32C90.8,258.4,105.1,244,122.8,244z"/>
	<path d="M122.8,373c-56.8,0-103,46.2-103,103c0,56.8,46.2,103,103,103s103-46.2,103-103C225.8,419.2,179.6,373,122.8,373z
		 M122.8,564c-48.5,0-88-39.5-88-88s39.5-88,88-88s88,39.5,88,88C210.8,524.5,171.3,564,122.8,564z"/>
	<path d="M168.2,483.9c-3.9-1.4-8.2,0.7-9.6,4.6c-5.3,15.2-19.8,25.5-35.9,25.5c-20.9,0-38-17-38-38s17-38,38-38
		c16.1,0,30.5,10.2,35.9,25.5c1.4,3.9,5.6,6,9.6,4.6c3.9-1.4,6-5.6,4.6-9.6c-7.4-21.2-27.5-35.5-50-35.5c-29.2,0-53,23.8-53,53
		c0,29.2,23.8,53,53,53c22.5,0,42.6-14.3,50-35.5C174.2,489.6,172.1,485.3,168.2,483.9z"/>
	<path d="M341.7,164h-73.5h-291c-4.1,0-7.5,3.4-7.5,7.5v450c0,4.1,3.4,7.5,7.5,7.5h291h73.5c4.1,0,7.5-3.4,7.5-7.5v-450
		C349.2,167.4,345.9,164,341.7,164z M-15.2,179h276v435h-276V179z M334.2,614h-58.5V179h58.5V614z"/>
</g>
</svg>
