<?xml version="1.0" encoding="utf-8"?>
<!-- Generator: Adobe Illustrator 19.0.0, SVG Export Plug-In . SVG Version: 6.00 Build 0)  -->
<svg version="1.1" id="Capa_1" xmlns="http://www.w3.org/2000/svg" xmlns:xlink="http://www.w3.org/1999/xlink" x="0px" y="0px"
	 viewBox="89 -16 465 465" style="enable-background:new 89 -16 465 465;" xml:space="preserve">
<g>
	<path d="M290.7,127.7c21.8,0,39.5-17.7,39.5-39.5s-17.7-39.5-39.5-39.5c-21.8,0-39.5,17.7-39.5,39.5S268.9,127.7,290.7,127.7z
		 M290.7,61.3c14.8,0,26.9,12,26.9,26.9c0,14.8-12,26.9-26.9,26.9s-26.9-12-26.9-26.9C263.8,73.4,275.8,61.3,290.7,61.3z"/>
	<path d="M290.7,169.7c-47.8,0-86.6,38.8-86.6,86.6s38.8,86.6,86.6,86.6s86.6-38.8,86.6-86.6S338.4,169.7,290.7,169.7z M290.7,330.3
		c-40.8,0-74-33.2-74-74s33.2-74,74-74s74,33.2,74,74S331.5,330.3,290.7,330.3z"/>
	<path d="M328.9,263c-3.3-1.2-6.9,0.6-8.1,3.9c-4.5,12.8-16.6,21.4-30.2,21.4c-17.6,0-32-14.3-32-32s14.3-32,32-32
		c13.5,0,25.6,8.6,30.2,21.4c1.2,3.3,4.7,5,8.1,3.9c3.3-1.2,5-4.7,3.9-8.1c-6.2-17.8-23.1-29.9-42-29.9c-24.6,0-44.6,20-44.6,44.6
		s20,44.6,44.6,44.6c18.9,0,35.8-12,42-29.9C333.9,267.8,332.1,264.2,328.9,263z"/>
	<path d="M474.7-6h-61.8H168.3c-3.4,0-6.3,2.9-6.3,6.3v378.4c0,3.4,2.9,6.3,6.3,6.3h244.7h61.8c3.4,0,6.3-2.9,6.3-6.3V0.3
		C481.1-3.1,478.3-6,474.7-6z M174.6,6.6h232.1v365.8H174.6L174.6,6.6L174.6,6.6z M468.4,372.4h-49.2V6.6h49.2V372.4z"/>
</g>
<g>
	<path d="M203.5,422.7c2.5,1.3,6.2,2.5,10.1,2.5c4.2,0,6.4-1.7,6.4-4.4c0-2.5-1.9-4-6.8-5.7c-6.7-2.3-11.1-6.1-11.1-11.9
		c0-6.9,5.8-12.2,15.3-12.2c4.6,0,7.9,1,10.3,2l-2,7.4c-1.6-0.8-4.5-1.9-8.5-1.9c-4,0-5.9,1.8-5.9,3.9c0,2.6,2.3,3.7,7.5,5.7
		c7.1,2.6,10.5,6.4,10.5,12.1c0,6.8-5.2,12.6-16.3,12.6c-4.6,0-9.2-1.3-11.5-2.5L203.5,422.7z"/>
	<path d="M235.6,392.2c2.8-0.5,6.8-0.8,12.4-0.8c5.6,0,9.7,1.1,12.4,3.2c2.6,2,4.3,5.4,4.3,9.4s-1.3,7.3-3.7,9.6
		c-3.1,2.9-7.7,4.3-13.1,4.3c-1.2,0-2.3-0.1-3.1-0.2v14.5h-9.1V392.2z M244.7,410.5c0.8,0.2,1.7,0.2,3.1,0.2c4.9,0,7.9-2.5,7.9-6.6
		c0-3.7-2.6-5.9-7.1-5.9c-1.9,0-3.1,0.2-3.8,0.4V410.5z"/>
	<path d="M294.6,415h-14.9v9.6h16.6v7.5h-25.8v-40.4h25v7.5h-15.8v8.4h14.9V415z"/>
	<path d="M312,421.7l-2.9,10.4h-9.5l12.4-40.4h12l12.5,40.4h-9.8l-3.1-10.4H312z M322.2,414.9l-2.5-8.6c-0.7-2.4-1.4-5.4-2-7.8h-0.1
		c-0.6,2.4-1.2,5.5-1.9,7.8l-2.4,8.6H322.2z"/>
	<path d="M341.9,391.6h9.1v17.9h0.2c0.9-1.6,1.9-3,2.8-4.4l9.2-13.4h11.2l-13.4,17.2l14.1,23.2h-10.7l-9.9-17.5l-3.5,4.3v13.2h-9.1
		V391.6z"/>
	<path d="M402.8,415h-14.9v9.6h16.6v7.5h-25.8v-40.4h25v7.5h-15.8v8.4h14.9V415z"/>
	<path d="M410.8,392.2c2.9-0.5,7.3-0.8,12.2-0.8c6,0,10.2,0.9,13.1,3.2c2.4,1.9,3.7,4.7,3.7,8.5c0,5.2-3.7,8.7-7.1,10v0.2
		c2.8,1.1,4.4,3.8,5.4,7.6c1.3,4.6,2.5,9.8,3.3,11.4H432c-0.7-1.2-1.6-4.4-2.8-9.4c-1.1-5-2.8-6.4-6.5-6.5h-2.8v15.9h-9.1V392.2z
		 M419.8,409.6h3.6c4.6,0,7.3-2.3,7.3-5.8c0-3.7-2.5-5.6-6.7-5.6c-2.2,0-3.5,0.2-4.1,0.3V409.6z"/>
</g>
</svg>
