<?xml version="1.0" encoding="utf-8"?>
<!-- Generator: Adobe Illustrator 19.0.0, SVG Export Plug-In . SVG Version: 6.00 Build 0)  -->
<svg version="1.1" id="Layer_1" xmlns="http://www.w3.org/2000/svg" xmlns:xlink="http://www.w3.org/1999/xlink" x="0px" y="0px"
	 viewBox="0 0 144 144" style="enable-background:new 0 0 144 144;" xml:space="preserve">
<style type="text/css">
	.st0{fill:#010101;}
</style>
<g id="XMLID_32_">
	<g id="XMLID_33_">
		<g id="XMLID_34_" transform="translate(0.000000,511.000000) scale(0.100000,-0.100000)">
			<path id="XMLID_49_" class="st0" d="M585.8,4611.4c0-189.5-0.2-199.9-2.9-199.4c-2.4,0.3-11.7,24.2-39.1,99.7l-36.1,99
				l-38.1,48.1c-21.1,26.4-41.7,51.2-45.9,55.1c-12.8,11.7-24.7,11.4-33-1c-3.7-5.6-3.9-7-3.7-42.5c0-20.3,0.7-52.4,1.5-71.6
				l1.2-34.9l28.4-77.4l28.2-77.4v-176.4c0-123,0.5-179.2,1.9-185.5c7-33.3,34.7-63.8,68.1-74.7l12.6-4.1h165
				c157.4,0,165.5,0.2,174.4,3.2c34.4,11.7,55.3,32.2,68.7,67.4c3.6,9.2,3.6,11.1,4.4,193.1l0.9,183.8l22.3,60.1l22.1,59.9l8.5,7.1
				c26.4,22.5,44.4,57.2,54.6,105.2c4.2,20.6,4.4,80,0.2,93.8c-4.2,13.3-9.7,20.8-17.2,23.1c-9.2,3.1-13.3,0.9-32.7-18
				c-19.9-19.4-27.7-25-48-34.4c-41.7-19.4-43.6-20.4-56-32.8c-23-23-34.5-58-29.9-90.2l1.5-10l-30.1-83.2
				c-16.7-45.8-30.8-83.7-31.3-84.2c-0.5-0.5-2-0.5-3.6,0c-2.2,1-2.6,22.3-2.6,200.3v199.1H693H585.9L585.8,4611.4L585.8,4611.4z
				 M776.1,4599.4l-0.5-186.8h-81.7h-81.7l-0.5,186.8l-0.3,186.6h82.5h82.5L776.1,4599.4z M492.9,4578.1
				c14.8-39.5,58.9-162.7,58.9-164.2c0-1.7-9-2.2-39.8-2.2h-39.8l-7.8,21.6c-24.8,67.5-45.8,126.6-45.1,126.9
				c1.4,1.2,67,24.8,69.1,24.8C489.4,4585.2,491.4,4582,492.9,4578.1z M937.7,4545.3c12.3-4.6,22.5-8.7,22.3-9.2
				c0-0.5-10.2-28.6-22.5-62.3l-22.5-61.3l-40.3-0.5c-22.3-0.2-40.5,0-40.5,0.5c0,0.7,46.4,129.3,52.9,146.7l1.4,3.9l13.3-4.9
				C909.1,4555.5,925.3,4549.7,937.7,4545.3z M915.6,4218.9l-0.5-168.9l-6.3-12.8c-8.2-16.7-20.3-28.8-36.9-36.9l-12.8-6.3
				l-161.6-0.5l-161.8-0.5l-11.7,3.9c-15.7,4.9-30.5,16.2-39.6,29.9c-14.1,20.9-13.1,8-13.8,192.6c-0.2,90.2,0,165,0.3,166.2
				c0.7,1.9,42.7,2.2,223.1,2.2h222L915.6,4218.9z"/>
			<path id="XMLID_48_" class="st0" d="M630.6,4769.3c-3.6-0.5-3.9-1.4-3.9-12.4v-11.7h40.8h40.8v12.4v12.3h-37.1
				C651,4769.8,632.6,4769.7,630.6,4769.3z"/>
			<path id="XMLID_47_" class="st0" d="M626.7,4695.8v-11.9H653h26.4v11.9v11.9H653h-26.4V4695.8L626.7,4695.8z"/>
			<path id="XMLID_46_" class="st0" d="M626.7,4603.1v-12.8H653h26.4v12.8v12.8H653h-26.4V4603.1L626.7,4603.1z"/>
			<path id="XMLID_45_" class="st0" d="M626.7,4524.8v-12.8h40.8h40.8v12.8v12.8h-40.8h-40.8V4524.8z"/>
			<path id="XMLID_44_" class="st0" d="M626.7,4446.6v-12.8H653h26.4v12.8v12.8H653h-26.4V4446.6L626.7,4446.6z"/>
			<path id="XMLID_43_" class="st0" d="M537.3,4353.2c-17.2-8-26.4-21.9-27.7-41.5c-0.7-11.2-0.3-13.3,4.6-23.3
				c8.9-17.7,23.3-26.9,42.7-26.9c15-0.2,26.7,5.1,36.6,16.2c21.9,24.5,13.4,62.6-16.8,76.4C566.3,4358.8,548.2,4358.3,537.3,4353.2
				z"/>
			<path id="XMLID_42_" class="st0" d="M674.3,4353.7c-9.4-4.3-19.4-13.6-24.3-22.8c-2.9-5.4-3.7-9.7-3.7-21.3
				c0-12.9,0.5-15.5,5.1-23.6c8.7-15.6,23.6-24.3,41.7-24.5c26.9-0.2,49.3,21.8,49.3,48.3c0,17.2-12.3,36.1-28.1,43.4
				C703.1,4358.4,685.4,4358.8,674.3,4353.7z"/>
			<path id="XMLID_41_" class="st0" d="M810.4,4353.7c-9.4-4.3-19.4-13.6-24.3-22.8c-2.9-5.4-3.7-9.7-3.7-21.3
				c0-12.9,0.5-15.5,5.1-23.6c8.7-15.6,23.6-24.3,41.7-24.5c15-0.2,26.5,5.1,36.6,16.2c21.9,24.5,13.4,62.6-16.8,76.4
				C839.2,4358.4,820.5,4358.3,810.4,4353.7z"/>
			<path id="XMLID_40_" class="st0" d="M545.8,4236.3c-9.7-2.4-21.6-10.9-27.9-20.3c-14.1-20.8-9.2-48.3,11.4-64.1
				c9.2-7,18.7-9.5,31.8-8.7c17,1.2,31.8,10.9,39.1,26c4.9,10.2,5.4,29.1,1.2,38.6C592,4229.5,567.8,4241.7,545.8,4236.3z"/>
			<path id="XMLID_39_" class="st0" d="M682.3,4236.4c-21.1-5.3-35.9-24.2-35.9-45.9c0-26.7,19.9-47.5,45.9-47.6
				c19.1,0,33.7,8,42.7,23.3c6.5,11.2,7.5,30.3,2.2,42.7c-4.2,9.9-15.3,20.9-24.8,25C704.3,4237.3,690.5,4238.5,682.3,4236.4z"/>
			<path id="XMLID_38_" class="st0" d="M815,4235.8c-20.3-7.3-33.5-25.7-33.5-46.1c0.2-21.6,15.3-40.3,36.9-45.9
				c30.5-7.8,58.9,14.8,59,46.8C877.6,4222.3,844.6,4246.1,815,4235.8z"/>
			<path id="XMLID_37_" class="st0" d="M545,4117.5c-28.4-9.4-42.4-36.4-32.8-64.1c4.2-12.4,17.7-25.2,30.3-28.9
				c23.8-6.8,47.6,3.1,57.9,23.8c15.7,32.2-4.8,68.4-39.6,70.1C554.4,4118.7,547.4,4118.4,545,4117.5z"/>
			<path id="XMLID_36_" class="st0" d="M685,4117.2c-10.2-1.9-19.4-7.1-26.5-15c-8.9-9.9-11.9-17.7-11.9-31.6
				c-0.2-14.3,2.7-21.6,12.3-32c23.3-25.2,64.3-18.4,78.6,13.1c4.9,10.7,4.4,28.6-1.2,39.8C726.9,4110.4,705.4,4121.3,685,4117.2z"
				/>
			<path id="XMLID_35_" class="st0" d="M822.2,4117.2c-15.3-2.2-30.1-13.8-36.6-28.2c-3.7-8.7-3.7-28.2,0-36.8
				c13.1-29.8,51.7-38.3,76.2-16.7c17.5,15.3,20.3,44.6,6,63.5C857,4112.9,839.9,4119.7,822.2,4117.2z"/>
		</g>
	</g>
</g>
</svg>
