<?xml version="1.0" encoding="utf-8"?>
<!-- Generator: Adobe Illustrator 19.0.0, SVG Export Plug-In . SVG Version: 6.00 Build 0)  -->
<svg version="1.1" id="Layer_1" xmlns="http://www.w3.org/2000/svg" xmlns:xlink="http://www.w3.org/1999/xlink" x="0px" y="0px"
	 viewBox="-219 -184 512 512" style="enable-background:new -219 -184 512 512;" xml:space="preserve">
<style type="text/css">
	.st0{fill-rule:evenodd;clip-rule:evenodd;fill:#BD2F32;}
	.st1{fill:#FFFFFF;}
</style>
<g id="XMLID_29_">
	<rect id="XMLID_28_" x="-219" y="-185" class="st0" width="512" height="512"/>
	<g id="XMLID_30_">
		<rect id="XMLID_31_" x="-146.7" y="254.2" class="st1" width="367.3" height="2.1"/>
	</g>
</g>
<g id="XMLID_32_">
	<g id="XMLID_33_">
		<g id="XMLID_34_" transform="translate(0.000000,511.000000) scale(0.100000,-0.100000)">
			<path id="XMLID_49_" class="st1" d="M-145.8,5675.4c0-728.3-0.8-768.3-11.1-766.3c-9.2,1.2-45,93-150.3,383.2l-138.7,380.5
				l-146.4,184.9c-81.1,101.5-160.3,196.8-176.4,211.8c-49.2,45-94.9,43.8-126.8-3.8c-14.2-21.5-15-26.9-14.2-163.3
				c0-78,2.7-201.4,5.8-275.2l4.6-134.1l109.1-297.5l108.4-297.5v-677.9c0-472.7,1.9-688.7,7.3-712.9
				c26.9-128,133.4-245.2,261.7-287.1l48.4-15.8h634.1c604.9,0,636.1,0.8,670.3,12.3c132.2,45,212.5,123.8,264,259
				c13.8,35.4,13.8,42.7,16.9,742.1l3.5,706.4l85.7,231l84.9,230.2l32.7,27.3c101.5,86.5,170.6,219.8,209.8,404.3
				c16.1,79.2,16.9,307.5,0.8,360.5c-16.1,51.1-37.3,79.9-66.1,88.8c-35.4,11.9-51.1,3.5-125.7-69.2
				c-76.5-74.6-106.5-96.1-184.5-132.2c-160.3-74.6-167.6-78.4-215.2-126.1c-88.4-88.4-132.6-222.9-114.9-346.7l5.8-38.4L822,5233.8
				c-64.2-176-118.4-321.7-120.3-323.6c-1.9-1.9-7.7-1.9-13.8,0c-8.5,3.8-10,85.7-10,769.8v765.2H266.2h-411.6L-145.8,5675.4
				L-145.8,5675.4z M585.6,5629.2l-1.9-717.9h-314h-314l-1.9,717.9l-1.2,717.1h317.1h317.1L585.6,5629.2z M-502.8,5547.4
				c56.9-151.8,226.4-625.3,226.4-631.1c0-6.5-34.6-8.5-153-8.5h-153l-30,83c-95.3,259.4-176,486.6-173.3,487.7
				c5.4,4.6,257.5,95.3,265.6,95.3C-516.2,5574.7-508.6,5562.4-502.8,5547.4z M1206.7,5421.3c47.3-17.7,86.5-33.4,85.7-35.4
				c0-1.9-39.2-109.9-86.5-239.4l-86.5-235.6l-154.9-1.9c-85.7-0.8-155.7,0-155.7,1.9c0,2.7,178.3,496.9,203.3,563.8l5.4,15
				l51.1-18.8C1096.8,5460.5,1159,5438.2,1206.7,5421.3z M1121.7,4166.9l-1.9-649.1l-24.2-49.2c-31.5-64.2-78-110.7-141.8-141.8
				l-49.2-24.2l-621.1-1.9l-621.8-1.9l-45,15c-60.3,18.8-117.2,62.3-152.2,114.9c-54.2,80.3-50.3,30.7-53,740.2
				c-0.8,346.7,0,634.1,1.2,638.7c2.7,7.3,164.1,8.5,857.4,8.5h853.2L1121.7,4166.9z"/>
			<path id="XMLID_48_" class="st1" d="M26.4,6282.2c-13.8-1.9-15-5.4-15-47.7v-45h156.8H325v47.7v47.3H182.5
				C104.8,6284.1,34.1,6283.7,26.4,6282.2z"/>
			<path id="XMLID_47_" class="st1" d="M11.4,5999.7V5954h101.1H214v45.7v45.7H112.5H11v-45.7H11.4z"/>
			<path id="XMLID_46_" class="st1" d="M11.4,5643.5v-49.2h101.1H214v49.2v49.2H112.5H11v-49.2H11.4z"/>
			<path id="XMLID_45_" class="st1" d="M11.4,5342.5v-49.2h156.8H325v49.2v49.2H168.2H11.4V5342.5z"/>
			<path id="XMLID_44_" class="st1" d="M11.4,5042v-49.2h101.1H214v49.2v49.2H112.5H11V5042H11.4z"/>
			<path id="XMLID_43_" class="st1" d="M-332.2,4683c-66.1-30.7-101.5-84.2-106.5-159.5c-2.7-43-1.2-51.1,17.7-89.5
				c34.2-68,89.5-103.4,164.1-103.4c57.6-0.8,102.6,19.6,140.7,62.3c84.2,94.2,51.5,240.6-64.6,293.6
				C-220.7,4704.6-290.3,4702.6-332.2,4683z"/>
			<path id="XMLID_42_" class="st1" d="M194.4,4685c-36.1-16.5-74.6-52.3-93.4-87.6c-11.1-20.8-14.2-37.3-14.2-81.9
				c0-49.6,1.9-59.6,19.6-90.7c33.4-60,90.7-93.4,160.3-94.2c103.4-0.8,189.5,83.8,189.5,185.6c0,66.1-47.3,138.7-108,166.8
				C305.1,4703,237,4704.6,194.4,4685z"/>
			<path id="XMLID_41_" class="st1" d="M717.4,4685c-36.1-16.5-74.6-52.3-93.4-87.6c-11.1-20.8-14.2-37.3-14.2-81.9
				c0-49.6,1.9-59.6,19.6-90.7c33.4-60,90.7-93.4,160.3-94.2c57.6-0.8,101.8,19.6,140.7,62.3c84.2,94.2,51.5,240.6-64.6,293.6
				C828.1,4703,756.2,4702.6,717.4,4685z"/>
			<path id="XMLID_40_" class="st1" d="M-299.5,4233.8c-37.3-9.2-83-41.9-107.2-78c-54.2-79.9-35.4-185.6,43.8-246.4
				c35.4-26.9,71.9-36.5,122.2-33.4c65.3,4.6,122.2,41.9,150.3,99.9c18.8,39.2,20.8,111.8,4.6,148.3
				C-121.9,4207.6-214.9,4254.5-299.5,4233.8z"/>
			<path id="XMLID_39_" class="st1" d="M225.1,4234.1c-81.1-20.4-138-93-138-176.4c0-102.6,76.5-182.6,176.4-182.9
				c73.4,0,129.5,30.7,164.1,89.5c25,43,28.8,116.5,8.5,164.1c-16.1,38-58.8,80.3-95.3,96.1C309.7,4237.6,256.6,4242.2,225.1,4234.1
				z"/>
			<path id="XMLID_38_" class="st1" d="M735.1,4231.8c-78-28.1-128.7-98.8-128.7-177.2c0.8-83,58.8-154.9,141.8-176.4
				c117.2-30,226.4,56.9,226.8,179.9C975.7,4180,848.9,4271.4,735.1,4231.8z"/>
			<path id="XMLID_37_" class="st1" d="M-302.6,3777.2c-109.1-36.1-163-139.9-126.1-246.4c16.1-47.7,68-96.8,116.5-111.1
				c91.5-26.1,182.9,11.9,222.5,91.5c60.3,123.8-18.4,262.9-152.2,269.4C-266.4,3781.8-293.3,3780.6-302.6,3777.2z"/>
			<path id="XMLID_36_" class="st1" d="M235.5,3776c-39.2-7.3-74.6-27.3-101.8-57.6c-34.2-38-45.7-68-45.7-121.4
				c-0.8-55,10.4-83,47.3-123c89.5-96.8,247.1-70.7,302.1,50.3c18.8,41.1,16.9,109.9-4.6,153C396.5,3749.9,313.9,3791.8,235.5,3776z
				"/>
			<path id="XMLID_35_" class="st1" d="M762.8,3776c-58.8-8.5-115.7-53-140.7-108.4c-14.2-33.4-14.2-108.4,0-141.4
				C672.5,3411.7,820.8,3379,915,3462c67.3,58.8,78,171.4,23.1,244C896.5,3759.5,830.8,3785.6,762.8,3776z"/>
		</g>
	</g>
</g>
<g>
	<path d="M-101.5,298.5c1.6,1,3.9,1.6,6.5,1.6c2.6,0,4.2-1,4.2-2.9c0-1.6-1.3-2.6-4.6-3.6c-4.2-1.6-7.2-3.9-7.2-7.8
		c0-4.6,3.9-7.8,10.1-7.8c2.9,0,5.2,0.7,6.9,1.3l-1.3,4.9c-1-0.7-2.9-1.3-5.5-1.3c-2.6,0-3.9,1.3-3.9,2.6c0,1.6,1.6,2.3,4.9,3.6
		c4.6,1.6,6.9,4.2,6.9,7.8c0,4.6-3.3,8.2-10.8,8.2c-2.9,0-5.9-1-7.5-1.6L-101.5,298.5z"/>
	<path d="M-75.4,283.1h-7.2v-4.9h20.2v4.9h-7.2v21.2h-5.9V283.1z"/>
	<path d="M-55.9,297.8l-2,6.9H-64l8.2-26.4h7.8l8.2,26.4h-6.5l-2-6.9H-55.9z M-49,293.3l-1.6-5.5c-0.3-1.6-1-3.6-1.3-5.2l0,0
		c-0.3,1.6-0.7,3.6-1.3,5.2l-1.6,5.5H-49z"/>
	<path d="M-34.3,283.1h-7.2v-4.9h20.2v4.9h-7.2v21.2h-5.9V283.1z"/>
	<path d="M-12.1,277.9v26.4H-18v-26.4H-12.1z"/>
	<path d="M17.3,291c0,8.8-5.2,14-13.1,14s-12.4-5.9-12.4-13.4c0-7.8,4.9-13.7,12.7-13.7C13,277.6,17.3,283.8,17.3,291z M-1.7,291.3
		c0,5.2,2.3,8.8,6.5,8.8c3.9,0,6.2-3.9,6.2-8.8s-2.3-8.8-6.5-8.8C0.6,282.5-1.7,286.1-1.7,291.3z"/>
	<path d="M21.2,304.4v-26.4H28l5.5,9.8c1.6,2.9,3.3,6.2,4.2,9.1l0,0c-0.3-3.6-0.7-7.2-0.7-11.1v-7.8H43v26.4h-6.2l-5.5-10.1
		c-1.6-2.9-3.3-6.2-4.6-9.5l0,0c0,3.6,0.3,7.2,0.3,11.4v7.8h-5.9V304.4z"/>
	<path d="M63.9,293.3h-9.8v6.2h10.8v4.9H48.3v-26.4h16.3v4.9H54.1v5.5h9.8V293.3z"/>
	<path d="M69.1,278.6c2-0.3,4.9-0.7,7.8-0.7c3.9,0,6.5,0.7,8.5,2c1.6,1.3,2.3,2.9,2.3,5.5c0,3.3-2.3,5.5-4.6,6.5l0,0
		c2,0.7,2.9,2.6,3.6,4.9c1,2.9,1.6,6.5,2.3,7.5h-6.2c-0.3-0.7-1-2.9-2-6.2c-0.7-3.3-2-4.2-4.2-4.2h-2v10.4h-5.5V278.6z M75,289.7
		h2.3c2.9,0,4.9-1.6,4.9-3.9s-1.6-3.6-4.2-3.6c-1.3,0-2.3,0-2.6,0.3v7.2H75z"/>
	<path d="M97.9,304.4v-10.8l-8.5-15.7h6.9l2.6,6.2c1,2,1.3,3.3,2,4.9l0,0c0.7-1.6,1.3-3.3,2-4.9l2.6-6.2h6.9l-8.8,15.3v11.1
		L97.9,304.4L97.9,304.4z"/>
	<path d="M123.3,277.9h5.9v11.7l0,0c0.7-1,1.3-2,2-2.9l5.9-8.8h7.2l-8.8,11.1l9.1,15h-6.9l-6.5-11.4l-2.3,2.9v8.5H123v-26.1H123.3z"
		/>
	<path d="M153.4,277.9v26.4h-5.9v-26.4H153.4z"/>
	<path d="M163.5,283.1h-7.2v-4.9h20.6v4.9h-7.2v21.2h-5.9v-21.2H163.5z"/>
</g>
<g>
	<path class="st1" d="M-107.2,298.5c1.6,1,3.9,1.6,6.5,1.6c2.6,0,4.2-1,4.2-2.9c0-1.6-1.3-2.6-4.6-3.6c-4.2-1.6-7.2-3.9-7.2-7.8
		c0-4.6,3.9-7.8,10.1-7.8c2.9,0,5.2,0.7,6.9,1.3l-1.3,4.9c-1-0.7-2.9-1.3-5.5-1.3c-2.6,0-3.9,1.3-3.9,2.6c0,1.6,1.6,2.3,4.9,3.6
		c4.6,1.6,6.9,4.2,6.9,7.8c0,4.6-3.3,8.2-10.8,8.2c-2.9,0-5.9-1-7.5-1.6L-107.2,298.5z"/>
	<path class="st1" d="M-81.1,283.1h-7.2v-4.9H-68v4.9h-7.2v21.2h-5.9V283.1z"/>
	<path class="st1" d="M-61.5,297.8l-2,6.9h-6.2l8.2-26.4h7.8l8.2,26.4h-6.5l-2-6.9H-61.5z M-54.7,293.3l-1.6-5.5
		c-0.3-1.6-1-3.6-1.3-5.2l0,0c-0.3,1.6-0.7,3.6-1.3,5.2l-1.6,5.5H-54.7z"/>
	<path class="st1" d="M-40,283.1h-7.2v-4.9h20.2v4.9h-7.2v21.2H-40V283.1z"/>
	<path class="st1" d="M-17.8,277.9v26.4h-5.9v-26.4H-17.8z"/>
	<path class="st1" d="M11.6,291c0,8.8-5.2,14-13.1,14s-12.4-5.9-12.4-13.4c0-7.8,4.9-13.7,12.7-13.7C7.3,277.6,11.6,283.8,11.6,291z
		 M-7.3,291.3c0,5.2,2.3,8.8,6.5,8.8c3.9,0,6.2-3.9,6.2-8.8s-2.3-8.8-6.5-8.8C-5.1,282.5-7.3,286.1-7.3,291.3z"/>
	<path class="st1" d="M15.5,304.4v-26.4h6.9l5.5,9.8c1.6,2.9,3.3,6.2,4.2,9.1l0,0c-0.3-3.6-0.7-7.2-0.7-11.1v-7.8h5.9v26.4h-6.2
		l-5.5-10.1c-1.6-2.9-3.3-6.2-4.6-9.5l0,0c0,3.6,0.3,7.2,0.3,11.4v7.8h-5.9V304.4z"/>
	<path class="st1" d="M58.3,293.3h-9.8v6.2h10.8v4.9H42.6v-26.4h16.3v4.9H48.5v5.5h9.8V293.3z"/>
	<path class="st1" d="M63.5,278.6c2-0.3,4.9-0.7,7.8-0.7c3.9,0,6.5,0.7,8.5,2c1.6,1.3,2.3,2.9,2.3,5.5c0,3.3-2.3,5.5-4.6,6.5l0,0
		c2,0.7,2.9,2.6,3.6,4.9c1,2.9,1.6,6.5,2.3,7.5h-6.2c-0.3-0.7-1-2.9-2-6.2c-0.7-3.3-2-4.2-4.2-4.2h-2v10.4h-5.5V278.6z M69.4,289.7
		h2.3c2.9,0,4.9-1.6,4.9-3.9s-1.6-3.6-4.2-3.6c-1.3,0-2.3,0-2.6,0.3v7.2H69.4z"/>
	<path class="st1" d="M92.2,304.4v-10.8l-8.5-15.7h6.9l2.6,6.2c1,2,1.3,3.3,2,4.9l0,0c0.7-1.6,1.3-3.3,2-4.9l2.6-6.2h6.9l-8.8,15.3
		v11.1L92.2,304.4L92.2,304.4z"/>
	<path class="st1" d="M117.7,277.9h5.9v11.7l0,0c0.7-1,1.3-2,2-2.9l5.9-8.8h7.2l-8.8,11.1l9.1,15H132l-6.5-11.4l-2.3,2.9v8.5h-5.9
		v-26.1H117.7z"/>
	<path class="st1" d="M147.7,277.9v26.4h-5.9v-26.4H147.7z"/>
	<path class="st1" d="M157.8,283.1h-7.2v-4.9h20.6v4.9H164v21.2h-5.9v-21.2H157.8z"/>
</g>
</svg>
