<?xml version="1.0" encoding="utf-8"?>
<!-- Generator: Adobe Illustrator 19.0.0, SVG Export Plug-In . SVG Version: 6.00 Build 0)  -->
<svg version="1.1" id="Layer_1" xmlns="http://www.w3.org/2000/svg" xmlns:xlink="http://www.w3.org/1999/xlink" x="0px" y="0px"
	 viewBox="-49 141 512 512" style="enable-background:new -49 141 512 512;" xml:space="preserve">
<g>
	<g>
		<g>
			<path d="M266.7,448.2H-23.4c-14.1,0-25.6,11.5-25.6,25.6v153.6c0,14.1,11.5,25.6,25.6,25.6h290.1c14.1,0,25.6-11.5,25.6-25.6
				V473.8C292.3,459.7,280.8,448.2,266.7,448.2z M275.3,627.4c0,4.7-3.8,8.5-8.5,8.5H-23.4c-4.7,0-8.5-3.8-8.5-8.5V473.8
				c0-4.7,3.8-8.5,8.5-8.5h290.1c4.7,0,8.5,3.8,8.5,8.5L275.3,627.4L275.3,627.4z"/>
			<path d="M164.3,345.8h68.3c4.7,0,8.5-3.8,8.5-8.5s-3.8-8.5-8.5-8.5h-68.3c-4.7,0-8.5,3.8-8.5,8.5S159.6,345.8,164.3,345.8z"/>
			<path d="M113.1,550.6h68.3c4.7,0,8.5-3.8,8.5-8.5s-3.8-8.5-8.5-8.5h-68.3c-4.7,0-8.5,3.8-8.5,8.5S108.4,550.6,113.1,550.6z"/>
			<path d="M10.7,431.1c14.1,0,25.6-11.5,25.6-25.6V183.7c0-1.3-0.3-2.5-0.8-3.6c0-0.1,0-0.2-0.1-0.2l-17.1-34.1
				c-2.9-5.8-12.4-5.8-15.3,0L-14,179.9c0,0.1,0,0.2-0.1,0.2c-0.5,1.1-0.8,2.3-0.8,3.6v221.9C-14.9,419.6-3.4,431.1,10.7,431.1z
				 M10.7,168.6l3.3,6.5H7.5L10.7,168.6z M2.2,192.2h17.1v187.7H2.2V192.2z M2.2,397h17.1v8.5c0,4.7-3.8,8.5-8.5,8.5
				s-8.5-3.8-8.5-8.5L2.2,397L2.2,397z"/>
			<path d="M232.6,584.7H113.1c-4.7,0-8.5,3.8-8.5,8.5s3.8,8.5,8.5,8.5h119.5c4.7,0,8.5-3.8,8.5-8.5S237.3,584.7,232.6,584.7z"/>
			<path d="M113.1,516.5h51.2c4.7,0,8.5-3.8,8.5-8.5c0-4.7-3.8-8.5-8.5-8.5h-51.2c-4.7,0-8.5,3.8-8.5,8.5
				C104.6,512.6,108.4,516.5,113.1,516.5z"/>
			<path d="M36.3,499.4c-18.8,0-34.1,15.3-34.1,34.1c0,18.8,15.3,34.1,34.1,34.1c18.8,0,34.1-15.3,34.1-34.1
				C70.5,514.7,55.2,499.4,36.3,499.4z M36.3,550.6c-9.4,0-17.1-7.7-17.1-17.1c0-9.4,7.7-17.1,17.1-17.1c9.4,0,17.1,7.7,17.1,17.1
				S45.7,550.6,36.3,550.6z"/>
			<path d="M300.9,260.5h85.3c4.7,0,8.5-3.8,8.5-8.5s-3.8-8.5-8.5-8.5h-85.3c-4.7,0-8.5,3.8-8.5,8.5S296.2,260.5,300.9,260.5z"/>
			<path d="M411.8,550.6c-9.4,0-17.1,7.7-17.1,17.1s7.7,17.1,17.1,17.1c9.4,0,17.1-7.7,17.1-17.1S421.2,550.6,411.8,550.6z"/>
			<path d="M335,482.3h-17.1c-4.7,0-8.5,3.8-8.5,8.5s3.8,8.5,8.5,8.5H335c4.7,0,8.5-3.8,8.5-8.5S339.7,482.3,335,482.3z"/>
			<path d="M335,516.5h-17.1c-4.7,0-8.5,3.8-8.5,8.5s3.8,8.5,8.5,8.5H335c4.7,0,8.5-3.8,8.5-8.5S339.7,516.5,335,516.5z"/>
			<path d="M437.4,482.3h-51.2c-14.1,0-25.6,11.5-25.6,25.6v119.5c0,14.1,11.5,25.6,25.6,25.6h51.2c14.1,0,25.6-11.5,25.6-25.6
				V507.9C463,493.8,451.5,482.3,437.4,482.3z M445.9,627.4c0,4.7-3.8,8.5-8.5,8.5h-51.2c-4.7,0-8.5-3.8-8.5-8.5V507.9
				c0-4.7,3.8-8.5,8.5-8.5h51.2c4.7,0,8.5,3.8,8.5,8.5V627.4z"/>
			<path d="M437.4,141H113.1c-14.1,0-25.6,11.5-25.6,25.6v256c0,4.7,3.8,8.5,8.5,8.5s8.5-3.8,8.5-8.5v-256c0-4.7,3.8-8.5,8.5-8.5
				h324.3c4.7,0,8.5,3.8,8.5,8.5v290.1c0,4.7,3.8,8.5,8.5,8.5s8.5-3.8,8.5-8.5V166.6C463,152.5,451.5,141,437.4,141z"/>
			<path d="M335,635.9h-17.1c-4.7,0-8.5,3.8-8.5,8.5s3.8,8.5,8.5,8.5H335c4.7,0,8.5-3.8,8.5-8.5S339.7,635.9,335,635.9z"/>
			<path d="M164.3,397h119.5c4.7,0,8.5-3.8,8.5-8.5c0-4.7-3.8-8.5-8.5-8.5H164.3c-4.7,0-8.5,3.8-8.5,8.5
				C155.8,393.2,159.6,397,164.3,397z"/>
			<path d="M164.3,431.1h68.3c4.7,0,8.5-3.8,8.5-8.5s-3.8-8.5-8.5-8.5h-68.3c-4.7,0-8.5,3.8-8.5,8.5S159.6,431.1,164.3,431.1z"/>
			<path d="M386.2,379.9h-68.3c-4.7,0-8.5,3.8-8.5,8.5s3.8,8.5,8.5,8.5h68.3c4.7,0,8.5-3.8,8.5-8.5S390.9,379.9,386.2,379.9z"/>
			<path d="M189.9,277.5c18.8,0,34.1-15.3,34.1-34.1c0-18.8-15.3-34.1-34.1-34.1s-34.1,15.3-34.1,34.1S171.1,277.5,189.9,277.5z
				 M189.9,226.3c9.4,0,17.1,7.7,17.1,17.1c0,9.4-7.7,17.1-17.1,17.1s-17.1-7.7-17.1-17.1C172.9,234,180.5,226.3,189.9,226.3z"/>
			<path d="M300.9,226.3h68.3c4.7,0,8.5-3.8,8.5-8.5s-3.8-8.5-8.5-8.5h-68.3c-4.7,0-8.5,3.8-8.5,8.5S296.2,226.3,300.9,226.3z"/>
			<path d="M386.2,448.2h-68.3c-4.7,0-8.5,3.8-8.5,8.5s3.8,8.5,8.5,8.5h68.3c4.7,0,8.5-3.8,8.5-8.5S390.9,448.2,386.2,448.2z"/>
			<path d="M258.2,422.6c0,4.7,3.8,8.5,8.5,8.5h102.4c4.7,0,8.5-3.8,8.5-8.5s-3.8-8.5-8.5-8.5H266.7
				C262,414.1,258.2,417.9,258.2,422.6z"/>
		</g>
	</g>
</g>
</svg>
