<?xml version="1.0" encoding="utf-8"?>
<!-- Generator: Adobe Illustrator 19.0.0, SVG Export Plug-In . SVG Version: 6.00 Build 0)  -->
<svg version="1.1" id="Layer_1" xmlns="http://www.w3.org/2000/svg" xmlns:xlink="http://www.w3.org/1999/xlink" x="0px" y="0px"
	 viewBox="-71 145 144 144" style="enable-background:new -71 145 144 144;" xml:space="preserve">
<style type="text/css">
	.st0{fill:#010101;}
</style>
<g id="XMLID_32_">
	<g id="XMLID_33_">
		<g id="XMLID_34_" transform="translate(0.000000,511.000000) scale(0.100000,-0.100000)">
			<path id="XMLID_49_" class="st0" d="M-124.2,3218c0-189.5-0.2-199.9-2.9-199.4c-2.4,0.3-11.7,24.2-39.1,99.7l-36.1,99l-38.1,48.1
				c-21.1,26.4-41.7,51.2-45.9,55.1c-12.8,11.7-24.7,11.4-33-1c-3.7-5.6-3.9-7-3.7-42.5c0-20.3,0.7-52.4,1.5-71.6l1.2-34.9
				l28.4-77.4l28.2-77.4v-176.4c0-123,0.5-179.2,1.9-185.5c7-33.3,34.7-63.8,68.1-74.7l12.6-4.1h165c157.4,0,165.5,0.2,174.4,3.2
				c34.4,11.7,55.3,32.2,68.7,67.4c3.6,9.2,3.6,11.1,4.4,193.1l0.9,183.8l22.3,60.1l22.1,59.9l8.5,7.1
				c26.4,22.5,44.4,57.2,54.6,105.2c4.2,20.6,4.4,80,0.2,93.8c-4.2,13.3-9.7,20.8-17.2,23.1c-9.2,3.1-13.3,0.9-32.7-18
				c-19.9-19.4-27.7-25-48-34.4c-41.7-19.4-43.6-20.4-56-32.8c-23-23-34.5-58-29.9-90.2l1.5-10l-30.1-83.2
				c-16.7-45.8-30.8-83.7-31.3-84.2s-2-0.5-3.6,0c-2.2,1-2.6,22.3-2.6,200.3v199.1H-17h-107.1L-124.2,3218L-124.2,3218z M66.1,3206
				l-0.5-186.8h-81.7h-81.7l-0.5,186.8l-0.3,186.6h82.5h82.5L66.1,3206z M-217.1,3184.7c14.8-39.5,58.9-162.7,58.9-164.2
				c0-1.7-9-2.2-39.8-2.2h-39.8l-7.8,21.6c-24.8,67.5-45.8,126.6-45.1,126.9c1.4,1.2,67,24.8,69.1,24.8
				C-220.6,3191.8-218.6,3188.6-217.1,3184.7z M227.7,3151.9c12.3-4.6,22.5-8.7,22.3-9.2c0-0.5-10.2-28.6-22.5-62.3l-22.5-61.3
				l-40.3-0.5c-22.3-0.2-40.5,0-40.5,0.5c0,0.7,46.4,129.3,52.9,146.7l1.4,3.9l13.3-4.9C199.1,3162.1,215.3,3156.3,227.7,3151.9z
				 M205.6,2825.5l-0.5-168.9l-6.3-12.8c-8.2-16.7-20.3-28.8-36.9-36.9l-12.8-6.3l-161.6-0.5l-161.8-0.5l-11.7,3.9
				c-15.7,4.9-30.5,16.2-39.6,29.9c-14.1,20.9-13.1,8-13.8,192.6c-0.2,90.2,0,165,0.3,166.2c0.7,1.9,42.7,2.2,223.1,2.2h222
				L205.6,2825.5z"/>
			<path id="XMLID_48_" class="st0" d="M-79.4,3375.9c-3.6-0.5-3.9-1.4-3.9-12.4v-11.7h40.8h40.8v12.4v12.3h-37.1
				C-59,3376.4-77.4,3376.3-79.4,3375.9z"/>
			<path id="XMLID_47_" class="st0" d="M-83.3,3302.4v-11.9H-57h26.4v11.9v11.9H-57h-26.4v-11.9H-83.3z"/>
			<path id="XMLID_46_" class="st0" d="M-83.3,3209.7v-12.8H-57h26.4v12.8v12.8H-57h-26.4v-12.8H-83.3z"/>
			<path id="XMLID_45_" class="st0" d="M-83.3,3131.4v-12.8h40.8h40.8v12.8v12.8h-40.8h-40.8V3131.4z"/>
			<path id="XMLID_44_" class="st0" d="M-83.3,3053.2v-12.8H-57h26.4v12.8v12.8H-57h-26.4v-12.8H-83.3z"/>
			<path id="XMLID_43_" class="st0" d="M-172.7,2959.8c-17.2-8-26.4-21.9-27.7-41.5c-0.7-11.2-0.3-13.3,4.6-23.3
				c8.9-17.7,23.3-26.9,42.7-26.9c15-0.2,26.7,5.1,36.6,16.2c21.9,24.5,13.4,62.6-16.8,76.4
				C-143.7,2965.4-161.8,2964.9-172.7,2959.8z"/>
			<path id="XMLID_42_" class="st0" d="M-35.7,2960.3c-9.4-4.3-19.4-13.6-24.3-22.8c-2.9-5.4-3.7-9.7-3.7-21.3
				c0-12.9,0.5-15.5,5.1-23.6c8.7-15.6,23.6-24.3,41.7-24.5c26.9-0.2,49.3,21.8,49.3,48.3c0,17.2-12.3,36.1-28.1,43.4
				C-6.9,2965-24.6,2965.4-35.7,2960.3z"/>
			<path id="XMLID_41_" class="st0" d="M100.4,2960.3c-9.4-4.3-19.4-13.6-24.3-22.8c-2.9-5.4-3.7-9.7-3.7-21.3
				c0-12.9,0.5-15.5,5.1-23.6c8.7-15.6,23.6-24.3,41.7-24.5c15-0.2,26.5,5.1,36.6,16.2c21.9,24.5,13.4,62.6-16.8,76.4
				C129.2,2965,110.5,2964.9,100.4,2960.3z"/>
			<path id="XMLID_40_" class="st0" d="M-164.2,2842.9c-9.7-2.4-21.6-10.9-27.9-20.3c-14.1-20.8-9.2-48.3,11.4-64.1
				c9.2-7,18.7-9.5,31.8-8.7c17,1.2,31.8,10.9,39.1,26c4.9,10.2,5.4,29.1,1.2,38.6C-118,2836.1-142.2,2848.3-164.2,2842.9z"/>
			<path id="XMLID_39_" class="st0" d="M-27.7,2843c-21.1-5.3-35.9-24.2-35.9-45.9c0-26.7,19.9-47.5,45.9-47.6
				c19.1,0,33.7,8,42.7,23.3c6.5,11.2,7.5,30.3,2.2,42.7c-4.2,9.9-15.3,20.9-24.8,25C-5.7,2843.9-19.5,2845.1-27.7,2843z"/>
			<path id="XMLID_38_" class="st0" d="M105,2842.4c-20.3-7.3-33.5-25.7-33.5-46.1c0.2-21.6,15.3-40.3,36.9-45.9
				c30.5-7.8,58.9,14.8,59,46.8C167.6,2828.9,134.6,2852.7,105,2842.4z"/>
			<path id="XMLID_37_" class="st0" d="M-165,2724.1c-28.4-9.4-42.4-36.4-32.8-64.1c4.2-12.4,17.7-25.2,30.3-28.9
				c23.8-6.8,47.6,3.1,57.9,23.8c15.7,32.2-4.8,68.4-39.6,70.1C-155.6,2725.3-162.6,2725-165,2724.1z"/>
			<path id="XMLID_36_" class="st0" d="M-25,2723.8c-10.2-1.9-19.4-7.1-26.5-15c-8.9-9.9-11.9-17.7-11.9-31.6
				c-0.2-14.3,2.7-21.6,12.3-32c23.3-25.2,64.3-18.4,78.6,13.1c4.9,10.7,4.4,28.6-1.2,39.8C16.9,2717-4.6,2727.9-25,2723.8z"/>
			<path id="XMLID_35_" class="st0" d="M112.2,2723.8c-15.3-2.2-30.1-13.8-36.6-28.2c-3.7-8.7-3.7-28.2,0-36.8
				c13.1-29.8,51.7-38.3,76.2-16.7c17.5,15.3,20.3,44.6,6,63.5C147,2719.5,129.9,2726.3,112.2,2723.8z"/>
		</g>
	</g>
</g>
<g>
	<path d="M-41.3,275.5c0.5,0.3,1.2,0.5,2,0.5c0.8,0,1.3-0.3,1.3-0.9c0-0.5-0.4-0.8-1.4-1.1c-1.3-0.5-2.2-1.2-2.2-2.4
		c0-1.4,1.2-2.4,3.1-2.4c0.9,0,1.6,0.2,2.1,0.4l-0.4,1.5c-0.3-0.2-0.9-0.4-1.7-0.4c-0.8,0-1.2,0.4-1.2,0.8c0,0.5,0.5,0.7,1.5,1.1
		c1.4,0.5,2.1,1.3,2.1,2.4c0,1.4-1,2.5-3.3,2.5c-0.9,0-1.8-0.3-2.3-0.5L-41.3,275.5z"/>
	<path d="M-33.3,270.8h-2.2v-1.5h6.2v1.5h-2.2v6.5h-1.8V270.8z"/>
	<path d="M-27.3,275.3l-0.6,2.1h-1.9l2.5-8.1h2.4l2.5,8.1h-2l-0.6-2.1H-27.3z M-25.2,273.9l-0.5-1.7c-0.1-0.5-0.3-1.1-0.4-1.6h0
		c-0.1,0.5-0.2,1.1-0.4,1.6l-0.5,1.7H-25.2z"/>
	<path d="M-20.7,270.8h-2.2v-1.5h6.2v1.5h-2.2v6.5h-1.8V270.8z"/>
	<path d="M-13.9,269.2v8.1h-1.8v-8.1H-13.9z"/>
	<path d="M-4.9,273.2c0,2.7-1.6,4.3-4,4.3c-2.4,0-3.8-1.8-3.8-4.1c0-2.4,1.5-4.2,3.9-4.2C-6.2,269.1-4.9,271-4.9,273.2z
		 M-10.7,273.3c0,1.6,0.7,2.7,2,2.7c1.2,0,1.9-1.2,1.9-2.7c0-1.5-0.7-2.7-2-2.7C-10,270.6-10.7,271.7-10.7,273.3z"/>
	<path d="M-3.7,277.3v-8.1h2.1l1.7,3c0.5,0.9,1,1.9,1.3,2.8h0c-0.1-1.1-0.2-2.2-0.2-3.4v-2.4H3v8.1H1.1l-1.7-3.1
		c-0.5-0.9-1-1.9-1.4-2.9l0,0c0,1.1,0.1,2.2,0.1,3.5v2.4H-3.7z"/>
	<path d="M9.4,273.9h-3v1.9h3.3v1.5H4.6v-8.1h5v1.5H6.4v1.7h3V273.9z"/>
	<path d="M11,269.4c0.6-0.1,1.5-0.2,2.4-0.2c1.2,0,2,0.2,2.6,0.6c0.5,0.4,0.7,0.9,0.7,1.7c0,1-0.7,1.7-1.4,2v0
		c0.6,0.2,0.9,0.8,1.1,1.5c0.3,0.9,0.5,2,0.7,2.3h-1.9c-0.1-0.2-0.3-0.9-0.6-1.9c-0.2-1-0.6-1.3-1.3-1.3h-0.6v3.2H11V269.4z
		 M12.8,272.8h0.7c0.9,0,1.5-0.5,1.5-1.2c0-0.7-0.5-1.1-1.3-1.1c-0.4,0-0.7,0-0.8,0.1V272.8z"/>
	<path d="M19.8,277.3V274l-2.6-4.8h2.1l0.8,1.9c0.3,0.6,0.4,1,0.6,1.5h0c0.2-0.5,0.4-1,0.6-1.5l0.8-1.9h2.1l-2.7,4.7v3.4H19.8z"/>
	<path d="M27.6,269.2h1.8v3.6h0c0.2-0.3,0.4-0.6,0.6-0.9l1.8-2.7H34l-2.7,3.4l2.8,4.6H32l-2-3.5l-0.7,0.9v2.6h-1.8V269.2z"/>
	<path d="M36.8,269.2v8.1h-1.8v-8.1H36.8z"/>
	<path d="M39.9,270.8h-2.2v-1.5H44v1.5h-2.2v6.5h-1.8V270.8z"/>
</g>
</svg>
