<?xml version="1.0" encoding="utf-8"?>
<!-- Generator: Adobe Illustrator 19.0.0, SVG Export Plug-In . SVG Version: 6.00 Build 0)  -->
<svg version="1.1" id="Layer_1" xmlns="http://www.w3.org/2000/svg" xmlns:xlink="http://www.w3.org/1999/xlink" x="0px" y="0px"
	 viewBox="112 -40 512 512" style="enable-background:new 112 -40 512 512;" xml:space="preserve">
<g>
	<g>
		<g>
			<path d="M414.5,221.9h-226c-11,0-19.9,9-19.9,19.9v119.7c0,11,9,19.9,19.9,19.9h226c11,0,19.9-9,19.9-19.9V241.8
				C434.5,230.8,425.5,221.9,414.5,221.9z M421.2,361.5c0,3.7-3,6.6-6.6,6.6H188.5c-3.7,0-6.6-3-6.6-6.6V241.8c0-3.7,3-6.6,6.6-6.6
				h226c3.7,0,6.6,3,6.6,6.6L421.2,361.5L421.2,361.5z"/>
			<path d="M334.7,142.1h53.2c3.7,0,6.6-3,6.6-6.6c0-3.7-3-6.6-6.6-6.6h-53.2c-3.7,0-6.6,3-6.6,6.6
				C328.1,139.1,331.1,142.1,334.7,142.1z"/>
			<path d="M294.8,301.7h53.2c3.7,0,6.6-3,6.6-6.6s-3-6.6-6.6-6.6h-53.2c-3.7,0-6.6,3-6.6,6.6S291.2,301.7,294.8,301.7z"/>
			<path d="M215.1,208.6c11,0,19.9-9,19.9-19.9V15.8c0-1-0.2-1.9-0.6-2.8c0-0.1,0-0.2-0.1-0.2L221-13.7c-2.3-4.5-9.7-4.5-11.9,0
				l-13.2,26.6c0,0.1,0,0.2-0.1,0.2c-0.4,0.9-0.6,1.8-0.6,2.8v172.9C195.1,199.6,204.1,208.6,215.1,208.6z M215.1,4.1l2.6,5.1h-5.1
				L215.1,4.1z M208.4,22.4h13.3v146.2h-13.3V22.4z M208.4,182h13.3v6.6c0,3.7-3,6.6-6.6,6.6s-6.6-3-6.6-6.6L208.4,182L208.4,182z"
				/>
			<path d="M387.9,328.2h-93.1c-3.7,0-6.6,3-6.6,6.6c0,3.7,3,6.6,6.6,6.6h93.1c3.7,0,6.6-3,6.6-6.6
				C394.6,331.2,391.6,328.2,387.9,328.2z"/>
			<path d="M294.8,275.1h39.9c3.7,0,6.6-3,6.6-6.6c0-3.7-3-6.6-6.6-6.6h-39.9c-3.7,0-6.6,3-6.6,6.6
				C288.2,272.1,291.2,275.1,294.8,275.1z"/>
			<path d="M235,261.8c-14.6,0-26.6,11.9-26.6,26.6s11.9,26.6,26.6,26.6s26.6-11.9,26.6-26.6C261.7,273.7,249.7,261.8,235,261.8z
				 M235,301.7c-7.3,0-13.3-6-13.3-13.3c0-7.3,6-13.3,13.3-13.3s13.3,6,13.3,13.3S242.3,301.7,235,301.7z"/>
			<path d="M441.2,75.7h66.5c3.7,0,6.6-3,6.6-6.6s-3-6.6-6.6-6.6h-66.5c-3.7,0-6.6,3-6.6,6.6C434.5,72.7,437.5,75.7,441.2,75.7z"/>
			<path d="M527.6,301.7c-7.3,0-13.3,6-13.3,13.3s6,13.3,13.3,13.3s13.3-6,13.3-13.3S534.9,301.7,527.6,301.7z"/>
			<path d="M467.7,248.5h-13.3c-3.7,0-6.6,3-6.6,6.6c0,3.7,3,6.6,6.6,6.6h13.3c3.7,0,6.6-3,6.6-6.6
				C474.3,251.4,471.4,248.5,467.7,248.5z"/>
			<path d="M467.7,275.1h-13.3c-3.7,0-6.6,3-6.6,6.6c0,3.7,3,6.6,6.6,6.6h13.3c3.7,0,6.6-3,6.6-6.6
				C474.3,278.1,471.4,275.1,467.7,275.1z"/>
			<path d="M547.5,248.5h-39.9c-11,0-19.9,9-19.9,19.9v93.1c0,11,9,19.9,19.9,19.9h39.9c11,0,19.9-9,19.9-19.9v-93.1
				C567.5,257.4,558.5,248.5,547.5,248.5z M554.1,361.5c0,3.7-3,6.6-6.6,6.6h-39.9c-3.7,0-6.6-3-6.6-6.6v-93.1c0-3.7,3-6.6,6.6-6.6
				h39.9c3.7,0,6.6,3,6.6,6.6V361.5z"/>
			<path d="M547.5-17.4H294.8c-11,0-19.9,9-19.9,19.9v199.4c0,3.7,3,6.6,6.6,6.6s6.6-3,6.6-6.6V2.5c0-3.7,3-6.6,6.6-6.6h252.7
				c3.7,0,6.6,3,6.6,6.6v226c0,3.7,3,6.6,6.6,6.6c3.7,0,6.6-3,6.6-6.6V2.5C567.5-8.5,558.5-17.4,547.5-17.4z"/>
			<path d="M467.7,368.1h-13.3c-3.7,0-6.6,3-6.6,6.6c0,3.7,3,6.6,6.6,6.6h13.3c3.7,0,6.6-3,6.6-6.6
				C474.3,371.1,471.4,368.1,467.7,368.1z"/>
			<path d="M334.7,182h93.1c3.7,0,6.6-3,6.6-6.6s-3-6.6-6.6-6.6h-93.1c-3.7,0-6.6,3-6.6,6.6S331.1,182,334.7,182z"/>
			<path d="M334.7,208.6h53.2c3.7,0,6.6-3,6.6-6.6s-3-6.6-6.6-6.6h-53.2c-3.7,0-6.6,3-6.6,6.6S331.1,208.6,334.7,208.6z"/>
			<path d="M507.6,168.7h-53.2c-3.7,0-6.6,3-6.6,6.6c0,3.7,3,6.6,6.6,6.6h53.2c3.7,0,6.6-3,6.6-6.6
				C514.2,171.6,511.3,168.7,507.6,168.7z"/>
			<path d="M354.7,88.9c14.6,0,26.6-11.9,26.6-26.6s-11.9-26.6-26.6-26.6c-14.6,0-26.6,11.9-26.6,26.6S340,88.9,354.7,88.9z
				 M354.7,49c7.3,0,13.3,6,13.3,13.3c0,7.3-6,13.3-13.3,13.3c-7.3,0-13.3-6-13.3-13.3C341.4,55,347.4,49,354.7,49z"/>
			<path d="M441.2,49h53.2c3.7,0,6.6-3,6.6-6.6c0-3.7-3-6.6-6.6-6.6h-53.2c-3.7,0-6.6,3-6.6,6.6C434.5,46,437.5,49,441.2,49z"/>
			<path d="M507.6,221.9h-53.2c-3.7,0-6.6,3-6.6,6.6c0,3.7,3,6.6,6.6,6.6h53.2c3.7,0,6.6-3,6.6-6.6
				C514.2,224.9,511.3,221.9,507.6,221.9z"/>
			<path d="M407.9,201.9c0,3.7,3,6.6,6.6,6.6h79.8c3.7,0,6.6-3,6.6-6.6s-3-6.6-6.6-6.6h-79.8C410.9,195.3,407.9,198.3,407.9,201.9z"
				/>
		</g>
	</g>
</g>
<g>
	<path d="M222.3,436.8c2.2,1.1,5.6,2.3,9.1,2.3c3.8,0,5.8-1.6,5.8-3.9c0-2.3-1.7-3.6-6.1-5.1c-6-2.1-10-5.5-10-10.7
		c0-6.2,5.2-11,13.8-11c4.1,0,7.1,0.9,9.3,1.8l-1.8,6.6c-1.5-0.7-4-1.7-7.6-1.7s-5.3,1.6-5.3,3.5c0,2.3,2.1,3.3,6.8,5.1
		c6.4,2.4,9.5,5.7,9.5,10.9c0,6.1-4.7,11.3-14.7,11.3c-4.2,0-8.3-1.1-10.3-2.3L222.3,436.8z"/>
	<path d="M258.2,415.8h-9.8v-6.9h28v6.9h-9.9v29.5h-8.3V415.8z"/>
	<path d="M285.3,436l-2.6,9.3h-8.5l11.1-36.4h10.8l11.3,36.4h-8.9l-2.8-9.3H285.3z M294.6,429.8l-2.3-7.7c-0.6-2.2-1.3-4.9-1.8-7
		h-0.1c-0.5,2.2-1.1,4.9-1.7,7l-2.2,7.7H294.6z"/>
	<path d="M314.8,415.8H305v-6.9h28v6.9h-9.9v29.5h-8.3V415.8z"/>
	<path d="M345.6,408.9v36.4h-8.3v-36.4H345.6z"/>
	<path d="M386.1,426.8c0,11.9-7.2,19.2-17.9,19.2c-10.8,0-17.1-8.2-17.1-18.5c0-10.9,7-19.1,17.7-19.1
		C380,408.3,386.1,416.7,386.1,426.8z M359.8,427.2c0,7.1,3.3,12.1,8.9,12.1c5.6,0,8.7-5.3,8.7-12.4c0-6.5-3.1-12.1-8.8-12.1
		C363,414.9,359.8,420.2,359.8,427.2z"/>
	<path d="M391.5,445.3v-36.4h9.6l7.6,13.3c2.2,3.8,4.3,8.4,5.9,12.5h0.2c-0.5-4.8-0.7-9.7-0.7-15.2v-10.6h7.6v36.4H413l-7.8-14
		c-2.2-3.9-4.5-8.6-6.3-12.9l-0.2,0.1c0.2,4.8,0.3,9.9,0.3,15.9v11H391.5z"/>
	<path d="M450.4,429.9H437v8.6h15v6.8h-23.2v-36.4h22.5v6.8H437v7.6h13.4V429.9z"/>
	<path d="M457.6,409.4c2.6-0.4,6.6-0.8,11-0.8c5.4,0,9.2,0.8,11.8,2.9c2.2,1.7,3.3,4.3,3.3,7.6c0,4.6-3.3,7.8-6.4,9v0.2
		c2.5,1,3.9,3.5,4.9,6.8c1.1,4.1,2.3,8.9,3,10.3h-8.4c-0.6-1.1-1.5-4-2.5-8.5c-1-4.5-2.5-5.8-5.9-5.8h-2.5v14.3h-8.2V409.4z
		 M465.7,425.1h3.2c4.1,0,6.5-2.1,6.5-5.2c0-3.3-2.3-5-6-5.1c-2,0-3.1,0.2-3.7,0.3V425.1z"/>
	<path d="M497,445.3v-14.9l-11.5-21.5h9.4l3.7,8.7c1.1,2.6,1.9,4.6,2.8,7h0.1c0.8-2.3,1.7-4.4,2.8-7l3.7-8.7h9.2l-12,21.2v15.2H497z
		"/>
</g>
</svg>
