<?xml version="1.0" encoding="utf-8"?>
<!-- Generator: Adobe Illustrator 19.0.0, SVG Export Plug-In . SVG Version: 6.00 Build 0)  -->
<svg version="1.1" id="Layer_1" xmlns="http://www.w3.org/2000/svg" xmlns:xlink="http://www.w3.org/1999/xlink" x="0px" y="0px"
	 viewBox="148 -184 512 512" style="enable-background:new 148 -184 512 512;" xml:space="preserve">
<style type="text/css">
	.st0{fill-rule:evenodd;clip-rule:evenodd;fill:#BD2F32;}
	.st1{fill:#FFFFFF;}
</style>
<g id="XMLID_29_">
	<rect id="XMLID_28_" x="148" y="-184" class="st0" width="512" height="512"/>
	<g id="XMLID_30_">
		<rect id="XMLID_31_" x="220.3" y="255.2" class="st1" width="367.3" height="2.1"/>
	</g>
</g>
<g>
	<g>
		<g>
			<path class="st1" d="M447.8,77.6H234.9c-10.4,0-18.7,8.5-18.7,18.7v112.7c0,10.4,8.5,18.7,18.7,18.7h212.9
				c10.4,0,18.7-8.5,18.7-18.7V96.3C466.6,86,458.2,77.6,447.8,77.6z M454.1,209.1c0,3.5-2.8,6.2-6.2,6.2h-213
				c-3.5,0-6.2-2.8-6.2-6.2V96.3c0-3.5,2.8-6.2,6.2-6.2h212.9c3.5,0,6.2,2.8,6.2,6.2L454.1,209.1L454.1,209.1z"/>
			<path class="st1" d="M372.6,2.4h50.1c3.5,0,6.2-2.8,6.2-6.2c0-3.5-2.8-6.2-6.2-6.2h-50.1c-3.5,0-6.2,2.8-6.2,6.2
				S369.2,2.4,372.6,2.4z"/>
			<path class="st1" d="M335.1,152.7h50.1c3.5,0,6.2-2.8,6.2-6.2c0-3.4-2.8-6.2-6.2-6.2h-50.1c-3.5,0-6.2,2.8-6.2,6.2
				C328.8,149.9,331.7,152.7,335.1,152.7z"/>
			<path class="st1" d="M260,65.1c10.4,0,18.7-8.5,18.7-18.7v-162.8c0-0.9-0.2-1.8-0.6-2.6c0-0.1,0-0.2-0.1-0.2l-12.5-25
				c-2.2-4.2-9.1-4.2-11.2,0l-12.4,25.1c0,0.1,0,0.2-0.1,0.2c-0.4,0.8-0.6,1.7-0.6,2.6V46.4C241.2,56.6,249.6,65.1,260,65.1z
				 M260-127.6l2.4,4.8h-4.8L260-127.6z M253.7-110.3h12.5V27.4h-12.5V-110.3z M253.7,40h12.5v6.2c0,3.5-2.8,6.2-6.2,6.2
				c-3.4,0-6.2-2.8-6.2-6.2L253.7,40L253.7,40z"/>
			<path class="st1" d="M422.7,177.7h-87.7c-3.5,0-6.2,2.8-6.2,6.2c0,3.5,2.8,6.2,6.2,6.2h87.7c3.5,0,6.2-2.8,6.2-6.2
				C429.1,180.5,426.2,177.7,422.7,177.7z"/>
			<path class="st1" d="M335.1,127.7h37.6c3.5,0,6.2-2.8,6.2-6.2c0-3.5-2.8-6.2-6.2-6.2h-37.6c-3.5,0-6.2,2.8-6.2,6.2
				C328.8,124.9,331.7,127.7,335.1,127.7z"/>
			<path class="st1" d="M278.7,115.2c-13.8,0-25.1,11.2-25.1,25.1s11.2,25.1,25.1,25.1c13.8,0,25.1-11.2,25.1-25.1
				C303.9,126.4,292.6,115.2,278.7,115.2z M278.7,152.7c-6.9,0-12.5-5.7-12.5-12.5s5.7-12.5,12.5-12.5s12.5,5.7,12.5,12.5
				S285.6,152.7,278.7,152.7z"/>
			<path class="st1" d="M472.9-60.1h62.6c3.5,0,6.2-2.8,6.2-6.2s-2.8-6.2-6.2-6.2h-62.6c-3.5,0-6.2,2.8-6.2,6.2
				C466.6-62.9,469.5-60.1,472.9-60.1z"/>
			<path class="st1" d="M554.3,152.7c-6.9,0-12.5,5.7-12.5,12.5s5.7,12.5,12.5,12.5s12.5-5.7,12.5-12.5S561.2,152.7,554.3,152.7z"/>
			<path class="st1" d="M497.9,102.6h-12.5c-3.5,0-6.2,2.8-6.2,6.2c0,3.5,2.8,6.2,6.2,6.2h12.5c3.5,0,6.2-2.8,6.2-6.2
				C504.1,105.4,501.4,102.6,497.9,102.6z"/>
			<path class="st1" d="M497.9,127.7h-12.5c-3.5,0-6.2,2.8-6.2,6.2c0,3.5,2.8,6.2,6.2,6.2h12.5c3.5,0,6.2-2.8,6.2-6.2
				C504.1,130.5,501.4,127.7,497.9,127.7z"/>
			<path class="st1" d="M573.1,102.6h-37.6c-10.4,0-18.7,8.5-18.7,18.7v87.7c0,10.4,8.5,18.7,18.7,18.7h37.6
				c10.4,0,18.7-8.5,18.7-18.7v-87.7C591.9,111,583.4,102.6,573.1,102.6z M579.3,209.1c0,3.5-2.8,6.2-6.2,6.2h-37.6
				c-3.5,0-6.2-2.8-6.2-6.2v-87.7c0-3.5,2.8-6.2,6.2-6.2h37.6c3.5,0,6.2,2.8,6.2,6.2V209.1z"/>
			<path class="st1" d="M573.1-147.8h-238c-10.4,0-18.7,8.5-18.7,18.7V58.7c0,3.5,2.8,6.2,6.2,6.2c3.4,0,6.2-2.8,6.2-6.2v-187.8
				c0-3.5,2.8-6.2,6.2-6.2h238c3.5,0,6.2,2.8,6.2,6.2V83.8c0,3.5,2.8,6.2,6.2,6.2c3.5,0,6.2-2.8,6.2-6.2v-212.9
				C591.9-139.4,583.4-147.8,573.1-147.8z"/>
			<path class="st1" d="M497.9,215.3h-12.5c-3.5,0-6.2,2.8-6.2,6.2c0,3.5,2.8,6.2,6.2,6.2h12.5c3.5,0,6.2-2.8,6.2-6.2
				C504.1,218.1,501.4,215.3,497.9,215.3z"/>
			<path class="st1" d="M372.6,40h87.7c3.5,0,6.2-2.8,6.2-6.2s-2.8-6.2-6.2-6.2h-87.7c-3.5,0-6.2,2.8-6.2,6.2S369.2,40,372.6,40z"/>
			<path class="st1" d="M372.6,65.1h50.1c3.5,0,6.2-2.8,6.2-6.2c0-3.4-2.8-6.2-6.2-6.2h-50.1c-3.5,0-6.2,2.8-6.2,6.2
				C366.4,62.2,369.2,65.1,372.6,65.1z"/>
			<path class="st1" d="M535.5,27.5h-50.1c-3.5,0-6.2,2.8-6.2,6.2c0,3.5,2.8,6.2,6.2,6.2h50.1c3.5,0,6.2-2.8,6.2-6.2
				C541.7,30.2,539,27.5,535.5,27.5z"/>
			<path class="st1" d="M391.5-47.7c13.8,0,25.1-11.2,25.1-25.1s-11.2-25.1-25.1-25.1c-13.8,0-25.1,11.2-25.1,25.1
				S377.6-47.7,391.5-47.7z M391.5-85.3c6.9,0,12.5,5.7,12.5,12.5c0,6.9-5.7,12.5-12.5,12.5c-6.9,0-12.5-5.7-12.5-12.5
				C378.9-79.6,384.6-85.3,391.5-85.3z"/>
			<path class="st1" d="M472.9-85.3H523c3.5,0,6.2-2.8,6.2-6.2c0-3.5-2.8-6.2-6.2-6.2h-50.1c-3.5,0-6.2,2.8-6.2,6.2
				C466.6-88.1,469.5-85.3,472.9-85.3z"/>
			<path class="st1" d="M535.5,77.6h-50.1c-3.5,0-6.2,2.8-6.2,6.2c0,3.5,2.8,6.2,6.2,6.2h50.1c3.5,0,6.2-2.8,6.2-6.2
				S539,77.6,535.5,77.6z"/>
			<path class="st1" d="M441.6,58.7c0,3.5,2.8,6.2,6.2,6.2H523c3.5,0,6.2-2.8,6.2-6.2s-2.8-6.2-6.2-6.2h-75.2
				C444.4,52.5,441.6,55.4,441.6,58.7z"/>
		</g>
	</g>
</g>
<g>
	<path d="M257.3,300.7c2.2,1.1,5.6,2.3,9.1,2.3c3.8,0,5.8-1.6,5.8-3.9s-1.7-3.6-6.1-5.1c-6-2.1-10-5.5-10-10.7c0-6.2,5.2-11,13.8-11
		c4.1,0,7.1,0.9,9.3,1.8l-1.8,6.6c-1.5-0.7-4-1.7-7.6-1.7s-5.3,1.6-5.3,3.5c0,2.3,2.1,3.3,6.8,5.1c6.4,2.4,9.5,5.7,9.5,10.9
		c0,6.1-4.7,11.3-14.7,11.3c-4.2,0-8.3-1.1-10.3-2.3L257.3,300.7z"/>
	<path d="M293.2,279.7h-9.8v-6.9h28v6.9h-9.9v29.5h-8.3L293.2,279.7L293.2,279.7z"/>
	<path d="M320.3,299.9l-2.6,9.3h-8.5l11.1-36.4h10.8l11.3,36.4h-8.9l-2.8-9.3H320.3z M329.6,293.7l-2.3-7.7c-0.6-2.2-1.3-4.9-1.8-7
		h-0.1c-0.5,2.2-1.1,4.9-1.7,7l-2.2,7.7H329.6z"/>
	<path d="M349.8,279.7H340v-6.9h28v6.9h-9.9v29.5h-8.3L349.8,279.7L349.8,279.7z"/>
	<path d="M380.6,272.8v36.4h-8.3v-36.4H380.6z"/>
	<path d="M421.1,290.7c0,11.9-7.2,19.2-17.9,19.2c-10.8,0-17.1-8.2-17.1-18.5c0-10.9,7-19.1,17.7-19.1
		C415,272.2,421.1,280.6,421.1,290.7z M394.8,291.1c0,7.1,3.3,12.1,8.9,12.1s8.7-5.3,8.7-12.4c0-6.5-3.1-12.1-8.8-12.1
		C398,278.8,394.8,284.1,394.8,291.1z"/>
	<path d="M426.5,309.2v-36.4h9.6l7.6,13.3c2.2,3.8,4.3,8.4,5.9,12.5h0.2c-0.5-4.8-0.7-9.7-0.7-15.2v-10.6h7.6v36.4H448l-7.8-14
		c-2.2-3.9-4.5-8.6-6.3-12.9l-0.2,0.1c0.2,4.8,0.3,9.9,0.3,15.9v11L426.5,309.2L426.5,309.2z"/>
	<path d="M485.4,293.8H472v8.6h15v6.8h-23.2v-36.4h22.5v6.8H472v7.6h13.4V293.8z"/>
	<path d="M492.6,273.3c2.6-0.4,6.6-0.8,11-0.8c5.4,0,9.2,0.8,11.8,2.9c2.2,1.7,3.3,4.3,3.3,7.6c0,4.6-3.3,7.8-6.4,9v0.2
		c2.5,1,3.9,3.5,4.9,6.8c1.1,4.1,2.3,8.9,3,10.3h-8.4c-0.6-1.1-1.5-4-2.5-8.5s-2.5-5.8-5.9-5.8h-2.5v14.3h-8.2L492.6,273.3
		L492.6,273.3z M500.7,289h3.2c4.1,0,6.5-2.1,6.5-5.2c0-3.3-2.3-5-6-5.1c-2,0-3.1,0.2-3.7,0.3V289z"/>
	<path d="M532,309.2v-14.9l-11.5-21.5h9.4l3.7,8.7c1.1,2.6,1.9,4.6,2.8,7h0.1c0.8-2.3,1.7-4.4,2.8-7l3.7-8.7h9.2l-12,21.2v15.2
		L532,309.2L532,309.2z"/>
</g>
<g>
	<path class="st1" d="M251.6,300.7c2.2,1.1,5.6,2.3,9.1,2.3c3.8,0,5.8-1.6,5.8-3.9s-1.7-3.6-6.1-5.1c-6-2.1-10-5.5-10-10.7
		c0-6.2,5.2-11,13.8-11c4.1,0,7.1,0.9,9.3,1.8l-1.8,6.6c-1.5-0.7-4-1.7-7.6-1.7s-5.3,1.6-5.3,3.5c0,2.3,2.1,3.3,6.8,5.1
		c6.4,2.4,9.5,5.7,9.5,10.9c0,6.1-4.7,11.3-14.7,11.3c-4.2,0-8.3-1.1-10.3-2.3L251.6,300.7z"/>
	<path class="st1" d="M287.5,279.7h-9.8v-6.9h28v6.9h-9.9v29.5h-8.3L287.5,279.7L287.5,279.7z"/>
	<path class="st1" d="M314.6,299.9l-2.6,9.3h-8.5l11.1-36.4h10.8l11.3,36.4h-8.9l-2.8-9.3H314.6z M323.9,293.7l-2.3-7.7
		c-0.6-2.2-1.3-4.9-1.8-7h-0.1c-0.5,2.2-1.1,4.9-1.7,7l-2.2,7.7H323.9z"/>
	<path class="st1" d="M344.1,279.7h-9.8v-6.9h28v6.9h-9.9v29.5h-8.3L344.1,279.7L344.1,279.7z"/>
	<path class="st1" d="M374.9,272.8v36.4h-8.3v-36.4H374.9z"/>
	<path class="st1" d="M415.4,290.7c0,11.9-7.2,19.2-17.9,19.2c-10.8,0-17.1-8.2-17.1-18.5c0-10.9,7-19.1,17.7-19.1
		C409.3,272.2,415.4,280.6,415.4,290.7z M389.1,291.1c0,7.1,3.3,12.1,8.9,12.1s8.7-5.3,8.7-12.4c0-6.5-3.1-12.1-8.8-12.1
		C392.3,278.8,389.1,284.1,389.1,291.1z"/>
	<path class="st1" d="M420.8,309.2v-36.4h9.6l7.6,13.3c2.2,3.8,4.3,8.4,5.9,12.5h0.2c-0.5-4.8-0.7-9.7-0.7-15.2v-10.6h7.6v36.4h-8.7
		l-7.8-14c-2.2-3.9-4.5-8.6-6.3-12.9l-0.2,0.1c0.2,4.8,0.3,9.9,0.3,15.9v11L420.8,309.2L420.8,309.2z"/>
	<path class="st1" d="M479.7,293.8h-13.4v8.6h15v6.8h-23.2v-36.4h22.5v6.8h-14.3v7.6h13.4V293.8z"/>
	<path class="st1" d="M486.9,273.3c2.6-0.4,6.6-0.8,11-0.8c5.4,0,9.2,0.8,11.8,2.9c2.2,1.7,3.3,4.3,3.3,7.6c0,4.6-3.3,7.8-6.4,9v0.2
		c2.5,1,3.9,3.5,4.9,6.8c1.1,4.1,2.3,8.9,3,10.3h-8.4c-0.6-1.1-1.5-4-2.5-8.5s-2.5-5.8-5.9-5.8h-2.5v14.3H487L486.9,273.3
		L486.9,273.3z M495,289h3.2c4.1,0,6.5-2.1,6.5-5.2c0-3.3-2.3-5-6-5.1c-2,0-3.1,0.2-3.7,0.3V289z"/>
	<path class="st1" d="M526.3,309.2v-14.9l-11.5-21.5h9.4l3.7,8.7c1.1,2.6,1.9,4.6,2.8,7h0.1c0.8-2.3,1.7-4.4,2.8-7l3.7-8.7h9.2
		l-12,21.2v15.2L526.3,309.2L526.3,309.2z"/>
</g>
</svg>
