<?xml version="1.0" encoding="utf-8"?>
<!-- Generator: Adobe Illustrator 19.0.0, SVG Export Plug-In . SVG Version: 6.00 Build 0)  -->
<svg version="1.1" id="Layer_1" xmlns="http://www.w3.org/2000/svg" xmlns:xlink="http://www.w3.org/1999/xlink" x="0px" y="0px"
	 viewBox="194 -104 1000 1000" style="enable-background:new 194 -104 1000 1000;" xml:space="preserve">
<g>
	<g transform="translate(0.000000,512.000000) scale(0.100000,-0.100000)">
		<path d="M5202,5648.5c-396.2-323.5-516.8-411.5-574.2-421.1c-857.5-143.6-1470-687.1-1711.2-1519.8l-42.1-145.5l-5.7-2836.7
			l-5.8-2838.5h612.5H4088v-813.5V-3740h2852h2852v813.5v813.5h612.5h612.5l-3.8,2829l-5.7,2827.1l-45.9,160.8
			c-218.2,782.8-803.9,1337.9-1571.4,1494.9c-109.1,23-208.6,45.9-218.2,51.7c-11.5,7.7-243.1,191.4-513,411.5l-492.1,398
			l-1230.7-1.9H5705.4L5202,5648.5z M7560.2,5640.8c-34.5-30.6-580-403.9-604.9-413.4c-19.1-7.7-583.8,361.8-643.1,419.2
			c-5.7,5.7,277.5,11.5,627.8,11.5C7292.2,5658,7571.6,5650.4,7560.2,5640.8z M6210.7,5217.8c243.1-168.4,442.1-315.8,442.1-327.3
			c0-24.9-256.5-493.8-269.9-495.7c-9.6,0-1158,696.7-1181,717.8c-13.4,11.5,524.5,428.8,545.5,423
			C5759,5529.8,5967.7,5388.2,6210.7,5217.8z M8423.4,5325c143.5-114.8,256.5-210.5,254.6-212.5c-23-19.1-1171.4-717.8-1181-717.8
			c-5.7,0-72.7,114.8-149.3,252.7c-120.6,225.9-132.1,256.5-105.3,275.6c19.1,11.5,225.8,156.9,463.2,321.6
			c237.3,164.6,436.4,296.7,444.1,294.8C8157.3,5535.5,8281.7,5439.8,8423.4,5325z M5665.2,4348.8
			c438.3-268,813.5-497.7,834.5-509.1c32.5-17.2,44-13.4,68.9,32.5c17.2,28.7,59.3,105.3,93.8,168.4l65.1,114.8l1.9-3745.8v-3747.7
			H5609.7H4490v3062.5V2787h-201h-201l-3.8-1831.8l-5.7-1833.7l-407.7-5.7l-407.7-3.8l5.8,2185.9l5.7,2187.8l44,139.7
			c61.3,199.1,143.6,371.3,241.2,507.2c97.6,137.8,304.3,342.6,438.3,432.6c166.5,112.9,423,212.5,641.2,250.7
			C4857.5,4852.2,4807.7,4873.3,5665.2,4348.8z M9405.3,4777.6c285.2-78.5,524.5-218.2,725.4-424.9
			c212.5-212.5,340.7-428.7,430.7-723.5l44-143.6l5.7-2187.8l5.7-2185.9l-407.7,3.8l-407.7,5.7l-5.7,1833.7L9792,2787h-201h-201
			V-275.5V-3338H8270.3H7150.5v407.7v407.7l67,24.9c130.2,45.9,168.4,229.7,68.9,329.2c-30.6,30.6-74.6,55.5-95.7,55.5
			c-40.2,0-40.2,7.7-40.2,407.7l1.9,405.8l72.7,34.5c128.2,59.3,160.8,222.1,61.2,321.6c-30.6,30.6-74.6,55.5-95.7,55.5
			c-40.2,0-40.2,7.7-40.2,407.7l1.9,405.8l72.7,34.5c128.2,59.3,160.8,222,61.2,321.6c-30.6,30.6-74.6,55.5-95.7,55.5
			c-40.2,0-40.2,7.7-40.2,407.7l1.9,405.8l72.7,34.5c128.2,59.3,160.8,222,61.2,321.6c-30.6,30.6-74.6,55.5-95.7,55.5
			c-40.2,0-40.2,7.7-40.2,407.7l1.9,405.8l72.7,34.4c128.2,59.3,160.8,222,61.2,321.6c-30.6,30.6-74.6,55.5-95.7,55.5
			c-40.2,0-40.2,3.8-40.2,685.2l1.9,683.3l82.3-149.3c45.9-82.3,90-157,101.4-168.4c9.6-9.6,325.4,172.3,838.4,490l823,507.2
			l135.9-9.6C9210.1,4819.7,9330.7,4798.6,9405.3,4777.6z M4088-1491v-201h-377c-354.1,0-375.1,1.9-333,30.6
			c116.8,82.3,114.8,262.2-5.7,335L3313-1290h388.5H4088V-1491z M10507.8-1326.4c-68.9-42.1-111-143.6-91.9-220.1
			c5.8-26.8,38.3-70.8,68.9-97.6l57.4-47.8H10167h-375v201v201h388.6h386.7L10507.8-1326.4z"/>
	</g>
</g>
</svg>
