<?xml version="1.0" encoding="utf-8"?>
<!-- Generator: Adobe Illustrator 19.0.0, SVG Export Plug-In . SVG Version: 6.00 Build 0)  -->
<svg version="1.1" id="Layer_1" xmlns="http://www.w3.org/2000/svg" xmlns:xlink="http://www.w3.org/1999/xlink" x="0px" y="0px"
	 viewBox="636 -184 512 512" style="enable-background:new 636 -184 512 512;" xml:space="preserve">
<style type="text/css">
	.st0{fill-rule:evenodd;clip-rule:evenodd;fill:#BD2F32;}
	.st1{fill:#FFFFFF;}
</style>
<g id="XMLID_29_">
	<rect id="XMLID_28_" x="636" y="-184" class="st0" width="512" height="512"/>
	<g id="XMLID_30_">
		<rect id="XMLID_31_" x="708.3" y="255.2" class="st1" width="367.3" height="2.1"/>
	</g>
</g>
<g>
	<g transform="translate(0.000000,512.000000) scale(0.100000,-0.100000)">
		<path class="st1" d="M8258.3,6487.4c-150.8-123.1-196.7-156.6-218.6-160.3c-326.4-54.7-559.6-261.6-651.4-578.6l-16-55.4
			l-2.2-1079.9l-2.2-1080.6h233.2h233.2v-309.7v-309.7H8920h1085.8v309.7v309.7h233.2h233.2l-1.5,1077l-2.2,1076.3l-17.5,61.2
			c-83.1,298-306,509.3-598.2,569.1c-41.6,8.8-79.4,17.5-83.1,19.7c-4.4,2.9-92.6,72.9-195.3,156.6L9387.1,6644l-468.5-0.7H8450
			L8258.3,6487.4z M9156.1,6484.4c-13.1-11.7-220.8-153.8-230.3-157.4c-7.3-2.9-222.3,137.7-244.8,159.6c-2.2,2.2,105.6,4.4,239,4.4
			C9054,6491,9160.4,6488.1,9156.1,6484.4z M8642.3,6323.4c92.6-64.1,168.3-120.2,168.3-124.6c0-9.5-97.7-188-102.8-188.7
			c-3.7,0-440.8,265.2-449.6,273.3c-5.1,4.4,199.7,163.3,207.7,161.1C8470.3,6442.2,8549.8,6388.3,8642.3,6323.4z M9484.7,6364.3
			c54.6-43.7,97.7-80.1,96.9-80.9c-8.8-7.3-445.9-273.3-449.6-273.3c-2.2,0-27.7,43.7-56.8,96.2c-45.9,86-50.3,97.7-40.1,104.9
			c7.3,4.4,85.9,59.7,176.3,122.4c90.4,62.7,166.2,112.9,169,112.2C9383.4,6444.4,9430.7,6408,9484.7,6364.3z M8434.6,5992.6
			c166.8-102,309.7-189.5,317.7-193.8c12.4-6.6,16.8-5.1,26.2,12.4c6.6,10.9,22.6,40.1,35.7,64.1l24.8,43.7l0.7-1426V3066.2h-426.3
			h-426.3v1165.9V5398h-76.5h-76.5l-1.5-697.3l-2.2-698.1l-155.2-2.2l-155.2-1.5l2.2,832.1l2.2,832.9l16.8,53.2
			c23.3,75.8,54.7,141.4,91.8,193.1c37.1,52.5,115.8,130.4,166.8,164.7c63.4,43,161,80.9,244.1,95.4
			C8127.2,6184.2,8108.2,6192.3,8434.6,5992.6z M9858.5,6155.9c108.6-29.9,199.7-83.1,276.2-161.7c80.9-80.9,129.7-163.2,164-275.4
			l16.8-54.7l2.2-832.9l2.2-832.1l-155.2,1.5l-155.2,2.2l-2.2,698.1l-1.4,697.4h-76.5h-76.5V4232.2V3066.3h-426.3H9000v155.2v155.2
			l25.5,9.5c49.6,17.5,64.1,87.5,26.2,125.3c-11.7,11.7-28.4,21.1-36.5,21.1c-15.3,0-15.3,2.9-15.3,155.2l0.7,154.5l27.7,13.1
			c48.8,22.6,61.2,84.6,23.3,122.4c-11.7,11.7-28.4,21.1-36.5,21.1c-15.3,0-15.3,2.9-15.3,155.2l0.7,154.5l27.7,13.1
			c48.8,22.6,61.2,84.5,23.3,122.4c-11.7,11.7-28.4,21.1-36.5,21.1c-15.3,0-15.3,2.9-15.3,155.2l0.7,154.5l27.7,13.1
			c48.8,22.6,61.2,84.5,23.3,122.4c-11.7,11.7-28.4,21.1-36.5,21.1c-15.3,0-15.3,2.9-15.3,155.2l0.7,154.5l27.7,13.1
			c48.8,22.6,61.2,84.5,23.3,122.4c-11.7,11.7-28.4,21.1-36.5,21.1c-15.3,0-15.3,1.5-15.3,260.9l0.7,260.1l31.3-56.8
			c17.5-31.3,34.3-59.8,38.6-64.1c3.7-3.7,123.9,65.6,319.2,186.5l313.3,193.1l51.7-3.7C9784.2,6171.9,9830.1,6163.8,9858.5,6155.9z
			 M7834.2,3769.4v-76.5h-143.5c-134.8,0-142.8,0.7-126.8,11.7c44.4,31.3,43.7,99.8-2.2,127.5l-22.6,13.9H7687h147.1V3769.4
			L7834.2,3769.4z M10278.2,3832.1c-26.2-16-42.2-54.7-35-83.8c2.2-10.2,14.6-26.9,26.2-37.1l21.9-18.2h-142.8h-142.8v76.5v76.5
			h147.9h147.2L10278.2,3832.1z"/>
	</g>
</g>
<g>
	<path d="M714.2,302.5c2.6,1.4,6.6,2.7,10.7,2.7c4.4,0,6.8-1.8,6.8-4.6c0-2.7-2-4.2-7.2-6c-7.1-2.5-11.7-6.4-11.7-12.6
		c0-7.3,6.1-12.9,16.1-12.9c4.8,0,8.3,1,10.9,2.2l-2.2,7.8c-1.7-0.8-4.8-2-8.9-2s-6.2,1.9-6.2,4.1c0,2.7,2.4,4,7.9,6
		c7.5,2.8,11.1,6.7,11.1,12.7c0,7.2-5.5,13.3-17.2,13.3c-4.9,0-9.7-1.4-12.1-2.7L714.2,302.5z"/>
	<path d="M754.9,312.4l-10.1-42.7h10.3l3.3,17.6c1,5.1,1.8,10.7,2.5,15h0.1c0.7-4.6,1.7-9.8,2.8-15l3.6-17.5h10.3l3.4,18
		c1,5,1.6,9.6,2.3,14.3h0.1c0.7-4.8,1.6-9.8,2.5-14.8l3.5-17.5h9.8l-11.1,42.7h-10.5l-3.6-18.4c-0.8-4.3-1.5-8.3-2-13.2h-0.1
		c-0.8,4.8-1.5,8.9-2.5,13.2l-4.1,18.4L754.9,312.4L754.9,312.4z"/>
	<path d="M829.8,294.4H814v10.1h17.6v7.9h-27.2v-42.7h26.4v7.9H814v8.9h15.7V294.4L829.8,294.4z"/>
	<path d="M848.1,301.5l-3,10.9h-10l13.1-42.7h12.7l13.3,42.7h-10.4l-3.3-10.9H848.1z M859,294.2l-2.7-9c-0.8-2.5-1.5-5.7-2.2-8.2
		H854c-0.7,2.5-1.2,5.7-2,8.2l-2.5,9H859z"/>
	<path d="M882.7,277.8h-11.5v-8.1h32.8v8.1h-11.6v34.6h-9.7L882.7,277.8L882.7,277.8z"/>
	<path d="M909,302.5c2.6,1.4,6.6,2.7,10.7,2.7c4.4,0,6.8-1.8,6.8-4.6c0-2.7-2-4.2-7.2-6c-7.1-2.5-11.7-6.4-11.7-12.6
		c0-7.3,6.1-12.9,16.1-12.9c4.8,0,8.3,1,10.9,2.2l-2.2,7.8c-1.7-0.8-4.8-2-8.9-2s-6.2,1.9-6.2,4.1c0,2.7,2.4,4,7.9,6
		c7.5,2.8,11.1,6.7,11.1,12.7c0,7.2-5.5,13.3-17.2,13.3c-4.9,0-9.7-1.4-12.1-2.7L909,302.5z"/>
	<path d="M952.6,269.7v16.4h15.9v-16.4h9.6v42.7h-9.6v-17.9h-15.9v17.9h-9.7v-42.7H952.6z"/>
	<path d="M996.2,269.7v42.7h-9.7v-42.7H996.2z"/>
	<path d="M1004.6,270.3c3.1-0.5,7.7-0.9,12.9-0.9c6.3,0,10.8,1,13.8,3.4c2.5,2,4,5,4,8.9c0,5.5-3.8,9.2-7.5,10.5v0.2
		c3,1.2,4.6,4.1,5.7,8c1.4,4.8,2.7,10.4,3.5,12h-9.9c-0.7-1.2-1.7-4.7-3-10c-1.1-5.3-3-6.8-6.9-6.8h-2.9v16.8h-9.6L1004.6,270.3
		L1004.6,270.3z M1014.2,288.7h3.8c4.8,0,7.7-2.4,7.7-6.1c0-4-2.7-5.9-7.1-6c-2.3,0-3.7,0.2-4.4,0.3V288.7z"/>
	<path d="M1050.5,277.8H1039v-8.1h32.8v8.1h-11.6v34.6h-9.7V277.8z"/>
</g>
<g>
	<path class="st1" d="M708.5,302.5c2.6,1.4,6.6,2.7,10.7,2.7c4.4,0,6.8-1.8,6.8-4.6c0-2.7-2-4.2-7.2-6c-7.1-2.5-11.7-6.4-11.7-12.6
		c0-7.3,6.1-12.9,16.1-12.9c4.8,0,8.3,1,10.9,2.2L732,279c-1.7-0.8-4.8-2-8.9-2s-6.2,1.9-6.2,4.1c0,2.7,2.4,4,7.9,6
		c7.5,2.8,11.1,6.7,11.1,12.7c0,7.2-5.5,13.3-17.2,13.3c-4.9,0-9.7-1.4-12.1-2.7L708.5,302.5z"/>
	<path class="st1" d="M749.3,312.4l-10.1-42.7h10.3l3.3,17.6c1,5.1,1.8,10.7,2.5,15h0.1c0.7-4.6,1.7-9.8,2.8-15l3.6-17.5h10.3
		l3.4,18c1,5,1.6,9.6,2.3,14.3h0.1c0.7-4.8,1.6-9.8,2.5-14.8l3.5-17.5h9.8l-11.1,42.7h-10.5l-3.6-18.4c-0.8-4.3-1.5-8.3-2-13.2h-0.1
		c-0.8,4.8-1.5,8.9-2.5,13.2l-4.1,18.4L749.3,312.4L749.3,312.4z"/>
	<path class="st1" d="M824.1,294.4h-15.7v10.1h17.6v7.9h-27.2v-42.7h26.4v7.9h-16.7v8.9h15.7V294.4L824.1,294.4z"/>
	<path class="st1" d="M842.5,301.5l-3,10.9h-10l13.1-42.7h12.7l13.3,42.7H858l-3.3-10.9H842.5z M853.3,294.2l-2.7-9
		c-0.8-2.5-1.5-5.7-2.2-8.2h-0.1c-0.7,2.5-1.2,5.7-2,8.2l-2.5,9H853.3z"/>
	<path class="st1" d="M877.1,277.8h-11.5v-8.1h32.8v8.1h-11.6v34.6h-9.7V277.8L877.1,277.8z"/>
	<path class="st1" d="M903.3,302.5c2.6,1.4,6.6,2.7,10.7,2.7c4.4,0,6.8-1.8,6.8-4.6c0-2.7-2-4.2-7.2-6c-7.1-2.5-11.7-6.4-11.7-12.6
		c0-7.3,6.1-12.9,16.1-12.9c4.8,0,8.3,1,10.9,2.2l-2.2,7.8c-1.7-0.8-4.8-2-8.9-2s-6.2,1.9-6.2,4.1c0,2.7,2.4,4,7.9,6
		c7.5,2.8,11.1,6.7,11.1,12.7c0,7.2-5.5,13.3-17.2,13.3c-4.9,0-9.7-1.4-12.1-2.7L903.3,302.5z"/>
	<path class="st1" d="M946.9,269.7v16.4h15.9v-16.4h9.6v42.7h-9.6v-17.9h-15.9v17.9h-9.7v-42.7H946.9z"/>
	<path class="st1" d="M990.6,269.7v42.7h-9.7v-42.7H990.6z"/>
	<path class="st1" d="M999,270.3c3.1-0.5,7.7-0.9,12.9-0.9c6.3,0,10.8,1,13.8,3.4c2.5,2,4,5,4,8.9c0,5.5-3.8,9.2-7.5,10.5v0.2
		c3,1.2,4.6,4.1,5.7,8c1.4,4.8,2.7,10.4,3.5,12h-9.9c-0.7-1.2-1.7-4.7-3-10c-1.1-5.3-3-6.8-6.9-6.8h-2.9v16.8h-9.6L999,270.3
		L999,270.3z M1008.5,288.7h3.8c4.8,0,7.7-2.4,7.7-6.1c0-4-2.7-5.9-7.1-6c-2.3,0-3.7,0.2-4.4,0.3V288.7z"/>
	<path class="st1" d="M1044.8,277.8h-11.5v-8.1h32.8v8.1h-11.6v34.6h-9.7V277.8z"/>
</g>
</svg>
