<?xml version="1.0" encoding="utf-8"?>
<!-- Generator: Adobe Illustrator 19.0.0, SVG Export Plug-In . SVG Version: 6.00 Build 0)  -->
<svg version="1.1" id="Capa_1" xmlns="http://www.w3.org/2000/svg" xmlns:xlink="http://www.w3.org/1999/xlink" x="0px" y="0px"
	 viewBox="148 -183.9 511.9 511.9" style="enable-background:new 148 -183.9 511.9 511.9;" xml:space="preserve">
<style type="text/css">
	.st0{fill-rule:evenodd;clip-rule:evenodd;fill:#BD2F32;}
	.st1{fill:#FFFFFF;}
</style>
<g id="XMLID_29_">
	<rect id="XMLID_28_" x="147.9" y="-183.9" class="st0" width="512" height="512"/>
	<g id="XMLID_30_">
		<rect id="XMLID_31_" x="220.3" y="255.3" class="st1" width="367.3" height="2.1"/>
	</g>
</g>
<g>
	<path class="st1" d="M506,205.2H301.9c-1.6,0-3-1.4-3-3s1.4-3,3-3h204.3c1.6,0,3,1.4,3,3C509,203.8,507.8,205.2,506,205.2z"/>
	<path class="st1" d="M404,199.2c-1.6,0-3-1.4-3-3V-68.1c0-1.6,1.4-3,3-3c1.6,0,3,1.4,3,3v264.2C407,197.9,405.6,199.2,404,199.2z"
		/>
	<path class="st1" d="M301.9,205.2c-1.6,0-3-1.4-3-3V-32.1c0-1.6,1.4-3,3-3s3,1.4,3,3v234.3C304.9,203.8,303.5,205.2,301.9,205.2z"
		/>
	<path class="st1" d="M259.7-53.2c-1.6,0-3-1.4-3-3c0-27.8,17.8-52,44.3-60.3c1.6-0.5,3.3,0.4,3.7,2c0.5,1.5-0.4,3.3-2,3.7
		c-24,7.4-40.1,29.3-40.1,54.6C262.8-54.5,261.5-53.2,259.7-53.2z"/>
	<path class="st1" d="M259.7,157.1c-1.6,0-3-1.4-3-3V-56.1c0-1.6,1.4-3,3-3c1.6,0,3,1.4,3,3v210.2
		C262.8,155.7,261.5,157.1,259.7,157.1z"/>
	<path class="st1" d="M295.8,157.1h-36.1c-1.6,0-3-1.4-3-3c0-1.6,1.4-3,3-3h36.1c1.6,0,3,1.4,3,3
		C298.8,155.7,297.5,157.1,295.8,157.1z"/>
	<path class="st1" d="M265.8,175.1c-1.6,0-3-1.4-3-3v-12.1c0-1.6,1.4-3,3-3c1.6,0,3,1.4,3,3v12.1
		C268.8,173.8,267.4,175.1,265.8,175.1z"/>
	<path class="st1" d="M295.8,175.1h-30.1c-1.6,0-3-1.4-3-3s1.4-3,3-3h30.1c1.6,0,3,1.4,3,3S297.5,175.1,295.8,175.1z"/>
	<path class="st1" d="M277.8,175.1c-1.6,0-3-1.4-3-3v-6c0-1.6,1.4-3,3-3s3,1.4,3,3v6C280.8,173.8,279.5,175.1,277.8,175.1z"/>
	<path class="st1" d="M289.8,175.1c-1.6,0-3-1.4-3-3v-6c0-1.6,1.4-3,3-3c1.6,0,3,1.4,3,3v6C292.8,173.8,291.4,175.1,289.8,175.1z"/>
	<path class="st1" d="M410-41.1c-1.1,0-2.2-0.6-2.7-1.6l-6-12.1c-0.7-1.5-0.2-3.3,1.4-4.1c1.5-0.7,3.3-0.2,4.1,1.4l6,12.1
		c0.7,1.5,0.2,3.3-1.4,4.1C410.9-41.3,410.4-41.1,410-41.1z"/>
	<path class="st1" d="M307.8,217.2c-1.6,0-3-1.4-3-3v-6c0-1.6,1.4-3,3-3c1.6,0,3,1.4,3,3v6C310.8,215.9,309.5,217.2,307.8,217.2z"/>
	<path class="st1" d="M500.1,217.2H307.8c-1.6,0-3-1.4-3-3c0-1.6,1.4-3,3-3h192.3c1.6,0,3,1.4,3,3
		C503,215.9,501.7,217.2,500.1,217.2z"/>
	<path class="st1" d="M500.1,217.2c-1.6,0-3-1.4-3-3v-6c0-1.6,1.4-3,3-3c1.6,0,3,1.4,3,3v6C503,215.9,501.7,217.2,500.1,217.2z"/>
	<path class="st1" d="M482,217.2c-1.6,0-3-1.4-3-3v-6c0-1.6,1.4-3,3-3s3,1.4,3,3v6C485,215.9,483.7,217.2,482,217.2z"/>
	<path class="st1" d="M470,217.2c-1.6,0-3-1.4-3-3v-6c0-1.6,1.4-3,3-3c1.6,0,3,1.4,3,3v6C473,215.9,471.7,217.2,470,217.2z"/>
	<path class="st1" d="M458,217.2c-1.6,0-3-1.4-3-3v-6c0-1.6,1.4-3,3-3c1.6,0,3,1.4,3,3v6C461,215.9,459.7,217.2,458,217.2z"/>
	<path class="st1" d="M446,217.2c-1.6,0-3-1.4-3-3v-6c0-1.6,1.4-3,3-3s3,1.4,3,3v6C448.9,215.9,447.7,217.2,446,217.2z"/>
	<path class="st1" d="M434,217.2c-1.6,0-3-1.4-3-3v-6c0-1.6,1.4-3,3-3c1.6,0,3,1.4,3,3v6C437,215.9,435.7,217.2,434,217.2z"/>
	<path class="st1" d="M422,217.2c-1.6,0-3-1.4-3-3v-6c0-1.6,1.4-3,3-3c1.6,0,3,1.4,3,3v6C424.9,215.9,423.7,217.2,422,217.2z"/>
	<path class="st1" d="M410,217.2c-1.6,0-3-1.4-3-3v-6c0-1.6,1.4-3,3-3c1.6,0,3,1.4,3,3v6C413,215.9,411.6,217.2,410,217.2z"/>
	<path class="st1" d="M398,217.2c-1.6,0-3-1.4-3-3v-6c0-1.6,1.4-3,3-3c1.6,0,3,1.4,3,3v6C401,215.9,399.6,217.2,398,217.2z"/>
	<path class="st1" d="M386,217.2c-1.6,0-3-1.4-3-3v-6c0-1.6,1.4-3,3-3c1.6,0,3,1.4,3,3v6C389,215.9,387.6,217.2,386,217.2z"/>
	<path class="st1" d="M373.9,217.2c-1.6,0-3-1.4-3-3v-6c0-1.6,1.4-3,3-3c1.6,0,3,1.4,3,3v6C377,215.9,375.6,217.2,373.9,217.2z"/>
	<path class="st1" d="M361.9,217.2c-1.6,0-3-1.4-3-3v-6c0-1.6,1.4-3,3-3s3,1.4,3,3v6C364.9,215.9,363.6,217.2,361.9,217.2z"/>
	<path class="st1" d="M349.9,217.2c-1.6,0-3-1.4-3-3v-6c0-1.6,1.4-3,3-3s3,1.4,3,3v6C352.9,215.9,351.5,217.2,349.9,217.2z"/>
	<path class="st1" d="M337.9,217.2c-1.6,0-3-1.4-3-3v-6c0-1.6,1.4-3,3-3c1.6,0,3,1.4,3,3v6C340.9,215.9,339.6,217.2,337.9,217.2z"/>
	<path class="st1" d="M325.9,217.2c-1.6,0-3-1.4-3-3v-6c0-1.6,1.4-3,3-3c1.6,0,3,1.4,3,3v6C328.9,215.9,327.5,217.2,325.9,217.2z"/>
	<path class="st1" d="M397.9-71.2c-0.6,0-68.2-0.6-98.7-55.5c-0.8-1.4-0.3-3.3,1.2-4.1s3.3-0.3,4.1,1.2
		c28.7,51.8,92.8,52.5,93.4,52.5c1.6,0,3,1.4,3,3C400.9-72.5,399.6-71.2,397.9-71.2z"/>
	<path class="st1" d="M397.9-71.2c-1.3,0-2.4-0.8-2.8-2c-0.2-0.5-18.5-52.3-93.5-58.1c-1.6-0.2-2.9-1.5-2.8-3.3
		c0.1-1.7,1.7-2.9,3.3-2.8c41.2,3.2,65.9,19.8,79.2,33.2c14.6,14.6,19.3,28.4,19.5,29c0.5,1.5-0.3,3.3-1.9,3.8
		C398.6-71.2,398.2-71.2,397.9-71.2z"/>
	<path class="st1" d="M506,205.2c-1.6,0-3-1.4-3-3V-32.1c0-1.6,1.4-3,3-3c1.6,0,3,1.4,3,3v234.3C509,203.8,507.8,205.2,506,205.2z"
		/>
	<path class="st1" d="M548.2-53.2c-1.6,0-3-1.4-3-3c0-25.2-16-47.1-40.1-54.6c-1.5-0.5-2.4-2.2-2-3.7c0.5-1.5,2.2-2.4,3.7-2
		c26.6,8.2,44.3,32.4,44.3,60.3C551.2-54.5,549.8-53.2,548.2-53.2z"/>
	<path class="st1" d="M548.2,157.1c-1.6,0-3-1.4-3-3V-56.1c0-1.6,1.4-3,3-3c1.6,0,3,1.4,3,3v210.2
		C551.2,155.7,549.8,157.1,548.2,157.1z"/>
	<path class="st1" d="M548.2,157.1h-36.1c-1.6,0-3-1.4-3-3c0-1.6,1.4-3,3-3h36.1c1.6,0,3,1.4,3,3
		C551.2,155.7,549.8,157.1,548.2,157.1z"/>
	<path class="st1" d="M542.1,175.1c-1.6,0-3-1.4-3-3v-12.1c0-1.6,1.4-3,3-3c1.6,0,3,1.4,3,3v12.1
		C545.1,173.8,543.7,175.1,542.1,175.1z"/>
	<path class="st1" d="M542.1,175.1H512c-1.6,0-3-1.4-3-3s1.4-3,3-3h30.1c1.6,0,3,1.4,3,3S543.7,175.1,542.1,175.1z"/>
	<path class="st1" d="M530.1,175.1c-1.6,0-3-1.4-3-3v-6c0-1.6,1.4-3,3-3c1.6,0,3,1.4,3,3v6C533.1,173.8,531.8,175.1,530.1,175.1z"/>
	<path class="st1" d="M518.1,175.1c-1.6,0-3-1.4-3-3v-6c0-1.6,1.4-3,3-3s3,1.4,3,3v6C521.1,173.8,519.7,175.1,518.1,175.1z"/>
	<path class="st1" d="M410-71.2c-1.6,0-3-1.4-3-3c0-1.6,1.4-3,3-3c0.6,0,64.7-0.6,93.5-52.5c0.8-1.4,2.6-2,4.1-1.2
		c1.4,0.8,2,2.6,1.2,4.1C478.2-71.8,410.7-71.2,410-71.2z"/>
	<path class="st1" d="M410-71.2c-0.3,0-0.6-0.1-1-0.2c-1.5-0.5-2.4-2.3-1.9-3.8c0.2-0.6,4.9-14.3,19.6-29
		c13.4-13.3,38.1-29.9,79.3-33.2c1.5-0.2,3.1,1.1,3.3,2.8c0.2,1.6-1.1,3.1-2.8,3.3c-75.3,5.8-93.3,57.5-93.5,58.1
		C412.4-72,411.2-71.2,410-71.2z"/>
	<path class="st1" d="M506-131.3c-1.6,0-3-1.4-3-3c0-9.4-29.1-27-99.1-27s-99.1,17.6-99.1,27c0,1.6-1.4,3-3,3c-1.6,0-3-1.4-3-3
		c0-16.5,36.2-33.1,105.1-33.1S509-150.8,509-134.3C509-132.6,507.8-131.3,506-131.3z"/>
	<path class="st1" d="M488-135c-0.5,0-1-0.2-1.5-0.4c-7.4-4.2-30.4-13.9-82.6-13.9c-52.1,0-75,9.7-82.5,13.9
		c-1.4,0.8-3.3,0.3-4.1-1.1c-0.8-1.4-0.3-3.3,1.1-4.1c9.8-5.5,33.8-14.7,85.4-14.7c51.7,0,75.7,9.2,85.5,14.7c1.4,0.8,2,2.6,1.1,4.1
		C490-135.5,489-135,488-135z"/>
	<path class="st1" d="M427.9-29.1c-1.6,0-3-1.4-3-3v-36.1c0-1.6,1.4-3,3-3c1.6,0,3,1.4,3,3V-32C430.9-30.4,429.6-29.1,427.9-29.1z"
		/>
	<path class="st1" d="M380-29.1c-1.6,0-3-1.4-3-3v-36.1c0-1.6,1.4-3,3-3c1.6,0,3,1.4,3,3V-32C383-30.4,381.6-29.1,380-29.1z"/>
	<path class="st1" d="M502.7,127.1c-1.1,0-2.2-0.6-2.7-1.6l-24-48c-0.7-1.5-0.2-3.3,1.4-4.1c1.5-0.7,3.3-0.2,4.1,1.4l24,48
		c0.7,1.5,0.2,3.3-1.4,4.1C503.6,127,503.1,127.1,502.7,127.1z"/>
	<path class="st1" d="M310.5,127.1c-0.5,0-0.9-0.1-1.4-0.3c-1.5-0.7-2.1-2.5-1.4-4.1l24-48c0.7-1.5,2.5-2.1,4.1-1.4
		c1.5,0.7,2.1,2.5,1.4,4.1l-24,48C312.6,126.5,311.6,127.1,310.5,127.1z"/>
</g>
<g>
	<path d="M203.8,298.6c1.8,0.9,4.6,1.8,7.4,1.8c3.1,0,4.7-1.3,4.7-3.2c0-1.8-1.4-2.9-4.9-4.2c-4.9-1.7-8.1-4.4-8.1-8.7
		c0-5,4.2-8.9,11.2-8.9c3.3,0,5.8,0.7,7.5,1.5l-1.5,5.4c-1.2-0.6-3.3-1.4-6.2-1.4s-4.3,1.3-4.3,2.8c0,1.9,1.7,2.7,5.5,4.2
		c5.2,1.9,7.7,4.6,7.7,8.8c0,4.9-3.8,9.2-11.9,9.2c-3.4,0-6.7-0.9-8.4-1.8L203.8,298.6z"/>
	<path d="M232,305.4l-7-29.5h7.1l2.2,12.1c0.7,3.5,1.3,7.4,1.8,10.3h0.1c0.5-3.2,1.2-6.7,1.9-10.4l2.5-12.1h7.1l2.4,12.4
		c0.7,3.5,1.1,6.6,1.6,9.9h0.1c0.4-3.3,1.1-6.7,1.7-10.2l2.4-12.1h6.8l-7.6,29.5h-7.3l-2.5-12.7c-0.6-3-1.1-5.7-1.4-9.1h-0.1
		c-0.5,3.3-1,6.1-1.7,9.1l-2.8,12.7H232V305.4z"/>
	<path d="M283.8,293h-10.9v7H285v5.5h-18.8V276h18.2v5.5h-11.5v6.1h10.9V293z"/>
	<path d="M296.5,297.9l-2.1,7.6h-6.9l9-29.5h8.8l9.1,29.5h-7.2l-2.3-7.6H296.5z M304,292.9l-1.8-6.3c-0.5-1.8-1.1-3.9-1.5-5.7h-0.1
		c-0.4,1.8-0.9,4-1.4,5.7l-1.8,6.3H304z"/>
	<path d="M320.4,281.5h-7.9v-5.6h22.7v5.6h-8.1v23.9h-6.7V281.5z"/>
	<path d="M338.5,298.6c1.8,0.9,4.6,1.8,7.4,1.8c3.1,0,4.7-1.3,4.7-3.2c0-1.8-1.4-2.9-4.9-4.2c-4.9-1.7-8.1-4.4-8.1-8.7
		c0-5,4.2-8.9,11.2-8.9c3.3,0,5.8,0.7,7.5,1.5l-1.5,5.4c-1.2-0.6-3.3-1.4-6.2-1.4c-2.9,0-4.3,1.3-4.3,2.8c0,1.9,1.7,2.7,5.5,4.2
		c5.2,1.9,7.7,4.6,7.7,8.8c0,4.9-3.8,9.2-11.9,9.2c-3.4,0-6.7-0.9-8.4-1.8L338.5,298.6z"/>
	<path d="M368.6,275.9v11.3h11v-11.3h6.7v29.5h-6.7v-12.3h-11v12.3h-6.7v-29.5H368.6z"/>
	<path d="M398.8,275.9v29.5H392v-29.5H398.8z"/>
	<path d="M404.6,276.3c2.1-0.3,5.3-0.6,8.9-0.6c4.4,0,7.4,0.7,9.5,2.3c1.8,1.4,2.7,3.5,2.7,6.2c0,3.8-2.7,6.3-5.2,7.3v0.1
		c2.1,0.8,3.2,2.8,3.9,5.5c0.9,3.3,1.8,7.2,2.4,8.3H420c-0.5-0.9-1.2-3.2-2.1-6.9c-0.8-3.7-2.1-4.7-4.8-4.7h-2v11.6h-6.6v-29.1
		H404.6z M411.1,289h2.6c3.3,0,5.3-1.7,5.3-4.2c0-2.7-1.8-4.1-4.9-4.1c-1.6,0-2.5,0.1-3,0.2V289z"/>
	<path d="M436.1,281.5h-7.9v-5.6H451v5.6h-8.1v23.9h-6.7V281.5z"/>
	<path d="M473.3,291.7v4.5h-11.5v-4.5H473.3z"/>
	<path d="M493,275.9v11.3h11v-11.3h6.7v29.5H504v-12.3h-11v12.3h-6.7v-29.5H493z"/>
	<path d="M543.5,290.4c0,9.7-5.9,15.5-14.5,15.5c-8.8,0-13.9-6.6-13.9-15c0-8.8,5.6-15.5,14.4-15.5
		C538.5,275.5,543.5,282.2,543.5,290.4z M522.1,290.8c0,5.8,2.7,9.8,7.2,9.8s7.1-4.3,7.1-10c0-5.3-2.5-9.8-7.1-9.8
		C524.8,280.7,522.1,285,522.1,290.8z"/>
	<path d="M574.8,290.4c0,9.7-5.9,15.5-14.5,15.5c-8.8,0-13.9-6.6-13.9-15c0-8.8,5.6-15.5,14.4-15.5
		C569.9,275.5,574.8,282.2,574.8,290.4z M553.5,290.8c0,5.8,2.7,9.8,7.2,9.8s7.1-4.3,7.1-10c0-5.3-2.5-9.8-7.1-9.8
		C556.1,280.7,553.5,285,553.5,290.8z"/>
	<path d="M579.3,276.3c2.5-0.4,5.6-0.6,9-0.6c5.6,0,9.2,1,12.1,3.2c3.1,2.3,5,5.9,5,11.1c0,5.6-2.1,9.5-4.9,12
		c-3.1,2.6-7.8,3.8-13.6,3.8c-3.5,0-5.9-0.2-7.6-0.4V276.3z M585.9,300.4c0.6,0.1,1.5,0.1,2.3,0.1c6,0,10-3.3,10-10.3
		c0-6.1-3.5-9.4-9.3-9.4c-1.5,0-2.5,0.1-3,0.3V300.4z"/>
</g>
<g>
	<path class="st1" d="M198.2,298.6c1.8,0.9,4.6,1.8,7.4,1.8c3.1,0,4.7-1.3,4.7-3.2c0-1.8-1.4-2.9-4.9-4.2c-4.9-1.7-8.1-4.4-8.1-8.7
		c0-5,4.2-8.9,11.2-8.9c3.3,0,5.8,0.7,7.5,1.5l-1.5,5.4c-1.2-0.6-3.3-1.4-6.2-1.4s-4.3,1.3-4.3,2.8c0,1.9,1.7,2.7,5.5,4.2
		c5.2,1.9,7.7,4.6,7.7,8.8c0,4.9-3.8,9.2-11.9,9.2c-3.4,0-6.7-0.9-8.4-1.8L198.2,298.6z"/>
	<path class="st1" d="M226.4,305.4l-7-29.5h7.1l2.2,12.1c0.7,3.5,1.3,7.4,1.8,10.3h0.1c0.5-3.2,1.2-6.7,1.9-10.4l2.5-12.1h7.1
		l2.4,12.4c0.7,3.5,1.1,6.6,1.6,9.9h0.1c0.4-3.3,1.1-6.7,1.7-10.2l2.4-12.1h6.8l-7.6,29.5h-7.3l-2.5-12.7c-0.6-3-1.1-5.7-1.4-9.1
		h-0.1c-0.5,3.3-1,6.1-1.7,9.1l-2.8,12.7h-7.3V305.4z"/>
	<path class="st1" d="M278.1,293h-10.9v7h12.1v5.5h-18.8V276h18.2v5.5h-11.5v6.1h10.9V293z"/>
	<path class="st1" d="M290.8,297.9l-2.1,7.6h-6.9l9-29.5h8.8l9.1,29.5h-7.2l-2.3-7.6H290.8z M298.3,292.9l-1.8-6.3
		c-0.5-1.8-1.1-3.9-1.5-5.7h-0.1c-0.4,1.8-0.9,4-1.4,5.7l-1.8,6.3H298.3z"/>
	<path class="st1" d="M314.7,281.5h-7.9v-5.6h22.7v5.6h-8.1v23.9h-6.7V281.5z"/>
	<path class="st1" d="M332.8,298.6c1.8,0.9,4.6,1.8,7.4,1.8c3.1,0,4.7-1.3,4.7-3.2c0-1.8-1.4-2.9-4.9-4.2c-4.9-1.7-8.1-4.4-8.1-8.7
		c0-5,4.2-8.9,11.2-8.9c3.3,0,5.8,0.7,7.5,1.5l-1.5,5.4c-1.2-0.6-3.3-1.4-6.2-1.4c-2.9,0-4.3,1.3-4.3,2.8c0,1.9,1.7,2.7,5.5,4.2
		c5.2,1.9,7.7,4.6,7.7,8.8c0,4.9-3.8,9.2-11.9,9.2c-3.4,0-6.7-0.9-8.4-1.8L332.8,298.6z"/>
	<path class="st1" d="M362.9,275.9v11.3h11v-11.3h6.7v29.5h-6.7v-12.3h-11v12.3h-6.7v-29.5H362.9z"/>
	<path class="st1" d="M393.1,275.9v29.5h-6.7v-29.5H393.1z"/>
	<path class="st1" d="M398.9,276.3c2.1-0.3,5.3-0.6,8.9-0.6c4.4,0,7.4,0.7,9.5,2.3c1.8,1.4,2.7,3.5,2.7,6.2c0,3.8-2.7,6.3-5.2,7.3
		v0.1c2.1,0.8,3.2,2.8,3.9,5.5c0.9,3.3,1.8,7.2,2.4,8.3h-6.8c-0.5-0.9-1.2-3.2-2.1-6.9c-0.8-3.7-2.1-4.7-4.8-4.7h-2v11.6h-6.6v-29.1
		H398.9z M405.5,289h2.6c3.3,0,5.3-1.7,5.3-4.2c0-2.7-1.8-4.1-4.9-4.1c-1.6,0-2.5,0.1-3,0.2V289z"/>
	<path class="st1" d="M430.5,281.5h-7.9v-5.6h22.7v5.6h-8.1v23.9h-6.7V281.5z"/>
	<path class="st1" d="M467.6,291.7v4.5h-11.5v-4.5H467.6z"/>
	<path class="st1" d="M487.3,275.9v11.3h11v-11.3h6.7v29.5h-6.7v-12.3h-11v12.3h-6.7v-29.5H487.3z"/>
	<path class="st1" d="M537.8,290.4c0,9.7-5.9,15.5-14.5,15.5c-8.8,0-13.9-6.6-13.9-15c0-8.8,5.6-15.5,14.4-15.5
		C532.9,275.5,537.8,282.2,537.8,290.4z M516.5,290.8c0,5.8,2.7,9.8,7.2,9.8s7.1-4.3,7.1-10c0-5.3-2.5-9.8-7.1-9.8
		C519.1,280.7,516.5,285,516.5,290.8z"/>
	<path class="st1" d="M569.2,290.4c0,9.7-5.9,15.5-14.5,15.5c-8.8,0-13.9-6.6-13.9-15c0-8.8,5.6-15.5,14.4-15.5
		C564.3,275.5,569.2,282.2,569.2,290.4z M547.9,290.8c0,5.8,2.7,9.8,7.2,9.8s7.1-4.3,7.1-10c0-5.3-2.5-9.8-7.1-9.8
		C550.5,280.7,547.9,285,547.9,290.8z"/>
	<path class="st1" d="M573.6,276.3c2.5-0.4,5.6-0.6,9-0.6c5.6,0,9.2,1,12.1,3.2c3.1,2.3,5,5.9,5,11.1c0,5.6-2.1,9.5-4.9,12
		c-3.1,2.6-7.8,3.8-13.6,3.8c-3.5,0-5.9-0.2-7.6-0.4V276.3z M580.3,300.4c0.6,0.1,1.5,0.1,2.3,0.1c6,0,10-3.3,10-10.3
		c0-6.1-3.5-9.4-9.3-9.4c-1.5,0-2.5,0.1-3,0.3V300.4z"/>
</g>
</svg>
