<?xml version="1.0" encoding="utf-8"?>
<!-- Generator: Adobe Illustrator 19.0.0, SVG Export Plug-In . SVG Version: 6.00 Build 0)  -->
<svg version="1.1" id="Capa_1" xmlns="http://www.w3.org/2000/svg" xmlns:xlink="http://www.w3.org/1999/xlink" x="0px" y="0px"
	 viewBox="112 -39.9 511.9 511.9" style="enable-background:new 112 -39.9 511.9 511.9;" xml:space="preserve">
<style type="text/css">
	.st0{fill:#3A3847;}
</style>
<g>
	<path class="st0" d="M480.6,384H255.3c-1.8,0-3.3-1.5-3.3-3.3s1.5-3.3,3.3-3.3h225.5c1.8,0,3.3,1.5,3.3,3.3
		C483.9,382.5,482.5,384,480.6,384z"/>
	<path class="st0" d="M368,377.4c-1.8,0-3.3-1.5-3.3-3.3V82.4c0-1.8,1.5-3.3,3.3-3.3c1.8,0,3.3,1.5,3.3,3.3V374
		C371.3,375.9,369.8,377.4,368,377.4z"/>
	<path class="st0" d="M255.3,384c-1.8,0-3.3-1.5-3.3-3.3V122.1c0-1.8,1.5-3.3,3.3-3.3c1.8,0,3.3,1.5,3.3,3.3v258.5
		C258.6,382.5,257.1,384,255.3,384z"/>
	<path class="st0" d="M208.8,98.9c-1.8,0-3.3-1.5-3.3-3.3c0-30.7,19.6-57.4,48.9-66.5c1.8-0.5,3.6,0.4,4.1,2.2
		c0.6,1.7-0.4,3.6-2.2,4.1c-26.5,8.2-44.3,32.3-44.3,60.2C212.2,97.4,210.7,98.9,208.8,98.9z"/>
	<path class="st0" d="M208.8,330.9c-1.8,0-3.3-1.5-3.3-3.3v-232c0-1.8,1.5-3.3,3.3-3.3s3.3,1.5,3.3,3.3v232
		C212.2,329.4,210.7,330.9,208.8,330.9z"/>
	<path class="st0" d="M248.6,330.9h-39.8c-1.8,0-3.3-1.5-3.3-3.3s1.5-3.3,3.3-3.3h39.8c1.8,0,3.3,1.5,3.3,3.3
		S250.5,330.9,248.6,330.9z"/>
	<path class="st0" d="M215.5,350.8c-1.8,0-3.3-1.5-3.3-3.3v-13.3c0-1.8,1.5-3.3,3.3-3.3s3.3,1.5,3.3,3.3v13.3
		C218.8,349.3,217.3,350.8,215.5,350.8z"/>
	<path class="st0" d="M248.6,350.8h-33.2c-1.8,0-3.3-1.5-3.3-3.3s1.5-3.3,3.3-3.3h33.2c1.8,0,3.3,1.5,3.3,3.3
		S250.5,350.8,248.6,350.8z"/>
	<path class="st0" d="M228.7,350.8c-1.8,0-3.3-1.5-3.3-3.3v-6.6c0-1.8,1.5-3.3,3.3-3.3c1.8,0,3.3,1.5,3.3,3.3v6.6
		C232.1,349.3,230.6,350.8,228.7,350.8z"/>
	<path class="st0" d="M242,350.8c-1.8,0-3.3-1.5-3.3-3.3v-6.6c0-1.8,1.5-3.3,3.3-3.3s3.3,1.5,3.3,3.3v6.6
		C245.3,349.3,243.8,350.8,242,350.8z"/>
	<path class="st0" d="M374.6,112.2c-1.2,0-2.4-0.7-3-1.8L365,97.1c-0.8-1.7-0.2-3.6,1.5-4.5c1.7-0.8,3.6-0.2,4.5,1.5l6.6,13.3
		c0.8,1.7,0.2,3.6-1.5,4.5C375.6,112,375.1,112.2,374.6,112.2z"/>
	<path class="st0" d="M261.9,397.2c-1.8,0-3.3-1.5-3.3-3.3v-6.6c0-1.8,1.5-3.3,3.3-3.3c1.8,0,3.3,1.5,3.3,3.3v6.6
		C265.2,395.8,263.7,397.2,261.9,397.2z"/>
	<path class="st0" d="M474,397.2H261.9c-1.8,0-3.3-1.5-3.3-3.3c0-1.8,1.5-3.3,3.3-3.3h212.2c1.8,0,3.3,1.5,3.3,3.3
		C477.3,395.8,475.8,397.2,474,397.2z"/>
	<path class="st0" d="M474,397.2c-1.8,0-3.3-1.5-3.3-3.3v-6.6c0-1.8,1.5-3.3,3.3-3.3s3.3,1.5,3.3,3.3v6.6
		C477.3,395.8,475.8,397.2,474,397.2z"/>
	<path class="st0" d="M454.1,397.2c-1.8,0-3.3-1.5-3.3-3.3v-6.6c0-1.8,1.5-3.3,3.3-3.3s3.3,1.5,3.3,3.3v6.6
		C457.4,395.8,455.9,397.2,454.1,397.2z"/>
	<path class="st0" d="M440.8,397.2c-1.8,0-3.3-1.5-3.3-3.3v-6.6c0-1.8,1.5-3.3,3.3-3.3s3.3,1.5,3.3,3.3v6.6
		C444.2,395.8,442.7,397.2,440.8,397.2z"/>
	<path class="st0" d="M427.6,397.2c-1.8,0-3.3-1.5-3.3-3.3v-6.6c0-1.8,1.5-3.3,3.3-3.3s3.3,1.5,3.3,3.3v6.6
		C430.9,395.8,429.5,397.2,427.6,397.2z"/>
	<path class="st0" d="M414.3,397.2c-1.8,0-3.3-1.5-3.3-3.3v-6.6c0-1.8,1.5-3.3,3.3-3.3s3.3,1.5,3.3,3.3v6.6
		C417.6,395.8,416.2,397.2,414.3,397.2z"/>
	<path class="st0" d="M401.1,397.2c-1.8,0-3.3-1.5-3.3-3.3v-6.6c0-1.8,1.5-3.3,3.3-3.3c1.8,0,3.3,1.5,3.3,3.3v6.6
		C404.4,395.8,403,397.2,401.1,397.2z"/>
	<path class="st0" d="M387.9,397.2c-1.8,0-3.3-1.5-3.3-3.3v-6.6c0-1.8,1.5-3.3,3.3-3.3c1.8,0,3.3,1.5,3.3,3.3v6.6
		C391.1,395.8,389.7,397.2,387.9,397.2z"/>
	<path class="st0" d="M374.6,397.2c-1.8,0-3.3-1.5-3.3-3.3v-6.6c0-1.8,1.5-3.3,3.3-3.3c1.8,0,3.3,1.5,3.3,3.3v6.6
		C377.9,395.8,376.4,397.2,374.6,397.2z"/>
	<path class="st0" d="M361.4,397.2c-1.8,0-3.3-1.5-3.3-3.3v-6.6c0-1.8,1.5-3.3,3.3-3.3c1.8,0,3.3,1.5,3.3,3.3v6.6
		C364.7,395.8,363.2,397.2,361.4,397.2z"/>
	<path class="st0" d="M348.1,397.2c-1.8,0-3.3-1.5-3.3-3.3v-6.6c0-1.8,1.5-3.3,3.3-3.3c1.8,0,3.3,1.5,3.3,3.3v6.6
		C351.4,395.8,349.9,397.2,348.1,397.2z"/>
	<path class="st0" d="M334.8,397.2c-1.8,0-3.3-1.5-3.3-3.3v-6.6c0-1.8,1.5-3.3,3.3-3.3c1.8,0,3.3,1.5,3.3,3.3v6.6
		C338.2,395.8,336.7,397.2,334.8,397.2z"/>
	<path class="st0" d="M321.6,397.2c-1.8,0-3.3-1.5-3.3-3.3v-6.6c0-1.8,1.5-3.3,3.3-3.3c1.8,0,3.3,1.5,3.3,3.3v6.6
		C324.9,395.8,323.4,397.2,321.6,397.2z"/>
	<path class="st0" d="M308.3,397.2c-1.8,0-3.3-1.5-3.3-3.3v-6.6c0-1.8,1.5-3.3,3.3-3.3c1.8,0,3.3,1.5,3.3,3.3v6.6
		C311.6,395.8,310.1,397.2,308.3,397.2z"/>
	<path class="st0" d="M295.1,397.2c-1.8,0-3.3-1.5-3.3-3.3v-6.6c0-1.8,1.5-3.3,3.3-3.3c1.8,0,3.3,1.5,3.3,3.3v6.6
		C298.4,395.8,296.9,397.2,295.1,397.2z"/>
	<path class="st0" d="M281.8,397.2c-1.8,0-3.3-1.5-3.3-3.3v-6.6c0-1.8,1.5-3.3,3.3-3.3c1.8,0,3.3,1.5,3.3,3.3v6.6
		C285.1,395.8,283.6,397.2,281.8,397.2z"/>
	<path class="st0" d="M361.3,79c-0.7,0-75.3-0.7-108.9-61.3c-0.9-1.6-0.3-3.6,1.3-4.5c1.6-0.9,3.6-0.3,4.5,1.3
		c31.7,57.2,102.4,57.9,103.1,57.9c1.8,0,3.3,1.5,3.3,3.3C364.6,77.6,363.1,79,361.3,79z"/>
	<path class="st0" d="M361.3,79c-1.4,0-2.7-0.9-3.1-2.2c-0.2-0.6-20.4-57.7-103.2-64.1c-1.8-0.2-3.2-1.7-3.1-3.6s1.9-3.2,3.6-3.1
		c45.5,3.5,72.7,21.8,87.4,36.6c16.1,16.1,21.3,31.3,21.5,32c0.6,1.7-0.3,3.6-2.1,4.2C362,79,361.6,79,361.3,79z"/>
	<path class="st0" d="M480.6,384c-1.8,0-3.3-1.5-3.3-3.3V122.1c0-1.8,1.5-3.3,3.3-3.3s3.3,1.5,3.3,3.3v258.5
		C483.9,382.5,482.5,384,480.6,384z"/>
	<path class="st0" d="M527.1,98.9c-1.8,0-3.3-1.5-3.3-3.3c0-27.8-17.7-52-44.3-60.2c-1.7-0.6-2.7-2.4-2.2-4.1
		c0.5-1.7,2.4-2.7,4.1-2.2c29.3,9,48.9,35.8,48.9,66.5C530.4,97.4,528.9,98.9,527.1,98.9z"/>
	<path class="st0" d="M527.1,330.9c-1.8,0-3.3-1.5-3.3-3.3v-232c0-1.8,1.5-3.3,3.3-3.3s3.3,1.5,3.3,3.3v232
		C530.4,329.4,528.9,330.9,527.1,330.9z"/>
	<path class="st0" d="M527.1,330.9h-39.8c-1.8,0-3.3-1.5-3.3-3.3s1.5-3.3,3.3-3.3h39.8c1.8,0,3.3,1.5,3.3,3.3
		S528.9,330.9,527.1,330.9z"/>
	<path class="st0" d="M520.4,350.8c-1.8,0-3.3-1.5-3.3-3.3v-13.3c0-1.8,1.5-3.3,3.3-3.3c1.8,0,3.3,1.5,3.3,3.3v13.3
		C523.7,349.3,522.2,350.8,520.4,350.8z"/>
	<path class="st0" d="M520.4,350.8h-33.2c-1.8,0-3.3-1.5-3.3-3.3s1.5-3.3,3.3-3.3h33.2c1.8,0,3.3,1.5,3.3,3.3
		S522.2,350.8,520.4,350.8z"/>
	<path class="st0" d="M507.2,350.8c-1.8,0-3.3-1.5-3.3-3.3v-6.6c0-1.8,1.5-3.3,3.3-3.3s3.3,1.5,3.3,3.3v6.6
		C510.5,349.3,509,350.8,507.2,350.8z"/>
	<path class="st0" d="M493.9,350.8c-1.8,0-3.3-1.5-3.3-3.3v-6.6c0-1.8,1.5-3.3,3.3-3.3c1.8,0,3.3,1.5,3.3,3.3v6.6
		C497.2,349.3,495.7,350.8,493.9,350.8z"/>
	<path class="st0" d="M374.6,79c-1.8,0-3.3-1.5-3.3-3.3s1.5-3.3,3.3-3.3c0.7,0,71.4-0.7,103.2-57.9c0.9-1.6,2.9-2.2,4.5-1.3
		c1.6,0.9,2.2,2.9,1.3,4.5C449.9,78.3,375.4,79,374.6,79z"/>
	<path class="st0" d="M374.6,79c-0.3,0-0.7-0.1-1.1-0.2c-1.7-0.6-2.7-2.5-2.1-4.2c0.2-0.7,5.4-15.8,21.6-32
		C407.8,27.9,435,9.6,480.5,6c1.7-0.2,3.4,1.2,3.6,3.1c0.2,1.8-1.2,3.4-3.1,3.6c-83.1,6.4-103,63.5-103.2,64.1
		C377.3,78.1,375.9,79,374.6,79z"/>
	<path class="st0" d="M480.6,12.7c-1.8,0-3.3-1.5-3.3-3.3c0-10.4-32.1-29.8-109.4-29.8S258.5-1,258.5,9.4c0,1.8-1.5,3.3-3.3,3.3
		s-3.3-1.5-3.3-3.3c0-18.2,39.9-36.5,116-36.5s116,18.3,116,36.5C483.9,11.2,482.5,12.7,480.6,12.7z"/>
	<path class="st0" d="M460.7,8.6c-0.6,0-1.1-0.2-1.7-0.4c-8.2-4.6-33.5-15.3-91.1-15.3c-57.5,0-82.8,10.7-91,15.3
		c-1.6,0.9-3.6,0.3-4.5-1.2c-0.9-1.6-0.3-3.6,1.2-4.5c10.8-6.1,37.3-16.2,94.2-16.2c57,0,83.5,10.2,94.3,16.2
		c1.6,0.9,2.2,2.9,1.2,4.5C462.9,8,461.8,8.6,460.7,8.6z"/>
	<path class="st0" d="M394.4,125.5c-1.8,0-3.3-1.5-3.3-3.3V82.4c0-1.8,1.5-3.3,3.3-3.3c1.8,0,3.3,1.5,3.3,3.3v39.8
		C397.7,124,396.3,125.5,394.4,125.5z"/>
	<path class="st0" d="M341.5,125.5c-1.8,0-3.3-1.5-3.3-3.3V82.4c0-1.8,1.5-3.3,3.3-3.3c1.8,0,3.3,1.5,3.3,3.3v39.8
		C344.8,124,343.3,125.5,341.5,125.5z"/>
	<path class="st0" d="M476.9,297.8c-1.2,0-2.4-0.7-3-1.8l-26.5-53c-0.8-1.7-0.2-3.6,1.5-4.5c1.7-0.8,3.6-0.2,4.5,1.5l26.5,53
		c0.8,1.7,0.2,3.6-1.5,4.5C477.9,297.7,477.4,297.8,476.9,297.8z"/>
	<path class="st0" d="M264.8,297.8c-0.5,0-1-0.1-1.5-0.3c-1.7-0.8-2.3-2.8-1.5-4.5l26.5-53c0.8-1.7,2.8-2.3,4.5-1.5
		c1.7,0.8,2.3,2.8,1.5,4.5l-26.5,53C267.1,297.1,266,297.8,264.8,297.8z"/>
</g>
<g>
	<path d="M168,444.4c1.8,0.9,4.6,1.8,7.4,1.8c3.1,0,4.7-1.3,4.7-3.2c0-1.8-1.4-2.9-4.9-4.2c-4.9-1.7-8.1-4.4-8.1-8.7
		c0-5,4.2-8.9,11.2-8.9c3.3,0,5.8,0.7,7.5,1.5l-1.5,5.4c-1.2-0.6-3.3-1.4-6.2-1.4c-2.9,0-4.3,1.3-4.3,2.8c0,1.9,1.7,2.7,5.5,4.2
		c5.2,1.9,7.7,4.6,7.7,8.8c0,4.9-3.8,9.2-11.9,9.2c-3.4,0-6.7-0.9-8.4-1.8L168,444.4z"/>
	<path d="M196.2,451.2l-7-29.5h7.1l2.2,12.1c0.7,3.5,1.3,7.4,1.8,10.3h0.1c0.5-3.2,1.2-6.7,1.9-10.4l2.5-12.1h7.1l2.4,12.4
		c0.7,3.5,1.1,6.6,1.6,9.9h0.1c0.4-3.3,1.1-6.7,1.7-10.2l2.4-12.1h6.8l-7.6,29.5H212l-2.5-12.7c-0.6-3-1.1-5.7-1.4-9.1h-0.1
		c-0.5,3.3-1,6.1-1.7,9.1l-2.8,12.7H196.2z"/>
	<path d="M247.9,438.8H237v7h12.1v5.5h-18.8v-29.5h18.2v5.5H237v6.1h10.9V438.8z"/>
	<path d="M260.6,443.7l-2.1,7.6h-6.9l9-29.5h8.8l9.1,29.5h-7.2l-2.3-7.6H260.6z M268.1,438.7l-1.8-6.3c-0.5-1.8-1.1-3.9-1.5-5.7
		h-0.1c-0.4,1.8-0.9,4-1.4,5.7l-1.8,6.3H268.1z"/>
	<path d="M284.5,427.3h-7.9v-5.6h22.7v5.6h-8.1v23.9h-6.7V427.3z"/>
	<path d="M302.6,444.4c1.8,0.9,4.6,1.8,7.4,1.8c3.1,0,4.7-1.3,4.7-3.2c0-1.8-1.4-2.9-4.9-4.2c-4.9-1.7-8.1-4.4-8.1-8.7
		c0-5,4.2-8.9,11.2-8.9c3.3,0,5.8,0.7,7.5,1.5l-1.5,5.4c-1.2-0.6-3.3-1.4-6.2-1.4c-2.9,0-4.3,1.3-4.3,2.8c0,1.9,1.7,2.7,5.5,4.2
		c5.2,1.9,7.7,4.6,7.7,8.8c0,4.9-3.8,9.2-11.9,9.2c-3.4,0-6.7-0.9-8.4-1.8L302.6,444.4z"/>
	<path d="M332.7,421.7v11.3h11v-11.3h6.7v29.5h-6.7v-12.3h-11v12.3H326v-29.5H332.7z"/>
	<path d="M362.9,421.7v29.5h-6.7v-29.5H362.9z"/>
	<path d="M368.7,422.1c2.1-0.3,5.3-0.6,8.9-0.6c4.4,0,7.4,0.7,9.5,2.3c1.8,1.4,2.7,3.5,2.7,6.2c0,3.8-2.7,6.3-5.2,7.3v0.1
		c2.1,0.8,3.2,2.8,3.9,5.5c0.9,3.3,1.8,7.2,2.4,8.3h-6.8c-0.5-0.9-1.2-3.2-2.1-6.9c-0.8-3.7-2.1-4.7-4.8-4.7h-2v11.6h-6.6V422.1z
		 M375.3,434.8h2.6c3.3,0,5.3-1.7,5.3-4.2c0-2.7-1.8-4.1-4.9-4.1c-1.6,0-2.5,0.1-3,0.2V434.8z"/>
	<path d="M400.3,427.3h-7.9v-5.6h22.7v5.6H407v23.9h-6.7V427.3z"/>
	<path d="M437.4,437.5v4.5h-11.5v-4.5H437.4z"/>
	<path d="M457.1,421.7v11.3h11v-11.3h6.7v29.5h-6.7v-12.3h-11v12.3h-6.7v-29.5H457.1z"/>
	<path d="M507.6,436.2c0,9.7-5.9,15.5-14.5,15.5c-8.8,0-13.9-6.6-13.9-15c0-8.8,5.6-15.5,14.4-15.5
		C502.7,421.3,507.6,428,507.6,436.2z M486.3,436.6c0,5.8,2.7,9.8,7.2,9.8c4.5,0,7.1-4.3,7.1-10c0-5.3-2.5-9.8-7.1-9.8
		C488.9,426.5,486.3,430.8,486.3,436.6z"/>
	<path d="M539,436.2c0,9.7-5.9,15.5-14.5,15.5c-8.8,0-13.9-6.6-13.9-15c0-8.8,5.6-15.5,14.4-15.5C534.1,421.3,539,428,539,436.2z
		 M517.7,436.6c0,5.8,2.7,9.8,7.2,9.8c4.5,0,7.1-4.3,7.1-10c0-5.3-2.5-9.8-7.1-9.8C520.3,426.5,517.7,430.8,517.7,436.6z"/>
	<path d="M543.4,422.1c2.5-0.4,5.6-0.6,9-0.6c5.6,0,9.2,1,12.1,3.2c3.1,2.3,5,5.9,5,11.1c0,5.6-2.1,9.5-4.9,12
		c-3.1,2.6-7.8,3.8-13.6,3.8c-3.5,0-5.9-0.2-7.6-0.4V422.1z M550.1,446.2c0.6,0.1,1.5,0.1,2.3,0.1c6,0,10-3.3,10-10.3
		c0-6.1-3.5-9.4-9.3-9.4c-1.5,0-2.5,0.1-3,0.3V446.2z"/>
</g>
</svg>
