<?xml version="1.0" encoding="utf-8"?>
<!-- Generator: Adobe Illustrator 19.0.0, SVG Export Plug-In . SVG Version: 6.00 Build 0)  -->
<svg version="1.1" id="Capa_1" xmlns="http://www.w3.org/2000/svg" xmlns:xlink="http://www.w3.org/1999/xlink" x="0px" y="0px"
	 viewBox="-49 141.1 511.9 511.9" style="enable-background:new -49 141.1 511.9 511.9;" xml:space="preserve">
<style type="text/css">
	.st0{fill:#3A3847;}
</style>
<g>
	<path class="st0" d="M342.9,637H71c-2.2,0-4-1.8-4-4s1.8-4,4-4h272c2.2,0,4,1.8,4,4C346.9,635.2,345.1,637,342.9,637z"/>
	<path class="st0" d="M207,629c-2.2,0-4-1.8-4-4V273.1c0-2.2,1.8-4,4-4s4,1.8,4,4V625C211,627.2,209.2,629,207,629z"/>
	<path class="st0" d="M71,637c-2.2,0-4-1.8-4-4V321.1c0-2.2,1.8-4,4-4s4,1.8,4,4V633C75,635.2,73.2,637,71,637z"/>
	<path class="st0" d="M15,293.1c-2.2,0-4-1.8-4-4c0-37,23.7-69.3,59-80.2c2.2-0.6,4.4,0.5,5,2.6c0.7,2.1-0.5,4.4-2.6,5
		c-32,9.9-53.4,39-53.4,72.6C19,291.3,17.2,293.1,15,293.1z"/>
	<path class="st0" d="M15,573c-2.2,0-4-1.8-4-4V289.1c0-2.2,1.8-4,4-4s4,1.8,4,4V569C19,571.2,17.2,573,15,573z"/>
	<path class="st0" d="M63,573H15c-2.2,0-4-1.8-4-4s1.8-4,4-4h48c2.2,0,4,1.8,4,4S65.2,573,63,573z"/>
	<path class="st0" d="M23,597c-2.2,0-4-1.8-4-4v-16c0-2.2,1.8-4,4-4s4,1.8,4,4v16C27,595.2,25.2,597,23,597z"/>
	<path class="st0" d="M63,597H23c-2.2,0-4-1.8-4-4s1.8-4,4-4h40c2.2,0,4,1.8,4,4S65.2,597,63,597z"/>
	<path class="st0" d="M39,597c-2.2,0-4-1.8-4-4v-8c0-2.2,1.8-4,4-4s4,1.8,4,4v8C43,595.2,41.2,597,39,597z"/>
	<path class="st0" d="M55,597c-2.2,0-4-1.8-4-4v-8c0-2.2,1.8-4,4-4s4,1.8,4,4v8C59,595.2,57.2,597,55,597z"/>
	<path class="st0" d="M215,309.1c-1.5,0-2.9-0.8-3.6-2.2l-8-16c-1-2-0.2-4.4,1.8-5.4s4.4-0.2,5.4,1.8l8,16c1,2,0.2,4.4-1.8,5.4
		C216.2,308.9,215.6,309.1,215,309.1z"/>
	<path class="st0" d="M79,653c-2.2,0-4-1.8-4-4v-8c0-2.2,1.8-4,4-4s4,1.8,4,4v8C83,651.2,81.2,653,79,653z"/>
	<path class="st0" d="M334.9,653H79c-2.2,0-4-1.8-4-4s1.8-4,4-4h256c2.2,0,4,1.8,4,4C338.9,651.2,337.1,653,334.9,653z"/>
	<path class="st0" d="M334.9,653c-2.2,0-4-1.8-4-4v-8c0-2.2,1.8-4,4-4s4,1.8,4,4v8C338.9,651.2,337.1,653,334.9,653z"/>
	<path class="st0" d="M310.9,653c-2.2,0-4-1.8-4-4v-8c0-2.2,1.8-4,4-4s4,1.8,4,4v8C314.9,651.2,313.1,653,310.9,653z"/>
	<path class="st0" d="M294.9,653c-2.2,0-4-1.8-4-4v-8c0-2.2,1.8-4,4-4s4,1.8,4,4v8C298.9,651.2,297.1,653,294.9,653z"/>
	<path class="st0" d="M278.9,653c-2.2,0-4-1.8-4-4v-8c0-2.2,1.8-4,4-4s4,1.8,4,4v8C282.9,651.2,281.2,653,278.9,653z"/>
	<path class="st0" d="M262.9,653c-2.2,0-4-1.8-4-4v-8c0-2.2,1.8-4,4-4s4,1.8,4,4v8C266.9,651.2,265.2,653,262.9,653z"/>
	<path class="st0" d="M246.9,653c-2.2,0-4-1.8-4-4v-8c0-2.2,1.8-4,4-4s4,1.8,4,4v8C250.9,651.2,249.2,653,246.9,653z"/>
	<path class="st0" d="M231,653c-2.2,0-4-1.8-4-4v-8c0-2.2,1.8-4,4-4s4,1.8,4,4v8C234.9,651.2,233.2,653,231,653z"/>
	<path class="st0" d="M215,653c-2.2,0-4-1.8-4-4v-8c0-2.2,1.8-4,4-4s4,1.8,4,4v8C219,651.2,217.2,653,215,653z"/>
	<path class="st0" d="M199,653c-2.2,0-4-1.8-4-4v-8c0-2.2,1.8-4,4-4s4,1.8,4,4v8C203,651.2,201.2,653,199,653z"/>
	<path class="st0" d="M183,653c-2.2,0-4-1.8-4-4v-8c0-2.2,1.8-4,4-4s4,1.8,4,4v8C187,651.2,185.2,653,183,653z"/>
	<path class="st0" d="M167,653c-2.2,0-4-1.8-4-4v-8c0-2.2,1.8-4,4-4s4,1.8,4,4v8C171,651.2,169.2,653,167,653z"/>
	<path class="st0" d="M151,653c-2.2,0-4-1.8-4-4v-8c0-2.2,1.8-4,4-4s4,1.8,4,4v8C155,651.2,153.2,653,151,653z"/>
	<path class="st0" d="M135,653c-2.2,0-4-1.8-4-4v-8c0-2.2,1.8-4,4-4s4,1.8,4,4v8C139,651.2,137.2,653,135,653z"/>
	<path class="st0" d="M119,653c-2.2,0-4-1.8-4-4v-8c0-2.2,1.8-4,4-4s4,1.8,4,4v8C123,651.2,121.2,653,119,653z"/>
	<path class="st0" d="M103,653c-2.2,0-4-1.8-4-4v-8c0-2.2,1.8-4,4-4s4,1.8,4,4v8C107,651.2,105.2,653,103,653z"/>
	<path class="st0" d="M198.9,269.1c-0.9,0-90.8-0.8-131.4-74c-1.1-1.9-0.4-4.4,1.6-5.4c1.9-1.1,4.4-0.4,5.4,1.6
		c38.3,69,123.6,69.9,124.4,69.9c2.2,0,4,1.8,4,4C202.9,267.3,201.1,269.1,198.9,269.1z"/>
	<path class="st0" d="M198.9,269.1c-1.7,0-3.2-1.1-3.8-2.7c-0.2-0.7-24.6-69.6-124.5-77.3c-2.2-0.2-3.9-2.1-3.7-4.3
		c0.2-2.2,2.3-3.9,4.3-3.7c54.9,4.2,87.7,26.3,105.5,44.2c19.4,19.4,25.7,37.8,25.9,38.6c0.7,2.1-0.4,4.4-2.5,5.1
		C199.8,269,199.3,269.1,198.9,269.1z"/>
	<path class="st0" d="M342.9,637c-2.2,0-4-1.8-4-4V321.1c0-2.2,1.8-4,4-4s4,1.8,4,4V633C346.9,635.2,345.1,637,342.9,637z"/>
	<path class="st0" d="M398.9,293.1c-2.2,0-4-1.8-4-4c0-33.5-21.4-62.7-53.4-72.6c-2.1-0.7-3.3-2.9-2.6-5c0.6-2.1,2.9-3.3,5-2.6
		c35.3,10.9,59,43.2,59,80.2C402.9,291.3,401.1,293.1,398.9,293.1z"/>
	<path class="st0" d="M398.9,573c-2.2,0-4-1.8-4-4V289.1c0-2.2,1.8-4,4-4s4,1.8,4,4V569C402.9,571.2,401.1,573,398.9,573z"/>
	<path class="st0" d="M398.9,573h-48c-2.2,0-4-1.8-4-4s1.8-4,4-4h48c2.2,0,4,1.8,4,4S401.1,573,398.9,573z"/>
	<path class="st0" d="M390.9,597c-2.2,0-4-1.8-4-4v-16c0-2.2,1.8-4,4-4s4,1.8,4,4v16C394.9,595.2,393.1,597,390.9,597z"/>
	<path class="st0" d="M390.9,597h-40c-2.2,0-4-1.8-4-4s1.8-4,4-4h40c2.2,0,4,1.8,4,4S393.1,597,390.9,597z"/>
	<path class="st0" d="M374.9,597c-2.2,0-4-1.8-4-4v-8c0-2.2,1.8-4,4-4s4,1.8,4,4v8C378.9,595.2,377.1,597,374.9,597z"/>
	<path class="st0" d="M358.9,597c-2.2,0-4-1.8-4-4v-8c0-2.2,1.8-4,4-4s4,1.8,4,4v8C362.9,595.2,361.1,597,358.9,597z"/>
	<path class="st0" d="M215,269.1c-2.2,0-4-1.8-4-4s1.8-4,4-4c0.9,0,86.1-0.9,124.5-69.9c1.1-1.9,3.5-2.6,5.4-1.6
		c1.9,1.1,2.6,3.5,1.6,5.4C305.8,268.2,215.9,269.1,215,269.1z"/>
	<path class="st0" d="M215,269.1c-0.4,0-0.8-0.1-1.3-0.2c-2.1-0.7-3.2-3-2.5-5.1c0.3-0.8,6.5-19.1,26-38.6
		c17.8-17.8,50.6-39.9,105.5-44.2c2-0.2,4.1,1.5,4.3,3.7c0.2,2.2-1.5,4.1-3.7,4.3c-100.2,7.7-124.3,76.6-124.5,77.3
		C218.2,268,216.6,269.1,215,269.1z"/>
	<path class="st0" d="M342.9,189.1c-2.2,0-4-1.8-4-4c0-12.6-38.7-36-132-36s-132,23.4-132,36c0,2.2-1.8,4-4,4s-4-1.8-4-4
		c0-21.9,48.1-44,140-44s140,22.1,140,44C346.9,187.3,345.1,189.1,342.9,189.1z"/>
	<path class="st0" d="M318.8,184.1c-0.7,0-1.3-0.2-2-0.5c-9.9-5.6-40.4-18.5-109.9-18.5c-69.4,0-99.9,12.9-109.8,18.5
		c-1.9,1.1-4.4,0.4-5.4-1.5c-1.1-1.9-0.4-4.4,1.5-5.4c13-7.3,45-19.5,113.7-19.5c68.8,0,100.8,12.3,113.8,19.6
		c1.9,1.1,2.6,3.5,1.5,5.4C321.5,183.4,320.2,184.1,318.8,184.1z"/>
	<path class="st0" d="M238.9,325.1c-2.2,0-4-1.8-4-4v-48c0-2.2,1.8-4,4-4s4,1.8,4,4v48C242.9,323.3,241.2,325.1,238.9,325.1z"/>
	<path class="st0" d="M175,325.1c-2.2,0-4-1.8-4-4v-48c0-2.2,1.8-4,4-4s4,1.8,4,4v48C179,323.3,177.2,325.1,175,325.1z"/>
	<path class="st0" d="M338.4,533c-1.5,0-2.9-0.8-3.6-2.2l-32-64c-1-2-0.2-4.4,1.8-5.4s4.4-0.2,5.4,1.8l32,64c1,2,0.2,4.4-1.8,5.4
		C339.6,532.9,339,533,338.4,533z"/>
	<path class="st0" d="M82.5,533c-0.6,0-1.2-0.1-1.8-0.4c-2-1-2.8-3.4-1.8-5.4l32-64c1-2,3.4-2.8,5.4-1.8s2.8,3.4,1.8,5.4l-32,64
		C85.3,532.2,83.9,533,82.5,533z"/>
</g>
</svg>
