<?xml version="1.0" encoding="utf-8"?>
<!-- Generator: Adobe Illustrator 19.0.0, SVG Export Plug-In . SVG Version: 6.00 Build 0)  -->
<svg version="1.1" id="Layer_1" xmlns="http://www.w3.org/2000/svg" xmlns:xlink="http://www.w3.org/1999/xlink" x="0px" y="0px"
	 viewBox="356 -284 1000 1000" style="enable-background:new 356 -284 1000 1000;" xml:space="preserve">
<g>
	<g transform="translate(0.000000,512.000000) scale(0.100000,-0.100000)">
		<path d="M7209.7,7287.4c-307.8-251.3-401.5-319.7-446.1-327.2c-666.2-111.6-1142.1-533.8-1329.5-1180.8l-32.7-113l-4.4-2204
			l-4.5-2205.4h475.9h475.9V625V-7H8560h2215.9v632v632h475.9h475.9l-3,2198l-4.4,2196.5l-35.7,124.9
			c-169.5,608.2-624.6,1039.5-1220.9,1161.5c-84.8,17.9-162.1,35.7-169.5,40.2c-8.9,6-188.9,148.7-398.6,319.7l-382.3,309.2
			l-956.2-1.5h-956.3L7209.7,7287.4z M9041.9,7281.4c-26.8-23.8-450.6-313.8-470-321.2c-14.8-6-453.6,281.1-499.7,325.7
			c-4.4,4.4,215.6,8.9,487.8,8.9C8833.6,7294.8,9050.7,7288.9,9041.9,7281.4z M7993.4,6952.8c188.9-130.8,343.5-245.4,343.5-254.3
			c0-19.3-199.3-383.7-209.7-385.1c-7.5,0-899.7,541.3-917.6,557.7c-10.4,8.9,407.5,333.2,423.8,328.7
			C7642.4,7195.2,7804.6,7085.2,7993.4,6952.8z M9712.5,7036.1c111.5-89.2,199.3-163.5,197.8-165.1
			c-17.9-14.8-910.1-557.7-917.6-557.7c-4.4,0-56.5,89.2-116,196.3c-93.7,175.5-102.6,199.3-81.8,214.1
			c14.8,8.9,175.4,121.9,359.9,249.9c184.4,127.9,339.1,230.5,345,229C9505.8,7199.6,9602.4,7125.3,9712.5,7036.1z M7569.5,6277.6
			c340.5-208.2,632-386.7,648.4-395.5c25.3-13.4,34.2-10.4,53.5,25.3c13.4,22.3,46.1,81.8,72.9,130.8l50.6,89.2l1.5-2910.3V305.3
			h-870h-870v2379.4v2379.5h-156.2h-156.2l-3-1423.2l-4.4-1424.7l-316.8-4.4l-316.8-3l4.5,1698.3l4.4,1699.8l34.2,108.5
			c47.6,154.7,111.6,288.5,187.4,394.1c75.8,107.1,236.4,266.2,340.5,336.1c129.4,87.7,328.6,165.1,498.2,194.8
			C6942,6668.7,6903.3,6685.1,7569.5,6277.6z M10475.4,6610.8c221.6-61,407.5-169.5,563.6-330.1
			c165.1-165.1,264.7-333.1,334.6-562.1l34.2-111.6l4.4-1699.8l4.4-1698.3l-316.8,3l-316.8,4.4l-4.4,1424.7l-2.9,1423.3h-156.2
			h-156.2V2684.8V305.4h-870h-870v316.8v316.8l52.1,19.3c101.2,35.7,130.8,178.5,53.5,255.8c-23.8,23.8-58,43.1-74.4,43.1
			c-31.2,0-31.2,6-31.2,316.8l1.5,315.3l56.5,26.8c99.6,46.1,124.9,172.6,47.5,249.9c-23.8,23.8-58,43.1-74.4,43.1
			c-31.2,0-31.2,6-31.2,316.8l1.5,315.3l56.5,26.8c99.6,46.1,124.9,172.5,47.5,249.9c-23.8,23.8-58,43.1-74.4,43.1
			c-31.2,0-31.2,6-31.2,316.8l1.5,315.3l56.5,26.8c99.6,46.1,124.9,172.5,47.5,249.9c-23.8,23.8-58,43.1-74.4,43.1
			c-31.2,0-31.2,6-31.2,316.8l1.5,315.3l56.5,26.7c99.6,46.1,124.9,172.5,47.5,249.9c-23.8,23.8-58,43.1-74.4,43.1
			c-31.2,0-31.2,3-31.2,532.4l1.5,530.9l63.9-116c35.7-63.9,69.9-122,78.8-130.8c7.5-7.5,252.8,133.9,651.4,380.7l639.4,394.1
			l105.6-7.5C10323.8,6643.5,10417.5,6627.1,10475.4,6610.8z M6344.1,1740.4v-156.2h-292.9c-275.1,0-291.4,1.5-258.7,23.8
			c90.7,63.9,89.2,203.7-4.4,260.3l-46.1,28.3h301.8h300.3V1740.4z M11332,1868.3c-53.5-32.7-86.2-111.6-71.4-171
			c4.5-20.8,29.8-55,53.5-75.8l44.6-37.1h-291.5h-291.4v156.2v156.2h301.9h300.4L11332,1868.3z"/>
	</g>
</g>
<g>
	<path d="M529.2,626.3c4.8,2.5,12.2,4.9,19.8,4.9c8.2,0,12.5-3.4,12.5-8.5c0-4.9-3.7-7.7-13.2-11.1c-13.1-4.6-21.6-11.8-21.6-23.3
		c0-13.5,11.2-23.8,29.8-23.8c8.9,0,15.4,1.9,20.1,4l-4,14.4c-3.2-1.5-8.8-3.7-16.5-3.7s-11.5,3.5-11.5,7.6c0,5,4.4,7.3,14.6,11.1
		c13.9,5.1,20.5,12.4,20.5,23.5c0,13.2-10.2,24.6-31.8,24.6c-9,0-17.9-2.5-22.3-4.9L529.2,626.3z"/>
	<path d="M604.5,644.7l-18.7-78.9h19.1l6,32.4c1.8,9.5,3.4,19.7,4.7,27.6h0.2c1.3-8.5,3.2-18,5.1-27.7l6.7-32.3h19l6.3,33.2
		c1.8,9.2,3,17.7,4.2,26.4h0.2c1.2-8.8,2.9-18,4.6-27.4l6.4-32.3h18.1l-20.4,78.9h-19.3l-6.7-33.9c-1.5-8-2.8-15.3-3.7-24.3h-0.2
		c-1.4,8.9-2.7,16.4-4.6,24.3l-7.5,33.9H604.5z"/>
	<path d="M742.6,611.3h-29V630H746v14.6h-50.3v-78.9h48.7v14.6h-30.8v16.4h29V611.3z"/>
	<path d="M776.5,624.4l-5.6,20.2h-18.5l24.1-78.9h23.4l24.5,78.9h-19.2l-6.1-20.2H776.5z M796.5,611.1l-4.9-16.7
		c-1.4-4.7-2.8-10.5-4-15.2h-0.2c-1.2,4.7-2.3,10.6-3.6,15.2l-4.7,16.7H796.5z"/>
	<path d="M840.4,580.8h-21.2v-15h60.6v15h-21.5v63.9h-17.9V580.8z"/>
	<path d="M888.8,626.3c4.8,2.5,12.2,4.9,19.8,4.9c8.2,0,12.5-3.4,12.5-8.5c0-4.9-3.7-7.7-13.2-11.1c-13.1-4.6-21.6-11.8-21.6-23.3
		c0-13.5,11.2-23.8,29.8-23.8c8.9,0,15.4,1.9,20.1,4l-4,14.4c-3.2-1.5-8.8-3.7-16.5-3.7c-7.7,0-11.5,3.5-11.5,7.6
		c0,5,4.4,7.3,14.6,11.1c13.9,5.1,20.5,12.4,20.5,23.5c0,13.2-10.2,24.6-31.8,24.6c-9,0-17.9-2.5-22.3-4.9L888.8,626.3z"/>
	<path d="M969.3,565.8v30.3h29.4v-30.3h17.8v78.9h-17.8v-33h-29.4v33h-17.9v-78.9H969.3z"/>
	<path d="M1049.9,565.8v78.9H1032v-78.9H1049.9z"/>
	<path d="M1065.4,566.9c5.7-0.9,14.3-1.6,23.8-1.6c11.7,0,19.9,1.8,25.5,6.2c4.7,3.7,7.3,9.2,7.3,16.5c0,10.1-7.1,17-13.9,19.4v0.4
		c5.5,2.2,8.5,7.5,10.5,14.7c2.5,8.9,4.9,19.2,6.4,22.2h-18.3c-1.3-2.3-3.2-8.7-5.5-18.4c-2.1-9.8-5.5-12.5-12.8-12.6h-5.4v31h-17.7
		V566.9z M1083,600.8h7c8.9,0,14.2-4.4,14.2-11.3c0-7.3-4.9-10.9-13.1-11c-4.3,0-6.8,0.4-8.1,0.6V600.8z"/>
	<path d="M1150,580.8h-21.2v-15h60.6v15h-21.5v63.9H1150V580.8z"/>
</g>
</svg>
