<?xml version="1.0" encoding="utf-8"?>
<!-- Generator: Adobe Illustrator 19.0.0, SVG Export Plug-In . SVG Version: 6.00 Build 0)  -->
<svg version="1.1" id="Layer_1" xmlns="http://www.w3.org/2000/svg" xmlns:xlink="http://www.w3.org/1999/xlink" x="0px" y="0px"
	 viewBox="636 -184 512 512" style="enable-background:new 636 -184 512 512;" xml:space="preserve">
<style type="text/css">
	.st0{fill-rule:evenodd;clip-rule:evenodd;fill:#BD2F32;}
	.st1{fill:#FFFFFF;}
</style>
<g id="XMLID_29_">
	<rect id="XMLID_28_" x="636" y="-184" class="st0" width="512" height="512"/>
	<g id="XMLID_30_">
		<rect id="XMLID_31_" x="708.3" y="255.2" class="st1" width="367.3" height="2.1"/>
	</g>
</g>
<g id="XMLID_266_">
	<g id="XMLID_267_">
		<g id="XMLID_268_" transform="translate(0.000000,511.000000) scale(0.100000,-0.100000)">
			<path id="XMLID_277_" class="st1" d="M9810.1,6422c-44.7-34-152.2-312.9-202.2-524.6c-61.7-262.8-87.3-583.1-71.3-884.2
				c5.3-101.1,12.7-204.3,17-229.8c6.4-45.8,2.1-41.5-528.9,487.3c-301.1,299-559.7,546.9-590.6,566.1
				c-85.1,53.2-168.1,77.7-280.9,84.1c-175.6,9.6-311.8-42.6-437.4-168.1c-143.7-142.6-200-341.6-153.2-540.5
				c29.8-125.6,70.2-183,259.6-375.7c202.2-205.4,177.7-195.8,353.3-147.9l112.8,30.9l359.7-359.7l358.6-358.6l-34-123.5
				c-19.2-68.1-31.9-135.1-28.7-147.9c4.2-13.8,103.2-121.3,222.4-238.3c193.7-192.6,224.5-218.2,295.8-252.2
				c100-46.8,191.5-64.9,291.6-57.5c232,17,424.5,163.9,509.7,386.2l23.4,62.8l3.2,971.5l3.2,971.5l-75.5,129.8
				c-94.7,164.9-177.7,350.1-244.8,548c-29.8,86.2-61.7,162.8-71.3,170.3c-9.6,6.4-30.9,12.8-45.8,12.8
				C9841,6434.7,9819.7,6428.4,9810.1,6422z M9882.5,6021.9c36.2-96.8,138.3-306.5,197.9-407.6l41.5-71.3v-685.3v-684.2
				l-185.2,186.2L9750.6,4546l-16,111.8c-43.6,303.3-49,721.5-12.7,963c28.7,194.7,101.1,484.2,121.3,484.2
				C9847.4,6104.9,9864.4,6067.7,9882.5,6021.9z M8300.2,5721.8c67-30.9,123.5-85.1,914-875.7c914-914,880-874.7,909.8-1022.6
				c24.5-122.4-29.8-279.9-126.6-369.2c-91.5-84.1-225.6-125.6-344.8-106.4c-119.2,19.2-168.1,52.1-362.8,244.8L9111,3769.3
				l30.9,111.7c18.1,61.7,33,126.6,33,143.7c0,28.7-50,83-418.2,450.1c-267.1,266-425.6,417.1-438.4,417.1
				c-11.7,0-75.5-14.9-142.6-34l-122.4-33l-135.1,138.3c-146.9,151.1-183,208.6-202.2,320.3c-28.7,160.6,55.3,338.4,197.9,422.5
				C8027.9,5772.9,8176.8,5779.3,8300.2,5721.8z"/>
			<path id="XMLID_276_" class="st1" d="M8004.5,5522.8c-59.6-21.3-72.4-93.7-25.6-142.6l28.7-29.8l-28.7-33
				c-79.8-95.8,31.9-200,120.3-111.7l26.6,25.6l35.1-31.9c43.6-37.2,80.9-39.3,114.9-4.2c34,33,34,73.4-1,119.2l-26.6,35.1l26.6,33
				c79.8,93.7-42.6,197.9-125.6,107.5l-19.2-22.4l-34,24.5C8057.6,5520.7,8027.9,5531.4,8004.5,5522.8z"/>
			<path id="XMLID_273_" class="st1" d="M9614.3,3954.4c-154.3-75.5-158.5-304.3-8.5-389.4c46.8-26.6,140.4-33,193.7-12.8
				c53.2,19.2,109.6,84.1,126.6,145.8C9979.4,3879.9,9785.7,4039.5,9614.3,3954.4z M9751.6,3799c38.3-35.1,13.8-98.9-39.4-98.9
				c-25.6,0-58.5,35.1-58.5,60.7c0,20.2,39.4,56.4,60.7,56.4C9724,3817.1,9741,3809.7,9751.6,3799z"/>
			<path id="XMLID_272_" class="st1" d="M8236.4,4619.4c-79.8-24.5-104.2-79.8-60.6-136.2c26.6-33,74.5-36.1,147.9-8.5
				c75.5,29.8,93.7,90.5,39.4,140.5C8337.5,4639.7,8305.5,4640.7,8236.4,4619.4z"/>
			<path id="XMLID_271_" class="st1" d="M8417.3,4438.6c-79.8-24.5-104.3-79.8-60.7-136.2c26.6-33,74.5-36.1,147.9-8.5
				c60.7,23.4,83,62.8,63.8,109.6C8545,4457.7,8507.7,4466.2,8417.3,4438.6z"/>
			<path id="XMLID_270_" class="st1" d="M8598.2,4257.6c-79.8-24.5-104.3-79.8-60.7-136.2c26.6-33,74.5-36.1,147.9-8.5
				c60.7,23.4,83,62.8,63.8,109.6C8725.9,4276.8,8688.6,4285.3,8598.2,4257.6z"/>
			<path id="XMLID_269_" class="st1" d="M8779.1,4076.8c-79.8-24.5-104.3-79.8-60.7-136.2c26.6-33,74.5-36.1,147.9-8.5
				c60.7,23.4,83,62.8,63.8,109.6C8906.8,4095.9,8869.5,4104.4,8779.1,4076.8z"/>
		</g>
	</g>
</g>
<g>
	<path d="M774.3,301c1.8,0.9,4.4,1.8,7.2,1.8c3,0,4.6-1.2,4.6-3.1c0-1.8-1.4-2.8-4.9-4.1c-4.8-1.7-7.9-4.3-7.9-8.5
		c0-4.9,4.1-8.7,10.9-8.7c3.2,0,5.6,0.7,7.4,1.4l-1.4,5.3c-1.2-0.6-3.2-1.4-6-1.4c-2.8,0-4.2,1.3-4.2,2.8c0,1.8,1.6,2.7,5.3,4.1
		c5.1,1.9,7.5,4.5,7.5,8.6c0,4.9-3.7,9-11.6,9c-3.3,0-6.5-0.9-8.2-1.8L774.3,301z"/>
	<path d="M801.8,307.7l-6.9-28.9h7l2.2,11.8c0.7,3.5,1.2,7.2,1.7,10.1h0.1c0.5-3.1,1.2-6.6,1.9-10.2l2.4-11.8h6.9l2.3,12.2
		c0.7,3.4,1.1,6.5,1.5,9.7h0.1c0.4-3.2,1.1-6.6,1.7-10l2.3-11.8h6.6l-7.4,28.8h-7.1l-2.4-12.4c-0.6-2.9-1-5.6-1.4-8.9h-0.1
		c-0.5,3.2-1,6-1.7,8.9l-2.8,12.4L801.8,307.7L801.8,307.7z"/>
	<path d="M841.7,278.8v28.8h-6.5v-28.8H841.7z"/>
	<path d="M847.5,301c1.8,0.9,4.4,1.8,7.2,1.8c3,0,4.6-1.2,4.6-3.1c0-1.8-1.4-2.8-4.9-4.1c-4.8-1.7-7.9-4.3-7.9-8.5
		c0-4.9,4.1-8.7,10.9-8.7c3.2,0,5.6,0.7,7.4,1.4l-1.4,5.3c-1.2-0.6-3.2-1.4-6-1.4c-2.8,0-4.2,1.3-4.2,2.8c0,1.8,1.6,2.7,5.3,4.1
		c5.1,1.9,7.5,4.5,7.5,8.6c0,4.9-3.7,9-11.6,9c-3.3,0-6.5-0.9-8.2-1.8L847.5,301z"/>
	<path d="M870.6,301c1.8,0.9,4.4,1.8,7.2,1.8c3,0,4.6-1.2,4.6-3.1c0-1.8-1.4-2.8-4.9-4.1c-4.8-1.7-7.9-4.3-7.9-8.5
		c0-4.9,4.1-8.7,10.9-8.7c3.2,0,5.6,0.7,7.4,1.4l-1.4,5.3c-1.2-0.6-3.2-1.4-6-1.4s-4.2,1.3-4.2,2.8c0,1.8,1.6,2.7,5.3,4.1
		c5.1,1.9,7.5,4.5,7.5,8.6c0,4.9-3.7,9-11.6,9c-3.3,0-6.5-0.9-8.2-1.8L870.6,301z"/>
	<path d="M902.2,278.8h6.5v12.7h0.1c0.7-1.1,1.3-2.1,2-3.2l6.5-9.6h8l-9.5,12.3l10.1,16.6h-7.6l-7.1-12.5l-2.5,3v9.4h-6.5
		L902.2,278.8L902.2,278.8z"/>
	<path d="M928.4,307.7v-28.8h7.6l6,10.6c1.7,3,3.4,6.6,4.7,9.9h0.1c-0.4-3.8-0.6-7.7-0.6-12v-8.4h6v28.8h-6.9l-6.2-11.1
		c-1.7-3.1-3.6-6.8-5-10.2l-0.1,0c0.2,3.8,0.2,7.9,0.2,12.6v8.7L928.4,307.7L928.4,307.7z"/>
	<path d="M964.5,278.8v28.8H958v-28.8H964.5z"/>
	<path d="M970.2,278.8h17.6v5.3h-11.1v6.6h10.4v5.3h-10.4v11.6h-6.5V278.8z"/>
	<path d="M1009.9,295.5h-10.6v6.9h11.8v5.3h-18.4v-28.8h17.8v5.3h-11.3v6h10.6L1009.9,295.5L1009.9,295.5z"/>
</g>
<g>
	<path class="st1" d="M768.6,301c1.8,0.9,4.4,1.8,7.2,1.8c3,0,4.6-1.2,4.6-3.1c0-1.8-1.4-2.8-4.9-4.1c-4.8-1.7-7.9-4.3-7.9-8.5
		c0-4.9,4.1-8.7,10.9-8.7c3.2,0,5.6,0.7,7.4,1.4l-1.4,5.3c-1.2-0.6-3.2-1.4-6-1.4s-4.2,1.3-4.2,2.8c0,1.8,1.6,2.7,5.3,4.1
		c5.1,1.9,7.5,4.5,7.5,8.6c0,4.9-3.7,9-11.6,9c-3.3,0-6.5-0.9-8.2-1.8L768.6,301z"/>
	<path class="st1" d="M796.2,307.7l-6.9-28.9h7l2.2,11.8c0.7,3.5,1.2,7.2,1.7,10.1h0.1c0.5-3.1,1.2-6.6,1.9-10.2l2.4-11.8h6.9
		l2.3,12.2c0.7,3.4,1.1,6.5,1.5,9.7h0.1c0.4-3.2,1.1-6.6,1.7-10l2.3-11.8h6.6l-7.4,28.8h-7.1l-2.4-12.4c-0.6-2.9-1-5.6-1.4-8.9h-0.1
		c-0.5,3.2-1,6-1.7,8.9l-2.8,12.4L796.2,307.7L796.2,307.7z"/>
	<path class="st1" d="M836,278.8v28.8h-6.5v-28.8H836z"/>
	<path class="st1" d="M841.9,301c1.8,0.9,4.4,1.8,7.2,1.8c3,0,4.6-1.2,4.6-3.1c0-1.8-1.4-2.8-4.9-4.1c-4.8-1.7-7.9-4.3-7.9-8.5
		c0-4.9,4.1-8.7,10.9-8.7c3.2,0,5.6,0.7,7.4,1.4l-1.4,5.3c-1.2-0.6-3.2-1.4-6-1.4c-2.8,0-4.2,1.3-4.2,2.8c0,1.8,1.6,2.7,5.3,4.1
		c5.1,1.9,7.5,4.5,7.5,8.6c0,4.9-3.7,9-11.6,9c-3.3,0-6.5-0.9-8.2-1.8L841.9,301z"/>
	<path class="st1" d="M865,301c1.8,0.9,4.4,1.8,7.2,1.8c3,0,4.6-1.2,4.6-3.1c0-1.8-1.4-2.8-4.9-4.1c-4.8-1.7-7.9-4.3-7.9-8.5
		c0-4.9,4.1-8.7,10.9-8.7c3.2,0,5.6,0.7,7.4,1.4l-1.4,5.3c-1.2-0.6-3.2-1.4-6-1.4c-2.8,0-4.2,1.3-4.2,2.8c0,1.8,1.6,2.7,5.3,4.1
		c5.1,1.9,7.5,4.5,7.5,8.6c0,4.9-3.7,9-11.6,9c-3.3,0-6.5-0.9-8.2-1.8L865,301z"/>
	<path class="st1" d="M896.5,278.8h6.5v12.7h0.1c0.7-1.1,1.3-2.1,2-3.2l6.5-9.6h8l-9.5,12.3l10.1,16.6h-7.6l-7.1-12.5l-2.5,3v9.4
		h-6.5L896.5,278.8L896.5,278.8z"/>
	<path class="st1" d="M922.8,307.7v-28.8h7.6l6,10.6c1.7,3,3.4,6.6,4.7,9.9h0.1c-0.4-3.8-0.6-7.7-0.6-12v-8.4h6v28.8h-6.9l-6.2-11.1
		c-1.7-3.1-3.6-6.8-5-10.2l-0.1,0c0.2,3.8,0.2,7.9,0.2,12.6v8.7L922.8,307.7L922.8,307.7z"/>
	<path class="st1" d="M958.8,278.8v28.8h-6.5v-28.8H958.8z"/>
	<path class="st1" d="M964.5,278.8h17.6v5.3H971v6.6h10.4v5.3H971v11.6h-6.5V278.8z"/>
	<path class="st1" d="M1004.2,295.5h-10.6v6.9h11.8v5.3H987v-28.8h17.8v5.3h-11.3v6h10.6L1004.2,295.5L1004.2,295.5z"/>
</g>
</svg>
