<?xml version="1.0" encoding="utf-8"?>
<!-- Generator: Adobe Illustrator 19.0.0, SVG Export Plug-In . SVG Version: 6.00 Build 0)  -->
<svg version="1.1" id="Layer_1" xmlns="http://www.w3.org/2000/svg" xmlns:xlink="http://www.w3.org/1999/xlink" x="0px" y="0px"
	 viewBox="194 -104 1000 1000" style="enable-background:new 194 -104 1000 1000;" xml:space="preserve">
<g id="XMLID_266_">
	<g id="XMLID_267_">
		<g id="XMLID_268_" transform="translate(0.000000,511.000000) scale(0.100000,-0.100000)">
			<path id="XMLID_277_" d="M8806.7,4535.8c-93.7-71.4-319.1-656.1-424-1100.1c-129.4-551.2-183-1222.9-149.5-1854.4
				c11.1-212,26.7-428.5,35.7-482c13.4-96,4.5-87.1-1109.1,1022c-631.5,627.1-1173.8,1147-1238.5,1187.2
				c-178.5,111.6-352.6,162.9-589.1,176.3c-368.2,20.1-653.8-89.3-917.2-352.6c-301.3-299.1-419.5-716.3-321.3-1133.6
				c62.5-263.3,147.3-383.8,544.5-787.8c424-430.7,372.7-410.6,740.9-310.2l236.5,64.7l754.3-754.3l752-752l-71.4-258.9
				c-40.2-142.8-66.9-283.4-60.2-310.2c8.9-29,216.5-254.4,466.4-499.8c406.2-403.9,470.9-457.5,620.4-528.9
				c209.8-98.2,401.7-136.2,611.5-120.5c486.5,35.7,890.3,343.7,1068.9,810l49.1,131.7l6.7,2037.4l6.7,2037.4l-158.4,272.2
				c-198.6,345.9-372.7,734.2-513.3,1149.2c-62.5,180.7-129.4,341.4-149.5,357.1c-20.1,13.4-64.7,26.8-96,26.8
				C8871.4,4562.6,8826.8,4549.3,8806.7,4535.8z M8958.5,3696.8c75.9-203.1,290.1-642.7,415.1-854.7l87.1-149.5V1255.5V-179.4
				l-388.3,390.5l-390.5,390.5l-33.6,234.4c-91.5,636-102.7,1513-26.7,2019.6c60.2,408.4,212,1015.4,254.4,1015.4
				C8884.9,3870.8,8920.5,3792.8,8958.5,3696.8z M5640.2,3067.5c140.6-64.7,258.9-178.5,1916.9-1836.5
				C9474-685.9,9402.5-603.3,9465-913.5c51.3-256.6-62.5-586.9-265.6-774.3c-191.9-176.3-473.1-263.3-723-223.1
				c-250,40.2-352.6,109.3-760.9,513.3l-374.9,370.4l64.7,234.3c38,129.4,69.2,265.6,69.2,301.3c0,60.2-104.9,174-877,944
				c-560.1,557.8-892.6,874.7-919.4,874.7c-24.5,0-158.4-31.3-299-71.4l-256.6-69.2l-283.4,290.1c-308,316.9-383.8,437.4-424,671.7
				c-60.2,336.9,116,709.6,415.1,886C5069,3174.6,5381.3,3188,5640.2,3067.5z"/>
			<path id="XMLID_276_" d="M5019.9,2650.2c-124.9-44.6-151.8-196.4-53.6-299.1l60.2-62.5l-60.2-69.2
				c-167.4-200.9,66.9-419.5,252.2-234.3l55.8,53.6l73.6-66.9c91.5-78.1,169.6-82.5,241-8.9c71.4,69.2,71.4,154-2.2,250l-55.8,73.6
				l55.8,69.2c167.4,196.4-89.3,415.1-263.3,225.4l-40.2-46.9l-71.4,51.3C5131.4,2645.7,5069,2668.1,5019.9,2650.2z"/>
			<path id="XMLID_273_" d="M8396.1-639.1c-323.6-158.4-332.5-638.2-17.8-816.7c98.2-55.8,294.5-69.2,406.2-26.8
				c111.6,40.2,229.8,176.3,265.6,305.7C9161.6-795.3,8755.4-460.5,8396.1-639.1z M8684-964.9c80.3-73.6,29-207.5-82.6-207.5
				c-53.6,0-122.7,73.6-122.7,127.2c0,42.4,82.6,118.3,127.2,118.3C8626-926.9,8661.7-942.6,8684-964.9z"/>
			<path id="XMLID_272_" d="M5506.3,755.6C5339,704.3,5287.7,588.3,5379.2,470c55.8-69.2,156.2-75.8,310.2-17.8
				c158.4,62.5,196.4,189.7,82.6,294.6C5718.3,798.1,5651.3,800.3,5506.3,755.6z"/>
			<path id="XMLID_271_" d="M5885.7,376.3C5718.3,325,5667,208.9,5758.5,90.6c55.8-69.2,156.2-75.8,310.2-17.8
				c127.2,49.1,174,131.7,133.9,229.8C6153.5,416.5,6075.3,434.3,5885.7,376.3z"/>
			<path id="XMLID_270_" d="M6265.1-3.1c-167.4-51.3-218.7-167.4-127.2-285.7c55.8-69.2,156.2-75.8,310.2-17.8
				c127.2,49.1,174,131.7,133.9,229.8C6532.8,37.1,6454.7,54.9,6265.1-3.1z"/>
			<path id="XMLID_269_" d="M6644.4-382.4c-167.4-51.3-218.7-167.4-127.2-285.7c55.8-69.2,156.2-75.8,310.2-17.8
				c127.2,49.1,174,131.7,133.9,229.8C6912.2-342.2,6834.1-324.4,6644.4-382.4z"/>
		</g>
	</g>
</g>
</svg>
