<?xml version="1.0" encoding="utf-8"?>
<!-- Generator: Adobe Illustrator 19.0.0, SVG Export Plug-In . SVG Version: 6.00 Build 0)  -->
<svg version="1.1" id="Layer_1" xmlns="http://www.w3.org/2000/svg" xmlns:xlink="http://www.w3.org/1999/xlink" x="0px" y="0px"
	 viewBox="356 -284 1000 1000" style="enable-background:new 356 -284 1000 1000;" xml:space="preserve">
<g id="XMLID_266_">
	<g id="XMLID_267_">
		<g id="XMLID_268_" transform="translate(0.000000,511.000000) scale(0.100000,-0.100000)">
			<path id="XMLID_277_" d="M10426.8,7469.3c-93.7-71.4-319.1-656.1-424-1100.1c-129.4-551.2-183-1222.9-149.5-1854.4
				c11.1-212,26.7-428.5,35.7-482c13.4-96,4.5-87.1-1109.1,1022c-631.5,627.1-1173.8,1147-1238.5,1187.2
				c-178.5,111.6-352.6,162.9-589.1,176.3c-368.2,20.1-653.8-89.3-917.2-352.6c-301.3-299.1-419.5-716.3-321.3-1133.6
				c62.5-263.3,147.3-383.8,544.5-787.8c424-430.7,372.7-410.6,740.9-310.2l236.5,64.7l754.3-754.3l752-752l-71.4-258.9
				c-40.2-142.8-66.9-283.4-60.2-310.2c8.9-29,216.5-254.4,466.4-499.8c406.2-403.9,470.9-457.5,620.4-528.9
				c209.8-98.2,401.7-136.2,611.5-120.5c486.5,35.7,890.3,343.7,1068.9,810l49.1,131.7l6.7,2037.4l6.7,2037.4l-158.4,272.2
				c-198.6,345.9-372.7,734.2-513.3,1149.2c-62.5,180.7-129.4,341.4-149.5,357.1c-20.1,13.4-64.7,26.8-96,26.8
				C10491.5,7496.1,10446.9,7482.8,10426.8,7469.3z M10578.6,6630.3c75.9-203.1,290.1-642.7,415.1-854.7l87.1-149.5V4189V2754.1
				l-388.3,390.5l-390.5,390.5l-33.6,234.4c-91.5,636-102.7,1513-26.7,2019.6c60.2,408.4,212,1015.4,254.4,1015.4
				C10505,6804.3,10540.6,6726.3,10578.6,6630.3z M7260.3,6001c140.6-64.7,258.9-178.5,1916.9-1836.5
				c1916.9-1916.9,1845.4-1834.3,1907.9-2144.5c51.3-256.6-62.5-586.9-265.6-774.3c-191.9-176.3-473.1-263.3-723-223.1
				c-250,40.2-352.6,109.3-760.9,513.3l-374.9,370.4l64.7,234.3c38,129.4,69.2,265.6,69.2,301.3c0,60.2-104.9,174-877,944
				c-560.1,557.8-892.6,874.7-919.4,874.7c-24.5,0-158.4-31.3-299-71.4l-256.6-69.2l-283.4,290.1c-308,316.9-383.8,437.4-424,671.7
				c-60.2,336.9,116,709.6,415.1,886C6689.1,6108.1,7001.4,6121.5,7260.3,6001z"/>
			<path id="XMLID_276_" d="M6640,5583.7c-124.9-44.6-151.8-196.4-53.6-299.1l60.2-62.5l-60.2-69.2
				c-167.4-200.9,66.9-419.5,252.2-234.3l55.8,53.6l73.6-66.9c91.5-78.1,169.6-82.5,241-8.9c71.4,69.2,71.4,154-2.2,250L7151,5220
				l55.8,69.2c167.4,196.4-89.3,415.1-263.3,225.4l-40.2-46.9l-71.4,51.3C6751.5,5579.2,6689.1,5601.6,6640,5583.7z"/>
			<path id="XMLID_273_" d="M10016.2,2294.4c-323.6-158.4-332.5-638.2-17.8-816.7c98.2-55.8,294.5-69.2,406.2-26.8
				c111.6,40.2,229.8,176.3,265.6,305.7C10781.7,2138.2,10375.5,2473,10016.2,2294.4z M10304.1,1968.6
				c80.3-73.6,29-207.5-82.6-207.5c-53.6,0-122.7,73.6-122.7,127.2c0,42.4,82.6,118.3,127.2,118.3
				C10246.1,2006.6,10281.8,1990.9,10304.1,1968.6z"/>
			<path id="XMLID_272_" d="M7126.4,3689.1c-167.3-51.3-218.6-167.3-127.1-285.6c55.8-69.2,156.2-75.8,310.2-17.8
				c158.4,62.5,196.4,189.7,82.6,294.6C7338.4,3731.6,7271.4,3733.8,7126.4,3689.1z"/>
			<path id="XMLID_271_" d="M7505.8,3309.8c-167.4-51.3-218.7-167.4-127.2-285.7c55.8-69.2,156.2-75.8,310.2-17.8
				c127.2,49.1,174,131.7,133.9,229.8C7773.6,3350,7695.4,3367.8,7505.8,3309.8z"/>
			<path id="XMLID_270_" d="M7885.2,2930.4c-167.4-51.3-218.7-167.4-127.2-285.7c55.8-69.2,156.2-75.8,310.2-17.8
				c127.2,49.1,174,131.7,133.9,229.8C8152.9,2970.6,8074.8,2988.4,7885.2,2930.4z"/>
			<path id="XMLID_269_" d="M8264.5,2551.1c-167.4-51.3-218.7-167.4-127.2-285.7c55.8-69.2,156.2-75.8,310.2-17.8
				c127.2,49.1,174,131.7,133.9,229.8C8532.3,2591.3,8454.2,2609.1,8264.5,2551.1z"/>
		</g>
	</g>
</g>
<g>
	<path d="M569.7,576.1c4.3,2.2,10.8,4.4,17.6,4.4c7.3,0,11.1-3,11.1-7.6c0-4.4-3.3-6.9-11.8-9.9c-11.7-4.1-19.3-10.5-19.3-20.7
		c0-12,10-21.1,26.5-21.1c7.9,0,13.7,1.7,17.9,3.5l-3.5,12.8c-2.8-1.4-7.8-3.3-14.7-3.3c-6.9,0-10.2,3.1-10.2,6.8
		c0,4.5,4,6.5,13,9.9c12.4,4.6,18.2,11,18.2,20.9c0,11.8-9.1,21.9-28.3,21.9c-8,0-15.9-2.2-19.9-4.4L569.7,576.1z"/>
	<path d="M636.7,592.5L620,522.3h17l5.3,28.8c1.6,8.4,3,17.5,4.2,24.6h0.2c1.1-7.6,2.8-16,4.6-24.7l5.9-28.7H674l5.6,29.6
		c1.6,8.2,2.7,15.7,3.7,23.5h0.2c1-7.8,2.6-16,4.1-24.4l5.7-28.7h16.1l-18.1,70.1h-17.2l-5.9-30.2c-1.4-7.1-2.5-13.6-3.3-21.6h-0.2
		c-1.2,7.9-2.4,14.6-4.1,21.6l-6.7,30.2H636.7z"/>
	<path d="M733.7,522.3v70.1h-15.9v-70.1H733.7z"/>
	<path d="M747.9,576.1c4.3,2.2,10.8,4.4,17.6,4.4c7.3,0,11.1-3,11.1-7.6c0-4.4-3.3-6.9-11.8-9.9c-11.7-4.1-19.3-10.5-19.3-20.7
		c0-12,10-21.1,26.5-21.1c7.9,0,13.7,1.7,17.9,3.5l-3.5,12.8c-2.8-1.4-7.8-3.3-14.7-3.3c-6.9,0-10.2,3.1-10.2,6.8
		c0,4.5,4,6.5,13,9.9c12.4,4.6,18.2,11,18.2,20.9c0,11.8-9.1,21.9-28.3,21.9c-8,0-15.9-2.2-19.9-4.4L747.9,576.1z"/>
	<path d="M804.1,576.1c4.3,2.2,10.8,4.4,17.6,4.4c7.3,0,11.1-3,11.1-7.6c0-4.4-3.3-6.9-11.8-9.9c-11.7-4.1-19.3-10.5-19.3-20.7
		c0-12,10-21.1,26.5-21.1c7.9,0,13.7,1.7,17.9,3.5l-3.5,12.8c-2.8-1.4-7.8-3.3-14.7-3.3c-6.9,0-10.2,3.1-10.2,6.8
		c0,4.5,4,6.5,13,9.9c12.4,4.6,18.2,11,18.2,20.9c0,11.8-9.1,21.9-28.3,21.9c-8,0-15.9-2.2-19.9-4.4L804.1,576.1z"/>
	<path d="M880.8,522.3h15.7v31h0.3c1.6-2.7,3.2-5.2,4.8-7.7l15.9-23.3H937l-23.2,29.9l24.5,40.3h-18.5l-17.2-30.3l-6,7.4v22.9h-15.7
		V522.3z"/>
	<path d="M944.7,592.5v-70.1h18.5l14.6,25.7c4.2,7.4,8.3,16.1,11.4,24h0.3c-1-9.3-1.4-18.7-1.4-29.3v-20.4h14.6v70.1h-16.7l-15-27.1
		c-4.2-7.5-8.7-16.5-12.2-24.8l-0.3,0.1c0.4,9.3,0.6,19.1,0.6,30.6v21.1H944.7z"/>
	<path d="M1032.4,522.3v70.1h-15.9v-70.1H1032.4z"/>
	<path d="M1046.2,522.3h42.9v13h-27v16h25.2v12.9h-25.2v28.2h-15.9V522.3z"/>
	<path d="M1142.8,562.8h-25.8v16.7h28.8v13H1101v-70.1h43.3v13h-27.4v14.6h25.8V562.8z"/>
</g>
</svg>
