<?xml version="1.0" encoding="utf-8"?>
<!-- Generator: Adobe Illustrator 19.0.0, SVG Export Plug-In . SVG Version: 6.00 Build 0)  -->
<svg version="1.1" id="Capa_1" xmlns="http://www.w3.org/2000/svg" xmlns:xlink="http://www.w3.org/1999/xlink" x="0px" y="0px"
	 viewBox="148 -184 512 512" style="enable-background:new 148 -184 512 512;" xml:space="preserve">
<style type="text/css">
	.st0{fill-rule:evenodd;clip-rule:evenodd;fill:#BD2F32;}
	.st1{fill:#FFFFFF;}
</style>
<g id="XMLID_29_">
	<rect id="XMLID_28_" x="148" y="-184" class="st0" width="512" height="512"/>
	<g id="XMLID_30_">
		<rect id="XMLID_31_" x="220.3" y="255.2" class="st1" width="367.3" height="2.1"/>
	</g>
</g>
<g>
	<g>
		<g>
			<path class="st1" d="M451.8-85.5H257.4c-3.2,0-5.8,2.6-5.8,5.8v26.9c0,3.2,2.6,5.8,5.8,5.8c3.2,0,5.8-2.6,5.8-5.8v-21H446V54.5
				h-17.5c-3.2,0-5.8,2.6-5.8,5.8s2.6,5.8,5.8,5.8h23.3c3.2,0,5.8-2.6,5.8-5.8v-140C457.7-82.8,455.1-85.5,451.8-85.5z"/>
		</g>
	</g>
	<g>
		<g>
			<path class="st1" d="M428.5-62.1H280.7c-3.2,0-5.8,2.6-5.8,5.8V37c0,3.2,2.6,5.8,5.8,5.8h147.8c3.2,0,5.8-2.6,5.8-5.8v-93.3
				C434.3-59.5,431.8-62.1,428.5-62.1z M422.7,31.2H286.6v-81.7h136.1V31.2z"/>
		</g>
	</g>
	<g>
		<g>
			<path class="st1" d="M597.3,112.9c3.2,0,5.8-2.6,5.8-5.8V83.8c0-3.2-2.6-5.8-5.8-5.8h-38.9V-79.6c0-3.2-2.6-5.8-5.8-5.8h-73.1
				c-3.2,0-5.8,2.6-5.8,5.8v38.3c0,0.2-0.1,0.5-0.1,0.7v23.3c0,0.2,0,0.5,0.1,0.7v94.5H372.1V66.2H404c3.2,0,5.8-2.6,5.8-5.8
				s-2.6-5.8-5.8-5.8h-37.7H343h-79.7v-82.1c0-3.2-2.6-5.8-5.8-5.8c-3.2,0-5.8,2.6-5.8,5.8v87.9c0,3.2,2.6,5.8,5.8,5.8h79.7V78
				H210.7c-3.2,0-5.8,2.6-5.8,5.8v23.3c0,3.2,2.6,5.8,5.8,5.8h3.1v58.5c0,3.2,2.6,5.8,5.8,5.8s5.8-2.6,5.8-5.8v-58.5h11.7v16.8v38.9
				v49.3h-11.7v-21.4c0-3.2-2.6-5.8-5.8-5.8s-5.8,2.6-5.8,5.8v21.4h-3.1c-3.2,0-5.8,2.6-5.8,5.8s2.6,5.8,5.8,5.8h8.9H243h322h23.3
				h8.9c3.2,0,5.8-2.6,5.8-5.8s-2.6-5.8-5.8-5.8h-3.1v-105L597.3,112.9L597.3,112.9z M485.3-73.8h61.4v27.3h-61.4V-73.8z
				 M485.3-34.8h61.4v11.7h-61.4V-34.8z M485.3-11.5h61.4V78h-61.4V-11.5z M348.8,66.2h11.7v11.7h-11.7V66.2z M559.2,218H248.8
				v-43.5h210.8v15.1c0,3.2,2.6,5.8,5.8,5.8h26.9H539h20.1V218H559.2z M459.6,135.6v27.2H248.8v-27.2H459.6L459.6,135.6z
				 M248.8,123.8v-11h210.8v11H248.8z M498.2,183.6v-42.8h35v42.8H498.2z M559.2,183.6h-14.3V135c0-3.2-2.6-5.8-5.8-5.8h-46.7
				c-3.2,0-5.8,2.6-5.8,5.8v48.6h-15.2v-15.1v-38.9v-16.8h87.9v70.8H559.2z M582.5,218h-11.7V113h11.7V218z M591.4,101.2h-3.1H565
				H243h-23.3h-3.1V89.5H343h23.3h113.2h73.1h38.9L591.4,101.2L591.4,101.2z"/>
		</g>
	</g>
	<g>
		<g>
			<path class="st1" d="M503.5-1.4c-3.2,0-5.8,2.6-5.8,5.8v62.2c0,3.2,2.6,5.8,5.8,5.8c3.2,0,5.8-2.6,5.8-5.8V4.5
				C509.3,1.3,506.7-1.4,503.5-1.4z"/>
		</g>
	</g>
	<g>
		<g>
			<path class="st1" d="M529.9-1.4c-3.2,0-5.8,2.6-5.8,5.8v62.2c0,3.2,2.6,5.8,5.8,5.8s5.8-2.6,5.8-5.8V4.5
				C535.8,1.3,533.1-1.4,529.9-1.4z"/>
		</g>
	</g>
</g>
<g>
	<path d="M286.5,278.9h-9.8V272h28v6.9h-9.9v29.5h-8.3V278.9z"/>
	<path d="M313.7,299.1l-2.6,9.3h-8.5l11.1-36.4h10.8l11.3,36.4h-8.9l-2.8-9.3H313.7z M322.9,292.9l-2.3-7.7c-0.6-2.2-1.3-4.9-1.8-7
		h-0.1c-0.5,2.2-1.1,4.9-1.7,7l-2.2,7.7H322.9z"/>
	<path d="M340.6,272.5c2.2-0.4,6.5-0.8,10.6-0.8c5,0,8.1,0.5,10.7,2.1c2.5,1.3,4.4,3.8,4.4,7.1c0,3.2-1.9,6.3-6,7.8v0.1
		c4.2,1.1,7.2,4.3,7.2,9c0,3.3-1.5,5.9-3.8,7.7c-2.6,2.1-7.1,3.3-14.3,3.3c-4,0-7.1-0.3-8.9-0.5L340.6,272.5L340.6,272.5z
		 M348.8,286.4h2.7c4.3,0,6.6-1.8,6.6-4.5c0-2.8-2.1-4.2-5.8-4.2c-1.8,0-2.8,0.1-3.5,0.2L348.8,286.4L348.8,286.4z M348.8,302.6
		c0.8,0.1,1.8,0.1,3.2,0.1c3.7,0,7-1.5,7-5.2s-3.3-5.1-7.4-5.1h-2.8L348.8,302.6L348.8,302.6z"/>
	<path d="M373.3,272h8.3v29.5h14.5v6.9h-22.7L373.3,272L373.3,272z"/>
	<path d="M422.5,293h-13.4v8.6h15v6.8h-23.2V272h22.5v6.8h-14.2v7.6h13.3V293z"/>
	<path d="M445.5,278.9h-9.8V272h28v6.9h-9.9v29.5h-8.3V278.9z"/>
	<path d="M499.8,289.9c0,11.9-7.2,19.2-17.9,19.2c-10.8,0-17.1-8.2-17.1-18.5c0-10.9,7-19.1,17.7-19.1
		C493.7,271.4,499.8,279.8,499.8,289.9z M473.5,290.3c0,7.1,3.3,12.1,8.9,12.1s8.7-5.3,8.7-12.4c0-6.5-3.1-12.1-8.8-12.1
		C476.8,278,473.5,283.3,473.5,290.3z"/>
	<path d="M505.2,272.5c2.5-0.4,6.1-0.8,11.1-0.8c5.1,0,8.7,1,11.1,2.9c2.3,1.8,3.9,4.9,3.9,8.4c0,3.6-1.2,6.6-3.3,8.6
		c-2.8,2.6-7,3.8-11.8,3.8c-1.1,0-2.1-0.1-2.8-0.2v13h-8.2L505.2,272.5L505.2,272.5z M513.4,289c0.7,0.2,1.6,0.2,2.8,0.2
		c4.4,0,7.1-2.2,7.1-5.9c0-3.3-2.3-5.3-6.4-5.3c-1.7,0-2.8,0.2-3.4,0.3V289H513.4z"/>
</g>
<g>
	<path class="st1" d="M280.8,278.9H271V272h28v6.9h-9.9v29.5h-8.3V278.9z"/>
	<path class="st1" d="M308,299.1l-2.6,9.3h-8.5L308,272h10.8l11.3,36.4h-8.9l-2.8-9.3H308z M317.2,292.9l-2.3-7.7
		c-0.6-2.2-1.3-4.9-1.8-7H313c-0.5,2.2-1.1,4.9-1.7,7l-2.2,7.7H317.2z"/>
	<path class="st1" d="M334.9,272.5c2.2-0.4,6.5-0.8,10.6-0.8c5,0,8.1,0.5,10.7,2.1c2.5,1.3,4.4,3.8,4.4,7.1c0,3.2-1.9,6.3-6,7.8v0.1
		c4.2,1.1,7.2,4.3,7.2,9c0,3.3-1.5,5.9-3.8,7.7c-2.6,2.1-7.1,3.3-14.3,3.3c-4,0-7.1-0.3-8.9-0.5L334.9,272.5L334.9,272.5z
		 M343.1,286.4h2.7c4.3,0,6.6-1.8,6.6-4.5c0-2.8-2.1-4.2-5.8-4.2c-1.8,0-2.8,0.1-3.5,0.2L343.1,286.4L343.1,286.4z M343.1,302.6
		c0.8,0.1,1.8,0.1,3.2,0.1c3.7,0,7-1.5,7-5.2s-3.3-5.1-7.4-5.1h-2.8L343.1,302.6L343.1,302.6z"/>
	<path class="st1" d="M367.6,272h8.3v29.5h14.5v6.9h-22.7L367.6,272L367.6,272z"/>
	<path class="st1" d="M416.8,293h-13.4v8.6h15v6.8h-23.2V272h22.5v6.8h-14.2v7.6h13.3V293z"/>
	<path class="st1" d="M439.8,278.9H430V272h28v6.9h-9.9v29.5h-8.3V278.9z"/>
	<path class="st1" d="M494.1,289.9c0,11.9-7.2,19.2-17.9,19.2c-10.8,0-17.1-8.2-17.1-18.5c0-10.9,7-19.1,17.7-19.1
		C488,271.4,494.1,279.8,494.1,289.9z M467.8,290.3c0,7.1,3.3,12.1,8.9,12.1s8.7-5.3,8.7-12.4c0-6.5-3.1-12.1-8.8-12.1
		C471.1,278,467.8,283.3,467.8,290.3z"/>
	<path class="st1" d="M499.5,272.5c2.5-0.4,6.1-0.8,11.1-0.8c5.1,0,8.7,1,11.1,2.9c2.3,1.8,3.9,4.9,3.9,8.4c0,3.6-1.2,6.6-3.3,8.6
		c-2.8,2.6-7,3.8-11.8,3.8c-1.1,0-2.1-0.1-2.8-0.2v13h-8.2L499.5,272.5L499.5,272.5z M507.7,289c0.7,0.2,1.6,0.2,2.8,0.2
		c4.4,0,7.1-2.2,7.1-5.9c0-3.3-2.3-5.3-6.4-5.3c-1.7,0-2.8,0.2-3.4,0.3V289H507.7z"/>
</g>
</svg>
