<?xml version="1.0" encoding="utf-8"?>
<!-- Generator: Adobe Illustrator 19.0.0, SVG Export Plug-In . SVG Version: 6.00 Build 0)  -->
<svg version="1.1" id="Capa_1" xmlns="http://www.w3.org/2000/svg" xmlns:xlink="http://www.w3.org/1999/xlink" x="0px" y="0px"
	 viewBox="-49 141 512 512" style="enable-background:new -49 141 512 512;" xml:space="preserve">
<g>
	<g>
		<path d="M268.5,194.5h-250c-4.1,0-7.5,3.4-7.5,7.5v34.5c0,4.1,3.4,7.5,7.5,7.5s7.5-3.4,7.5-7.5v-27h235v165h-22.5
			c-4.1,0-7.5,3.4-7.5,7.5s3.4,7.5,7.5,7.5h30c4.1,0,7.5-3.4,7.5-7.5V202C276,197.9,272.7,194.5,268.5,194.5z"/>
	</g>
</g>
<g>
	<g>
		<path d="M238.5,224.5h-190c-4.1,0-7.5,3.4-7.5,7.5v120c0,4.1,3.4,7.5,7.5,7.5h190c4.1,0,7.5-3.4,7.5-7.5V232
			C246,227.9,242.7,224.5,238.5,224.5z M231,344.5H56v-105h175V344.5z"/>
	</g>
</g>
<g>
	<g>
		<path d="M455.5,449.5c4.1,0,7.5-3.4,7.5-7.5v-30c0-4.1-3.4-7.5-7.5-7.5h-50V202c0-4.1-3.4-7.5-7.5-7.5h-94c-4.1,0-7.5,3.4-7.5,7.5
			v49.2c0,0.3-0.1,0.6-0.1,0.9v30c0,0.3,0,0.6,0.1,0.9v121.5H166v-15h41c4.1,0,7.5-3.4,7.5-7.5s-3.4-7.5-7.5-7.5h-48.5h-30H26V269
			c0-4.1-3.4-7.5-7.5-7.5S11,264.9,11,269v113c0,4.1,3.4,7.5,7.5,7.5H121v15H-41.5c-4.1,0-7.5,3.4-7.5,7.5v30c0,4.1,3.4,7.5,7.5,7.5
			h4v75.2c0,4.1,3.4,7.5,7.5,7.5s7.5-3.4,7.5-7.5v-75.2h15v21.6v50v63.4h-15V557c0-4.1-3.4-7.5-7.5-7.5s-7.5,3.4-7.5,7.5v27.5h-4
			c-4.1,0-7.5,3.4-7.5,7.5s3.4,7.5,7.5,7.5H-30H0h414h30h11.5c4.1,0,7.5-3.4,7.5-7.5s-3.4-7.5-7.5-7.5h-4v-135H455.5z M311.5,209.5
			h79v35.1h-79V209.5z M311.5,259.6h78.9v15h-78.9V259.6z M311.5,289.6h79v114.9h-79V289.6z M136,389.5h15v15h-15V389.5z
			 M406.5,584.5H7.5v-55.9h271V548c0,4.1,3.4,7.5,7.5,7.5h34.6h60h25.9V584.5z M278.5,478.6v35H7.5v-35H278.5z M7.5,463.6v-14.1h271
			v14.1H7.5z M328.1,540.5v-55h45v55H328.1z M406.5,540.5h-18.4V478c0-4.1-3.4-7.5-7.5-7.5h-60c-4.1,0-7.5,3.4-7.5,7.5v62.5h-19.6
			v-19.4v-50v-21.6h113V540.5z M436.5,584.5h-15v-135h15V584.5z M448,434.5h-4h-30H0h-30h-4v-15h162.5h30H304h94h50V434.5z"/>
	</g>
</g>
<g>
	<g>
		<path d="M334.9,302.6c-4.1,0-7.5,3.4-7.5,7.5v80c0,4.1,3.4,7.5,7.5,7.5s7.5-3.4,7.5-7.5v-80C342.4,306,339,302.6,334.9,302.6z"/>
	</g>
</g>
<g>
	<g>
		<path d="M368.9,302.6c-4.1,0-7.5,3.4-7.5,7.5v80c0,4.1,3.4,7.5,7.5,7.5s7.5-3.4,7.5-7.5v-80C376.4,306,373,302.6,368.9,302.6z"/>
	</g>
</g>
</svg>
