<?xml version="1.0" encoding="utf-8"?>
<!-- Generator: Adobe Illustrator 19.0.0, SVG Export Plug-In . SVG Version: 6.00 Build 0)  -->
<svg version="1.1" id="Capa_1" xmlns="http://www.w3.org/2000/svg" xmlns:xlink="http://www.w3.org/1999/xlink" x="0px" y="0px"
	 viewBox="112 -40 512 512" style="enable-background:new 112 -40 512 512;" xml:space="preserve">
<g>
	<g>
		<g>
			<path d="M415.8,29.3H221.4c-3.2,0-5.8,2.6-5.8,5.8V62c0,3.2,2.6,5.8,5.8,5.8s5.8-2.6,5.8-5.8V41H410v128.3h-17.5
				c-3.2,0-5.8,2.6-5.8,5.8c0,3.2,2.6,5.8,5.8,5.8h23.3c3.2,0,5.8-2.6,5.8-5.8v-140C421.7,32,419.1,29.3,415.8,29.3z"/>
		</g>
	</g>
	<g>
		<g>
			<path d="M392.5,52.7H244.7c-3.2,0-5.8,2.6-5.8,5.8v93.3c0,3.2,2.6,5.8,5.8,5.8h147.8c3.2,0,5.8-2.6,5.8-5.8V58.5
				C398.3,55.3,395.8,52.7,392.5,52.7z M386.7,146H250.6V64.3h136.1V146z"/>
		</g>
	</g>
	<g>
		<g>
			<path d="M561.3,227.7c3.2,0,5.8-2.6,5.8-5.8v-23.3c0-3.2-2.6-5.8-5.8-5.8h-38.9V35.2c0-3.2-2.6-5.8-5.8-5.8h-73.1
				c-3.2,0-5.8,2.6-5.8,5.8v38.3c0,0.2-0.1,0.5-0.1,0.7v23.3c0,0.2,0,0.5,0.1,0.7v94.5H336.1V181H368c3.2,0,5.8-2.6,5.8-5.8
				s-2.6-5.8-5.8-5.8h-37.7h-23.3h-79.7V87.3c0-3.2-2.6-5.8-5.8-5.8s-5.8,2.6-5.8,5.8v87.9c0,3.2,2.6,5.8,5.8,5.8h79.7v11.7H174.7
				c-3.2,0-5.8,2.6-5.8,5.8v23.3c0,3.2,2.6,5.8,5.8,5.8h3.1v58.5c0,3.2,2.6,5.8,5.8,5.8s5.8-2.6,5.8-5.8v-58.5h11.7v16.8v38.9v49.3
				h-11.7v-21.4c0-3.2-2.6-5.8-5.8-5.8s-5.8,2.6-5.8,5.8v21.4h-3.1c-3.2,0-5.8,2.6-5.8,5.8s2.6,5.8,5.8,5.8h8.9H207h322h23.3h8.9
				c3.2,0,5.8-2.6,5.8-5.8s-2.6-5.8-5.8-5.8h-3.1v-105H561.3z M449.3,41h61.4v27.3h-61.4V41z M449.3,80h61.4v11.7h-61.4V80z
				 M449.3,103.3h61.4v89.4h-61.4V103.3z M312.8,181h11.7v11.7h-11.7V181z M523.2,332.7H212.8v-43.5h210.8v15.1
				c0,3.2,2.6,5.8,5.8,5.8h26.9H503h20.1V332.7z M423.6,250.3v27.2H212.8v-27.2L423.6,250.3L423.6,250.3z M212.8,238.6v-11h210.8v11
				H212.8z M462.2,298.4v-42.8h35v42.8H462.2z M523.2,298.4h-14.3v-48.6c0-3.2-2.6-5.8-5.8-5.8h-46.7c-3.2,0-5.8,2.6-5.8,5.8v48.6
				h-15.2v-15.1v-38.9v-16.8h87.9V298.4z M546.5,332.7h-11.7v-105h11.7V332.7z M555.4,216h-3.1H529H207h-23.3h-3.1v-11.7h126.4h23.3
				h113.2h73.1h38.9V216z"/>
		</g>
	</g>
	<g>
		<g>
			<path d="M467.5,113.4c-3.2,0-5.8,2.6-5.8,5.8v62.2c0,3.2,2.6,5.8,5.8,5.8c3.2,0,5.8-2.6,5.8-5.8v-62.2
				C473.3,116.1,470.7,113.4,467.5,113.4z"/>
		</g>
	</g>
	<g>
		<g>
			<path d="M493.9,113.4c-3.2,0-5.8,2.6-5.8,5.8v62.2c0,3.2,2.6,5.8,5.8,5.8c3.2,0,5.8-2.6,5.8-5.8v-62.2
				C499.8,116.1,497.1,113.4,493.9,113.4z"/>
		</g>
	</g>
</g>
<g>
	<path d="M250,398.8h-9.8v-6.9h28v6.9h-9.9v29.5H250V398.8z"/>
	<path d="M277.2,419l-2.6,9.3h-8.5l11.1-36.4H288l11.3,36.4h-8.9l-2.8-9.3H277.2z M286.4,412.8l-2.3-7.7c-0.6-2.2-1.3-4.9-1.8-7
		h-0.1c-0.5,2.2-1.1,4.9-1.7,7l-2.2,7.7H286.4z"/>
	<path d="M304.1,392.4c2.2-0.4,6.5-0.8,10.6-0.8c5,0,8.1,0.5,10.7,2.1c2.5,1.3,4.4,3.8,4.4,7.1c0,3.2-1.9,6.3-6,7.8v0.1
		c4.2,1.1,7.2,4.3,7.2,9c0,3.3-1.5,5.9-3.8,7.7c-2.6,2.1-7.1,3.3-14.3,3.3c-4,0-7.1-0.3-8.9-0.5V392.4z M312.3,406.3h2.7
		c4.3,0,6.6-1.8,6.6-4.5c0-2.8-2.1-4.2-5.8-4.2c-1.8,0-2.8,0.1-3.5,0.2V406.3z M312.3,422.5c0.8,0.1,1.8,0.1,3.2,0.1
		c3.7,0,7-1.5,7-5.2c0-3.7-3.3-5.1-7.4-5.1h-2.8V422.5z"/>
	<path d="M336.8,391.9h8.3v29.5h14.5v6.9h-22.7V391.9z"/>
	<path d="M386,412.9h-13.4v8.6h15v6.8h-23.2v-36.4h22.5v6.8h-14.2v7.6H386V412.9z"/>
	<path d="M409,398.8h-9.8v-6.9h28v6.9h-9.9v29.5H409V398.8z"/>
	<path d="M463.3,409.8c0,11.9-7.2,19.2-17.9,19.2c-10.8,0-17.1-8.2-17.1-18.5c0-10.9,7-19.1,17.7-19.1
		C457.2,391.3,463.3,399.7,463.3,409.8z M437,410.2c0,7.1,3.3,12.1,8.9,12.1c5.6,0,8.7-5.3,8.7-12.4c0-6.5-3.1-12.1-8.8-12.1
		C440.3,397.9,437,403.2,437,410.2z"/>
	<path d="M468.7,392.4c2.5-0.4,6.1-0.8,11.1-0.8c5.1,0,8.7,1,11.1,2.9c2.3,1.8,3.9,4.9,3.9,8.4c0,3.6-1.2,6.6-3.3,8.6
		c-2.8,2.6-7,3.8-11.8,3.8c-1.1,0-2.1-0.1-2.8-0.2v13h-8.2V392.4z M476.9,408.9c0.7,0.2,1.6,0.2,2.8,0.2c4.4,0,7.1-2.2,7.1-5.9
		c0-3.3-2.3-5.3-6.4-5.3c-1.7,0-2.8,0.2-3.4,0.3V408.9z"/>
</g>
</svg>
