<?xml version="1.0" encoding="utf-8"?>
<!-- Generator: Adobe Illustrator 19.0.0, SVG Export Plug-In . SVG Version: 6.00 Build 0)  -->
<svg version="1.1" id="Capa_1" xmlns="http://www.w3.org/2000/svg" xmlns:xlink="http://www.w3.org/1999/xlink" x="0px" y="0px"
	 viewBox="112 -40 512 512" style="enable-background:new 112 -40 512 512;" xml:space="preserve">
<g>
	<g>
		<g>
			<path d="M481-13.5c-30.3-6.8-70.4-10.5-113-10.5s-82.7,3.7-113,10.5C219.8-5.7,202.7,5,202.7,18.9v63c0,3.5,2.2,6.5,5.5,7.5
				l110.2,34.9c3.2,1,6.7-0.1,8.7-2.8l10.4-13.8l4.3,10.2l-31.2,204.9c-0.4,2.4,0.5,5,2.2,6.8l47.2,47.2c1.5,1.5,3.5,2.3,5.6,2.3
				c2,0,3.9-0.7,5.4-2.2l49.6-47.2c1.9-1.8,2.8-4.3,2.4-6.8l-31.2-204.9l5.2-12.1l11.9,15.8c1.5,2,3.9,3.1,6.3,3.1
				c0.8,0,1.6-0.2,2.4-0.4l110.2-34.9c3.3-1,5.5-4.1,5.5-7.5V19C533.3,5,516.2-5.7,481-13.5z M258.4,1.9
				C287.6-4.6,326.4-8.2,368-8.2s80.4,3.5,109.6,10.1c28.1,6.2,37.3,13.1,39.4,16c-3.7,2.6-18.7,9.9-77.5,19
				C405.9,42,373.4,45.4,368,46c-5.4-0.6-37.9-3.9-71.5-9.1c-58.9-9.1-73.9-16.5-77.5-19C221,15,230.3,8.1,258.4,1.9z M378.5,109
				h-23.5l-6.8-15.7L368,67.1l18.2,24.2L378.5,109z M384,170.9l-40.5,40.5l13.1-86.7H377L384,170.9z M317.9,107.7l-99.4-31.6V35.2
				c4.4,1.9,9.4,3.5,14.6,4.9c13.4,3.8,31.9,7.6,55,11.3c25,4,50.3,7.1,65.3,8.8L317.9,107.7z M339.5,237.7l47.5-47.5l3,19.6
				l-54.5,54.5L339.5,237.7z M392.9,229.2l14,91.9l-41.1,39l-39-39l4.6-30.6L392.9,229.2z M517.6,76.1l-99.4,31.6l-35.6-47.5
				c15-1.7,40.3-4.8,65.3-8.8c23.1-3.7,41.6-7.6,55-11.3c5.1-1.5,10.2-3.1,14.6-4.9L517.6,76.1L517.6,76.1z"/>
		</g>
	</g>
	<g>
		<g>
			<path d="M441,11.5C428.1,10,414.5,9,400.4,8.3c-4.3-0.2-8,3.1-8.2,7.5c-0.2,4.3,3.1,8,7.5,8.2c13.7,0.6,27,1.7,39.4,3.1
				c0.3,0,0.6,0.1,0.9,0.1c4,0,7.3-3,7.8-7C448.4,15.9,445.3,12,441,11.5z"/>
		</g>
	</g>
	<g>
		<g>
			<path d="M337.1,8.3c-0.1,0-0.2,0-0.3,0c-14.1,0.6-27.7,1.7-40.5,3.1c-2,0.2-3.9,1.3-5.3,2.9c-1.3,1.7-1.9,3.7-1.7,5.7
				c0.5,4,3.8,7,7.8,7c0.3,0,0.6,0,0.9-0.1c12.4-1.4,25.7-2.4,39.5-3c2.1-0.1,4-1,5.4-2.5c1.4-1.6,2.1-3.5,2-5.7
				C344.8,11.6,341.4,8.3,337.1,8.3z"/>
		</g>
	</g>
	<g>
		<g>
			<path d="M368.6,7.6c-4.3,0-7.9,3.5-7.9,7.9s3.5,7.9,7.9,7.9s7.9-3.5,7.9-7.9S373,7.6,368.6,7.6z"/>
		</g>
	</g>
</g>
<g>
	<path d="M330.9,408.8h-14.1v-10h40.4v10h-14.4v42.6h-11.9V408.8z"/>
	<path d="M375.4,398.8v52.6h-11.9v-52.6H375.4z"/>
	<path d="M417,429.1h-19.3v12.5h21.6v9.8h-33.5v-52.6h32.4v9.8h-20.5v10.9H417V429.1z"/>
</g>
</svg>
