<?xml version="1.0" encoding="utf-8"?>
<!-- Generator: Adobe Illustrator 19.0.0, SVG Export Plug-In . SVG Version: 6.00 Build 0)  -->
<svg version="1.1" id="Capa_1" xmlns="http://www.w3.org/2000/svg" xmlns:xlink="http://www.w3.org/1999/xlink" x="0px" y="0px"
	 viewBox="148 -184 512 512" style="enable-background:new 148 -184 512 512;" xml:space="preserve">
<style type="text/css">
	.st0{fill-rule:evenodd;clip-rule:evenodd;fill:#BD2F32;}
	.st1{fill:#FFFFFF;}
</style>
<g id="XMLID_29_">
	<rect id="XMLID_28_" x="148" y="-184" class="st0" width="512" height="512"/>
	<g id="XMLID_30_">
		<rect id="XMLID_31_" x="220.3" y="255.2" class="st1" width="367.3" height="2.1"/>
	</g>
</g>
<g>
	<g>
		<g>
			<path class="st1" d="M502.6-127.9c-26.5-5.9-61.5-9.2-98.6-9.2s-72.2,3.2-98.6,9.2c-30.7,6.8-45.7,16.2-45.7,28.3v55
				c0,3.1,1.9,5.7,4.8,6.5l96.2,30.5c2.8,0.9,5.8-0.1,7.6-2.4l9.1-12l3.8,8.9l-27.2,178.9c-0.3,2.1,0.4,4.4,1.9,5.9l41.2,41.2
				c1.3,1.3,3.1,2,4.9,2c1.7,0,3.4-0.6,4.7-1.9l43.3-41.2c1.7-1.6,2.4-3.8,2.1-5.9L424.8-13.1l4.5-10.6l10.4,13.8
				c1.3,1.7,3.4,2.7,5.5,2.7c0.7,0,1.4-0.2,2.1-0.3L543.5-38c2.9-0.9,4.8-3.6,4.8-6.5v-55C548.3-111.8,533.4-121.1,502.6-127.9z
				 M308.3-114.5c25.5-5.7,59.4-8.8,95.7-8.8s70.2,3.1,95.7,8.8c24.5,5.4,32.6,11.4,34.4,14c-3.2,2.3-16.3,8.6-67.7,16.6
				c-29.3,4.5-57.7,7.4-62.4,7.9c-4.7-0.5-33.1-3.4-62.4-7.9c-51.4-7.9-64.5-14.4-67.7-16.6C275.7-103.1,283.8-109.1,308.3-114.5z
				 M413.2-21h-20.5l-5.9-13.7L404-57.6l15.9,21.1L413.2-21z M418,33l-35.4,35.4L394-7.3h17.8L418,33z M360.3-22.1l-86.8-27.6v-35.7
				c3.8,1.7,8.2,3.1,12.7,4.3c11.7,3.3,27.8,6.6,48,9.9c21.8,3.5,43.9,6.2,57,7.7L360.3-22.1z M379.1,91.4l41.5-41.5l2.6,17.1
				l-47.6,47.6L379.1,91.4z M425.7,83.9l12.2,80.2l-35.9,34l-34-34l4-26.7L425.7,83.9z M534.6-49.7l-86.8,27.6l-31.1-41.5
				c13.1-1.5,35.2-4.2,57-7.7c20.2-3.2,36.3-6.6,48-9.9c4.5-1.3,8.9-2.7,12.7-4.3L534.6-49.7L534.6-49.7z"/>
		</g>
	</g>
	<g>
		<g>
			<path class="st1" d="M467.7-106.1c-11.3-1.3-23.1-2.2-35.4-2.8c-3.8-0.2-7,2.7-7.2,6.5c-0.2,3.8,2.7,7,6.5,7.2
				c12,0.5,23.6,1.5,34.4,2.7c0.3,0,0.5,0.1,0.8,0.1c3.5,0,6.4-2.6,6.8-6.1C474.2-102.3,471.5-105.7,467.7-106.1z"/>
		</g>
	</g>
	<g>
		<g>
			<path class="st1" d="M377-108.9c-0.1,0-0.2,0-0.3,0c-12.3,0.5-24.2,1.5-35.4,2.7c-1.7,0.2-3.4,1.1-4.6,2.5
				c-1.1,1.5-1.7,3.2-1.5,5c0.4,3.5,3.3,6.1,6.8,6.1c0.3,0,0.5,0,0.8-0.1c10.8-1.2,22.4-2.1,34.5-2.6c1.8-0.1,3.5-0.9,4.7-2.2
				c1.2-1.4,1.8-3.1,1.7-5C383.7-106,380.8-108.9,377-108.9z"/>
		</g>
	</g>
	<g>
		<g>
			<path class="st1" d="M404.5-109.5c-3.8,0-6.9,3.1-6.9,6.9s3.1,6.9,6.9,6.9s6.9-3.1,6.9-6.9S408.4-109.5,404.5-109.5z"/>
		</g>
	</g>
</g>
<g>
	<path d="M373.8,278.3h-11.5v-8.1h32.9v8.1h-11.7V313h-9.7V278.3z"/>
	<path d="M410,270.2V313h-9.7v-42.8H410z"/>
	<path d="M443.8,294.9h-15.7V305h17.6v8h-27.3v-42.8h26.4v8h-16.7v8.9h15.7V294.9z"/>
</g>
<g>
	<path class="st1" d="M368.1,278.3h-11.5v-8.1h32.9v8.1h-11.7V313h-9.7V278.3z"/>
	<path class="st1" d="M404.3,270.2V313h-9.7v-42.8H404.3z"/>
	<path class="st1" d="M438.2,294.9h-15.7V305H440v8h-27.3v-42.8h26.4v8h-16.7v8.9h15.7V294.9z"/>
</g>
</svg>
