<?xml version="1.0" encoding="utf-8"?>
<!-- Generator: Adobe Illustrator 19.0.0, SVG Export Plug-In . SVG Version: 6.00 Build 0)  -->
<svg version="1.1" id="Capa_1" xmlns="http://www.w3.org/2000/svg" xmlns:xlink="http://www.w3.org/1999/xlink" x="0px" y="0px"
	 viewBox="-49 141 512 512" style="enable-background:new -49 141 512 512;" xml:space="preserve">
<g>
	<g>
		<path d="M350.6,154.3C312.1,145.7,261.1,141,207,141s-105.1,4.7-143.6,13.3C18.7,164.2-3,177.7-3,195.4v80c0,4.4,2.8,8.2,7,9.5
			l140,44.4c4.1,1.3,8.5-0.1,11-3.5l13.2-17.5l5.5,12.9l-39.6,260.3c-0.5,3.1,0.6,6.3,2.8,8.6l60,60c1.9,1.9,4.5,2.9,7.1,2.9
			c2.5,0,5-0.9,6.9-2.8l63-60c2.4-2.3,3.5-5.5,3-8.7l-39.6-260.3l6.6-15.4l15.1,20.1c1.9,2.6,4.9,4,8,4c1,0,2-0.2,3-0.5L410,285
			c4.2-1.3,7-5.2,7-9.5v-80C417,177.7,395.3,164.2,350.6,154.3z M67.7,173.8c37.1-8.2,86.5-12.8,139.3-12.8s102.2,4.5,139.3,12.8
			c35.7,7.9,47.4,16.6,50.1,20.3c-4.7,3.3-23.8,12.6-98.5,24.1c-42.7,6.6-84,10.9-90.9,11.6c-6.9-0.7-48.1-5-90.8-11.6
			c-74.8-11.6-93.9-20.9-98.5-24.1C20.3,190.4,32.1,181.7,67.7,173.8z M220.4,309.9h-29.8l-8.6-20l25-33.3l23.1,30.8L220.4,309.9z
			 M227.3,388.5L175.9,440l16.7-110.1h25.8L227.3,388.5z M143.3,308.2L17,268.1v-52c5.6,2.4,12,4.4,18.5,6.2
			c17,4.8,40.5,9.6,69.9,14.4c31.8,5.1,63.9,9,83,11.2L143.3,308.2z M170.8,473.4l60.3-60.3l3.8,24.9l-69.2,69.2L170.8,473.4z
			 M238.6,462.6l17.8,116.8L204.2,629l-49.5-49.5l5.9-38.9L238.6,462.6z M397,268.1l-126.3,40.1l-45.2-60.3
			c19.1-2.2,51.2-6.1,83-11.2c29.4-4.7,52.9-9.6,69.9-14.4c6.5-1.9,12.9-3.9,18.5-6.2V268.1z"/>
	</g>
</g>
<g>
	<g>
		<path d="M299.7,186c-16.3-1.9-33.6-3.2-51.5-4.1c-5.5-0.2-10.2,4-10.4,9.5c-0.3,5.5,4,10.2,9.5,10.4c17.4,0.8,34.3,2.1,50.1,3.9
			c0.4,0,0.8,0.1,1.2,0.1c5.1,0,9.3-3.8,9.9-8.9C309.2,191.6,305.2,186.6,299.7,186z"/>
	</g>
</g>
<g>
	<g>
		<path d="M167.8,181.9c-0.1,0-0.3,0-0.4,0c-17.9,0.8-35.2,2.1-51.5,3.9c-2.6,0.3-5,1.6-6.7,3.7c-1.7,2.1-2.4,4.7-2.1,7.3
			c0.6,5.1,4.8,8.9,9.9,8.9c0.4,0,0.7,0,1.1-0.1c15.8-1.8,32.7-3.1,50.2-3.8c2.7-0.1,5.1-1.3,6.9-3.2c1.8-2,2.7-4.5,2.6-7.2
			C177.5,186.1,173.2,181.9,167.8,181.9z"/>
	</g>
</g>
<g>
	<g>
		<path d="M207.8,181c-5.5,0-10,4.5-10,10c0,5.5,4.5,10,10,10c5.5,0,10-4.5,10-10C217.8,185.5,213.3,181,207.8,181z"/>
	</g>
</g>
</svg>
