<?xml version="1.0" encoding="utf-8"?>
<!-- Generator: Adobe Illustrator 19.0.0, SVG Export Plug-In . SVG Version: 6.00 Build 0)  -->
<svg version="1.1" id="Layer_1" xmlns="http://www.w3.org/2000/svg" xmlns:xlink="http://www.w3.org/1999/xlink" x="0px" y="0px"
	 viewBox="636 -184 512 512" style="enable-background:new 636 -184 512 512;" xml:space="preserve">
<style type="text/css">
	.st0{fill-rule:evenodd;clip-rule:evenodd;fill:#BD2F32;}
	.st1{fill:#FFFFFF;}
</style>
<g id="XMLID_29_">
	<rect id="XMLID_28_" x="636" y="-184" class="st0" width="512" height="512"/>
	<g id="XMLID_30_">
		<rect id="XMLID_31_" x="708.3" y="255.2" class="st1" width="367.3" height="2.1"/>
	</g>
</g>
<g>
	<path d="M757.8,281.3h-8.7v-6.2h25v6.2h-8.9v26.4h-7.4V281.3z"/>
	<path d="M806.4,291.1c0,10.7-6.5,17.2-16,17.2c-9.7,0-15.3-7.3-15.3-16.6c0-9.8,6.2-17,15.8-17C801,274.6,806.4,282.1,806.4,291.1z
		 M782.9,291.5c0,6.4,3,10.9,7.9,10.9c5,0,7.8-4.7,7.8-11.1c0-5.9-2.8-10.9-7.9-10.9C785.8,280.5,782.9,285.2,782.9,291.5z"/>
	<path d="M818.7,275.1v32.6h-7.4v-32.6H818.7z"/>
	<path d="M825,275.1h7.4v26.4h13v6.2h-20.3L825,275.1L825,275.1z"/>
	<path d="M869.1,294h-12v7.7h13.4v6h-20.8v-32.6h20.1v6h-12.7v6.8h12L869.1,294L869.1,294z"/>
	<path d="M882,281.3h-8.7v-6.2h25v6.2h-8.9v26.4H882V281.3L882,281.3z"/>
	<path d="M902.3,275.6c2.4-0.4,5.9-0.7,9.8-0.7c4.8,0,8.2,0.7,10.5,2.6c1.9,1.5,3,3.8,3,6.8c0,4.2-2.9,7-5.7,8v0.2
		c2.3,0.9,3.5,3.1,4.3,6.1c1,3.7,2,7.9,2.6,9.2h-7.5c-0.5-1-1.3-3.6-2.3-7.6c-0.9-4-2.3-5.2-5.3-5.2h-2.2v12.8h-7.3V275.6z
		 M909.6,289.6h2.9c3.7,0,5.9-1.9,5.9-4.7c0-3-2-4.5-5.4-4.5c-1.8,0-2.8,0.2-3.3,0.2L909.6,289.6L909.6,289.6z"/>
	<path d="M937.5,307.7v-13.3l-10.3-19.2h8.4l3.3,7.8c1,2.4,1.7,4.1,2.5,6.2h0.1c0.7-2,1.5-3.9,2.5-6.2l3.3-7.8h8.3l-10.7,19v13.6
		L937.5,307.7L937.5,307.7z"/>
	<path d="M968.9,275.1h7.3v14.4h0.2c0.7-1.2,1.5-2.4,2.2-3.6l7.4-10.8h9L984.2,289l11.3,18.7H987l-8-14.1l-2.8,3.4v10.6h-7.3V275.1z
		"/>
	<path d="M1005.9,275.1v32.6h-7.4v-32.6H1005.9z"/>
	<path d="M1018.6,281.3h-8.7v-6.2h25v6.2h-8.9v26.4h-7.4V281.3z"/>
</g>
<g>
	<path class="st1" d="M752.2,281.3h-8.7v-6.2h25v6.2h-8.9v26.4h-7.4V281.3z"/>
	<path class="st1" d="M800.8,291.1c0,10.7-6.5,17.2-16,17.2c-9.7,0-15.3-7.3-15.3-16.6c0-9.8,6.2-17,15.8-17
		C795.3,274.6,800.8,282.1,800.8,291.1z M777.2,291.5c0,6.4,3,10.9,7.9,10.9c5,0,7.8-4.7,7.8-11.1c0-5.9-2.8-10.9-7.9-10.9
		C780.1,280.5,777.2,285.2,777.2,291.5z"/>
	<path class="st1" d="M813,275.1v32.6h-7.4v-32.6H813z"/>
	<path class="st1" d="M819.4,275.1h7.4v26.4h13v6.2h-20.3L819.4,275.1L819.4,275.1z"/>
	<path class="st1" d="M863.4,294h-12v7.7h13.4v6h-20.8v-32.6h20.1v6h-12.7v6.8h12V294L863.4,294z"/>
	<path class="st1" d="M876.4,281.3h-8.7v-6.2h25v6.2h-8.9v26.4h-7.4L876.4,281.3L876.4,281.3z"/>
	<path class="st1" d="M896.6,275.6c2.4-0.4,5.9-0.7,9.8-0.7c4.8,0,8.2,0.7,10.5,2.6c1.9,1.5,3,3.8,3,6.8c0,4.2-2.9,7-5.7,8v0.2
		c2.3,0.9,3.5,3.1,4.3,6.1c1,3.7,2,7.9,2.6,9.2h-7.5c-0.5-1-1.3-3.6-2.3-7.6c-0.9-4-2.3-5.2-5.3-5.2h-2.2v12.8h-7.3V275.6z
		 M903.9,289.6h2.9c3.7,0,5.9-1.9,5.9-4.7c0-3-2-4.5-5.4-4.5c-1.8,0-2.8,0.2-3.3,0.2L903.9,289.6L903.9,289.6z"/>
	<path class="st1" d="M931.9,307.7v-13.3l-10.3-19.2h8.4l3.3,7.8c1,2.4,1.7,4.1,2.5,6.2h0.1c0.7-2,1.5-3.9,2.5-6.2l3.3-7.8h8.3
		l-10.7,19v13.6L931.9,307.7L931.9,307.7z"/>
	<path class="st1" d="M963.2,275.1h7.3v14.4h0.2c0.7-1.2,1.5-2.4,2.2-3.6l7.4-10.8h9L978.6,289l11.3,18.7h-8.6l-8-14.1l-2.8,3.4
		v10.6h-7.3V275.1z"/>
	<path class="st1" d="M1000.3,275.1v32.6h-7.4v-32.6H1000.3z"/>
	<path class="st1" d="M1012.9,281.3h-8.7v-6.2h25v6.2h-8.9v26.4h-7.4V281.3z"/>
</g>
<g id="XMLID_573_">
	<path id="XMLID_589_" class="st1" d="M831.4,65.5h-0.1V45.9c0-10.3-8.3-18.6-18.6-18.6h-12.6c-10.3,0-18.6,8.3-18.6,18.6v19.5h-0.1
		c-9.2,0-16.7,7.5-16.7,16.7V168c0,9.2,7.5,16.7,16.7,16.7h50.2c9.2,0,16.7-7.5,16.7-16.7V82.2C848.2,73,840.7,65.5,831.4,65.5z
		 M793.1,45.9c0-3.8,3.1-6.9,6.9-6.9h12.6c3.8,0,6.9,3.1,6.9,6.9v19.5h-26.4L793.1,45.9L793.1,45.9z M836.5,168c0,2.7-2.3,5-5,5
		h-50.2c-2.7,0-5-2.3-5-5V82.2c0-2.8,2.3-5,5-5h50.2c2.7,0,5,2.3,5,5V168L836.5,168z M971.9-93.3v7.5h41.7c3.2,0,5.8,2.6,5.8,5.8
		c0,3.2-2.6,5.8-5.8,5.8H966c-3.2,0-5.8-2.6-5.8-5.8v-19.2c0-3.2,2.6-5.8,5.8-5.8h47.5c3.2,0,5.8,2.6,5.8,5.8c0,3.2-2.6,5.8-5.8,5.8
		L971.9-93.3L971.9-93.3z M1010,51.7c1.1,1.2,1.6,2.8,1.5,4.4l-10.1,123.2c-0.2,3-2.8,5.4-5.8,5.4h-60.4c-3.2,0-5.8-2.6-5.8-5.8
		s2.6-5.8,5.8-5.8h55l9.2-111.5h-64.2c-3.2,0-5.8-2.6-5.8-5.8s2.6-5.8,5.8-5.8h70.6C1007.4,49.8,1008.9,50.5,1010,51.7z M941.3,33.9
		v-142.5c0-8.4,6.9-15.3,15.3-15.3h57c3.2,0,5.8,2.6,5.8,5.8c0,3.2-2.6,5.8-5.8,5.8h-57c-2,0-3.6,1.6-3.6,3.6V33.9
		c0,3.2-2.6,5.8-5.8,5.8C943.9,39.7,941.3,37.1,941.3,33.9z M971.9-55.2v7.5h41.7c3.2,0,5.8,2.6,5.8,5.8c0,3.2-2.6,5.8-5.8,5.8H966
		c-3.2,0-5.8-2.6-5.8-5.8v-19.2c0-3.2,2.6-5.8,5.8-5.8h47.5c3.2,0,5.8,2.6,5.8,5.8c0,3.2-2.6,5.8-5.8,5.8L971.9-55.2L971.9-55.2
		L971.9-55.2z M901.8-28.8h-9.7v-26c0-8.5-4.9-16-12.1-19.5v-20.3c0-3.2-2.6-5.8-5.8-5.8h-6.1v-17.4c0,0,0-0.1,0-0.1
		c0-3.2-2.6-5.8-5.8-5.8h-55c-5.7,0-10.2,4.6-10.2,10.2v11.9c0,3.2,2.6,5.8,5.8,5.8c3.2,0,5.8-2.6,5.8-5.8v-10.5h47.7v11.7h-6.1
		c-3.2,0-5.8,2.6-5.8,5.8v20.3c-7.2,3.6-12.1,11-12.1,19.5v26h-9.7c-9.2,0-16.7,7.5-16.7,16.7V7.5c0,3.2,2.6,5.8,5.8,5.8
		c3.2,0,5.8-2.6,5.8-5.8V-12c0-2.8,2.3-5,5-5h79.1c2.8,0,5,2.3,5,5v180c0,2.8-2.3,5-5,5h-40.3c-3.2,0-5.8,2.6-5.8,5.8
		c0,3.2,2.6,5.8,5.8,5.8h40.3c9.2,0,16.7-7.5,16.7-16.7V-12C918.6-21.3,911.1-28.8,901.8-28.8z M856.3-88.9h12.2v12.2h-12.2V-88.9z
		 M880.4-28.8h-36.3v-26c0-5.6,4.6-10.2,10.2-10.2h15.9c5.6,0,10.2,4.6,10.2,10.2L880.4-28.8L880.4-28.8z M1019.4-22.9
		c0,3.2-2.6,5.8-5.8,5.8h-41.7v50.9c0,3.2-2.6,5.8-5.8,5.8c-3.2,0-5.8-2.6-5.8-5.8v-56.8c0-3.2,2.6-5.8,5.8-5.8h47.5
		C1016.8-28.8,1019.4-26.1,1019.4-22.9z"/>
	<g id="XMLID_588_">
	</g>
	<g id="XMLID_587_">
	</g>
	<g id="XMLID_586_">
	</g>
	<g id="XMLID_585_">
	</g>
	<g id="XMLID_584_">
	</g>
	<g id="XMLID_583_">
	</g>
	<g id="XMLID_582_">
	</g>
	<g id="XMLID_581_">
	</g>
	<g id="XMLID_580_">
	</g>
	<g id="XMLID_579_">
	</g>
	<g id="XMLID_578_">
	</g>
	<g id="XMLID_577_">
	</g>
	<g id="XMLID_576_">
	</g>
	<g id="XMLID_575_">
	</g>
	<g id="XMLID_574_">
	</g>
</g>
</svg>
