<?xml version="1.0" encoding="utf-8"?>
<!-- Generator: Adobe Illustrator 19.0.0, SVG Export Plug-In . SVG Version: 6.00 Build 0)  -->
<svg version="1.1" id="Layer_1" xmlns="http://www.w3.org/2000/svg" xmlns:xlink="http://www.w3.org/1999/xlink" x="0px" y="0px"
	 viewBox="356 -284 1000 1000" style="enable-background:new 356 -284 1000 1000;" xml:space="preserve">
<g id="XMLID_573_">
	<path id="XMLID_589_" d="M725,184.9h-0.3v-41.5c0-21.8-17.7-39.5-39.5-39.5h-26.8c-21.8,0-39.5,17.7-39.5,39.5v41.5h-0.3
		c-19.6,0-35.5,15.9-35.5,35.5v182.1c0,19.6,15.9,35.5,35.5,35.5h106.5c19.6,0,35.5-15.9,35.5-35.5V220.4
		C760.5,200.8,744.6,184.9,725,184.9z M643.7,143.4c0-8.1,6.6-14.7,14.7-14.7h26.8c8.1,0,14.7,6.6,14.7,14.7v41.5h-56.1v-41.5H643.7
		z M735.7,402.5c0,5.8-4.9,10.7-10.7,10.7H618.5c-5.8,0-10.7-4.9-10.7-10.7V220.4c0-5.9,4.8-10.7,10.7-10.7H725
		c5.8,0,10.7,4.9,10.7,10.7L735.7,402.5L735.7,402.5z M1023.2-152.2v15.9h88.5c6.9,0,12.4,5.6,12.4,12.4c0,6.9-5.6,12.4-12.4,12.4
		h-100.9c-6.9,0-12.4-5.6-12.4-12.4v-40.7c0-6.9,5.6-12.4,12.4-12.4h100.9c6.9,0,12.4,5.6,12.4,12.4c0,6.9-5.6,12.4-12.4,12.4
		H1023.2z M1104.2,155.7c2.4,2.6,3.5,6,3.2,9.4l-21.5,261.5c-0.5,6.4-5.9,11.4-12.4,11.4H945.3c-6.9,0-12.4-5.6-12.4-12.4
		s5.6-12.4,12.4-12.4h116.8l19.5-236.7H945.3c-6.9,0-12.4-5.6-12.4-12.4s5.6-12.4,12.4-12.4h149.8
		C1098.6,151.7,1101.9,153.1,1104.2,155.7z M958.2,117.8v-302.5c0-17.9,14.6-32.5,32.5-32.5h121c6.9,0,12.4,5.6,12.4,12.4
		c0,6.8-5.6,12.4-12.4,12.4h-121c-4.2,0-7.7,3.4-7.7,7.7v302.5c0,6.9-5.6,12.4-12.4,12.4C963.8,130.2,958.2,124.6,958.2,117.8z
		 M1023.2-71.3v15.9h88.5c6.9,0,12.4,5.6,12.4,12.4s-5.6,12.4-12.4,12.4h-100.9c-6.9,0-12.4-5.6-12.4-12.4v-40.8
		c0-6.9,5.6-12.4,12.4-12.4h100.9c6.9,0,12.4,5.6,12.4,12.4s-5.6,12.4-12.4,12.4h-88.5V-71.3z M874.5-15.2h-20.7v-55.3
		c0-18.1-10.4-33.9-25.6-41.5v-43.1c0-6.9-5.6-12.4-12.4-12.4h-12.9v-36.9c0-0.1,0-0.2,0-0.3c0-6.9-5.6-12.4-12.4-12.4H673.8
		c-12,0-21.7,9.7-21.7,21.7v25.3c0,6.9,5.6,12.4,12.4,12.4c6.9,0,12.4-5.6,12.4-12.4v-22.3h101.2v24.8h-12.9
		c-6.9,0-12.4,5.6-12.4,12.4v43.2c-15.2,7.7-25.6,23.4-25.6,41.5v55.3h-20.7c-19.6,0-35.5,15.9-35.5,35.5v41.6
		c0,6.9,5.6,12.4,12.4,12.4c6.9,0,12.4-5.6,12.4-12.4V20.3c0-5.9,4.8-10.7,10.7-10.7h168c5.9,0,10.7,4.8,10.7,10.7v382.2
		c0,5.9-4.8,10.7-10.7,10.7H789c-6.9,0-12.4,5.6-12.4,12.4c0,6.9,5.6,12.4,12.4,12.4h85.5c19.6,0,35.5-15.9,35.5-35.5V20.3
		C910,0.7,894.1-15.2,874.5-15.2z M777.7-142.8h25.8v25.8h-25.8V-142.8z M829-15.2h-77v-55.3c0-11.9,9.7-21.6,21.6-21.6h33.7
		c11.9,0,21.6,9.7,21.6,21.6L829-15.2L829-15.2z M1124.1-2.8c0,6.9-5.6,12.4-12.4,12.4h-88.5v108.1c0,6.9-5.6,12.4-12.4,12.4
		c-6.9,0-12.4-5.6-12.4-12.4V-2.8c0-6.9,5.6-12.4,12.4-12.4h100.9C1118.6-15.2,1124.1-9.6,1124.1-2.8z"/>
	<g id="XMLID_588_">
	</g>
	<g id="XMLID_587_">
	</g>
	<g id="XMLID_586_">
	</g>
	<g id="XMLID_585_">
	</g>
	<g id="XMLID_584_">
	</g>
	<g id="XMLID_583_">
	</g>
	<g id="XMLID_582_">
	</g>
	<g id="XMLID_581_">
	</g>
	<g id="XMLID_580_">
	</g>
	<g id="XMLID_579_">
	</g>
	<g id="XMLID_578_">
	</g>
	<g id="XMLID_577_">
	</g>
	<g id="XMLID_576_">
	</g>
	<g id="XMLID_575_">
	</g>
	<g id="XMLID_574_">
	</g>
</g>
<g>
	<path d="M501.1,514.9h-23.1v-16.4h66.2v16.4h-23.5v69.8h-19.6V514.9z"/>
	<path d="M629.7,540.7c0,28.3-17.1,45.4-42.3,45.4c-25.6,0-40.5-19.3-40.5-43.8c0-25.8,16.5-45.1,41.9-45.1
		C615.2,497.1,629.7,516.9,629.7,540.7z M567.4,541.9c0,16.9,7.9,28.8,21,28.8c13.2,0,20.7-12.5,20.7-29.3
		c0-15.5-7.4-28.8-20.8-28.8C575.1,512.6,567.4,525.1,567.4,541.9z"/>
	<path d="M662,498.5v86.2h-19.6v-86.2H662z"/>
	<path d="M678.9,498.5h19.6v69.8h34.3v16.4h-53.8V498.5z"/>
	<path d="M795.5,548.3h-31.7v20.5h35.4v16h-55v-86.2h53.2v16h-33.6v17.9h31.7V548.3z"/>
	<path d="M829.7,514.9h-23.1v-16.4h66.2v16.4h-23.5v69.8h-19.6V514.9z"/>
	<path d="M883.2,499.7c6.3-1,15.6-1.8,25.9-1.8c12.8,0,21.7,1.9,27.9,6.8c5.1,4.1,7.9,10.1,7.9,18c0,11-7.8,18.5-15.2,21.2v0.4
		c6,2.4,9.3,8.2,11.5,16.1c2.7,9.7,5.4,21,7,24.3h-19.9c-1.4-2.6-3.5-9.5-6-20.1c-2.3-10.7-6-13.7-13.9-13.8h-5.9v33.9h-19.3V499.7z
		 M902.5,536.8h7.7c9.7,0,15.5-4.9,15.5-12.4c0-7.9-5.4-11.9-14.3-12c-4.7,0-7.4,0.4-8.8,0.6V536.8z"/>
	<path d="M976.5,584.7v-35.3l-27.2-50.9h22.2l8.8,20.7c2.7,6.3,4.5,10.9,6.6,16.5h0.3c1.9-5.4,4-10.4,6.5-16.5l8.7-20.7h21.9
		l-28.4,50.2v35.9H976.5z"/>
	<path d="M1059.5,498.5h19.3v38.1h0.4c1.9-3.3,4-6.4,5.9-9.5l19.6-28.6h23.9l-28.5,36.7l30,49.5h-22.8l-21.1-37.2l-7.4,9.1v28.1
		h-19.3V498.5z"/>
	<path d="M1157.5,498.5v86.2h-19.6v-86.2H1157.5z"/>
	<path d="M1191,514.9h-23.1v-16.4h66.2v16.4h-23.5v69.8H1191V514.9z"/>
</g>
</svg>
