<?xml version="1.0" encoding="utf-8"?>
<!-- Generator: Adobe Illustrator 19.0.0, SVG Export Plug-In . SVG Version: 6.00 Build 0)  -->
<svg version="1.1" id="Layer_1" xmlns="http://www.w3.org/2000/svg" xmlns:xlink="http://www.w3.org/1999/xlink" x="0px" y="0px"
	 viewBox="194 -104 1000 1000" style="enable-background:new 194 -104 1000 1000;" xml:space="preserve">
<g id="XMLID_573_">
	<path id="XMLID_589_" d="M565.4,442.9h-0.3v-41.5c0-21.8-17.7-39.5-39.5-39.5h-26.8c-21.8,0-39.5,17.7-39.5,39.5v41.5h-0.3
		c-19.6,0-35.5,15.9-35.5,35.5v182.1c0,19.6,15.9,35.5,35.5,35.5h106.5c19.6,0,35.5-15.9,35.5-35.5V478.4
		C600.9,458.8,585,442.9,565.4,442.9z M484.1,401.4c0-8.1,6.6-14.7,14.7-14.7h26.8c8.1,0,14.7,6.6,14.7,14.7v41.5h-56.1V401.4z
		 M576.1,660.5c0,5.8-4.9,10.7-10.7,10.7H458.9c-5.8,0-10.7-4.9-10.7-10.7V478.4c0-5.9,4.8-10.7,10.7-10.7h106.5
		c5.8,0,10.7,4.9,10.7,10.7L576.1,660.5L576.1,660.5z M863.6,105.8v15.9h88.5c6.9,0,12.4,5.6,12.4,12.4c0,6.9-5.6,12.4-12.4,12.4
		H851.2c-6.9,0-12.4-5.6-12.4-12.4V93.4c0-6.9,5.6-12.4,12.4-12.4h100.9c6.9,0,12.4,5.6,12.4,12.4c0,6.9-5.6,12.4-12.4,12.4H863.6z
		 M944.6,413.7c2.4,2.6,3.5,6,3.2,9.4l-21.5,261.5c-0.5,6.4-5.9,11.4-12.4,11.4H785.7c-6.9,0-12.4-5.6-12.4-12.4s5.6-12.4,12.4-12.4
		h116.8L922,434.5H785.7c-6.9,0-12.4-5.6-12.4-12.4s5.6-12.4,12.4-12.4h149.8C939,409.7,942.3,411.1,944.6,413.7z M798.6,375.8V73.3
		c0-17.9,14.6-32.5,32.5-32.5h121c6.9,0,12.4,5.6,12.4,12.4s-5.6,12.4-12.4,12.4h-121c-4.2,0-7.7,3.4-7.7,7.7v302.5
		c0,6.9-5.6,12.4-12.4,12.4C804.2,388.2,798.6,382.6,798.6,375.8z M863.6,186.7v15.9h88.5c6.9,0,12.4,5.6,12.4,12.4
		s-5.6,12.4-12.4,12.4H851.2c-6.9,0-12.4-5.6-12.4-12.4v-40.8c0-6.9,5.6-12.4,12.4-12.4h100.9c6.9,0,12.4,5.6,12.4,12.4
		s-5.6,12.4-12.4,12.4H863.6z M714.9,242.8h-20.7v-55.3c0-18.1-10.4-33.9-25.6-41.5v-43.1c0-6.9-5.6-12.4-12.4-12.4h-12.9V53.6
		c0-0.1,0-0.2,0-0.3c0-6.9-5.6-12.4-12.4-12.4H514.2c-12,0-21.7,9.7-21.7,21.7v25.3c0,6.9,5.6,12.4,12.4,12.4
		c6.9,0,12.4-5.6,12.4-12.4V65.6h101.2v24.8h-12.9c-6.9,0-12.4,5.6-12.4,12.4V146c-15.2,7.7-25.6,23.4-25.6,41.5v55.3h-20.7
		c-19.6,0-35.5,15.9-35.5,35.5v41.6c0,6.9,5.6,12.4,12.4,12.4c6.9,0,12.4-5.6,12.4-12.4v-41.6c0-5.9,4.8-10.7,10.7-10.7h168
		c5.9,0,10.7,4.8,10.7,10.7v382.2c0,5.9-4.8,10.7-10.7,10.7h-85.5c-6.9,0-12.4,5.6-12.4,12.4c0,6.9,5.6,12.4,12.4,12.4h85.5
		c19.6,0,35.5-15.9,35.5-35.5V278.3C750.4,258.7,734.5,242.8,714.9,242.8z M618.1,115.2h25.8V141h-25.8V115.2z M669.4,242.8h-77
		v-55.3c0-11.9,9.7-21.6,21.6-21.6h33.7c11.9,0,21.6,9.7,21.6,21.6L669.4,242.8L669.4,242.8z M964.5,255.2c0,6.9-5.6,12.4-12.4,12.4
		h-88.5v108.1c0,6.9-5.6,12.4-12.4,12.4c-6.9,0-12.4-5.6-12.4-12.4V255.2c0-6.9,5.6-12.4,12.4-12.4h100.9
		C959,242.8,964.5,248.4,964.5,255.2z"/>
	<g id="XMLID_588_">
	</g>
	<g id="XMLID_587_">
	</g>
	<g id="XMLID_586_">
	</g>
	<g id="XMLID_585_">
	</g>
	<g id="XMLID_584_">
	</g>
	<g id="XMLID_583_">
	</g>
	<g id="XMLID_582_">
	</g>
	<g id="XMLID_581_">
	</g>
	<g id="XMLID_580_">
	</g>
	<g id="XMLID_579_">
	</g>
	<g id="XMLID_578_">
	</g>
	<g id="XMLID_577_">
	</g>
	<g id="XMLID_576_">
	</g>
	<g id="XMLID_575_">
	</g>
	<g id="XMLID_574_">
	</g>
</g>
</svg>
