<?xml version="1.0" encoding="utf-8"?>
<!-- Generator: Adobe Illustrator 19.0.0, SVG Export Plug-In . SVG Version: 6.00 Build 0)  -->
<svg version="1.1" id="Layer_1" xmlns="http://www.w3.org/2000/svg" xmlns:xlink="http://www.w3.org/1999/xlink" x="0px" y="0px"
	 viewBox="636 -184 512 512" style="enable-background:new 636 -184 512 512;" xml:space="preserve">
<style type="text/css">
	.st0{fill-rule:evenodd;clip-rule:evenodd;fill:#BD2F32;}
	.st1{fill:#FFFFFF;}
</style>
<g id="XMLID_29_">
	<rect id="XMLID_28_" x="636" y="-184" class="st0" width="512" height="512"/>
	<g id="XMLID_30_">
		<rect id="XMLID_31_" x="708.3" y="255.2" class="st1" width="367.3" height="2.1"/>
	</g>
</g>
<g id="XMLID_403_">
	<g id="XMLID_419_">
		<g id="XMLID_420_">
			<path id="XMLID_431_" class="st1" d="M921.2,162.8V77.6c0-3.4-2.3-6.2-5.5-7v-138c0.1-3.6,1.3-54.9-16.1-76.9
				c-2.5-3.1-7-3.7-10.1-1.2c-0.4,0.4-0.8,0.8-1.2,1.2l0,0c-17.4,22-16.2,73.3-16.1,76.9V70.5c-3.1,0.8-5.5,3.6-5.5,7v85.2
				c0,0.6-0.1,16.1,2.4,32c3.8,24.4,12.1,36.9,24.5,37.4c0.1,0,0.2,0,0.3,0c0.1,0,0.2,0,0.3,0c12.5-0.4,20.7-13,24.5-37.4
				C921.3,178.8,921.2,163.4,921.2,162.8z M894-124.7c6.7,18.1,7.6,45.8,7.3,56.9c0,0.1,0,0.2,0,0.3V70.3h-14.5V-67.5
				c0-0.1,0-0.2,0-0.3C886.4-78.9,887.3-106.5,894-124.7z M894,217.6c-6.8-0.8-13-27.2-12.7-54.8V84.7h25.5v78.1
				C907,190.5,900.8,216.8,894,217.6z"/>
			<path id="XMLID_427_" class="st1" d="M1006,8c0-3.7-2.8-6.7-6.3-7.2v-12c0-1.9-0.4-3.9-2.1-5.1c0,0-6.4-3.7,0-10.3
				c12.8-13.3,9.8-30.5,0-40.2c-1.8-1.8-4.5-2.5-7-1.9c-2.5,0.7-4.5,2.6-5.1,5.2c-1.1,4-4.4,10.3-6.7,10.3c-2.1,0-5.4-5.7-6.7-10.3
				c-0.6-2.5-2.6-4.5-5.1-5.2c-2.5-0.7-5.2,0.1-7,1.9c-9.8,9.8-13,27.1,0,40.2c4.2,4.2,2.3,7.9,0,10.3c-1.4,1.4-2.1,3.1-2.1,5.1v12
				c-3.5,0.4-6.3,3.5-6.3,7.2v154.7c0,0.6-0.1,16.1,2.4,32c3.8,24.4,12.1,36.9,24.5,37.4c0.1,0,0.2,0,0.3,0s0.2,0,0.3,0
				c12.5-0.4,20.7-13,24.5-37.4c2.5-15.9,2.4-31.3,2.4-31.9L1006,8L1006,8z M978.8-38.6c5.5,0,9.7-2.6,12.8-6
				c-0.3,2.6-1.6,5.4-4.3,8.1c-12.1,12.4-3.3,26.6-2.1,28.1v9.3h-12.8v-9.3c5-6.8,7.8-18.3-2.1-28.2c-2.7-2.7-3.9-5.5-4.3-8.1
				C969.2-41.3,973.3-38.6,978.8-38.6z M978.8,217.6c-6.8-0.8-13-27.2-12.7-54.8V15.2h25.5v147.7
				C991.8,190.5,985.6,216.8,978.8,217.6z"/>
			<path id="XMLID_421_" class="st1" d="M837.9,162.8V68.5c0-2.2-1-4.3-2.7-5.6c-1.7-1.4-4-1.9-6.1-1.4c-1.8,0.4-3.5,0.8-5.2,1.3
				c-5.2,1.3-10.6,2.6-15.9,2.6S797.2,64,792,62.7c-1.7-0.4-3.5-0.9-5.2-1.3c-2.1-0.5-4.3,0.1-6.1,1.4c-1.7,1.4-2.7,3.5-2.7,5.6
				v94.3c0,0.6-0.1,16.2,2.7,32.1c2.6,14.3,6.7,24.5,12.5,30.6c3.5,4.2,8.7,6.8,14.7,6.8c5.9,0,11.1-2.6,14.7-6.8
				c5.8-6,10-16.3,12.5-30.6C838,179,837.9,163.4,837.9,162.8z M792.4,77.7c4.8,1.1,9.9,2.1,15.5,2.1c5.5,0,10.8-1,15.5-2.1v2.6
				c-4.8,1.6-10.1,2.4-15.5,2.4s-10.6-0.8-15.5-2.4V77.7z M812.7,96.9L812.7,96.9c0,2.6-2.1,4.8-4.7,4.8c-2.6,0-4.7-2.1-4.7-4.7l0,0
				C806.3,97.1,809.5,97.1,812.7,96.9z M808,218c-2.7,0-4.9-2.2-4.9-4.9s2.2-4.9,4.9-4.9c2.7,0,4.9,2.2,4.9,4.9
				C812.8,215.8,810.6,218,808,218z M820.9,192.3c-0.4,2-0.8,3.9-1.2,5.7c-3.3-2.6-7.4-4.1-11.8-4.1s-8.6,1.6-11.8,4.1
				c-2.5-10.7-3.8-24-3.7-35.2v-54.6c3.5,4.8,9.1,7.9,15.5,7.9s12-3.1,15.5-7.9v54.7C823.4,163,823.5,177.7,820.9,192.3z"/>
		</g>
	</g>
	<g id="XMLID_418_">
	</g>
	<g id="XMLID_417_">
	</g>
	<g id="XMLID_416_">
	</g>
	<g id="XMLID_415_">
	</g>
	<g id="XMLID_414_">
	</g>
	<g id="XMLID_413_">
	</g>
	<g id="XMLID_412_">
	</g>
	<g id="XMLID_411_">
	</g>
	<g id="XMLID_410_">
	</g>
	<g id="XMLID_409_">
	</g>
	<g id="XMLID_408_">
	</g>
	<g id="XMLID_407_">
	</g>
	<g id="XMLID_406_">
	</g>
	<g id="XMLID_405_">
	</g>
	<g id="XMLID_404_">
	</g>
</g>
<g>
	<path d="M782.5,277.8h-10.6v-7.5h30.5v7.5h-10.8V310h-9L782.5,277.8L782.5,277.8z"/>
	<path d="M841.7,289.7c0,13-7.9,20.9-19.5,20.9c-11.7,0-18.6-8.9-18.6-20.2c0-11.9,7.6-20.8,19.3-20.8
		C835.1,269.6,841.7,278.7,841.7,289.7z M813.1,290.2c0,7.7,3.7,13.2,9.6,13.2c6,0,9.5-5.8,9.5-13.4c0-7.1-3.4-13.2-9.6-13.2
		C816.6,276.8,813.1,282.5,813.1,290.2z"/>
	<path d="M883.9,289.7c0,13-7.9,20.9-19.5,20.9c-11.7,0-18.6-8.9-18.6-20.2c0-11.9,7.6-20.8,19.3-20.8
		C877.2,269.6,883.9,278.7,883.9,289.7z M855.3,290.2c0,7.7,3.7,13.2,9.6,13.2c6,0,9.5-5.8,9.5-13.4c0-7.1-3.4-13.2-9.6-13.2
		C858.8,276.8,855.3,282.5,855.3,290.2z"/>
	<path d="M889.7,270.3h9v32.1h15.7v7.5h-24.8L889.7,270.3L889.7,270.3z"/>
	<path d="M931.7,270.3h8.9v17.5h0.2c0.9-1.5,1.8-3,2.7-4.3l9-13.2h11l-13.1,16.9l13.8,22.8h-10.5l-9.7-17.1l-3.4,4.2v12.9h-8.9
		V270.3z"/>
	<path d="M976.8,270.3V310h-9v-39.7H976.8L976.8,270.3z"/>
	<path d="M992.2,277.8h-10.6v-7.5h30.5v7.5h-10.8V310h-9L992.2,277.8L992.2,277.8z"/>
</g>
<g>
	<path class="st1" d="M776.9,277.8h-10.6v-7.5h30.5v7.5h-10.8V310h-9L776.9,277.8L776.9,277.8z"/>
	<path class="st1" d="M836.1,289.7c0,13-7.9,20.9-19.5,20.9c-11.7,0-18.6-8.9-18.6-20.2c0-11.9,7.6-20.8,19.3-20.8
		C829.4,269.6,836.1,278.7,836.1,289.7z M807.4,290.2c0,7.7,3.7,13.2,9.6,13.2c6,0,9.5-5.8,9.5-13.4c0-7.1-3.4-13.2-9.6-13.2
		C811,276.8,807.4,282.5,807.4,290.2z"/>
	<path class="st1" d="M878.2,289.7c0,13-7.9,20.9-19.5,20.9c-11.7,0-18.6-8.9-18.6-20.2c0-11.9,7.6-20.8,19.3-20.8
		C871.5,269.6,878.2,278.7,878.2,289.7z M849.6,290.2c0,7.7,3.7,13.2,9.6,13.2c6,0,9.5-5.8,9.5-13.4c0-7.1-3.4-13.2-9.6-13.2
		C853.1,276.8,849.6,282.5,849.6,290.2z"/>
	<path class="st1" d="M884.1,270.3h9v32.1h15.7v7.5H884L884.1,270.3L884.1,270.3z"/>
	<path class="st1" d="M926,270.3h8.9v17.5h0.2c0.9-1.5,1.8-3,2.7-4.3l9-13.2h11l-13.1,16.9l13.8,22.8H948l-9.7-17.1l-3.4,4.2v12.9
		H926V270.3z"/>
	<path class="st1" d="M971.1,270.3V310h-9v-39.7H971.1L971.1,270.3z"/>
	<path class="st1" d="M986.5,277.8h-10.6v-7.5h30.5v7.5h-10.8V310h-9L986.5,277.8L986.5,277.8z"/>
</g>
</svg>
