<?xml version="1.0" encoding="utf-8"?>
<!-- Generator: Adobe Illustrator 19.0.0, SVG Export Plug-In . SVG Version: 6.00 Build 0)  -->
<svg version="1.1" id="Layer_1" xmlns="http://www.w3.org/2000/svg" xmlns:xlink="http://www.w3.org/1999/xlink" x="0px" y="0px"
	 viewBox="194 -104 1000 1000" style="enable-background:new 194 -104 1000 1000;" xml:space="preserve">
<g id="XMLID_403_">
	<g id="XMLID_419_">
		<g id="XMLID_420_">
			<path id="XMLID_431_" d="M713.7,572.2V436.8c0-5.4-3.7-9.9-8.7-11.1V206.5c0.2-5.7,2.1-87.2-25.5-122.1c-3.9-5-11.1-5.8-16.1-1.9
				c-0.7,0.6-1.3,1.2-1.9,1.9l0,0c-27.6,34.9-25.7,116.5-25.5,122.1v219.1c-5,1.2-8.7,5.7-8.7,11.1v135.3c0,1-0.2,25.6,3.8,50.8
				c6.1,38.7,19.2,58.7,39,59.4c0.1,0,0.3,0,0.4,0c0.1,0,0.3,0,0.4,0c19.8-0.7,32.9-20.6,39-59.4
				C713.8,597.7,713.7,573.2,713.7,572.2z M670.5,115.5c10.7,28.7,12.1,72.8,11.6,90.4c0,0.1,0,0.3,0,0.4v219h-23.1v-219
				c0-0.1,0-0.3,0-0.4C658.4,188.3,659.8,144.3,670.5,115.5z M670.5,659.3c-10.8-1.3-20.6-43.2-20.2-87.1v-124h40.5v124.1
				C691.1,616.2,681.3,658,670.5,659.3z"/>
			<path id="XMLID_427_" d="M848.4,326.3c0-5.8-4.4-10.7-10-11.4v-19c0-3-0.6-6.2-3.4-8.1c0,0-10.2-5.8,0-16.3
				c20.4-21.1,15.5-48.4,0-63.9c-2.9-2.9-7.2-4-11.1-3c-4,1.1-7.1,4.2-8.1,8.2c-1.7,6.4-7,16.3-10.6,16.3c-3.3,0-8.6-9-10.6-16.3
				c-1-4-4.1-7.1-8.1-8.2c-4-1.1-8.2,0.1-11.1,3c-15.5,15.5-20.7,43.1,0,63.9c6.6,6.6,3.6,12.5,0,16.3c-2.3,2.2-3.4,5-3.4,8.1v19
				c-5.6,0.7-10,5.5-10,11.4v245.8c0,1-0.2,25.6,3.8,50.8c6.1,38.7,19.2,58.7,39,59.4c0.1,0,0.3,0,0.4,0c0.1,0,0.3,0,0.4,0
				c19.8-0.7,32.9-20.6,39-59.4c4-25.2,3.8-49.7,3.8-50.7L848.4,326.3L848.4,326.3z M805.2,252.2c8.7,0,15.4-4.2,20.4-9.6
				c-0.5,4.2-2.6,8.5-6.8,12.8c-19.3,19.7-5.2,42.2-3.4,44.7v14.8H795v-14.7c8-10.8,12.4-29-3.4-44.8c-4.3-4.3-6.2-8.7-6.8-12.8
				C789.9,248,796.5,252.2,805.2,252.2z M805.2,659.3c-10.8-1.3-20.6-43.2-20.2-87.1V337.7h40.5v234.6
				C825.8,616.2,816,658,805.2,659.3z"/>
			<path id="XMLID_421_" d="M581.3,572.2V422.4c0-3.5-1.6-6.8-4.3-8.9c-2.7-2.2-6.3-3-9.7-2.3c-2.8,0.6-5.6,1.3-8.3,2
				c-8.3,2.1-16.8,4.2-25.3,4.2c-8.5,0-17-2.2-25.3-4.2c-2.7-0.7-5.6-1.4-8.3-2c-3.4-0.8-6.9,0.1-9.7,2.3c-2.7,2.2-4.3,5.5-4.3,8.9
				l0,149.8c0,1-0.2,25.7,4.3,51c4.1,22.7,10.7,39,19.9,48.6c5.6,6.6,13.9,10.8,23.3,10.8c9.3,0,17.7-4.2,23.3-10.8
				c9.2-9.6,15.9-25.9,19.9-48.6C581.5,597.9,581.3,573.1,581.3,572.2z M509.1,437c7.6,1.8,15.8,3.4,24.6,3.4
				c8.8,0,17.1-1.6,24.6-3.4v4.1c-7.7,2.5-16.1,3.8-24.6,3.8c-8.5,0-16.9-1.3-24.6-3.8L509.1,437z M541.3,467.5
				C541.3,467.5,541.3,467.5,541.3,467.5c0,4.2-3.4,7.6-7.5,7.6c-4.2,0-7.5-3.4-7.5-7.5c0,0,0,0,0,0
				C531.2,467.8,536.3,467.8,541.3,467.5z M533.8,659.9c-4.3,0-7.8-3.5-7.8-7.8c0-4.3,3.5-7.8,7.8-7.8c4.3,0,7.8,3.5,7.8,7.8
				C541.5,656.4,538,659.9,533.8,659.9z M554.4,619.1c-0.6,3.2-1.2,6.2-1.9,9.1c-5.2-4.1-11.7-6.5-18.8-6.5
				c-7.1,0-13.6,2.5-18.8,6.5c-4-17-6-38.2-5.8-56v-86.8c5.5,7.6,14.5,12.6,24.6,12.6c10.1,0,19.1-5,24.6-12.6v86.9
				C558.4,572.6,558.5,595.9,554.4,619.1z"/>
		</g>
	</g>
	<g id="XMLID_418_">
	</g>
	<g id="XMLID_417_">
	</g>
	<g id="XMLID_416_">
	</g>
	<g id="XMLID_415_">
	</g>
	<g id="XMLID_414_">
	</g>
	<g id="XMLID_413_">
	</g>
	<g id="XMLID_412_">
	</g>
	<g id="XMLID_411_">
	</g>
	<g id="XMLID_410_">
	</g>
	<g id="XMLID_409_">
	</g>
	<g id="XMLID_408_">
	</g>
	<g id="XMLID_407_">
	</g>
	<g id="XMLID_406_">
	</g>
	<g id="XMLID_405_">
	</g>
	<g id="XMLID_404_">
	</g>
</g>
</svg>
