<?xml version="1.0" encoding="utf-8"?>
<!-- Generator: Adobe Illustrator 19.0.0, SVG Export Plug-In . SVG Version: 6.00 Build 0)  -->
<svg version="1.1" id="Layer_1" xmlns="http://www.w3.org/2000/svg" xmlns:xlink="http://www.w3.org/1999/xlink" x="0px" y="0px"
	 viewBox="356 -284 1000 1000" style="enable-background:new 356 -284 1000 1000;" xml:space="preserve">
<g id="XMLID_403_">
	<g id="XMLID_419_">
		<g id="XMLID_420_">
			<path id="XMLID_431_" d="M902.4,288.2V152.8c0-5.4-3.7-9.9-8.7-11.1V-77.5c0.2-5.7,2.1-87.2-25.5-122.1c-3.9-5-11.1-5.8-16.1-1.9
				c-0.7,0.6-1.3,1.2-1.9,1.9l0,0c-27.6,34.9-25.7,116.5-25.5,122.1v219.1c-5,1.2-8.7,5.7-8.7,11.1V288c0,1-0.2,25.6,3.8,50.8
				c6.1,38.7,19.2,58.7,39,59.4c0.1,0,0.3,0,0.4,0c0.1,0,0.3,0,0.4,0c19.8-0.7,32.9-20.6,39-59.4
				C902.5,313.7,902.4,289.2,902.4,288.2z M859.2-168.5c10.7,28.7,12.1,72.8,11.6,90.4c0,0.1,0,0.3,0,0.4v219h-23.1v-219
				c0-0.1,0-0.3,0-0.4C847.1-95.7,848.5-139.7,859.2-168.5z M859.2,375.3c-10.8-1.3-20.6-43.2-20.2-87.1v-124h40.5v124.1
				C879.8,332.2,870,374,859.2,375.3z"/>
			<path id="XMLID_427_" d="M1037.1,42.3c0-5.8-4.4-10.7-10-11.4v-19c0-3-0.6-6.2-3.4-8.1c0,0-10.2-5.8,0-16.3
				c20.4-21.1,15.5-48.4,0-63.9c-2.9-2.9-7.2-4-11.1-3c-4,1.1-7.1,4.2-8.1,8.2c-1.7,6.4-7,16.3-10.6,16.3c-3.3,0-8.6-9-10.6-16.3
				c-1-4-4.1-7.1-8.1-8.2c-4-1.1-8.2,0.1-11.1,3c-15.5,15.5-20.7,43.1,0,63.9c6.6,6.6,3.6,12.5,0,16.3c-2.3,2.2-3.4,5-3.4,8.1v19
				c-5.6,0.7-10,5.5-10,11.4v245.8c0,1-0.2,25.6,3.8,50.8c6.1,38.7,19.2,58.7,39,59.4c0.1,0,0.3,0,0.4,0c0.1,0,0.3,0,0.4,0
				c19.8-0.7,32.9-20.6,39-59.4c4-25.2,3.8-49.7,3.8-50.7L1037.1,42.3L1037.1,42.3z M993.9-31.8c8.7,0,15.4-4.2,20.4-9.6
				c-0.5,4.2-2.6,8.5-6.8,12.8c-19.3,19.7-5.2,42.2-3.4,44.7v14.8h-20.4V16.2c8-10.8,12.4-29-3.4-44.8c-4.3-4.3-6.2-8.7-6.8-12.8
				C978.6-36,985.2-31.8,993.9-31.8z M993.9,375.3c-10.8-1.3-20.6-43.2-20.2-87.1V53.7h40.5v234.6
				C1014.5,332.2,1004.7,374,993.9,375.3z"/>
			<path id="XMLID_421_" d="M770,288.2V138.4c0-3.5-1.6-6.8-4.3-8.9c-2.7-2.2-6.3-3-9.7-2.3c-2.8,0.6-5.6,1.3-8.3,2
				c-8.3,2.1-16.8,4.2-25.3,4.2s-17-2.2-25.3-4.2c-2.7-0.7-5.6-1.4-8.3-2c-3.4-0.8-6.9,0.1-9.7,2.3c-2.7,2.2-4.3,5.5-4.3,8.9v149.8
				c0,1-0.2,25.7,4.3,51c4.1,22.7,10.7,39,19.9,48.6c5.6,6.6,13.9,10.8,23.3,10.8c9.3,0,17.7-4.2,23.3-10.8
				c9.2-9.6,15.9-25.9,19.9-48.6C770.2,313.9,770,289.1,770,288.2z M697.8,153c7.6,1.8,15.8,3.4,24.6,3.4s17.1-1.6,24.6-3.4v4.1
				c-7.7,2.5-16.1,3.8-24.6,3.8s-16.9-1.3-24.6-3.8V153z M730,183.5L730,183.5c0,4.2-3.4,7.6-7.5,7.6c-4.2,0-7.5-3.4-7.5-7.5l0,0
				C719.9,183.8,725,183.8,730,183.5z M722.5,375.9c-4.3,0-7.8-3.5-7.8-7.8s3.5-7.8,7.8-7.8s7.8,3.5,7.8,7.8
				C730.2,372.4,726.7,375.9,722.5,375.9z M743.1,335.1c-0.6,3.2-1.2,6.2-1.9,9.1c-5.2-4.1-11.7-6.5-18.8-6.5s-13.6,2.5-18.8,6.5
				c-4-17-6-38.2-5.8-56v-86.8c5.5,7.6,14.5,12.6,24.6,12.6s19.1-5,24.6-12.6v86.9C747.1,288.6,747.2,311.9,743.1,335.1z"/>
		</g>
	</g>
	<g id="XMLID_418_">
	</g>
	<g id="XMLID_417_">
	</g>
	<g id="XMLID_416_">
	</g>
	<g id="XMLID_415_">
	</g>
	<g id="XMLID_414_">
	</g>
	<g id="XMLID_413_">
	</g>
	<g id="XMLID_412_">
	</g>
	<g id="XMLID_411_">
	</g>
	<g id="XMLID_410_">
	</g>
	<g id="XMLID_409_">
	</g>
	<g id="XMLID_408_">
	</g>
	<g id="XMLID_407_">
	</g>
	<g id="XMLID_406_">
	</g>
	<g id="XMLID_405_">
	</g>
	<g id="XMLID_404_">
	</g>
</g>
<g>
	<path d="M689.1,491.9h-16.2v-11.5h46.5v11.5h-16.5v49h-13.7V491.9z"/>
	<path d="M779.4,510c0,19.8-12,31.8-29.7,31.8c-17.9,0-28.4-13.5-28.4-30.8c0-18.1,11.6-31.7,29.4-31.7
		C769.2,479.4,779.4,493.3,779.4,510z M735.7,510.8c0,11.8,5.6,20.2,14.7,20.2c9.2,0,14.5-8.8,14.5-20.5c0-10.9-5.2-20.2-14.6-20.2
		C741.1,490.3,735.7,499.1,735.7,510.8z"/>
	<path d="M843.7,510c0,19.8-12,31.8-29.7,31.8c-17.9,0-28.4-13.5-28.4-30.8c0-18.1,11.6-31.7,29.4-31.7
		C833.5,479.4,843.7,493.3,843.7,510z M800,510.8c0,11.8,5.6,20.2,14.7,20.2c9.2,0,14.5-8.8,14.5-20.5c0-10.9-5.2-20.2-14.6-20.2
		C805.4,490.3,800,499.1,800,510.8z"/>
	<path d="M852.6,480.4h13.7v49h24v11.5h-37.8V480.4z"/>
	<path d="M916.6,480.4h13.5v26.7h0.3c1.3-2.3,2.8-4.5,4.1-6.6l13.7-20.1H965l-20,25.7l21.1,34.7h-16l-14.8-26.1l-5.2,6.4v19.7h-13.5
		V480.4z"/>
	<path d="M985.4,480.4v60.5h-13.7v-60.5H985.4z"/>
	<path d="M1008.9,491.9h-16.2v-11.5h46.5v11.5h-16.5v49h-13.7V491.9z"/>
</g>
</svg>
