<?xml version="1.0" encoding="utf-8"?>
<!-- Generator: Adobe Illustrator 19.0.0, SVG Export Plug-In . SVG Version: 6.00 Build 0)  -->
<svg version="1.1" id="Layer_1" xmlns="http://www.w3.org/2000/svg" xmlns:xlink="http://www.w3.org/1999/xlink" x="0px" y="0px"
	 viewBox="194 -104 1000 1000" style="enable-background:new 194 -104 1000 1000;" xml:space="preserve">
<g id="XMLID_348_">
	<g id="XMLID_642_">
		<g id="XMLID_643_">
			<path id="XMLID_644_" d="M937.3,351L750.9,164.5c-3.9-3.9-10.3-3.9-14.3,0l-61,61c-40.3,40.3-60.7,95.4-56.5,152L433.3,563.4
				c-11.8,11.8-11.8,31,0,42.7l62.5,62.5c5.9,5.9,13.6,8.8,21.4,8.8c7.7,0,15.5-2.9,21.4-8.8l185.8-185.8c4.9,0.4,9.7,0.5,14.6,0.5
				c51.4,0,100.6-20.2,137.4-57l61-61c1.9-1.9,3-4.5,3-7.1C940.3,355.4,939.2,352.9,937.3,351z M524.2,654.3c-1.9,1.9-4.4,3-7.1,3
				c-2.7,0-5.2-1-7.1-3l-62.5-62.5c-3.9-3.9-3.9-10.3,0-14.2l19.6-19.6L510,601c2,2,4.5,3,7.1,3s5.2-1,7.1-3
				c3.9-3.9,3.9-10.3,0-14.3l-42.9-42.9l146.4-146.4l76.7,76.7L524.2,654.3z M862,412c-37.1,37.1-88.3,55.4-140.6,50.3
				c-0.1,0-0.2,0-0.3,0l-81.6-81.6c0-0.1,0-0.2,0-0.3c-5.2-52.2,13.2-103.5,50.3-140.6l13-13L875,399L862,412z M889.3,384.8
				L717,212.6l26.7-26.7l172.2,172.2L889.3,384.8z"/>
		</g>
	</g>
	<g id="XMLID_637_">
		<g id="XMLID_638_">
			<path id="XMLID_639_" d="M642,462l-2.2-2.2c-13.4-13.4-35.1-13.4-48.4,0l-53.7,53.7c-13.4,13.4-13.4,35.1,0,48.4l2.2,2.2
				c6.5,6.5,15.1,10,24.2,10c9.2,0,17.8-3.6,24.2-10l53.7-53.7C655.4,497.1,655.4,475.3,642,462z M627.8,496.2l-53.7,53.7
				c-2.7,2.7-6.2,4.1-10,4.1c-3.8,0-7.3-1.5-10-4.1l-2.2-2.2c-5.5-5.5-5.5-14.5,0-19.9l53.7-53.7c5.5-5.5,14.5-5.5,19.9,0l2.2,2.2
				C633.3,481.7,633.3,490.7,627.8,496.2z"/>
		</g>
	</g>
	<g id="XMLID_634_">
		<g id="XMLID_635_">
			<path id="XMLID_636_" d="M612.5,489.3c-1.9-1.9-4.5-3-7.1-3c-2.6,0-5.2,1.1-7.1,3c-1.9,1.9-2.9,4.5-2.9,7.1s1.1,5.2,2.9,7.1
				c1.9,1.9,4.5,3,7.1,3c2.7,0,5.2-1.1,7.1-3c1.9-1.9,3-4.5,3-7.1S614.4,491.2,612.5,489.3z"/>
		</g>
	</g>
	<g id="XMLID_631_">
		<g id="XMLID_632_">
			<path id="XMLID_633_" d="M581.8,520c-1.9-1.9-4.5-2.9-7.1-2.9c-2.7,0-5.2,1.1-7.1,2.9c-1.9,1.9-3,4.5-3,7.1c0,2.6,1.1,5.2,3,7.1
				c1.9,1.9,4.5,2.9,7.1,2.9c2.6,0,5.2-1.1,7.1-2.9c1.9-1.9,3-4.5,3-7.1C584.8,524.5,583.7,521.9,581.8,520z"/>
		</g>
	</g>
	<g id="XMLID_628_">
		<g id="XMLID_629_">
			<path id="XMLID_630_" d="M919.6,182.2c-3.9-3.9-10.3-3.9-14.3,0l-36.1,36.1c-3.9,3.9-3.9,10.3,0,14.2c2,2,4.5,3,7.1,3
				c2.6,0,5.2-1,7.1-3l36.1-36.1C923.6,192.5,923.6,186.1,919.6,182.2z"/>
		</g>
	</g>
	<g id="XMLID_625_">
		<g id="XMLID_626_">
			<path id="XMLID_627_" d="M833.2,161.9c-5.4-1.4-10.9,1.7-12.3,7.1l-6.8,25.3c-1.4,5.4,1.7,10.9,7.1,12.3c0.9,0.2,1.8,0.3,2.6,0.3
				c4.4,0,8.5-3,9.7-7.5l6.8-25.3C841.7,168.9,838.5,163.3,833.2,161.9z"/>
		</g>
	</g>
	<g id="XMLID_622_">
		<g id="XMLID_623_">
			<path id="XMLID_624_" d="M939.9,268.8c-1.4-5.4-7-8.6-12.3-7.1l-25.1,6.7c-5.4,1.4-8.6,7-7.1,12.3c1.2,4.5,5.3,7.5,9.7,7.5
				c0.9,0,1.7-0.1,2.6-0.3l25.1-6.7C938.2,279.7,941.4,274.1,939.9,268.8z"/>
		</g>
	</g>
	<g id="XMLID_619_">
		<g id="XMLID_620_">
			<path id="XMLID_621_" d="M691.6,302.9c-5.1-2.3-11,0-13.3,5.1c-9,19.9-13.8,41.1-14.3,63c-0.1,5.6,4.3,10.2,9.8,10.3
				c0.1,0,0.2,0,0.2,0c5.5,0,9.9-4.4,10.1-9.8c0.4-19.1,4.7-37.7,12.5-55.2C698.9,311.1,696.7,305.2,691.6,302.9z"/>
		</g>
	</g>
	<g id="XMLID_616_">
		<g id="XMLID_617_">
			<path id="XMLID_618_" d="M711.1,274.4c-4.5-3.3-10.8-2.4-14.1,2l-0.2,0.3c-3.3,4.5-2.4,10.8,2,14.1c1.8,1.4,3.9,2,6,2
				c3.1,0,6.1-1.4,8.1-4l0.2-0.3C716.4,284.1,715.5,277.8,711.1,274.4z"/>
		</g>
	</g>
	<g id="XMLID_615_">
	</g>
	<g id="XMLID_614_">
	</g>
	<g id="XMLID_613_">
	</g>
	<g id="XMLID_612_">
	</g>
	<g id="XMLID_611_">
	</g>
	<g id="XMLID_610_">
	</g>
	<g id="XMLID_609_">
	</g>
	<g id="XMLID_608_">
	</g>
	<g id="XMLID_607_">
	</g>
	<g id="XMLID_606_">
	</g>
	<g id="XMLID_605_">
	</g>
	<g id="XMLID_604_">
	</g>
	<g id="XMLID_603_">
	</g>
	<g id="XMLID_602_">
	</g>
	<g id="XMLID_601_">
	</g>
</g>
</svg>
