<?xml version="1.0" encoding="utf-8"?>
<!-- Generator: Adobe Illustrator 19.0.0, SVG Export Plug-In . SVG Version: 6.00 Build 0)  -->
<svg version="1.1" id="Layer_1" xmlns="http://www.w3.org/2000/svg" xmlns:xlink="http://www.w3.org/1999/xlink" x="0px" y="0px"
	 viewBox="356 -284 1000 1000" style="enable-background:new 356 -284 1000 1000;" xml:space="preserve">
<g id="XMLID_348_">
	<g id="XMLID_642_">
		<g id="XMLID_643_">
			<path id="XMLID_644_" d="M1085.3,16.5L898.9-170c-3.9-3.9-10.3-3.9-14.3,0l-61,61c-40.3,40.3-60.7,95.4-56.5,152L581.3,228.9
				c-11.8,11.8-11.8,31,0,42.7l62.5,62.5c5.9,5.9,13.6,8.8,21.4,8.8c7.7,0,15.5-2.9,21.4-8.8l185.8-185.8c4.9,0.4,9.7,0.5,14.6,0.5
				c51.4,0,100.6-20.2,137.4-57l61-61c1.9-1.9,3-4.5,3-7.1C1088.3,20.9,1087.2,18.4,1085.3,16.5z M672.2,319.8c-1.9,1.9-4.4,3-7.1,3
				c-2.7,0-5.2-1-7.1-3l-62.5-62.5c-3.9-3.9-3.9-10.3,0-14.2l19.6-19.6l42.9,43c2,2,4.5,3,7.1,3s5.2-1,7.1-3
				c3.9-3.9,3.9-10.3,0-14.3l-42.9-42.9L775.6,62.9l76.7,76.7L672.2,319.8z M1010,77.5c-37.1,37.1-88.3,55.4-140.6,50.3
				c-0.1,0-0.2,0-0.3,0l-81.6-81.6c0-0.1,0-0.2,0-0.3c-5.2-52.2,13.2-103.5,50.3-140.6l13-13L1023,64.5L1010,77.5z M1037.3,50.3
				L865-121.9l26.7-26.7l172.2,172.2L1037.3,50.3z"/>
		</g>
	</g>
	<g id="XMLID_637_">
		<g id="XMLID_638_">
			<path id="XMLID_639_" d="M790,127.5l-2.2-2.2c-13.4-13.4-35.1-13.4-48.4,0L685.6,179c-13.4,13.4-13.4,35.1,0,48.4l2.2,2.2
				c6.5,6.5,15.1,10,24.2,10c9.2,0,17.8-3.6,24.2-10l53.7-53.7C803.4,162.6,803.4,140.8,790,127.5z M775.8,161.7L722,215.4
				c-2.7,2.7-6.2,4.1-10,4.1s-7.3-1.5-10-4.1l-2.2-2.2c-5.5-5.5-5.5-14.5,0-19.9l53.7-53.7c5.5-5.5,14.5-5.5,19.9,0l2.2,2.2
				C781.3,147.2,781.3,156.2,775.8,161.7z"/>
		</g>
	</g>
	<g id="XMLID_634_">
		<g id="XMLID_635_">
			<path id="XMLID_636_" d="M760.5,154.8c-1.9-1.9-4.5-3-7.1-3s-5.2,1.1-7.1,3c-1.9,1.9-2.9,4.5-2.9,7.1s1.1,5.2,2.9,7.1
				c1.9,1.9,4.5,3,7.1,3c2.7,0,5.2-1.1,7.1-3c1.9-1.9,3-4.5,3-7.1S762.4,156.7,760.5,154.8z"/>
		</g>
	</g>
	<g id="XMLID_631_">
		<g id="XMLID_632_">
			<path id="XMLID_633_" d="M729.8,185.5c-1.9-1.9-4.5-2.9-7.1-2.9c-2.7,0-5.2,1.1-7.1,2.9c-1.9,1.9-3,4.5-3,7.1s1.1,5.2,3,7.1
				c1.9,1.9,4.5,2.9,7.1,2.9s5.2-1.1,7.1-2.9c1.9-1.9,3-4.5,3-7.1S731.7,187.4,729.8,185.5z"/>
		</g>
	</g>
	<g id="XMLID_628_">
		<g id="XMLID_629_">
			<path id="XMLID_630_" d="M1067.6-152.3c-3.9-3.9-10.3-3.9-14.3,0l-36.1,36.1c-3.9,3.9-3.9,10.3,0,14.2c2,2,4.5,3,7.1,3
				s5.2-1,7.1-3l36.1-36.1C1071.6-142,1071.6-148.4,1067.6-152.3z"/>
		</g>
	</g>
	<g id="XMLID_625_">
		<g id="XMLID_626_">
			<path id="XMLID_627_" d="M981.2-172.6c-5.4-1.4-10.9,1.7-12.3,7.1l-6.8,25.3c-1.4,5.4,1.7,10.9,7.1,12.3c0.9,0.2,1.8,0.3,2.6,0.3
				c4.4,0,8.5-3,9.7-7.5l6.8-25.3C989.7-165.6,986.5-171.2,981.2-172.6z"/>
		</g>
	</g>
	<g id="XMLID_622_">
		<g id="XMLID_623_">
			<path id="XMLID_624_" d="M1087.9-65.7c-1.4-5.4-7-8.6-12.3-7.1l-25.1,6.7c-5.4,1.4-8.6,7-7.1,12.3c1.2,4.5,5.3,7.5,9.7,7.5
				c0.9,0,1.7-0.1,2.6-0.3l25.1-6.7C1086.2-54.8,1089.4-60.4,1087.9-65.7z"/>
		</g>
	</g>
	<g id="XMLID_619_">
		<g id="XMLID_620_">
			<path id="XMLID_621_" d="M839.5-31.6c-5.1-2.3-11,0-13.3,5.1c-9,19.9-13.8,41.1-14.3,63c-0.1,5.6,4.3,10.2,9.8,10.3
				c0.1,0,0.2,0,0.2,0c5.5,0,9.9-4.4,10.1-9.8c0.4-19.1,4.7-37.7,12.5-55.2C846.9-23.4,844.7-29.3,839.5-31.6z"/>
		</g>
	</g>
	<g id="XMLID_616_">
		<g id="XMLID_617_">
			<path id="XMLID_618_" d="M859-60.1c-4.5-3.3-10.8-2.4-14.1,2l-0.2,0.3c-3.3,4.5-2.4,10.8,2,14.1c1.8,1.4,3.9,2,6,2
				c3.1,0,6.1-1.4,8.1-4L861-46C864.4-50.4,863.5-56.7,859-60.1z"/>
		</g>
	</g>
	<g id="XMLID_615_">
	</g>
	<g id="XMLID_614_">
	</g>
	<g id="XMLID_613_">
	</g>
	<g id="XMLID_612_">
	</g>
	<g id="XMLID_611_">
	</g>
	<g id="XMLID_610_">
	</g>
	<g id="XMLID_609_">
	</g>
	<g id="XMLID_608_">
	</g>
	<g id="XMLID_607_">
	</g>
	<g id="XMLID_606_">
	</g>
	<g id="XMLID_605_">
	</g>
	<g id="XMLID_604_">
	</g>
	<g id="XMLID_603_">
	</g>
	<g id="XMLID_602_">
	</g>
	<g id="XMLID_601_">
	</g>
</g>
<g>
	<path d="M682.3,443h-23.6v-16.7h67.5V443h-24v71.2h-19.9V443z"/>
	<path d="M813.4,469.3c0,28.8-17.5,46.3-43.1,46.3c-26.1,0-41.3-19.7-41.3-44.7c0-26.3,16.8-46,42.8-46
		C798.7,424.9,813.4,445.1,813.4,469.3z M750,470.5c0,17.2,8.1,29.3,21.4,29.3c13.4,0,21.1-12.8,21.1-29.8
		c0-15.8-7.6-29.3-21.2-29.3C757.8,440.7,750,453.4,750,470.5z"/>
	<path d="M826.5,427.5c6.4-1,15.9-1.8,26.5-1.8c13,0,22.2,2,28.4,6.9c5.2,4.2,8.1,10.3,8.1,18.4c0,11.2-8,18.9-15.5,21.6v0.4
		c6.1,2.5,9.5,8.3,11.7,16.4c2.7,9.9,5.5,21.4,7.2,24.8h-20.3c-1.4-2.6-3.5-9.6-6.1-20.5c-2.3-10.9-6.1-13.9-14.2-14.1h-6v34.5
		h-19.7V427.5z M846.2,465.3h7.8c9.9,0,15.8-5,15.8-12.6c0-8.1-5.5-12.1-14.6-12.3c-4.8,0-7.6,0.4-9,0.7V465.3z"/>
	<path d="M967.8,511.7c-3.6,1.8-11.9,3.9-22.5,3.9c-30.4,0-46-19-46-44.1c0-30,21.4-46.7,48-46.7c10.3,0,18.1,2.1,21.6,3.9l-4,15.8
		c-4-1.7-9.6-3.3-16.7-3.3c-15.8,0-28,9.5-28,29.1c0,17.6,10.4,28.7,28.2,28.7c6,0,12.6-1.3,16.6-2.9L967.8,511.7z"/>
	<path d="M1000.7,426.3v33.8h32.7v-33.8h19.8v87.8h-19.8v-36.8h-32.7v36.8h-19.9v-87.8H1000.7z"/>
</g>
</svg>
