<?xml version="1.0" encoding="utf-8"?>
<!-- Generator: Adobe Illustrator 19.0.0, SVG Export Plug-In . SVG Version: 6.00 Build 0)  -->
<svg version="1.1" id="Layer_1" xmlns="http://www.w3.org/2000/svg" xmlns:xlink="http://www.w3.org/1999/xlink" x="0px" y="0px"
	 viewBox="636 -184 512 512" style="enable-background:new 636 -184 512 512;" xml:space="preserve">
<style type="text/css">
	.st0{fill-rule:evenodd;clip-rule:evenodd;fill:#BD2F32;}
	.st1{fill:#FFFFFF;}
</style>
<g id="XMLID_29_">
	<rect id="XMLID_28_" x="636" y="-184" class="st0" width="512" height="512"/>
	<g id="XMLID_30_">
		<rect id="XMLID_31_" x="708.3" y="255.2" class="st1" width="367.3" height="2.1"/>
	</g>
</g>
<g id="XMLID_348_">
	<g id="XMLID_642_">
		<g id="XMLID_643_">
			<path id="XMLID_644_" class="st1" d="M1052.7-10.9L936.9-126.8c-2.4-2.4-6.4-2.4-8.9,0l-37.9,37.9C865-63.8,852.3-29.6,854.9,5.6
				L739.4,121.2c-7.3,7.3-7.3,19.3,0,26.5l38.9,38.9c3.7,3.7,8.5,5.5,13.3,5.5c4.8,0,9.6-1.8,13.3-5.5L920.4,71.1
				c3,0.2,6,0.3,9.1,0.3c32,0,62.5-12.6,85.4-35.4L1052.8-2c1.2-1.2,1.9-2.8,1.9-4.4C1054.6-8.1,1053.9-9.7,1052.7-10.9z
				 M795.9,177.7c-1.2,1.2-2.7,1.9-4.4,1.9c-1.7,0-3.2-0.6-4.4-1.9l-38.9-38.9c-2.4-2.4-2.4-6.4,0-8.8l12.2-12.2l26.7,26.7
				c1.2,1.2,2.8,1.9,4.4,1.9s3.2-0.6,4.4-1.9c2.4-2.4,2.4-6.4,0-8.9L769.3,109l90.9-91l47.7,47.7L795.9,177.7z M1005.9,27
				c-23.1,23.1-54.9,34.4-87.4,31.3c-0.1,0-0.1,0-0.2,0L867.6,7.6c0-0.1,0-0.1,0-0.2c-3.2-32.4,8.2-64.3,31.3-87.4l8.1-8.1l107,107
				L1005.9,27z M1022.9,10.1l-107.1-107l16.6-16.6l107,107L1022.9,10.1z"/>
		</g>
	</g>
	<g id="XMLID_637_">
		<g id="XMLID_638_">
			<path id="XMLID_639_" class="st1" d="M869.2,58.1l-1.4-1.4c-8.3-8.3-21.8-8.3-30.1,0l-33.4,33.4c-8.3,8.3-8.3,21.8,0,30.1
				l1.4,1.4c4,4,9.4,6.2,15,6.2c5.7,0,11.1-2.2,15-6.2l33.4-33.4C877.5,79.9,877.5,66.4,869.2,58.1z M860.3,79.4l-33.4,33.4
				c-1.7,1.7-3.9,2.5-6.2,2.5c-2.4,0-4.5-0.9-6.2-2.5l-1.4-1.4c-3.4-3.4-3.4-9,0-12.4l33.4-33.4c3.4-3.4,9-3.4,12.4,0l1.4,1.4
				C863.8,70.4,863.8,76,860.3,79.4z"/>
		</g>
	</g>
	<g id="XMLID_634_">
		<g id="XMLID_635_">
			<path id="XMLID_636_" class="st1" d="M850.8,75.1c-1.2-1.2-2.8-1.9-4.4-1.9s-3.2,0.7-4.4,1.9s-1.8,2.8-1.8,4.4
				c0,1.6,0.7,3.2,1.8,4.4c1.2,1.2,2.8,1.9,4.4,1.9c1.7,0,3.2-0.7,4.4-1.9s1.9-2.8,1.9-4.4C852.7,77.9,852,76.3,850.8,75.1z"/>
		</g>
	</g>
	<g id="XMLID_631_">
		<g id="XMLID_632_">
			<path id="XMLID_633_" class="st1" d="M831.8,94.2c-1.2-1.2-2.8-1.8-4.4-1.8c-1.7,0-3.2,0.7-4.4,1.8c-1.2,1.2-1.9,2.8-1.9,4.4
				s0.7,3.2,1.9,4.4c1.2,1.2,2.8,1.8,4.4,1.8s3.2-0.7,4.4-1.8c1.2-1.2,1.9-2.8,1.9-4.4S832.9,95.4,831.8,94.2z"/>
		</g>
	</g>
	<g id="XMLID_628_">
		<g id="XMLID_629_">
			<path id="XMLID_630_" class="st1" d="M1041.7-115.8c-2.4-2.4-6.4-2.4-8.9,0l-22.4,22.4c-2.4,2.4-2.4,6.4,0,8.8
				c1.2,1.2,2.8,1.9,4.4,1.9s3.2-0.6,4.4-1.9l22.4-22.4C1044.2-109.4,1044.2-113.4,1041.7-115.8z"/>
		</g>
	</g>
	<g id="XMLID_625_">
		<g id="XMLID_626_">
			<path id="XMLID_627_" class="st1" d="M988-128.4c-3.4-0.9-6.8,1.1-7.6,4.4l-4.2,15.7c-0.9,3.4,1.1,6.8,4.4,7.6
				c0.6,0.1,1.1,0.2,1.6,0.2c2.7,0,5.3-1.9,6-4.7l4.2-15.7C993.3-124.1,991.3-127.5,988-128.4z"/>
		</g>
	</g>
	<g id="XMLID_622_">
		<g id="XMLID_623_">
			<path id="XMLID_624_" class="st1" d="M1054.3-62c-0.9-3.4-4.4-5.3-7.6-4.4l-15.6,4.2c-3.4,0.9-5.3,4.4-4.4,7.6
				c0.7,2.8,3.3,4.7,6,4.7c0.6,0,1.1-0.1,1.6-0.2l15.6-4.2C1053.3-55.2,1055.3-58.7,1054.3-62z"/>
		</g>
	</g>
	<g id="XMLID_619_">
		<g id="XMLID_620_">
			<path id="XMLID_621_" class="st1" d="M899.9-40.8c-3.2-1.4-6.8,0-8.3,3.2c-5.6,12.4-8.6,25.5-8.9,39.2c-0.1,3.5,2.7,6.3,6.1,6.4
				c0.1,0,0.1,0,0.1,0c3.4,0,6.2-2.7,6.3-6.1c0.2-11.9,2.9-23.4,7.8-34.3C904.5-35.7,903.2-39.3,899.9-40.8z"/>
		</g>
	</g>
	<g id="XMLID_616_">
		<g id="XMLID_617_">
			<path id="XMLID_618_" class="st1" d="M912.1-58.5c-2.8-2.1-6.7-1.5-8.8,1.2l-0.1,0.2c-2.1,2.8-1.5,6.7,1.2,8.8
				c1.1,0.9,2.4,1.2,3.7,1.2c1.9,0,3.8-0.9,5-2.5l0.1-0.2C915.4-52.5,914.9-56.4,912.1-58.5z"/>
		</g>
	</g>
	<g id="XMLID_615_">
	</g>
	<g id="XMLID_614_">
	</g>
	<g id="XMLID_613_">
	</g>
	<g id="XMLID_612_">
	</g>
	<g id="XMLID_611_">
	</g>
	<g id="XMLID_610_">
	</g>
	<g id="XMLID_609_">
	</g>
	<g id="XMLID_608_">
	</g>
	<g id="XMLID_607_">
	</g>
	<g id="XMLID_606_">
	</g>
	<g id="XMLID_605_">
	</g>
	<g id="XMLID_604_">
	</g>
	<g id="XMLID_603_">
	</g>
	<g id="XMLID_602_">
	</g>
	<g id="XMLID_601_">
	</g>
</g>
<g>
	<path d="M818.4,279.3h-10v-7.1H837v7.1h-10.2v30.2h-8.4V279.3z"/>
	<path d="M874,290.4c0,12.2-7.4,19.6-18.3,19.6c-11.1,0-17.5-8.4-17.5-19c0-11.2,7.1-19.5,18.2-19.5
		C867.7,271.6,874,280.1,874,290.4z M847.1,290.9c0,7.3,3.4,12.4,9.1,12.4c5.7,0,8.9-5.4,8.9-12.6c0-6.7-3.2-12.4-9-12.4
		C850.4,278.3,847.1,283.7,847.1,290.9z"/>
	<path d="M879.5,272.7c2.7-0.4,6.7-0.8,11.2-0.8c5.5,0,9.4,0.8,12,2.9c2.2,1.8,3.4,4.4,3.4,7.8c0,4.7-3.4,8-6.6,9.2v0.2
		c2.6,1.1,4,3.5,5,7c1.1,4.2,2.3,9.1,3.1,10.5h-8.6c-0.6-1.1-1.5-4.1-2.6-8.7c-1-4.6-2.6-5.9-6-6h-2.5v14.6h-8.4L879.5,272.7
		L879.5,272.7z M887.9,288.7h3.3c4.2,0,6.7-2.1,6.7-5.3c0-3.4-2.3-5.1-6.2-5.2c-2,0-3.2,0.2-3.8,0.3V288.7z"/>
	<path d="M939.4,308.4c-1.5,0.8-5,1.7-9.5,1.7c-12.9,0-19.5-8.1-19.5-18.7c0-12.7,9.1-19.8,20.4-19.8c4.4,0,7.7,0.9,9.2,1.7
		l-1.7,6.7c-1.7-0.7-4.1-1.4-7.1-1.4c-6.7,0-11.9,4-11.9,12.3c0,7.5,4.4,12.2,12,12.2c2.5,0,5.3-0.6,7-1.2L939.4,308.4z"/>
	<path d="M953.4,272.2v14.3h13.9v-14.3h8.4v37.2h-8.4v-15.6h-13.9v15.6h-8.4v-37.2H953.4z"/>
</g>
<g>
	<path class="st1" d="M812.7,279.3h-10v-7.1h28.6v7.1h-10.2v30.2h-8.4V279.3z"/>
	<path class="st1" d="M868.3,290.4c0,12.2-7.4,19.6-18.3,19.6c-11.1,0-17.5-8.4-17.5-19c0-11.2,7.1-19.5,18.2-19.5
		C862.1,271.6,868.3,280.1,868.3,290.4z M841.4,290.9c0,7.3,3.4,12.4,9.1,12.4c5.7,0,8.9-5.4,8.9-12.6c0-6.7-3.2-12.4-9-12.4
		C844.7,278.3,841.4,283.7,841.4,290.9z"/>
	<path class="st1" d="M873.8,272.7c2.7-0.4,6.7-0.8,11.2-0.8c5.5,0,9.4,0.8,12,2.9c2.2,1.8,3.4,4.4,3.4,7.8c0,4.7-3.4,8-6.6,9.2v0.2
		c2.6,1.1,4,3.5,5,7c1.1,4.2,2.3,9.1,3.1,10.5h-8.6c-0.6-1.1-1.5-4.1-2.6-8.7c-1-4.6-2.6-5.9-6-6h-2.5v14.6h-8.4L873.8,272.7
		L873.8,272.7z M882.2,288.7h3.3c4.2,0,6.7-2.1,6.7-5.3c0-3.4-2.3-5.1-6.2-5.2c-2,0-3.2,0.2-3.8,0.3V288.7z"/>
	<path class="st1" d="M933.8,308.4c-1.5,0.8-5,1.7-9.5,1.7c-12.9,0-19.5-8.1-19.5-18.7c0-12.7,9.1-19.8,20.4-19.8
		c4.4,0,7.7,0.9,9.2,1.7l-1.7,6.7c-1.7-0.7-4.1-1.4-7.1-1.4c-6.7,0-11.9,4-11.9,12.3c0,7.5,4.4,12.2,12,12.2c2.5,0,5.3-0.6,7-1.2
		L933.8,308.4z"/>
	<path class="st1" d="M947.7,272.2v14.3h13.9v-14.3h8.4v37.2h-8.4v-15.6h-13.9v15.6h-8.4v-37.2H947.7z"/>
</g>
</svg>
