<?xml version="1.0" encoding="utf-8"?>
<!-- Generator: Adobe Illustrator 19.0.0, SVG Export Plug-In . SVG Version: 6.00 Build 0)  -->
<svg version="1.1" id="Layer_1" xmlns="http://www.w3.org/2000/svg" xmlns:xlink="http://www.w3.org/1999/xlink" x="0px" y="0px"
	 viewBox="112 -40 512 512" style="enable-background:new 112 -40 512 512;" xml:space="preserve">
<g transform="translate(1 1)">
	<g>
		<path d="M551.9,0.6c-13.2,0-24.3,9.1-27.5,21.3h-15.2V7.7c0-16.3-12.1-28.4-28.4-28.4H253.2c-15.7,0-28.4,10.7-28.4,24.2V22h-15.2
			c-3.2-12.3-14.3-21.3-27.5-21.3c-15.7,0-28.4,12.8-28.4,28.4s12.8,28.4,28.4,28.4c13.2,0,24.3-9.1,27.5-21.3h15.2v220.5v42.7
			c0,12.1,9.3,21.3,21.3,21.3h199.1c12.1,0,21.3-9.3,21.3-21.3v-7.1h21.3c12.1,0,21.3-9.3,21.3-21.3V36.2h15.2
			c3.2,12.3,14.3,21.3,27.5,21.3c15.7,0,28.4-12.8,28.4-28.4C580.3,13.5,567.5,0.6,551.9,0.6z M182,43.3c-7.8,0-14.3-6.4-14.3-14.3
			s6.4-14.3,14.3-14.3c7.8,0,14.3,6.4,14.3,14.3C196.3,36.9,189.8,43.3,182,43.3z M495,7.7V22h-28.4V7.7c0-5.7,6.4-14.3,14.3-14.3
			C489.3-6.4,495-0.8,495,7.7z M238.9,3.5c0-5.7,6.4-9.9,14.3-9.9h203.5c-2.6,3.9-4,8.3-4.3,12.8c0,0.4-0.1,0.9-0.1,1.3v241.8H238.9
			C238.9,249.6,238.9,3.5,238.9,3.5z M452.3,299.4c0,4.3-2.8,7.1-7.1,7.1H246c-4.3,0-7.1-2.8-7.1-7.1v-35.6h213.4v21.3V299.4z
			 M495,270.9c0,4.3-2.8,7.1-7.1,7.1h-21.3v-21.3V36.2H495V270.9z M551.9,43.3c-7.8,0-14.3-6.4-14.3-14.3s6.4-14.3,14.3-14.3
			c7.8,0,14.3,6.4,14.3,14.3C566.1,36.9,559.7,43.3,551.9,43.3z"/>
	</g>
</g>
<g>
	<path d="M239.9,376.2h-16.8v-11.9h48.1v11.9h-17.1v50.7h-14.2V376.2z"/>
	<path d="M333.2,395c0,20.5-12.4,32.9-30.7,32.9c-18.6,0-29.4-14-29.4-31.8c0-18.7,12-32.8,30.4-32.8
		C322.8,363.3,333.2,377.7,333.2,395z M288,395.8c0,12.3,5.8,20.9,15.2,20.9c9.6,0,15-9.1,15-21.3c0-11.2-5.4-20.9-15.1-20.9
		C293.6,374.6,288,383.7,288,395.8z"/>
	<path d="M352,426.9l-14.8-62.5h15.1l4.7,25.7c1.4,7.5,2.7,15.6,3.7,21.9h0.2c1-6.8,2.5-14.3,4.1-22l5.3-25.6h15l5,26.4
		c1.4,7.3,2.4,14,3.3,21h0.2c0.9-7,2.3-14.3,3.6-21.7l5.1-25.6H417l-16.1,62.5h-15.3l-5.3-26.9c-1.2-6.3-2.2-12.2-3-19.3H377
		c-1.1,7.1-2.1,13-3.6,19.3l-5.9,26.9H352z"/>
	<path d="M461.5,400.5h-23v14.8h25.7v11.6h-39.9v-62.5h38.6V376h-24.4v13h23V400.5z"/>
	<path d="M473.9,364.4H488V415h24.9v11.9h-39.1V364.4z"/>
</g>
</svg>
