<?xml version="1.0" encoding="utf-8"?>
<!-- Generator: Adobe Illustrator 19.0.0, SVG Export Plug-In . SVG Version: 6.00 Build 0)  -->
<svg version="1.1" id="Layer_1" xmlns="http://www.w3.org/2000/svg" xmlns:xlink="http://www.w3.org/1999/xlink" x="0px" y="0px"
	 viewBox="-49 141 512 512" style="enable-background:new -49 141 512 512;" xml:space="preserve">
<g transform="translate(1 1)">
	<g>
		<path d="M427.9,216.8c-15.8,0-29.2,10.9-33,25.6h-18.2v-17.1c0-19.6-14.5-34.1-34.1-34.1H69.5c-18.8,0-34.1,12.8-34.1,29v22.2
			H17.2c-3.8-14.7-17.2-25.6-33-25.6c-18.8,0-34.1,15.4-34.1,34.1s15.4,34.1,34.1,34.1c15.8,0,29.2-10.9,33-25.6h18.2V524v51.2
			c0,14.5,11.1,25.6,25.6,25.6h238.9c14.5,0,25.6-11.1,25.6-25.6v-8.5h25.6c14.5,0,25.6-11.1,25.6-25.6V259.5h18.2
			c3.8,14.7,17.2,25.6,33,25.6c18.8,0,34.1-15.4,34.1-34.1C462,232.2,446.6,216.8,427.9,216.8z M-15.9,268
			c-9.4,0-17.1-7.7-17.1-17.1s7.7-17.1,17.1-17.1s17.1,7.7,17.1,17.1C1.2,260.3-6.5,268-15.9,268z M359.6,225.3v17.1h-34.1v-17.1
			c0-6.8,7.7-17.1,17.1-17.1C352.8,208.3,359.6,215.1,359.6,225.3z M52.4,220.2c0-6.8,7.7-11.9,17.1-11.9h244.1
			c-3.1,4.7-4.8,10-5.1,15.4c0,0.5-0.1,1.1-0.1,1.6v290.1h-256C52.4,515.5,52.4,220.2,52.4,220.2z M308.4,575.2
			c0,5.1-3.4,8.5-8.5,8.5H60.9c-5.1,0-8.5-3.4-8.5-8.5v-42.7h256v25.6V575.2z M359.6,541.1c0,5.1-3.4,8.5-8.5,8.5h-25.6V524V259.5
			h34.1V541.1z M427.9,268c-9.4,0-17.1-7.7-17.1-17.1s7.7-17.1,17.1-17.1s17.1,7.7,17.1,17.1C444.9,260.3,437.3,268,427.9,268z"/>
	</g>
</g>
</svg>
