<?xml version="1.0" encoding="utf-8"?>
<!-- Generator: Adobe Illustrator 19.0.0, SVG Export Plug-In . SVG Version: 6.00 Build 0)  -->
<svg version="1.1" id="Layer_1" xmlns="http://www.w3.org/2000/svg" xmlns:xlink="http://www.w3.org/1999/xlink" x="0px" y="0px"
	 viewBox="148 -184 512 512" style="enable-background:new 148 -184 512 512;" xml:space="preserve">
<style type="text/css">
	.st0{fill-rule:evenodd;clip-rule:evenodd;fill:#BD2F32;}
	.st1{fill:#FFFFFF;}
</style>
<g id="XMLID_29_">
	<rect id="XMLID_28_" x="148" y="-184" class="st0" width="512" height="512"/>
	<g id="XMLID_30_">
		<rect id="XMLID_31_" x="220.3" y="255.2" class="st1" width="367.3" height="2.1"/>
	</g>
</g>
<g transform="translate(1 1)">
	<g>
		<path class="st1" d="M571.3-97.5c-12,0-22.1,8.3-25,19.4h-13.8v-12.9c0-14.8-11-25.8-25.8-25.8H299.5c-14.3,0-25.8,9.7-25.8,22
			v16.8h-13.8c-2.9-11.2-13-19.4-25-19.4c-14.3,0-25.8,11.6-25.8,25.8s11.6,25.8,25.8,25.8c12,0,22.1-8.3,25-19.4h13.8v200.6v38.8
			c0,11,8.5,19.4,19.4,19.4h181.1c11,0,19.4-8.5,19.4-19.4v-6.5h19.4c11,0,19.4-8.5,19.4-19.4V-65.1h13.8c2.9,11.2,13,19.4,25,19.4
			c14.3,0,25.8-11.6,25.8-25.8C597.1-85.8,585.4-97.5,571.3-97.5z M234.7-58.7c-7.1,0-13-5.8-13-13s5.8-13,13-13c7.1,0,13,5.8,13,13
			C247.8-64.5,241.8-58.7,234.7-58.7z M519.5-91.1v13h-25.8v-13c0-5.2,5.8-13,13-13C514.3-103.9,519.5-98.8,519.5-91.1z M286.5-94.9
			c0-5.2,5.8-9,13-9h185.1c-2.4,3.5-3.6,7.6-3.9,11.6c0,0.4-0.1,0.8-0.1,1.2v220H286.5C286.5,129,286.5-94.9,286.5-94.9z
			 M480.6,174.3c0,3.9-2.5,6.5-6.5,6.5H293c-3.9,0-6.5-2.5-6.5-6.5v-32.4h194.1v19.4V174.3z M519.5,148.4c0,3.9-2.5,6.5-6.5,6.5
			h-19.4v-19.4V-65.1h25.8V148.4z M571.3-58.7c-7.1,0-13-5.8-13-13s5.8-13,13-13c7.1,0,13,5.8,13,13
			C584.2-64.5,578.4-58.7,571.3-58.7z"/>
	</g>
</g>
<g>
	<path d="M315.7,278h-11.6v-8.2h33.2v8.2h-11.8V313h-9.8V278L315.7,278z"/>
	<path d="M380,291c0,14.1-8.5,22.7-21.2,22.7c-12.8,0-20.3-9.6-20.3-21.9c0-12.9,8.3-22.6,21-22.6C372.8,269.1,380,279.1,380,291z
		 M348.9,291.5c0,8.5,4,14.4,10.5,14.4c6.6,0,10.3-6.3,10.3-14.7c0-7.7-3.7-14.4-10.4-14.4C352.7,276.9,348.9,283.2,348.9,291.5z"/>
	<path d="M393,313l-10.2-43.1h10.4l3.2,17.7c1,5.2,1.9,10.8,2.6,15.1h0.1c0.7-4.7,1.7-9.9,2.8-15.2l3.7-17.6h10.3l3.4,18.2
		c1,5,1.7,9.6,2.3,14.5h0.1c0.6-4.8,1.6-9.9,2.5-15l3.5-17.6h10L426.7,313h-10.5l-3.7-18.5c-0.8-4.3-1.5-8.4-2.1-13.3h-0.2
		c-0.8,4.9-1.4,9-2.5,13.3l-4.1,18.5L393,313L393,313z"/>
	<path d="M468.4,294.8h-15.9V305h17.7v8h-27.5v-43.1h26.6v8h-16.8v9h15.9V294.8L468.4,294.8z"/>
	<path d="M477,269.9h9.7v34.9h17.2v8.2h-26.9L477,269.9L477,269.9z"/>
</g>
<g>
	<path class="st1" d="M310,278h-11.6v-8.2h33.2v8.2h-11.8V313H310L310,278L310,278z"/>
	<path class="st1" d="M374.3,291c0,14.1-8.5,22.7-21.2,22.7c-12.8,0-20.3-9.6-20.3-21.9c0-12.9,8.3-22.6,21-22.6
		C367.2,269.1,374.3,279.1,374.3,291z M343.2,291.5c0,8.5,4,14.4,10.5,14.4c6.6,0,10.3-6.3,10.3-14.7c0-7.7-3.7-14.4-10.4-14.4
		C347.1,276.9,343.2,283.2,343.2,291.5z"/>
	<path class="st1" d="M387.3,313l-10.2-43.1h10.4l3.2,17.7c1,5.2,1.9,10.8,2.6,15.1h0.1c0.7-4.7,1.7-9.9,2.8-15.2l3.7-17.6h10.3
		l3.4,18.2c1,5,1.7,9.6,2.3,14.5h0.1c0.6-4.8,1.6-9.9,2.5-15l3.5-17.6h10L421,313h-10.5l-3.7-18.5c-0.8-4.3-1.5-8.4-2.1-13.3h-0.2
		c-0.8,4.9-1.4,9-2.5,13.3L398,313L387.3,313L387.3,313z"/>
	<path class="st1" d="M462.8,294.8h-15.9V305h17.7v8h-27.5v-43.1h26.6v8h-16.8v9h15.9L462.8,294.8L462.8,294.8z"/>
	<path class="st1" d="M471.3,269.9h9.7v34.9h17.2v8.2h-26.9L471.3,269.9L471.3,269.9z"/>
</g>
</svg>
