<?xml version="1.0" encoding="utf-8"?>
<!-- Generator: Adobe Illustrator 19.0.0, SVG Export Plug-In . SVG Version: 6.00 Build 0)  -->
<svg version="1.1" id="Layer_1" xmlns="http://www.w3.org/2000/svg" xmlns:xlink="http://www.w3.org/1999/xlink" x="0px" y="0px"
	 viewBox="0 0 512 512" style="enable-background:new 0 0 512 512;" xml:space="preserve">
<style type="text/css">
	.st0{fill:#010101;}
</style>
<g>
	<path class="st0" d="M256.1,406.9C153.6,407,68.8,322.8,69.4,220.3c0.6-97.5,74.3-186.5,186.7-186.2c108.2,0.3,186,81,185.9,186.6
		C442,331.4,354.5,405.4,256.1,406.9z M255.1,387.5c92.6,0.1,167.7-74.3,167.8-166.4c0.1-93.1-73.7-167.8-166-168
		C163.8,52.9,88.6,127.4,88.4,220C88.2,312.3,162.9,387.5,255.1,387.5z"/>
	<path id="XMLID_19_" class="st0" d="M274.2,192.3c-4,7.9-8.2,16.4-12.4,24.7c8.6,12.3,17.3,24.3,25.5,36.6c2.5,3.8,4.7,8.4,5.1,13
		c2.1,20.1,3.6,40.3,5.2,60.5c0.4,5.8-1.8,10.1-7.9,10.9c-6.6,0.9-9.8-3.2-11-9.2c-3.1-17.4-5.9-34.9-9.6-52.2
		c-1.1-5.2-4.1-10.6-7.7-14.6c-9.5-10.6-19.4-20.8-29.9-30.5c-8.4-7.7-11.3-17.1-6.9-26.5c9.1-19.4,18.9-38.5,30-56.7
		c6.6-10.8,25.8-4.8,30.9,9.1c3,8.3,5.7,16.7,8.6,25.1c2.7,7.9,7.4,13.5,15.8,16.2c6.3,2,12.7,4.4,18.1,8.1
		c2.9,1.9,3.7,6.7,5.5,10.3c-3.4,1.4-7.2,4.5-10.2,3.9c-9.8-2-20.4-3.7-28.9-8.5C286.7,208,281.2,199.6,274.2,192.3z"/>
	<path id="XMLID_18_" class="st0" d="M254.3,138.4c-9.3,15.1-19.8,29.3-27.5,45c-7.4,15.1-11.8,31.7-17.6,47.6
		c-0.8-0.3-1.7-0.5-2.4-0.7c0.6-3.5,1.7-7,1.7-10.4c0-2.4-1.3-4.8-2-7.2c-1.7,1.6-3.7,2.9-5,4.7c-2.4,3.4-3.9,7.2-6.4,10.5
		c-1,1.3-3.5,1.5-7.4,3c4.9-7.9,8.3-13.4,11.7-18.8c-17.8-12.8-20.5-21.2-11-40.7c5.5-11.2,12.4-22.2,21-31.3
		C219,130,234.7,124.1,254.3,138.4z"/>
	<path id="XMLID_17_" class="st0" d="M228,234.6c6,6.4,12.3,12.5,17.8,19.3c1.5,1.8,1.6,5.7,1,8.4c-4.5,18.3-13,33.9-28.9,45.1
		c-8.4,6-15.9,13.4-23.9,20.2c-4.7,4-9.7,5-14.3,0.2c-4.5-5-2.9-9.8,1.6-14.1c0.3-0.3,0.4-0.4,0.7-0.6
		c25.2-19.6,42.7-43.6,42.3-77.8C225.4,234.9,226.8,234.8,228,234.6z"/>
	<path id="XMLID_16_" class="st0" d="M309.1,122.5c0.1,11.5-8.6,20.3-20.2,20.3c-11.1,0-19.8-8.4-20.1-19.5
		c-0.3-11.4,8.4-20.6,19.8-20.8C300,102.3,308.9,111.1,309.1,122.5z"/>
	<g>
		<path id="XMLID_15_" class="st0" d="M27.1,439.9H14.8v-8.7h35.3v8.7H37.6v37.3H27.1V439.9z"/>
		<path class="st0" d="M55.6,431.8c3.3-0.5,8.4-1,13.8-1c6.8,0,11.6,1,14.9,3.7c2.7,2.2,4.3,5.4,4.3,9.6c0,5.8-4.2,9.9-8.1,11.3v0.2
			c3.2,1.3,5,4.4,6.1,8.6c1.4,5.2,2.9,11.1,3.7,13H79.7c-0.8-1.4-1.8-5-3.2-10.7c-1.2-5.7-3.2-7.3-7.4-7.4H66v18.1H55.6V431.8z
			 M65.9,451.6H70c5.2,0,8.3-2.6,8.3-6.6c0-4.3-2.9-6.4-7.7-6.4c-2.5,0-3.9,0.2-4.7,0.3C65.9,438.9,65.9,451.6,65.9,451.6z"/>
		<path class="st0" d="M107.4,465.4l-3.3,11.8H93.3l14-46H121l14.3,46h-11.1l-3.6-11.8H107.4z M119.1,457.6l-2.9-9.7
			c-0.8-2.7-1.7-6.1-2.4-8.9h-0.2c-0.7,2.7-1.4,6.2-2.1,8.9l-2.7,9.7H119.1z"/>
		<path id="XMLID_10_" class="st0" d="M148.2,477.1l-14.7-46h11.4l5.6,19.4c1.6,5.5,3,10.7,4.1,16.5h0.2c1.1-5.5,2.6-11,4.2-16.2
			l5.8-19.7h11.1l-15.5,46L148.2,477.1L148.2,477.1z"/>
		<path id="XMLID_9_" class="st0" d="M208,457.7h-16.9v10.9H210v8.5h-29.3v-46h28.4v8.5h-17.9v9.6H208V457.7z"/>
		<path id="XMLID_8_" class="st0" d="M217.1,431.2h10.4v37.3h18.3v8.7h-28.7V431.2z"/>
		<path id="XMLID_7_" class="st0" d="M276.1,431.2v26.5c0,7.9,3,11.9,8.4,11.9c5.5,0,8.4-3.8,8.4-11.9v-26.5h10.4V457
			c0,14.2-7.1,20.9-19.2,20.9c-11.6,0-18.4-6.4-18.4-21.1v-25.6L276.1,431.2L276.1,431.2z"/>
		<path id="XMLID_6_" class="st0" d="M321.1,439.9h-12.4v-8.7h35.3v8.7h-12.5v37.3h-10.4V439.9z"/>
		<path id="XMLID_5_" class="st0" d="M360,431.2v46h-10.4v-46H360z"/>
		<path id="XMLID_4_" class="st0" d="M369,431.2h10.4v37.3h18.3v8.7H369V431.2z"/>
		<path id="XMLID_3_" class="st0" d="M414.3,431.2v46h-10.4v-46H414.3z"/>
		<path id="XMLID_2_" class="st0" d="M432.1,439.9h-12.4v-8.7h35.3v8.7h-12.5v37.3h-10.4L432.1,439.9L432.1,439.9z"/>
		<path id="XMLID_1_" class="st0" d="M471.7,477.1v-18.8l-14.5-27.2H469l4.7,11.1c1.4,3.3,2.4,5.8,3.6,8.8h0.2
			c1-2.9,2.1-5.5,3.5-8.8l4.6-11.1h11.7L482.1,458v19.2H471.7z"/>
	</g>
</g>
</svg>
