<?xml version="1.0" encoding="utf-8"?>
<!-- Generator: Adobe Illustrator 19.0.0, SVG Export Plug-In . SVG Version: 6.00 Build 0)  -->
<svg version="1.1" id="Layer_1" xmlns="http://www.w3.org/2000/svg" xmlns:xlink="http://www.w3.org/1999/xlink" x="0px" y="0px"
	 viewBox="0 0 612 664.2" style="enable-background:new 0 0 612 664.2;" xml:space="preserve">
<g>
	<path d="M308.6,484.8c-117.7,0.1-215.1-96.6-214.4-214.3c0.7-112,85.4-214.2,214.5-213.9c124.3,0.3,213.7,93,213.6,214.4
		C522.2,398.1,421.6,483.1,308.6,484.8z M307.5,462.6c106.4,0.1,192.6-85.3,192.8-191.1c0.1-107-84.7-192.8-190.7-193
		C202.6,78.2,116.2,163.8,116,270.1C115.8,376.2,201.6,462.5,307.5,462.6z"/>
	<path d="M329.4,238.3c-4.6,9.1-9.4,18.8-14.3,28.4c9.9,14.1,19.9,27.9,29.3,42c2.9,4.4,5.4,9.7,5.9,14.9c2.4,23.1,4.1,46.3,6,69.5
		c0.5,6.7-2.1,11.6-9.1,12.5c-7.6,1-11.3-3.7-12.6-10.6c-3.6-20-6.8-40.1-11-60c-1.3-6-4.7-12.2-8.8-16.8
		c-10.9-12.2-22.3-23.9-34.3-35c-9.6-8.8-13-19.6-7.9-30.4c10.4-22.3,21.7-44.2,34.5-65.1c7.6-12.4,29.6-5.5,35.5,10.5
		c3.5,9.5,6.6,19.2,9.9,28.8c3.1,9.1,8.5,15.5,18.1,18.6c7.2,2.3,14.6,5.1,20.8,9.3c3.3,2.2,4.3,7.7,6.3,11.8
		c-3.9,1.6-8.3,5.2-11.7,4.5c-11.3-2.3-23.4-4.2-33.2-9.8C343.8,256.4,337.5,246.7,329.4,238.3z"/>
	<path d="M306.5,176.4c-10.7,17.3-22.8,33.7-31.6,51.7c-8.5,17.4-13.6,36.4-20.2,54.7c-0.9-0.3-1.9-0.6-2.8-0.8c0.7-4,1.9-8,2-12
		c0-2.7-1.5-5.5-2.3-8.3c-1.9,1.8-4.2,3.3-5.7,5.4c-2.7,3.9-4.5,8.3-7.3,12.1c-1.1,1.5-4,1.7-8.5,3.5c5.6-9.1,9.5-15.4,13.4-21.6
		c-20.4-14.7-23.6-24.3-12.6-46.7c6.3-12.9,14.3-25.5,24.1-35.9C266,166.8,284,160,306.5,176.4z"/>
	<path d="M276.3,286.9c6.9,7.3,14.1,14.4,20.5,22.2c1.7,2.1,1.8,6.6,1.1,9.6c-5.2,21-14.9,38.9-33.2,51.8
		c-9.7,6.9-18.3,15.4-27.4,23.2c-5.4,4.6-11.2,5.8-16.4,0.2c-5.2-5.7-3.3-11.3,1.8-16.2c0.3-0.3,0.5-0.5,0.8-0.7
		c29-22.5,49.1-50.1,48.6-89.4C273.4,287.3,274.9,287.1,276.3,286.9z"/>
	<path d="M369.5,158.2c0.1,13.2-9.9,23.3-23.2,23.3c-12.7,0-22.7-9.7-23.1-22.4c-0.3-13.1,9.7-23.7,22.7-23.9
		C359.1,134.9,369.3,145,369.5,158.2z"/>
	<g>
		<path d="M45.6,522.8H31.4v-10H72v10H57.6v42.8h-12V522.8z"/>
		<path d="M78.3,513.5c3.8-0.6,9.6-1.1,15.9-1.1c7.8,0,13.3,1.2,17.1,4.2c3.1,2.5,4.9,6.2,4.9,11c0,6.7-4.8,11.4-9.3,13v0.2
			c3.7,1.5,5.7,5,7,9.9c1.6,6,3.3,12.8,4.3,14.9H106c-0.9-1.6-2.1-5.8-3.7-12.3c-1.4-6.6-3.7-8.4-8.5-8.5h-3.6v20.8H78.3V513.5z
			 M90.1,536.2h4.7c6,0,9.5-3,9.5-7.6c0-4.9-3.3-7.3-8.8-7.4c-2.9,0-4.5,0.2-5.4,0.4V536.2z"/>
		<path d="M137.8,552l-3.8,13.5h-12.4l16.1-52.8h15.7l16.4,52.8h-12.8l-4.1-13.5H137.8z M151.2,543.1l-3.3-11.2
			c-0.9-3.1-1.9-7-2.7-10.2H145c-0.8,3.1-1.6,7.1-2.4,10.2l-3.1,11.2H151.2z"/>
		<path d="M184.7,565.5l-16.9-52.8h13.1l6.4,22.3c1.8,6.3,3.4,12.3,4.7,18.9h0.2c1.3-6.3,3-12.6,4.8-18.6l6.7-22.6h12.7l-17.8,52.8
			H184.7z"/>
		<path d="M253.4,543.2H234v12.5h21.7v9.8H222v-52.8h32.6v9.8H234v11h19.4V543.2z"/>
		<path d="M263.8,512.8h12v42.8h21v10h-33V512.8z"/>
		<path d="M331.6,512.8v30.4c0,9.1,3.4,13.7,9.6,13.7c6.3,0,9.7-4.4,9.7-13.7v-30.4h11.9v29.6c0,16.3-8.2,24-22,24
			c-13.3,0-21.1-7.4-21.1-24.2v-29.4H331.6z"/>
		<path d="M383.3,522.8h-14.2v-10h40.6v10h-14.4v42.8h-12V522.8z"/>
		<path d="M428,512.8v52.8h-12v-52.8H428z"/>
		<path d="M438.3,512.8h12v42.8h21v10h-33V512.8z"/>
		<path d="M490.3,512.8v52.8h-12v-52.8H490.3z"/>
		<path d="M510.8,522.8h-14.2v-10h40.6v10h-14.4v42.8h-12V522.8z"/>
		<path d="M556.3,565.5v-21.6l-16.7-31.2h13.6l5.4,12.7c1.6,3.8,2.7,6.7,4.1,10.1h0.2c1.2-3.3,2.4-6.3,4-10.1l5.3-12.7h13.4
			l-17.4,30.8v22H556.3z"/>
	</g>
</g>
</svg>
