<?xml version="1.0" encoding="utf-8"?>
<!-- Generator: Adobe Illustrator 19.0.0, SVG Export Plug-In . SVG Version: 6.00 Build 0)  -->
<svg version="1.1" id="Layer_1" xmlns="http://www.w3.org/2000/svg" xmlns:xlink="http://www.w3.org/1999/xlink" x="0px" y="0px"
	 viewBox="0 0 612 614.4" style="enable-background:new 0 0 612 614.4;" xml:space="preserve">
<path d="M382.5,454.1c16-4.2,27.9-12.1,35.3-26.1c5.1-9.8,7.8-20.4,8-31.2c0.4-19.3-0.1-38.5-0.3-58c-3.2-0.3-5.2-0.5-7.5-0.8
	c-0.3-1.6-0.6-3.3-1-5.4c-1.7-0.1-3.3-0.2-4.9-0.2c-14.3,0-28.7,0-43,0c-10,0-15.1-5.1-15.1-15.1c0-22.8,0-45.7,0-68.5
	c0-1.6,0-3.3,0-5.6c-9.2,0-18.2,0-27.1,0c-9,0-9-0.1-9-8.8c0-3.5,0-7,0-10.2c-9.8-8.8-21.5-3.5-32.1-5c-3.6-0.5-7.2-1-10.6-2.1
	c-1.3-0.4-2.8-2.6-2.9-4c-0.1-1.1,1.6-3.1,2.9-3.5c2.9-1.1,6.1-1.7,9.2-2.1c3.3-0.3,6.7,0.1,10-0.1c8-0.5,16.8,2.7,23.5-5.4
	c0-6.8,0-14.3,0-21.5c-1.6-1-3-2-4.5-2.9c-1.5-0.8-3-1.9-4.5-2c-8-0.2-16,0-24-0.2c-2.6,0-5.4-0.2-7.8-1.2c-1.9-0.8-3.3-2.9-4.9-4.4
	c1.7-1.6,3.1-3.8,5.1-4.7c2.3-1,5.2-1.1,7.8-1.2c6.7-0.1,13.3,0,20-0.1c3.5,0,7.4,1,9.5-3.3c0.3-0.7,2-0.8,3.5-1.2
	c0-4.4,0.2-8.8-0.1-13.3c-0.3-4.7,1.9-6.3,6.2-6.3c9.2,0,18.3,0,27.5,0c0.6,0,1.3-0.2,2.5-0.4c0-3.2-0.1-6.3,0-9.4
	c0.2-8.3,5.7-13.7,14-13.7c27-0.1,54-0.1,81,0c8.7,0,14,5.4,14,14.1c0,62.7,0,125.3,0,188c0,8.7-5.3,13.9-14,14.1
	c-1.8,0-3.6,0-5.6,0c-0.2,2.1-0.4,3.7-0.6,5.6c-2.1,0.2-4.2,0.4-6.3,0.6c0.6,12.4,1.7,24.5,1.5,36.6c-0.2,12.6-0.6,25.4-3,37.7
	c-6.2,31.3-25.5,49.1-56.9,54.1c-7.4,1.2-13.8,3.5-20.1,7.6c-21.9,14.3-46.5,21.3-72.3,24.2c-26.6,3-52.9,1.6-78.4-7.5
	c-18.9-6.7-34.3-17.6-43.1-36.3c-0.9-1.9-3.7-2.9-6-4.5c-1.4-2.1-3.5-4.7-5-7.6c-1.2-2.3-2.2-4.9-2.2-7.5
	c-0.2-10.2-0.1-20.3-0.1-30.5c0-4.4,1.5-8.1,5.4-10c3.1-1.5,3.9-3.5,3.6-6.6c-0.2-3.1,0-6.3,0-9.9c5.1,0,10,0,15.4,0
	c0,1.9,0,3.7,0,5.5c-0.1,4.9-0.7,9.5,5.3,12.4c2.3,1.1,3.7,5.9,3.8,9.1c0.5,10,0.2,20,0.1,30c0,1.9-0.4,4.1-1.3,5.8
	c-1.7,3.2-5.4,5.4-4.8,9.9c0.1,0.4-1.5,1-2.6,1.6c3.4,7.2,9.1,12.2,15.6,16.4c17.1,11.2,35.9,17.3,56.2,18.7
	c31.4,2.1,61.8-2.1,90.6-15.5c1.5-0.7,3-1.5,5.7-2.8c-7.1-0.5-12.9-0.8-18.7-1.4c-17-1.6-33.8-4.4-48.7-13.2
	c-14.1-8.3-22-20.4-19.4-37.3c0.9-5.6,2.6-11.6,5.5-16.4c19.5-31.9,47.9-50.2,85.4-51.9c27.7-1.2,46.6,15.3,51.9,42.6
	c3.9,20.3-0.7,38.6-12.6,55.3C386,449.4,384.6,451.3,382.5,454.1z M345,457.3c4.8,0,9.7,0.1,14.5-0.1c1.5-0.1,3.4-0.6,4.5-1.5
	c17.1-14.9,25.6-33.6,24.7-56.4c-0.7-17.4-16.2-38.7-40.2-37.9c-33.8,1.2-58.8,17.9-76.2,46.4c-1.2,2-1.9,4.3-2.6,6.5
	c-3.6,11.5-0.7,21.2,9.1,28.1c4.6,3.2,9.7,5.8,15,7.7C310.4,456.1,327.7,457.2,345,457.3z"/>
</svg>
