<?xml version="1.0" encoding="utf-8"?>
<!-- Generator: Adobe Illustrator 19.0.0, SVG Export Plug-In . SVG Version: 6.00 Build 0)  -->
<svg version="1.1" id="Layer_1" xmlns="http://www.w3.org/2000/svg" xmlns:xlink="http://www.w3.org/1999/xlink" x="0px" y="0px"
	 viewBox="-49 141 512 512" style="enable-background:new -49 141 512 512;" xml:space="preserve">
<g>
	<g>
		<path d="M396.5,403.2v-88.2c0-19-13.3-34.9-31.3-38.7c-12.2-49.6-44.6-91.1-90.3-115c-0.1,0-0.2-0.1-0.3-0.1
			c-35.4-18.5-74.9-24.4-114.3-17.1c-17.6,3.2-34.4,9-50,17.2c-21.2,11-39.6,26-54.9,44.6c-16.9,20.5-28.8,44.5-35.1,69.8
			c-17.7,2.2-31.5,17.4-31.5,35.7v305.5c0,19.9,16.2,36.1,36.1,36.1h332c21.8,0,39.6-17.8,39.6-39.6v-74.4h6.5
			c12.2,0,22.2-9.9,22.2-22.2v-84.6C425.2,416.3,412.4,403.4,396.5,403.2z M379.6,314.9v22.8c-3-2.1-6.2-3.8-9.7-5
			c1-12.3,0.6-24.8-1-37.1C375.3,299.7,379.6,306.8,379.6,314.9z M317.8,217.7c16.6,20.5,28,45.1,33,72c0.2,1.3,0.4,2.5,0.6,3.8
			c-3.7,5.7-8.5,11.1-14.5,16c-7.1,5.9-13.1,13-17.9,21.2h-53.8c19.2-20.1,24.2-44.9,12.9-66.4c-5.5-10.4-10.8-22.2-8.1-30.2
			c1.5-4.5,5.8-8.4,13-11.8C294.4,216.9,306.3,215.4,317.8,217.7z M353.5,317.3c0,4.4-0.1,8.9-0.4,13.3h-13.4c2.5-3,5.1-5.7,8.1-8.1
			C349.8,320.8,351.7,319,353.5,317.3z M163.4,160.6c29.7-5.5,59.5-2.7,87.1,8.1c-18.4,7.1-38.1,10.8-57.9,10.8
			c-19.8,0-39.5-3.7-57.9-10.8C144,165.2,153.6,162.5,163.4,160.6z M114.4,178.3c24.2,11.9,51.2,18.1,78.3,18.1
			c27.1,0,54.1-6.3,78.2-18.1c11,6.1,21.2,13.4,30.3,21.7c-8.5,0.7-17,3-25.1,6.9c-11.6,5.5-18.8,12.6-21.8,21.7
			c-4.7,14,1.6,29.1,9.2,43.4c10.5,20-1.6,40.3-16.3,52.7c-3.2,2.7-10.3,4.9-13.8,5.9H92.2c1.9-3.3,4.3-6.8,6.9-10.6
			c8.1-11.9,18.1-26.6,22.1-46.5c3.9-19.4-5-37.8-25.8-53.4c-6.9-5.1-13.9-9.1-19.5-11.9C87.2,196.2,100,186.2,114.4,178.3z
			 M64.6,221.5c13.2,6.1,45.1,23.5,40,48.6c-3.3,16.5-11.9,29.2-19.5,40.3c-4.8,7.1-9.2,13.5-11.7,20.1h-34h-7.2
			C29.4,291.7,41,252.6,64.6,221.5z M16.7,294.1c-1.6,11.1-2.1,22.5-1.5,33.8c-5.6-3.3-9.5-9.5-9.5-16.5
			C5.7,303.8,10.2,297.2,16.7,294.1z M356.9,636.1h-332c-10.6,0-19.2-8.6-19.2-19.2v-275c5.6,3.5,12.1,5.5,19.1,5.5h332.1
			c12.5,0,22.7,10.2,22.7,22.7v74.4h-38.9c-26.1,0-47.3,21.2-47.3,47.3c0,26.1,21.2,47.3,47.3,47.3h38.9v74.4h0
			C379.6,625.9,369.4,636.1,356.9,636.1z M408.3,516.9c0,2.9-2.4,5.3-5.3,5.3h-62.3c-16.8,0-30.4-13.6-30.4-30.4
			s13.6-30.4,30.4-30.4H388v0h8.1c0,0,0,0,0,0c4.3,0,8.4-0.9,12.2-2.7L408.3,516.9L408.3,516.9z M404.7,440.9
			c-2.2,2.2-5.1,3.5-8.2,3.6v-24.4c6.6,0.2,11.8,5.6,11.8,12.2C408.3,435.5,407,438.6,404.7,440.9z"/>
	</g>
</g>
<g>
	<g>
		<path d="M345.1,490.1c-0.1-0.5-0.3-1.1-0.5-1.6c-0.2-0.5-0.5-1-0.8-1.5s-0.7-0.9-1-1.3c-1.6-1.6-3.8-2.5-6-2.5
			c-2.2,0-4.4,0.9-6,2.5c-0.4,0.4-0.7,0.8-1,1.3s-0.6,0.9-0.8,1.5c-0.2,0.5-0.4,1-0.5,1.6c-0.1,0.5-0.2,1.1-0.2,1.7s0.1,1.1,0.2,1.6
			c0.1,0.5,0.3,1.1,0.5,1.6c0.2,0.5,0.5,1,0.8,1.5c0.3,0.5,0.7,0.9,1,1.3c1.6,1.6,3.8,2.5,6,2.5c2.2,0,4.4-0.9,6-2.5
			c0.4-0.4,0.7-0.8,1-1.3s0.6-0.9,0.8-1.5c0.2-0.5,0.4-1,0.5-1.6c0.1-0.5,0.2-1.1,0.2-1.6C345.2,491.2,345.2,490.7,345.1,490.1z"/>
	</g>
</g>
<g>
	<path d="M87.7,395.1H76.8v-7.7h31.1v7.7H96.9V428h-9.2V395.1z"/>
	<path d="M112.8,388c2.9-0.5,7.3-0.8,12.2-0.8c6,0,10.2,0.9,13.1,3.2c2.4,1.9,3.7,4.7,3.7,8.5c0,5.2-3.7,8.7-7.2,10v0.2
		c2.8,1.1,4.4,3.8,5.4,7.6c1.3,4.6,2.5,9.9,3.3,11.4H134c-0.7-1.2-1.6-4.4-2.8-9.4c-1.1-5.1-2.8-6.4-6.6-6.5h-2.8V428h-9.1V388z
		 M121.9,405.4h3.6c4.6,0,7.3-2.3,7.3-5.8c0-3.7-2.5-5.6-6.7-5.7c-2.2,0-3.5,0.2-4.1,0.3V405.4z"/>
	<path d="M158.4,417.5l-2.9,10.4h-9.5l12.4-40.5h12L183,428h-9.9l-3.1-10.4H158.4z M168.7,410.7l-2.5-8.6c-0.7-2.4-1.4-5.4-2-7.8
		H164c-0.6,2.4-1.2,5.5-1.9,7.8l-2.4,8.6H168.7z"/>
	<path d="M194.4,428l-13-40.5h10l4.9,17.1c1.4,4.8,2.6,9.4,3.6,14.5h0.2c1-4.9,2.3-9.7,3.7-14.3l5.2-17.3h9.7L205.1,428H194.4z"/>
	<path d="M247.2,410.8h-14.9v9.6H249v7.5h-25.9v-40.5h25v7.5h-15.8v8.4h14.9V410.8z"/>
	<path d="M255.2,387.4h9.2v32.8h16.1v7.7h-25.3V387.4z"/>
</g>
<g>
	<g>
		<path d="M81.3,583l-9.6-40.5h9.8l3.1,16.7c0.9,4.9,1.7,10.1,2.4,14.2h0.1c0.7-4.4,1.6-9.3,2.6-14.2l3.4-16.6h9.7l3.2,17.1
			c0.9,4.7,1.6,9.1,2.2,13.6h0.1c0.6-4.5,1.5-9.3,2.3-14.1l3.3-16.6h9.3L112.9,583H103l-3.4-17.4c-0.8-4.1-1.4-7.9-1.9-12.5h-0.1
			c-0.7,4.6-1.4,8.4-2.3,12.5L91.3,583H81.3z"/>
		<path d="M134.3,572.5l-2.9,10.4h-9.5l12.4-40.5h12l12.6,40.5H149l-3.1-10.4H134.3z M144.6,565.7l-2.5-8.6c-0.7-2.4-1.4-5.4-2-7.8
			h-0.1c-0.6,2.4-1.2,5.5-1.9,7.8l-2.4,8.6H144.6z"/>
		<path d="M164.3,542.4h9.2v32.8h16.1v7.7h-25.3V542.4z"/>
		<path d="M195,542.4h9.2v32.8h16.1v7.7H195V542.4z"/>
		<path d="M249.8,565.8h-14.9v9.6h16.7v7.5h-25.9v-40.5h25v7.5h-15.8v8.4h14.9V565.8z"/>
		<path d="M265.9,550.1h-10.9v-7.7h31.1v7.7h-11.1V583h-9.2V550.1z"/>
	</g>
</g>
</svg>
