<?xml version="1.0" encoding="utf-8"?>
<!-- Generator: Adobe Illustrator 19.0.0, SVG Export Plug-In . SVG Version: 6.00 Build 0)  -->
<svg version="1.1" id="Layer_1" xmlns="http://www.w3.org/2000/svg" xmlns:xlink="http://www.w3.org/1999/xlink" x="0px" y="0px"
	 viewBox="248 -184.1 512 512" style="enable-background:new 248 -184.1 512 512;" xml:space="preserve">
<style type="text/css">
	.st0{fill-rule:evenodd;clip-rule:evenodd;fill:#BD2F32;}
	.st1{fill:#FFFFFF;}
</style>
<g id="XMLID_29_">
	<rect id="XMLID_28_" x="248" y="-184.1" class="st0" width="512" height="512"/>
	<g id="XMLID_30_">
		<rect id="XMLID_31_" x="320.3" y="255.1" class="st1" width="367.3" height="2.1"/>
	</g>
</g>
<g>
	<path class="st1" d="M504.3,214.4c-95.4,0.1-174.3-78.3-173.7-173.7c0.6-90.8,69.2-173.6,173.8-173.3
		c100.7,0.2,173.2,75.4,173.1,173.7C677.4,144.1,595.9,213,504.3,214.4z M503.4,196.4c86.2,0.1,156.1-69.1,156.2-154.9
		c0.1-86.7-68.6-156.2-154.5-156.4c-86.7-0.2-156.7,69.1-156.9,155.3C348,126.3,417.6,196.3,503.4,196.4z"/>
	<path class="st1" d="M521.1,14.6c-3.7,7.4-7.6,15.2-11.6,23c8,11.4,16.1,22.6,23.7,34c2.4,3.6,4.4,7.9,4.8,12.1
		c1.9,18.7,3.3,37.5,4.9,56.3c0.4,5.4-1.7,9.4-7.4,10.1c-6.2,0.8-9.2-3-10.2-8.6c-2.9-16.2-5.5-32.5-8.9-48.6
		c-1.1-4.9-3.8-9.9-7.1-13.6c-8.8-9.9-18.1-19.4-27.8-28.4c-7.8-7.1-10.5-15.9-6.4-24.6c8.4-18.1,17.6-35.8,28-52.8
		c6.2-10,24-4.5,28.8,8.5c2.8,7.7,5.3,15.6,8,23.3c2.5,7.4,6.9,12.6,14.7,15.1c5.8,1.9,11.8,4.1,16.9,7.5c2.7,1.8,3.5,6.2,5.1,9.6
		c-3.2,1.3-6.7,4.2-9.5,3.6c-9.2-1.9-19-3.4-26.9-7.9C532.8,29.3,527.7,21.4,521.1,14.6z"/>
	<path class="st1" d="M502.6-35.6c-8.7,14-18.5,27.3-25.6,41.9c-6.9,14.1-11,29.5-16.4,44.3c-0.7-0.2-1.5-0.5-2.3-0.6
		c0.6-3.2,1.5-6.5,1.6-9.7c0-2.2-1.2-4.5-1.9-6.7c-1.5,1.5-3.4,2.7-4.6,4.4c-2.2,3.2-3.6,6.7-5.9,9.8c-0.9,1.2-3.2,1.4-6.9,2.8
		c4.5-7.4,7.7-12.5,10.9-17.5C435,21.2,432.4,13.4,441.3-4.8c5.1-10.5,11.6-20.7,19.5-29.1C469.8-43.3,484.3-48.9,502.6-35.6z"/>
	<path class="st1" d="M478.1,54c5.6,5.9,11.4,11.7,16.6,18c1.4,1.7,1.5,5.3,0.9,7.8c-4.2,17-12.1,31.5-26.9,42
		c-7.9,5.6-14.8,12.5-22.2,18.8c-4.4,3.7-9.1,4.7-13.3,0.2c-4.2-4.6-2.7-9.2,1.5-13.1c0.2-0.2,0.4-0.4,0.6-0.6
		c23.5-18.2,39.8-40.6,39.4-72.4C475.8,54.3,477,54.1,478.1,54z"/>
	<path class="st1" d="M553.6-50.3c0.1,10.7-8,18.9-18.8,18.9c-10.3,0-18.4-7.9-18.7-18.2c-0.2-10.6,7.9-19.2,18.4-19.4
		C545.2-69.2,553.5-61,553.6-50.3z"/>
</g>
<g>
	<path d="M323.9,283.3h-9.7v-6.9H342v6.9h-9.9v29.3h-8.2V283.3z"/>
	<path d="M346.3,277c2.6-0.4,6.6-0.8,10.9-0.8c5.3,0,9.1,0.8,11.7,2.9c2.1,1.7,3.4,4.2,3.4,7.5c0,4.6-3.3,7.8-6.4,8.9v0.1
		c2.5,1,3.9,3.4,4.8,6.8c1.1,4.1,2.3,8.8,2.9,10.2h-8.4c-0.6-1.1-1.4-4-2.5-8.4c-1-4.5-2.5-5.8-5.8-5.8h-2.5v14.3h-8.2V277z
		 M354.4,292.5h3.2c4.1,0,6.5-2.1,6.5-5.2c0-3.4-2.3-5-6-5.1c-2,0-3.1,0.1-3.7,0.3C354.4,282.5,354.4,292.5,354.4,292.5z"/>
	<path d="M387,303.3l-2.6,9.2h-8.5l11-36.2h10.8l11.2,36.2h-8.8l-2.8-9.2H387z M396.2,297.2l-2.3-7.7c-0.6-2.1-1.3-4.8-1.9-7H392
		c-0.5,2.1-1.1,4.9-1.6,7l-2.1,7.7H396.2z"/>
	<path d="M419.2,312.6l-11.6-36.2h9l4.4,15.3c1.2,4.3,2.3,8.4,3.2,13h0.1c0.9-4.3,2.1-8.6,3.3-12.7l4.6-15.5h8.7l-12.2,36.2
		L419.2,312.6L419.2,312.6z"/>
	<path d="M466.2,297.3H453v8.6h14.9v6.7h-23.1v-36.2h22.3v6.7H453v7.5h13.3V297.3z"/>
	<path d="M473.4,276.5h8.2v29.3H496v6.9h-22.6V276.5z"/>
	<path d="M519.8,276.5v20.8c0,6.2,2.3,9.4,6.6,9.4c4.3,0,6.6-3,6.6-9.4v-20.8h8.2v20.3c0,11.2-5.6,16.4-15.1,16.4
		c-9.1,0-14.5-5.1-14.5-16.6v-20.1L519.8,276.5L519.8,276.5z"/>
	<path d="M555.3,283.3h-9.7v-6.9h27.8v6.9h-9.9v29.3h-8.2V283.3z"/>
	<path d="M585.9,276.5v36.2h-8.2v-36.2H585.9z"/>
	<path d="M592.9,276.5h8.2v29.3h14.4v6.9h-22.6V276.5z"/>
	<path d="M628.6,276.5v36.2h-8.2v-36.2H628.6z"/>
	<path d="M642.6,283.3h-9.7v-6.9h27.8v6.9h-9.9v29.3h-8.2L642.6,283.3L642.6,283.3z"/>
	<path d="M673.8,312.6v-14.8l-11.4-21.4h9.3l3.7,8.7c1.1,2.6,1.8,4.6,2.8,6.9h0.1c0.8-2.3,1.6-4.3,2.7-6.9l3.6-8.7h9.2l-11.9,21.1
		v15.1H673.8z"/>
</g>
<g>
	<path class="st1" d="M318.2,283.3h-9.7v-6.9h27.8v6.9h-9.9v29.3h-8.2V283.3z"/>
	<path class="st1" d="M340.6,277c2.6-0.4,6.6-0.8,10.9-0.8c5.3,0,9.1,0.8,11.7,2.9c2.1,1.7,3.4,4.2,3.4,7.5c0,4.6-3.3,7.8-6.4,8.9
		v0.1c2.5,1,3.9,3.4,4.8,6.8c1.1,4.1,2.3,8.8,2.9,10.2h-8.4c-0.6-1.1-1.4-4-2.5-8.4c-1-4.5-2.5-5.8-5.8-5.8h-2.5v14.3h-8.2V277z
		 M348.7,292.5h3.2c4.1,0,6.5-2.1,6.5-5.2c0-3.4-2.3-5-6-5.1c-2,0-3.1,0.1-3.7,0.3C348.7,282.5,348.7,292.5,348.7,292.5z"/>
	<path class="st1" d="M381.4,303.3l-2.6,9.2h-8.5l11-36.2h10.8l11.2,36.2h-8.8l-2.8-9.2H381.4z M390.6,297.2l-2.3-7.7
		c-0.6-2.1-1.3-4.8-1.9-7h-0.1c-0.5,2.1-1.1,4.9-1.6,7l-2.1,7.7H390.6z"/>
	<path class="st1" d="M413.5,312.6l-11.6-36.2h9l4.4,15.3c1.2,4.3,2.3,8.4,3.2,13h0.1c0.9-4.3,2.1-8.6,3.3-12.7l4.6-15.5h8.7
		L423,312.6L413.5,312.6L413.5,312.6z"/>
	<path class="st1" d="M460.6,297.3h-13.3v8.6h14.9v6.7h-23.1v-36.2h22.3v6.7h-14.1v7.5h13.3V297.3z"/>
	<path class="st1" d="M467.7,276.5h8.2v29.3h14.4v6.9h-22.6V276.5z"/>
	<path class="st1" d="M514.2,276.5v20.8c0,6.2,2.3,9.4,6.6,9.4c4.3,0,6.6-3,6.6-9.4v-20.8h8.2v20.3c0,11.2-5.6,16.4-15.1,16.4
		c-9.1,0-14.5-5.1-14.5-16.6v-20.1L514.2,276.5L514.2,276.5z"/>
	<path class="st1" d="M549.6,283.3h-9.7v-6.9h27.8v6.9h-9.9v29.3h-8.2V283.3z"/>
	<path class="st1" d="M580.2,276.5v36.2H572v-36.2H580.2z"/>
	<path class="st1" d="M587.3,276.5h8.2v29.3h14.4v6.9h-22.6V276.5z"/>
	<path class="st1" d="M622.9,276.5v36.2h-8.2v-36.2H622.9z"/>
	<path class="st1" d="M636.9,283.3h-9.7v-6.9H655v6.9h-9.9v29.3h-8.2L636.9,283.3L636.9,283.3z"/>
	<path class="st1" d="M668.1,312.6v-14.8l-11.4-21.4h9.3l3.7,8.7c1.1,2.6,1.8,4.6,2.8,6.9h0.1c0.8-2.3,1.6-4.3,2.7-6.9l3.6-8.7h9.2
		l-11.9,21.1v15.1H668.1z"/>
</g>
</svg>
