<?xml version="1.0" encoding="utf-8"?>
<!-- Generator: Adobe Illustrator 19.0.0, SVG Export Plug-In . SVG Version: 6.00 Build 0)  -->
<svg version="1.1" id="Layer_1" xmlns="http://www.w3.org/2000/svg" xmlns:xlink="http://www.w3.org/1999/xlink" x="0px" y="0px"
	 viewBox="248 -184.2 512 512" style="enable-background:new 248 -184.2 512 512;" xml:space="preserve">
<style type="text/css">
	.st0{fill-rule:evenodd;clip-rule:evenodd;fill:#BD2F32;}
	.st1{fill:#FFFFFF;}
</style>
<g id="XMLID_29_">
	<rect id="XMLID_28_" x="248" y="-184.2" class="st0" width="512" height="512"/>
	<g id="XMLID_30_">
		<rect id="XMLID_31_" x="320.3" y="255" class="st1" width="367.3" height="2.1"/>
	</g>
</g>
<path class="st1" d="M646.1-166.1c-27-0.1-54-0.1-81,0c-8.3,0-13.8,5.4-14,13.7c-0.1,3.1,0,6.2,0,9.4c-1.2,0.2-1.9,0.4-2.5,0.4
	c-9.2,0-18.3,0-27.5,0c-4.3,0-6.5,1.6-6.2,6.3c0.3,4.5,0.1,8.9,0.1,13.3c-1.5,0.4-3.2,0.5-3.5,1.2c-2.1,4.3-6,3.3-9.5,3.3h-0.1v-0.1
	h-32.8v6l0,0l0,0v5.9h32.8v-0.2c1.3,0,2.6,0,3.9,0.1c1.5,0.1,3,1.2,4.5,2c1.5,0.9,2.9,1.9,4.5,2.9c0,7.2,0,14.7,0,21.5
	c-3.8,4.6-8.3,5.6-12.9,5.6v-0.5h-32.8v12h13c0.2,0,0.4,0.1,0.6,0.1c4,0.6,8.2,0.2,12.3-0.1h6.9v-0.1c4.5,0.3,8.9,1.5,12.9,5.2
	c0,3.2,0,6.7,0,10.2c0,8.7,0,8.8,9,8.8c8.9,0,17.9,0,27.1,0c0,2.3,0,4,0,5.6c0,22.8,0,45.7,0,68.5c0,10,5.1,15.1,15.1,15.1
	c14.3,0,28.7,0,43,0c1.6,0,3.2,0.1,4.9,0.2c0.4,2.1,0.7,3.8,1,5.4c2.3,0.3,4.3,0.5,7.5,0.8c0.2,19.5,0.7,38.7,0.3,58
	c-0.2,10.8-2.9,21.4-8,31.2c-7.4,14-19.3,21.9-35.3,26.1c2.1-2.8,3.5-4.7,5-6.9c11.9-16.7,16.5-35,12.6-55.3
	c-5.3-27.3-24.2-43.8-51.9-42.6c-37.5,1.7-65.9,20-85.4,51.9c-2.9,4.8-4.6,10.8-5.5,16.4c-2.6,16.9,5.3,29,19.4,37.3
	c14.9,8.8,31.7,11.6,48.7,13.2c5.8,0.6,11.6,0.9,18.7,1.4c-2.7,1.3-4.2,2.1-5.7,2.8c-28.8,13.4-59.2,17.6-90.6,15.5
	c-20.3-1.4-39.1-7.5-56.2-18.7c-6.5-4.2-12.2-9.2-15.6-16.4c1.1-0.6,2.7-1.2,2.6-1.6c-0.6-4.5,3.1-6.7,4.8-9.9
	c0.9-1.7,1.3-3.9,1.3-5.8c0.1-10,0.4-20-0.1-30c-0.1-3.2-1.5-8-3.8-9.1c-6-2.9-5.4-7.5-5.3-12.4c0-1.8,0-3.6,0-5.5
	c-5.4,0-10.3,0-15.4,0c0,3.6-0.2,6.8,0,9.9c0.3,3.1-0.5,5.1-3.6,6.6c-3.9,1.9-5.4,5.6-5.4,10c0,10.2-0.1,20.3,0.1,30.5
	c0,2.6,1,5.2,2.2,7.5c1.5,2.9,3.6,5.5,5,7.6c2.3,1.6,5.1,2.6,6,4.5c8.8,18.7,24.2,29.6,43.1,36.3c25.5,9.1,51.8,10.5,78.4,7.5
	c25.8-2.9,50.4-9.9,72.3-24.2c6.3-4.1,12.7-6.4,20.1-7.6c31.4-5,50.7-22.8,56.9-54.1c2.4-12.3,2.8-25.1,3-37.7
	c0.2-12.1-0.9-24.2-1.5-36.6c2.1-0.2,4.2-0.4,6.3-0.6c0.2-1.9,0.4-3.5,0.6-5.6c2,0,3.8,0,5.6,0c8.7-0.2,14-5.4,14-14.1
	c0-62.7,0-125.3,0-188C660.1-160.7,654.8-166.1,646.1-166.1z M560.9,173.4c-1.1,0.9-3,1.4-4.5,1.5c-4.8,0.2-9.7,0.1-14.5,0.1
	c-17.3-0.1-34.6-1.2-51.2-7.2c-5.3-1.9-10.4-4.5-15-7.7c-9.8-6.9-12.7-16.6-9.1-28.1c0.7-2.2,1.4-4.5,2.6-6.5
	c17.4-28.5,42.4-45.2,76.2-46.4c24-0.8,39.5,20.5,40.2,37.9C586.5,139.8,578,158.5,560.9,173.4z"/>
<g>
	<path d="M321.6,279.6h-8.8v-6.2H338v6.2h-9v26.6h-7.5v-26.6H321.6z"/>
	<path d="M342,273.8c2.4-0.4,5.9-0.7,9.9-0.7c4.9,0,8.3,0.7,10.6,2.6c2,1.6,3,3.9,3,6.9c0,4.2-3,7.1-5.8,8.1v0.1
		c2.3,0.9,3.6,3.1,4.4,6.1c1,3.7,2,8,2.7,9.3h-7.6c-0.5-1-1.3-3.6-2.3-7.7c-0.9-4.1-2.3-5.2-5.3-5.3h-2.2v12.9H342V273.8z
		 M349.3,287.9h2.9c3.7,0,5.9-1.9,5.9-4.7c0-3-2-4.5-5.5-4.6c-1.8,0-2.8,0.1-3.4,0.2L349.3,287.9L349.3,287.9z"/>
	<path d="M379,297.8l-2.3,8.4H369l10-32.9h9.8l10.2,32.9h-8l-2.5-8.4H379z M387.3,292.2l-2-7c-0.6-2-1.2-4.4-1.7-6.3h-0.1
		c-0.5,2-1,4.4-1.5,6.3l-1.9,7H387.3z"/>
	<path d="M408.2,306.2l-10.5-32.9h8.1l4,13.9c1.1,3.9,2.1,7.7,2.9,11.8h0.1c0.8-3.9,1.9-7.8,3-11.6l4.2-14h7.9l-11.1,32.9
		L408.2,306.2L408.2,306.2z"/>
	<path d="M451,292.3h-12.1v7.8h13.5v6.1h-21v-32.9h20.3v6.1h-12.8v6.8H451V292.3z"/>
	<path d="M457.5,273.4h7.5V300h13v6.2h-20.5V273.4z"/>
	<path d="M499.9,297.8l-2.3,8.4h-7.7l10-32.9h9.8l10.2,32.9h-8l-2.5-8.4H499.9z M508.2,292.2l-2-7c-0.6-2-1.2-4.4-1.7-6.3h-0.1
		c-0.5,2-1,4.4-1.5,6.3l-1.9,7H508.2z"/>
	<path d="M524.2,273.8c2.7-0.4,6.3-0.7,10-0.7c6.2,0,10.3,1.1,13.5,3.5c3.4,2.5,5.6,6.6,5.6,12.4c0,6.3-2.3,10.6-5.5,13.3
		c-3.5,2.9-8.7,4.2-15.2,4.2c-3.9,0-6.6-0.2-8.4-0.5V273.8L524.2,273.8z M531.7,300.6c0.6,0.1,1.7,0.1,2.6,0.1
		c6.7,0,11.1-3.7,11.1-11.5c0-6.8-3.9-10.4-10.3-10.4c-1.7,0-2.7,0.1-3.4,0.3L531.7,300.6L531.7,300.6z"/>
	<path d="M565,297.8l-2.3,8.4H555l10-32.9h9.8l10.2,32.9h-8l-2.5-8.4H565z M573.3,292.2l-2-7c-0.6-2-1.2-4.4-1.7-6.3h-0.1
		c-0.5,2-1,4.4-1.5,6.3l-2,7H573.3z"/>
	<path d="M589.3,273.8c2.3-0.4,5.5-0.7,10-0.7c4.6,0,7.8,0.9,10,2.6c2.1,1.7,3.5,4.4,3.5,7.6s-1.1,5.9-3,7.8
		c-2.5,2.4-6.3,3.5-10.7,3.5c-1,0-1.9,0-2.5-0.1v11.7h-7.4v-32.4H589.3z M596.7,288.7c0.6,0.1,1.4,0.2,2.5,0.2c3.9,0,6.4-2,6.4-5.4
		c0-3-2.1-4.8-5.8-4.8c-1.5,0-2.5,0.1-3.1,0.3L596.7,288.7L596.7,288.7z"/>
	<path d="M624,279.6h-8.8v-6.2h25.3v6.2h-9v26.6H624V279.6z"/>
	<path d="M663.9,292.3h-12.1v7.8h13.5v6.1h-21v-32.9h20.3v6.1h-12.8v6.8h12.1V292.3z"/>
	<path d="M670.4,273.8c2.4-0.4,5.9-0.7,9.9-0.7c4.9,0,8.3,0.7,10.6,2.6c2,1.6,3,3.9,3,6.9c0,4.2-3,7.1-5.8,8.1v0.1
		c2.3,0.9,3.6,3.1,4.4,6.1c1,3.7,2,8,2.7,9.3h-7.6c-0.5-1-1.3-3.6-2.3-7.7c-0.9-4.1-2.3-5.2-5.3-5.3h-2.2v12.9h-7.4L670.4,273.8
		L670.4,273.8z M677.8,287.9h2.9c3.7,0,5.9-1.9,5.9-4.7c0-3-2-4.5-5.5-4.6c-1.8,0-2.8,0.1-3.4,0.2L677.8,287.9L677.8,287.9z"/>
</g>
<g>
	<path class="st1" d="M315.9,279.6h-8.8v-6.2h25.2v6.2h-9v26.6h-7.5v-26.6H315.9z"/>
	<path class="st1" d="M336.3,273.8c2.4-0.4,5.9-0.7,9.9-0.7c4.9,0,8.3,0.7,10.6,2.6c2,1.6,3,3.9,3,6.9c0,4.2-3,7.1-5.8,8.1v0.1
		c2.3,0.9,3.6,3.1,4.4,6.1c1,3.7,2,8,2.7,9.3h-7.6c-0.5-1-1.3-3.6-2.3-7.7c-0.9-4.1-2.3-5.2-5.3-5.3h-2.2v12.9h-7.4V273.8z
		 M343.6,287.9h2.9c3.7,0,5.9-1.9,5.9-4.7c0-3-2-4.5-5.5-4.6c-1.8,0-2.8,0.1-3.4,0.2v9.1H343.6z"/>
	<path class="st1" d="M373.3,297.8l-2.3,8.4h-7.7l10-32.9h9.8l10.2,32.9h-8l-2.5-8.4H373.3z M381.6,292.2l-2-7
		c-0.6-2-1.2-4.4-1.7-6.3h-0.1c-0.5,2-1,4.4-1.5,6.3l-1.9,7H381.6z"/>
	<path class="st1" d="M402.5,306.2L392,273.3h8.1l4,13.9c1.1,3.9,2.1,7.7,2.9,11.8h0.1c0.8-3.9,1.9-7.8,3-11.6l4.2-14h7.9
		l-11.1,32.9L402.5,306.2L402.5,306.2z"/>
	<path class="st1" d="M445.3,292.3h-12.1v7.8h13.5v6.1h-21v-32.9H446v6.1h-12.8v6.8h12.1V292.3z"/>
	<path class="st1" d="M451.8,273.4h7.5V300h13v6.2h-20.5V273.4z"/>
	<path class="st1" d="M494.2,297.8l-2.3,8.4h-7.7l10-32.9h9.8l10.2,32.9h-8l-2.5-8.4H494.2z M502.5,292.2l-2-7
		c-0.6-2-1.2-4.4-1.7-6.3h-0.1c-0.5,2-1,4.4-1.5,6.3l-1.9,7H502.5z"/>
	<path class="st1" d="M518.5,273.8c2.7-0.4,6.3-0.7,10-0.7c6.2,0,10.3,1.1,13.5,3.5c3.4,2.5,5.6,6.6,5.6,12.4
		c0,6.3-2.3,10.6-5.5,13.3c-3.5,2.9-8.7,4.2-15.2,4.2c-3.9,0-6.6-0.2-8.4-0.5L518.5,273.8L518.5,273.8z M526,300.6
		c0.6,0.1,1.7,0.1,2.6,0.1c6.7,0,11.1-3.7,11.1-11.5c0-6.8-3.9-10.4-10.3-10.4c-1.7,0-2.7,0.1-3.4,0.3V300.6L526,300.6z"/>
	<path class="st1" d="M559.3,297.8l-2.3,8.4h-7.7l10-32.9h9.8l10.2,32.9h-8l-2.5-8.4H559.3z M567.6,292.2l-2-7
		c-0.6-2-1.2-4.4-1.7-6.3h-0.1c-0.5,2-1,4.4-1.5,6.3l-2,7H567.6z"/>
	<path class="st1" d="M583.6,273.8c2.3-0.4,5.5-0.7,10-0.7c4.6,0,7.8,0.9,10,2.6c2.1,1.7,3.5,4.4,3.5,7.6s-1.1,5.9-3,7.8
		c-2.5,2.4-6.3,3.5-10.7,3.5c-1,0-1.9,0-2.5-0.1v11.7h-7.4v-32.4H583.6z M591,288.7c0.6,0.1,1.4,0.2,2.5,0.2c3.9,0,6.4-2,6.4-5.4
		c0-3-2.1-4.8-5.8-4.8c-1.5,0-2.5,0.1-3.1,0.3L591,288.7L591,288.7z"/>
	<path class="st1" d="M618.3,279.6h-8.8v-6.2h25.3v6.2h-9v26.6h-7.5V279.6z"/>
	<path class="st1" d="M658.2,292.3h-12.1v7.8h13.5v6.1h-21v-32.9h20.3v6.1h-12.8v6.8h12.1V292.3z"/>
	<path class="st1" d="M664.7,273.8c2.4-0.4,5.9-0.7,9.9-0.7c4.9,0,8.3,0.7,10.6,2.6c2,1.6,3,3.9,3,6.9c0,4.2-3,7.1-5.8,8.1v0.1
		c2.3,0.9,3.6,3.1,4.4,6.1c1,3.7,2,8,2.7,9.3h-7.6c-0.5-1-1.3-3.6-2.3-7.7c-0.9-4.1-2.3-5.2-5.3-5.3h-2.2v12.9h-7.4L664.7,273.8
		L664.7,273.8z M672.1,287.9h2.9c3.7,0,5.9-1.9,5.9-4.7c0-3-2-4.5-5.5-4.6c-1.8,0-2.8,0.1-3.4,0.2L672.1,287.9L672.1,287.9z"/>
</g>
</svg>
