<?xml version="1.0" encoding="utf-8"?>
<!-- Generator: Adobe Illustrator 19.0.0, SVG Export Plug-In . SVG Version: 6.00 Build 0)  -->
<svg version="1.1" id="Layer_1" xmlns="http://www.w3.org/2000/svg" xmlns:xlink="http://www.w3.org/1999/xlink" x="0px" y="0px"
	 viewBox="148 -184 512 512" style="enable-background:new 148 -184 512 512;" xml:space="preserve">
<style type="text/css">
	.st0{fill-rule:evenodd;clip-rule:evenodd;fill:#BD2F32;}
	.st1{fill:#FFFFFF;}
</style>
<g id="XMLID_29_">
	<rect id="XMLID_28_" x="148" y="-184" class="st0" width="512" height="512"/>
	<g id="XMLID_30_">
		<rect id="XMLID_31_" x="220.3" y="255.2" class="st1" width="367.3" height="2.1"/>
	</g>
</g>
<g>
	<g>
		<path class="st1" d="M523.5,41.1v-55.6c0-12-8.4-22-19.7-24.4c-7.7-31.3-28.1-57.4-56.9-72.5c-0.1,0-0.1-0.1-0.2-0.1
			c-22.3-11.7-47.2-15.4-72.1-10.8c-11.1,2-21.7,5.7-31.5,10.8c-13.4,6.9-25,16.4-34.6,28.1c-10.7,12.9-18.2,28.1-22.1,44
			c-11.2,1.4-19.9,11-19.9,22.5v192.6c0,12.5,10.2,22.8,22.8,22.8h209.3c13.7,0,25-11.2,25-25v-46.9h4.1c7.7,0,14-6.2,14-14V59.4
			C541.6,49.4,533.5,41.3,523.5,41.1z M512.8-14.5v14.4c-1.9-1.3-3.9-2.4-6.1-3.2c0.6-7.8,0.4-15.6-0.6-23.4
			C510.1-24.1,512.8-19.6,512.8-14.5z M473.9-75.8c10.5,12.9,17.7,28.4,20.8,45.4c0.1,0.8,0.3,1.6,0.4,2.4c-2.3,3.6-5.4,7-9.1,10.1
			c-4.5,3.7-8.3,8.2-11.3,13.4h-33.9c12.1-12.7,15.3-28.3,8.1-41.9c-3.5-6.6-6.8-14-5.1-19c0.9-2.8,3.7-5.3,8.2-7.4
			C459.1-76.3,466.6-77.3,473.9-75.8z M496.4-13c0,2.8-0.1,5.6-0.3,8.4h-8.4c1.6-1.9,3.2-3.6,5.1-5.1C494-10.8,495.2-11.9,496.4-13z
			 M376.5-111.8c18.7-3.5,37.5-1.7,54.9,5.1c-11.6,4.5-24,6.8-36.5,6.8s-24.9-2.3-36.5-6.8C364.3-108.9,370.3-110.6,376.5-111.8z
			 M345.6-100.6c15.3,7.5,32.3,11.4,49.4,11.4c17.1,0,34.1-4,49.3-11.4c6.9,3.8,13.4,8.4,19.1,13.7c-5.4,0.4-10.7,1.9-15.8,4.3
			c-7.3,3.5-11.9,7.9-13.7,13.7c-3,8.8,1,18.3,5.8,27.4c6.6,12.6-1,25.4-10.3,33.2c-2,1.7-6.5,3.1-8.7,3.7h-89
			c1.2-2.1,2.7-4.3,4.3-6.7c5.1-7.5,11.4-16.8,13.9-29.3c2.5-12.2-3.2-23.8-16.3-33.7c-4.3-3.2-8.8-5.7-12.3-7.5
			C328.5-89.4,336.5-95.7,345.6-100.6z M314.2-73.4c8.3,3.8,28.4,14.8,25.2,30.6c-2.1,10.4-7.5,18.4-12.3,25.4
			c-3,4.5-5.8,8.5-7.4,12.7h-21.4h-4.5C292-29.2,299.3-53.8,314.2-73.4z M284-27.6c-1,7-1.3,14.2-0.9,21.3c-3.5-2.1-6-6-6-10.4
			C277.1-21.5,279.9-25.7,284-27.6z M498.5,188H289.2c-6.7,0-12.1-5.4-12.1-12.1V2.5c3.5,2.2,7.6,3.5,12,3.5h209.4
			c7.9,0,14.3,6.4,14.3,14.3v46.9h-24.5c-16.5,0-29.8,13.4-29.8,29.8s13.4,29.8,29.8,29.8h24.5v46.9l0,0
			C512.8,181.5,506.4,188,498.5,188z M530.9,112.8c0,1.8-1.5,3.3-3.3,3.3h-39.3c-10.6,0-19.2-8.6-19.2-19.2s8.6-19.2,19.2-19.2h29.8
			l0,0h5.1l0,0c2.7,0,5.3-0.6,7.7-1.7V112.8L530.9,112.8z M528.6,64.9c-1.4,1.4-3.2,2.2-5.2,2.3V51.8c4.2,0.1,7.4,3.5,7.4,7.7
			C530.9,61.5,530.1,63.5,528.6,64.9z"/>
	</g>
</g>
<g>
	<g>
		<path class="st1" d="M491.1,95.9c-0.1-0.3-0.2-0.7-0.3-1s-0.3-0.6-0.5-0.9s-0.4-0.6-0.6-0.8c-1-1-2.4-1.6-3.8-1.6
			s-2.8,0.6-3.8,1.6c-0.3,0.3-0.4,0.5-0.6,0.8s-0.4,0.6-0.5,0.9c-0.1,0.3-0.3,0.6-0.3,1c-0.1,0.3-0.1,0.7-0.1,1.1
			c0,0.4,0.1,0.7,0.1,1s0.2,0.7,0.3,1s0.3,0.6,0.5,0.9c0.2,0.3,0.4,0.6,0.6,0.8c1,1,2.4,1.6,3.8,1.6s2.8-0.6,3.8-1.6
			c0.3-0.3,0.4-0.5,0.6-0.8c0.2-0.3,0.4-0.6,0.5-0.9c0.1-0.3,0.3-0.6,0.3-1c0.1-0.3,0.1-0.7,0.1-1C491.1,96.6,491.1,96.3,491.1,95.9
			z"/>
	</g>
</g>
<g>
	<path d="M261.9,282.2h-7.6v-5.3H276v5.3h-7.7V305h-6.4V282.2z"/>
	<path d="M279.4,277.2c2-0.3,5.1-0.6,8.5-0.6c4.2,0,7.1,0.6,9.1,2.2c1.7,1.3,2.6,3.3,2.6,5.9c0,3.6-2.5,6.1-5,6.9v0.1
		c2,0.8,3.1,2.7,3.8,5.3c0.9,3.2,1.8,6.9,2.3,7.9h-6.5c-0.5-0.8-1.1-3.1-2-6.6c-0.8-3.5-2-4.5-4.6-4.5h-1.9V305h-6.3V277.2z
		 M285.7,289.4h2.5c3.2,0,5.1-1.6,5.1-4.1c0-2.6-1.8-3.9-4.7-3.9c-1.5,0-2.4,0.1-2.9,0.2V289.4z"/>
	<path d="M311.1,297.8l-2,7.2h-6.6l8.6-28.2h8.4l8.7,28.2h-6.9l-2.2-7.2H311.1z M318.2,293l-1.8-6c-0.5-1.7-1-3.8-1.4-5.4H315
		c-0.4,1.7-0.8,3.8-1.3,5.4l-1.7,6H318.2z"/>
	<path d="M336.1,305l-9-28.2h7l3.4,11.9c1,3.3,1.8,6.6,2.5,10.1h0.1c0.7-3.4,1.6-6.7,2.5-9.9l3.6-12h6.8l-9.5,28.2H336.1z"/>
	<path d="M372.8,293.1h-10.4v6.7H374v5.2h-18v-28.2h17.4v5.2h-11v5.8h10.4V293.1z"/>
	<path d="M378.4,276.9h6.4v22.8H396v5.3h-17.6V276.9z"/>
	<path d="M411.2,305l-6.7-28.2h6.8l2.1,11.6c0.6,3.4,1.2,7,1.7,9.9h0.1c0.5-3.1,1.1-6.4,1.8-9.9l2.4-11.5h6.8l2.3,11.9
		c0.6,3.3,1.1,6.3,1.5,9.4h0.1c0.4-3.1,1-6.4,1.6-9.8l2.3-11.5h6.5l-7.3,28.2h-6.9l-2.4-12.1c-0.5-2.8-1-5.5-1.3-8.7h-0.1
		c-0.5,3.2-1,5.9-1.6,8.7l-2.7,12.1H411.2z"/>
	<path d="M448,297.8l-2,7.2h-6.6l8.6-28.2h8.4l8.7,28.2h-6.9l-2.2-7.2H448z M455.2,293l-1.8-6c-0.5-1.7-1-3.8-1.4-5.4h-0.1
		c-0.4,1.7-0.8,3.8-1.3,5.4l-1.7,6H455.2z"/>
	<path d="M468.9,276.9h6.4v22.8h11.2v5.3h-17.6V276.9z"/>
	<path d="M490.3,276.9h6.4v22.8h11.2v5.3h-17.6V276.9z"/>
	<path d="M528.4,293.1H518v6.7h11.6v5.2h-18v-28.2H529v5.2h-11v5.8h10.4V293.1z"/>
	<path d="M539.6,282.2H532v-5.3h21.6v5.3H546V305h-6.4V282.2z"/>
</g>
<g>
	<path class="st1" d="M256.2,282.2h-7.6v-5.3h21.6v5.3h-7.7V305h-6.4V282.2z"/>
	<path class="st1" d="M273.7,277.2c2-0.3,5.1-0.6,8.5-0.6c4.2,0,7.1,0.6,9.1,2.2c1.7,1.3,2.6,3.3,2.6,5.9c0,3.6-2.5,6.1-5,6.9v0.1
		c2,0.8,3.1,2.7,3.8,5.3c0.9,3.2,1.8,6.9,2.3,7.9h-6.5c-0.5-0.8-1.1-3.1-2-6.6c-0.8-3.5-2-4.5-4.6-4.5H280V305h-6.3V277.2z
		 M280,289.4h2.5c3.2,0,5.1-1.6,5.1-4.1c0-2.6-1.8-3.9-4.7-3.9c-1.5,0-2.4,0.1-2.9,0.2V289.4z"/>
	<path class="st1" d="M305.4,297.8l-2,7.2h-6.6l8.6-28.2h8.4l8.7,28.2h-6.9l-2.2-7.2H305.4z M312.6,293l-1.8-6
		c-0.5-1.7-1-3.8-1.4-5.4h-0.1c-0.4,1.7-0.8,3.8-1.3,5.4l-1.7,6H312.6z"/>
	<path class="st1" d="M330.5,305l-9-28.2h7l3.4,11.9c1,3.3,1.8,6.6,2.5,10.1h0.1c0.7-3.4,1.6-6.7,2.5-9.9l3.6-12h6.8l-9.5,28.2
		H330.5z"/>
	<path class="st1" d="M367.2,293.1h-10.4v6.7h11.6v5.2h-18v-28.2h17.4v5.2h-11v5.8h10.4V293.1z"/>
	<path class="st1" d="M372.7,276.9h6.4v22.8h11.2v5.3h-17.6V276.9z"/>
	<path class="st1" d="M405.5,305l-6.7-28.2h6.8l2.1,11.6c0.6,3.4,1.2,7,1.7,9.9h0.1c0.5-3.1,1.1-6.4,1.8-9.9l2.4-11.5h6.8l2.3,11.9
		c0.6,3.3,1.1,6.3,1.5,9.4h0.1c0.4-3.1,1-6.4,1.6-9.8l2.3-11.5h6.5l-7.3,28.2h-6.9l-2.4-12.1c-0.5-2.8-1-5.5-1.3-8.7h-0.1
		c-0.5,3.2-1,5.9-1.6,8.7l-2.7,12.1H405.5z"/>
	<path class="st1" d="M442.4,297.8l-2,7.2h-6.6l8.6-28.2h8.4l8.7,28.2h-6.9l-2.2-7.2H442.4z M449.5,293l-1.8-6
		c-0.5-1.7-1-3.8-1.4-5.4h-0.1c-0.4,1.7-0.8,3.8-1.3,5.4l-1.7,6H449.5z"/>
	<path class="st1" d="M463.2,276.9h6.4v22.8h11.2v5.3h-17.6V276.9z"/>
	<path class="st1" d="M484.6,276.9h6.4v22.8h11.2v5.3h-17.6V276.9z"/>
	<path class="st1" d="M522.7,293.1h-10.4v6.7h11.6v5.2h-18v-28.2h17.4v5.2h-11v5.8h10.4V293.1z"/>
	<path class="st1" d="M533.9,282.2h-7.6v-5.3H548v5.3h-7.7V305h-6.4V282.2z"/>
</g>
</svg>
