<?xml version="1.0" encoding="utf-8"?>
<!-- Generator: Adobe Illustrator 19.0.0, SVG Export Plug-In . SVG Version: 6.00 Build 0)  -->
<svg version="1.1" id="Layer_1" xmlns="http://www.w3.org/2000/svg" xmlns:xlink="http://www.w3.org/1999/xlink" x="0px" y="0px"
	 viewBox="0 0 512 512" style="enable-background:new 0 0 512 512;" xml:space="preserve">
<style type="text/css">
	.st0{fill:#020202;}
	.st1{fill:#010101;}
</style>
<g>
	<g id="XMLID_1004_">
		<path id="XMLID_1043_" class="st0" d="M415.6,246.9h-36.5v-82.1c0-25.1-20.4-45.6-45.6-45.6h-54.7V18.9h9.1c5,0,9.1-4.1,9.1-9.1
			s-4.1-9.1-9.1-9.1H178.5c-5,0-9.1,4.1-9.1,9.1s4.1,9.1,9.1,9.1h9.1v100.3h-54.7c-25.1,0-45.6,20.5-45.6,45.6v291.8
			c0,25.1,20.4,45.6,45.6,45.6h27.4c0,5,4.1,9.1,9.1,9.1s9.1-4.1,9.1-9.1h100.3c0,5,4.1,9.1,9.1,9.1s9.1-4.1,9.1-9.1h36.5
			c25.1,0,45.6-20.5,45.6-45.6V347.2h36.5c5,0,9.1-4.1,9.1-9.1V256C424.7,251,420.6,246.9,415.6,246.9z M205.8,18.9h54.7v100.3
			h-54.7V18.9L205.8,18.9L205.8,18.9z M360.9,256v82.1v118.5c0,15.1-12.3,27.4-27.3,27.4H132.9l0,0c-15.1,0-27.3-12.3-27.3-27.4
			V164.8c0-15.1,12.3-27.4,27.3-27.4h200.6c15.1,0,27.3,12.3,27.3,27.4V256H360.9z M406.5,329h-27.4v-63.8h27.4V329z"/>
		<g id="XMLID_1028_">
			<path id="XMLID_1010_" class="st0" d="M297.1,283.4H169.3c-20.1,0-36.4,16.4-36.4,36.5v100.3c0,20.1,16.3,36.5,36.4,36.5
				c5,0,9.1-4.1,9.1-9.1s-4.1-9.1-9.1-9.1c-10,0-18.2-8.2-18.2-18.2V319.8c0-10.1,8.2-18.2,18.2-18.2h127.8c10,0,18.2,8.2,18.2,18.2
				v100.3c0,10.1-8.2,18.2-18.2,18.2c-5,0-9.1,4.1-9.1,9.1s4.1,9.1,9.1,9.1c20.1,0,36.4-16.4,36.4-36.5V319.8
				C333.5,299.7,317.2,283.4,297.1,283.4z"/>
			<path id="XMLID_1009_" class="st0" d="M278.8,310.7h-91.2c-5,0-9.1,4.1-9.1,9.1s4.1,9.1,9.1,9.1h91.2c5,0,9.1-4.1,9.1-9.1
				S283.8,310.7,278.8,310.7z"/>
		</g>
	</g>
	<g id="XMLID_15_">
		<path id="XMLID_16_" class="st1" d="M125.6,206.7H119V202h18.9v4.7h-6.7v19.9h-5.6L125.6,206.7L125.6,206.7z"/>
		<path id="XMLID_18_" class="st1" d="M140.8,202.4c1.8-0.3,4.4-0.5,7.4-0.5c3.6,0,6.2,0.5,7.9,1.9c1.5,1.2,2.3,2.9,2.3,5.1
			c0,3.1-2.2,5.3-4.3,6v0.1c1.7,0.7,2.7,2.3,3.3,4.6c0.8,2.8,1.5,6,2,6.9h-5.7c-0.4-0.7-1-2.7-1.7-5.7c-0.7-3.1-1.7-3.9-4-3.9h-1.7
			v9.7h-5.5V202.4z M146.3,213h2.2c2.8,0,4.4-1.4,4.4-3.5c0-2.3-1.5-3.4-4.1-3.4c-1.3,0-2.1,0.1-2.5,0.2L146.3,213L146.3,213z"/>
		<path id="XMLID_21_" class="st1" d="M184.8,214.1c0,8.1-4.9,12.9-12.1,12.9c-7.3,0-11.6-5.5-11.6-12.5c0-7.4,4.7-12.9,12-12.9
			C180.7,201.7,184.8,207.3,184.8,214.1z M167,214.4c0,4.8,2.3,8.2,6,8.2c3.8,0,5.9-3.6,5.9-8.3c0-4.4-2.1-8.2-5.9-8.2
			C169.2,206.1,167,209.7,167,214.4z"/>
		<path id="XMLID_24_" class="st1" d="M188.5,202.1h5.6V222h9.8v4.7h-15.3v-24.6H188.5z"/>
		<path id="XMLID_26_" class="st1" d="M207.1,202.1h5.6V222h9.8v4.7h-15.3v-24.6H207.1z"/>
		<path id="XMLID_28_" class="st1" d="M240.3,216.2h-9v5.8h10.1v4.6h-15.7V202h15.2v4.6h-9.6v5.1h9V216.2z"/>
		<path id="XMLID_30_" class="st1" d="M250.9,226.6v-10.1l-7.8-14.5h6.3l2.5,5.9c0.8,1.8,1.3,3.1,1.9,4.7h0.1c0.5-1.5,1.1-3,1.9-4.7
			l2.5-5.9h6.2l-8.1,14.3v10.2h-5.5V226.6z"/>
		<path id="XMLID_32_" class="st1" d="M274.5,202.4c1.5-0.3,4.4-0.5,7.2-0.5c3.4,0,5.5,0.3,7.3,1.4c1.7,0.9,3,2.6,3,4.8
			s-1.3,4.2-4,5.2v0.1c2.8,0.8,4.9,2.9,4.9,6c0,2.2-1,4-2.6,5.2c-1.8,1.4-4.8,2.2-9.7,2.2c-2.7,0-4.8-0.2-6-0.4L274.5,202.4
			L274.5,202.4z M280,211.8h1.8c2.9,0,4.5-1.2,4.5-3c0-1.9-1.4-2.8-3.9-2.8c-1.2,0-1.9,0.1-2.4,0.1V211.8z M280,222.7
			c0.5,0.1,1.2,0.1,2.1,0.1c2.5,0,4.7-1,4.7-3.5s-2.2-3.5-5-3.5H280V222.7z"/>
		<path id="XMLID_36_" class="st1" d="M302.1,220.3l-1.7,6.3h-5.8l7.5-24.6h7.3l7.6,24.6h-6l-1.9-6.3H302.1z M308.4,216.2l-1.5-5.2
			c-0.4-1.5-0.9-3.3-1.2-4.7h-0.1c-0.4,1.5-0.7,3.3-1.1,4.7l-1.5,5.2H308.4z"/>
		<path id="XMLID_39_" class="st1" d="M339.9,225.5c-1.7,0.6-5,1.4-8.2,1.4c-4.5,0-7.7-1.1-10-3.3c-2.3-2.1-3.5-5.3-3.5-8.9
			c0-8.2,6-12.8,14-12.8c3.2,0,5.6,0.6,6.8,1.2l-1.2,4.4c-1.3-0.6-3-1.1-5.7-1.1c-4.6,0-8.1,2.6-8.1,7.9c0,5.1,3.2,8.1,7.7,8.1
			c1.3,0,2.3-0.1,2.7-0.4v-5.1h-3.8v-4.3h9.1v12.9H339.9z"/>
	</g>
</g>
</svg>
