<?xml version="1.0" encoding="utf-8"?>
<!-- Generator: Adobe Illustrator 19.0.0, SVG Export Plug-In . SVG Version: 6.00 Build 0)  -->
<svg version="1.1" id="Layer_1" xmlns="http://www.w3.org/2000/svg" xmlns:xlink="http://www.w3.org/1999/xlink" x="0px" y="0px"
	 viewBox="248 -184.1 512 512" style="enable-background:new 248 -184.1 512 512;" xml:space="preserve">
<style type="text/css">
	.st0{fill-rule:evenodd;clip-rule:evenodd;fill:#BD2F32;}
	.st1{fill:#FFFFFF;}
</style>
<g id="XMLID_29_">
	<rect id="XMLID_2_" x="248" y="-184.1" class="st0" width="512" height="512"/>
	<g id="XMLID_1_">
		<rect id="XMLID_31_" x="320.3" y="255.1" class="st1" width="367.3" height="2.1"/>
	</g>
</g>
<g id="XMLID_1004_">
	<path id="XMLID_1043_" class="st1" d="M629.3,28.7h-28.7v-64.4c0-19.7-16-35.8-35.8-35.8h-42.9v-78.7h7.1c3.9,0,7.1-3.2,7.1-7.1
		s-3.2-7.1-7.1-7.1h-85.9c-3.9,0-7.1,3.2-7.1,7.1s3.2,7.1,7.1,7.1h7.1v78.7h-42.9c-19.7,0-35.8,16.1-35.8,35.8v229.1
		c0,19.7,16,35.8,35.8,35.8h21.5c0,3.9,3.2,7.1,7.1,7.1c3.9,0,7.1-3.2,7.1-7.1h78.7c0,3.9,3.2,7.1,7.1,7.1s7.1-3.2,7.1-7.1h28.7
		c19.7,0,35.8-16.1,35.8-35.8v-85.9h28.7c3.9,0,7.1-3.2,7.1-7.1V35.8C636.4,31.9,633.2,28.7,629.3,28.7z M464.6-150.3h42.9v78.7
		h-42.9V-150.3L464.6-150.3L464.6-150.3z M586.3,35.8v64.4v93c0,11.9-9.7,21.5-21.4,21.5H407.4l0,0c-11.9,0-21.4-9.7-21.4-21.5
		V-35.7c0-11.9,9.7-21.5,21.4-21.5h157.5c11.9,0,21.4,9.7,21.4,21.5L586.3,35.8L586.3,35.8z M622.1,93.1h-21.5V43.1h21.5V93.1z"/>
	<g id="XMLID_1028_">
		<path id="XMLID_1010_" class="st1" d="M536.3,57.3H435.9c-15.8,0-28.6,12.9-28.6,28.7v78.7c0,15.8,12.8,28.7,28.6,28.7
			c3.9,0,7.1-3.2,7.1-7.1s-3.2-7.1-7.1-7.1c-7.8,0-14.3-6.4-14.3-14.3V85.9c0-7.9,6.4-14.3,14.3-14.3h100.3
			c7.8,0,14.3,6.4,14.3,14.3v78.7c0,7.9-6.4,14.3-14.3,14.3c-3.9,0-7.1,3.2-7.1,7.1s3.2,7.1,7.1,7.1c15.8,0,28.6-12.9,28.6-28.7
			V85.9C564.8,70.1,552,57.3,536.3,57.3z"/>
		<path id="XMLID_1009_" class="st1" d="M521.9,78.8h-71.6c-3.9,0-7.1,3.2-7.1,7.1c0,3.9,3.2,7.1,7.1,7.1h71.6
			c3.9,0,7.1-3.2,7.1-7.1C529,82,525.8,78.8,521.9,78.8z"/>
	</g>
</g>
<g id="XMLID_15_">
	<path id="XMLID_16_" d="M369.7,283.1h-8.5V277h24.4v6.1h-8.7v25.7h-7.2V283.1L369.7,283.1z"/>
	<path id="XMLID_18_" d="M389.4,277.5c2.3-0.4,5.7-0.6,9.6-0.6c4.7,0,8,0.6,10.2,2.5c1.9,1.6,3,3.8,3,6.6c0,4-2.8,6.9-5.6,7.8v0.1
		c2.2,0.9,3.5,3,4.3,5.9c1,3.6,1.9,7.8,2.6,8.9H406c-0.5-0.9-1.3-3.5-2.2-7.4c-0.9-4-2.2-5-5.2-5h-2.2v12.5h-7.1V277.5z
		 M396.5,291.2h2.8c3.6,0,5.7-1.8,5.7-4.5c0-3-1.9-4.4-5.3-4.4c-1.7,0-2.7,0.1-3.2,0.3L396.5,291.2L396.5,291.2z"/>
	<path id="XMLID_21_" d="M446.3,292.6c0,10.5-6.3,16.7-15.6,16.7c-9.4,0-15-7.1-15-16.2c0-9.6,6.1-16.7,15.5-16.7
		C441,276.6,446.3,283.8,446.3,292.6z M423.2,293c0,6.2,3,10.6,7.8,10.6c4.9,0,7.6-4.7,7.6-10.7c0-5.7-2.7-10.6-7.6-10.6
		C426.1,282.3,423.2,286.9,423.2,293z"/>
	<path id="XMLID_24_" d="M451,277.1h7.2v25.7H471v6.1h-19.8v-31.8H451z"/>
	<path id="XMLID_26_" d="M475.1,277.1h7.2v25.7H495v6.1h-19.8v-31.8H475.1z"/>
	<path id="XMLID_28_" d="M518,295.4h-11.6v7.5h13.1v5.9h-20.3V277h19.7v5.9h-12.4v6.6H518V295.4z"/>
	<path id="XMLID_30_" d="M531.7,308.8v-13.1L521.7,277h8.1l3.2,7.6c1,2.3,1.7,4,2.5,6.1h0.1c0.6-1.9,1.4-3.9,2.5-6.1l3.2-7.6h8
		l-10.5,18.5v13.2h-7.1V308.8z"/>
	<path id="XMLID_32_" d="M562.3,277.5c1.9-0.4,5.7-0.6,9.3-0.6c4.4,0,7.1,0.4,9.4,1.8c2.2,1.2,3.9,3.4,3.9,6.2s-1.7,5.4-5.2,6.7v0.1
		c3.6,1,6.3,3.8,6.3,7.8c0,2.8-1.3,5.2-3.4,6.7c-2.3,1.8-6.2,2.8-12.5,2.8c-3.5,0-6.2-0.3-7.8-0.5v-31H562.3z M569.4,289.7h2.3
		c3.8,0,5.8-1.6,5.8-3.9c0-2.5-1.8-3.6-5-3.6c-1.6,0-2.5,0.1-3.1,0.1V289.7z M569.4,303.8c0.6,0.1,1.6,0.1,2.7,0.1
		c3.2,0,6.1-1.3,6.1-4.5c0-3.2-2.8-4.5-6.5-4.5h-2.3V303.8z"/>
	<path id="XMLID_36_" d="M598,300.7l-2.2,8.1h-7.5L598,277h9.4l9.8,31.8h-7.8l-2.5-8.1H598z M606.1,295.4l-1.9-6.7
		c-0.5-1.9-1.2-4.3-1.6-6.1h-0.1c-0.5,1.9-0.9,4.3-1.4,6.1l-1.9,6.7H606.1z"/>
	<path id="XMLID_39_" d="M646.8,307.4c-2.2,0.8-6.5,1.8-10.6,1.8c-5.8,0-10-1.4-12.9-4.3c-3-2.7-4.5-6.9-4.5-11.5
		c0-10.6,7.8-16.6,18.1-16.6c4.1,0,7.2,0.8,8.8,1.6l-1.6,5.7c-1.7-0.8-3.9-1.4-7.4-1.4c-5.9,0-10.5,3.4-10.5,10.2
		c0,6.6,4.1,10.5,10,10.5c1.7,0,3-0.1,3.5-0.5v-6.6h-4.9v-5.6h11.8v16.7H646.8z"/>
</g>
<g id="XMLID_3_">
	<path id="XMLID_13_" class="st1" d="M364,283.1h-8.5V277h24.4v6.1h-8.7v25.7H364L364,283.1L364,283.1z"/>
	<path id="XMLID_12_" class="st1" d="M383.7,277.5c2.3-0.4,5.7-0.6,9.6-0.6c4.7,0,8,0.6,10.2,2.5c1.9,1.6,3,3.8,3,6.6
		c0,4-2.8,6.9-5.6,7.8v0.1c2.2,0.9,3.5,3,4.3,5.9c1,3.6,1.9,7.8,2.6,8.9h-7.4c-0.5-0.9-1.3-3.5-2.2-7.4c-0.9-4-2.2-5-5.2-5h-2.2
		v12.5h-7.1V277.5z M390.8,291.2h2.8c3.6,0,5.7-1.8,5.7-4.5c0-3-1.9-4.4-5.3-4.4c-1.7,0-2.7,0.1-3.2,0.3L390.8,291.2L390.8,291.2z"
		/>
	<path id="XMLID_11_" class="st1" d="M440.6,292.6c0,10.5-6.3,16.7-15.6,16.7c-9.4,0-15-7.1-15-16.2c0-9.6,6.1-16.7,15.5-16.7
		C435.3,276.6,440.6,283.8,440.6,292.6z M417.6,293c0,6.2,3,10.6,7.8,10.6c4.9,0,7.6-4.7,7.6-10.7c0-5.7-2.7-10.6-7.6-10.6
		C420.4,282.3,417.6,286.9,417.6,293z"/>
	<path id="XMLID_10_" class="st1" d="M445.4,277.1h7.2v25.7h12.7v6.1h-19.8v-31.8H445.4z"/>
	<path id="XMLID_9_" class="st1" d="M469.4,277.1h7.2v25.7h12.7v6.1h-19.8v-31.8H469.4z"/>
	<path id="XMLID_8_" class="st1" d="M512.4,295.4h-11.6v7.5h13.1v5.9h-20.3V277h19.7v5.9h-12.4v6.6h11.6V295.4z"/>
	<path id="XMLID_7_" class="st1" d="M526.1,308.8v-13.1L516,277h8.1l3.2,7.6c1,2.3,1.7,4,2.5,6.1h0.1c0.6-1.9,1.4-3.9,2.5-6.1
		l3.2-7.6h8l-10.5,18.5v13.2h-7.1V308.8z"/>
	<path id="XMLID_6_" class="st1" d="M556.6,277.5c1.9-0.4,5.7-0.6,9.3-0.6c4.4,0,7.1,0.4,9.4,1.8c2.2,1.2,3.9,3.4,3.9,6.2
		s-1.7,5.4-5.2,6.7v0.1c3.6,1,6.3,3.8,6.3,7.8c0,2.8-1.3,5.2-3.4,6.7c-2.3,1.8-6.2,2.8-12.5,2.8c-3.5,0-6.2-0.3-7.8-0.5v-31H556.6z
		 M563.7,289.7h2.3c3.8,0,5.8-1.6,5.8-3.9c0-2.5-1.8-3.6-5-3.6c-1.6,0-2.5,0.1-3.1,0.1V289.7z M563.7,303.8c0.6,0.1,1.6,0.1,2.7,0.1
		c3.2,0,6.1-1.3,6.1-4.5c0-3.2-2.8-4.5-6.5-4.5h-2.3V303.8z"/>
	<path id="XMLID_5_" class="st1" d="M592.3,300.7l-2.2,8.1h-7.5l9.7-31.8h9.4l9.8,31.8h-7.8l-2.5-8.1H592.3z M600.4,295.4l-1.9-6.7
		c-0.5-1.9-1.2-4.3-1.6-6.1h-0.1c-0.5,1.9-0.9,4.3-1.4,6.1l-1.9,6.7H600.4z"/>
	<path id="XMLID_4_" class="st1" d="M641.2,307.4c-2.2,0.8-6.5,1.8-10.6,1.8c-5.8,0-10-1.4-12.9-4.3c-3-2.7-4.5-6.9-4.5-11.5
		c0-10.6,7.8-16.6,18.1-16.6c4.1,0,7.2,0.8,8.8,1.6l-1.6,5.7c-1.7-0.8-3.9-1.4-7.4-1.4c-5.9,0-10.5,3.4-10.5,10.2
		c0,6.6,4.1,10.5,10,10.5c1.7,0,3-0.1,3.5-0.5v-6.6h-4.9v-5.6h11.8v16.7H641.2z"/>
</g>
</svg>
