<?xml version="1.0" encoding="utf-8"?>
<!-- Generator: Adobe Illustrator 19.0.0, SVG Export Plug-In . SVG Version: 6.00 Build 0)  -->
<svg version="1.1" id="Layer_1" xmlns="http://www.w3.org/2000/svg" xmlns:xlink="http://www.w3.org/1999/xlink" x="0px" y="0px"
	 viewBox="0 0 612 562.2" style="enable-background:new 0 0 612 562.2;" xml:space="preserve">
<style type="text/css">
	.st0{fill:#010101;}
</style>
<g id="XMLID_1004_">
	<path id="XMLID_1043_" class="st0" d="M465.6,272h-36.5v-82.1c0-25.1-20.4-45.6-45.6-45.6h-54.7V44h9.1c5,0,9.1-4.1,9.1-9.1
		s-4.1-9.1-9.1-9.1H228.5c-5,0-9.1,4.1-9.1,9.1s4.1,9.1,9.1,9.1h9.1v100.3h-54.7c-25.1,0-45.6,20.5-45.6,45.6v291.8
		c0,25.1,20.4,45.6,45.6,45.6h27.4c0,5,4.1,9.1,9.1,9.1c5,0,9.1-4.1,9.1-9.1h100.3c0,5,4.1,9.1,9.1,9.1c5,0,9.1-4.1,9.1-9.1h36.5
		c25.1,0,45.6-20.5,45.6-45.6V372.3h36.5c5,0,9.1-4.1,9.1-9.1v-82.1C474.7,276.1,470.6,272,465.6,272z M255.8,44h54.7v100.3h-54.7
		V44L255.8,44L255.8,44z M410.9,281.1v82.1v118.5c0,15.1-12.3,27.4-27.3,27.4H182.9v0c-15.1,0-27.3-12.3-27.3-27.4V189.9
		c0-15.1,12.3-27.4,27.3-27.4h200.6c15.1,0,27.3,12.3,27.3,27.4V281.1z M456.5,354.1h-27.4v-63.8h27.4V354.1z"/>
	<g id="XMLID_1028_">
		<path id="XMLID_1010_" class="st0" d="M347.1,308.5H219.3c-20.1,0-36.4,16.4-36.4,36.5v100.3c0,20.1,16.3,36.5,36.4,36.5
			c5,0,9.1-4.1,9.1-9.1c0-5-4.1-9.1-9.1-9.1c-10,0-18.2-8.2-18.2-18.2V344.9c0-10.1,8.2-18.2,18.2-18.2h127.8
			c10,0,18.2,8.2,18.2,18.2v100.3c0,10.1-8.2,18.2-18.2,18.2c-5,0-9.1,4.1-9.1,9.1c0,5,4.1,9.1,9.1,9.1c20.1,0,36.4-16.4,36.4-36.5
			V344.9C383.5,324.8,367.2,308.5,347.1,308.5z"/>
		<path id="XMLID_1009_" class="st0" d="M328.8,335.8h-91.2c-5,0-9.1,4.1-9.1,9.1c0,5,4.1,9.1,9.1,9.1h91.2c5,0,9.1-4.1,9.1-9.1
			C337.9,339.9,333.8,335.8,328.8,335.8z"/>
	</g>
</g>
<g id="XMLID_15_">
	<path id="XMLID_16_" d="M175.6,231.8H169v-4.7h18.9v4.7h-6.7v19.9h-5.6V231.8z"/>
	<path id="XMLID_18_" d="M190.8,227.5c1.8-0.3,4.4-0.5,7.4-0.5c3.6,0,6.2,0.5,7.9,1.9c1.5,1.2,2.3,2.9,2.3,5.1c0,3.1-2.2,5.3-4.3,6
		v0.1c1.7,0.7,2.7,2.3,3.3,4.6c0.8,2.8,1.5,6,2,6.9h-5.7c-0.4-0.7-1-2.7-1.7-5.7c-0.7-3.1-1.7-3.9-4-3.9h-1.7v9.7h-5.5V227.5z
		 M196.3,238.1h2.2c2.8,0,4.4-1.4,4.4-3.5c0-2.3-1.5-3.4-4.1-3.4c-1.3,0-2.1,0.1-2.5,0.2V238.1z"/>
	<path id="XMLID_21_" d="M234.8,239.2c0,8.1-4.9,12.9-12.1,12.9c-7.3,0-11.6-5.5-11.6-12.5c0-7.4,4.7-12.9,12-12.9
		C230.7,226.8,234.8,232.4,234.8,239.2z M217,239.5c0,4.8,2.3,8.2,6,8.2c3.8,0,5.9-3.6,5.9-8.3c0-4.4-2.1-8.2-5.9-8.2
		C219.2,231.2,217,234.8,217,239.5z"/>
	<path id="XMLID_24_" d="M238.5,227.2h5.6v19.9h9.8v4.7h-15.3V227.2z"/>
	<path id="XMLID_26_" d="M257.1,227.2h5.6v19.9h9.8v4.7h-15.3V227.2z"/>
	<path id="XMLID_28_" d="M290.3,241.3h-9v5.8h10.1v4.6h-15.7v-24.6h15.2v4.6h-9.6v5.1h9V241.3z"/>
	<path id="XMLID_30_" d="M300.9,251.7v-10.1l-7.8-14.5h6.3l2.5,5.9c0.8,1.8,1.3,3.1,1.9,4.7h0.1c0.5-1.5,1.1-3,1.9-4.7l2.5-5.9h6.2
		l-8.1,14.3v10.2H300.9z"/>
	<path id="XMLID_32_" d="M324.5,227.5c1.5-0.3,4.4-0.5,7.2-0.5c3.4,0,5.5,0.3,7.3,1.4c1.7,0.9,3,2.6,3,4.8c0,2.2-1.3,4.2-4,5.2v0.1
		c2.8,0.8,4.9,2.9,4.9,6c0,2.2-1,4-2.6,5.2c-1.8,1.4-4.8,2.2-9.7,2.2c-2.7,0-4.8-0.2-6-0.4V227.5z M330,236.9h1.8
		c2.9,0,4.5-1.2,4.5-3c0-1.9-1.4-2.8-3.9-2.8c-1.2,0-1.9,0.1-2.4,0.1V236.9z M330,247.8c0.5,0.1,1.2,0.1,2.1,0.1
		c2.5,0,4.7-1,4.7-3.5c0-2.5-2.2-3.5-5-3.5H330V247.8z"/>
	<path id="XMLID_36_" d="M352.1,245.4l-1.7,6.3h-5.8l7.5-24.6h7.3l7.6,24.6h-6l-1.9-6.3H352.1z M358.4,241.3l-1.5-5.2
		c-0.4-1.5-0.9-3.3-1.2-4.7h-0.1c-0.4,1.5-0.7,3.3-1.1,4.7l-1.5,5.2H358.4z"/>
	<path id="XMLID_39_" d="M389.9,250.6c-1.7,0.6-5,1.4-8.2,1.4c-4.5,0-7.7-1.1-10-3.3c-2.3-2.1-3.5-5.3-3.5-8.9c0-8.2,6-12.8,14-12.8
		c3.2,0,5.6,0.6,6.8,1.2l-1.2,4.4c-1.3-0.6-3-1.1-5.7-1.1c-4.6,0-8.1,2.6-8.1,7.9c0,5.1,3.2,8.1,7.7,8.1c1.3,0,2.3-0.1,2.7-0.4V242
		h-3.8v-4.3h9.1V250.6z"/>
</g>
</svg>
