<?xml version="1.0" encoding="utf-8"?>
<!-- Generator: Adobe Illustrator 19.0.0, SVG Export Plug-In . SVG Version: 6.00 Build 0)  -->
<svg version="1.1" id="Layer_1" xmlns="http://www.w3.org/2000/svg" xmlns:xlink="http://www.w3.org/1999/xlink" x="0px" y="0px"
	 viewBox="0 0 72 72" style="enable-background:new 0 0 72 72;" xml:space="preserve">
<style type="text/css">
	.st0{fill:#010101;}
</style>
<g id="XMLID_649_">
	<g id="XMLID_665_">
		<path id="XMLID_666_" class="st0" d="M67,35.9c0-2.6-2.1-4.7-4.7-4.7h-3.6V14.9c0-6.6-6-11.9-13.5-11.9S31.8,8.3,31.8,14.9l0,24.1
			h0l0,18.1c0,5-4.4,9.1-9.8,9.1c-5.4,0-9.8-4.1-9.8-9.1V23.6h1.6c1.5,0,2.8-1.2,2.8-2.8V8.3h-1.9V3.8H6.9v4.5H5l0,12.5
			c0,1.5,1.2,2.8,2.8,2.8h1.6v33.5C9.3,63.7,15,69,21.9,69c7,0,12.6-5.3,12.6-11.9l0-18.9h0l0-23.3c0-5,4.8-9.1,10.7-9.1
			s10.7,4.1,10.7,9.1v16.3h-3.6c-2.6,0-4.7,2.1-4.7,4.7v21.1h3.2v10.4h12.9V57.1H67L67,35.9L67,35.9L67,35.9z M55.7,64.4h-2v-3.6h2
			V64.4z M61,64.4h-2v-3.6h2V64.4z M64.2,54.3H50.4V35.9c0-1.1,0.9-1.9,1.9-1.9h10c1.1,0,1.9,0.9,1.9,1.9L64.2,54.3L64.2,54.3z"/>
	</g>
	<g id="XMLID_664_">
	</g>
	<g id="XMLID_663_">
	</g>
	<g id="XMLID_662_">
	</g>
	<g id="XMLID_661_">
	</g>
	<g id="XMLID_660_">
	</g>
	<g id="XMLID_659_">
	</g>
	<g id="XMLID_658_">
	</g>
	<g id="XMLID_657_">
	</g>
	<g id="XMLID_656_">
	</g>
	<g id="XMLID_655_">
	</g>
	<g id="XMLID_654_">
	</g>
	<g id="XMLID_653_">
	</g>
	<g id="XMLID_652_">
	</g>
	<g id="XMLID_651_">
	</g>
	<g id="XMLID_650_">
	</g>
</g>
</svg>
