<?xml version="1.0" encoding="utf-8"?>
<!-- Generator: Adobe Illustrator 19.0.0, SVG Export Plug-In . SVG Version: 6.00 Build 0)  -->
<svg version="1.1" id="Layer_1" xmlns="http://www.w3.org/2000/svg" xmlns:xlink="http://www.w3.org/1999/xlink" x="0px" y="0px"
	 viewBox="-107 181 72 72" style="enable-background:new -107 181 72 72;" xml:space="preserve">
<style type="text/css">
	.st0{fill:#010101;}
</style>
<g id="XMLID_649_">
	<g id="XMLID_665_">
		<path id="XMLID_666_" class="st0" d="M-50.8,205.7c0-1.7-1.4-3.1-3.1-3.1h-2.3V192c0-4.3-3.9-7.8-8.8-7.8c-4.9,0-8.7,3.5-8.7,7.8
			v15.7l0,0v11.8c0,3.3-2.9,5.9-6.4,5.9c-3.5,0-6.4-2.7-6.4-5.9v-21.8h1c1,0,1.8-0.8,1.8-1.8v-8.1h-1.2v-2.9H-90v2.9h-1.2v8.1
			c0,1,0.8,1.8,1.8,1.8h1v21.8c-0.1,4.3,3.6,7.8,8.1,7.8c4.6,0,8.2-3.5,8.2-7.8v-12.3l0,0V192c0-3.3,3.1-5.9,7-5.9s7,2.7,7,5.9v10.6
			h-2.3c-1.7,0-3.1,1.4-3.1,3.1v13.7h2.1v6.8h8.4v-6.7h2.1V205.7L-50.8,205.7L-50.8,205.7z M-58.2,224.3h-1.3v-2.3h1.3V224.3z
			 M-54.7,224.3H-56v-2.3h1.3V224.3z M-52.6,217.7h-9v-12c0-0.7,0.6-1.2,1.2-1.2h6.5c0.7,0,1.2,0.6,1.2,1.2L-52.6,217.7L-52.6,217.7
			z"/>
	</g>
	<g id="XMLID_664_">
	</g>
	<g id="XMLID_663_">
	</g>
	<g id="XMLID_662_">
	</g>
	<g id="XMLID_661_">
	</g>
	<g id="XMLID_660_">
	</g>
	<g id="XMLID_659_">
	</g>
	<g id="XMLID_658_">
	</g>
	<g id="XMLID_657_">
	</g>
	<g id="XMLID_656_">
	</g>
	<g id="XMLID_655_">
	</g>
	<g id="XMLID_654_">
	</g>
	<g id="XMLID_653_">
	</g>
	<g id="XMLID_652_">
	</g>
	<g id="XMLID_651_">
	</g>
	<g id="XMLID_650_">
	</g>
</g>
<g>
	<path d="M-95.2,234.4v4.7c0,1.4,0.5,2.1,1.5,2.1c1,0,1.5-0.7,1.5-2.1v-4.7h1.8v4.5c0,2.5-1.3,3.7-3.4,3.7c-2,0-3.2-1.1-3.2-3.7
		v-4.5H-95.2z"/>
	<path d="M-88.8,240.6c0.5,0.3,1.2,0.5,2,0.5c0.8,0,1.3-0.3,1.3-0.9c0-0.5-0.4-0.8-1.4-1.1c-1.3-0.5-2.2-1.2-2.2-2.4
		c0-1.4,1.2-2.4,3.1-2.4c0.9,0,1.6,0.2,2.1,0.4l-0.4,1.5c-0.3-0.2-0.9-0.4-1.7-0.4s-1.2,0.4-1.2,0.8c0,0.5,0.5,0.7,1.5,1.1
		c1.4,0.5,2.1,1.3,2.1,2.4c0,1.4-1,2.5-3.3,2.5c-0.9,0-1.8-0.3-2.3-0.5L-88.8,240.6z"/>
	<path d="M-82.3,234.5c0.5-0.1,1.5-0.2,2.4-0.2c1.1,0,1.8,0.1,2.4,0.5c0.6,0.3,1,0.9,1,1.6c0,0.7-0.4,1.4-1.3,1.7v0
		c0.9,0.3,1.6,0.9,1.6,2c0,0.7-0.3,1.3-0.8,1.7c-0.6,0.5-1.6,0.7-3.2,0.7c-0.9,0-1.6-0.1-2-0.1V234.5z M-80.5,237.6h0.6
		c1,0,1.5-0.4,1.5-1c0-0.6-0.5-0.9-1.3-0.9c-0.4,0-0.6,0-0.8,0V237.6z M-80.5,241.2c0.2,0,0.4,0,0.7,0c0.8,0,1.6-0.3,1.6-1.2
		c0-0.8-0.7-1.1-1.6-1.1h-0.6V241.2z"/>
	<path d="M-72.7,234.5c0.6-0.1,1.4-0.2,2.5-0.2c1.1,0,1.9,0.2,2.5,0.6c0.5,0.4,0.9,1.1,0.9,1.9c0,0.8-0.3,1.5-0.7,1.9
		c-0.6,0.6-1.5,0.9-2.6,0.9c-0.2,0-0.5,0-0.6,0v2.9h-1.8V234.5z M-70.9,238.2c0.2,0,0.3,0,0.6,0c1,0,1.6-0.5,1.6-1.3
		c0-0.7-0.5-1.2-1.4-1.2c-0.4,0-0.6,0-0.8,0.1V238.2z"/>
	<path d="M-58.3,238.4c0,2.7-1.6,4.3-4,4.3c-2.4,0-3.8-1.8-3.8-4.1c0-2.4,1.5-4.2,3.9-4.2C-59.7,234.3-58.3,236.1-58.3,238.4z
		 M-64.1,238.5c0,1.6,0.7,2.7,2,2.7c1.2,0,1.9-1.2,1.9-2.7c0-1.5-0.7-2.7-2-2.7C-63.4,235.7-64.1,236.9-64.1,238.5z"/>
	<path d="M-57.1,234.5c0.6-0.1,1.5-0.2,2.4-0.2c1.2,0,2,0.2,2.6,0.6c0.5,0.4,0.7,0.9,0.7,1.7c0,1-0.7,1.7-1.4,2v0
		c0.6,0.2,0.9,0.8,1.1,1.5c0.3,0.9,0.5,2,0.7,2.3h-1.9c-0.1-0.2-0.3-0.9-0.6-1.9c-0.2-1-0.6-1.3-1.3-1.3h-0.6v3.2h-1.8V234.5z
		 M-55.3,238h0.7c0.9,0,1.5-0.5,1.5-1.2c0-0.7-0.5-1.1-1.3-1.1c-0.4,0-0.7,0-0.8,0.1V238z"/>
	<path d="M-48.4,236h-2.2v-1.5h6.2v1.5h-2.2v6.5h-1.8V236z"/>
</g>
</svg>
