<?xml version="1.0" encoding="utf-8"?>
<!-- Generator: Adobe Illustrator 19.0.0, SVG Export Plug-In . SVG Version: 6.00 Build 0)  -->
<svg version="1.1" id="Layer_1" xmlns="http://www.w3.org/2000/svg" xmlns:xlink="http://www.w3.org/1999/xlink" x="0px" y="0px"
	 viewBox="-291 -183 512 512" style="enable-background:new -291 -183 512 512;" xml:space="preserve">
<style type="text/css">
	.st0{fill-rule:evenodd;clip-rule:evenodd;fill:#BD2F32;}
	.st1{fill:#FFFFFF;}
</style>
<g id="XMLID_29_">
	<rect id="XMLID_28_" x="-291" y="-183" class="st0" width="512" height="512"/>
	<g id="XMLID_30_">
		<rect id="XMLID_31_" x="-218.7" y="256.2" class="st1" width="367.3" height="2.1"/>
	</g>
</g>
<g id="XMLID_649_">
	<g id="XMLID_665_">
		<path id="XMLID_666_" class="st1" d="M97.4,49.3c0-11.1-9.2-20.3-20.3-20.3H62v-69.5c0-28.2-25.6-51.1-57.7-51.1s-57,22.9-57,51.1
			V62.4l0,0v77.3c0,21.6-19,38.7-41.9,38.7s-41.9-17.7-41.9-38.7V-3.2h6.6c6.6,0,11.8-5.2,11.8-11.8V-68h-7.9v-19h-33.4v19h-7.9V-15
			c0,6.6,5.2,11.8,11.8,11.8h6.6v142.8c-0.7,28.2,23.6,51.1,53.1,51.1c30.1,0,53.7-22.9,53.7-51.1V59.1l0,0v-99.6
			c0-21.6,20.3-38.7,45.9-38.7s45.9,17.7,45.9,38.7V29H34.5c-11.1,0-20.3,9.2-20.3,20.3V139h13.8v44.6h55v-43.9h13.8V49.3H97.4
			L97.4,49.3z M48.9,171.1h-8.5v-15.1h8.5V171.1z M71.8,171.1h-8.5v-15.1h8.5V171.1z M85.6,127.9h-59V49.3c0-4.6,3.9-7.9,7.9-7.9
			h42.6c4.6,0,7.9,3.9,7.9,7.9L85.6,127.9L85.6,127.9z"/>
	</g>
	<g id="XMLID_664_">
	</g>
	<g id="XMLID_663_">
	</g>
	<g id="XMLID_662_">
	</g>
	<g id="XMLID_661_">
	</g>
	<g id="XMLID_660_">
	</g>
	<g id="XMLID_659_">
	</g>
	<g id="XMLID_658_">
	</g>
	<g id="XMLID_657_">
	</g>
	<g id="XMLID_656_">
	</g>
	<g id="XMLID_655_">
	</g>
	<g id="XMLID_654_">
	</g>
	<g id="XMLID_653_">
	</g>
	<g id="XMLID_652_">
	</g>
	<g id="XMLID_651_">
	</g>
	<g id="XMLID_650_">
	</g>
</g>
<g>
	<path class="st1" d="M-150.5,271.8v22.2c0,6.6,2.4,9.9,7.1,9.9s7.1-3.3,7.1-9.9v-22.2h8.5V293c0,11.8-6.1,17.4-16,17.4
		c-9.4,0-15.1-5.2-15.1-17.4v-21.2H-150.5z"/>
	<path class="st1" d="M-120.3,301c2.4,1.4,5.7,2.4,9.4,2.4c3.8,0,6.1-1.4,6.1-4.2c0-2.4-1.9-3.8-6.6-5.2
		c-6.1-2.4-10.4-5.7-10.4-11.3c0-6.6,5.7-11.3,14.6-11.3c4.2,0,7.5,0.9,9.9,1.9l-1.9,7.1c-1.4-0.9-4.2-1.9-8-1.9s-5.7,1.9-5.7,3.8
		c0,2.4,2.4,3.3,7.1,5.2c6.6,2.4,9.9,6.1,9.9,11.3c0,6.6-4.7,11.8-15.6,11.8c-4.2,0-8.5-1.4-10.8-2.4L-120.3,301z"/>
	<path class="st1" d="M-89.7,272.2c2.4-0.5,7.1-0.9,11.3-0.9c5.2,0,8.5,0.5,11.3,2.4c2.8,1.4,4.7,4.2,4.7,7.5c0,3.3-1.9,6.6-6.1,8
		l0,0c4.2,1.4,7.5,4.2,7.5,9.4c0,3.3-1.4,6.1-3.8,8c-2.8,2.4-7.5,3.3-15.1,3.3c-4.2,0-7.5-0.5-9.4-0.5v-37.2H-89.7z M-81.2,286.9
		h2.8c4.7,0,7.1-1.9,7.1-4.7c0-2.8-2.4-4.2-6.1-4.2c-1.9,0-2.8,0-3.8,0C-81.2,277.9-81.2,286.9-81.2,286.9z M-81.2,303.8
		c0.9,0,1.9,0,3.3,0c3.8,0,7.5-1.4,7.5-5.7c0-3.8-3.3-5.2-7.5-5.2h-2.8v10.8H-81.2z"/>
	<path class="st1" d="M-44.4,272.2c2.8-0.5,6.6-0.9,11.8-0.9s9,0.9,11.8,2.8c2.4,1.9,4.2,5.2,4.2,9c0,3.8-1.4,7.1-3.3,9
		c-2.8,2.8-7.1,4.2-12.3,4.2c-0.9,0-2.4,0-2.8,0V310h-8.5v-37.7H-44.4z M-35.9,289.7c0.9,0,1.4,0,2.8,0c4.7,0,7.5-2.4,7.5-6.1
		c0-3.3-2.4-5.7-6.6-5.7c-1.9,0-2.8,0-3.8,0.5C-35.9,278.4-35.9,289.7-35.9,289.7z"/>
	<path class="st1" d="M23.5,290.6c0,12.7-7.5,20.3-18.9,20.3c-11.3,0-17.9-8.5-17.9-19.3c0-11.3,7.1-19.8,18.4-19.8
		C16.9,271.3,23.5,279.8,23.5,290.6z M-3.9,291.1c0,7.5,3.3,12.7,9.4,12.7c5.7,0,9-5.7,9-12.7c0-7.1-3.3-12.7-9.4-12.7
		C-0.6,277.9-3.9,283.6-3.9,291.1z"/>
	<path class="st1" d="M29.1,272.2c2.8-0.5,7.1-0.9,11.3-0.9c5.7,0,9.4,0.9,12.3,2.8c2.4,1.9,3.3,4.2,3.3,8c0,4.7-3.3,8-6.6,9.4l0,0
		c2.8,0.9,4.2,3.8,5.2,7.1c1.4,4.2,2.4,9.4,3.3,10.8h-9c-0.5-0.9-1.4-4.2-2.8-9c-0.9-4.7-2.8-6.1-6.1-6.1h-2.8v15.1h-8.5v-37.2H29.1
		z M37.6,288.7h3.3c4.2,0,7.1-2.4,7.1-5.7c0-3.3-2.4-5.2-6.1-5.2c-1.9,0-3.3,0-3.8,0.5v10.4H37.6z"/>
	<path class="st1" d="M70.1,279.3H59.8v-7.1H89v7.1H78.6V310h-8.5V279.3z"/>
</g>
</svg>
