<?xml version="1.0" encoding="utf-8"?>
<!-- Generator: Adobe Illustrator 19.0.0, SVG Export Plug-In . SVG Version: 6.00 Build 0)  -->
<svg version="1.1" id="Layer_1" xmlns="http://www.w3.org/2000/svg" xmlns:xlink="http://www.w3.org/1999/xlink" x="0px" y="0px"
	 viewBox="356 -284 1000 1000" style="enable-background:new 356 -284 1000 1000;" xml:space="preserve">
<g>
	<g transform="translate(0.000000,511.000000) scale(0.100000,-0.100000)">
		<path d="M6050.8,5704.6c-662.3-323.5-1216.3-596.7-1231.6-608.9c-15.3-13.7-30.5-39.7-35.1-58c-10.7-41.2,468.5-1425.3,505.1-1462
			c18.3-19.8,112.9-22.9,616.6-27.4l595.1-4.5l3.1-1938.1l4.5-1939.7l36.6-29c35.1-27.4,90-29,2052.6-29h2019l32.1,35.1l33.6,35.1
			v1933.5v1932.2l564.6,4.5c476.2,4.5,567.7,7.6,586.1,27.4c12.2,12.2,134.3,340.3,270.1,727.9c227.4,653.2,245.7,709.7,227.4,752.3
			c-13.7,35.1-50.4,61-166.4,119.1c-80.9,42.8-604.3,309.8-1164.4,596.7l-1016.4,520.5H8619.3l-1362.8-1.5L6050.8,5704.6z
			 M7989,5132.3c425.8-714.2,558.5-927.9,592.1-943.2c96.1-45.8,85.5-61,644,883.6c285.4,483.8,534.1,903.5,552.5,934
			c27.4,45.8,42.7,56.5,80.9,56.5c30.5,0,401.3-181.6,1126.2-552.5c593.7-302.2,1082-554,1085-555.5c3-3.1-85.5-265.6-196.9-586.1
			l-203-579.9h-567.7c-550.9,0-569.3-1.5-608.9-32.1l-39.7-30.5l-3.1-1941.2l-4.5-1941.2l-1849.6-4.5l-1851.2-3.1v1921.4
			c0,1376.5-4.5,1933.5-16.8,1959.5c-9.2,21.3-33.6,45.8-54.9,54.9c-24.4,10.7-227.4,16.8-628.7,16.8h-592.1l-201.4,575.3
			c-109.9,315.9-195.4,579.9-187.7,587.5c6.1,6.1,520.4,259.5,1140,561.6c914.1,444.1,1140,549.4,1182.7,544.8l53.4-3.1L7989,5132.3
			z M9522.7,6052.5c0-26-892.8-1513.9-903.5-1503.2c-13.7,13.7-897.3,1495.6-897.3,1506.2c0,4.5,406,7.6,900.4,7.6
			C9118.2,6063.2,9522.7,6058.6,9522.7,6052.5z"/>
	</g>
</g>
<g>
	<path d="M665,629.2l-12.8-39.9h9.9l4.9,16.9c1.4,4.7,2.6,9.3,3.6,14.3h0.2c1-4.8,2.3-9.5,3.6-14.1l5.1-17.1h9.6l-13.5,39.9H665z"/>
	<path d="M705.2,629.2v-39.9h10.5l8.3,14.6c2.4,4.2,4.7,9.2,6.5,13.7h0.2c-0.6-5.3-0.8-10.7-0.8-16.7v-11.6h8.3v39.9h-9.5l-8.5-15.4
		c-2.4-4.3-5-9.4-6.9-14.1l-0.2,0.1c0.2,5.3,0.4,10.9,0.4,17.4v12H705.2z"/>
	<path d="M769.8,612.3h-14.7v9.5h16.4v7.4h-25.5v-39.9h24.6v7.4h-15.6v8.3h14.7V612.3z"/>
	<path d="M807,628.1c-1.7,0.8-5.4,1.8-10.3,1.8c-13.8,0-20.9-8.7-20.9-20c0-13.6,9.7-21.2,21.8-21.2c4.7,0,8.2,0.9,9.8,1.8l-1.8,7.2
		c-1.8-0.8-4.4-1.5-7.6-1.5c-7.2,0-12.7,4.3-12.7,13.2c0,8,4.7,13,12.8,13c2.7,0,5.7-0.6,7.5-1.3L807,628.1z"/>
	<path d="M813,589.3h8.9v17.7h0.2c0.9-1.5,1.8-3,2.7-4.4l9.1-13.3H845l-13.2,17l13.9,22.9h-10.5l-9.8-17.2l-3.4,4.2v13H813V589.3z"
		/>
	<path d="M866.7,596.9H856v-7.6h30.7v7.6h-10.9v32.4h-9.1V596.9z"/>
	<path d="M901.3,610.6v6h-15.5v-6H901.3z"/>
	<path d="M907.3,619.9c2.4,1.2,6.2,2.5,10,2.5c4.1,0,6.3-1.7,6.3-4.3c0-2.5-1.9-3.9-6.7-5.6c-6.6-2.3-11-6-11-11.8
		c0-6.8,5.7-12,15.1-12c4.5,0,7.8,0.9,10.2,2l-2,7.3c-1.6-0.8-4.4-1.9-8.4-1.9c-3.9,0-5.8,1.8-5.8,3.9c0,2.5,2.3,3.7,7.4,5.6
		c7.1,2.6,10.4,6.3,10.4,11.9c0,6.7-5.2,12.4-16.1,12.4c-4.6,0-9.1-1.2-11.3-2.5L907.3,619.9z"/>
	<path d="M948,589.3v15.3h14.9v-15.3h9v39.9h-9v-16.7H948v16.7H939v-39.9H948z"/>
	<path d="M988.9,589.3v39.9h-9.1v-39.9H988.9z"/>
	<path d="M996.7,589.8c2.9-0.5,7.2-0.8,12-0.8c5.9,0,10.1,0.9,12.9,3.1c2.4,1.9,3.7,4.7,3.7,8.4c0,5.1-3.6,8.6-7.1,9.8v0.2
		c2.8,1.1,4.3,3.8,5.3,7.5c1.2,4.5,2.5,9.7,3.3,11.3h-9.2c-0.7-1.2-1.6-4.4-2.8-9.3c-1.1-5-2.8-6.3-6.5-6.4h-2.7v15.7h-8.9V589.8z
		 M1005.6,607h3.6c4.5,0,7.2-2.3,7.2-5.7c0-3.7-2.5-5.5-6.6-5.6c-2.2,0-3.4,0.2-4.1,0.3V607z"/>
	<path d="M1039.5,596.9h-10.7v-7.6h30.7v7.6h-10.9v32.4h-9.1V596.9z"/>
</g>
</svg>
