<?xml version="1.0" encoding="utf-8"?>
<!-- Generator: Adobe Illustrator 19.0.0, SVG Export Plug-In . SVG Version: 6.00 Build 0)  -->
<svg version="1.1" id="Layer_1" xmlns="http://www.w3.org/2000/svg" xmlns:xlink="http://www.w3.org/1999/xlink" x="0px" y="0px"
	 viewBox="636 -184 512 512" style="enable-background:new 636 -184 512 512;" xml:space="preserve">
<style type="text/css">
	.st0{fill-rule:evenodd;clip-rule:evenodd;fill:#BD2F32;}
	.st1{fill:#FFFFFF;}
</style>
<g id="XMLID_29_">
	<rect id="XMLID_28_" x="636" y="-184" class="st0" width="512" height="512"/>
	<g id="XMLID_30_">
		<rect id="XMLID_31_" x="708.3" y="255.2" class="st1" width="367.3" height="2.1"/>
	</g>
</g>
<g>
	<g transform="translate(0.000000,511.000000) scale(0.100000,-0.100000)">
		<path class="st1" d="M7622,6180c-342.6-167.3-629.2-308.7-637.1-315c-7.9-7.1-15.8-20.5-18.2-30
			c-5.5-21.3,242.4-737.3,261.3-756.3c9.5-10.2,58.4-11.8,319-14.2l307.8-2.3l1.6-1002.6l2.3-1003.4l18.9-15
			c18.2-14.2,46.6-15,1061.8-15H9984l16.6,18.2l17.4,18.2v1000.2v999.5l292.1,2.3c246.3,2.3,293.7,3.9,303.2,14.2
			c6.3,6.3,69.5,176,139.7,376.5c117.6,337.9,127.1,367.1,117.6,389.2c-7.1,18.2-26.1,31.6-86.1,61.6
			c-41.9,22.1-312.6,160.3-602.4,308.7L9656.4,6484h-705.7l-705-0.8L7622,6180z M8624.7,5883.9c220.3-369.5,288.9-480,306.3-487.9
			c49.7-23.7,44.2-31.6,333.1,457.1c147.6,250.3,276.3,467.4,285.8,483.2c14.2,23.7,22.1,29.2,41.9,29.2
			c15.8,0,207.6-93.9,582.6-285.8c307.1-156.3,559.7-286.6,561.3-287.4c1.6-1.6-44.2-137.4-101.9-303.2l-105-300h-293.7
			c-285,0-294.5-0.8-315-16.6l-20.5-15.8l-1.6-1004.2l-2.3-1004.2l-956.8-2.3l-957.6-1.6v994c0,712.1-2.3,1000.2-8.7,1013.7
			c-4.8,11-17.4,23.7-28.4,28.4c-12.6,5.5-117.6,8.7-325.2,8.7h-306.3l-104.2,297.6c-56.9,163.4-101.1,300-97.1,303.9
			c3.2,3.2,269.2,134.2,589.7,290.5c472.9,229.7,589.7,284.2,611.8,281.8l27.6-1.6L8624.7,5883.9z M9418.1,6359.9
			c0-13.4-461.9-783.2-467.4-777.6c-7.1,7.1-464.2,773.7-464.2,779.2c0,2.3,210,3.9,465.8,3.9
			C9208.8,6365.5,9418.1,6363.1,9418.1,6359.9z"/>
	</g>
</g>
<g>
	<path d="M729.3,310.4l-10.9-34h8.4l4.2,14.4c1.2,4,2.2,7.9,3.1,12.2h0.2c0.9-4.1,2-8.1,3.1-12l4.3-14.6h8.2l-11.5,34L729.3,310.4
		L729.3,310.4z"/>
	<path d="M763.6,310.4v-34h9l7.1,12.4c2,3.6,4,7.8,5.5,11.7h0.2c-0.5-4.5-0.7-9.1-0.7-14.2v-9.9h7.1v34h-8.1l-7.2-13.1
		c-2-3.7-4.3-8-5.9-12l-0.2,0.1c0.2,4.5,0.3,9.3,0.3,14.8v10.2H763.6z"/>
	<path d="M818.6,296h-12.5v8.1h14v6.3h-21.7v-34h21v6.3H806v7.1h12.5L818.6,296L818.6,296z"/>
	<path d="M850.4,309.5c-1.4,0.7-4.6,1.5-8.8,1.5c-11.8,0-17.8-7.4-17.8-17c0-11.6,8.3-18.1,18.6-18.1c4,0,7,0.8,8.4,1.5l-1.5,6.1
		c-1.5-0.7-3.8-1.3-6.5-1.3c-6.1,0-10.8,3.7-10.8,11.3c0,6.8,4,11.1,10.9,11.1c2.3,0,4.9-0.5,6.4-1.1L850.4,309.5z"/>
	<path d="M855.5,276.4h7.6v15.1h0.2c0.8-1.3,1.5-2.6,2.3-3.8l7.8-11.3h9.5l-11.3,14.5l11.8,19.5h-9l-8.4-14.7l-2.9,3.6v11.1h-7.7
		V276.4z"/>
	<path d="M901.2,282.9h-9.1v-6.5h26.2v6.5H909v27.6h-7.8V282.9z"/>
	<path d="M930.7,294.5v5.1h-13.2v-5.1H930.7z"/>
	<path d="M935.9,302.5c2,1,5.3,2.1,8.5,2.1c3.5,0,5.4-1.4,5.4-3.7c0-2.1-1.6-3.3-5.7-4.8c-5.6-2-9.4-5.1-9.4-10.1
		c0-5.8,4.9-10.2,12.9-10.2c3.8,0,6.6,0.8,8.7,1.7l-1.7,6.2c-1.4-0.7-3.8-1.6-7.2-1.6c-3.3,0-4.9,1.5-4.9,3.3c0,2.1,2,3.2,6.3,4.8
		c6.1,2.2,8.9,5.4,8.9,10.1c0,5.7-4.4,10.6-13.7,10.6c-3.9,0-7.8-1-9.6-2.1L935.9,302.5z"/>
	<path d="M970.6,276.4v13h12.7v-13h7.7v34h-7.7v-14.2h-12.7v14.2h-7.7v-34H970.6z"/>
	<path d="M1005.4,276.4v34h-7.8v-34H1005.4z"/>
	<path d="M1012.1,276.8c2.5-0.4,6.1-0.7,10.2-0.7c5,0,8.6,0.8,11,2.6c2,1.6,3.2,4,3.2,7.2c0,4.3-3.1,7.3-6.1,8.4v0.2
		c2.4,0.9,3.7,3.2,4.5,6.4c1,3.8,2.1,8.3,2.8,9.6h-7.8c-0.6-1-1.4-3.8-2.4-7.9c-0.9-4.3-2.4-5.4-5.5-5.5h-2.3v13.4h-7.6V276.8z
		 M1019.7,291.5h3.1c3.8,0,6.1-2,6.1-4.9c0-3.2-2.1-4.7-5.6-4.8c-1.9,0-2.9,0.2-3.5,0.3L1019.7,291.5L1019.7,291.5z"/>
	<path d="M1048.5,282.9h-9.1v-6.5h26.2v6.5h-9.3v27.6h-7.8V282.9z"/>
</g>
<g>
	<path class="st1" d="M723.6,310.4l-10.9-34h8.4l4.2,14.4c1.2,4,2.2,7.9,3.1,12.2h0.2c0.9-4.1,2-8.1,3.1-12l4.3-14.6h8.2l-11.5,34
		L723.6,310.4L723.6,310.4z"/>
	<path class="st1" d="M757.9,310.4v-34h9l7.1,12.4c2,3.6,4,7.8,5.5,11.7h0.2c-0.5-4.5-0.7-9.1-0.7-14.2v-9.9h7.1v34h-8.1l-7.2-13.1
		c-2-3.7-4.3-8-5.9-12l-0.2,0.1c0.2,4.5,0.3,9.3,0.3,14.8v10.2H757.9z"/>
	<path class="st1" d="M813,296h-12.5v8.1h14v6.3h-21.7v-34h21v6.3h-13.3v7.1h12.5L813,296L813,296z"/>
	<path class="st1" d="M844.7,309.5c-1.4,0.7-4.6,1.5-8.8,1.5c-11.8,0-17.8-7.4-17.8-17c0-11.6,8.3-18.1,18.6-18.1c4,0,7,0.8,8.4,1.5
		l-1.5,6.1c-1.5-0.7-3.8-1.3-6.5-1.3c-6.1,0-10.8,3.7-10.8,11.3c0,6.8,4,11.1,10.9,11.1c2.3,0,4.9-0.5,6.4-1.1L844.7,309.5z"/>
	<path class="st1" d="M849.8,276.4h7.6v15.1h0.2c0.8-1.3,1.5-2.6,2.3-3.8l7.8-11.3h9.5l-11.3,14.5l11.8,19.5h-9l-8.4-14.7l-2.9,3.6
		v11.1h-7.7V276.4z"/>
	<path class="st1" d="M895.6,282.9h-9.1v-6.5h26.2v6.5h-9.3v27.6h-7.8V282.9z"/>
	<path class="st1" d="M925.1,294.5v5.1h-13.2v-5.1H925.1z"/>
	<path class="st1" d="M930.2,302.5c2,1,5.3,2.1,8.5,2.1c3.5,0,5.4-1.4,5.4-3.7c0-2.1-1.6-3.3-5.7-4.8c-5.6-2-9.4-5.1-9.4-10.1
		c0-5.8,4.9-10.2,12.9-10.2c3.8,0,6.6,0.8,8.7,1.7l-1.7,6.2c-1.4-0.7-3.8-1.6-7.2-1.6c-3.3,0-4.9,1.5-4.9,3.3c0,2.1,2,3.2,6.3,4.8
		c6.1,2.2,8.9,5.4,8.9,10.1c0,5.7-4.4,10.6-13.7,10.6c-3.9,0-7.8-1-9.6-2.1L930.2,302.5z"/>
	<path class="st1" d="M964.9,276.4v13h12.7v-13h7.7v34h-7.7v-14.2h-12.7v14.2h-7.7v-34H964.9z"/>
	<path class="st1" d="M999.7,276.4v34H992v-34H999.7z"/>
	<path class="st1" d="M1006.4,276.8c2.5-0.4,6.1-0.7,10.2-0.7c5,0,8.6,0.8,11,2.6c2,1.6,3.2,4,3.2,7.2c0,4.3-3.1,7.3-6.1,8.4v0.2
		c2.4,0.9,3.7,3.2,4.5,6.4c1,3.8,2.1,8.3,2.8,9.6h-7.8c-0.6-1-1.4-3.8-2.4-7.9c-0.9-4.3-2.4-5.4-5.5-5.5h-2.3v13.4h-7.6V276.8z
		 M1014,291.5h3.1c3.8,0,6.1-2,6.1-4.9c0-3.2-2.1-4.7-5.6-4.8c-1.9,0-2.9,0.2-3.5,0.3L1014,291.5L1014,291.5z"/>
	<path class="st1" d="M1042.9,282.9h-9.1v-6.5h26.2v6.5h-9.3v27.6h-7.8V282.9z"/>
</g>
</svg>
