<?xml version="1.0" encoding="utf-8"?>
<!-- Generator: Adobe Illustrator 19.0.0, SVG Export Plug-In . SVG Version: 6.00 Build 0)  -->
<svg version="1.1" id="Layer_1" xmlns="http://www.w3.org/2000/svg" xmlns:xlink="http://www.w3.org/1999/xlink" x="0px" y="0px"
	 viewBox="464 -464 1000 1000" style="enable-background:new 464 -464 1000 1000;" xml:space="preserve">
<g>
	<g transform="translate(0.000000,511.000000) scale(0.100000,-0.100000)">
		<path d="M6383.9,8324.5c-859.5-419.8-1578.3-774.3-1598.2-790.2c-19.8-17.8-39.6-51.5-45.5-75.3
			c-13.9-53.5,608-1849.6,655.5-1897.2c23.8-25.7,146.5-29.7,800.1-35.6l772.3-5.9l4-2515l5.9-2517.1l47.5-37.6
			c45.6-35.6,116.8-37.6,2663.6-37.6h2620l41.6,45.5l43.6,45.5v2509.1v2507.3l732.7,5.9c617.9,5.9,736.7,9.9,760.5,35.6
			c15.8,15.8,174.3,441.6,350.5,944.6c295.1,847.6,318.8,920.9,295.1,976.3c-17.8,45.5-65.4,79.2-215.9,154.5
			c-105,55.5-784.2,402-1511,774.3L11487.3,9087H9716.9l-1768.5-2L6383.9,8324.5z M8899,7581.9
			c552.5-926.8,724.8-1204.1,768.4-1223.9c124.7-59.4,110.9-79.2,835.7,1146.6c370.3,627.8,693.1,1172.4,716.9,1212
			c35.6,59.4,55.4,73.3,105,73.3c39.6,0,520.8-235.7,1461.5-716.9c770.4-392.1,1404.1-718.9,1408-720.8
			c3.9-4-110.9-344.6-255.5-760.5l-263.4-752.5h-736.7c-714.9,0-738.7-2-790.2-41.6l-51.5-39.6l-4-2519l-5.9-2519l-2400.2-5.9
			l-2402.2-4v2493.3c0,1786.3-5.9,2509.1-21.8,2542.8c-11.9,27.7-43.6,59.4-71.3,71.3c-31.7,13.9-295.1,21.8-815.9,21.8h-768.3
			l-261.4,746.6c-142.6,409.9-253.5,752.5-243.6,762.4c7.9,7.9,675.3,336.7,1479.3,728.8c1186.2,576.3,1479.3,712.9,1534.8,707
			l69.3-4L8899,7581.9z M10889.2,8776c0-33.7-1158.5-1964.5-1172.4-1950.6C9699,6843.2,8552.4,8766.2,8552.4,8780
			c0,5.9,526.8,9.9,1168.4,9.9C10364.4,8789.9,10889.2,8784,10889.2,8776z"/>
	</g>
</g>
</svg>
