<?xml version="1.0" encoding="utf-8"?>
<!-- Generator: Adobe Illustrator 19.0.0, SVG Export Plug-In . SVG Version: 6.00 Build 0)  -->
<svg version="1.1" id="Layer_1" xmlns="http://www.w3.org/2000/svg" xmlns:xlink="http://www.w3.org/1999/xlink" x="0px" y="0px"
	 viewBox="0 0 72 72" style="enable-background:new 0 0 72 72;" xml:space="preserve">
<g id="XMLID_539_">
	<path id="XMLID_955_" d="M22.9,46.5c0-2.9,0.5-5.5,1.6-8c1-2.3,2.6-3.7,5.2-4.2c6.5-1.3,12.9-2.8,19.4-4.1c4.6-1,9.2-2,13.9-2.9
		c2-0.4,3.4,0.4,4.1,2.5c0.8,2.3,0.7,4.6,0.3,6.9c-0.5,2.9-1.4,5.7-3.2,8.1c-0.8,1-1.7,1.7-2.9,2.1c-8.1,2.9-16.3,5.7-24.6,8
		c-2.1,0.6-4.2,1.1-6.3,1.6C28.1,57,26,56,24.8,54C23.3,51.7,23,49,22.9,46.5z M26,44.3c0.2-0.6,0.4-1.2,0.7-1.8
		c0.8-1.7,1.9-3.3,3.8-3.8c4.6-1.1,9.3-2.1,13.9-3.2c5.3-1.2,10.5-2.4,15.8-3.5c1.8-0.4,3.6-1.4,5.6-0.4c-0.7-1.7-1.8-2.4-3.6-2
		c-3.7,0.8-7.4,1.6-11.1,2.4C44.5,33.5,37.7,35,31,36.5c-0.8,0.2-1.7,0.6-2.3,1.2C26.8,39.4,26.2,41.8,26,44.3z"/>
	<path id="XMLID_769_" d="M62,25.7c-4.8,1-9.4,2-14,2.9c-5.9,1.2-11.8,2.5-17.6,3.8c-1.1,0.2-2.2,0.5-3.3,0.7
		c-2.2,0.6-3.5,2.2-4.3,4.2c-1.8,4.1-2.3,8.3-1.2,12.7c0.2,0.6,0.4,1.3,0.7,2.1c-1.6-1.5-3-2.9-4.5-4.2c-0.9-0.9-1.9-1.8-2.8-2.7
		c-2.7-2.8-3.6-6.2-3.2-9.9c0.2-2.1,0.9-4.1,2.5-5.5c1.2-1.1,2.7-1.6,4.4-1.6c3.4,0.1,6.8,0.3,10.1,0.3c5.2,0,10.3-0.5,15.3-2.1
		c2.8-0.9,5.5-2.1,7.9-3.8c0.4-0.3,1.1-0.5,1.5-0.3C56.2,23.3,59,24.5,62,25.7z M20.3,40.5c0.4-2.5,1.4-4.7,3-6.5
		c-0.1-0.1-0.1-0.2-0.2-0.2c-2.2-1.2-4.4-2.5-6.7-3.7c-0.2-0.1-0.7-0.1-0.9,0.1c-1.5,1.1-2.1,2.6-2.5,4.3c-0.1,0.4,0,0.7,0.3,0.9
		c1.2,0.8,2.3,1.7,3.5,2.6C18,38.9,19.1,39.7,20.3,40.5z"/>
	<path id="XMLID_767_" d="M51.2,21.2c-1.9,1.6-4,2.6-6.2,3.5c-0.2,0.1-0.6-0.1-0.8-0.2c-2.1-1.1-4.2-2.4-6.4-3.3
		c-3.2-1.4-6.6-1.2-9.9-0.5c-5.1,1-10.2,2-15.2,3.1C10.7,24,9,24.6,7.6,26c-1.6-1.5-1.4-4.3,0.4-5.6c1.6-1.1,3.4-1.5,5.2-1.8
		c5.5-0.9,11-1.9,16.5-2.9c4.5-0.8,8.7-0.1,12.9,1.6C45.4,18.5,48.2,19.9,51.2,21.2z"/>
	<path id="XMLID_766_" d="M5.6,23c-0.4,3,1.5,4.6,3.7,5.9c0.9,0.5,1.8,1,2.8,1.6c-1.6,2.7-2,5.6-1.4,8.9c-1.2-1.3-2.3-2.4-3.4-3.6
		C7,35.4,6.7,35,6.4,34.7c-1.5-1.6-2.2-3.5-2-5.7C4.5,27.3,4.7,25.7,5,24c0-0.4,0.3-0.7,0.4-1.1C5.5,23,5.5,23,5.6,23z"/>
</g>
</svg>
