<?xml version="1.0" encoding="utf-8"?>
<!-- Generator: Adobe Illustrator 19.0.0, SVG Export Plug-In . SVG Version: 6.00 Build 0)  -->
<svg version="1.1" id="Layer_1" xmlns="http://www.w3.org/2000/svg" xmlns:xlink="http://www.w3.org/1999/xlink" x="0px" y="0px"
	 viewBox="-291 -183 512 512" style="enable-background:new -291 -183 512 512;" xml:space="preserve">
<style type="text/css">
	.st0{fill-rule:evenodd;clip-rule:evenodd;fill:#BD2F32;}
	.st1{fill:#FFFFFF;}
</style>
<g id="XMLID_29_">
	<rect id="XMLID_28_" x="-291" y="-183" class="st0" width="512" height="512"/>
	<g id="XMLID_30_">
		<rect id="XMLID_31_" x="-218.7" y="256.2" class="st1" width="367.3" height="2.1"/>
	</g>
</g>
<g id="XMLID_539_">
	<path id="XMLID_955_" class="st1" d="M-115.9,137.7c0-17.9,3.1-33.9,9.9-49.3c6.2-14.2,16-22.8,32-25.9c40-8,79.4-17.2,119.5-25.2
		C73.8,31.1,102.1,25,131,19.4c12.3-2.5,20.9,2.5,25.2,15.4c4.9,14.2,4.3,28.3,1.8,42.5c-3.1,17.9-8.6,35.1-19.7,49.9
		c-4.9,6.2-10.5,10.5-17.9,12.9C70.7,158,20.2,175.2-30.9,189.4c-12.9,3.7-25.9,6.8-38.8,9.9c-14.2,3.1-27.1-3.1-34.5-15.4
		C-113.4,169.7-115.3,153.1-115.9,137.7z M-96.8,124.1c1.2-3.7,2.5-7.4,4.3-11.1c4.9-10.5,11.7-20.3,23.4-23.4
		c28.3-6.8,57.3-12.9,85.6-19.7c32.6-7.4,64.7-14.8,97.3-21.6c11.1-2.5,22.2-8.6,34.5-2.5c-4.3-10.5-11.1-14.8-22.2-12.3
		c-22.8,4.9-45.6,9.9-68.3,14.8C17.1,57.6-24.7,66.9-66,76.1c-4.9,1.2-10.5,3.7-14.2,7.4C-91.9,93.9-95.6,108.7-96.8,124.1z"/>
	<path id="XMLID_769_" class="st1" d="M124.9,9.6C95.3,15.7,67,21.9,38.7,27.4C2.3,34.8-34,42.8-69.7,50.8
		c-6.8,1.2-13.5,3.1-20.3,4.3c-13.5,3.7-21.6,13.5-26.5,25.9c-11.1,25.2-14.2,51.1-7.4,78.2c1.2,3.7,2.5,8,4.3,12.9
		c-9.9-9.2-18.5-17.9-27.7-25.9c-5.5-5.5-11.7-11.1-17.2-16.6c-16.6-17.2-22.2-38.2-19.7-61c1.2-12.9,5.5-25.2,15.4-33.9
		c7.4-6.8,16.6-9.9,27.1-9.9c20.9,0.6,41.9,1.8,62.2,1.8c32,0,63.4-3.1,94.2-12.9C31.9,8.4,48.5,1,63.3-9.5c2.5-1.8,6.8-3.1,9.2-1.8
		C89.2-5.2,106.4,2.2,124.9,9.6z M-131.9,100.7c2.5-15.4,8.6-28.9,18.5-40c-0.6-0.6-0.6-1.2-1.2-1.2c-13.5-7.4-27.1-15.4-41.3-22.8
		c-1.2-0.6-4.3-0.6-5.5,0.6c-9.2,6.8-12.9,16-15.4,26.5c-0.6,2.5,0,4.3,1.8,5.5c7.4,4.9,14.2,10.5,21.6,16
		C-146.1,90.9-139.3,95.8-131.9,100.7z"/>
	<path id="XMLID_767_" class="st1" d="M58.4-18.1C46.7-8.3,33.8-2.1,20.2,3.4C19,4,16.5,2.8,15.3,2.2C2.3-4.6-10.6-12.6-24.1-18.1
		c-19.7-8.6-40.6-7.4-61-3.1c-31.4,6.2-62.8,12.3-93.6,19.1c-12.3,1.2-22.8,4.9-31.4,13.5c-9.9-9.2-8.6-26.5,2.5-34.5
		c9.9-6.8,20.9-9.2,32-11.1C-141.7-39.7-107.9-45.8-74-52c27.7-4.9,53.6-0.6,79.4,9.9C22.7-34.7,39.9-26.1,58.4-18.1z"/>
	<path id="XMLID_766_" class="st1" d="M-222.4-7c-2.5,18.5,9.2,28.3,22.8,36.3c5.5,3.1,11.1,6.2,17.2,9.9
		c-9.9,16.6-12.3,34.5-8.6,54.8c-7.4-8-14.2-14.8-20.9-22.2c-1.8-2.5-3.7-4.9-5.5-6.8c-9.2-9.9-13.5-21.6-12.3-35.1
		c0.6-10.5,1.8-20.3,3.7-30.8c0-2.5,1.8-4.3,2.5-6.8C-223-7-223-7-222.4-7z"/>
</g>
<g>
	<path d="M-151.6,307.2l-9.8-30.4h7.5l3.8,12.8c1.1,3.8,1.9,7.1,2.6,10.9l0,0c0.8-3.8,1.9-7.1,2.6-10.9l3.8-13.1h7.1l-10.1,30.4
		h-7.5V307.2z"/>
	<path d="M-130.2,277.1c2.3-0.4,5.6-0.8,9-0.8c4.5,0,7.5,0.8,9.8,2.3c1.9,1.5,2.6,3.4,2.6,6.4c0,3.8-2.6,6.4-5.3,7.5l0,0
		c2.3,0.8,3.4,3,4.1,5.6c1.1,3.4,1.9,7.5,2.6,8.6h-7.1c-0.4-0.8-1.1-3.4-2.3-7.1c-0.8-3.8-2.3-4.9-4.9-4.9h-2.3v12h-6.8v-29.7
		H-130.2z M-123.4,290.3h2.6c3.4,0,5.6-1.9,5.6-4.5c0-2.6-1.9-4.1-4.9-4.1c-1.5,0-2.6,0-3,0.4v8.3H-123.4z"/>
	<path d="M-87.4,276.8v11.6h11.3v-11.6h6.8v30.4h-6.8v-12.8h-11.3v12.8h-6.8v-30.4H-87.4z"/>
	<path d="M-45.3,294h-11.3v7.1h12.4v5.6h-19.5v-30.4H-45v5.6h-12v6.4h11.3v5.6H-45.3z"/>
	<path d="M-32.2,299.3l-2.3,7.9h-7.1l9.4-30.4h9l9.4,30.4h-7.5l-2.3-7.9H-32.2z M-24.3,294l-1.9-6.4c-0.4-1.9-1.1-4.1-1.5-6l0,0
		c-0.4,1.9-0.8,4.1-1.5,6l-1.9,6.4H-24.3z"/>
	<path d="M-9.7,277.1c2.6-0.4,5.6-0.8,9.4-0.8c5.6,0,9.4,1.1,12.4,3.4c3,2.3,5.3,6,5.3,11.3c0,5.6-2.3,9.8-4.9,12.4
		c-3.4,2.6-7.9,3.8-13.9,3.8c-3.4,0-6-0.4-7.9-0.4v-29.7H-9.7z M-2.9,301.9c0.8,0,1.5,0,2.3,0c6.4,0,10.1-3.4,10.1-10.5
		c0-6.4-3.8-9.8-9.4-9.8c-1.5,0-2.6,0-3,0.4V301.9z"/>
	<path d="M21.9,300c1.9,1.1,4.5,1.9,7.5,1.9s4.9-1.1,4.9-3.4c0-1.9-1.5-3-5.3-4.1c-4.9-1.9-8.3-4.5-8.3-9c0-5.3,4.5-9,11.6-9
		c3.4,0,6,0.8,7.9,1.5l-1.5,5.6c-1.1-0.8-3.4-1.5-6.4-1.5s-4.5,1.5-4.5,3c0,1.9,1.9,2.6,5.6,4.1c5.3,1.9,7.9,4.9,7.9,9
		c0,5.3-3.8,9.4-12.4,9.4c-3.4,0-6.8-1.1-8.6-1.9L21.9,300z"/>
	<path d="M64.3,294H53.1v7.1h12.4v5.6H45.9v-30.4h18.8v5.6h-12v6.4h11.3v5.6H64.3z"/>
	<path d="M76.3,282.4h-8.3v-5.6h23.3v5.6h-8.3v24.4h-6.8V282.4z"/>
</g>
<g>
	<path class="st1" d="M-157.3,307.2l-9.8-30.4h7.5l3.8,12.8c1.1,3.8,1.9,7.1,2.6,10.9l0,0c0.8-3.8,1.9-7.1,2.6-10.9l3.8-13.1h7.1
		l-10.1,30.4h-7.5V307.2z"/>
	<path class="st1" d="M-135.9,277.1c2.3-0.4,5.6-0.8,9-0.8c4.5,0,7.5,0.8,9.8,2.3c1.9,1.5,2.6,3.4,2.6,6.4c0,3.8-2.6,6.4-5.3,7.5
		l0,0c2.3,0.8,3.4,3,4.1,5.6c1.1,3.4,1.9,7.5,2.6,8.6h-7.1c-0.4-0.8-1.1-3.4-2.3-7.1c-0.8-3.8-2.3-4.9-4.9-4.9h-2.3v12h-6.8v-29.7
		H-135.9z M-129.1,290.3h2.6c3.4,0,5.6-1.9,5.6-4.5c0-2.6-1.9-4.1-4.9-4.1c-1.5,0-2.6,0-3,0.4v8.3H-129.1z"/>
	<path class="st1" d="M-93,276.8v11.6h11.3v-11.6h6.8v30.4h-6.8v-12.8H-93v12.8h-6.8v-30.4H-93z"/>
	<path class="st1" d="M-51,294h-11.3v7.1h12.4v5.6h-19.5v-30.4h18.8v5.6h-12v6.4h11.3v5.6H-51z"/>
	<path class="st1" d="M-37.9,299.3l-2.3,7.9h-7.1l9.4-30.4h9l9.4,30.4H-27l-2.3-7.9H-37.9z M-30,294l-1.9-6.4
		c-0.4-1.9-1.1-4.1-1.5-6l0,0c-0.4,1.9-0.8,4.1-1.5,6l-1.9,6.4H-30z"/>
	<path class="st1" d="M-15.3,277.1c2.6-0.4,5.6-0.8,9.4-0.8c5.6,0,9.4,1.1,12.4,3.4c3,2.3,5.3,6,5.3,11.3c0,5.6-2.3,9.8-4.9,12.4
		c-3.4,2.6-7.9,3.8-13.9,3.8c-3.4,0-6-0.4-7.9-0.4v-29.7H-15.3z M-8.6,301.9c0.8,0,1.5,0,2.3,0c6.4,0,10.1-3.4,10.1-10.5
		c0-6.4-3.8-9.8-9.4-9.8c-1.5,0-2.6,0-3,0.4V301.9z"/>
	<path class="st1" d="M16.2,300c1.9,1.1,4.5,1.9,7.5,1.9s4.9-1.1,4.9-3.4c0-1.9-1.5-3-5.3-4.1c-4.9-1.9-8.3-4.5-8.3-9
		c0-5.3,4.5-9,11.6-9c3.4,0,6,0.8,7.9,1.5l-1.5,5.6c-1.1-0.8-3.4-1.5-6.4-1.5s-4.5,1.5-4.5,3c0,1.9,1.9,2.6,5.6,4.1
		c5.3,1.9,7.9,4.9,7.9,9c0,5.3-3.8,9.4-12.4,9.4c-3.4,0-6.8-1.1-8.6-1.9L16.2,300z"/>
	<path class="st1" d="M58.6,294H47.4v7.1h12.4v5.6H40.2v-30.4H59v5.6H47v6.4h11.3v5.6H58.6z"/>
	<path class="st1" d="M70.7,282.4h-8.3v-5.6h23.3v5.6h-8.3v24.4h-6.8V282.4z"/>
</g>
</svg>
