<?xml version="1.0" encoding="utf-8"?>
<!-- Generator: Adobe Illustrator 19.0.0, SVG Export Plug-In . SVG Version: 6.00 Build 0)  -->
<svg version="1.1" id="Layer_1" xmlns="http://www.w3.org/2000/svg" xmlns:xlink="http://www.w3.org/1999/xlink" x="0px" y="0px"
	 viewBox="-107 181 72 72" style="enable-background:new -107 181 72 72;" xml:space="preserve">
<g id="XMLID_539_">
	<path id="XMLID_955_" d="M-84.1,221c0-2.9,0.5-5.5,1.6-8c1-2.3,2.6-3.7,5.2-4.2c6.5-1.3,12.9-2.8,19.4-4.1c4.6-1,9.2-2,13.9-2.9
		c2-0.4,3.4,0.4,4.1,2.5c0.8,2.3,0.7,4.6,0.3,6.9c-0.5,2.9-1.4,5.7-3.2,8.1c-0.8,1-1.7,1.7-2.9,2.1c-8.1,2.9-16.3,5.7-24.6,8
		c-2.1,0.6-4.2,1.1-6.3,1.6c-2.3,0.5-4.4-0.5-5.6-2.5C-83.7,226.2-84,223.5-84.1,221z M-81,218.8c0.2-0.6,0.4-1.2,0.7-1.8
		c0.8-1.7,1.9-3.3,3.8-3.8c4.6-1.1,9.3-2.1,13.9-3.2c5.3-1.2,10.5-2.4,15.8-3.5c1.8-0.4,3.6-1.4,5.6-0.4c-0.7-1.7-1.8-2.4-3.6-2
		c-3.7,0.8-7.4,1.6-11.1,2.4c-6.6,1.5-13.4,3-20.1,4.5c-0.8,0.2-1.7,0.6-2.3,1.2C-80.2,213.9-80.8,216.3-81,218.8z"/>
	<path id="XMLID_769_" d="M-45,200.2c-4.8,1-9.4,2-14,2.9c-5.9,1.2-11.8,2.5-17.6,3.8c-1.1,0.2-2.2,0.5-3.3,0.7
		c-2.2,0.6-3.5,2.2-4.3,4.2c-1.8,4.1-2.3,8.3-1.2,12.7c0.2,0.6,0.4,1.3,0.7,2.1c-1.6-1.5-3-2.9-4.5-4.2c-0.9-0.9-1.9-1.8-2.8-2.7
		c-2.7-2.8-3.6-6.2-3.2-9.9c0.2-2.1,0.9-4.1,2.5-5.5c1.2-1.1,2.7-1.6,4.4-1.6c3.4,0.1,6.8,0.3,10.1,0.3c5.2,0,10.3-0.5,15.3-2.1
		c2.8-0.9,5.5-2.1,7.9-3.8c0.4-0.3,1.1-0.5,1.5-0.3C-50.8,197.8-48,199-45,200.2z M-86.7,215c0.4-2.5,1.4-4.7,3-6.5
		c-0.1-0.1-0.1-0.2-0.2-0.2c-2.2-1.2-4.4-2.5-6.7-3.7c-0.2-0.1-0.7-0.1-0.9,0.1c-1.5,1.1-2.1,2.6-2.5,4.3c-0.1,0.4,0,0.7,0.3,0.9
		c1.2,0.8,2.3,1.7,3.5,2.6C-89,213.4-87.9,214.2-86.7,215z"/>
	<path id="XMLID_767_" d="M-55.8,195.7c-1.9,1.6-4,2.6-6.2,3.5c-0.2,0.1-0.6-0.1-0.8-0.2c-2.1-1.1-4.2-2.4-6.4-3.3
		c-3.2-1.4-6.6-1.2-9.9-0.5c-5.1,1-10.2,2-15.2,3.1c-2,0.2-3.7,0.8-5.1,2.2c-1.6-1.5-1.4-4.3,0.4-5.6c1.6-1.1,3.4-1.5,5.2-1.8
		c5.5-0.9,11-1.9,16.5-2.9c4.5-0.8,8.7-0.1,12.9,1.6C-61.6,193-58.8,194.4-55.8,195.7z"/>
	<path id="XMLID_766_" d="M-101.4,197.5c-0.4,3,1.5,4.6,3.7,5.9c0.9,0.5,1.8,1,2.8,1.6c-1.6,2.7-2,5.6-1.4,8.9
		c-1.2-1.3-2.3-2.4-3.4-3.6c-0.3-0.4-0.6-0.8-0.9-1.1c-1.5-1.6-2.2-3.5-2-5.7c0.1-1.7,0.3-3.3,0.6-5c0-0.4,0.3-0.7,0.4-1.1
		C-101.5,197.5-101.5,197.5-101.4,197.5z"/>
</g>
<g>
	<path d="M-102.1,247.3l-2.6-8.1h2l1,3.4c0.3,1,0.5,1.9,0.7,2.9h0c0.2-1,0.5-1.9,0.7-2.9l1-3.5h1.9l-2.7,8.1H-102.1z"/>
	<path d="M-96.4,239.3c0.6-0.1,1.5-0.2,2.4-0.2c1.2,0,2,0.2,2.6,0.6c0.5,0.4,0.7,0.9,0.7,1.7c0,1-0.7,1.7-1.4,2v0
		c0.6,0.2,0.9,0.8,1.1,1.5c0.3,0.9,0.5,2,0.7,2.3h-1.9c-0.1-0.2-0.3-0.9-0.6-1.9c-0.2-1-0.6-1.3-1.3-1.3h-0.6v3.2h-1.8V239.3z
		 M-94.6,242.8h0.7c0.9,0,1.5-0.5,1.5-1.2c0-0.7-0.5-1.1-1.3-1.1c-0.4,0-0.7,0-0.8,0.1V242.8z"/>
	<path d="M-85,239.2v3.1h3v-3.1h1.8v8.1H-82v-3.4h-3v3.4h-1.8v-8.1H-85z"/>
	<path d="M-73.8,243.8h-3v1.9h3.3v1.5h-5.2v-8.1h5v1.5h-3.2v1.7h3V243.8z"/>
	<path d="M-70.3,245.2l-0.6,2.1h-1.9l2.5-8.1h2.4l2.5,8.1h-2l-0.6-2.1H-70.3z M-68.2,243.8l-0.5-1.7c-0.1-0.5-0.3-1.1-0.4-1.6h0
		c-0.1,0.5-0.2,1.1-0.4,1.6l-0.5,1.7H-68.2z"/>
	<path d="M-64.3,239.3c0.7-0.1,1.5-0.2,2.5-0.2c1.5,0,2.5,0.3,3.3,0.9c0.8,0.6,1.4,1.6,1.4,3c0,1.5-0.6,2.6-1.3,3.3
		c-0.9,0.7-2.1,1-3.7,1c-0.9,0-1.6-0.1-2.1-0.1V239.3z M-62.5,245.9c0.2,0,0.4,0,0.6,0c1.7,0,2.7-0.9,2.7-2.8c0-1.7-1-2.6-2.5-2.6
		c-0.4,0-0.7,0-0.8,0.1V245.9z"/>
	<path d="M-55.9,245.4c0.5,0.3,1.2,0.5,2,0.5c0.8,0,1.3-0.3,1.3-0.9c0-0.5-0.4-0.8-1.4-1.1c-1.3-0.5-2.2-1.2-2.2-2.4
		c0-1.4,1.2-2.4,3.1-2.4c0.9,0,1.6,0.2,2.1,0.4l-0.4,1.5c-0.3-0.2-0.9-0.4-1.7-0.4c-0.8,0-1.2,0.4-1.2,0.8c0,0.5,0.5,0.7,1.5,1.1
		c1.4,0.5,2.1,1.3,2.1,2.4c0,1.4-1,2.5-3.3,2.5c-0.9,0-1.8-0.3-2.3-0.5L-55.9,245.4z"/>
	<path d="M-44.6,243.8h-3v1.9h3.3v1.5h-5.2v-8.1h5v1.5h-3.2v1.7h3V243.8z"/>
	<path d="M-41.4,240.7h-2.2v-1.5h6.2v1.5h-2.2v6.5h-1.8V240.7z"/>
</g>
</svg>
