<?xml version="1.0" encoding="utf-8"?>
<!-- Generator: Adobe Illustrator 19.0.0, SVG Export Plug-In . SVG Version: 6.00 Build 0)  -->
<svg version="1.1" id="Layer_1" xmlns="http://www.w3.org/2000/svg" xmlns:xlink="http://www.w3.org/1999/xlink" x="0px" y="0px"
	 viewBox="0 0 72 72" style="enable-background:new 0 0 72 72;" xml:space="preserve">
<style type="text/css">
	.st0{fill:#010101;}
</style>
<g id="XMLID_1091_">
	<g id="XMLID_1092_" transform="translate(0.000000,511.000000) scale(0.100000,-0.100000)">
		<path id="XMLID_1129_" class="st0" d="M462.1,5037.6c-29-7.2-110-27.4-180-44.9c-70-17.4-129.7-32.3-132.4-33.2
			c-3.2-0.9-8-4.3-12.7-9c-5.9-5.9-7.9-9-10-15.7l-2.5-8.3l-8-2.9c-12.7-4.6-22.4-10.9-33.2-21.7c-10.4-10.5-16.6-19.8-22-32.9
			c-7.1-17.9-7.1-15.5-6.7-183.2c0.5-174.6-0.4-159.6,11.2-183.2c5.1-10.4,8-14.4,17.4-23.7c12.5-12.5,24.9-19.9,42.3-25.3l9.9-3
			l197.7-0.4c139.7-0.3,201,0,208.9,1.1c28.1,3.7,51.4,17.3,68,39.5c8.3,11.2,15.6,29.8,17.1,43.9c0.5,4.5,1.1,28.3,1.1,53l0.1,44.8
			l11.3,0.7c9.9,0.7,12,1.2,16.3,4.5c9.4,7.1,9.9,9.8,9.9,52.6c0,42-0.3,43.5-8.3,50.6c-5.7,5-12,7-22.3,7h-7.5l-0.4,52.4l-0.4,52.3
			l-3.7,10.5c-4.7,13.6-12,25.8-21.7,36.5l-7.8,8.7l-1.1,12.9c-1.6,22.9-3.2,31.9-6.5,38.5c-3.3,6.6-9.9,13.3-16.3,16.6
			c-3.3,1.7-4.1,3.7-9.4,25.3c-3.2,13-6.8,25.7-8.2,28.2c-3.2,6.5-11.3,13.8-18.3,17C521.4,5052.2,519.3,5051.9,462.1,5037.6z
			 M534,5037c8.2-5.5,11.1-11.3,16.9-34.4c2.9-11.6,5.1-21.1,5-21.2c-0.1,0-89.5-7.9-198.5-17.5c-118.3-10.5-200.3-18.3-203.3-19.4
			c-5.8-2-16.3-9-17.3-11.3c-0.5-1.2-0.8-1.1-0.8,0.4c-0.3,3.6,7.4,12.8,12.7,15.6c2.8,1.3,68.5,18.3,146,37.6
			c77.6,19.4,158.5,39.5,179.9,44.9C518.6,5042.7,524.5,5043.2,534,5037z M561,4969.7c14-4.1,19.6-13.4,21.6-35.2
			c0.7-8.2,1.3-15.9,1.3-17.3c0-2-1.3-1.6-9.4,2.5c-5.1,2.5-14,5.9-19.5,7.5l-10,2.9l-198.3,0.7c-195.6,0.7-198.3,0.7-193.7,3.2
			c3.3,1.8,10.3,3,25,4.5c38.5,3.7,367,32.8,371.7,33.1C552.3,4971.5,557.5,4970.7,561,4969.7z M551.5,4913.7
			c27.8-7.1,49.8-27.7,59-55.3c2.8-8.2,2.9-11.3,3.4-59.6l0.4-51.1h-17.7c-16.6,0-17.8,0.1-18.5,2.6c-0.4,1.4-1.7,2.6-2.9,2.6
			c-1.2,0-2.5-1.2-2.9-2.6c-0.7-2.5-1.8-2.6-39.8-2.6c-30.8,0-40.7-0.4-46.9-2c-35.5-9.4-53.2-47-37.7-80.4
			c7.6-16.3,24-29,42.2-32.3c3.8-0.8,23.9-1.3,44.3-1.3c36.1,0,37.3-0.1,38-2.6c0.9-3.4,4.9-3.4,5.8,0c0.7,2.5,1.8,2.6,18.5,2.6
			h17.7l-0.4-50.3c-0.4-47.8-0.7-50.9-3.3-59c-5.9-17.4-18.2-33.9-32.9-44c-11.5-7.8-24.2-12.3-40.1-14c-7.9-0.8-82.8-1.2-205.4-0.9
			c-178.4,0.4-193.7,0.5-201,2.6c-26,7.5-44.4,22.9-55.5,46.3c-8.7,18.3-8.6,15-8,183.4c0.4,140.9,0.5,151.9,2.8,159.2
			c4.5,15.2,10.9,25.8,22.4,37c11.9,11.7,20.3,16.9,35.1,21.3l9.9,2.9h201.8C536.3,4916.3,541.7,4916.2,551.5,4913.7z M649.3,4730.4
			c2.4-2.5,2.5-5.5,2.9-38.3c0.5-37.7,0-41.5-5.4-44.4c-2.1-1.2-23.1-1.4-80.7-1.2l-77.8,0.4l-6.6,3.3c-8.4,4.1-17.7,13.3-21.7,21.7
			c-2.5,5.3-3.2,8.7-3.2,17.8c-0.1,9.6,0.4,12.3,3.4,18.4c4.7,9.6,13.3,17.8,22.9,21.7l7.8,3.3h77.9
			C646.4,4733.2,646.8,4733.2,649.3,4730.4z"/>
		<path id="XMLID_1084_" class="st0" d="M153,4878.8c-1.4-1.7-1.4-2.4,0.3-4.1c1.6-1.6,3.8-1.7,12.4-0.9c9.2,0.9,10.4,1.3,10.4,3.7
			c0,2.4-1.1,2.6-10.7,3C157,4880.7,154.4,4880.3,153,4878.8z"/>
		<path id="XMLID_1083_" class="st0" d="M196.1,4879c-1.6-4,1.1-5,12.4-4.6c10,0.4,11.1,0.7,11.1,3c0,2.4-1.1,2.6-11.3,3
			C199.6,4880.7,196.7,4880.5,196.1,4879z"/>
		<path id="XMLID_1082_" class="st0" d="M240,4877.5c0-3.3,0.1-3.3,11.9-3.3s11.9,0,11.9,3.3c0,3.3-0.1,3.3-11.9,3.3
			C240.1,4880.7,240,4880.7,240,4877.5z"/>
		<path id="XMLID_1081_" class="st0" d="M283.5,4877.5c0-3.3,0.1-3.3,11.9-3.3s11.9,0,11.9,3.3c0,3.3-0.1,3.3-11.9,3.3
			C283.6,4880.7,283.5,4880.7,283.5,4877.5z"/>
		<path id="XMLID_1080_" class="st0" d="M327.5,4878.8c-1.5-3.7,0.9-4.6,12-4.6c10.9,0,12.9,0.9,11.6,5
			C350.2,4881.7,328.4,4881.4,327.5,4878.8z"/>
		<path id="XMLID_1079_" class="st0" d="M371,4878.8c-1.5-3.8,1.4-4.7,12.8-4.3c10,0.4,11.1,0.7,11.1,3c0,2.4-1.1,2.6-11.6,3
			C373.6,4880.7,371.7,4880.5,371,4878.8z"/>
		<path id="XMLID_1078_" class="st0" d="M414.5,4878.8c-1.5-3.8,1.4-4.7,12.8-4.3c10,0.4,11.1,0.7,11.1,3c0,2.4-1.1,2.6-11.6,3
			C417.1,4880.7,415.1,4880.5,414.5,4878.8z"/>
		<path id="XMLID_1077_" class="st0" d="M458,4878.8c-1.5-3.8,1.4-4.7,12.8-4.3c10,0.4,11.1,0.7,11.1,3c0,2.4-1.1,2.6-11.6,3
			C460.6,4880.7,458.6,4880.5,458,4878.8z"/>
		<path id="XMLID_1076_" class="st0" d="M501.3,4878.6c-1.2-3.3,1.1-4.2,11.7-4.6c10.7-0.5,14,0.8,12.5,4.6c-0.7,1.7-3,2.1-12.1,2.1
			S502,4880.3,501.3,4878.6z"/>
		<path id="XMLID_1075_" class="st0" d="M543.9,4870.6c-0.7-1.6,1.2-4.1,6.7-9.1c7.4-6.8,11.2-8.4,12.9-5.8
			c1.6,2.6-0.9,6.5-7.8,11.7C548.2,4873.2,545.2,4874,543.9,4870.6z"/>
		<path id="XMLID_1074_" class="st0" d="M122.9,4863.5c-6.9-6.7-8.4-11.2-4.6-12.7c3-1.2,18.1,14.1,16.9,17.1
			C133.7,4871.8,130,4870.5,122.9,4863.5z"/>
		<path id="XMLID_1073_" class="st0" d="M570.1,4837.3c-1.1-1.7,1.7-20,3.3-21.6c2.8-2.8,5.3,0.4,5.3,6.7c0,9.4-2.2,16.2-5.3,16.2
			C572.1,4838.6,570.5,4837.9,570.1,4837.3z"/>
		<path id="XMLID_1072_" class="st0" d="M105.7,4832.1c-0.8-1.4-1.4-6.9-1.4-12c0-7.2,0.4-9.5,2.1-10.1c3.4-1.3,4.3,1.1,4.7,12.8
			c0.4,9.6,0.1,11.2-1.8,11.6C108.1,4834.6,106.5,4833.6,105.7,4832.1z"/>
		<path id="XMLID_1071_" class="st0" d="M572.1,4783.2c0-11.7,0-11.9,3.3-11.9s3.3,0.1,3.3,11.9s0,11.9-3.3,11.9
			S572.1,4795,572.1,4783.2z"/>
		<path id="XMLID_1069_" class="st0" d="M104.9,4789.4c-0.4-0.9-0.7-6.5-0.4-12.3c0.4-9.4,0.7-10.4,3-10.4c2.5,0,2.6,0.9,2.6,11.9
			c0,10.3-0.3,11.9-2.4,12.3C106.7,4791.1,105.3,4790.5,104.9,4789.4z"/>
		<path id="XMLID_1068_" class="st0" d="M104.9,4745.9c-0.4-0.9-0.7-6.5-0.4-12.3c0.4-9.4,0.7-10.4,3-10.4c2.5,0,2.6,0.9,2.6,11.9
			c0,10.3-0.3,11.9-2.4,12.3C106.7,4747.7,105.3,4747,104.9,4745.9z"/>
		<path id="XMLID_1066_" class="st0" d="M105.7,4703c-1.1-0.7-1.4-4.5-1.2-12.1c0.4-10,0.7-11.1,3-11.1c2.4,0,2.6,1.1,3,11.3
			c0.3,8.7,0,11.6-1.4,12.1C108.1,4703.6,106.7,4703.5,105.7,4703z"/>
		<path id="XMLID_1065_" class="st0" d="M104.3,4647.4c0-11.6,0.1-11.9,3-11.5c2.8,0.4,2.9,1.1,3.3,12l0.4,11.5h-3.4
			C104.3,4659.4,104.3,4659.4,104.3,4647.4z"/>
		<path id="XMLID_1063_" class="st0" d="M104.3,4604c0-11.7,0-11.9,3.3-11.9c3.3,0,3.3,0.1,3.3,11.9c0,11.7,0,11.9-3.3,11.9
			C104.3,4615.9,104.3,4615.7,104.3,4604z"/>
		<path id="XMLID_1062_" class="st0" d="M572.8,4606.3c-0.4-0.9-0.7-6.5-0.4-12.3c0.4-9.4,0.7-10.4,3-10.4c2.5,0,2.6,0.9,2.6,11.9
			c0,10.3-0.3,11.9-2.4,12.3C574.5,4608,573.2,4607.3,572.8,4606.3z"/>
		<path id="XMLID_1061_" class="st0" d="M104.9,4570.7c-0.4-0.9-0.7-6.2-0.4-11.6c0.4-9,0.7-9.8,3.4-10.1c4-0.5,4.3,1.3,3.3,12.9
			c-0.8,7.9-1.6,9.9-3.4,10.3C106.7,4572.4,105.2,4571.7,104.9,4570.7z"/>
		<path id="XMLID_1059_" class="st0" d="M572.1,4561.2c-0.7-1.8-1.3-4.7-1.3-6.3c0-1.6-0.5-5-1.3-7.5c-1.4-5.1,0.5-8.6,4.3-7.1
			c2.5,0.9,5.3,12.3,4.6,19C577.9,4565,574.1,4566.3,572.1,4561.2z"/>
		<path id="XMLID_1058_" class="st0" d="M115.8,4530.6c-2.2-2.1-0.4-5.8,5.8-12.1c6.8-6.8,10.8-8.4,12.3-4.5
			c0.7,1.6-1.3,4.5-6.7,9.9C119.8,4531.3,117.6,4532.6,115.8,4530.6z"/>
		<path id="XMLID_1056_" class="st0" d="M552.3,4520.3c-3.2-2.6-6.7-5.3-8-6.1c-3-1.6-3.3-5.9-0.4-7c4.2-1.6,19.4,10,18.7,14.4
			C562,4525.9,558.4,4525.3,552.3,4520.3z"/>
		<path id="XMLID_1055_" class="st0" d="M150.9,4506c-0.4-1.2-0.1-3,0.8-4.1c2.2-2.6,21.7-2.9,22.8-0.3c1.3,3.4-1.2,4.6-11.9,5.5
			C153.3,4507.9,151.6,4507.8,150.9,4506z"/>
		<path id="XMLID_1053_" class="st0" d="M194.4,4504.5c-1.5-3.8,1.4-4.7,12.8-4.3c10,0.4,11.1,0.7,11.1,3s-1.1,2.6-11.6,3
			C197.1,4506.5,195.1,4506.2,194.4,4504.5z"/>
		<path id="XMLID_1052_" class="st0" d="M237.9,4504.5c-1.5-3.8,1.4-4.7,12.8-4.3c10,0.4,11.1,0.7,11.1,3s-1.1,2.6-11.6,3
			C240.5,4506.5,238.6,4506.2,237.9,4504.5z"/>
		<path id="XMLID_1050_" class="st0" d="M281.4,4504.5c-1.5-3.8,1.4-4.7,12.8-4.3c10,0.4,11.1,0.7,11.1,3s-1.1,2.6-11.6,3
			C284,4506.5,282.1,4506.2,281.4,4504.5z"/>
		<path id="XMLID_1049_" class="st0" d="M325.3,4504.8c-1.6-4,1.1-5,12.4-4.6c10,0.4,11.1,0.7,11.1,3s-1.1,2.6-11.3,3
			C328.7,4506.5,325.8,4506.2,325.3,4504.8z"/>
		<path id="XMLID_1047_" class="st0" d="M368.8,4504.8c-1.6-4,1.1-5,12.4-4.6c10,0.4,11.1,0.7,11.1,3s-1.1,2.6-11.3,3
			C372.2,4506.5,369.3,4506.2,368.8,4504.8z"/>
		<path id="XMLID_1045_" class="st0" d="M412.6,4503.2c0-3.3,0.1-3.3,11.9-3.3s11.9,0,11.9,3.3c0,3.3-0.1,3.3-11.9,3.3
			C412.8,4506.5,412.6,4506.5,412.6,4503.2z"/>
		<path id="XMLID_1041_" class="st0" d="M456.1,4503.2c0-3.3,0.1-3.3,11.9-3.3s11.9,0,11.9,3.3c0,3.3-0.1,3.3-11.9,3.3
			C456.3,4506.5,456.1,4506.5,456.1,4503.2z"/>
		<path id="XMLID_1031_" class="st0" d="M500.1,4504.5c-1.4-3.7,0.9-4.6,12-4.6c10.9,0,12.9,0.9,11.6,5
			C522.8,4507.4,501.1,4507.2,500.1,4504.5z"/>
		<path id="XMLID_1093_" class="st0" d="M493.8,4715.5c-16.5-6.1-23.1-26.5-13.2-40.6c11.7-16.6,36.2-14.8,45.6,3.4
			C536.8,4698.8,515.3,4723.4,493.8,4715.5z M511.1,4705.5c10.5-6.3,12-19.8,3.2-28.2c-3.2-3-5.5-4-11.3-4.5
			c-7-0.5-7.4-0.4-12.5,4.7c-5.1,5.1-6.1,7.6-5.3,16.1c0.7,7.2,9.4,14.4,17.8,14.5C505.2,4708.1,508.7,4706.9,511.1,4705.5z"/>
	</g>
</g>
</svg>
