<?xml version="1.0" encoding="utf-8"?>
<!-- Generator: Adobe Illustrator 19.0.0, SVG Export Plug-In . SVG Version: 6.00 Build 0)  -->
<svg version="1.1" id="Layer_1" xmlns="http://www.w3.org/2000/svg" xmlns:xlink="http://www.w3.org/1999/xlink" x="0px" y="0px"
	 viewBox="-291 -183 512 512" style="enable-background:new -291 -183 512 512;" xml:space="preserve">
<style type="text/css">
	.st0{fill-rule:evenodd;clip-rule:evenodd;fill:#BD2F32;}
	.st1{fill:#FFFFFF;}
</style>
<g id="XMLID_29_">
	<rect id="XMLID_28_" x="-291" y="-183" class="st0" width="512" height="512"/>
	<g id="XMLID_30_">
		<rect id="XMLID_31_" x="-218.7" y="256.2" class="st1" width="367.3" height="2.1"/>
	</g>
</g>
<g id="XMLID_1091_">
	<g id="XMLID_1092_" transform="translate(0.000000,511.000000) scale(0.100000,-0.100000)">
		<path id="XMLID_1129_" class="st1" d="M158,6129.4c-144.3-35.9-546.5-136.5-894.5-223.3c-348-86.2-644.4-160.6-658.1-165.2
			c-15.7-4.6-39.8-21.5-63.3-44.4c-29.4-29.4-39.2-44.4-49.6-77.7l-12.4-41.1l-39.8-14.4c-63.3-22.9-111-54.2-165.2-107.7
			c-51.6-52.2-82.3-98.6-109-163.2c-35.3-88.8-35.3-77-33.3-910.1c2.6-867.7-2-793.3,55.5-910.1c25.5-51.6,39.8-71.8,86.2-117.5
			c62-62,123.4-98.6,210.2-126l49-15l981.9-2c694-1.3,998.9,0,1038.1,5.2c139.7,18.3,255.3,86.2,337.5,196.5
			c41.1,55.5,77.7,148.2,84.9,218.1c2.6,22.2,5.2,140.4,5.2,263.1l0.7,222.6l56.1,3.3c49,3.3,59.4,5.9,81,22.2
			c47,35.3,49,49,49,261.2c0,208.9-1.3,216.1-41.1,251.4c-28.1,24.8-59.4,34.6-111,34.6h-37.2l-2,260.5l-2,259.9l-18.3,52.2
			c-23.5,67.2-59.4,128-107.7,181.5l-38.5,43.1l-5.2,64c-7.8,113.6-15.7,158.7-32,191.3c-16.3,32.6-49,65.9-81,82.3
			c-16.3,8.5-20.2,18.3-47,126c-15.7,64.6-34,128-40.5,140.4c-15.7,32-56.1,68.6-90.8,84.2C453.1,6201.9,442.6,6200.6,158,6129.4z
			 M515.1,6126.1c40.5-27.4,54.8-56.1,84.2-171.1c14.4-57.5,25.5-105.1,24.8-105.1c-0.7,0-444.6-39.2-986.5-86.8
			c-587.6-52.2-995-90.8-1010-96.6c-28.7-9.8-81-44.4-86.2-56.1c-2.6-5.9-3.9-5.2-3.9,2c-1.3,17.6,36.6,63.3,63.3,77.7
			c13.7,6.5,340.2,90.8,725.4,186.7C-288,5973.4,113.6,6073.2,220,6100C438.7,6154.9,468.1,6156.8,515.1,6126.1z M649.6,5791.9
			c69.9-20.2,97.3-66.6,107.1-175c3.3-40.5,6.5-79,6.5-86.2c0-9.8-6.5-7.8-47,12.4c-25.5,12.4-69.9,29.4-96.6,37.2l-49.6,14.4
			l-985.2,3.3c-971.5,3.3-985.2,3.3-962.4,15.7c16.3,9.1,50.9,15,124,22.2c191.3,18.3,1823.5,163.2,1847,164.5
			C606.5,5801,632,5797.1,649.6,5791.9z M602.6,5513.7C741,5478.5,850,5376,895.7,5238.9c13.7-40.5,14.4-56.1,17-296.4l2-254h-88.1
			c-82.3,0-88.1,0.7-92.1,13.1c-2,7.2-8.5,13.1-14.4,13.1s-12.4-5.9-14.4-13.1c-3.3-12.4-9.1-13.1-197.8-13.1
			c-152.8,0-202.4-2-233.1-9.8c-176.3-47-264.4-233.7-187.4-399.6c37.9-81,119.5-144.3,209.6-160.6c18.9-3.9,118.8-6.5,220-6.5
			c179.5,0,185.4-0.7,188.7-13.1c4.6-17,24.2-17,28.7,0c3.3,12.4,9.1,13.1,92.1,13.1h88.1l-2-250.1c-2-237.7-3.3-252.7-16.3-293.1
			c-29.4-86.2-90.1-168.4-163.2-218.7c-57.5-38.5-120.1-61.4-199.1-69.9c-39.2-3.9-411.3-5.9-1020.5-4.6
			c-886.6,2-962.4,2.6-998.9,13.1c-129.3,37.2-220.7,113.6-275.5,229.8c-43.1,90.8-42.4,74.4-39.8,911.4
			c2,699.9,2.6,754.7,13.7,790.6c22.2,75.7,54.2,128,111,184.1c59.4,58.1,100.5,84.2,174.3,105.8l49,14.4h1002.8
			C526.8,5526.8,553.6,5526.1,602.6,5513.7z M1088.3,4602.9c11.8-12.4,12.4-27.4,14.4-190c2.6-187.4,0-206.3-26.8-220.7
			c-10.4-5.9-114.9-7.2-400.9-5.9l-386.5,2l-32.6,16.3c-41.8,20.2-88.1,65.9-107.7,107.7c-12.4,26.1-15.7,43.1-15.7,88.1
			c-0.7,47.7,2,61.4,17,91.4c23.5,47.7,65.9,88.1,113.6,107.7l38.5,16.3h387.2C1074,4616.7,1075.9,4616.7,1088.3,4602.9z"/>
		<path id="XMLID_1084_" class="st1" d="M-1377.6,5340.1c-7.2-8.5-7.2-11.8,1.3-20.2c7.8-7.8,18.9-8.5,61.4-4.6
			c45.7,4.6,51.6,6.5,51.6,18.3c0,11.8-5.2,13.1-52.9,15C-1357.4,5349.8-1370.5,5347.9-1377.6,5340.1z"/>
		<path id="XMLID_1083_" class="st1" d="M-1163.5,5341.4c-7.8-19.6,5.2-24.8,61.4-22.9c49.6,2,54.8,3.3,54.8,15
			c0,11.8-5.2,13.1-56.1,15C-1145.9,5349.8-1160.2,5348.5-1163.5,5341.4z"/>
		<path id="XMLID_1082_" class="st1" d="M-945.4,5333.5c0-16.3,0.7-16.3,59.4-16.3s59.4,0,59.4,16.3s-0.7,16.3-59.4,16.3
			S-945.4,5349.8-945.4,5333.5z"/>
		<path id="XMLID_1081_" class="st1" d="M-729.3,5333.5c0-16.3,0.7-16.3,59.4-16.3s59.4,0,59.4,16.3s-0.7,16.3-59.4,16.3
			C-728.7,5349.8-729.3,5349.8-729.3,5333.5z"/>
		<path id="XMLID_1080_" class="st1" d="M-510.6,5340.1c-7.2-18.3,4.6-22.9,59.4-22.9c54.2,0,64,4.6,57.5,24.8
			C-397.6,5354.4-506,5353.1-510.6,5340.1z"/>
		<path id="XMLID_1079_" class="st1" d="M-294.5,5340.1c-7.2-18.9,7.2-23.5,63.3-21.5c49.6,2,54.8,3.3,54.8,15
			c0,11.8-5.2,13.1-57.5,15C-281.4,5349.8-291.2,5348.5-294.5,5340.1z"/>
		<path id="XMLID_1078_" class="st1" d="M-78.4,5340.1c-7.2-18.9,7.2-23.5,63.3-21.5c49.6,2,54.8,3.3,54.8,15
			c0,11.8-5.2,13.1-57.5,15C-65.3,5349.8-75.1,5348.5-78.4,5340.1z"/>
		<path id="XMLID_1077_" class="st1" d="M137.7,5340.1c-7.2-18.9,7.2-23.5,63.3-21.5c49.6,2,54.8,3.3,54.8,15
			c0,11.8-5.2,13.1-57.5,15C150.8,5349.8,141,5348.5,137.7,5340.1z"/>
		<path id="XMLID_1076_" class="st1" d="M353.2,5339.4c-5.9-16.3,5.2-20.9,58.1-22.9c52.9-2.6,69.9,3.9,62,22.9
			c-3.3,8.5-15,10.4-60.1,10.4S356.4,5347.9,353.2,5339.4z"/>
		<path id="XMLID_1075_" class="st1" d="M564.7,5299.6c-3.3-7.8,5.9-20.2,33.3-45c36.6-33.9,55.5-41.8,64-28.7
			c7.8,13.1-4.6,32-38.5,58.1C585.6,5312.6,571.2,5316.5,564.7,5299.6z"/>
		<path id="XMLID_1074_" class="st1" d="M-1527.1,5264.3c-34.6-33.3-41.8-55.5-22.9-63.3c15-5.9,90.1,69.9,84.2,84.9
			C-1473.6,5305.4-1491.9,5298.9-1527.1,5264.3z"/>
		<path id="XMLID_1073_" class="st1" d="M694.6,5134.4c-5.2-8.5,8.5-99.2,16.3-107.1c13.7-13.7,26.1,2,26.1,33.3
			c0,47-11.1,80.3-26.1,80.3C704.4,5140.3,696.6,5137,694.6,5134.4z"/>
		<path id="XMLID_1072_" class="st1" d="M-1612.7,5108.3c-3.9-7.2-7.2-34.6-7.2-59.4c0-35.9,2-47,10.4-50.3
			c17-6.5,21.5,5.2,23.5,63.3c2,47.7,0.7,55.5-9.1,57.5C-1600.9,5120.7-1608.8,5115.5-1612.7,5108.3z"/>
		<path id="XMLID_1071_" class="st1" d="M704.4,4865.4c0-58.1,0-59.4,16.3-59.4s16.3,0.7,16.3,59.4s0,59.4-16.3,59.4
			C704.4,4924.2,704.4,4924.2,704.4,4865.4z"/>
		<path id="XMLID_1069_" class="st1" d="M-1616.6,4896.1c-2-4.6-3.3-32-2-61.4c2-47,3.3-51.6,15-51.6c12.4,0,13.1,4.6,13.1,59.4
			c0,50.9-1.3,59.4-11.8,61.4C-1607.5,4904.6-1614.6,4901.3-1616.6,4896.1z"/>
		<path id="XMLID_1068_" class="st1" d="M-1616.6,4680c-2-4.6-3.3-32-2-61.4c2-47,3.3-51.6,15-51.6c12.4,0,13.1,4.6,13.1,59.4
			c0,50.9-1.3,59.4-11.8,61.4C-1607.5,4689.1-1614.6,4685.2-1616.6,4680z"/>
		<path id="XMLID_1066_" class="st1" d="M-1612.7,4467.1c-5.2-3.3-7.2-22.2-5.9-60.1c2-49.6,3.3-54.8,15-54.8
			c11.8,0,13.1,5.2,15,56.1c1.3,43.1,0,57.5-7.2,60.1C-1600.9,4469.8-1607.5,4469.1-1612.7,4467.1z"/>
		<path id="XMLID_1065_" class="st1" d="M-1619.9,4190.3c0-57.5,0.7-59.4,15-57.5c13.7,2,14.4,5.2,16.3,59.4l2,57.5h-17
			C-1619.9,4250.4-1619.9,4250.4-1619.9,4190.3z"/>
		<path id="XMLID_1063_" class="st1" d="M-1619.9,3974.9c0-58.1,0-59.4,16.3-59.4c16.3,0,16.3,0.7,16.3,59.4
			c0,58.1,0,59.4-16.3,59.4C-1619.9,4034.3-1619.9,4033-1619.9,3974.9z"/>
		<path id="XMLID_1062_" class="st1" d="M708.3,3986.6c-2-4.6-3.3-32-2-61.4c2-47,3.3-51.6,15-51.6c12.4,0,13.1,4.6,13.1,59.4
			c0,50.9-1.3,59.4-11.8,61.4C716.8,3995.1,710.3,3991.2,708.3,3986.6z"/>
		<path id="XMLID_1061_" class="st1" d="M-1616.6,3809.7c-2-4.6-3.3-30.7-2-57.5c2-44.4,3.3-49,17-50.3c19.6-2.6,21.5,6.5,16.3,64
			c-3.9,39.2-7.8,49-17,50.9C-1607.5,3818.2-1615.3,3814.3-1616.6,3809.7z"/>
		<path id="XMLID_1059_" class="st1" d="M704.4,3762.7c-3.3-9.1-6.5-23.5-6.5-31.3c0-7.8-2.6-24.8-6.5-37.2
			c-7.2-25.5,2.6-42.4,21.5-35.3c12.4,4.6,26.1,61.4,22.9,94.7C733.2,3781,714.9,3787.5,704.4,3762.7z"/>
		<path id="XMLID_1058_" class="st1" d="M-1562.4,3610.6c-11.1-10.4-2-28.7,28.7-60.1c34-33.9,53.5-41.8,61.4-22.2
			c3.3,7.8-6.5,22.2-33.3,49C-1542.8,3613.8-1553.3,3620.3-1562.4,3610.6z"/>
		<path id="XMLID_1056_" class="st1" d="M606.5,3559c-15.7-13.1-33.3-26.1-39.8-30c-15-7.8-16.3-29.4-2-34.6
			c20.9-7.8,96.6,49.6,92.7,71.8C654.2,3587,636.5,3583.8,606.5,3559z"/>
		<path id="XMLID_1055_" class="st1" d="M-1388.1,3487.8c-2-5.9-0.7-15,3.9-20.2c11.1-13.1,107.7-14.4,113.6-1.3
			c6.5,17-5.9,22.9-59.4,27.4C-1376.3,3497.6-1384.8,3496.9-1388.1,3487.8z"/>
		<path id="XMLID_1053_" class="st1" d="M-1172,3480.6c-7.2-18.9,7.2-23.5,63.3-21.5c49.6,2,54.8,3.3,54.8,15
			c0,11.8-5.2,13.1-57.5,15C-1158.3,3490.4-1168.7,3489.1-1172,3480.6z"/>
		<path id="XMLID_1052_" class="st1" d="M-955.9,3480.6c-7.2-18.9,7.2-23.5,63.3-21.5c49.6,2,54.8,3.3,54.8,15
			c0,11.8-5.2,13.1-57.5,15C-942.8,3490.4-952.6,3489.1-955.9,3480.6z"/>
		<path id="XMLID_1050_" class="st1" d="M-739.8,3480.6c-7.2-18.9,7.2-23.5,63.3-21.5c49.6,2,54.8,3.3,54.8,15
			c0,11.8-5.2,13.1-57.5,15C-726.7,3490.4-735.8,3489.1-739.8,3480.6z"/>
		<path id="XMLID_1049_" class="st1" d="M-521.7,3481.9c-7.8-19.6,5.2-24.8,61.4-22.9c49.6,2,54.8,3.3,54.8,15
			c0,11.8-5.2,13.1-56.1,15C-504.7,3490.4-519.1,3489.1-521.7,3481.9z"/>
		<path id="XMLID_1047_" class="st1" d="M-305.6,3481.9c-7.8-19.6,5.2-24.8,61.4-22.9c49.6,2,54.8,3.3,54.8,15
			c0,11.8-5.2,13.1-56.1,15C-288.6,3490.4-303,3489.1-305.6,3481.9z"/>
		<path id="XMLID_1045_" class="st1" d="M-87.5,3474.1c0-16.3,0.7-16.3,59.4-16.3s59.4,0,59.4,16.3s-0.7,16.3-59.4,16.3
			C-86.9,3490.4-87.5,3490.4-87.5,3474.1z"/>
		<path id="XMLID_1041_" class="st1" d="M128.6,3474.1c0-16.3,0.7-16.3,59.4-16.3s59.4,0,59.4,16.3s-0.7,16.3-59.4,16.3
			S128.6,3490.4,128.6,3474.1z"/>
		<path id="XMLID_1031_" class="st1" d="M346.6,3480.6c-7.2-18.3,4.6-22.9,59.4-22.9c54.2,0,64,4.6,57.5,24.8
			C459.6,3495,351.9,3494.3,346.6,3480.6z"/>
		<path id="XMLID_1093_" class="st1" d="M316,4529.2c-82.3-30-114.9-131.9-65.3-201.7c58.1-82.3,179.5-73.8,226.6,17
			C529.5,4446.2,422.4,4568.3,316,4529.2z M401.5,4479.5c52.2-31.3,59.4-98.6,15.7-140.4c-15.7-15-27.4-19.6-56.1-22.2
			c-34.6-2.6-36.6-2-62,23.5c-25.5,25.5-30,37.9-26.1,80.3c3.3,35.9,47,71.8,88.1,71.8C372.1,4491.9,389.7,4486.1,401.5,4479.5z"/>
	</g>
</g>
<g>
	<path d="M-124.8,313.8l-8.7-37.3h9.2l2.8,15.2c0.9,4.6,1.4,9.2,2.3,12.9l0,0c0.5-4.1,1.4-8.3,2.3-12.9l3.2-15.2h8.7l2.8,15.7
		c0.9,4.1,1.4,8.3,1.8,12.4l0,0c0.5-4.1,1.4-8.3,2.3-12.9l3.2-15.2h8.7l-9.7,37.3h-9.2l-3.2-16.1c-0.9-3.7-1.4-7.4-1.8-11.5l0,0
		c-0.5,4.1-1.4,7.8-2.3,11.5l-3.7,16.1L-124.8,313.8L-124.8,313.8z"/>
	<path d="M-76,304.1l-2.8,9.7h-8.7l11.5-37.3h11.1l11.5,37.3h-9.2l-2.8-9.7H-76z M-66.8,297.6l-2.3-7.8c-0.5-2.3-1.4-5.1-1.8-7.4
		l0,0c-0.5,2.3-0.9,5.1-1.8,7.4l-2.3,7.8H-66.8z"/>
	<path d="M-48.4,276.5h8.3v29.9h14.7v6.9h-23V276.5z"/>
	<path d="M-20.3,276.5h8.3v29.9H2.8v6.9h-23V276.5z"/>
	<path d="M30.4,297.6H16.6v8.7h15.2v6.9H7.8V276h23v6.9H16.1v7.8h13.8v6.9H30.4z"/>
	<path d="M45.1,283.4H35v-6.9h28.6v6.9H53.4v29.9h-8.3V283.4z"/>
</g>
<g>
	<path class="st1" d="M-130.5,313.8l-8.7-37.3h9.2l2.8,15.2c0.9,4.6,1.4,9.2,2.3,12.9l0,0c0.5-4.1,1.4-8.3,2.3-12.9l3.2-15.2h8.7
		l2.8,15.7c0.9,4.1,1.4,8.3,1.8,12.4l0,0c0.5-4.1,1.4-8.3,2.3-12.9l3.2-15.2h8.7l-9.7,37.3h-9.2l-3.2-16.1
		c-0.9-3.7-1.4-7.4-1.8-11.5l0,0c-0.5,4.1-1.4,7.8-2.3,11.5l-3.7,16.1L-130.5,313.8L-130.5,313.8z"/>
	<path class="st1" d="M-81.7,304.1l-2.8,9.7h-8.7l11.5-37.3h11.1l11.5,37.3h-9.2l-2.8-9.7H-81.7z M-72.4,297.6l-2.3-7.8
		c-0.5-2.3-1.4-5.1-1.8-7.4l0,0c-0.5,2.3-0.9,5.1-1.8,7.4l-2.3,7.8H-72.4z"/>
	<path class="st1" d="M-54,276.5h8.3v29.9H-31v6.9h-23V276.5z"/>
	<path class="st1" d="M-25.9,276.5h8.3v29.9h14.7v6.9h-23V276.5z"/>
	<path class="st1" d="M24.7,297.6H10.9v8.7h15.2v6.9H2.2V276h23v6.9H10.4v7.8h13.8v6.9H24.7z"/>
	<path class="st1" d="M39.5,283.4H29.3v-6.9h28.6v6.9H47.7v29.9h-8.3V283.4z"/>
</g>
</svg>
