<?xml version="1.0" encoding="utf-8"?>
<!-- Generator: Adobe Illustrator 19.0.0, SVG Export Plug-In . SVG Version: 6.00 Build 0)  -->
<svg version="1.1" id="Layer_1" xmlns="http://www.w3.org/2000/svg" xmlns:xlink="http://www.w3.org/1999/xlink" x="0px" y="0px"
	 viewBox="-107 181 72 72" style="enable-background:new -107 181 72 72;" xml:space="preserve">
<style type="text/css">
	.st0{fill:#010101;}
</style>
<g id="XMLID_1091_">
	<g id="XMLID_1092_" transform="translate(0.000000,511.000000) scale(0.100000,-0.100000)">
		<path id="XMLID_1129_" class="st0" d="M-632.3,3235.5c-22.1-5.5-83.7-20.9-137-34.2c-53.3-13.2-98.7-24.6-100.8-25.3
			c-2.4-0.7-6.1-3.3-9.7-6.8c-4.5-4.5-6-6.8-7.6-11.9l-1.9-6.3l-6.1-2.2c-9.7-3.5-17-8.3-25.3-16.5c-7.9-8-12.6-15.1-16.7-25
			c-5.4-13.6-5.4-11.8-5.1-139.4c0.4-132.9-0.3-121.5,8.5-139.4c3.9-7.9,6.1-11,13.2-18c9.5-9.5,18.9-15.1,32.2-19.3l7.5-2.3
			l150.4-0.3c106.3-0.2,153,0,159,0.8c21.4,2.8,39.1,13.2,51.7,30.1c6.3,8.5,11.9,22.7,13,33.4c0.4,3.4,0.8,21.5,0.8,40.3l0.1,34.1
			l8.6,0.5c7.5,0.5,9.1,0.9,12.4,3.4c7.2,5.4,7.5,7.5,7.5,40c0,32-0.2,33.1-6.3,38.5c-4.3,3.8-9.1,5.3-17,5.3h-5.7l-0.3,39.9
			l-0.3,39.8l-2.8,8c-3.6,10.3-9.1,19.6-16.5,27.8l-5.9,6.6l-0.8,9.8c-1.2,17.4-2.4,24.3-4.9,29.3c-2.5,5-7.5,10.1-12.4,12.6
			c-2.5,1.3-3.1,2.8-7.2,19.3c-2.4,9.9-5.2,19.6-6.2,21.5c-2.4,4.9-8.6,10.5-13.9,12.9C-587.1,3246.6-588.7,3246.4-632.3,3235.5z
			 M-577.6,3235c6.2-4.2,8.4-8.6,12.9-26.2c2.2-8.8,3.9-16.1,3.8-16.1c-0.1,0-68.1-6-151.1-13.3c-90-8-152.4-13.9-154.7-14.8
			c-4.4-1.5-12.4-6.8-13.2-8.6c-0.4-0.9-0.6-0.8-0.6,0.3c-0.2,2.7,5.6,9.7,9.7,11.9c2.1,1,52.1,13.9,111.1,28.6
			c59.1,14.8,120.6,30.1,136.9,34.2C-589.3,3239.4-584.8,3239.7-577.6,3235z M-557,3183.8c10.7-3.1,14.9-10.2,16.4-26.8
			c0.5-6.2,1-12.1,1-13.2c0-1.5-1-1.2-7.2,1.9c-3.9,1.9-10.7,4.5-14.8,5.7l-7.6,2.2l-150.9,0.5c-148.8,0.5-150.9,0.5-147.4,2.4
			c2.5,1.4,7.8,2.3,19,3.4c29.3,2.8,279.3,25,282.9,25.2C-563.6,3185.2-559.7,3184.6-557,3183.8z M-564.2,3141.2
			c21.2-5.4,37.9-21.1,44.9-42.1c2.1-6.2,2.2-8.6,2.6-45.4l0.3-38.9h-13.5c-12.6,0-13.5,0.1-14.1,2c-0.3,1.1-1.3,2-2.2,2
			c-0.9,0-1.9-0.9-2.2-2c-0.5-1.9-1.4-2-30.3-2c-23.4,0-31-0.3-35.7-1.5c-27-7.2-40.5-35.8-28.7-61.2c5.8-12.4,18.3-22.1,32.1-24.6
			c2.9-0.6,18.2-1,33.7-1c27.5,0,28.4-0.1,28.9-2c0.7-2.6,3.7-2.6,4.4,0c0.5,1.9,1.4,2,14.1,2h13.5l-0.3-38.3
			c-0.3-36.4-0.5-38.7-2.5-44.9c-4.5-13.2-13.8-25.8-25-33.5c-8.8-5.9-18.4-9.4-30.5-10.7c-6-0.6-63-0.9-156.3-0.7
			c-135.8,0.3-147.4,0.4-153,2c-19.8,5.7-33.8,17.4-42.2,35.2c-6.6,13.9-6.5,11.4-6.1,139.6c0.3,107.2,0.4,115.6,2.1,121.1
			c3.4,11.6,8.3,19.6,17,28.2c9.1,8.9,15.4,12.9,26.7,16.2l7.5,2.2h153.6C-575.8,3143.2-571.7,3143.1-564.2,3141.2z M-489.8,3001.7
			c1.8-1.9,1.9-4.2,2.2-29.1c0.4-28.7,0-31.6-4.1-33.8c-1.6-0.9-17.6-1.1-61.4-0.9l-59.2,0.3l-5,2.5c-6.4,3.1-13.5,10.1-16.5,16.5
			c-1.9,4-2.4,6.6-2.4,13.5c-0.1,7.3,0.3,9.4,2.6,14c3.6,7.3,10.1,13.5,17.4,16.5l5.9,2.5h59.3
			C-492,3003.8-491.7,3003.8-489.8,3001.7z"/>
		<path id="XMLID_1084_" class="st0" d="M-867.5,3114.6c-1.1-1.3-1.1-1.8,0.2-3.1c1.2-1.2,2.9-1.3,9.4-0.7c7,0.7,7.9,1,7.9,2.8
			c0,1.8-0.8,2-8.1,2.3C-864.4,3116.1-866.4,3115.8-867.5,3114.6z"/>
		<path id="XMLID_1083_" class="st0" d="M-834.7,3114.8c-1.2-3,0.8-3.8,9.4-3.5c7.6,0.3,8.4,0.5,8.4,2.3c0,1.8-0.8,2-8.6,2.3
			C-832,3116.1-834.2,3115.9-834.7,3114.8z"/>
		<path id="XMLID_1082_" class="st0" d="M-801.3,3113.6c0-2.5,0.1-2.5,9.1-2.5s9.1,0,9.1,2.5c0,2.5-0.1,2.5-9.1,2.5
			C-801.2,3116.1-801.3,3116.1-801.3,3113.6z"/>
		<path id="XMLID_1081_" class="st0" d="M-768.2,3113.6c0-2.5,0.1-2.5,9.1-2.5s9.1,0,9.1,2.5c0,2.5-0.1,2.5-9.1,2.5
			C-768.1,3116.1-768.2,3116.1-768.2,3113.6z"/>
		<path id="XMLID_1080_" class="st0" d="M-734.7,3114.6c-1.1-2.8,0.7-3.5,9.1-3.5c8.3,0,9.8,0.7,8.8,3.8
			C-717.4,3116.8-734,3116.6-734.7,3114.6z"/>
		<path id="XMLID_1079_" class="st0" d="M-701.6,3114.6c-1.1-2.9,1.1-3.6,9.7-3.3c7.6,0.3,8.4,0.5,8.4,2.3c0,1.8-0.8,2-8.8,2.3
			C-699.6,3116.1-701.1,3115.9-701.6,3114.6z"/>
		<path id="XMLID_1078_" class="st0" d="M-668.5,3114.6c-1.1-2.9,1.1-3.6,9.7-3.3c7.6,0.3,8.4,0.5,8.4,2.3c0,1.8-0.8,2-8.8,2.3
			C-666.5,3116.1-668,3115.9-668.5,3114.6z"/>
		<path id="XMLID_1077_" class="st0" d="M-635.4,3114.6c-1.1-2.9,1.1-3.6,9.7-3.3c7.6,0.3,8.4,0.5,8.4,2.3c0,1.8-0.8,2-8.8,2.3
			C-633.4,3116.1-634.9,3115.9-635.4,3114.6z"/>
		<path id="XMLID_1076_" class="st0" d="M-602.4,3114.5c-0.9-2.5,0.8-3.2,8.9-3.5c8.1-0.4,10.7,0.6,9.5,3.5
			c-0.5,1.3-2.3,1.6-9.2,1.6S-601.9,3115.8-602.4,3114.5z"/>
		<path id="XMLID_1075_" class="st0" d="M-570,3108.4c-0.5-1.2,0.9-3.1,5.1-6.9c5.6-5.2,8.5-6.4,9.8-4.4c1.2,2-0.7,4.9-5.9,8.9
			C-566.8,3110.4-569,3111-570,3108.4z"/>
		<path id="XMLID_1074_" class="st0" d="M-890.4,3103c-5.3-5.1-6.4-8.5-3.5-9.7c2.3-0.9,13.8,10.7,12.9,13
			C-882.2,3109.3-885,3108.3-890.4,3103z"/>
		<path id="XMLID_1073_" class="st0" d="M-550.1,3083.1c-0.8-1.3,1.3-15.2,2.5-16.4c2.1-2.1,4,0.3,4,5.1c0,7.2-1.7,12.3-4,12.3
			C-548.6,3084-549.8,3083.5-550.1,3083.1z"/>
		<path id="XMLID_1072_" class="st0" d="M-903.5,3079.1c-0.6-1.1-1.1-5.3-1.1-9.1c0-5.5,0.3-7.2,1.6-7.7c2.6-1,3.3,0.8,3.6,9.7
			c0.3,7.3,0.1,8.5-1.4,8.8C-901.7,3081-902.9,3080.2-903.5,3079.1z"/>
		<path id="XMLID_1071_" class="st0" d="M-548.6,3041.9c0-8.9,0-9.1,2.5-9.1c2.5,0,2.5,0.1,2.5,9.1s0,9.1-2.5,9.1
			C-548.6,3050.9-548.6,3050.9-548.6,3041.9z"/>
		<path id="XMLID_1069_" class="st0" d="M-904.1,3046.6c-0.3-0.7-0.5-4.9-0.3-9.4c0.3-7.2,0.5-7.9,2.3-7.9c1.9,0,2,0.7,2,9.1
			c0,7.8-0.2,9.1-1.8,9.4C-902.7,3047.9-903.8,3047.4-904.1,3046.6z"/>
		<path id="XMLID_1068_" class="st0" d="M-904.1,3013.5c-0.3-0.7-0.5-4.9-0.3-9.4c0.3-7.2,0.5-7.9,2.3-7.9c1.9,0,2,0.7,2,9.1
			c0,7.8-0.2,9.1-1.8,9.4C-902.7,3014.9-903.8,3014.3-904.1,3013.5z"/>
		<path id="XMLID_1066_" class="st0" d="M-903.5,2980.9c-0.8-0.5-1.1-3.4-0.9-9.2c0.3-7.6,0.5-8.4,2.3-8.4c1.8,0,2,0.8,2.3,8.6
			c0.2,6.6,0,8.8-1.1,9.2C-901.7,2981.3-902.7,2981.2-903.5,2980.9z"/>
		<path id="XMLID_1065_" class="st0" d="M-904.6,2938.5c0-8.8,0.1-9.1,2.3-8.8c2.1,0.3,2.2,0.8,2.5,9.1l0.3,8.8h-2.6
			C-904.6,2947.7-904.6,2947.7-904.6,2938.5z"/>
		<path id="XMLID_1063_" class="st0" d="M-904.6,2905.5c0-8.9,0-9.1,2.5-9.1s2.5,0.1,2.5,9.1c0,8.9,0,9.1-2.5,9.1
			S-904.6,2914.4-904.6,2905.5z"/>
		<path id="XMLID_1062_" class="st0" d="M-548,2907.3c-0.3-0.7-0.5-4.9-0.3-9.4c0.3-7.2,0.5-7.9,2.3-7.9c1.9,0,2,0.7,2,9.1
			c0,7.8-0.2,9.1-1.8,9.4C-546.7,2908.6-547.7,2908-548,2907.3z"/>
		<path id="XMLID_1061_" class="st0" d="M-904.1,2880.2c-0.3-0.7-0.5-4.7-0.3-8.8c0.3-6.8,0.5-7.5,2.6-7.7c3-0.4,3.3,1,2.5,9.8
			c-0.6,6-1.2,7.5-2.6,7.8C-902.7,2881.5-903.9,2880.9-904.1,2880.2z"/>
		<path id="XMLID_1059_" class="st0" d="M-548.6,2873c-0.5-1.4-1-3.6-1-4.8c0-1.2-0.4-3.8-1-5.7c-1.1-3.9,0.4-6.5,3.3-5.4
			c1.9,0.7,4,9.4,3.5,14.5C-544.2,2875.8-547,2876.8-548.6,2873z"/>
		<path id="XMLID_1058_" class="st0" d="M-895.8,2849.7c-1.7-1.6-0.3-4.4,4.4-9.2c5.2-5.2,8.2-6.4,9.4-3.4c0.5,1.2-1,3.4-5.1,7.5
			C-892.8,2850.2-894.4,2851.2-895.8,2849.7z"/>
		<path id="XMLID_1056_" class="st0" d="M-563.6,2841.8c-2.4-2-5.1-4-6.1-4.6c-2.3-1.2-2.5-4.5-0.3-5.3c3.2-1.2,14.8,7.6,14.2,11
			C-556.3,2846.1-559,2845.6-563.6,2841.8z"/>
		<path id="XMLID_1055_" class="st0" d="M-869.1,2830.9c-0.3-0.9-0.1-2.3,0.6-3.1c1.7-2,16.5-2.2,17.4-0.2c1,2.6-0.9,3.5-9.1,4.2
			C-867.3,2832.4-868.6,2832.3-869.1,2830.9z"/>
		<path id="XMLID_1053_" class="st0" d="M-836,2829.8c-1.1-2.9,1.1-3.6,9.7-3.3c7.6,0.3,8.4,0.5,8.4,2.3c0,1.8-0.8,2-8.8,2.3
			C-833.9,2831.3-835.5,2831.1-836,2829.8z"/>
		<path id="XMLID_1052_" class="st0" d="M-802.9,2829.8c-1.1-2.9,1.1-3.6,9.7-3.3c7.6,0.3,8.4,0.5,8.4,2.3c0,1.8-0.8,2-8.8,2.3
			C-800.9,2831.3-802.4,2831.1-802.9,2829.8z"/>
		<path id="XMLID_1050_" class="st0" d="M-769.8,2829.8c-1.1-2.9,1.1-3.6,9.7-3.3c7.6,0.3,8.4,0.5,8.4,2.3c0,1.8-0.8,2-8.8,2.3
			C-767.8,2831.3-769.2,2831.1-769.8,2829.8z"/>
		<path id="XMLID_1049_" class="st0" d="M-736.4,2830c-1.2-3,0.8-3.8,9.4-3.5c7.6,0.3,8.4,0.5,8.4,2.3c0,1.8-0.8,2-8.6,2.3
			C-733.8,2831.3-736,2831.1-736.4,2830z"/>
		<path id="XMLID_1047_" class="st0" d="M-703.3,2830c-1.2-3,0.8-3.8,9.4-3.5c7.6,0.3,8.4,0.5,8.4,2.3c0,1.8-0.8,2-8.6,2.3
			C-700.7,2831.3-702.9,2831.1-703.3,2830z"/>
		<path id="XMLID_1045_" class="st0" d="M-669.9,2828.8c0-2.5,0.1-2.5,9.1-2.5c9,0,9.1,0,9.1,2.5c0,2.5-0.1,2.5-9.1,2.5
			C-669.8,2831.3-669.9,2831.3-669.9,2828.8z"/>
		<path id="XMLID_1041_" class="st0" d="M-636.8,2828.8c0-2.5,0.1-2.5,9.1-2.5s9.1,0,9.1,2.5c0,2.5-0.1,2.5-9.1,2.5
			C-636.7,2831.3-636.8,2831.3-636.8,2828.8z"/>
		<path id="XMLID_1031_" class="st0" d="M-603.4,2829.8c-1.1-2.8,0.7-3.5,9.1-3.5c8.3,0,9.8,0.7,8.8,3.8
			C-586.1,2832-602.6,2831.9-603.4,2829.8z"/>
		<path id="XMLID_1093_" class="st0" d="M-608.1,2990.4c-12.6-4.6-17.6-20.2-10-30.9c8.9-12.6,27.5-11.3,34.7,2.6
			C-575.4,2977.7-591.8,2996.4-608.1,2990.4z M-595,2982.8c8-4.8,9.1-15.1,2.4-21.5c-2.4-2.3-4.2-3-8.6-3.4
			c-5.3-0.4-5.6-0.3-9.5,3.6s-4.6,5.8-4,12.3c0.5,5.5,7.2,11,13.5,11C-599.5,2984.7-596.8,2983.8-595,2982.8z"/>
	</g>
</g>
<g>
	<path d="M-90.5,244.2l-1.9-8.1h2l0.6,3.3c0.2,1,0.3,2,0.5,2.8h0c0.1-0.9,0.3-1.8,0.5-2.8l0.7-3.3h1.9l0.6,3.4
		c0.2,0.9,0.3,1.8,0.4,2.7h0c0.1-0.9,0.3-1.8,0.5-2.8l0.7-3.3h1.9l-2.1,8.1h-2l-0.7-3.5c-0.2-0.8-0.3-1.6-0.4-2.5h0
		c-0.1,0.9-0.3,1.7-0.5,2.5l-0.8,3.5H-90.5z"/>
	<path d="M-79.9,242.1l-0.6,2.1h-1.9l2.5-8.1h2.4l2.5,8.1h-2l-0.6-2.1H-79.9z M-77.9,240.7l-0.5-1.7c-0.1-0.5-0.3-1.1-0.4-1.6h0
		c-0.1,0.5-0.2,1.1-0.4,1.6l-0.5,1.7H-77.9z"/>
	<path d="M-73.9,236.1h1.8v6.5h3.2v1.5h-5V236.1z"/>
	<path d="M-67.8,236.1h1.8v6.5h3.2v1.5h-5V236.1z"/>
	<path d="M-56.8,240.7h-3v1.9h3.3v1.5h-5.2v-8.1h5v1.5h-3.2v1.7h3V240.7z"/>
	<path d="M-53.6,237.6h-2.2v-1.5h6.2v1.5h-2.2v6.5h-1.8V237.6z"/>
</g>
</svg>
