<?xml version="1.0" encoding="utf-8"?>
<!-- Generator: Adobe Illustrator 19.0.0, SVG Export Plug-In . SVG Version: 6.00 Build 0)  -->
<svg version="1.1" id="Capa_1" xmlns="http://www.w3.org/2000/svg" xmlns:xlink="http://www.w3.org/1999/xlink" x="0px" y="0px"
	 viewBox="133.9 -183.9 512 512" style="enable-background:new 133.9 -183.9 512 512;" xml:space="preserve">
<style type="text/css">
	.st0{fill-rule:evenodd;clip-rule:evenodd;fill:#BD2F32;}
	.st1{fill:#FFFFFF;}
</style>
<g id="XMLID_29_">
	<rect id="XMLID_28_" x="133.9" y="-183.9" class="st0" width="512" height="512"/>
	<g id="XMLID_30_">
		<rect id="XMLID_31_" x="206.3" y="255.3" class="st1" width="367.3" height="2.1"/>
	</g>
</g>
<g>
	<path class="st1" d="M352.1-64.9c0-8.4,6.8-15.4,15.4-15.4c8.4,0,15.4,6.8,15.4,15.4c0,8.5-6.8,15.4-15.4,15.4
		C358.8-49.5,352.1-56.5,352.1-64.9z M367.3,105.9c-7.8,0-14.3,6.5-14.3,14.3c0,7.8,6.5,14.3,14.3,14.3c7.8,0,14.3-6.5,14.3-14.3
		C381.6,112.3,375.1,105.9,367.3,105.9z M275.7,13.5c-7.8,0-14.3,6.5-14.3,14.3c0,7.8,6.5,14.3,14.3,14.3c7.9,0,14.3-6.5,14.3-14.3
		C289.8,19.8,283.6,13.5,275.7,13.5z M443.9,27.6c0,8,6.6,14.6,14.6,14.6c8,0,14.6-6.6,14.6-14.6S466.6,13,458.5,13
		C450.5,13.1,443.9,19.6,443.9,27.6z M373.9,9.9V6.2h-9v3.7c-4.4,1.3-8.2,4.3-10.2,8.4h-37.9v15h37.8c2.1,4.1,5.7,7.1,10.2,8.4v54.6
		h9V41.6c4.4-1.3,8.2-4.3,10.2-8.4h10.9v-15H384C382.1,14.2,378.4,11.3,373.9,9.9z M560.1,0.8v54h-36.1V39.6h-14.3
		c-2.4,29.1-13.2,56.1-30.5,77.8C475.4,143.5,463,187,463,187l-32.3,31.9H301.6l-30-31.9c0,0-12.3-43.5-16.3-69.7
		c-19.7-24.6-31.6-55.8-31.6-89.7s11.8-65.1,31.6-89.7c3.9-26.1,16.3-69.2,16.3-69.2l30.4-32.6h129.2l31.8,32.6
		c0,0,12.4,43,16.3,69.2c17.4,21.6,28,48.5,30.5,77.8h14.3V0.8H560.1L560.1,0.8L560.1,0.8z M483.9,27.6
		c0-64.3-52.3-116.6-116.6-116.6S250.8-36.6,250.8,27.6s52.4,116.6,116.6,116.6S483.9,91.9,483.9,27.6z M328.3-16.7l-28.9-28.9
		l-8.4,8.4l28.9,28.9L328.3-16.7z M444.1-37.6l-8.9-8.2l-26.7,28.8l8.9,8.2L444.1-37.6z M290.9,96.4l8.4,8.4l28.9-28.9l-8.4-8.4
		L290.9,96.4z M408.8,76.1l26.7,28.8l8.9-8.2l-26.7-28.8L408.8,76.1z"/>
</g>
<g>
	<path d="M229,314.6l-10.7-44.7h10.8l3.3,18.4c1,5.4,2,11.1,2.7,15.6h0.1c0.7-4.8,1.8-10.2,2.9-15.8l3.7-18.3h10.7l3.6,18.9
		c1,5.2,1.8,10,2.4,15h0.1c0.7-5,1.7-10.2,2.5-15.5l3.7-18.3h10.7l-11.6,44.6H253l-3.7-19.3c-0.9-4.6-1.5-8.6-2.2-13.7H247
		c-0.8,5-1.5,9.4-2.5,13.7l-4.3,19.3L229,314.6L229,314.6z"/>
	<path d="M278.5,292.8c0-4.8-0.1-7.9-0.3-10.7h8.6l0.3,6h0.3c1.7-4.7,5.6-6.7,8.8-6.7c0.9,0,1.4,0,2.2,0.1v9.5
		c-0.7-0.2-1.5-0.3-2.8-0.3c-3.7,0-6.2,2-6.9,5.1c-0.1,0.7-0.2,1.5-0.2,2.3v16.5h-10.2L278.5,292.8L278.5,292.8L278.5,292.8z"/>
	<path d="M314.3,273.2c0,2.8-2.2,5-5.4,5c-3.2,0-5.3-2.3-5.2-5c-0.1-2.9,2-5.1,5.3-5.1C312.1,268,314.1,270.2,314.3,273.2z
		 M303.8,314.6v-32.4h10v32.4H303.8z"/>
	<path d="M321.9,305.8c1.9,1.1,5.7,2.4,8.6,2.4c3.1,0,4.3-1.1,4.3-2.8c0-1.7-1-2.4-4.8-3.7c-6.7-2.3-9.4-5.9-9.3-9.8
		c0-6.1,5.2-10.7,13.2-10.7c3.7,0,7.2,0.9,9.2,1.9l-1.8,7c-1.5-0.8-4.2-1.9-7.1-1.9c-2.4,0-3.8,1-3.8,2.7c0,1.5,1.3,2.4,5.2,3.7
		c6.2,2.2,8.8,5.2,8.9,10c0,6-4.8,10.5-14.1,10.5c-4.2,0-8-1-10.5-2.4L321.9,305.8z"/>
	<path d="M362.1,273.3v8.9h7.3v7.5h-7.3v11.7c0,3.9,0.9,5.7,4.1,5.7c1.4,0,2-0.1,2.9-0.3l0.1,7.6c-1.4,0.5-3.7,0.9-6.6,0.9
		c-3.3,0-6-1.2-7.6-2.8c-1.9-2-2.8-5-2.8-9.7v-13.3H348v-7.3h4.3v-6.1L362.1,273.3z"/>
	<path d="M393.7,314.6l-10.7-44.7h10.8l3.3,18.4c1,5.4,2,11.1,2.7,15.6h0.1c0.7-4.8,1.8-10.2,2.9-15.8l3.7-18.3h10.7l3.6,18.9
		c1,5.2,1.8,10,2.4,15h0.1c0.7-5,1.7-10.2,2.5-15.5l3.7-18.3h10.3l-11.3,44.6h-10.9l-3.7-19.3c-0.9-4.6-1.5-8.6-2.2-13.7h-0.1
		c-0.8,5-1.5,9.4-2.5,13.7l-4.2,19.3L393.7,314.6L393.7,314.6z"/>
	<path d="M469.3,306.7c0,3.2,0.1,6.1,0.5,7.9h-9l-0.6-3.3h-0.2c-2.2,2.5-5.4,3.9-9.4,3.9c-6.6,0-10.5-4.8-10.5-9.9
		c0-8.5,7.6-12.5,19.1-12.4v-0.5c0-1.8-0.9-4.2-5.9-4.2c-3.3,0-6.9,1.1-8.9,2.4l-1.9-6.5c2.3-1.3,6.7-2.8,12.6-2.8
		c10.8,0,14.2,6.4,14.2,14L469.3,306.7L469.3,306.7z M459.5,299.3c-5.3-0.1-9.4,1.2-9.4,5.1c0,2.5,1.8,3.8,4.1,3.8
		c2.5,0,4.6-1.7,5.2-3.7c0.1-0.5,0.2-1.1,0.2-1.8V299.3z"/>
	<path d="M488.1,273.3v8.9h7.3v7.5h-7.3v11.7c0,3.9,0.9,5.7,3.9,5.7c1.4,0,2-0.1,2.9-0.3l0.1,7.6c-1.3,0.5-3.7,0.9-6.6,0.9
		c-3.3,0-6-1.2-7.6-2.8c-1.9-2-2.8-5-2.8-9.7v-13.3h-4.3v-7.3h4.3v-6.1L488.1,273.3z"/>
	<path d="M525.3,313.9c-1.8,0.8-5.2,1.5-9,1.5c-10.5,0-17.2-6.4-17.2-16.6c0-9.5,6.5-17.3,18.6-17.3c2.7,0,5.6,0.5,7.6,1.3l-1.5,7.5
		c-1.2-0.5-2.9-1-5.6-1c-5.3,0-8.8,3.7-8.6,9c0,6,3.9,9,8.9,9c2.4,0,4.2-0.4,5.8-1.1L525.3,313.9z"/>
	<path d="M530.9,267.5h10.2v18.5h0.1c1.1-1.4,2.4-2.5,3.9-3.3c1.5-0.8,3.3-1.3,5.2-1.3c6.4,0,11.3,4.4,11.3,14.1v19.2h-10.2v-17.9
		c0-4.2-1.5-7.2-5.2-7.2c-2.7,0-4.3,1.8-5,3.6c-0.3,0.7-0.3,1.5-0.3,2.3v19.3h-10.2v-47.2L530.9,267.5L530.9,267.5z"/>
</g>
<g>
	<path class="st1" d="M223.3,314.6l-10.7-44.7h10.8l3.3,18.4c1,5.4,2,11.1,2.7,15.6h0.1c0.7-4.8,1.8-10.2,2.9-15.8l3.7-18.3H247
		l3.6,18.9c1,5.2,1.8,10,2.4,15h0.1c0.7-5,1.7-10.2,2.5-15.5l3.7-18.3h10.7l-11.6,44.6h-10.9l-3.7-19.3c-0.9-4.6-1.5-8.6-2.2-13.7
		h-0.1c-0.8,5-1.5,9.4-2.5,13.7l-4.3,19.3L223.3,314.6L223.3,314.6z"/>
	<path class="st1" d="M272.9,292.8c0-4.8-0.1-7.9-0.3-10.7h8.6l0.3,6h0.3c1.7-4.7,5.6-6.7,8.8-6.7c0.9,0,1.4,0,2.2,0.1v9.5
		c-0.7-0.2-1.5-0.3-2.8-0.3c-3.7,0-6.2,2-6.9,5.1c-0.1,0.7-0.2,1.5-0.2,2.3v16.5h-10.2L272.9,292.8L272.9,292.8L272.9,292.8z"/>
	<path class="st1" d="M308.6,273.2c0,2.8-2.2,5-5.4,5c-3.2,0-5.3-2.3-5.2-5c-0.1-2.9,2-5.1,5.3-5.1
		C306.4,268,308.5,270.2,308.6,273.2z M298.1,314.6v-32.4h10v32.4H298.1z"/>
	<path class="st1" d="M316.3,305.8c1.9,1.1,5.7,2.4,8.6,2.4c3.1,0,4.3-1.1,4.3-2.8c0-1.7-1-2.4-4.8-3.7c-6.7-2.3-9.4-5.9-9.3-9.8
		c0-6.1,5.2-10.7,13.2-10.7c3.7,0,7.2,0.9,9.2,1.9l-1.8,7c-1.5-0.8-4.2-1.9-7.1-1.9c-2.4,0-3.8,1-3.8,2.7c0,1.5,1.3,2.4,5.2,3.7
		c6.2,2.2,8.8,5.2,8.9,10c0,6-4.8,10.5-14.1,10.5c-4.2,0-8-1-10.5-2.4L316.3,305.8z"/>
	<path class="st1" d="M356.4,273.3v8.9h7.3v7.5h-7.3v11.7c0,3.9,0.9,5.7,4.1,5.7c1.4,0,2-0.1,2.9-0.3l0.1,7.6
		c-1.4,0.5-3.7,0.9-6.6,0.9c-3.3,0-6-1.2-7.6-2.8c-1.9-2-2.8-5-2.8-9.7v-13.3h-4.3v-7.3h4.3v-6.1L356.4,273.3z"/>
	<path class="st1" d="M388.1,314.6l-10.7-44.7h10.8l3.3,18.4c1,5.4,2,11.1,2.7,15.6h0.1c0.7-4.8,1.8-10.2,2.9-15.8l3.7-18.3h10.7
		l3.6,18.9c1,5.2,1.8,10,2.4,15h0.1c0.7-5,1.7-10.2,2.5-15.5l3.7-18.3h10.3l-11.3,44.6H412l-3.7-19.3c-0.9-4.6-1.5-8.6-2.2-13.7H406
		c-0.8,5-1.5,9.4-2.5,13.7l-4.2,19.3L388.1,314.6L388.1,314.6z"/>
	<path class="st1" d="M463.7,306.7c0,3.2,0.1,6.1,0.5,7.9h-9l-0.6-3.3h-0.2c-2.2,2.5-5.4,3.9-9.4,3.9c-6.6,0-10.5-4.8-10.5-9.9
		c0-8.5,7.6-12.5,19.1-12.4v-0.5c0-1.8-0.9-4.2-5.9-4.2c-3.3,0-6.9,1.1-8.9,2.4l-1.9-6.5c2.3-1.3,6.7-2.8,12.6-2.8
		c10.8,0,14.2,6.4,14.2,14L463.7,306.7L463.7,306.7z M453.8,299.3c-5.3-0.1-9.4,1.2-9.4,5.1c0,2.5,1.8,3.8,4.1,3.8
		c2.5,0,4.6-1.7,5.2-3.7c0.1-0.5,0.2-1.1,0.2-1.8V299.3z"/>
	<path class="st1" d="M482.5,273.3v8.9h7.3v7.5h-7.3v11.7c0,3.9,0.9,5.7,3.9,5.7c1.4,0,2-0.1,2.9-0.3l0.1,7.6
		c-1.3,0.5-3.7,0.9-6.6,0.9c-3.3,0-6-1.2-7.6-2.8c-1.9-2-2.8-5-2.8-9.7v-13.3h-4.3v-7.3h4.3v-6.1L482.5,273.3z"/>
	<path class="st1" d="M519.6,313.9c-1.8,0.8-5.2,1.5-9,1.5c-10.5,0-17.2-6.4-17.2-16.6c0-9.5,6.5-17.3,18.6-17.3
		c2.7,0,5.6,0.5,7.6,1.3l-1.5,7.5c-1.2-0.5-2.9-1-5.6-1c-5.3,0-8.8,3.7-8.6,9c0,6,3.9,9,8.9,9c2.4,0,4.2-0.4,5.8-1.1L519.6,313.9z"
		/>
	<path class="st1" d="M525.2,267.5h10.2v18.5h0.1c1.1-1.4,2.4-2.5,3.9-3.3c1.5-0.8,3.3-1.3,5.2-1.3c6.4,0,11.3,4.4,11.3,14.1v19.2
		h-10.2v-17.9c0-4.2-1.5-7.2-5.2-7.2c-2.7,0-4.3,1.8-5,3.6c-0.3,0.7-0.3,1.5-0.3,2.3v19.3H525v-47.2L525.2,267.5L525.2,267.5z"/>
</g>
</svg>
