<?xml version="1.0" encoding="utf-8"?>
<!-- Generator: Adobe Illustrator 19.0.0, SVG Export Plug-In . SVG Version: 6.00 Build 0)  -->
<svg version="1.1" id="Capa_1" xmlns="http://www.w3.org/2000/svg" xmlns:xlink="http://www.w3.org/1999/xlink" x="0px" y="0px"
	 viewBox="105 -32.9 497.9 497.9" style="enable-background:new 105 -32.9 497.9 497.9;" xml:space="preserve">
<g>
	<path d="M319.8,90.1c0-7.2,5.9-13.2,13.2-13.2c7.2,0,13.2,5.9,13.2,13.2s-5.9,13.2-13.2,13.2C325.6,103.3,319.8,97.3,319.8,90.1z
		 M332.9,236.4c-6.7,0-12.2,5.5-12.2,12.2s5.5,12.2,12.2,12.2c6.7,0,12.2-5.5,12.2-12.2S339.6,236.4,332.9,236.4z M254.4,157.2
		c-6.7,0-12.2,5.5-12.2,12.2c0,6.7,5.5,12.2,12.2,12.2c6.8,0,12.2-5.5,12.2-12.2C266.5,162.7,261.1,157.2,254.4,157.2z M398.5,169.3
		c0,6.9,5.6,12.5,12.5,12.5s12.5-5.6,12.5-12.5s-5.5-12.5-12.5-12.5C404.1,156.9,398.5,162.5,398.5,169.3z M338.5,154.2v-3.1h-7.7
		v3.1c-3.8,1.1-7,3.7-8.8,7.2h-32.4v12.8h32.4c1.8,3.5,4.9,6.1,8.8,7.2v46.8h7.7v-46.8c3.8-1.1,7-3.7,8.8-7.2h9.3v-12.8h-9.3
		C345.5,157.9,342.4,155.4,338.5,154.2z M498.1,146.4v46.3h-30.9v-13.1H455c-2.1,25-11.3,48.1-26.1,66.6c-3.3,22.4-14,59.7-14,59.7
		l-27.7,27.4H276.6l-25.7-27.4c0,0-10.6-37.3-14-59.7c-16.9-21.1-27.1-47.8-27.1-76.9s10.1-55.8,27.1-76.9c3.3-22.4,14-59.3,14-59.3
		l26-27.9h110.7l27.3,27.9c0,0,10.7,36.9,14,59.3c14.9,18.5,24,41.6,26.1,66.6h12.2v-12.7H498.1L498.1,146.4L498.1,146.4z
		 M432.8,169.3c0-55.1-44.8-99.9-99.9-99.9c-55.1,0-99.9,44.9-99.9,99.9s44.9,99.9,99.9,99.9C388,269.2,432.8,224.4,432.8,169.3z
		 M299.5,131.4l-24.8-24.8l-7.2,7.2l24.8,24.8L299.5,131.4z M398.7,113.5l-7.6-7l-22.9,24.7l7.6,7L398.7,113.5z M267.4,228.3
		l7.2,7.2l24.8-24.8l-7.2-7.2L267.4,228.3z M368.4,210.9l22.9,24.7l7.6-7l-22.9-24.7L368.4,210.9z"/>
</g>
<g>
	<path d="M188.7,416l-10.8-45.5h11l3.4,18.7c1,5.5,2,11.3,2.7,15.9h0.1c0.7-4.9,1.8-10.4,3-16l3.8-18.6h10.9l3.6,19.2
		c1,5.3,1.8,10.2,2.4,15.3h0.1c0.7-5.1,1.7-10.4,2.6-15.8l3.7-18.6H236L224.2,416h-11.1l-3.8-19.6c-0.9-4.6-1.6-8.8-2.2-14h-0.1
		c-0.8,5.1-1.6,9.5-2.6,14L200,416H188.7z"/>
	<path d="M239.1,393.8c0-4.9-0.1-8-0.3-10.9h8.8l0.3,6.1h0.3c1.7-4.8,5.7-6.8,8.9-6.8c0.9,0,1.4,0,2.2,0.1v9.7
		c-0.7-0.2-1.6-0.3-2.8-0.3c-3.8,0-6.3,2-7,5.2c-0.1,0.7-0.2,1.5-0.2,2.3V416h-10.3V393.8z"/>
	<path d="M275.4,373.8c0,2.8-2.2,5.1-5.5,5.1c-3.2,0-5.4-2.3-5.3-5.1c-0.1-3,2.1-5.2,5.4-5.2C273.2,368.6,275.3,370.8,275.4,373.8z
		 M264.8,416v-33H275v33H264.8z"/>
	<path d="M283.2,407c1.9,1.1,5.8,2.5,8.8,2.5c3.1,0,4.4-1.1,4.4-2.8s-1-2.5-4.9-3.8c-6.8-2.3-9.5-6-9.4-9.9
		c0-6.2,5.3-10.9,13.4-10.9c3.8,0,7.3,0.9,9.3,1.9l-1.8,7.1c-1.5-0.8-4.3-1.9-7.2-1.9c-2.5,0-3.9,1-3.9,2.7c0,1.6,1.3,2.4,5.3,3.8
		c6.3,2.2,8.9,5.3,9,10.2c0,6.1-4.9,10.7-14.3,10.7c-4.3,0-8.2-1-10.7-2.4L283.2,407z"/>
	<path d="M324,374v9h7.4v7.6H324v11.9c0,4,0.9,5.8,4.1,5.8c1.4,0,2-0.1,3-0.3l0.1,7.8c-1.4,0.5-3.8,0.9-6.7,0.9
		c-3.3,0-6.1-1.2-7.7-2.9c-1.9-2-2.8-5.1-2.8-9.8v-13.5h-4.4V383h4.4v-6.2L324,374z"/>
	<path d="M356.2,416l-10.8-45.5h11l3.4,18.7c1,5.5,2,11.3,2.7,15.9h0.1c0.7-4.9,1.8-10.4,3-16l3.8-18.6h10.9l3.6,19.2
		c1,5.3,1.8,10.2,2.4,15.3h0.1c0.7-5.1,1.7-10.4,2.6-15.8l3.7-18.6h10.5L391.7,416h-11.1l-3.8-19.6c-0.9-4.6-1.6-8.8-2.2-14h-0.1
		c-0.8,5.1-1.6,9.5-2.6,14l-4.3,19.6H356.2z"/>
	<path d="M433.1,407.9c0,3.2,0.1,6.2,0.5,8h-9.2l-0.6-3.3h-0.2c-2.2,2.6-5.5,4-9.5,4c-6.7,0-10.7-4.9-10.7-10.1
		c0-8.6,7.7-12.7,19.4-12.6v-0.5c0-1.8-0.9-4.3-6-4.3c-3.4,0-7,1.1-9.1,2.5l-1.9-6.6c2.3-1.3,6.8-2.9,12.8-2.9
		c11,0,14.5,6.5,14.5,14.2V407.9z M423.1,400.4c-5.4-0.1-9.6,1.2-9.6,5.2c0,2.6,1.8,3.9,4.1,3.9c2.6,0,4.7-1.7,5.3-3.8
		c0.1-0.5,0.2-1.1,0.2-1.8V400.4z"/>
	<path d="M452.2,374v9h7.4v7.6h-7.4v11.9c0,4,0.9,5.8,4,5.8c1.4,0,2-0.1,3-0.3l0.1,7.8c-1.3,0.5-3.8,0.9-6.7,0.9
		c-3.3,0-6.1-1.2-7.7-2.9c-1.9-2-2.8-5.1-2.8-9.8v-13.5h-4.4V383h4.4v-6.2L452.2,374z"/>
	<path d="M489.9,415.2c-1.8,0.8-5.3,1.6-9.2,1.6c-10.7,0-17.5-6.5-17.5-16.9c0-9.7,6.6-17.6,18.9-17.6c2.7,0,5.7,0.5,7.8,1.3
		l-1.6,7.6c-1.2-0.5-3-1-5.7-1c-5.4,0-8.9,3.8-8.8,9.2c0,6.1,4,9.2,9,9.2c2.4,0,4.3-0.4,5.9-1.1L489.9,415.2z"/>
	<path d="M495.6,368h10.3v18.8h0.1c1.1-1.4,2.4-2.6,4-3.4c1.6-0.8,3.4-1.3,5.3-1.3c6.5,0,11.5,4.5,11.5,14.4V416h-10.3v-18.2
		c0-4.3-1.5-7.3-5.3-7.3c-2.7,0-4.4,1.8-5.1,3.6c-0.3,0.7-0.3,1.6-0.3,2.3V416h-10.3V368z"/>
</g>
</svg>
