<?xml version="1.0" encoding="utf-8"?>
<!-- Generator: Adobe Illustrator 19.0.0, SVG Export Plug-In . SVG Version: 6.00 Build 0)  -->
<svg version="1.1" id="Capa_1" xmlns="http://www.w3.org/2000/svg" xmlns:xlink="http://www.w3.org/1999/xlink" x="0px" y="0px"
	 viewBox="213 -212.9 497.9 497.9" style="enable-background:new 213 -212.9 497.9 497.9;" xml:space="preserve">
<g>
	<path d="M410-84.3c0-11,9-20,20-20c11,0,20,8.9,20,20s-9,20-20,20C418.9-64.3,410-73.3,410-84.3z M429.9,137.9
		c-10.2,0-18.5,8.3-18.5,18.5s8.3,18.5,18.5,18.5c10.2,0,18.5-8.3,18.5-18.5S440.1,137.9,429.9,137.9z M310.7,17.6
		c-10.2,0-18.5,8.3-18.5,18.5c0,10.2,8.3,18.5,18.5,18.5c10.3,0,18.5-8.3,18.5-18.5C329.1,25.9,320.9,17.6,310.7,17.6z M529.5,36
		c0,10.5,8.5,19,19,19c10.5,0,19-8.5,19-19c0-10.5-8.4-19-19-19C538,17.1,529.5,25.6,529.5,36z M438.5,13.1V8.4h-11.7v4.7
		c-5.8,1.6-10.6,5.6-13.3,10.9h-49.2v19.5h49.2c2.7,5.3,7.5,9.3,13.3,10.9v71.1h11.7V54.4c5.8-1.6,10.6-5.6,13.3-10.9h14.1V24h-14.1
		C449.1,18.7,444.3,14.8,438.5,13.1z M680.7,1.2v70.3h-46.9V51.6h-18.5c-3.2,38-17.1,73-39.7,101.1c-5,34-21.2,90.7-21.2,90.7
		l-42,41.6h-168l-39-41.6c0,0-16.1-56.7-21.2-90.7c-25.6-32-41.1-72.5-41.1-116.7s15.4-84.7,41.1-116.7c5-34,21.2-90,21.2-90
		l39.4-42.3h168l41.5,42.3c0,0,16.2,56,21.2,90.1c22.6,28.1,36.5,63.1,39.7,101.1h18.5V1.2L680.7,1.2L680.7,1.2L680.7,1.2z
		 M581.6,36c0-83.6-68-151.7-151.7-151.7c-83.6,0-151.7,68.1-151.7,151.7c0,83.6,68.1,151.7,151.7,151.7
		C513.6,187.7,581.6,119.7,581.6,36z M379.3-21.6l-37.7-37.7l-11,11l37.7,37.7L379.3-21.6z M529.9-48.7l-11.5-10.6l-34.7,37.5
		l11.5,10.6L529.9-48.7z M330.5,125.6l11,11l37.7-37.7l-11-11L330.5,125.6z M483.8,99.1l34.7,37.5l11.5-10.6l-34.7-37.5L483.8,99.1z
		"/>
</g>
</svg>
